<svg width="731" height="40" viewBox="0 0 731 40" fill="none" xmlns="http://www.w3.org/2000/svg">
<path d="M337.681 40L675.363 40L674.324 39.904L673.285 39.808L679.368 39.68C682.781 39.6064 686.49 39.5136 687.825 39.472L690.199 39.392L692.276 39.392L694.353 39.392L694.353 39.3152L694.353 39.2384L696.579 39.2192L698.804 39.2032L698.804 39.1456L698.804 39.0848L695.985 39.0432L693.167 38.9984L693.76 38.6432L694.502 38.288L696.727 38.1888L698.953 38.0896L704.887 38.0352L710.674 37.9808L710.674 37.8944L710.674 37.8048L708.448 37.7408L706.371 37.6736L706.667 37.4784L706.964 37.2864L708.003 37.2992L709.041 37.3152L709.932 37.2416C710.377 37.2 710.97 37.1136 711.267 37.0496L711.86 36.9312L709.635 36.9152C708.448 36.9056 706.371 36.896 705.036 36.896L702.513 36.8928L698.359 36.8224L694.353 36.7488L694.502 36.5568C694.65 36.4544 694.501 36.2176 694.056 36.0352L693.167 35.7024L691.089 35.6768L689.16 35.648L690.941 35.648L692.721 35.648L692.128 35.6C691.683 35.5744 690.941 35.5264 690.347 35.4944C689.902 35.4656 689.605 35.4144 689.754 35.3856L690.051 35.3312L686.342 35.3088L682.633 35.2896L679.814 35.312L676.846 35.3312L675.808 35.296L674.917 35.264L673.434 35.28L672.098 35.2992L672.098 35.2256L672.098 35.1488L669.873 35.0848L667.796 35.024L667.796 34.96L667.796 34.896L670.318 34.832C673.73 34.7488 681.891 34.624 683.968 34.624L685.451 34.624L685.451 34.592L685.451 34.56L687.528 34.56C688.715 34.56 689.903 34.5504 690.199 34.5344C690.793 34.5024 701.326 34.4 703.997 34.4L706.223 34.4L706.223 34.3712L706.223 34.3456L709.783 34.352L713.196 34.3616L715.273 34.2944C718.389 34.1984 725.51 34.0416 725.51 34.0704C725.51 34.0832 726.697 34.0512 728.329 34L731 33.904L730.11 33.8528C729.665 33.824 728.032 33.7664 726.697 33.7248C720.762 33.5488 717.053 33.4144 715.569 33.3248L713.938 33.2256L706.816 33.024C702.958 32.912 698.063 32.784 696.134 32.7392C694.205 32.6944 690.495 32.5824 688.122 32.496C685.748 32.4064 680.11 32.208 675.659 32.0512C671.208 31.8944 667.647 31.7504 667.647 31.728C667.647 31.7056 665.422 31.6288 662.603 31.552L657.559 31.4144L657.559 31.2896L657.41 31.1648L656.223 31.1264L655.036 31.088L655.185 30.992L655.333 30.896L653.256 30.8064L651.179 30.72L647.173 30.7168C644.948 30.7136 641.684 30.7168 639.755 30.72L636.491 30.7232L636.491 30.6496L636.491 30.576L635.007 30.624L633.523 30.672L633.523 30.5984C633.523 30.5248 630.853 30.4 628.33 30.3616L626.995 30.3392L613.197 30.3584L599.399 30.3776L598.509 30.3232L597.471 30.2688L603.108 30.144L608.598 30.0224L607.559 29.9808L606.372 29.9424L608.004 29.9648L609.636 29.9872L612.307 29.8976C613.791 29.8496 616.164 29.7856 617.648 29.76L620.17 29.712L618.687 29.6L617.054 29.488L617.351 29.28C617.351 29.1648 617.5 28.9952 617.351 28.9024L617.203 28.7328L619.28 28.6624C620.467 28.624 621.802 28.5376 622.247 28.4704L623.286 28.352L624.621 28.352L625.956 28.352L626.995 28.2816C627.44 28.2432 628.924 28.1632 630.111 28.1024L632.337 27.9904L633.672 28.0352L635.007 28.08L634.265 27.8752C633.82 27.7632 633.078 27.6576 632.633 27.6448L631.891 27.616L633.226 27.616L634.71 27.616L635.452 27.552L636.193 27.488L632.337 27.4656C630.111 27.4528 627.588 27.4464 626.55 27.4496L624.77 27.4592L623.731 27.3696C623.137 27.3216 621.209 27.2192 619.28 27.1456L615.868 27.0112L615.868 26.8736C615.868 26.7968 615.719 26.592 615.719 26.416L615.571 26.0992L618.093 26.0576C619.577 26.0352 621.654 26.016 622.693 26.016L624.621 26.016L624.621 25.9552L624.621 25.8944L626.847 25.8752L629.221 25.856L628.775 25.7504L628.479 25.6416L633.226 25.52L637.826 25.3984L637.084 25.3696L636.342 25.344L638.716 25.344L640.941 25.344L642.722 25.264C643.612 25.2192 644.948 25.184 645.69 25.184L646.876 25.184L646.876 25.1104L646.876 25.0336L643.464 24.9472C641.684 24.8992 638.864 24.8256 637.084 24.7872L634.117 24.7136L635.007 24.6528C635.6 24.6208 635.748 24.576 635.452 24.5536L634.71 24.5152L639.013 24.496C641.239 24.4832 646.728 24.4448 650.882 24.4096L658.745 24.3456L658.745 24.2976C658.745 24.272 657.855 24.2048 656.668 24.1504C655.482 24.0928 653.849 23.9968 652.959 23.936L651.476 23.824L651.03 23.616L650.734 23.408L654.591 23.248C656.669 23.1584 659.933 23.0112 661.861 22.9216L665.422 22.752L667.35 22.752C668.389 22.752 670.318 22.7392 671.801 22.7232C673.137 22.7072 676.55 22.6752 679.072 22.656L683.968 22.6176L683.968 22.5632C683.968 22.5344 682.336 22.4256 680.407 22.32L676.698 22.1312L677.885 22.096C678.478 22.08 679.962 21.9968 681 21.9136L682.781 21.76L682.039 21.696L681.297 21.632L682.633 21.6512L683.968 21.6672L684.709 21.6256C685.006 21.6032 685.6 21.5168 686.045 21.4336L686.638 21.2832L681.594 21.2608L676.698 21.2416L674.917 21.1968L673.285 21.152L670.466 21.152L667.796 21.152L666.757 21.04C666.312 20.9792 665.273 20.9184 664.532 20.9088L663.196 20.8928L663.196 20.816L663.196 20.7392L660.526 20.7072L658.004 20.672L659.932 20.6464L661.861 20.6176L659.784 20.4352L657.559 20.256L661.416 20.1632C663.493 20.112 666.016 20.0256 667.054 19.9712L668.983 19.8752L665.125 19.7952C663.048 19.7504 660.526 19.712 659.636 19.712C658.746 19.712 655.778 19.664 652.959 19.6096L647.915 19.5104L647.618 19.3568L647.321 19.2L643.464 19.1104C641.239 19.0592 639.458 19.008 639.458 18.9888C639.458 18.9728 638.568 18.9216 637.381 18.8768L635.304 18.7904L636.639 18.7488C637.381 18.7232 637.974 18.6592 637.974 18.6048L637.974 18.5056L640.941 18.432C642.574 18.3904 643.909 18.3488 643.909 18.3392C643.76 18.3296 643.315 18.2624 642.574 18.192L641.535 18.064L643.167 17.68L644.948 17.296L643.315 17.2512L641.683 17.2032L644.206 17.2256L646.876 17.2448L646.431 17.2224C645.838 17.184 651.772 17.0656 655.63 17.04L659.339 17.0144L662.01 16.9472L664.68 16.88L663.938 16.7872C663.493 16.736 662.306 16.6688 661.119 16.6432C659.191 16.592 658.3 16.5312 655.778 16.256L654.443 16.112L650.437 15.936L646.283 15.76L645.837 15.584C645.689 15.488 645.541 15.392 645.392 15.3728L645.392 15.3344L642.87 15.3408L640.348 15.344L639.755 15.2864L639.309 15.232L641.683 15.232L644.057 15.232L643.76 15.0464L643.464 14.8608L645.541 14.784C646.728 14.7392 648.063 14.6976 648.508 14.688C648.953 14.6784 649.843 14.6272 650.288 14.5696L651.179 14.4672L647.025 14.4C644.651 14.3648 642.128 14.336 641.386 14.336C640.644 14.336 635.897 14.2528 630.704 14.1504L621.505 13.9648L623.138 13.8752L624.77 13.7824L624.324 13.7152C623.731 13.6192 621.506 13.5776 614.533 13.5328L608.301 13.4944L605.927 13.4144L603.405 13.3344L603.405 13.2608L603.405 13.184L602.218 13.2032L600.883 13.2192L600.883 13.1904L600.883 13.1584L595.69 13.1392L590.497 13.1168L589.755 13.0464L589.013 12.976L589.755 12.72C590.2 12.5792 590.645 12.4256 590.942 12.3744L591.239 12.288L592.278 12.2848C593.02 12.2816 593.91 12.2784 594.503 12.2752C596.432 12.2688 603.108 12.16 601.773 12.16L600.586 12.16L602.069 12.1184L603.553 12.08L601.476 11.952L599.399 11.824L598.509 11.552C598.064 11.4016 597.618 11.216 597.618 11.136L597.618 10.9952L595.69 10.96C594.651 10.944 593.464 10.8896 592.871 10.8448L591.981 10.7584L593.613 10.6688L595.097 10.576L598.806 10.5184C600.883 10.4832 603.405 10.4544 604.295 10.4512C605.333 10.4448 607.114 10.432 608.301 10.4224C609.488 10.4128 612.455 10.3968 614.977 10.3872C617.351 10.3776 620.912 10.3616 622.693 10.3488L626.105 10.3296L625.363 10.304L624.621 10.2752L625.956 10.2592L627.292 10.24L626.105 10.1248L624.918 10.0096L625.808 9.81442C626.698 9.60322 626.698 9.54562 626.105 9.21922L625.808 9.01762L627.589 8.99202L629.221 8.96962L630.704 8.82882C631.446 8.75202 632.485 8.66242 632.93 8.62722L633.82 8.56642L632.337 8.58882L631.001 8.60802L632.188 8.47042C632.782 8.39682 633.968 8.29442 634.858 8.24642L636.491 8.15362L635.6 8.12162L634.562 8.08642L636.046 8.10562L637.529 8.12482L639.458 8.03842C640.645 7.99042 641.535 7.92642 641.386 7.89442L641.386 7.84002L643.909 7.84002C645.244 7.84002 646.876 7.83042 647.469 7.81762C648.063 7.80162 649.101 7.79202 649.546 7.79202C650.14 7.79202 652.217 7.76642 654.294 7.73442C656.223 7.70562 657.262 7.68002 656.52 7.68002L655.185 7.68002L656.817 7.64482L658.448 7.60962L656.371 7.52322L654.443 7.43682L653.404 7.28002C652.662 7.12642 651.773 6.95042 650.882 6.78402C650.734 6.73922 650.14 6.69762 649.695 6.68802C649.25 6.67842 648.063 6.62402 647.173 6.56322L645.392 6.45122L646.579 6.43522C647.321 6.42562 648.212 6.38402 648.657 6.34562L649.546 6.27522L647.469 6.25922L645.392 6.24322L645.392 6.09602L645.392 5.94882L643.909 5.96802L642.425 5.98722L642.425 5.92002L642.425 5.85282L643.76 5.87202L645.244 5.88802L646.134 5.82722L647.025 5.76322L645.392 5.69602C644.502 5.66082 643.167 5.63202 642.425 5.63202L640.941 5.63202L640.941 5.68642L640.941 5.73763L640.051 5.71842C639.458 5.70882 639.013 5.61922 638.865 5.52322L638.567 5.35042L639.755 5.36642L640.941 5.37922L640.644 5.28322L640.348 5.18402L636.935 5.18402L633.523 5.18402L633.523 5.12642C633.523 5.09762 632.485 5.00802 631.298 4.93122L628.924 4.79362L636.935 4.57922C647.173 4.31042 658.004 4.06402 659.784 4.06402C660.526 4.06402 661.861 4.08002 662.899 4.10242L664.532 4.13763L666.609 4.10242L668.686 4.06402L669.724 4.08963L670.912 4.11202L672.989 4.05123L675.066 3.98723L675.066 3.81763L675.066 3.64483L677.143 3.54242L679.072 3.44003L683.226 3.35042L687.38 3.26402L689.902 3.26402L692.573 3.26402L693.314 3.19683L694.205 3.12643L693.463 3.04003L692.573 2.95363L695.392 2.89603C696.876 2.86402 697.914 2.83203 697.618 2.82563C696.727 2.80323 699.249 2.65603 701.03 2.62403L703.107 2.58883L702.216 2.53763L701.327 2.48643L703.404 2.51203L705.481 2.54083L703.404 2.48643L701.475 2.43203L704.887 2.23363C706.816 2.12163 708.448 2.01603 708.597 2.00003C708.745 1.98083 709.486 1.93283 710.377 1.88803L711.86 1.80803L708.893 1.75043L705.778 1.69283L703.849 1.70883L702.069 1.72483L701.327 1.66083L700.585 1.60003L698.359 1.60003L696.282 1.60003L697.469 1.44003L698.656 1.28003L700.881 1.23203C702.068 1.20643 703.849 1.18403 704.739 1.18403C706.964 1.18403 712.009 1.05283 712.157 0.995227L712.157 0.950427L708.597 0.848029L704.887 0.745631L704.887 0.55683C704.887 0.454428 704.887 0.32323 704.887 0.272029C704.887 0.217627 704.739 0.14083 704.294 0.09603L703.7 0.0160282L351.925 0.00641119L10.0002 0.000182107C4.47724 7.88689e-05 1.55275e-06 4.47726 1.31133e-06 10.0002L8.74227e-07 20L4.37113e-07 30C1.95702e-07 35.5228 4.47717 40 10 40L337.681 40Z" fill="white"/>
</svg>
