<svg width="731" height="236" viewBox="0 0 731 236" fill="none" xmlns="http://www.w3.org/2000/svg">
<path d="M337.681 236L675.363 236L674.324 235.434L673.285 234.867L679.368 234.112C682.781 233.678 686.49 233.13 687.825 232.885L690.199 232.413L692.276 232.413L694.353 232.413L694.353 231.96L694.353 231.507L696.579 231.393L698.804 231.299L698.804 230.959L698.804 230.6L695.985 230.355L693.167 230.091L693.76 227.995L694.502 225.899L696.727 225.314L698.953 224.729L704.887 224.408L710.674 224.087L710.674 223.577L710.674 223.048L708.448 222.671L706.371 222.274L706.667 221.123L706.964 219.99L708.003 220.065L709.041 220.16L709.932 219.725C710.377 219.48 710.97 218.97 711.267 218.593L711.86 217.894L709.635 217.8C708.448 217.743 706.371 217.686 705.036 217.686L702.513 217.668L698.359 217.252L694.353 216.818L694.502 215.685C694.65 215.081 694.501 213.684 694.056 212.608L693.167 210.644L691.089 210.493L689.16 210.323L690.941 210.323L692.721 210.323L692.128 210.04C691.683 209.889 690.941 209.606 690.347 209.417C689.902 209.247 689.605 208.945 689.754 208.775L690.051 208.454L686.342 208.322L682.633 208.209L679.814 208.341L676.846 208.454L675.808 208.246L674.917 208.058L673.434 208.152L672.098 208.265L672.098 207.831L672.098 207.378L669.873 207L667.796 206.642L667.796 206.264L667.796 205.886L670.318 205.509C673.73 205.018 681.891 204.282 683.968 204.282L685.451 204.282L685.451 204.093L685.451 203.904L687.528 203.904C688.715 203.904 689.903 203.847 690.199 203.753C690.793 203.564 701.326 202.96 703.997 202.96L706.223 202.96L706.223 202.79L706.223 202.639L709.783 202.677L713.196 202.733L715.273 202.337C718.389 201.771 725.51 200.845 725.51 201.015C725.51 201.091 726.697 200.902 728.329 200.6L731 200.034L730.11 199.732C729.665 199.562 728.032 199.222 726.697 198.976C720.762 197.938 717.053 197.145 715.569 196.616L713.938 196.031L706.816 194.842C702.958 194.181 698.063 193.426 696.134 193.161C694.205 192.897 690.495 192.236 688.122 191.726C685.748 191.198 680.11 190.027 675.659 189.102C671.208 188.177 667.647 187.327 667.647 187.195C667.647 187.063 665.422 186.61 662.603 186.157L657.559 185.345L657.559 184.609L657.41 183.872L656.223 183.646L655.036 183.419L655.185 182.853L655.333 182.286L653.256 181.758L651.179 181.248L647.173 181.229C644.948 181.21 641.684 181.229 639.755 181.248L636.491 181.267L636.491 180.833L636.491 180.398L635.007 180.682L633.523 180.965L633.523 180.531C633.523 180.096 630.853 179.36 628.33 179.133L626.995 179.001L613.197 179.115L599.399 179.228L598.509 178.907L597.471 178.586L603.108 177.85L608.598 177.132L607.559 176.887L606.372 176.66L608.004 176.792L609.636 176.924L612.307 176.396C613.791 176.113 616.164 175.735 617.648 175.584L620.17 175.301L618.687 174.64L617.054 173.979L617.351 172.752C617.351 172.072 617.5 171.072 617.351 170.524L617.203 169.524L619.28 169.108C620.467 168.882 621.802 168.372 622.247 167.975L623.286 167.277L624.621 167.277L625.956 167.277L626.995 166.861C627.44 166.635 628.924 166.163 630.111 165.804L632.337 165.143L633.672 165.408L635.007 165.672L634.265 164.464C633.82 163.803 633.078 163.18 632.633 163.104L631.891 162.934L633.226 162.934L634.71 162.934L635.452 162.557L636.193 162.179L632.337 162.047C630.111 161.972 627.588 161.934 626.55 161.953L624.77 162.009L623.731 161.481C623.137 161.197 621.209 160.593 619.28 160.159L615.868 159.366L615.868 158.554C615.868 158.101 615.719 156.893 615.719 155.854L615.571 153.985L618.093 153.74C619.577 153.608 621.654 153.494 622.693 153.494L624.621 153.494L624.621 153.136L624.621 152.777L626.847 152.664L629.221 152.55L628.775 151.927L628.479 151.285L633.226 150.568L637.826 149.851L637.084 149.681L636.342 149.53L638.716 149.53L640.942 149.53L642.722 149.058C643.612 148.793 644.948 148.586 645.69 148.586L646.876 148.586L646.876 148.151L646.876 147.698L643.464 147.188C641.684 146.905 638.864 146.471 637.084 146.244L634.117 145.81L635.007 145.452C635.6 145.263 635.748 144.998 635.452 144.866L634.71 144.64L639.013 144.526C641.239 144.451 646.728 144.224 650.882 144.017L658.745 143.639L658.745 143.356C658.745 143.205 657.855 142.808 656.668 142.487C655.482 142.148 653.849 141.581 652.959 141.222L651.476 140.562L651.03 139.334L650.734 138.107L654.591 137.163C656.669 136.635 659.933 135.766 661.861 135.237L665.422 134.237L667.35 134.237C668.389 134.237 670.318 134.161 671.801 134.067C673.137 133.972 676.55 133.784 679.072 133.67L683.968 133.444L683.968 133.123C683.968 132.953 682.336 132.311 680.407 131.688L676.698 130.574L677.885 130.366C678.478 130.272 679.962 129.781 681 129.29L682.781 128.384L682.039 128.006L681.297 127.629L682.633 127.742L683.968 127.836L684.709 127.591C685.006 127.459 685.6 126.949 686.045 126.458L686.638 125.571L681.594 125.439L676.698 125.325L674.917 125.061L673.285 124.797L670.466 124.797L667.796 124.797L666.757 124.136C666.312 123.777 665.273 123.419 664.532 123.362L663.196 123.268L663.196 122.814L663.196 122.361L660.526 122.172L658.004 121.965L659.932 121.814L661.861 121.644L659.784 120.568L657.559 119.51L661.416 118.963C663.493 118.661 666.016 118.151 667.054 117.83L668.983 117.264L665.125 116.792C663.048 116.527 660.526 116.301 659.636 116.301C658.746 116.301 655.778 116.018 652.959 115.697L647.915 115.111L647.618 114.205L647.321 113.28L643.464 112.751C641.239 112.449 639.458 112.147 639.458 112.034C639.458 111.94 638.568 111.637 637.381 111.373L635.304 110.863L636.639 110.618C637.381 110.467 637.974 110.089 637.974 109.768L637.974 109.183L640.942 108.749C642.574 108.503 643.909 108.258 643.909 108.201C643.76 108.145 643.316 107.748 642.574 107.333L641.535 106.578L643.167 104.312L644.948 102.046L643.316 101.782L641.683 101.499L644.206 101.631L646.876 101.744L646.431 101.612C645.838 101.386 651.772 100.687 655.63 100.536L659.339 100.385L662.01 99.9885L664.68 99.592L663.938 99.0445C663.493 98.7424 662.306 98.3459 661.119 98.1949C659.191 97.8928 658.3 97.5341 655.778 95.9104L654.443 95.0608L650.437 94.0224L646.283 92.984L645.837 91.9456C645.689 91.3792 645.541 90.8128 645.392 90.6995L645.392 90.473L642.87 90.5107L640.348 90.5296L639.755 90.1898L639.309 89.8688L641.683 89.8688L644.057 89.8688L643.76 88.7738L643.464 87.6787L645.541 87.2256C646.728 86.9613 648.063 86.7158 648.508 86.6592C648.953 86.6026 649.843 86.3005 650.288 85.9606L651.179 85.3565L647.025 84.96C644.651 84.7523 642.128 84.5824 641.386 84.5824C640.644 84.5824 635.897 84.0915 630.704 83.4874L621.505 82.3923L623.138 81.8637L624.77 81.3162L624.324 80.9197C623.731 80.3533 621.506 80.1079 614.533 79.8435L608.301 79.617L605.927 79.145L603.405 78.673L603.405 78.2387L603.405 77.7856L602.218 77.8989L600.883 77.9933L600.883 77.8234L600.883 77.6346L595.69 77.5213L590.497 77.3891L589.755 76.9738L589.013 76.5584L589.755 75.048C590.2 74.2173 590.645 73.3111 590.942 73.009L591.239 72.4992L592.278 72.4803C593.02 72.4615 593.91 72.4426 594.503 72.4237C596.432 72.3859 603.108 71.744 601.773 71.744L600.586 71.744L602.069 71.4986L603.553 71.272L601.476 70.5168L599.399 69.7616L598.509 68.1568C598.064 67.2694 597.618 66.1744 597.618 65.7024L597.618 64.8717L595.69 64.664C594.651 64.5696 593.465 64.2487 592.871 63.9843L591.981 63.4746L593.613 62.9459L595.097 62.3984L598.806 62.0586C600.883 61.8509 603.405 61.681 604.295 61.6621C605.333 61.6243 607.114 61.5488 608.301 61.4922C609.488 61.4355 612.455 61.3411 614.977 61.2845C617.351 61.2279 620.912 61.1335 622.693 61.0579L626.105 60.9447L625.363 60.7936L624.621 60.6237L625.956 60.5293L627.292 60.416L626.105 59.7363L624.918 59.0567L625.808 57.905C626.698 56.6589 626.698 56.3191 626.105 54.3933L625.808 53.2039L627.589 53.0528L629.221 52.9206L630.704 52.0899C631.446 51.6368 632.485 51.1082 632.93 50.9005L633.82 50.5418L632.337 50.6739L631.001 50.7872L632.188 49.9754C632.782 49.5411 633.968 48.937 634.858 48.6538L636.491 48.1063L635.6 47.9174L634.562 47.7098L636.046 47.8231L637.529 47.9363L639.458 47.4266C640.645 47.1434 641.535 46.7658 641.386 46.577L641.386 46.256L643.909 46.256C645.244 46.256 646.876 46.1994 647.469 46.1239C648.063 46.0294 649.101 45.9728 649.546 45.9728C650.14 45.9728 652.217 45.8218 654.294 45.633C656.223 45.4631 657.262 45.312 656.52 45.312L655.185 45.312L656.817 45.1043L658.448 44.8966L656.371 44.3869L654.443 43.8771L653.404 42.952C652.662 42.0458 651.773 41.0074 650.882 40.0256C650.734 39.7613 650.14 39.5159 649.695 39.4592C649.25 39.4026 648.063 39.0816 647.173 38.7229L645.392 38.0621L646.579 37.9677C647.321 37.9111 648.212 37.6656 648.657 37.4391L649.546 37.0237L647.469 36.9293L645.392 36.8349L645.392 35.9664L645.392 35.0979L643.909 35.2112L642.425 35.3245L642.425 34.928L642.425 34.5315L643.76 34.6448L645.244 34.7392L646.134 34.3805L647.025 34.0029L645.392 33.6064C644.502 33.3987 643.167 33.2288 642.425 33.2288L640.942 33.2288L640.942 33.5498L640.942 33.8519L640.051 33.7386C639.458 33.6819 639.013 33.1533 638.865 32.5869L638.568 31.5674L639.755 31.6618L640.942 31.7373L640.644 31.1709L640.348 30.5856L636.935 30.5856L633.523 30.5856L633.523 30.2458C633.523 30.0759 632.485 29.5472 631.298 29.0941L628.924 28.2823L636.935 27.0173C647.173 25.4314 658.004 23.9776 659.784 23.9776C660.526 23.9776 661.861 24.072 662.899 24.2042L664.532 24.4119L666.609 24.2042L668.686 23.9776L669.724 24.1287L670.912 24.2608L672.989 23.9021L675.066 23.5245L675.066 22.5239L675.066 21.5043L677.143 20.9002L679.072 20.296L683.226 19.7674L687.38 19.2576L689.902 19.2576L692.573 19.2576L693.314 18.8612L694.205 18.4458L693.463 17.936L692.573 17.4263L695.392 17.0864C696.876 16.8976 697.914 16.7088 697.618 16.6711C696.727 16.5389 699.249 15.6704 701.03 15.4816L703.107 15.2739L702.216 14.9719L701.327 14.6698L703.404 14.8208L705.481 14.9907L703.404 14.6698L701.475 14.3488L704.887 13.1783C706.816 12.5175 708.448 11.8944 708.597 11.8C708.745 11.6868 709.486 11.4035 710.377 11.1392L711.86 10.6672L708.893 10.3274L705.778 9.98755L703.849 10.082L702.069 10.1763L701.327 9.79875L700.585 9.44002L698.359 9.44002L696.282 9.44002L697.469 8.49602L698.656 7.55202L700.881 7.26881C702.068 7.11778 703.849 6.98561 704.739 6.98561C706.964 6.98561 712.009 6.21153 712.157 5.87169L712.157 5.60738L708.597 5.00322L704.887 4.39908L704.887 3.28516C704.887 2.68098 704.887 1.9069 704.887 1.60483C704.887 1.28386 704.739 0.830748 704.294 0.56642L703.7 0.0944202L351.925 0.0377489L10.001 0.00106712C4.47779 0.000471783 1.01202e-05 4.4778 9.87873e-06 10.0011L5.15794e-06 118L4.37114e-07 226C1.95703e-07 231.523 4.47717 236 10 236L337.681 236Z" fill="white"/>
</svg>
