<svg xmlns="http://www.w3.org/2000/svg" width="756" height="768"><defs><clipPath id="A"><path clip-rule="evenodd" transform="translate(.09 45)" d="M0 0h635v856H0z"/></clipPath></defs><g clip-path="url(#A)" transform="matrix(.852386 0 0 .852386 216.18364 0)"><g fill="#a73a24"><path d="M198.09 824l-1-1-4 2-1-1v-1h-2l-2 1-1-2v-1h-2l-1 1-1-1-5-1-3-1-1 1v1l-2-1-1-2-2 1-3 1-6 1h-7l-3 1h-4l-2 1-1-1v-1l-6 2-8-2-1 2-1 1-1-1-2-1-6 1h-9l-3 1-1-1v-1l-3 1h-13l-5-1-2-1-5-4-3-3-3-5-2-8-1-3h-1l-1-3-4-38v-5l1-4 2-4 2 1 3 1 4 4-1-2v-2l1 1 3 7v1h1l2-2h8l9-1h2l3 1v-5l3-1h3v3h4v1l1 2h3v-3h5v1l1 2 4 2h1l2-3 2-2-2-1h-1v-2l8-4 7 1h7l1-2 1-3h12l2 1 1 1 1 3v3h1l1-1v-1l9 1h8l2-2 3 1h2l1-2 1-3h4l1 4 1 3h5l1-4 3-5 2-1h6l6-1 1 1 2 1v4l-2 2-2 1h-1l-2 3-3 4-4 1-7 2-3 1h-4l-1 2-1 1-1 6-1 4 4 10-2 2-1 2v1h-3l2 2 4-1h3v1l1 2 4-4-1-2-2-1 2-1 1-1h6v-1l5-3 4-2h4v2l1 1h2v2l5-1h5l1 1v2h-2v1l1 1h1l2 1h7l1-1h1l1 4 1 5v1l-1-1v18l-2 2-1 2v1h-2l-1-1-1 1v2l-1-1h-1l-3 1-3 2h-6l-1 2-1 1h-3l-2-1v2h-3l-4 1-1 1-2-1h-2l-1 1-1 2-3-2-2-3-1 2-1 1-2 1h-2l-2-1z"/><path d="M56.09 743l-2-5-3-12-6-26-3-5-2-3-4-10-5-20-1-8v-18l-2-4-4-7-2-2v-9h-2v-3h2v-7l1-2 2-1 1-1-1-1h4v2h-2l5 4 4 5 4-2 4-1v-1l1-3 2-2 5 5 4-1h1l1-6v-6l1-1 2-1 4-1 9-2 7-2h3l1-1h1l14-2 13-2h87l1-2v-2h8l2 2 3 2 7-2 7-1v1l1 1h4l4 1 2-1 3-2h4l3 3 4-2h3l6 1 4 1 2-2h5v19l1 6c0 5 2 10 4 15h0l1 1v3c0 4 3 15 6 17h0l1 3 2 4 3 12 4 10v1l-10 2h4l-1 2-3 1h-1v10h-5v-1l-7-7h-1v-3l-3 3-2 4h-4l-1 4-2 4 2 8h-5v-3l-1-2-3-3-2-3v-4l-6-6v-4l1-4 5-8 7-9 2-2v-2h-3l-3 3a65.7 65.7 0 0 0-12 17h0v1h-4v-2l1-5 1-4h-1v2h-5v-4h2v-3h5v1l2-2 1-1-2-1-3-2h-7v-2l-1-2h-3v6h-5v-2l-1-1h-2v5l-1 1-2 1h-4v-6l1-6h2l2-1v-4l3-3h6v5h2l2 1v-2l-1-5-2-4h-1l-5 1-3 1-14-2h-22l-2-6h-5l-1 1v1h-8l-8-1-2-1-1-1-3 1-2 1h-11l-6 4h-3l-4-8h-1l-8 2-6-1-16-1h-9l-2 2-3 1h-5l-4-2h-2l-3 1v1h4l4 4v5h-6l-2-2-2-4v-1l-3-1-4-2h-11l-12-1-1-1v1l3 4c1 0 4 2 6 5h0l5 4v4l-1-1h-1v4l1-2 1-1h3l4 6v5l1 1h3l7 7v-2h5l2 2h9l2-2h7l-2-1h-2v-6h5v3h4v2l1 1 3 1 3 2v6h-4l-3-1v3h-4v4l1 4h-1l-1 1v7h-4l-1-3-1-2h-6v-1l-1-4-1-3h-4l1 3 1 6 1 5h-5l-1-4-3-10-1-5v2l1 7 1 9v1h-4l-1-2-3-12-1-5h-1l-1-1v1l3 15 2 15h4l4 12v6h-5l-1 4v3h-4l-1 3v2l1 3 4 9 3 7v1h-1l-5 5h-3l-2-3v-1zm524-24h-4l1-2c3-10 5-20 5-30h0v-4h-1l-2-1v13l-1 4-1 5h-5l-1-2-2-2v-3l-1-3-1 1h-1v5l1 4-2 2-1 2h-7v-1h-6l-1 2-1 1h-3v4l1 3h-6v-8h-2l-2 1-1 2h-6v-2l-4-1-5-1-1 2-2 2v1h-4v-2h-4l-3-2-4-1-2 3-3 3h-2l-6-2-5-2-3-3-3-4v-20l2-3 1-3h6l1-9 1-14 1-3 1-1 4-1h2l6 6v3l1 4 1-5 1-4 3-2 2-2 5-1h6l1 1v7h2l4-6h9l1 2 2 2 1-1 3-1 1-2h4l5-1v2h2v-2l2 1 1 1 2-2h1v3h5l3 3v3h4l1 7 2 9v4l2 1h1v-1l-5-22-1-4h8l-2-1h-3l-2-6h-5v-4l3-3-1-2v-3l1-1 3-1h1l1-3 1-2v-6h5v2h1l3 2 2 2 4-10h2l3 1 2 1v6l-5 5v9l1 4-4-2-1 2v4l1-1h1v4h-1l-3 1-1 1-3 1h-2l2 3 3 3 2-6 2-1 2-2h5v3h2l3 1h1l2-2 1-3h11v1l1 6 1 5-2 4 2 2-1 3v4l-2 2-2 1v15l-1 5-3 7-1 2h-4l-5-5v2l-1 2h1l1 1v4h-1l-1-1v2l-1 2 2 2h-2l-3 1-3-2-3-1-3 1h-3v7h-2zm-38-142l-3-1h-1l-2-1-3-4-2-3h-5v1l-1 1-4 3-3 3-4-2 1 1v1h-2v-3h-2l2 2h-3l-4-4-4-18 2-6v-6l-2 1-1 2-6-2-2 2-3 2v4h-2l-3 1-2-1-3-2-1-1-2 1h-2l-1 4-2 3v6l-2 10v2h-5v-5l1-5h-3v-3l-1-9-1-5-1-2-2-1-1 1-2 1h-2v4l-1 4h-5l-1-1-1-4v-1l2 4v-2l2-10 1-7v-6l-1-5v9l-1 9-2 6h-2v-4l-2-6v3l1 6v3h-4v5h-1l-3 9v4h-6l1-2 1-4v-1l1 1 2 1-3-3 1-3 1-4-2 6h-3l-2-2-2-3v-3h-1v-2l-1-2v2h-4l-4 4h-5l-2-2-2-3v-1h-3l-2 3-3 3-1 8-1 8-1 1h-4l-1-5v-4l-2-4-2-5v-2h-3l-5-1-7 1h-6v1l-1 3-1 2h-2l-2 1-4-8-3-2-3-1h-3l-3 1v2h-3l-1 3-1 4h-3l-3 9v3l-1-2-1-3v4h-2l-1-1v3h-3v-5l-2 6-1-4-1-8-1-4-3-3-3-4h-3v2l-1 3-1 1v5l-1 9v3h-5l-1-1-3-6h-2v-3l-1-3h-4v10l-2 2-1 3v1h-4l-3-1-2-4-1-5-1-8v-8l-6-2-2-6v3h-3l-2 3-2 2-4 1-3 1-1-8v-18h8v1l4 2 3 2 2-2h7l1 3 2 3v6h14l3-3 4 2 4 1h7c9 0 16-1 17-2h0l1-1v-4l2-1 1-1v-3l5-5h8v2h5v1l1 1h8v1l1 1 2-2 3-1v-2l1-5 2-4v-20l-2-5-3-6-2-3-4-2-4-1-1 1h-2l-7-1-10-1h-3v-4l2-1 3-2v-5h4v-11l-4 3-3 4-2-1h-18v1l5 5 1-1v6h2l3 1h2l1 2 1 4v2h-4l-5-1-1-1v-1h-7l-6 6-1 2h-5l-4-4h-1l-6-1-4-1v-5h5l1-1 1-2h3v-2l8-2 4-3 2-2h3l-1-2-2-2v-4h-8l-8 1-4-2v-3h-1l-1-1v-5l2-2 10-2 11-1 1-1 5-7 2-4 2-8 2-12 2-5h32l-1 6v6l-4 8-5 9v3h1l6-3 6-2h35l2-2 4-7 2-5 1-9 1-8-1-5-1-7-1-2-3 1-6 1h-4v-2l-1-3 1-7 1-9v-2h-8l-34-1-26-2v-1l-9-1h-8l-2-1-1-1h-1v1l-28-2-10-2-1-6v-5h3v-4l3-1h22l10-3 10-2h16l16-1 6 1 7 1 7 4 7 3 7 1h8l4-6v-1l8-6v-4h-3l-3 1h-1v6h-5v-6l-4-1-5-1h-3v2h-4l-2-2h-26l-3-1-2-1-4 2-7 1-11 1h-3l-4-8v-16l2-8h1l2-1h-2v-3l6-2h-3l-2 1v-2l1-2h1v-3l3-1 2-1h-2l-2 1-1-14v-15l2-1 1-1-1 1h-2v-8l7-3 8-4h-1l-1-1h3l5 2 1 2v-2l1-3 3-1 3-2v4l-4 4-1-1h-1v2l-5 2-5 3 4-1 6-3h1v3l-1 5-1 2h-2l-1 1h3v3h1l1-1v-1h7v-17h1l2-2 2-1-2 1c-3 1-3 1-3-1h0v-2l3-2 7-4 5-1-2-1-1-1-6 3-6 2v-47h5v2h3v-3h-2l-3-1v-1l1-3 2-2-4 2v-9l3-1h3l2 4-2 2-2 3 4-2v3h4l2 3c2 2 3 3 2 4h0 2v19l2-16-1 15v16l-3 3 1-1h2v1l-1 1h2v4l-2 1-2 2 4-2v29h-10l-10 1h20v15l-3 1-2 1 2-1h3v6l-10 4 5-1 4-2 1 7v7l1-7v-8h1l-1-1v-21h16v3l1 3v-6h19l-11 4-12 4h2l1 1 3-1 12-5 10-3h15l-3 2-2 1 7-3v-1h-11l9-3 9-2h-2l-3-1-9 3-9 2-13 1h-12v-9l-1-9v18h-13v-2l-1 2h-2v-36l2-2h-2v-32l3 1h3l1-5 1-6h3l2-1 1-3 2-4h7l2 2v2l-1 2 1-2 1-3 2 1 7 1 6 1v4h-4v2h-2v9l1-2v-2l2-1 3-2v-3l1-1 2-1 2-16h5l2 1 1 2 4-1 3-1 2-6h3l2-1h9l1-5 1-4-1-5-1-4h-3l-7 1-5 1v-5h2l8-1 6-1v4h4l1 1c2 8 4 17 4 25h0v9l1 2h5v4h-5v-1l-1-2v3l-1 2 2 4h3l3 1v2l-1 1 4 2 3 1v3l2 2v6l5-4 7-9 4-4h4l1-1v-1h3l3 1 6-6 3-1h7l2 1 1 3c2 4 4 16 5 25h0v8h3l5-1h3v-1h4v-2h6l3-2 2-2h8v2l2-2 7 1h7v2h12v-2h-4l-4-1v-1l1-4 1-3h2l2 1 1 2v2h3v3h2v3h2v5h2l2 1 2 3 1 3h4v2h8l2 3 3 4h3l3 2h5l5-1v3h2l2 3 2 4h5l1 1 2 4 2 2v22l-1 1v2l1 2-2 2-1 3h-6l-1-1-5-2-3-1h-6l-2-2-3-2h-4l-2-3-1-2h-3v2h3v5h-3v3h-4v-5h2v-3h-3v-5l-4-2-1 7-2 12-1 5-1 2-1 1 1 1 1 2 4 1 3 2 1-1v-5h4l-1-1h-2v-5h4v3h4l-1 3-1 5v1h-3l-1 4-1 3h1l6 7v1h5v2l5 1h5v2h3l2 2 3 2h1l4 1 2 1v2l2 3 1 1v8l2-1h3l2 1 1 2 1-1v-2h4v8h3v4l1 12 1 20v12l-1 6-1 7h-5v-36l-2-4h-1l-1 1-2 3-2 4h-4l-1-3v-3l-2 2-1 2h-4v-2l-1-5v-2h-3l-2 2c-2 1-2 2-2 3h0v1h-7l-4-9-5-9-8-12-15-21-6-9-3-2-3-1-2 1h-1v1l1 1h4l2 3 18 24 15 24 4 9h-2l-2 9-2-2-2 2 2 1h2v5l-3 1-3 2h-2l-1-1v-5l1-1 1-2-2 2-1-4-1-3 2-1h1l-4-6v-2h-2l-2-1v-2h-3l-3 1v-5h-1l-2 1-2-1h-2v-4h-1l-1-1v5h-5v-2h-4v-4l-2 6 3 3h3v2l1 2-2 4h-5l-1-2-2-1v1l-1 2h-3l-1 4-2 5v2h-3l2-4-1 2-2 2h2l2 1 1 5v16h-4l-2-4-1-3 1-6v-12l-1-8-4-2h-5v-6h-4l-2-1v18h-1v7l2 2 1 2v4l1 1h2v8h-2v-1h-1l1 2 1 1h-5v-1l2-2-2-2 1 1v1h-3v-5c-2-3-4-8-4-11h0l-1-2 1-3v-2h3l-1-2v-5l-4-4h-2l-3 3-3 2v5l-1 4 2 9 3 10v2h2l2 1-2 1-1 1h2l1 1v5l-1-1 5 5-1 2-3 14v1l2-2v12l-2 10-5 19-1 4h4l2 3 2 4-2 2 6-3v-1l1 2 1 1v-2l1-2 2-1h3l-1 1-2 1h3l2-4h4v2l1 1h4v2l1-1h1l-2 20h1l1-1 1-11 3-12 1 1 1 2v-4h4v4h2v1l-1 2h1l2-2v-1l1 1 1 2v-3h8v4l1 3 4-4 4-3-1-1h-1l1-1v-1h5l2-2v2l2 3 1 2v-2l-1-1 2-2h4l2-2 3-2v-4h1l1-1 1-4v-4l1-2 2-1h1l3-5h1v12h-1l-1 1v8l2 3 3 3h7l4 6 1 3 1 4 1 2 2 1v8h-1l-4 1h-1v-5h1l1-1h-1l-1-1v-2h-2v-3h-3v3l-2 3v9l-1 13-1 4h-4v-7h-2v6h-2v4h-4v-4h1v-9l1-9h-3l-3 3h2v5h-5l-1-1v-1l-12 4v8h-4v1h-6v-1h-4v-2h-1l-10 4 2 6-2 2v6l-2 2v2l-1 4-1 2h2v7h-1l-1 1-1 3v3h2v-3h5v4l-1 1h-1v5h-4v-1l-1-2v3h-3v1l1 2h2l2 1v-3h4v4h-4v4l-1 3h3v4h2v6h-4v-2h-1l-3 2-1 1h-4l-1 1v1h-2zm-473-140l-1-1v-1l1 1h1v-2h5c9 0 5 0-5-1h0-10l-4-2 2 2h-4v-1l-1-4v-2h24l1-1 7-3 6-3 1-1h12l4-2 3-1 3 1h2l2 1 1 2v1l-1-1h-1v3l-2 2-6 4-2 2 10-6v9h-2l-2 1 1-2 1-1-3 1-4 1-1-1v-1h-1l-2 1v2l-3 2-3 1-5 1h-4l1-1 2-1h-2l-3-1-8 1h-8l-2 2z"/><path d="M283.09 254v-6l6-5 10-7 4-3-10 7-8 5-2 1 4-4h-2v-4l2-7 2-11 1-8v-6c0-8 2-17 4-25h0l1-6 2-2 1-2h5l3 3 4 3v6h-4l-1-2-1-1v6l1 2 2 3h2v-1l2-4 2-2h5v2l2 9 1 7 1 2v-11l2-2v-16h3l3-1 1 2v1h5l4-1v43h-2l1 1h1v2l-4 1-4 2v-2l3-2 2-1-8 3-8 4-3 2-4 3h-4v-14l-2-8-4 16-1 7 2 2v4l-1-1-4 1-4 3 8-4-1 2v4l-7 3-8 5 4-2 3-2 1 1v1l2-2 4-3 1-1-3 4-4 4v-2l-1-1-5 5-6 7h-1v-7zm140-143v-4l1-1h-4v-3h-4l-3-1v-5h2v-4l-1 1-1 2h-4v5h-5v-7l-1-2c-2 0-5-3-5-4h0l-1-2-2-2v-4h5v2l1 3 2-1h1v-3h2v-5l-3 1h-4v-2l-2 1h-2v3h-3l-3 1-2-1-1-3v-1h-1l-1 1v1h-1l-4 1h-1v3h-5v2l-3-1h-3v-5h4v-3h2v-1h9v-1l1-1h4v2h3l1-2v-2l6-1 10-1h3v2h2l5-1 3-1v1l-1 1 4-1h4v3h4v2l-1 3h5v5h-5v-3l-2 4 5 1 3 1v-5l3-3h4l4-1 1 1v1h4v4l-2 1h-6v2l-4 1h-4v2h5v1l1 1h1v-4h4v5h-4v3l-2 1h-6l2-6h-9v2h-2v3l3-1 4-1h2v5h-2v4h-2v4l-1 3h-2v5h-2l-2-1z"/></g><path d="M490.09 765v-1l1-1 2-1h4v-4h3v-3h3v-1a1 1 0 0 0-1-1h0-1v-4h2l-1-3v-2h5v2l1 2h1v3l5-1 4-1 1-1 1-2h2v-2l-1-1h-2v-3h-1v-3h-2v-4l1-5 1-1 3-1h2v5h-1l-1 1h3v3h2v2h2v4h2l8-1 6-2v-2h-4v-3h-3v-4h-3v-2l-1-1h-2v2h-4v-2h-5v-5h3l3-1v-4h1v-4h2l1-1h-13v2h-4l-8-2-3-2-6 6h-2l-5-2-5-2h-2l-1-2-2-2h-1v-5h-2v-16l2-4 1-4 2-1h5l2 1v3l-2 2-1-2v-1h-3l-2 3-1 3v16l3 4 3 3 5 1 4 2 3-2 3-6 1-1 2 2 2 3 6 2 1-1h1l1 1v1l3-4 2-4h2v4l5 1 4 1v1l4-1 2-2h2l5 1 2 1 1-1 2-1v-5l2 2 1 2h1v-1l-1-2-2-3h2v3l6 2v2h3l1-2c2-1 2-4 1-7h0l-1-3h1l2-8h2v3l1 3 2 4 1 3 6 4v1l-5 15-1 1h3l2-4 2-8 1-2v1l1-1h1l1 1v1h-1l-3 6v2h2l4 1h2v-4l-1-5h1l4 2 2-2 2 1 3 1v-2l1 1h1v3h5v2h-7l-1-1v-1h-4l-3 1-1 4v3h-6l-5-1-1 2v2h-6l-5 4-6 6-2 1v-4h3v-2l2-2 4-2h1v-4h1l2-1h-4l-2-2v-4h4l2 2 2-3 1-3h-2l-2-1v-1h-1v4l-3 1h-2v5l-5-1h-6v1l-3 1-4 1h-2v-3h-3v2h-4v-4h3v-3l1-2h-1l-2 1-3 2-2 1 2 1h1v4h-3v2h7v4h3v3h3v4h3v3h4v2l-5 2-12 3-6 2-1 1-1 2-2-1-1-1-3 3-2 3-10 2-5 3-10 7-4 4-1-2zm-424-24l-8-16v-4c0-4 1-5 3-5h0l2-1 2-6h2v1h3v2l3-1h4v2l2-2h3v-2h12l3-1v-8l2-1h-2v-5l3-1h2l2 1 1 1 7-1h8l3 2 3 3 1 4 1 3h1l1-1v-6l-1-6h2v2l-1 1 2-1 1-2h5l3 2 2 3 2 4 2 3v4l3-1h8l3 1v4h3v-4h4l5 5v4h-4l-2-1-1-2v12h-6v-2h-3l-2-3-2-5v-1h-4v-2h-2v14h-5l-2-3-1-2v2l-4 4h-4v-4h-2v-5h3v-2h6l-1-1h-1v-3h-4v2h-7v3h-5l-2-1v-4l-1 2v2h-5v-3h-2v3h-6l-2-3-1-2-1 1-1 2-2 2-1 2-4-1-5-1-3-3-3 2-6 6-3 4h3v7h-4v-3h-4l-3-1 2 6 2 4h3v1l-2 2h-2zm203-7l-1-3v-2h-3l1-3v-4h-2v4h-3l-1-1v-1l-1 1v2h-4v-1l-1-1h-1v3h-2l-2-1-3 2-1 1v2h-3v2h-6l-1-1v-3h-4v-1h-2l-1-2v-5h3v1l1 2v-12h2l1-2 1-7 1-5 2-1h2l1 1 1 2v-1l1-1h2l1 1v-1h7v3l1 7 1 5-1 2-1 2h-1l1 1 2 2h1l1-3 1-10 2-7v-1h1l2-1v-1h2l2 1v2l1 7v5l-2 5h4v-1h6v4l-2 1v8l-1 4-1 1h-2zm-54-42h-1l-1-3-1-4v-6h3v-2h-3l-1-1v-1h2l-1-1v-1h-1v-2l-1-1h-2l-1-1v-1l-8 2v1h-2-3-2l-2 1-1-2h-3v1h-3l-2-2-3-5v-2h-2l-3-3-1 1-1 3-2-1h-2l-1 1h-3v1l2 1h-2l-4-1-4-3v2l-1 1h-2l-3-4-3-4h2l2 1v-3l1-2h3v5l-1 2h-2v2h2l1-2 1-3v-2h3v3h2v2h1l3 1 2 1v-2h2v-7l3 1h1v5h2l2 1v1h3v1h1v2h2l-1-3v-3h3l-1-3-1-2v-5h4l3 10v2h-3v5h3v-2l2-1h3v2h2v5h3v-3l2-1 4-2h1v4h1l2 1 1 1 1-1v-1h4v-2h3v-3h1l1 5 2 4v-3l-1-7-1-1v-2h2v-5h1l1-1 1-1v-7h3l2 5 1-4 2-4h1v4l-1 2-1 1v1h3v4l-2 5v1h3v4l-1 6-2 4h-1v6l1-1v-2l1-1h7v-7h-2v-7l2-1c0-4 1-5 3-5h0 2v-1h3l1 1v9h-3v-3h-1v-1l-2 4h2v3l1 5v3h3v-2h3v3h2v-3h3v3h2l2-1v-5h2v-6h3l1-1v6l-1 2h-2v3l1 1h1v-1l1-2v-1l2 1h2v6l3 2 1 1-1 6v7h-2v-2l-1 2v-2l1-1 1-4v-4l-3-3-1 2-1 1h-6v-2h-1l-3 1-2 1v1h-3l-1-1-2-3h-15l-2 1v1l-1 1h2l1 2v5h-3l-2-6v3h-3l2 2v4l-1-1h-2l-2-1v-1l-2 1v2l-3-3v1l-1 2v1h-1zm317-25v-2h-2v-5h1l2-1 2-3h-2v1l-2 2h-1v4h-1l-1-1-1-1-1-1-2 3-1-2-1-1v2l-3-6-2-9h3l-1 1v2h4l1 2v4h2l1-2v2l1 1h2l2-1v-3l2-2v1l-1 2 2-1v-3h-1c-2 0-1-1 1-3h0v-10l2-3 2-3v-2l-1-1 2-2 1-1h1v-2h3v2h1l1-1v5h-2l-2-1-1 3-2 4-1 1 3 1 5 1 2 1v4h1l-1-6h2v-4h3v2l1 2v2h-2v6h-2v2h-3v3h-4l-1-1v-4h-4v-4h-2v15l1 1 1 2h5l1-2 3-3h5v-3l-1-3h4v-1h-2v-5l4 1h3v-2l1-7 1-6-1-3v-2h-4v-5h3l1-1 1 1h1v4h2v16l-1 5-1 5-1 1v3h-1v4l1 5v2h-1l-1-4-1-5v-2h-2v10h-2v5h-2v-4l-1-4v-2h-5l-1 2-2 2h-6l-1-2c0-1-1-1-3 1h0l-1 2v6h-2zm68-77l-1-2-1-1-1 1h-1v-1h-1v-4l2-10 1-5h1v-2l3-20 2-10 1-6-2-22-1-3v-15h-1v-4l-1-2-2-2v7l-1 1v30l-1 5-2 11-2 9v1h-3v-22l-1-1-1-2v-8h-1v-6l1-5h-2l-1-4-2-7-1-4h-2l-1 2-2 3v23l-1 2h-1v10l-1 2-2 1 1 3v2h-3v6h1l1-2v4h-2v-1l-1 1v-2h-2v-1h-4v-27l-1-1v-6l-2-3-1-8v-3l1 2h1l-2-6 1-1h1l3-1h2l2-3 2-2v-19l2-3 2-8 1-4v-33h1v1l1 1 1-6 1-6v-10l-1-18v-8l-1-2-2-2v-6h-3l-2-2-1 2-2-1h-1v-5l-2-5v-4h-2v-2l-2 1-1 1-2-2-2-2h-1l-1 1v-3l-1 1-1 1-1-2-1-1h-3v-3h-4v-1l-1-3-3-2v1l-2-4-1-3v-2l-3-1-2-1-1-2-1-5v-1h2l1-3 1-6v-6l1-9v-1l5 4v-1l1-2 2 6h1l1-1 3 4h3l2 3 2 2 2-3 1 2 7 4 1 1 3-4v-5l1-1h-1v-4l1-5-1-3a16.89 16.89 0 0 0-3-10h0v-1h-2l-1 1-2-3-1-5-1 1-1 1v-3h-3l-2 1-1-1-2-1-2-1-2-1-2-2-1-4-3 2-1 1-3-4v2h-1l-2-7-1-1h-1l2 4 2 5h-1v1l-1-3-1-4-5-5v1h-2v-4l-2-1h-1l-3 2-3-2v-1l-3 1h-3v-1c-1-1-1-1-3 1h0l-1 2-1-2-1-1h-3l-1 1-2 2h-4v2h-3l-2 2h-1v-1h-1l-1 1h-5l-1-1v-9l-1-8-2-11-2-5h-2v-1l-3 1-4 5-3 2-1-2-2 2h-3l-2 4-9 12-1 2h-1v-4l-1-5-1-4v-1l-3 3v-4l-2-1-2-1h7l-8-2v1c0 2-1 0-2-3h0l-1-4h1v-2h-1v-3h2v-2l-1-9-1-10v-6l-1-4-1-1-1-1 1 5-1-3-1-2h-4l-5 1-2 2-2 1h-5l-1-1-1-3-1-8v-4h-2v-3h-1v-3l-1-1h-1v-4l-1-1h-2v-5h1l1-1h-3v-4h-2l-1-8-4-2v-1h-3l-5 2-2 1h-11l1-1v-1l-1 1-1 1-2-2h-10l-3-2-3-3-2-2-1-1h-4l-3-2-1-1h-61v-5l2-6 6 1 7 1h1l-1-1v-1l3-9h3l2 2 5 2 3 1 3-1 3-2 2 1 2 2h2l-1 1v1h2l2-2 1-2-1 1h-2l1-1v-1h3l2 1 2 2 2-2 2-3 5 7 1 1h9l1-1 1-2v-1l2-1 2-2 3 2 2 2 3-2 2-2 4 3 5 3h4l4 3 5 3h5v2l1-1h1l2 1 1 1h1l2-1v1l3 2 2 2h4v3l2-1 5-1h2v1l7 3h2l2 2h3v2l2 1h5l-2 1h-1l3 1 2 2v1h4l1 2 1 1-1 2v1l2 1h7l-1 3v5l1-2-1 3-1 3v1h2l1-5h1l-1-1 3-4-1-2v-1h1l1-1v-5l3-2 3-2 2-2v-2h1l1-1v-3h1l3-4v-2h1l2-1v-2l1-2 3-1v-2l2-2v-2h4v2h3l2 2 2 2 1-2v-1l3-2 6-4 5-4 2-3h3v-1h1v-1l9-6 1 1v1l1-2 1-1h1l2 1v-2l3 2 1-1 1-2v-1l1-1 1-2 1 1v-2l2-3 1 1 2-2-2-2 6-3h-1v1h1l2-1 2-3v-1l1-1 1-2 2 2c1 1 1 2 2 1h0l4 4 4 6v1l-1 1h1l2 1 2 2 3 1h4l1-2v-3l1-2h2l5-5 3-4h1l1 1 4-6h1l3-3 2-4v-4h2l1-3 1-2h2l2-3 2-1 1 1 3 5 2 3 2 2 3 3 3 4 8 11 5 7 1 238v238l-1 1-2 3h-1v3l-3 2v2h-1l-4 6-2 4h-2l1 1v1h-2l-1 2v2h-4l-5 6-3 2h-1l-1 2v1h-1zm-328-218l1-8 2-7v-8h2l2-8 1-9v-1h1v-2h-1l-1 4v3h-2v2l-2 12-3 14-1 3h-1v-3l-1 1-1 2v-1l-1-1 1-3v-4h2v-6h1v-3l1-8 2-5 1-5h1v-4h1v-4h2v-5h1v-10h2l1-1 1-1h-1v-5h2l2-1v4l1-4v-5h2v-2h3v-2h3l1 2v2l3-2 2-3h2l-1-4v-4h3v2h1l1-1v-5l1-6 1-5 2-11 1-6h-5l-1-2-1-4v-2h5l2-2 1-3 1-2v-2h2v2l-1 12-3 26-1 3 1 1v2l1-1v3h-1v1h1l-2 2 1-2-2 1-8 10-7 9-3 4-3 6 3-4 2-4 7-10 9-9v4l-2 2-3 3v1l2-1 2-1-1-1 2-2 2-2h-2l1-1v-1l2-1v4l1 1-1 1v1l1 2-1-2c-2-2-3-2-1 1h0l1 1h-3v4l-2 5-12 12-3 2 7-5-11 23 3-7v-3h-1v-2h2l1-1 1-3v-1l-2 1-4 1h-1v-8l1-6h1v-1h2v-3l3-4v-1h-1v3h-4v4l-1 1h-2l-1 5h-2v-2l-6 20 4-11 1-3v-3l1 1v2h1v7l-1 2v6l2 3v-1h3l-2 2-3 8-3 5-2 4v1l-1-2v3l-4 12-3 10z" fill="#e2a648"/><g fill="#0e0c0b"><path d="M355.09 788l-56-7-56-8-5-2-3-1-2-2v-2l-1-1-9-1h-8l-20 2v-1h-1l-23 5c-24 6-49 9-74 11-1 1-9-2-12-3h0l-2-2-2-3-3-11-3-10-2-5-1-5h-1l-1-1 2-2 3 1h4l-1 2v2l1-1h1l-1 1v1l1 2 2 2v-2l2 1 1 1h1l11-1 16-1h5l-1 1h2l3 1h3l-2 2v4h-2l-1 1v-2l-1-2v4l-2 2-1-2v-1h-2l-2 1-1-3-1-2-3 3v-5h-2v7l-1-1-3-1h-1v3h-1l-3-2-1-2 1 1-1 2-1 1-2-1-1-2-3 3-1-1-2-1-1 1-3 1-2 1 3 8 2 7 6 4h25l13-2 35-7 27-5 6-1v-2l5-1h36l11 1v2l7 2 7 3 2 1 2 2 13 2 31 4 34 4 15 2 1 1 4 2 3 2v1l2 2h-2l-12-2zm147-36l-2-4-1-4v-4l2-3 1-3 4-3 4-2v-2l-8-8v-4h4l3-1 4 5 5 5 10-4v-1l-4-7-4-6v-1l1 1h2l-1-1-1-2 2-2 4 6 4 2 3 4 2 3 6-2 1 1v1l2-1h1v-1l-1-1 5-2 4-2v-1l-1-1-2-3-1-2 5 5-6-10-8-11 1-1c1-2 2-1 5 4h0l8 11 5 7 1 1h1l-1-1 1-1 6-3 5-2v2l2-1 3-2v2l-2 3v1l1 1-5 2-5 3 2 3 3 3v3h1l2 1v-2l3 2 4 1v5h-8l-2-1-1-1 1-1-2-2-1 1v1l-6-5-5-5-8 3-9 4 3 6 4 5v5h-5l-5-6-5-7-1 1-6 2-4 2 4 6 4 7 1 1-1-1h-2l1 1v2h-6l-3-6-4-6h-1l-4 3-4 2-2 4 3 4 3 6v1l-2-2v1l-2 2-2 1zm-324-22l-10-8-5-5v-1l1-1h-2l-2 1-1-2-1-1 1-1v-1h-1l-2-1 1 2v1l-3-3v-1l-1 1-2 1-2-1h-2l2 2-2 2-4 1h-1l-2 3-3 3h2l1-2 1-1h1l-3 5c-3 4-5 5-8 5h0-2l-2-2-5-6-2-3v-1l1-1-1-1-1-2v4l-2-2-1-3v-3l-2 2-1 2h-4l-2-4 1-2v-2h-3l-3-3 1 2 1 3 1-1v6h-3v-2l-1 1v1h-7v1h-5l-5-1v1l1 1-7 6-6 6h-2l-6 1h-3l1-2v-2h4v-3l4-2 3-2h-2l-1 1-2-2-1-2v2c1 1 0 1 0 0h0l-3-2-2-1h3l-2-5-6-32-4-30-1-2h4l2 4h9l3 1 7 5 5 4-2 2 5 3 5 4v-5h1l1-1 1 2 1 1v-2l1-3h1l1 1v1l2 1h2v-1l1-1-1-1h-1l3-3 4-3v2h1v-2l-1-1h11l3 3 6 9h12v1l-1 1 1 4v4l4-3 3-4-2-2 6-4h8l2 4 1 3 1-2v-1l4 6 5 8 1 3 2-1h2l1-3 2-3 2-1 3-1v1l1 1h4l3-2 2-1v1l-1 2h4l3-1 2 2 1 2h4v2l1-1 1-2 6 1h6l-1-1h4v1l1 1v-2h4l-2 1v18l2 4 2 6v2l1-1h1v-3l4-1 3-2h2l2 1 1 2 2 2v18l-4 4h-4l-2-4h-3v-2l-1-4-1-1v1l1 1-1 1-2 1 1 4 1 3v2l-1 1h-4l-4-3-5-2v-2l-1 1-4-2v3h-2v-1l1-1h-3l1 1v1h-2l-3-1h-1v-2l1-2h-3l1 1v1l-12 12h-9zm429-15l-1-2 1-1v-2l-2 2v-4l-1 2v-3l-5-6-5-5-6 3-7 5-1 1 1-3 1-4 1 1 4-3 5-2-8-8-1 2v-3l-4-5-5-4v3l-1-2-1-1v-5h3l4 6v-3l1 3 2 3 1-1h1l-1 1 6 6 5 6 4-3 10-8 6-6-2-1-2-2-2 2v-1l1-1-11-7-10-6-1-2-2-3h5l4 2v3l10 7 11 6 3-3 3-7 2-3-1-8-1-7-2-4-5-1-11-3-5-1-1-1-1-2-2-1h-1v-3h-1a1 1 0 0 1-1-1h0v-1h4v3h2l2 1-1-1v-2l3 2 10 2 6 2-1-4-6-9-1-2-2 1-3 2v1l-3-2-2-2-2 2h-1l-1-1v-4l-2 1-5 1h-3v-3l-1-3 5-1 5-2 1-1v-4l-2-2-3-2v-2l-6-5-5-5-2 1-3 2h-2l2-2h-3l-3 1h2l2 1-5 2-6 3-3 1h-4v-1l-2-3-3-3h-4l-2-4-4-6-2-2v-4h2l-1 1v1h2v-2l1 1 4 2 3 1v-2l1-1h2l2 1 1-1 2-4v-3l1 1 1 2v-3l-4-3-3-3-4 5-3 4-1-1h-1l2-3 3-5 1-2-34-28-3-4-1-3v-3l-1 1h-1l4-3 4-2-2 1-2 2v4l3 3 22 19 13 11 3-3v-5h3v2l-1 1 5-5h1l2-1 1-1h-2l-1 1 1-3 1-5-1-4v-2l2-2 1-3 2-3 2-2 2-11 1-4v-5l12-6 2 1 1 2h-2l1 2 1 3v14l-1 25-1 11 2-5 3-11 1-6 1-1 1-2v-2l1-9v-8l-1-5-1-7v-2l3-2 4-2h2l2 1-1-1-1-2 3 3-2 2 2-1 1-1 7 7v4l-2-2 1 2 2 1-2 4-1-1v1l1 2-2 1-1 2 1 1h1l-1 2v2l-1-1h-1l1 2v2h-2v4l1 3 3-10c0-2 0-2 2-1h0l1 2h-1l2 4-1 1h-2l1 1v1h-2l2 2-2 6v-3h-2v12h-1v-5l-1-1h-2v10l-1 3 2-3 1-2v6l2-3 2-4v-2l1-4 1-1-2-2 1 1 4-12 1-8v-7l2-2 1-2-1-1v-1l1-2 2-2v-6l-1-1-1-2 1-3 1-2-1-1h-1l1-3v-4l1-1 2-1-2-2 6-2 1 1h1l1 5 2 6-1 1h1v-1l1 1 1-1-2-2v-1h1v-6h6v5l1-1h1l-1 5v7l-1-1h-1v1l-1 2 2 2v4l1 7v2h1l1-1v1l-1 5 1 1 1-1h1v-1l2-3c2-2 3-3 1-3h0-1v3l-1-1v-2l2-1 1-1-1-2v-2l-1 1-1 2 2-14h2v3h2l2-1-2-2v1l-1 1v-10l2-12v-3l3-1 2-2 2 1h2l3 6 2 7 2 3 1 2v7h-1l-1 1 1 2 1 1h1v5l1 8 1 13 1 10v-1l2-6 1-6 1-2 2-11 1-2v-21l-1-1 1-3 1-2-2-2-1-2 4-4-2 1h-2l1-1v-2h3v-6l2 1h2l2 3 1 2v3h1l1 1v7l2 15 1 17v9l-1 6-3 9-1 8-4 17c-1 1-3 10-3 16h0l-1 4v-2l-2 3-2 5-2 4-2 6-2 4-3 5-2 4-1 5-4 18-1 2v1l1 2h-1l-2 1-1 1v3l-1 1-2 1-2 2-3 2h-7v-2h-6l6 4v2l-2 2-3-3c-4-3-5-3-4-1h0l1 1-3-2-3-1v16l-3 5-2 5v-1l-1-2-2 3c-2 4-2 4 0 4h0 2l5 3 4 2v5h-6l-3-2-4-2v-3h-2l-5 5-14 12 4 5 4 4-1-3-1-2 5 6 6 6-1 3v3h-5zm-91-199c0-1 10-8 11-7h0 1v-1l-1-3-1-1h1l1-14 1-23v-8l3-10 2-9 3-8 3-9v-2h-2l-3-1-2-2-4-1-3-1-1-1v-1h-11l-1-1 1-1v-1h11l2-2 5 2 6 1v2h3l2 1 1 1 1-1 1-2v-1l-16-8-3-2v-1l1-1-5-4c-4-3-5-4-3-5h0l1-1 6 6-2-2-2-4v-1l4-1h-6v-3l1 1h1v-2h11l2 1 3 2 1-1h-2v-2l2 1 21 7 6-4 6-5 10-4 5-6 4-6 4-3 3-3-4-6c-4-6-5-7-2-5h0l1 1-3-4-10-8-4-1-3-1h-12v-4l6 1 15 2 10 8 4 5 6 7 6 9h1l-2-1-1-2v-3l1-4-4-7-10-17-2-4v-4l-1-4 3 4 3 3h-1l-1-1v1l9 16 5 9h2l4 8-1 1h2l-1 1v1h2l-1 1 2 4c2 6 6 16 7 23h0l1 5-1 2v1h-2v-3l-2-1c-2-1-3-1-3 1h0v1l-2 1h-1l-1 4v3l-4 11-7 16-2 6 6 2-1 2-1 1h2l3-1-1 1v2h1l1 1v-1l-1-1h2v1l4 3h1l-2-1-1-1 2-2 5-9 3-6 1-6 2-9 1-6v-2h1l1 1v-2h2v20l-2 6-1 5-3 7-4 6v5h-3l-3 3-3 2h-2l-10 9-10 10-1 5v4h-3v-6l-5 4-8 5-3 2-13 7-26 12-15 6zm24-13l27-13 2-2-2-4-1-5-1-13v-7l-1 6v-15l1-4v-5h-1l-1 6-2 10-1 4h-1l-1 1v-2l-2 13-2 14h-2l-4 2 2-2v-22l-1 1v-3l3-11 2-8-5 9-4 10-1-1h-1l-3 7-9 30v2l2-1 1-1-3 3 1 2v1h-1a1 1 0 0 0-1 1zm-453-107l-3-2-1-2-2-2v-5l1-4h-37v-8l1-1 4-1 3-1v-1c0-2 2-2 9-3h0l7-1 23 1 22 1 8 1 7 1v1l-3 10v2h-16v4l-6 8-3 1-3 2h-8zm380-16l-2-4 1-2 1-1h-2l-1 1-2-6-8 3-10 2h-1l-2-2v-2l1-1 8-6 8-7v-1l-4-15-4-14h-2l-12 4-5 2-3 1h-1l-4 3-4 2h-1l-2-1 3-3 5-3 3-2 1 1v-1h2l19-7h1l-3-13-2-16v-2l-1-1h-1l-9 3a72.18 72.18 0 0 0-20 9h0l-3 2-1 3v3h-2v-2l-1-2 2-3 1-3 5-2 5-3-1-1h-1l-1 1-4 1h-3v-3l3-2 13-6 11-4 5-5-1-3-1-13-3-26v-6l3-2 2-3 1 1 2 1 3 7 3 6v12l1 11 1 6 2 7 24-6 5 1h5v2l-1 2-4 2-15 6-11 3v1l11 28 32-20 5-3v-3l-8-33c-8-31-11-42-13-43 0-1-13 4-22 9h0l-7 3 1 2v2a3 3 0 0 1-3-3h0l1-3 2-2-3 1-19 1-35 1-17 1-1 1h-16l-1 2-1 1v-7l1 1v1l7-1h7l1-2 1-1v5l1-2 1-1 16-1 33-1 18-1h6l8-2 9-3 8-3v-3l6-1 6-2 2 2v2l-3 1-4 1 2 4 19 74 9-5 14-7 5-2 1 2v2l-2 1-25 16v2l1 1h12l1 1v1h-4l-6 1-2 1v2l1 2h5l6-1v4l-8 8 2 6 2 7-1 1v1l-2-1-1-2-1-6-2-5-4 3-39 30-1 1 1 2v1h3l14-5 11-4h8v4l-10 6 9-3 10-4h1v3h-2l-8 5-7 5-5 4-5 5-2-2 9-9-10 4-10 5-3 1-4 1v-2h-1l-2 1 1-1v-2l-2 1h-1v2l1 2 1-1v1l-2 2h1l4 6 2 4-1 1c-1 2-2 1-4-3zm-2-30l5-4 9-7 21-15 13-11v-2l-1-3-1-1-16 5-16 4-3 2-3 3 3 7 3 9v2h-2l-3-6-2-7-3-3v-3h-2l-4 1h-1l1 8 2 8-1 1h-1l-1-1-3-7-2-8-2 1h-1v1l3 15 3 14h1z"/><path d="M45.09 327l3-1h-4v-7h-3l-2-4-2-5v-15l-1 1h-1l1-5v-5l-2-4-1-8v-8l1-11 2-17 1-7 1 2v3l1-4 1-6 1-2h-1l-1 1c0-8 13-58 19-76h0l1-2c4.878-14.933 11.243-29.339 19-43h0l2-6 10-10h3l-7 7 8-8-2 1 3-4 2-2 6-3 8-3h1v1l4-1 11-2 7-1h9l9 1 2-2 4 1h4l-3 1h-4l5 1h4v-2h12l11 1 2 1 3 1v-2h4v1l1 1h7l1-1v-1l118 1 9 2 10 1h21l-1 2-1 1 2-1 3-2-1-1 9-3 33-6 2-1v-1h5l15-39 1-2 1 1-8 20-7 19c1 1 2-1 12-20h0l10-20h1l-1 2-17 37 6-1 5-1 4-8 23-39 1-2v2h2l4-8 4-7v1l-4 12c-7 13-20 45-19 45h0l15-2 32-7 11-3 8-2 8-1h11l-4 2-1 1-6 1c-9 1-25 4-29 6h0l-45 11-3 1-2 3-1 3 1 1 3 1h2l10-5 11-4 30-8 2 2v1c-1 2-9 5-19 8h0l-9 3 34-6 5-1v-1l1-1v2h6l8-1 2-1v2h-6l-10 1-3 1-1 1h-2l-9 1-14 3-16 3-10 3-1 1h2l-1 1-2 1h-2l-3-1-3 2-6 2h-2l-4 5-1 3 2-1h2l2-1 4-1 9-2 7-2v-1l1-1v2l8-2 26-8h1l2 1-1 1-16 7-1-1h1l2-1 2-2-8 3-11 5h-1v-1l1-1-3 1-16 4-5 1-6 2-4 1v3l-1 1-1 2v1l5-1 7-2 10-2 9-2 9-1h2l-2-2 2 1h3l6-1 9-1 4-1v2h-4v2l-2-1h-1v2l-2-2-3 1h-3l1 1v1h-3l2-2h-2l-4 1-16 2-10 3-18 5-4 10v3l4-1 24-8 14-4 1-2 1-1v2l2-1h1l-6 4h-1v2l-2 1h-1l1-1c1-2 1-2-4 0h0l-5 2-14 5-10 3-6 1-1 1-2 6-2 4h2l11-6h1l2 2 6-2h2l1 1v21l-2 1-1 1-6-2-2 1h-3l-1 3-2 3-3 1-4 2-1 1-4-3-3-2-2 2v-4h-1c-2 0-3 1-3 7h0v5l2 1h19l29-1 12-1h60l2 1 5 1 4 1 11 4 8 4 17 17 4 5a143 143 0 0 1 25 75 62.79 62.79 0 0 1-3 19h0l-6 27v4l-1-2-2-2 1-5 5-22 1-4c2-9 2-16 1-28h0l-1-7-3-10-2-10-4-10-6-12-2-3-1-1-1-2v-1h-1a80.66 80.66 0 0 0-26-26h0l-13-6-6-2c-6-1-10-2-30-2-34-1-69 0-103 2h0l-5-1-6-3 3-7 4-6 4-5 7-6 3-2 9-1 9-2h12v-2h-10l-11 1-2 1-27 9-14 6-13 7-1 1v-8l-1-2-1-1v12l-2 1-2 2-1-1h-1l1 1 3 2 2 1-1-2-2-1h1l1-1h1v4h-3l-1-1-1-2-2 2-4 1h-1l-1-1v-1h-2l-1 2-1 3h-3l-7-1-4-1-1 2-2 1h-5l-10 1h-5l-1-1-1-2-3 1-4 2-3 1h-2l-1-1-2-1-6-4-3 4-4 3h-5l-2-1-1-1-4-5-3-6-9-1-13-2h-6l-18-4-7-1v-3h-9l-5-1-4-1-1-2v-2h2l16-4 31-9h2v-1h-1l-20 4-18 4-5 2-8 3h-3l-2-4h-2l-2 1h4l1 3 2 2h-3l-2-4h-4l10-7 22-12 14-8 7-2 6-3-24 6-33 16-6 4v-1h-1l1 1-2 1-2 2h-1l2-2h-1l-2 1 2 1 1 2h-2l-1 1v2l-1 2h-2v-1l1-1h-1l-1 1v1l1 1-3 1-2 1h-2l-1-1 2 2-5 4-6 4v2h2l-1-1 2-2 3-2 1 1v2l1-2 1-1h-1l-1 1v-1l5-5 2 2v-1l1-1 4 2v3l-3 1-4 2-1-1v1l-8 2h1l2 1 1-1 2-1v3l1-2 2-2h1l-2 2 4 5 3 6v4l-1-1-1-2v1l1 3 1 1v-1l1-2 1 4 5 15 3 11v5l1 6h-7v-4h-4l-4 1-7-1-8-1-1 1 8 8v2h-2l4 4 2-2 2 2 1 2v5h-3l-3 1-4-5-3-4-2 2h-5l-1-5-1-6-5-4-5-5h-4l-5-1-1-1 3-3c2-4 7-12 6-14h0v-1l-1 3v2l-2-2v4l-2 5-3 4h-2v1l1 1h-2l-4-1h-3v-3l1 1h1v-2l-1-1-2 4h-2l-3-1-1-1-3 3-2 3-2 1h-1v-3l2-5 1-1h-1l2-2-1-1h-1l3-1 3-3 2-1-2 1-3 2h-2l4-4v-1l-1-2h-1l-4-1-3-2v1l-1 1 7 7h-2l-1-1 1 2 1 1h-1l-1 1v1h1l-2 4-1 3h1v1l-1-1h-1l-1 1v1l1-1h1v4l-2 1-1 2h1l1-1v3l-8 11-7 11-4 8-6 13-2 5 1 4v5l4 4 3 5v5h-5l-3-3-4-7-2-4 1-8v-9c6-14 11-23 22-39h0l8-11 1-1h2l1-3 1-2h-3l-3-4-5-3-6 6h-3l-2-1-1-2v-3l6-6 5-7-4-4-5-4-3 1-3 2h-7v-1l-1-2c-6 22-12 44-16 67h0l-3 14-1-2v-1l-1 3-1 11-1 8v26l1-12v-12l2 29 1 7 3 9 1 4h-1l-1 3v2l2-4h3l1 3 2 2v5h-2v3h-4l-1-1zm57-240v3l16 15 16 16h5v4l2 2 6-5 11-7 5-4v-3l1-8 1-4 8-4h7v2h3l-1-1v-1l4-1 12-2 7-1 3-3 4-3h7l1-1v-1h-31l-38-2h1l6-1-14-1h-12l2 1-2 1-9 2"/></g><g fill="#f3c010"><path d="M543.09 826v-1h-2l-6-1-3-1 1-1v-1h-4l2-2-1 1h-3l-2-1h-2l1 1c0 2 0 2-3-1h0l-2-1 1-1h-5v-1l-1-2h-1l1 1v1l-1-1-1-2v-1h-2l1-1v-1h-4l1 1-3 2-2 3-1-1h-1l-2 1-1 3-1 1h-2l-3-1v-1h-2l-1-1v-2l-1 1v2l-1-1-6 1-6 2h-1l-1-1v2h-1l-3-1-1-1-2 2h-1l-6 2h-3l-5-1-2-4-3 3-3-1-2-1v3l-1-1v-1l-2 3h-3l-3 1-1-2-1-1h1v-1h-2v4l-1-1h-2v-2h-1l-1-1v-2h-1v3h-6l-2 1h-1l-1-1v1l1 1h-3l-1 1v1h-1l-2-1v2l-2-2h-7l1-1v-1l-2 1h-2v-2l-1 1h-1l-3-4-3-4h-5v2l-1-1-2-1-3-1h-2v2l-4-2-1 1-1-1v-1l-1 1h-1v-2l11 1h9l2-1 1-1 2 2 12-1 29-1h19l3-1 2-1 1 2 1 2h7v1l1-1h2l2 1 2 1v-1l1-1v1h1l2-1 1-1 4 2 3-1 3-2v1c0 2 1 1 3-1h0l2-2 2 1 4 1h2l1-2 2-2v1l2 1h1l2-1v-1h3l4-1 4-4 3-1 1-1 3 2h4l1-5 1-4-1-2v-2h2v2l3-4-2-4v-2l1-2-2-1-4-2c-2-1-2-1-2 1h0l-1 1v-2h-3v2h1l1-1-3 2-3 1v-2h-5l-2 1-2 2-4-2-3 2-2-2 1-2v-1h-2l1-1v-2h-2l1-1v-1h-1v-1l1-1h-2l-1-2v-3l-1-1h-1v-1l-2-3-2-2 6-2 6-1 1-2c2-3 3-4 15-6h0l9-3 6-3 6-3 5-6 5-5h1l2 1v1l2-1h2v-2h-1c-1 1-6-2-6-3h0 1v1l2-4 2-5v5h3l2-1 2 1 1 1 1-3 1-2-2-4v-1h1l2 1 1 2 1-2 2-1v2h4v-2l2 4h6l-1-2v-2l1 2 3 2h2l-1-1-4-6-2-3-1-2 1 1-1-3v-4l1-2 2 5 4 6h2l1-3 2-3h1l-1-1v-1l1-4 1-3v-12h1v2h1l1-1 3 4 1 1 2-2v-1l-1-2-1 1v-2l-1 1h-1l-1-2-2-1c-2 0-2 0 0-2h0l1-1v-3l1-3v-2h1v-1h-1l4-16-2-2v-3l-2-2h1l1-1v1l1 1h1v1h1l1-1v2h1v-1l4 2-2 4 2 5 1 5 1 6c1 8 1 9 3 12h0l2 8 4 10 2 6 1 6 1 5 2 6c3 6 4 13 6 26h0l4 26v9l-4 8-1-1-1 1-3-2-4-3-3-2v-1h-5v-1l-1 1-2 2-7-6-6-6h-1v-4l-1 1h-1l-2-3-5-5-1-3h-2v4l1 4h-1l-1-1v1l1 2h1l-2 10-2 2-2 3h-1l-3-2-4-3h-1v-1l-1-1-2 4c-2 4-2 8-3 18h0l-2 8h2v2l-1 1-1-1h-1v1l1 2 1 1-2 2h-2l-1-1v2l-1 2 1 2v2l-1-1h-1l-1 1v2l2-2v1c0 2-2 3-5 4h0-2v-2h-1v1l-1 2-1 1-2 3-1-1v1h-1l-1-1zm-215-10v-1h-6l-1-1-1 1c-1 2-2 1-5-2h0l-2-2h-2l-1 1v-3l-1-2h-1l-1 1-2-2v-2l1-1h-2v-2l-1-1-2-3-2-2v1h-1l1-1-2-2h-2v-3l-1 1h-1v2l1 1h-2l-2-1h-1v2l-3-1-1-1-2 2v-2h-1v-2l-1 1h-1l-2-1-1-1v-1l-1-2h-1l-2 2-3 2-3 4v-1h-1l-4 4h-3v-1l-1-1-7-2 1-1v-1h-2v-3h-2v-4h-1l-1-1v-2l1-3h-2l-1-1 1-1v-2l-1 2-2 1v-1l-1 2h-2l-2 1-3-2v2l-2-2-2 2-1 2v-3h2l-2-2-1 1-1 2v-3l-2-1c-4-2-5-1-8 2h0l-4 2h-1l-3 1-2 1 1-1h-3l1 1v1l-2-2v2l-1 1-1-1-1-2v1h-1v-2h-2l-1-3-2-4v-9l3-1 6-1 26 1h3l-1 1v1l1 2 2 1h1v1h1l1 1h1l1-1 1 1v1h2l2-1v1l1 1h2l1-1 2 2h1l3-1v1l1 1 1-1h2l1 1h6v1l1 1 1-1h3l4 1 15 2h4l12 1 4 1 10 1 4 1 7 1 4 1 9 1h2v2l1-1h2l2 2 2-1 3-1 1 1v1l-2-2v2l1 1h3l2 2-1 4-1 3 1 4 2 7v3l-1 2h-3v1l-1 1h-1v-1h1l-2-2-1-2-2 2-2 1-1-1v-1h-3v2l-4-3-1-1-2 2-3 2-1 2h-4l-3 1z"/><path d="M381.09 788l-2-1-3 1h-4l1-1v-1l-1 1h-1l-7-4-7-5-8-8-8-8v3l3 4 10 10c6 5 8 7 4 5h0-5l-2-2-2 1h-2v-1l-1-1-3 1h-2l-1-1v-1l-3 1h-2l-2-2-2 1h-3l-12-2h-5l-4-1-31-4h-9v-1l-1-1-2 1h-2l1-1-1-2-2-1c-1 1-5-1-5-1h0l-6-3h-4l1-1v-2h-2l-1-1-3 1-2 1h-2c-2-1-5-2-18-2s-19 1-21 2h0-2l1-2v-3l2-2 3-2v1l1 2 4-3 5-2h4l2-2 7-6 2-2-2-2c-3-2-4-2-5 0h0l-1 1h-2l-2-1-2 2-3 5-1 3h-7l-1-3-2-4v-1l-2 3-3 4-1 1-1-2-1-1-1 2-1 1h-6l-1-1-1-2-4 4-2-1-2-2-1 2-1 1h-3l-2-8h-12v2c-2 3-2 3-3 2h0l-5-1-3-1v2l-3-1h-3l-3 2-2 2h-5v1l-2 1h-2v-1l1-2 2-1h3v-2h3v1l-1 1 1-1 2-1 1-1 2-1-3 1h-5l-1 1-3-3v1l-1 1v3h-7l-6-2-3 3 8-2 1 1 3 2h-2l-3-1-2-1-3 2-2 1h-1v-1l-24 2-2-3-3-4-1-3-3 1h-7l-2-4-4-7-1-4h1l1 1v-2l-2-1-1-1v-2l1-4 1-2h1l1 1 1-2v-2l4-4v5l3 3 2-2h-1l-1 1-1-1-1-2v-1l2 2v-2h6v3l-8 8v1h3l7-7 6-7 4 2h-1l-1 1-1-1 1 2 4 3h1l1-2v-2l1 1h1l2-4 1-1h2v-4l-1 2-1 1v-7l1 1h1v-2h6v2h1l1-1 3 3-1 2-1 3 2-2v2l-1 1 1 2v1h3v-2h-1l-1 1-1-1v-2l2 2-1-3v-3h2l-1 2v1l1-1h1l3 3 3 2v2l-1 3 1-1h1l-1-1v-2l1 2 2 1c-1 1 0 2 1 2h0l4 5 2 4 2-1 3-1 1-1v-1l-1-1 4-2 2 2 2 3 1 1h1v-9l-2-2-1 1h-1l1-1 1-2 1 1h1l-1-1v-1l3-2 4-1h4l4 2h-2l-1-1 1 2v1l-1 1c-2 1-2 3 1 6h0l1 3 2-2-2-8 2-2 2 3 2 2 6 5 5 4 4 4 4 2h1l2 1h2l1-2 2-1v1l11-11v5h1v-3h3l4-1v3h1v-4h1l2 1 1 1h1l1-1 4 2 3 3 2 1h1l1 1 1 2 2-4-4-2-1-1-1-3v-1h3v5h1l1-1v-5h3l-3 3v1l4-4h-1v-1l1-2 2-3h2v5l-2 2-2 1 1 1h1v-2h2v1l-1 1 2 2c2 2 2 2 4 0h0l2-1v-15l-2-2-2-3-4 2-1 1-2 1-1-1v-4l1-4-2-1h-1v-1l1-4 1-2h-1l-1 1v-1l1-1h1v1l1-5v-6l-2-1-2-2v1l-3 1h-1l-1 1v1l-2-1h-1v-2l-2-2-5 2-5 1-2 2h-4v-3l-3-1-3-1h-1l2-1 1-1h-5l-1 1-2 1h2l2-1v2h-4v-1l1-3 2-3-1-4-1-3v-1h-1l-1 1-1 4-1 2v3l1 3-2 1h3v1h-9l-4 3-3 3h3v1h2v1l-4 3h-1v-2l-1-3v4h-1c-1 0-7-8-7-10h0v-1h-1v-1l-2-3-1-2-1-7c0-7 0-8-2-7h0l-1 1v2l1 6 1 3-1-2-1-1h-1l-1 1v-2h-1l-3 1-2 1h-2v1l-1 1h-2l-4-2-1-1-2 2-2 1v-1l-1-1-3 1-2 1h-3l-1 1-1-3-2-2 1-1h-2v-1l-3-4-3-2h-7l-2-1-1-1 1 2v1l-3 3-3 2 1-1h-1l-2-1-3-2-3-3-1 3-1 2h-1l-4-2v1l-4 1-2 1-1-2v-1l-1 1h-1l-1-2-2-1h-2l-1-2-1-1-4-2v-1l-10 2v-1l-2-3-2-2-2-3-1-2-1 1-1 2 1-2v-2l-5-5-5-6h-3l-2-1v-7l2 1h14v-1h3l2 2 2 1 2-1h2l2 1c3 2 3 2 4 0h0v-2h1l1 1 4-2 3 1 3 2 1 1 1-1 3-2 3-1h19l6 1 5 1 4-2 5-1h1l1 1 4 8 3-2 2-2 4-1h3l2 1 1 1 4-2h7l2 2h13l5-1 4-1 2 4 1 3 2-1 3-1 2 1h16l10 2 4-2 4-1h3l1 2 2 3h1l-1 1v8l1 6h2l1-1 2 2v-1l2-2h1v3c1 2 1 2 3 1h0l2-2v1c2 0 1 2-1 4h0l-2 3-3 7c-2 8-2 10 0 5h0l11-16 4-5 1 1h1l1-1 2-1v8l-1 1c-2 1-8 10-11 16h0l-2 4 1 3 3 3h1l1 4v3l1 2 2 1h1l1 2v4h2v-3l-1-2 2-5 1-5h1l1 1v-2l1 2 4-8h4l4 6 1-1v3h3v2h3l4 2h3l1-3 1-5 1-2 3-1 4-1-6 8 1 3v3h8l2 6 3 5-2 3-8 16 6-11 3-5h3l-1-1v-1l12-14v3l4 2 1-1h1v-1l-1-1h4v-1l-1-1h1l1-1-1-1v-1l1-1c2-1 3-1 3 1h0v1l1 1h5v3h1l3-1 2-1v-3l2-2 2-3v-2l4 4h3l1 2 1 1h2l1 2v1h3v4l-6 12v13l1-7v-7l2-4 4-6 2-2 1 9v9l1 9 2 8 3 5 3 6 9 9 3 1 4 2h16l7-1 8-2 8-4 9-4 4-5 5-5 3-5 2-5 1-8 1-9 1-3 2-4v-3l2-7 1-3v-12l-4-16h1l2 1 1 1v-2l3-2 1-1-1-1h-1v-4l1-5v-2h2l1 2v1h5l4-1 2 2 2 3 2-1 1-3v-1h3v3h-2l2 1 2 1v-4l-2-2 1-1 1-2h11l3 3 3 4 4-6h4v8l1 1 2 1-2 4 3-3 1 1v3l-1 3-2-1h-2l-2 1h-3l-1 3-1 2-1 7-1 8-2-2v-3l-1-7-1-3-6-6-2 1-2 2-1 5-1 4v17l-1 2-3-3h-1l-2 1-1 3-2 8-1 5 2 4 1 5h1l2 2 1 3h1l5 1 4 2 6-6v-2c0-2 1-1 3 1h0l2 2 4 2 5 1h2v-2h1v-3h1l4 3 1 2 4 5 2 3v2l-4 2-1-1v2h-1l-1-1v1l-8 4-2-2-2-3-7-7h-1v1l-1 1 4 4 4 3v2l2 1 1 1-1 1h-2l-2 2-5 3-2 1-1 4-1 3 2 4 1 5h2v3h1l-6 5-11 9-2 3v3l1 5 1 2-3-1-4-2h-2l-2 2h-1v-4l1 1h2l2-3 3-4h1v-5l-2-2-2 1h-3v2l-1 5-1 4v-2h-1l-1 1v3l1 3h-2l-7-2-5-1-3 3h-2v-1h-4l-6-2-5-1v1l-1 1h-5l-5-1-2 2h-4l-5 1-12 4h-1l-5 1h-6l-8 2h-1l-1-1-2 1-1 1-2-1zm13-44l-7-3-4-3-3-4-5-8-2-5-2-8-2-9v-9l1-9 6-6v2h2l1 3 2 2v5l1 12 2 7 1 4 2 3 3 2 8 4 5 1h15l14-2 5-3 6-3 4-4 6-7 2-3v6l-1 5-4 10-5 5-5 4-9 4-8 4-7 2-13 2h-6z"/><path d="M401.09 724l-8-3-4-2-1-2-2-2-2-5-2-13-1-8 3-4 4-3v-4l1-4h1l4 7 1 3 1 2 1-2 1-1-1-2v-1h2l2 1v2l4 1 3 2 11-2 10-2 6-2 3 2 2 3 6-1h5l1 2 2 8 1 6-1 3-2 3-5 6-4 5-6 3-6 2-8 2-8 1h-10l-5-1h1zm171-47l-3-5-1-1 1-2 2-2v-10l-2-2-1-2h-5v-3l-2 1h-2v5l-5-5-4 2-1-1-1 1-1 2h-7l-1-2-1-1h-2l-2 1v-2l-4 4-4 3v2l-1 2h-1v-3l-4-6 1-1 2-1-2-1-1-2 1 1h1v-4h4v-2l1-11 1-14v-4h1l1 1v-1c1-2 2-1 3 1h0l1 3h2l8 6 6 6h4v2h5v1l-1 2-1 1h-2l-2 1-1 1v1l1 1 3 1h3l-1-1v-1l1 1h1l-1 2v2h2l-1 1-2 1 3-1h2v-8h-1l1-1h2l3 7 8 17h-1l-1-1v7l1 6h-1l-1-1v1l1 2 1 1-1 3v3zm-142-17l-2-1v-1l1-5 1-3-1-1-1-2 1-1 1-2v-1h-1l-12 12v-1h-1l3-4 4-3-1-1h3v-1l2-2 1-2 2 1h1l2-1 1-2-2 1-1 1h-1v-1l2-29-1-2v-1h1l1 1v-1l-1-2 3-3 4-3h-1l-2 1-1 1v-2l3-9v4l-1 3 3-2 2-2v1l1 1v-3l-1-2h1l1 1 4-4 1-17 2-20v-3l1-1h1v-4l-1 20-2 20v3l8-8 8-7v-9l1 1 1 2-1 2v2h1l1-1v-2l8-6a107.66 107.66 0 0 1 24-18h0 1v-1l-1-2 1 1v1h2l1-1-1 2-2 1v3l-1-1v-1l-2 1c-9 6-17 12-24 19h0l-8 7 2 2h-1l-1-1-3 17-8 70-3-3v-2l1 2v1l1-8 3-21 1-13h-2v-1l1-1h1l6-39-16 16v13l-1 14h-2l1-13v-13l-2 3-4 2-1 1v1h1l1-1-2 3-3 2v12l-1 16v5l5-5 5-4 2-6v2l1 2 1-2 2-2v1l-1 2-3 4-1 2v-1l-1-1-10 10-1 3v3h-3v5l-2-1h-1l6 4v2l-3 7zm-279-293l-1-1h-2v-7l1-10v-3h10v-4l-2-2c-4-3-9-6-15-7h0l-5-1v-4l3-18c1-13 7-45 10-54h0l1-5h2l4 1 2 2h7v-3h2v-3l-12-8 1-4v-4l1-2 1-1h5l1 2v-3h5v6h-5l12 12 8 4v1l8 5h2v-4l-2-2-2-3h-1l-1-1-2-1-6-4-5-3-2-5-3-4-1-3-1-5-1-1h-6l-1 1v1h-4v-2l-1-1 2-3 2-4v-8h4l6-1h2v5h1l2-1v-2l-1-3v-3h5l5-1h9l12 1 4 1 3-1 4-1 1-3v-2h4l3 4 3 5 4-4h2l5 1 2 1 1-2 2-1h4l1 1v1h9l2-2h4l-1-2-1-1 1-6 2-7 1-2h1l3 1h1v6l1 6h2l6 8h4v2l-1-1-1 1 1 2 1 3 2-1h3v-1l1-1h1v3l-4 21-3 10v5l-3 1-3 2-13 8-2 1v2h-2l-3 3h-1l-5 5a76.9 76.9 0 0 0-18 18h0l-2 2h1v1l-4 2v2l-1 1h-2l1 1v1h-1l-1 1v1l1 1h-2l-1 1v1h1l-4 4h1v1h-2l1 1v1l-1 1-2 1 1 1h-2l1 1v1h-1v4l-2 2-1 4v3h-2l1 1v2l-1 1v33l1 4h-2l1 1h-2l-3 1-1-2-2-3-1-3v-2l-2-2v1l-1 1h-1l1-2v-1h-3v-3l1-3h-2l-2 6h-1v2l1 1-9 9-3 2-1-1-1-2 1-1h-2l1-1v-1h-2v-2l-1 1-1-1-2-1 2 2h-2v-3l-1-1h-1v-2l1-2-1-2v-1l-2 1h-1v-7l-1-5v-2l-1 1v8l-1 6-1 3-3 6-1 1-1 2-3 2h-1l-1 1v2h-3v-1zm94-3l1-3v-1h-1l-1-5-2-8-1-3 2-9 1-9 8-14v1h1v-3l27-41 2-1v4l1 6c1 2 1 3-3 3h0l-3 1h9l2 2 2 1 4-2 3-2h9v3l-4 1-4 2-1 1h9l-1 2-2 2v24l3 4 2 4 4 1 3 2 1-2 1-1h5l2-2h5l2-1 3-2 1 1 1 2v-2l2 2 2 1h2l2 1 2-2h8l8-1v1l1 1 1-1 2-1v1l1 2h5v-1l1-1h4l5 1 2 2-2 12h-9l-9-1v-1l-6-3-5-3-5-1-6-1-13 1h-13l-10 1-15 3-7 2h-19l-1 1v1h-3v2l-1 5v3l1 3 1 2 1-1v-1l-1-2-1-1v-8l1 4 1 8 1 5-2-2-3 3 1-1v-2l-2 2 1 1v1h-2v-2l1-1-1 1h-1l-2-1-2-2 1 1 1 2-4 4v3l-1-1h-1l1 1v2l-2-2-1 2-2 1 1-2z"/><path d="M218.09 358l-3-4v1c-1 2-2 2-3 1h0v-27l1-4v-3h1l1-1-1-1v-1h2v-4l2-2h-1l2-4 5-7c-1-1 0-2 1-3h0l1-2v-1h2v-1l-1-1h1l2-1v-2l1-1h2v-3l2-1 2-2v-1h-1l14-14 1 1h1l-1-1v-1l2-1 4-4 1-2h2l2-1 1-2h1v-1l7-4 7-4 6-4-20 20-4 5-3 5v4l-1 4h1l13-5 4-3-1 1-14 21 1-3c2-4 2-4 0-4h0-1l-4 6-4 8h-1l-2-6 1 5 1 3-2 3-3 3 2-17 2-16-2 6v-7l2-3c2-6 1-5-2 0-7 16-13 32-17 48h0l-3 11-1 11v11l-2-4 1 3v4l-2 4h-3l-2-5zm-84-40l-1-8v-5l-2-2-1-3v-4h-1l-1 1v-2l1-2-1-1-1-2v-26h-1l-1-1-2 4h-2l-2-6v-3l1-6 1-4h3l3 1h2v4h4l4 2 4 4v1l1-3v-2l3-1h2v3l-1 6a164.71 164.71 0 0 0-6 32h0l-2 14-2 10 1 1v1h-3z"/></g><g fill="#daac98"><path d="M279.09 440l-5-6-2-5-1-8v-3l-2-2 1 1h1l6-5 7-5 1-1-2 1c-5 2-9 6-13 9h0l-4-1h-4l1-4c2-6 4-11 8-16h0l4-5 1 5 1 4 2 3c3 4 4 5 5 4h0v-1l-2-4-3-3-2-10 13-13-2-2-5 5-5 4v-3l2-9 1-7h-1l-1-1-1 3a46.71 46.71 0 0 0-3 17h0v3l-12 18-2 5-1 5v1h-5l-11-1-9-1h-3l-1-2-1-3v-6l1-7 2-3 3-4 2-1h-2l1-1 2-1 1 1 1-2 7-6 7-5 5-2 13-8-3-2-5-4-3-2h-1l-1 1 1-3 2-2-1-2-1-3v-7l1 1 1 2 1 1-2 2v1l1 1h4l-1 1-2 1 1 2 1 1v-1l4 2 6 6 4 3v-1l1-1-1 2v1h1l1 1v-2h2l3-1-1-1-2-1v1c-2 2-2 1 0-2h0l1-2 4-2 1 1 3-1 4-1h3l1 6 1 5-2 1-5 4-5 3-5-4-3-5v1l3 5 4 4h2l2 1 4-4 5-3 3 23v2l-1-2-13-15 7 9 7 9 1 11 2 11-7-2-7-1-4-3-4-2 8-4 4-1h-3l-6 3-4 1v3l12 6 8 2 11 2 4 1-1 2c0 3-5 12-7 13h0l-2 2-10 1-10 2-2 1-1 1 1 2v2h-4l-5-5z"/><path d="M343.09 428l1-4 2-4 1-4v-1l-1-1 2-2v2l-1 1h1l2-4 2-3v-5l1-5-1 2v1l-2-1h-1v6h-3l1-3v-4h-1l-4 1h-1v2l-2-4-2 6-1-2v-3h-4l-2 1-1 1-1 3-2 3v-8h-1l-2 5-2 8-1 4-4-1-5-1-2-8v-8h1l1 1-4-8-1-13v-14l3-1 2-1-1-1c0-1-2-1-4 1h0l-1 2v-9l-1-3v12l-2 2v-2l1-2-1-6-1-5h-1a1 1 0 0 1-1-1h0v-1l2 1h3v1h7l7 1 2 3 8 9 6 6 5 3a100.76 100.76 0 0 0 23 12h0l5 1h9l3-4 3-3v1h1l-1-1 3-8h1v7c-1 17-3 28-8 41h0l-2 7h-17l-7 3-8 3h-1v-4zm-224-8l-1-1v1l-2-2-22-1-27-1h-6l-14-7h-1v-2l-2-9h-1l1-15v-36h-2v1l-1 2h-1v-7l1 2 1 1v-6l-1-6h3v5h2l-2 2v4l1 1h4l17 2c16 1 38 4 47 6h0l4 1v2h-7l-9 1h-2v2h19l2 1h2v8h-7l1-1h-7l-28-1h-21l-3 1-2 1v3h-2l-4 1-2 1v5h40l-2 3-2 1v6l2 2 2 3 3 1 4 1 3-1 4-1 6-8 2-6v-1h3l1 3v3l1-3 1-2h4l1 1-1 5c-2 7-1 7 1 1h0l2-6 1-1h3l-1 8-2 7-2 2-2 1v-2h-2v7l-2 4-3 5-4 3-3 2h3l3-4 5-5 1-2v6l1 6v-7l1-8v9l1 9-2-1zm241-39c-7-3-14-6-21-11h0l-6-4-5-6-5-5v-2h3l24 2 21 2 9-1h9l1 5v5l-1 1v2l-1-4v-4l-1-1h-2v1l-2 7-2 6-2 5-3 2-3 3h-7z"/></g><path d="M628.09 899l-3-2-2-1-1-2 3-2 1 2 2 1v-2l-11-4-5-6-7-6h-2l-3-4-3-3h-4v-4h-1l-2 1-4 2h-1v-6l-2 6-3-2-2-1-4 4-2-4-4-3-2 5-3 5-2 1-1 1-3-2-2-2 4-2 3-2v-7l-2-5-3-5h-7l-6 1v-3l-1-3 1-2 1-1-3 2-2 2h-5l1-2 1-5 1-2-4 2-6 4c-1 2-3 2-5 0h0l-1-2-3 2-3 1h-5l-2-3-1-3-3 3-2 3-1-1-2-1 2-6h-3l-1 2v2l-5 2-3 1-19-8v-1l1-1h3l2 1v-4h4l3-7 3-6-3-3-1 2-2 1h-1l1-3 1-2-2-4-2-3v3l-2-1-1-1 2-1 3-2 1 1 11 6 11 5 3-2 4-3 2-2h1v7l3-1 2-2 2-4 2 4 2 3 2 1h2l4-4 4 2 2 2 5-4 5-3h1l1 1-1 3-2 3 1 1h2l3-2 4-1h1l-1 1-2 1 2 6 3-1h8l4 1v1l-1 2 3 4 2 3-1 3-1 4-3 2-3 2 3 2 3-1h2l4-8 2-3 1 3c2 5 3 5 7 2h0l2-2 1 2 1 1 4-4 1 1 1 2 2-1h3l6 5 6 5 4 3 5 4v-1l4 6 2 1 3 1v29h-1l-2-1-1 2v2l2 2 2 1v5h-1l-6-2zm-541-568l-2-13-2-2 2-9 1-18 1-10 3-13 4-23 3-18 1-4-3 3-2 17-4 19-3 16-3 20-1 6v-5l-1-2-2-3v-6l10-55 1-3-7-4-5-4-1 1-2 22v30h-1l-1-2 1-18v-19l-1-1h-2l-1 1-1 7-2 6-1-4-1-10-3-16v-12l1-3v2l2 5 1 2 1-3 3-3 1-4v-6l2-3 2-1v-6l-1-1h-3l-1 1v4c-1 5-3 9-5 9h0v-4l1-8v-2h4l1-5v-3l3 2 1 3 3-3 1 1h2l2-3-2-5-2 1h-1v-4h4l3-2h-6v-3l3-7 1-7h4v11l2 2v1l1-1v-10l1 7 3 12 1 1v13l2 3 2 1 2-7v-4l1-2 4-3h1v-2l3 2 3 5h4l5 1-1-3-3-4h-1v3l-3-2-3-4v-1l3 1h3v-1h6l8 1h2v7l1 6 4 6 3 6 5 2 6 6 4 3 3 2 1 2v2l3 1h1v9l-5 1-4 2-4-3-5-4v-2l-4-3-5-1-7-9-8-8-1-5v-4h-2l-4 4v6l-1 6-1 1 2 2h3l9 10v10l-2-2h-12l-2-2-2-2c-3 0-7 13-11 40h0l-3 12-1 17-4 29-3 16zm194-185l-2-3h-6l-7-11v1l-2 2h-4v-3l2-8 1-5-4-5h-1l-2 8-2 8 1 2 1 3-2 5h-2l-5 3-4 2-1-2-3-1-3 1-2 3-2-4-2-3-2 3-5 3h-3l-1-2v2l-3-2-1-3-5 6h-6l-8-11-2-2v9h-6l-12 1h-6l-2-1h-1l-5 3-3-3h-24v-3h11l1-4 3-6 2 3 4-5h3v6h-4l-4-1-1 3v1l2 3 6-3 1 1 1 3h3l3-1 13-2 4-1 1-4 2-3h1v1l1 2 3-3 1-3h3l1 1 4 6 7 7 4-3 4-1 1-3 2-9 1-4 3-3 2 5 3 5v8h4v-12h3l2-1v-9h2l2-2 4 5-1 4v4l3-4 2-3-1-1 4 4-1-3v-1l2-6h2v6l1-3 1-2 3-1h3v3h2v4l-1 5 1 1h3l-1-3v-4h2l1 3 4 7 2 4v6l2 3c4 3 6 3 6 0h0l1-2-1-1v-1l1-2 3-1v5h1l3-2 1-5v7l-4 5-3 4c0 3-2 1-4 0z" fill="#52b1be"/><g fill="#0e0c0b"><path d="M165.09 623l-1-1 2 1h2l-1-1c-3-4-20-11-37-14h0l-10-2h-42l-11 1-14 1-3 1 1 4 1 5 1 2-3-1h-1l-1-5-1-4-1-1-12 3-15 3h-2l-2-2-1-2v-11l-3-2-2-2-4-6h-1l-1-3-1-4-1-3c-2-2-1-19 1-24h0v-4l2-4 2-2 2 1h1v-1l-1-2h2v-4l1 2 1 3-1-7-2-28-3-82v-17l-2 2 1-2 2-12v-10l1-1 1-2 1 1h1l-2 18v25h1l-1 1 4 92 1 11 5-3 4-3 5-2 7-3h3l2-4 6-1 5-2v-2l1-4 1-1v2l1 1v-6c-2-5-3-8-2-16h0v-3l4-6 1-21v-21l-5-2-12-4-7-4-3-3-4-3-1-2v-2l1 1 5 3 5 5v-2l-1-2 4 2 3 2-1 1v1l5 2 7 2 2 1-2-3-1-3h-3l-1-2-6-19-1-4 2 1 4 4 3 4 3 6 2 7v3l1 2 1 1 3-1c3-2 4-2 6 0h0l3 1 1 1h-9v2l1 1 2 1h2v-2l-1-1h2l2 1v1l1-1h1l-1 1v1l4 1h10l6-1 6-2 6-3v-3l4 2-1-2-1-1 4 2v-1l-1-1h2l1 1v-1l-1-2 2 2 6-4v2l-8 6-8 5-7 3-7 4-6 1-6 2 2 1 11 2 9 2 12-14 8-9v6l1 6h5l1-1 2-1 3-7 3-6-1-2v-1l2 1h1l6-1 5-2 4-4v-5h-1l-2-1-4 2-3-1-4-1 1-9v-10l2-6v-6h-2v-12h3l4-1v3l1-1h1v-8h-1l-1 1 1-1 1-2-1-5-1-6 1-3 2-2h2v4l1 3v-2l1-3v19l1 1 9-9 2-5 2-4v1l1 2 2-4-1-1h3v3h3v2l1 5 1 2h4l1 3c1 3 1 3 3 1h0l7-5h1v-1l1-6 1-4h4v5l3 2 3 1v2l2 5 1 3 2-1h1v-35l1-6 2-6 4-8c11-24 33-47 59-63h0l8-4v2l9-4 8-4 1 1h1l1-1 1-2v1h1l2-1 1-2-1 1h-1l2-2 1 1 1 2v-3l1 1h1l4-1 3-1-4 4-3 2h2l1-1v1l-1 1-2-1h-1l-3 1-2 2-1-1h-1l-4 2-7 4-7 3-5 3-9 8-14 10-8 6 1-1c-11 13-23 26-30 42h0l-4 7-1 6-2 6v18l2 2h2l3 4 2 5h2v2l-1 3 2-3 1-3v7l-1 4-11 27-2 4-3 3-2-5-2-4 4 10-9 11-11 14-3-6-3-4 3 6 2 5-1 1-21 24-3-7-2-6 2 8 3 6-6 7-7 6-2-4-2-7-1-4v5l2 6 3 6-6 6-6 4-3 3h-4l-1-7-2-7v2l1 6 1 5v1h-3l-1-1v-1l-2 1-3 2-1 1-3 1h-3l-6-4h-1l-4 2-2-2 1-1-2-1-2-2 1 2 1 4 1 1-2 2-2 1h-4l-2-4 4-4c9.988-8.866 20.691-16.894 32-24h0l-6 4c-5 3-17 11-22 16h0l-5 5-2-2v4l-2-2-3-1-2 1-5 4-12 9-9 9h-3v8l10-3 1-1 1 1 3 1h1l-4-2h2l15-5 2 4h-1l-1 1h1l2-1v1l-1 1-33 11-1 3-1 4-2-1v2h-3l-2 1 1-3-1-4-20 7-4 2h-1l-1-1-8 6 3-1 3-2 1-1 1-2v2l-3 3-3 2v8l1 15v8l1-6v-9h2l2-1v7l-1 7 1-1 1-2 1 2 2 3 2 2-2-1h-2v1h4l2 7 8 20-7 1h-4l-3-2-4-2h-1l-2 2-1 2 1 6 1 5h8l5-2h3l-1-1-1-2 2 2 6-1 5-1h1l1-1h-2l-2 1 2-2v-2l-1-2-1 1-1-1v-2l2 2-1-2v-2h-1l-2 1-3-6-8-24 2-4 2-5 3-5h6l-1 5v4l1 1 4 2v1l4-2v-3l6-8h5l1 1-1 4v3l2 4 1 3 1-2 1-5 1-2h5v2c1 4 2 5 5 5h0v-1l3-7 2-5 4-3 3-4h1l2-1h-15v-1h9l-8-1 2-2 3-2h8l9 1 9 2 8 2 8 4 9 3 2-1 2-2 4-8h3l4-3 7-6 3-3 7-6 6-6h2l2-1c0-2 4-6 5-6h0l3-2 1-2h3l4-4 1-4 1-8 1-4-2-4-3 2-4 3h-7l-3 3-4 3-3 2-25 20-3 1v2h-3v2l-1 2h-3v1c0 1-4 5-7 6h0-5l1-1 1-2 1 1v2l1-2 2-1-1 1h-2v-2h-2l-1 2v-2l4-2 2-2 1-2h3l-1 2-1 1 2-2v-4l2-1 3-2 1-1 6-5 4-4h2l5-5v-2l2-1 1-1v-2l1-2h-2l-8 3-7 2h-3l1-1h-1l-2-1-1-1 7-4 10-6 3-2 3 3 2 3h2l-4-4-2-3 14-10 6 10 4 2-3-3-6-9 30-30 4-6 5-10 3-4 2 3 1 4 3 2 2 2-6-9-2-4 3-9 6-15 1-6 4-5 3-4 2 3 3 4 1 1h1v-1h-2l-2-4-2-5 1-2 2-2v4h1l5-4 5-5 2 1 1 1-2-2-1-2 1 1h1v-3h-2l1-2 3-3h1l-2 4 1-1 2-3 1-2-1 1-2 1 1-1v-2h3v-1l-1-1 2 1h3v-1h5l3 2c2 2 4 4 6 4h0l2 1v5l-5 3-8 4-4 3-8 5-5 3-2 4h-3v3h-2l-2 4-2 3-2 10 2 2 1 2h5l12 1 7 1 1-6 2-5 12-18v-4l3-16 1-3h1l3 3 1 2-1 5-1 4 1 1 3-2 3-3 1 2 2 2 1 2-12 12 1 4v3l3 4 3 5-6 4-2-3-3-5-2-3-7 11-1 3v1l1 1h5v1l-3 4-12 11-8 9 10-10 12-11 2-1v6l2 5 1 5 3 3v4l-1-2-1-1v5l-1 1h-1v8l-1 7 4 2 2 3 1 2h3l3 1 1 1 2 1h1l2-1h1l-3 3v1l-1 2-2 1 2-1h3l-2 1-1 1 4 4 3-1h3l2 2 2-2 2-3 1-1h7l7 1v1l1 1h2l2-1-1-1v-2h1l1 1-2-4-2-1-12-4h-2l1-1v-1l2-1h2l1 1 2 1h1l-1-1v-2h1l2 1 1 1v-2h4l1 2 2 3 1-1v-1l10-4h1l-2 4h1l7-3 6-4 4-3 4-4v-1l-1-2 5-5 5-6h2l3-5 2-5h-2l3-9c4-10 6-19 6-29h0l1-7-3 4-3 3-6 1h-6l-5-2c-7-2-16-7-24-12h0l-6-4-6-7-7-7-1-2v-2l1-1v-4l-1-4v-1h2l1 3 1 5 1 3h1l2-1 7 8 8 7 7 5a84.88 84.88 0 0 0 22 9h0l3 1 2-2 3-2 2-4 3-10 2-6h6v35l-2 2-1 2-1 8v9l-2 5-2 6h-2l-1 1-4 8h3l-5 7-4 6h-2l-7 6-6 6-6 3-10 4-3 1 1 2v2h-1l-1 2v1l8 2 2 2h17l3 3 3 2v2l1 3 2 1v6l1 6 1 1 1 2-1 1-1 2 1 1v1l-1 1-4 8-4 5h-3l-1-1v1h-3v-4l-1-1-5-2-6-1-2-1-5 6-5 5-1 3-1 4h-2l-2 1v2l-6 2c-6 0-18 1-20-2h0l-2-1-1 1v1h-16v-5l-8-8-2 1-1 2-8-2-2-1c-3-2-3-2-5 0h0l-1 1 1 10 2 9 2-1h1l4-6 1 1h1v-2h5v3l1 2 2 1 1 1 2-1h1v1l1 9v6l1 5 2 5 1 1h2v-1l2-3 2-2v-9h6l2 1v4l2-2v3l1 2 4 4v-2h3v3l-1 7-1 5-1 1-2 1v3l-3-1h-8l-3-4-4-4-2-1-1-1-3 2-3 4-1 2-2 1h-1l-3 1-2 1-5-1-5-2c-6 4-6 5-12-1h0l-2 2-3 2-6-1h-5l-1-1v-1l-5 1-7 1h-3l-2-1-3-2h-3l-2 4h-13c-26.997-1.167-54.04-.833-81 1h0l-5 1-16 2-6 1-14 4-5 1-2 6v-1l-3-2-1-1-1 1v1l-4-1h-4l1 1 1 5 1 2h1l-1 1v1h2l14-2 11-1h45l10 2c9.965 1.937 19.689 4.955 29 9h0l6 3 5 5h-1v1h1l1-1v2h-7v-1z"/><path d="M325.09 399l-3-2-1-2-2-2v-5l1-4h-37v-8l1-1 4-1 3-1v-1c0-2 2-2 9-3h0l7-1 23 1 22 1 8 1 7 1v1l-3 10v2h-16v4l-6 8-3 1-3 2h-8l-3-1z"/></g></g></svg>