<svg width="638" height="765" viewBox="0 0 638 765" fill="none" xmlns="http://www.w3.org/2000/svg">
<path d="M478.447 763.043C476.932 761.855 475.871 760.191 475.871 759.359V758.052L471.932 756.863C469.81 756.15 463.143 755.08 457.234 754.248L446.324 752.941L439.203 750.207L432.081 747.355L431.324 745.215L430.414 742.957L413.293 742.244L396.17 741.412L388.897 739.51L381.776 737.609L382.533 737.014L383.291 736.301L379.958 734.281L376.624 732.26L370.715 732.855L364.957 733.33L366.775 734.281L368.745 735.232L367.836 737.133L366.927 739.035L362.987 740.223L359.199 741.293L356.926 740.699L354.653 739.986V737.965C354.653 736.896 355.411 735.35 356.472 734.518C357.532 733.686 357.987 733.092 357.684 733.092C357.229 732.973 350.108 732.379 341.774 731.785C333.44 731.072 324.803 730.477 322.682 730.24C320.561 730.121 317.985 729.527 317.076 729.051L315.409 728.338L314.5 729.645L313.439 730.953L309.651 730.121C307.53 729.764 303.287 728.219 300.257 726.555L294.499 723.822L287.529 722.99L280.407 722.158V720.731V719.424L278.892 721.207L277.529 722.99L274.801 721.682L272.074 720.256L272.528 718.473L272.983 716.571L270.104 715.383L267.225 714.194L266.164 714.908C265.71 715.383 263.74 715.74 261.77 715.858C259.952 715.977 257.376 716.453 256.012 716.928L253.588 717.76L252.527 715.026L251.467 712.293L250.558 713.838L249.8 715.264L243.891 715.977L237.981 716.809L237.072 717.76C236.618 718.354 235.254 718.83 234.042 718.83H231.92L230.102 715.858C229.193 714.194 227.829 712.887 227.072 712.887H225.708L227.375 715.145C228.132 716.453 228.89 718.592 228.89 719.899V722.395H226.617H224.496L221.314 719.781L218.283 717.166L217.374 717.998L216.314 718.711L212.677 716.453L209.04 714.194L203.586 714.908L198.131 715.621L199.04 712.174L199.798 708.846L197.373 707.301C195.858 706.469 194.343 705.756 193.737 705.756H192.676L191.615 711.461L190.706 717.166L186.615 717.047H182.676L182.221 714.432L181.767 711.698H177.372H173.13L172.524 710.272L171.918 708.846L167.523 711.461C165.251 712.887 162.675 714.076 162.069 714.076H160.705V712.174V710.272L156.614 711.104C154.341 711.461 152.068 712.293 151.614 712.768C151.159 713.362 149.341 714.076 147.522 714.551L144.037 715.383V714.313C144.037 713.6 142.977 712.768 141.613 712.412L139.34 711.698L140.401 713.244L141.462 714.67L138.431 712.53L135.249 710.391L131.007 710.748L126.612 711.104L126.158 708.37L125.552 705.518L121.764 706.35L117.976 707.063L115.854 705.756L113.885 704.33L112.369 705.161L110.703 705.875L104.339 704.567C100.702 703.854 95.8534 702.547 93.2775 701.596C90.8532 700.764 85.7014 699.338 82.0649 698.506L75.5494 696.961L74.0342 698.981L72.6705 701.002H70.5492H68.2763V698.149V695.416L59.6396 693.514C54.7909 692.563 48.4269 691.374 45.548 691.018L40.2447 690.305L42.5176 691.493L44.7904 692.682H40.6993H36.4567V690.78V688.879L32.6686 689.592L28.8806 690.305V688.997V687.69L24.941 688.403L21.0014 689.235L22.0621 686.858L22.9712 684.6L19.4862 683.649C17.6679 683.292 13.1222 682.698 9.48571 682.579L2.81874 682.46L1.9096 681.153L0.848946 679.727L-1.42389 679.846C-2.63607 679.964 -4.9089 679.846 -6.2726 679.846L-9 679.608V341.587V3.56562L-8.09087 1.78281L-7.33326 0L-0.666277 1.78281L5.84918 3.4468L6.90984 7.84449L7.81897 12.242L11.9101 16.6396C14.1829 19.0167 18.7286 23.7709 22.0621 26.98L28.1229 32.9227L36.6082 36.4883C41.3054 38.5088 46.3056 40.1727 47.6693 40.1727H50.0937L52.215 44.095L54.3363 47.8983L59.0335 51.5827L63.7307 55.3861L62.67 57.5254C62.0639 58.8328 60.3972 60.4968 58.7304 61.4477L55.8515 62.9927L57.5183 64.3002L59.185 65.6076V69.4108V73.3331L61.0033 74.165C62.0639 74.7593 64.6398 74.9969 66.7611 74.8781L70.5492 74.6404L72.822 75.829L75.0948 76.8987V81.8905V86.7635L81.1557 88.4275L87.2166 90.0915L89.641 89.3784L92.2169 88.7841L92.9745 90.5669L93.8836 92.2309L96.914 91.6366L100.096 91.0424L99.4899 90.2103L98.7323 89.3784H101.763H104.642V90.8046V92.2309L106.611 92.8252L108.581 93.4194L115.703 92.8252L122.824 92.1119L122.067 91.28L121.309 90.3291L128.128 87.7144C131.916 86.2881 136.158 84.2676 137.37 83.1979L139.795 81.4151H144.189H148.583L156.614 87.8332C160.856 91.3988 167.372 96.0342 171.008 98.1736L177.524 102.215L179.645 100.788L181.767 99.3622L183.282 100.075L184.645 100.788L185.252 99.481L185.858 98.0546L190.858 99.0055L195.858 99.8375L198.585 104.948L201.313 109.94L206.01 110.653L210.707 111.485L212.374 114.694C215.101 120.162 221.617 129.67 225.253 133.473L228.587 137.039L229.193 140.486L229.648 143.932L217.98 145.953C211.465 147.023 205.707 148.33 205.101 148.924L203.889 149.875L206.768 149.043C208.434 148.568 214.192 147.617 219.647 146.904L229.648 145.596L234.193 146.428L238.739 147.379L236.011 148.211L233.284 149.043L236.314 151.183C238.133 152.49 239.496 153.916 239.496 154.392V155.461L235.405 156.174C232.981 156.531 225.708 157.957 219.041 159.383L206.919 161.761L208.889 162.355L210.707 162.83V165.088C210.707 166.277 211.01 167.347 211.313 167.347C211.768 167.347 217.677 165.207 224.496 162.592L237.072 157.838H242.375H247.83L246.163 158.789L244.497 159.621L244.8 162.236C244.951 163.781 245.557 165.326 246.163 165.801L247.224 166.634L248.588 164.97C249.497 164.019 250.103 163.424 250.255 163.781C250.255 164.138 250.558 165.802 250.861 167.703L251.467 170.912L250.103 170.318L248.739 169.605L250.255 173.171C251.164 175.072 253.133 177.568 254.649 178.638L257.376 180.539L267.68 181.728C273.286 182.322 283.438 183.867 289.953 185.175C303.59 187.908 304.803 188.027 301.621 186.363L299.348 185.175H302.681H306.015L307.075 183.867L307.985 182.56L310.863 183.154L313.742 183.749L318.288 181.966L322.834 180.183L327.531 181.015L332.228 181.847L334.501 186.007C336.774 190.523 341.168 195.872 346.471 200.626C348.289 202.29 351.32 206.569 353.29 210.134C355.259 213.7 358.29 218.81 359.957 221.425L363.139 226.179L369.2 226.417C372.382 226.536 378.442 226.893 382.382 227.249L389.655 227.962L393.292 229.983L396.928 232.122L396.322 238.065L395.867 244.008L400.716 247.454L405.716 250.782L404.656 255.299L403.595 259.934L405.868 261.717L408.292 263.5L407.989 277.524C407.838 285.25 407.383 293.57 407.08 295.947L406.625 300.344L408.595 300.939L410.717 301.533V303.435V305.217L407.535 307.713L404.504 310.09L408.444 313.062C410.565 314.607 412.989 315.914 413.899 315.914C415.262 315.914 415.414 316.39 415.717 321.025L415.868 323.64L419.05 324.828L422.081 326.017L422.535 330.89L422.99 335.763L419.959 342.062C415.717 350.857 416.929 350.857 421.929 342.062L425.869 334.812L429.354 335.169L432.687 335.525L432.233 336.714L431.778 337.783L434.96 338.734L438.294 339.685L439.051 342.062L439.809 344.439H441.93H444.052L443.748 348.005L443.445 351.571H441.476C438.142 351.571 439.506 353.234 445.87 356.919L452.082 360.485L454.507 364.288L456.931 368.091L459.961 369.28C461.628 369.993 465.568 371.3 468.598 372.251L474.204 374.034L475.114 377.362C475.72 379.145 477.235 382.71 478.599 385.206L481.174 389.723L484.053 389.128L487.084 388.534L491.326 390.555L495.569 392.456V395.665V398.756L500.872 403.034C506.176 407.313 509.206 408.502 509.206 406.362V405.293L513.6 403.866L518.146 402.44L518.904 400.776L519.661 399.112L522.237 399.944L524.813 400.657L523.904 399.469L522.843 398.161L525.116 396.735L527.389 395.309L533.753 394.952C541.329 394.596 544.511 394.12 545.571 393.051L546.329 392.219L551.935 394.001L557.542 395.784L558.451 399.469C559.663 404.223 567.088 416.94 568.603 416.94H569.663L570.724 421.1C571.179 423.358 573.148 428.588 574.967 432.748L578.3 440.117L580.876 439.76L583.452 439.404L588.452 441.187C591.028 442.137 595.725 443.207 598.604 443.564L603.756 444.158L606.483 446.891L609.059 449.625L608.302 453.547L607.544 457.47L609.059 459.015L610.574 460.441V465.789C610.574 468.642 610.574 472.683 610.574 474.585C610.574 479.339 609.362 504.179 609.059 504.892C608.908 505.249 609.059 506.437 609.211 507.745L609.514 509.884L607.847 509.171L606.18 508.339V511.905V515.47L608.908 516.659L611.787 517.847L613.605 516.421L615.423 514.995L619.06 518.323L622.696 521.532H625.878H628.909V523.077V524.622L633.454 527.237C636.03 528.782 638 530.446 638 531.159C638 531.753 635.424 534.487 632.091 537.34C628.909 540.073 624.969 544.114 623.302 546.254L620.272 550.176L621.939 554.93L623.605 559.803L619.06 563.012C613.605 566.815 607.544 572.996 604.059 578.344L601.483 582.266L602.998 583.812L604.665 585.357L603.604 586.07L602.695 586.902H604.362H606.18V590.943V594.984L600.877 597.48L595.574 599.857L596.483 601.64L597.24 603.304L593.755 605.205C591.937 606.275 589.21 607.107 587.998 607.107H585.422L581.785 610.197C579.815 611.861 576.633 613.763 574.815 614.357L571.33 615.427L571.179 618.041C571.027 619.587 571.179 621.25 571.33 621.964C571.482 622.558 571.633 624.103 571.785 625.173L571.936 627.312H573.148H574.361L572.088 631.71C569.209 637.058 569.966 636.583 563.754 637.415L558.451 638.128L546.481 642.763L534.662 647.517H531.631H528.601L524.207 650.726L519.813 654.054L518.752 658.214C518.297 660.472 517.843 663.206 517.994 664.395L518.146 666.296L514.964 668.554L511.933 670.694H497.084H482.235L481.326 671.407L480.417 672.12L482.993 676.161L485.569 680.202L485.114 684.243C484.963 686.383 484.205 689.235 483.296 690.424L481.781 692.682L483.447 695.059L484.963 697.436L482.538 696.604L479.962 695.891L480.871 697.079L481.932 698.387L479.659 699.813C478.447 700.645 477.386 701.834 477.386 702.428V703.498L479.356 702.666L481.174 701.715L479.205 703.735L477.083 705.637L477.689 708.37L478.144 711.104H480.417C481.629 711.104 483.599 711.698 484.659 712.53L486.478 713.957V717.879C486.478 720.018 485.872 723.584 485.114 725.723L483.599 729.527H485.114H486.478V732.973C486.478 737.133 483.75 743.789 480.871 746.285L478.75 748.306L481.174 749.019C482.538 749.375 485.266 749.732 487.084 749.732H490.417L492.842 751.277L495.266 752.703L496.175 756.031L497.084 759.24H494.66H492.236L487.69 762.211C482.387 765.777 481.629 765.777 478.447 763.043Z" fill="#D9E0E2"/>
<path d="M90.3539 320.759L90.6972 320.188L88.2371 320.53L85.7198 320.873L84.976 319.96L84.1751 318.991L84.8044 317.68L85.3765 316.369L81.6005 317.167L77.8246 317.908L77.2525 317.338L76.6804 316.768L77.1953 316.255C77.5385 315.97 80.8568 315.058 84.6327 314.259C88.4087 313.404 93.1 312.207 95.1024 311.58L98.6495 310.383V309.471C98.7068 308.957 98.764 302.344 98.8784 294.819L99.05 281.137L99.4505 280.168L99.9082 279.141H99.4505C99.1644 279.141 97.3909 281.479 95.5029 284.329C93.6149 287.123 91.2121 290.258 90.1823 291.227L88.3515 293.052L87.3789 292.14L86.4635 291.17L87.951 288.149L89.4957 285.127L94.8736 277.944L100.251 270.761L100.938 268.366L101.567 265.972L102.998 265.345L104.371 264.718L106.144 261.924L107.861 259.131L108.547 259.359L109.234 259.587L109.405 261.012L109.577 262.494L110.664 262.209L111.808 261.924L112.151 262.78L112.438 263.635L111.637 265.288C111.179 266.143 109.749 268.081 108.433 269.564L106.087 272.186V276.12C106.087 278.229 105.687 283.588 105.172 287.978C104.714 292.368 104.142 298.525 103.856 301.66L103.455 307.418L102.998 308.102L102.597 308.786H102.94C103.169 308.786 104.886 308.387 106.774 307.874L110.206 307.019L112.323 307.19L114.383 307.361V308.216V309.015L112.724 309.927C111.808 310.383 110.492 311.352 109.806 312.036C109.119 312.72 107.002 314.031 105.114 315.001L101.682 316.711L101.167 318.592L100.595 320.473L99.5649 320.645L98.5351 320.873L97.8486 319.903L97.1048 318.877L93.8438 320.131C90.1823 321.5 89.839 321.557 90.3539 320.759Z" fill="#A73A24"/>
<path d="M149.739 311.979L146.764 310.553L144.991 308.159L143.274 305.765L142.416 302.914L141.558 300.007V295.161L141.501 290.258L139.899 294.078L138.24 297.954L135.036 302.743L131.775 307.589L129.944 309.014L128.171 310.44L129.143 310.839C130.23 311.238 130.459 312.207 129.487 312.207C129.2 312.207 127.198 311.409 125.081 310.44C122.964 309.47 120.161 308.159 118.845 307.532L116.442 306.449L114.726 304.453L113.01 302.515L112.323 300.121L111.694 297.669L111.98 293.622L112.266 289.517L114.612 282.562L116.957 275.549L118.731 272.471C119.703 270.818 121.477 268.195 122.678 266.656L124.852 263.92L127.026 262.608L129.143 261.297L131.775 261.981L134.407 262.665L136.524 264.718L138.583 266.713L140.414 270.704L142.245 274.694L142.702 280.167C142.931 283.246 143.16 285.298 143.217 284.785C143.217 284.329 144.419 281.593 145.792 278.799L148.252 273.725L150.826 270.248L153.401 266.827L156.147 265.003L158.836 263.235L161.239 262.893L163.642 262.494L166.903 263.635C168.676 264.262 170.908 265.345 171.823 265.972L173.482 267.169L174.684 269.621L175.885 272.072L176.228 278.058L176.572 283.987L175.656 287.864L174.741 291.683L173.253 294.705C172.395 296.301 170.507 299.323 168.962 301.375L166.216 305.138L162.784 308.387L159.351 311.694L157.349 312.492C156.204 312.948 154.717 313.347 154.03 313.347H152.714L149.739 311.979ZM128.857 305.024L130.574 302.971L132.69 298.638C133.892 296.244 135.837 291.569 137.038 288.32L139.27 282.391V279.711V277.089L138.354 274.409L137.439 271.73L135.723 270.305L134.006 268.879H132.347H130.688L128.972 271.217L127.313 273.554L125.539 278.058L123.823 282.505L123.308 286.267L122.736 290.03L123.308 295.275L123.823 300.52L124.738 303.37C126.225 307.931 126.397 307.988 128.857 305.024ZM157.349 302.23L159.694 300.862L163.642 296.643L167.589 292.424L169.134 289.346C169.935 287.636 171.022 285.013 171.537 283.531L172.452 280.794V278.913C172.452 277.887 172.281 276.177 172.109 275.207L171.709 273.383L170.164 271.73L168.562 270.02H166.502H164.443L162.211 271.445L160.037 272.927L157.577 276.177C156.261 277.944 154.488 280.794 153.687 282.448L152.199 285.412H151.685H151.227L151.513 284.443C151.627 283.873 151.971 282.505 152.142 281.422C152.657 278.97 155.461 273.326 156.662 272.357L157.577 271.616V270.533V269.449H156.605H155.575L153.973 271.445C151.627 274.352 148.08 281.25 146.364 286.039L144.819 290.258V295.218L144.762 300.178L145.849 301.432C146.478 302.116 147.794 303.028 148.71 303.427L150.426 304.225L152.714 303.94L155.003 303.598L157.349 302.23Z" fill="#A73A24"/>
<path d="M92.0528 359.712L87.7619 358.401L84.6153 356.747L81.4687 355.037L77.7499 351.332L73.974 347.626L69.912 341.868L65.7928 336.053L62.0168 333.088L58.2408 330.124L55.6091 326.874L52.9774 323.682L51.3183 320.204L49.7163 316.727L48.8582 312.793L48 308.859V305.096V301.391L48.6293 297.97C48.9154 296.146 50.0024 292.155 50.975 289.191L52.6913 283.775L56.3529 276.363L59.9572 268.952L63.962 263.536C66.1932 260.572 69.2254 256.068 70.7129 253.616C76.6629 243.64 84.0432 234.974 92.0528 228.589L96.3437 225.169L100.921 223.002L105.497 220.893L108.93 220.209C110.818 219.867 112.763 219.411 113.221 219.297C114.194 218.954 128.954 218.897 146.976 219.182L159.276 219.411L163.853 221.007C166.37 221.862 169.975 223.401 171.863 224.37L175.295 226.138L179.644 230.47L183.992 234.746L186.681 239.307C188.111 241.815 190.113 245.806 191.086 248.144L192.917 252.419L194.061 257.835L195.262 263.251V276.363V289.476L194.061 296.602C193.374 300.536 192.287 305.438 191.601 307.548L190.456 311.311L190.8 312.223L191.143 313.135H190.571H190.056L186.566 320.204L183.076 327.273L179.815 330.751L176.611 334.229L172.664 336.851C170.49 338.276 166.313 340.671 163.453 342.21L158.132 344.946L153.155 346.714L148.12 348.424L144.287 349.108L140.396 349.735L133.531 352.472C124.148 356.234 115.452 359.085 110.475 360.168L106.298 361.023L101.321 360.966H96.3437L92.0528 359.712ZM112.878 356.576C115.109 355.949 119.972 354.296 123.691 352.928L130.556 350.476L128.611 350.077C127.524 349.906 121.803 349.393 115.796 349.051C95.1994 347.797 85.4163 345.916 75.8048 341.298C74.2028 340.557 72.7153 339.93 72.4293 339.93H71.9716L75.5187 344.49L79.0658 349.108L81.9264 351.332L84.7297 353.555L87.8192 355.037C89.4783 355.835 92.2244 356.861 93.8836 357.318L96.9158 358.173L102.923 357.945L108.93 357.66L112.878 356.576ZM147.09 342.78C151.267 340.614 159.562 336.338 165.512 333.316L176.268 327.786L179.243 324.879L182.218 321.971L184.163 317.411L186.051 312.85L186.337 310.17L186.623 307.434L187.024 307.719L187.424 307.947L188.054 305.838C189.083 302.417 190.399 293.409 190.8 287.252L191.143 281.494L190.17 275.793L189.255 270.092L186.394 261.598L183.534 253.16L181.646 249.341L179.701 245.578L176.554 241.587L173.465 237.597L170.204 235.031C163.567 229.729 158.647 227.278 148.807 224.427L144.001 223.059H141.884C140.74 223.059 137.822 223.344 135.419 223.743L130.957 224.37V224.769C130.957 224.998 132.902 225.739 135.305 226.48L139.71 227.848L142.685 229.729L145.717 231.611L146.404 233.378L147.147 235.088L146.518 237.198L145.889 239.25L146.575 239.706L147.262 240.162H146.289H145.317L144.973 241.245C144.802 241.815 144.172 242.728 143.543 243.298L142.399 244.324L142.056 243.982L141.655 243.583L142.456 242.671C143.543 241.359 144.687 237.939 144.687 235.829V234.062L143.715 233.207C142.056 231.782 138.451 230.128 133.359 228.532L128.611 227.05H125.235C123.405 227.05 121.517 227.221 121.002 227.392L120.086 227.734L120.372 228.19L120.659 228.646L119.629 228.361L118.599 228.133L112.363 231.269L106.07 234.347L99.8336 238.509L93.5975 242.671L89.8216 246.49L86.0456 250.253L84.0432 253.503C82.9562 255.213 81.8692 256.695 81.6403 256.695C80.6677 256.695 81.2971 254.985 83.9288 250.823L86.6177 246.49L89.4211 243.583C93.1398 239.706 96.1148 237.312 101.836 233.606C104.468 231.896 106.413 230.47 106.184 230.47C105.269 230.47 97.259 234.746 93.4831 237.312C91.3091 238.794 87.8764 241.359 85.9312 242.956L82.3269 245.92L77.235 251.849L72.1432 257.721L69.6831 261.883C66.7654 266.9 62.6461 276.363 59.8428 284.63L57.8404 290.616L57.1538 295.291L56.4673 299.909L57.0966 304.811C57.4971 307.491 58.2981 311.653 58.9274 314.104L60.0144 318.551L61.788 322.256C62.7033 324.309 64.5341 327.786 65.85 330.01L68.1384 334.115L73.1158 336.68L78.0932 339.302L84.1004 341.298L90.1076 343.293L95.8288 344.205C98.9182 344.661 106.127 345.402 111.791 345.859L122.089 346.657L130.785 346.714L139.538 346.771L147.09 342.78Z" fill="#A73A24"/>
</svg>
