<svg width="638" height="765" viewBox="0 0 638 765" fill="none" xmlns="http://www.w3.org/2000/svg">
<rect x="385" y="659" width="248" height="50.2703" rx="6.7027" fill="#F3C010"/>
<path d="M478.447 763.043C476.932 761.855 475.871 760.191 475.871 759.359V758.052L471.932 756.863C469.81 756.15 463.143 755.08 457.234 754.248L446.324 752.941L439.203 750.207L432.081 747.355L431.324 745.215L430.414 742.957L413.293 742.244L396.17 741.412L388.897 739.51L381.776 737.609L382.533 737.014L383.291 736.301L379.958 734.281L376.624 732.26L370.715 732.855L364.957 733.33L366.775 734.281L368.745 735.232L367.836 737.133L366.927 739.035L362.987 740.223L359.199 741.293L356.926 740.699L354.653 739.986V737.965C354.653 736.896 355.411 735.35 356.472 734.518C357.532 733.686 357.987 733.092 357.684 733.092C357.229 732.973 350.108 732.379 341.774 731.785C333.44 731.072 324.803 730.477 322.682 730.24C320.561 730.121 317.985 729.527 317.076 729.051L315.409 728.338L314.5 729.645L313.439 730.953L309.651 730.121C307.53 729.764 303.287 728.219 300.257 726.555L294.499 723.822L287.529 722.99L280.407 722.158V720.731V719.424L278.892 721.207L277.529 722.99L274.801 721.682L272.074 720.256L272.528 718.473L272.983 716.571L270.104 715.383L267.225 714.194L266.164 714.908C265.71 715.383 263.74 715.74 261.77 715.858C259.952 715.977 257.376 716.453 256.012 716.928L253.588 717.76L252.527 715.026L251.467 712.293L250.558 713.838L249.8 715.264L243.891 715.977L237.981 716.809L237.072 717.76C236.618 718.354 235.254 718.83 234.042 718.83H231.92L230.102 715.858C229.193 714.194 227.829 712.887 227.072 712.887H225.708L227.375 715.145C228.132 716.453 228.89 718.592 228.89 719.899V722.395H226.617H224.496L221.314 719.781L218.283 717.166L217.374 717.998L216.314 718.711L212.677 716.453L209.04 714.194L203.586 714.908L198.131 715.621L199.04 712.174L199.798 708.846L197.373 707.301C195.858 706.469 194.343 705.756 193.737 705.756H192.676L191.615 711.461L190.706 717.166L186.615 717.047H182.676L182.221 714.432L181.767 711.698H177.372H173.13L172.524 710.272L171.918 708.846L167.523 711.461C165.251 712.887 162.675 714.076 162.069 714.076H160.705V712.174V710.272L156.614 711.104C154.341 711.461 152.068 712.293 151.614 712.768C151.159 713.362 149.341 714.076 147.522 714.551L144.037 715.383V714.313C144.037 713.6 142.977 712.768 141.613 712.412L139.34 711.698L140.401 713.244L141.462 714.67L138.431 712.53L135.249 710.391L131.007 710.748L126.612 711.104L126.158 708.37L125.552 705.518L121.764 706.35L117.976 707.063L115.854 705.756L113.885 704.33L112.369 705.161L110.703 705.875L104.339 704.567C100.702 703.854 95.8534 702.547 93.2775 701.596C90.8532 700.764 85.7014 699.338 82.0649 698.506L75.5494 696.961L74.0342 698.981L72.6705 701.002H70.5492H68.2763V698.149V695.416L59.6396 693.514C54.7909 692.563 48.4269 691.374 45.548 691.018L40.2447 690.305L42.5176 691.493L44.7904 692.682H40.6993H36.4567V690.78V688.879L32.6686 689.592L28.8806 690.305V688.997V687.69L24.941 688.403L21.0014 689.235L22.0621 686.858L22.9712 684.6L19.4862 683.649C17.6679 683.292 13.1222 682.698 9.48571 682.579L2.81874 682.46L1.9096 681.153L0.848946 679.727L-1.42389 679.846C-2.63607 679.964 -4.9089 679.846 -6.2726 679.846L-9 679.608V341.587V3.56562L-8.09087 1.78281L-7.33326 0L-0.666277 1.78281L5.84918 3.4468L6.90984 7.84449L7.81897 12.242L11.9101 16.6396C14.1829 19.0167 18.7286 23.7709 22.0621 26.98L28.1229 32.9227L36.6082 36.4883C41.3054 38.5088 46.3056 40.1727 47.6693 40.1727H50.0937L52.215 44.095L54.3363 47.8983L59.0335 51.5827L63.7307 55.3861L62.67 57.5254C62.0639 58.8328 60.3972 60.4968 58.7304 61.4477L55.8515 62.9927L57.5183 64.3002L59.185 65.6076V69.4108V73.3331L61.0033 74.165C62.0639 74.7593 64.6398 74.9969 66.7611 74.8781L70.5492 74.6404L72.822 75.829L75.0948 76.8987V81.8905V86.7635L81.1557 88.4275L87.2166 90.0915L89.641 89.3784L92.2169 88.7841L92.9745 90.5669L93.8836 92.2309L96.914 91.6366L100.096 91.0424L99.4899 90.2103L98.7323 89.3784H101.763H104.642V90.8046V92.2309L106.611 92.8252L108.581 93.4194L115.703 92.8252L122.824 92.1119L122.067 91.28L121.309 90.3291L128.128 87.7144C131.916 86.2881 136.158 84.2676 137.37 83.1979L139.795 81.4151H144.189H148.583L156.614 87.8332C160.856 91.3988 167.372 96.0342 171.008 98.1736L177.524 102.215L179.645 100.788L181.767 99.3622L183.282 100.075L184.645 100.788L185.252 99.481L185.858 98.0546L190.858 99.0055L195.858 99.8375L198.585 104.948L201.313 109.94L206.01 110.653L210.707 111.485L212.374 114.694C215.101 120.162 221.617 129.67 225.253 133.473L228.587 137.039L229.193 140.486L229.648 143.932L217.98 145.953C211.465 147.023 205.707 148.33 205.101 148.924L203.889 149.875L206.768 149.043C208.434 148.568 214.192 147.617 219.647 146.904L229.648 145.596L234.193 146.428L238.739 147.379L236.011 148.211L233.284 149.043L236.314 151.183C238.133 152.49 239.496 153.916 239.496 154.392V155.461L235.405 156.174C232.981 156.531 225.708 157.957 219.041 159.383L206.919 161.761L208.889 162.355L210.707 162.83V165.088C210.707 166.277 211.01 167.347 211.313 167.347C211.768 167.347 217.677 165.207 224.496 162.592L237.072 157.838H242.375H247.83L246.163 158.789L244.497 159.621L244.8 162.236C244.951 163.781 245.557 165.326 246.163 165.801L247.224 166.634L248.588 164.97C249.497 164.019 250.103 163.424 250.255 163.781C250.255 164.138 250.558 165.802 250.861 167.703L251.467 170.912L250.103 170.318L248.739 169.605L250.255 173.171C251.164 175.072 253.133 177.568 254.649 178.638L257.376 180.539L267.68 181.728C273.286 182.322 283.438 183.867 289.953 185.175C303.59 187.908 304.803 188.027 301.621 186.363L299.348 185.175H302.681H306.015L307.075 183.867L307.985 182.56L310.863 183.154L313.742 183.749L318.288 181.966L322.834 180.183L327.531 181.015L332.228 181.847L334.501 186.007C336.774 190.523 341.168 195.872 346.471 200.626C348.289 202.29 351.32 206.568 353.29 210.134C355.259 213.7 358.29 218.81 359.957 221.425L363.139 226.179L369.2 226.417C372.382 226.536 378.442 226.893 382.382 227.249L389.655 227.962L393.292 229.983L396.928 232.122L396.322 238.065L395.867 244.008L400.716 247.454L405.716 250.782L404.656 255.299L403.595 259.934L405.868 261.717L408.292 263.5L407.989 277.524C407.838 285.25 407.383 293.57 407.08 295.947L406.625 300.344L408.595 300.939L410.717 301.533V303.435V305.217L407.535 307.713L404.504 310.09L408.444 313.062C410.565 314.607 412.989 315.914 413.899 315.914C415.262 315.914 415.414 316.39 415.717 321.025L415.868 323.64L419.05 324.828L422.081 326.017L422.535 330.89L422.99 335.763L419.959 342.062C415.717 350.857 416.929 350.857 421.929 342.062L425.869 334.812L429.354 335.169L432.687 335.525L432.233 336.714L431.778 337.783L434.96 338.734L438.294 339.685L439.051 342.062L439.809 344.439H441.93H444.052L443.748 348.005L443.445 351.571H441.476C438.142 351.571 439.506 353.234 445.87 356.919L452.082 360.485L454.507 364.288L456.931 368.091L459.961 369.28C461.628 369.993 465.568 371.3 468.598 372.251L474.204 374.034L475.114 377.362C475.72 379.145 477.235 382.71 478.599 385.206L481.174 389.723L484.053 389.128L487.084 388.534L491.326 390.555L495.569 392.456V395.665V398.756L500.872 403.034C506.176 407.313 509.206 408.502 509.206 406.362V405.293L513.6 403.866L518.146 402.44L518.904 400.776L519.661 399.112L522.237 399.944L524.813 400.657L523.904 399.469L522.843 398.161L525.116 396.735L527.389 395.309L533.753 394.952C541.329 394.596 544.511 394.12 545.571 393.051L546.329 392.219L551.935 394.001L557.542 395.784L558.451 399.469C559.663 404.223 567.088 416.94 568.603 416.94H569.663L570.724 421.1C571.179 423.358 573.148 428.588 574.967 432.748L578.3 440.117L580.876 439.76L583.452 439.404L588.452 441.187C591.028 442.137 595.725 443.207 598.604 443.564L603.756 444.158L606.483 446.891L609.059 449.625L608.302 453.547L607.544 457.47L609.059 459.015L610.574 460.441V465.789C610.574 468.642 610.574 472.683 610.574 474.585C610.574 479.339 609.362 504.179 609.059 504.892C608.908 505.249 609.059 506.437 609.211 507.745L609.514 509.884L607.847 509.171L606.18 508.339V511.905V515.47L608.908 516.659L611.787 517.847L613.605 516.421L615.423 514.995L619.06 518.323L622.696 521.532H625.878H628.909V523.077V524.622L633.454 527.237C636.03 528.782 638 530.446 638 531.159C638 531.753 635.424 534.487 632.091 537.34C628.909 540.073 624.969 544.114 623.302 546.254L620.272 550.176L621.939 554.93L623.605 559.803L619.06 563.012C613.605 566.815 607.544 572.996 604.059 578.344L601.483 582.266L602.998 583.812L604.665 585.357L603.604 586.07L602.695 586.902H604.362H606.18V590.943V594.984L600.877 597.48L595.574 599.857L596.483 601.64L597.24 603.304L593.755 605.205C591.937 606.275 589.21 607.107 587.998 607.107H585.422L581.785 610.197C579.815 611.861 576.633 613.763 574.815 614.357L571.33 615.427L571.179 618.041C571.027 619.587 571.179 621.25 571.33 621.964C571.482 622.558 571.633 624.103 571.785 625.173L571.936 627.312H573.148H574.361L572.088 631.71C569.209 637.058 569.966 636.583 563.754 637.415L558.451 638.128L546.481 642.763L534.662 647.517H531.631H528.601L524.207 650.726L519.813 654.054L518.752 658.214C518.297 660.472 517.843 663.206 517.994 664.395L518.146 666.296L514.964 668.554L511.933 670.694H497.084H482.235L481.326 671.407L480.417 672.12L482.993 676.161L485.569 680.202L485.114 684.243C484.963 686.383 484.205 689.235 483.296 690.424L481.781 692.682L483.447 695.059L484.963 697.436L482.538 696.604L479.962 695.891L480.871 697.079L481.932 698.387L479.659 699.813C478.447 700.645 477.386 701.834 477.386 702.428V703.498L479.356 702.666L481.174 701.715L479.205 703.735L477.083 705.637L477.689 708.37L478.144 711.104H480.417C481.629 711.104 483.599 711.698 484.659 712.53L486.478 713.957V717.879C486.478 720.018 485.872 723.584 485.114 725.723L483.599 729.527H485.114H486.478V732.973C486.478 737.133 483.75 743.789 480.871 746.285L478.75 748.306L481.174 749.019C482.538 749.375 485.266 749.732 487.084 749.732H490.417L492.842 751.277L495.266 752.703L496.175 756.031L497.084 759.24H494.66H492.236L487.69 762.211C482.387 765.777 481.629 765.777 478.447 763.043Z" fill="#D9E0E2"/>
<path d="M90.3539 320.759L90.6972 320.188L88.2371 320.53L85.7198 320.873L84.976 319.96L84.1751 318.991L84.8044 317.68L85.3765 316.369L81.6005 317.167L77.8246 317.908L77.2525 317.338L76.6804 316.768L77.1953 316.255C77.5385 315.97 80.8568 315.058 84.6327 314.259C88.4087 313.404 93.1 312.207 95.1024 311.58L98.6495 310.383V309.471C98.7068 308.957 98.764 302.344 98.8784 294.819L99.05 281.137L99.4505 280.168L99.9082 279.141H99.4505C99.1644 279.141 97.3909 281.479 95.5029 284.329C93.6149 287.123 91.2121 290.258 90.1823 291.227L88.3515 293.052L87.3789 292.14L86.4635 291.17L87.951 288.149L89.4957 285.127L94.8736 277.944L100.251 270.761L100.938 268.366L101.567 265.972L102.998 265.345L104.371 264.718L106.144 261.924L107.861 259.131L108.547 259.359L109.234 259.587L109.405 261.012L109.577 262.494L110.664 262.209L111.808 261.924L112.151 262.78L112.438 263.635L111.637 265.288C111.179 266.143 109.749 268.081 108.433 269.564L106.087 272.186V276.12C106.087 278.229 105.687 283.588 105.172 287.978C104.714 292.368 104.142 298.525 103.856 301.66L103.455 307.418L102.998 308.102L102.597 308.786H102.94C103.169 308.786 104.886 308.387 106.774 307.874L110.206 307.019L112.323 307.19L114.383 307.361V308.216V309.015L112.724 309.927C111.808 310.383 110.492 311.352 109.806 312.036C109.119 312.72 107.002 314.031 105.114 315.001L101.682 316.711L101.167 318.592L100.595 320.473L99.5649 320.645L98.5351 320.873L97.8486 319.903L97.1048 318.877L93.8438 320.131C90.1823 321.5 89.839 321.557 90.3539 320.759Z" fill="#A73A24"/>
<path d="M149.739 311.979L146.764 310.553L144.991 308.159L143.274 305.765L142.416 302.914L141.558 300.007V295.161L141.501 290.258L139.899 294.078L138.24 297.954L135.036 302.743L131.775 307.589L129.944 309.014L128.171 310.44L129.143 310.839C130.23 311.238 130.459 312.207 129.487 312.207C129.2 312.207 127.198 311.409 125.081 310.44C122.964 309.47 120.161 308.159 118.845 307.532L116.442 306.449L114.726 304.453L113.01 302.515L112.323 300.121L111.694 297.669L111.98 293.622L112.266 289.517L114.612 282.562L116.957 275.549L118.731 272.471C119.703 270.818 121.477 268.195 122.678 266.656L124.852 263.92L127.026 262.608L129.143 261.297L131.775 261.981L134.407 262.665L136.524 264.718L138.583 266.713L140.414 270.704L142.245 274.694L142.702 280.167C142.931 283.246 143.16 285.298 143.217 284.785C143.217 284.329 144.419 281.593 145.792 278.799L148.252 273.725L150.826 270.248L153.401 266.827L156.147 265.003L158.836 263.235L161.239 262.893L163.642 262.494L166.903 263.635C168.676 264.262 170.908 265.345 171.823 265.972L173.482 267.169L174.684 269.621L175.885 272.072L176.228 278.058L176.572 283.987L175.656 287.864L174.741 291.683L173.253 294.705C172.395 296.301 170.507 299.323 168.962 301.375L166.216 305.138L162.784 308.387L159.351 311.694L157.349 312.492C156.204 312.948 154.717 313.347 154.03 313.347H152.714L149.739 311.979ZM128.857 305.024L130.574 302.971L132.69 298.638C133.892 296.244 135.837 291.569 137.038 288.32L139.27 282.391V279.711V277.089L138.354 274.409L137.439 271.73L135.723 270.305L134.006 268.879H132.347H130.688L128.972 271.217L127.313 273.554L125.539 278.058L123.823 282.505L123.308 286.267L122.736 290.03L123.308 295.275L123.823 300.52L124.738 303.37C126.225 307.931 126.397 307.988 128.857 305.024ZM157.349 302.23L159.694 300.862L163.642 296.643L167.589 292.424L169.134 289.346C169.935 287.636 171.022 285.013 171.537 283.531L172.452 280.794V278.913C172.452 277.887 172.281 276.177 172.109 275.207L171.709 273.383L170.164 271.73L168.562 270.02H166.502H164.443L162.211 271.445L160.037 272.927L157.577 276.177C156.261 277.944 154.488 280.794 153.687 282.448L152.199 285.412H151.685H151.227L151.513 284.443C151.627 283.873 151.971 282.505 152.142 281.422C152.657 278.97 155.461 273.326 156.662 272.357L157.577 271.616V270.533V269.449H156.605H155.575L153.973 271.445C151.627 274.352 148.08 281.25 146.364 286.039L144.819 290.258V295.218L144.762 300.178L145.849 301.432C146.478 302.116 147.794 303.028 148.71 303.427L150.426 304.225L152.714 303.94L155.003 303.598L157.349 302.23Z" fill="#A73A24"/>
<path d="M92.0528 359.712L87.7619 358.401L84.6153 356.747L81.4687 355.037L77.7499 351.332L73.974 347.626L69.912 341.868L65.7928 336.053L62.0168 333.088L58.2408 330.124L55.6091 326.874L52.9774 323.682L51.3183 320.204L49.7163 316.727L48.8582 312.793L48 308.859V305.096V301.391L48.6293 297.97C48.9154 296.146 50.0024 292.155 50.975 289.191L52.6913 283.775L56.3529 276.363L59.9572 268.952L63.962 263.536C66.1932 260.572 69.2254 256.068 70.7129 253.616C76.6629 243.64 84.0432 234.974 92.0528 228.589L96.3437 225.169L100.921 223.002L105.497 220.893L108.93 220.209C110.818 219.867 112.763 219.411 113.221 219.297C114.194 218.954 128.954 218.897 146.976 219.182L159.276 219.411L163.853 221.007C166.37 221.862 169.975 223.401 171.863 224.37L175.295 226.138L179.644 230.47L183.992 234.746L186.681 239.307C188.111 241.815 190.113 245.806 191.086 248.144L192.917 252.419L194.061 257.835L195.262 263.251V276.363V289.476L194.061 296.602C193.374 300.536 192.287 305.438 191.601 307.548L190.456 311.311L190.8 312.223L191.143 313.135H190.571H190.056L186.566 320.204L183.076 327.273L179.815 330.751L176.611 334.229L172.664 336.851C170.49 338.276 166.313 340.671 163.453 342.21L158.132 344.946L153.155 346.714L148.12 348.424L144.287 349.108L140.396 349.735L133.531 352.472C124.148 356.234 115.452 359.085 110.475 360.168L106.298 361.023L101.321 360.966H96.3437L92.0528 359.712ZM112.878 356.576C115.109 355.949 119.972 354.296 123.691 352.928L130.556 350.476L128.611 350.077C127.524 349.906 121.803 349.393 115.796 349.051C95.1994 347.797 85.4163 345.916 75.8048 341.298C74.2028 340.557 72.7153 339.93 72.4293 339.93H71.9716L75.5187 344.49L79.0658 349.108L81.9264 351.332L84.7297 353.555L87.8192 355.037C89.4783 355.835 92.2244 356.861 93.8836 357.318L96.9158 358.173L102.923 357.945L108.93 357.66L112.878 356.576ZM147.09 342.78C151.267 340.614 159.562 336.338 165.512 333.316L176.268 327.786L179.243 324.879L182.218 321.971L184.163 317.411L186.051 312.85L186.337 310.17L186.623 307.434L187.024 307.719L187.424 307.947L188.054 305.838C189.083 302.417 190.399 293.409 190.8 287.252L191.143 281.494L190.17 275.793L189.255 270.092L186.394 261.598L183.534 253.16L181.646 249.341L179.701 245.578L176.554 241.587L173.465 237.597L170.204 235.031C163.567 229.729 158.647 227.278 148.807 224.427L144.001 223.059H141.884C140.74 223.059 137.822 223.344 135.419 223.743L130.957 224.37V224.769C130.957 224.998 132.902 225.739 135.305 226.48L139.71 227.848L142.685 229.729L145.717 231.611L146.404 233.378L147.147 235.088L146.518 237.198L145.889 239.25L146.575 239.706L147.262 240.162H146.289H145.317L144.973 241.245C144.802 241.815 144.172 242.728 143.543 243.298L142.399 244.324L142.056 243.982L141.655 243.583L142.456 242.671C143.543 241.359 144.687 237.939 144.687 235.829V234.062L143.715 233.207C142.056 231.782 138.451 230.128 133.359 228.532L128.611 227.05H125.235C123.405 227.05 121.517 227.221 121.002 227.392L120.086 227.734L120.372 228.19L120.659 228.646L119.629 228.361L118.599 228.133L112.363 231.269L106.07 234.347L99.8336 238.509L93.5975 242.671L89.8216 246.49L86.0456 250.253L84.0432 253.503C82.9562 255.213 81.8692 256.695 81.6403 256.695C80.6677 256.695 81.2971 254.985 83.9288 250.823L86.6177 246.49L89.4211 243.583C93.1398 239.706 96.1148 237.312 101.836 233.606C104.468 231.896 106.413 230.47 106.184 230.47C105.269 230.47 97.259 234.746 93.4831 237.312C91.3091 238.794 87.8764 241.359 85.9312 242.956L82.3269 245.92L77.235 251.849L72.1432 257.721L69.6831 261.883C66.7654 266.9 62.6461 276.363 59.8428 284.63L57.8404 290.616L57.1538 295.291L56.4673 299.909L57.0966 304.811C57.4971 307.491 58.2981 311.653 58.9274 314.104L60.0144 318.551L61.788 322.256C62.7033 324.309 64.5341 327.786 65.85 330.01L68.1384 334.115L73.1158 336.68L78.0932 339.302L84.1004 341.298L90.1076 343.293L95.8288 344.205C98.9182 344.661 106.127 345.402 111.791 345.859L122.089 346.657L130.785 346.714L139.538 346.771L147.09 342.78Z" fill="#A73A24"/>
<path d="M231.218 648.506C231.164 647.372 230.264 646.472 229.148 646.418H216.422V659H217.898V654.212H229.13C230.264 654.158 231.164 653.258 231.218 652.124V648.506ZM229.544 652.52C229.418 652.646 229.238 652.718 229.058 652.736L217.898 652.718V647.894H229.076C229.238 647.912 229.418 647.984 229.544 648.11C229.67 648.236 229.742 648.398 229.742 648.578V652.052C229.742 652.232 229.67 652.394 229.544 652.52ZM234.984 659V646.418H233.508V659H234.984ZM251.17 646.418V657.524H250.684L240.46 646.418H237.85V659H239.326V647.894H239.74L250.036 659H252.646V646.418H251.17ZM260.394 653.492L268.458 653.474C268.638 653.492 268.8 653.564 268.926 653.69C269.052 653.816 269.124 653.978 269.142 654.158L269.124 655.868C269.124 656.228 269.106 656.588 269.088 656.966C269.07 657.128 268.998 657.308 268.872 657.434C268.746 657.56 268.584 657.632 268.404 657.632C266.622 657.722 264.822 657.758 263.04 657.758C261.258 657.758 259.44 657.722 257.658 657.632C257.496 657.632 257.316 657.56 257.19 657.434C257.064 657.308 256.992 657.128 256.992 656.966C256.848 654.14 256.848 651.278 256.992 648.47C256.992 648.29 257.064 648.128 257.19 648.002C257.316 647.876 257.496 647.804 257.658 647.786C259.44 647.714 261.258 647.66 263.04 647.66C264.822 647.66 266.622 647.714 268.404 647.786C268.584 647.804 268.746 647.876 268.872 648.002C268.998 648.128 269.07 648.29 269.088 648.47C269.106 648.83 269.124 649.19 269.124 649.568H270.618C270.6 649.172 270.582 648.776 270.564 648.398C270.51 647.264 269.61 646.364 268.476 646.31C266.658 646.22 264.84 646.184 263.04 646.184C261.222 646.184 259.404 646.22 257.604 646.31C256.47 646.364 255.57 647.264 255.516 648.398C255.354 651.278 255.354 654.158 255.516 657.038C255.57 658.154 256.47 659.072 257.604 659.108C259.404 659.198 261.222 659.234 263.04 659.234C264.84 659.234 266.658 659.198 268.476 659.108C269.61 659.072 270.51 658.154 270.564 657.038C270.582 656.642 270.6 656.246 270.618 655.868V654.086C270.564 652.952 269.646 652.052 268.53 651.998H260.394V653.492ZM273.541 659.018H286.267C287.383 658.964 288.301 658.064 288.355 656.93V648.506C288.301 647.372 287.383 646.472 286.267 646.418H272.623V647.894H273.541V659.018ZM286.879 656.858C286.861 657.038 286.789 657.2 286.663 657.326C286.537 657.452 286.375 657.524 286.195 657.524H275.017V647.894H286.195C286.375 647.912 286.537 647.984 286.663 648.11C286.789 648.236 286.861 648.398 286.879 648.578V656.858ZM298.671 647.66C300.453 647.66 302.253 647.714 304.035 647.786C304.215 647.804 304.377 647.876 304.503 648.002C304.629 648.128 304.701 648.29 304.719 648.47C304.863 651.278 304.863 654.14 304.719 656.966C304.701 657.128 304.629 657.308 304.503 657.434C304.377 657.56 304.215 657.632 304.035 657.632C302.253 657.722 300.453 657.758 298.671 657.758C296.889 657.758 295.071 657.722 293.289 657.632C293.127 657.632 292.947 657.56 292.821 657.434C292.695 657.308 292.623 657.128 292.623 656.966C292.479 654.14 292.479 651.278 292.623 648.47C292.623 648.29 292.695 648.128 292.821 648.002C292.947 647.876 293.127 647.804 293.289 647.786C295.071 647.714 296.889 647.66 298.671 647.66ZM293.235 646.31C292.101 646.364 291.201 647.264 291.147 648.398C290.985 651.278 290.985 654.158 291.147 657.038C291.201 658.154 292.101 659.072 293.235 659.108C295.035 659.198 296.853 659.234 298.671 659.234C300.471 659.234 302.289 659.198 304.107 659.108C305.241 659.072 306.141 658.154 306.195 657.038C306.339 654.158 306.339 651.278 306.195 648.398C306.141 647.264 305.241 646.364 304.107 646.31C302.289 646.22 300.471 646.184 298.671 646.184C296.853 646.184 295.035 646.22 293.235 646.31ZM323.081 646.418L317.375 657.218L311.669 646.418H309.059V659H310.535V647.894H310.787L316.655 659H318.113L323.981 647.894H324.233V659H325.709V646.418H323.081Z" fill="#A73A24"/>
<ellipse cx="194.51" cy="639.5" rx="14.5101" ry="14.5" fill="#A73A24"/>
<path d="M330.008 585.492L338.072 585.474C338.252 585.492 338.414 585.564 338.54 585.69C338.666 585.816 338.738 585.978 338.756 586.158L338.738 587.868C338.738 588.228 338.72 588.588 338.702 588.966C338.684 589.128 338.612 589.308 338.486 589.434C338.36 589.56 338.198 589.632 338.018 589.632C336.236 589.722 334.436 589.758 332.654 589.758C330.872 589.758 329.054 589.722 327.272 589.632C327.11 589.632 326.93 589.56 326.804 589.434C326.678 589.308 326.606 589.128 326.606 588.966C326.462 586.14 326.462 583.278 326.606 580.47C326.606 580.29 326.678 580.128 326.804 580.002C326.93 579.876 327.11 579.804 327.272 579.786C329.054 579.714 330.872 579.66 332.654 579.66C334.436 579.66 336.236 579.714 338.018 579.786C338.198 579.804 338.36 579.876 338.486 580.002C338.612 580.128 338.684 580.29 338.702 580.47C338.72 580.83 338.738 581.19 338.738 581.568H340.232C340.214 581.172 340.196 580.776 340.178 580.398C340.124 579.264 339.224 578.364 338.09 578.31C336.272 578.22 334.454 578.184 332.654 578.184C330.836 578.184 329.018 578.22 327.218 578.31C326.084 578.364 325.184 579.264 325.13 580.398C324.968 583.278 324.968 586.158 325.13 589.038C325.184 590.154 326.084 591.072 327.218 591.108C329.018 591.198 330.836 591.234 332.654 591.234C334.454 591.234 336.272 591.198 338.09 591.108C339.224 591.072 340.124 590.154 340.178 589.038C340.196 588.642 340.214 588.246 340.232 587.868V586.086C340.178 584.952 339.26 584.052 338.144 583.998H330.008V585.492ZM350.355 579.66C352.137 579.66 353.937 579.714 355.719 579.786C355.899 579.804 356.061 579.876 356.187 580.002C356.313 580.128 356.385 580.29 356.403 580.47C356.547 583.278 356.547 586.14 356.403 588.966C356.385 589.128 356.313 589.308 356.187 589.434C356.061 589.56 355.899 589.632 355.719 589.632C353.937 589.722 352.137 589.758 350.355 589.758C348.573 589.758 346.755 589.722 344.973 589.632C344.811 589.632 344.631 589.56 344.505 589.434C344.379 589.308 344.307 589.128 344.307 588.966C344.163 586.14 344.163 583.278 344.307 580.47C344.307 580.29 344.379 580.128 344.505 580.002C344.631 579.876 344.811 579.804 344.973 579.786C346.755 579.714 348.573 579.66 350.355 579.66ZM344.919 578.31C343.785 578.364 342.885 579.264 342.831 580.398C342.669 583.278 342.669 586.158 342.831 589.038C342.885 590.154 343.785 591.072 344.919 591.108C346.719 591.198 348.537 591.234 350.355 591.234C352.155 591.234 353.973 591.198 355.791 591.108C356.925 591.072 357.825 590.154 357.879 589.038C358.023 586.158 358.023 583.278 357.879 580.398C357.825 579.264 356.925 578.364 355.791 578.31C353.973 578.22 352.155 578.184 350.355 578.184C348.537 578.184 346.719 578.22 344.919 578.31ZM368.267 579.66C370.049 579.66 371.849 579.714 373.631 579.786C373.811 579.804 373.973 579.876 374.099 580.002C374.225 580.128 374.297 580.29 374.315 580.47C374.459 583.278 374.459 586.14 374.315 588.966C374.297 589.128 374.225 589.308 374.099 589.434C373.973 589.56 373.811 589.632 373.631 589.632C371.849 589.722 370.049 589.758 368.267 589.758C366.485 589.758 364.667 589.722 362.885 589.632C362.723 589.632 362.543 589.56 362.417 589.434C362.291 589.308 362.219 589.128 362.219 588.966C362.075 586.14 362.075 583.278 362.219 580.47C362.219 580.29 362.291 580.128 362.417 580.002C362.543 579.876 362.723 579.804 362.885 579.786C364.667 579.714 366.485 579.66 368.267 579.66ZM362.831 578.31C361.697 578.364 360.797 579.264 360.743 580.398C360.581 583.278 360.581 586.158 360.743 589.038C360.797 590.154 361.697 591.072 362.831 591.108C364.631 591.198 366.449 591.234 368.267 591.234C370.067 591.234 371.885 591.198 373.703 591.108C374.837 591.072 375.737 590.154 375.791 589.038C375.935 586.158 375.935 583.278 375.791 580.398C375.737 579.264 374.837 578.364 373.703 578.31C371.885 578.22 370.067 578.184 368.267 578.184C366.449 578.184 364.631 578.22 362.831 578.31ZM383.534 585.492L391.598 585.474C391.778 585.492 391.94 585.564 392.066 585.69C392.192 585.816 392.264 585.978 392.282 586.158L392.264 587.868C392.264 588.228 392.246 588.588 392.228 588.966C392.21 589.128 392.138 589.308 392.012 589.434C391.886 589.56 391.724 589.632 391.544 589.632C389.762 589.722 387.962 589.758 386.18 589.758C384.398 589.758 382.58 589.722 380.798 589.632C380.636 589.632 380.456 589.56 380.33 589.434C380.204 589.308 380.132 589.128 380.132 588.966C379.988 586.14 379.988 583.278 380.132 580.47C380.132 580.29 380.204 580.128 380.33 580.002C380.456 579.876 380.636 579.804 380.798 579.786C382.58 579.714 384.398 579.66 386.18 579.66C387.962 579.66 389.762 579.714 391.544 579.786C391.724 579.804 391.886 579.876 392.012 580.002C392.138 580.128 392.21 580.29 392.228 580.47C392.246 580.83 392.264 581.19 392.264 581.568H393.758C393.74 581.172 393.722 580.776 393.704 580.398C393.65 579.264 392.75 578.364 391.616 578.31C389.798 578.22 387.98 578.184 386.18 578.184C384.362 578.184 382.544 578.22 380.744 578.31C379.61 578.364 378.71 579.264 378.656 580.398C378.494 583.278 378.494 586.158 378.656 589.038C378.71 590.154 379.61 591.072 380.744 591.108C382.544 591.198 384.362 591.234 386.18 591.234C387.98 591.234 389.798 591.198 391.616 591.108C392.75 591.072 393.65 590.154 393.704 589.038C393.722 588.642 393.74 588.246 393.758 587.868V586.086C393.704 584.952 392.786 584.052 391.67 583.998H383.534V585.492ZM406.707 589.524H397.833V578.418H396.357V591H406.707V589.524ZM420.259 579.894V578.418H408.415V591H420.259V589.524H409.891V585.456H420.259V583.98H409.891V579.894H420.259ZM339.926 597.506C339.872 596.372 338.972 595.472 337.856 595.418H325.13V608H326.606V603.212H337.838C338.972 603.158 339.872 602.258 339.926 601.124V597.506ZM338.252 601.52C338.126 601.646 337.946 601.718 337.766 601.736L326.606 601.718V596.894H337.784C337.946 596.912 338.126 596.984 338.252 597.11C338.378 597.236 338.45 597.398 338.45 597.578V601.052C338.45 601.232 338.378 601.394 338.252 601.52ZM352.869 608H354.489L348.729 595.418H345.453L339.693 608H341.313L342.555 605.3H351.627L352.869 608ZM343.239 603.806L346.407 596.894H347.775L350.943 603.806H343.239ZM360.752 602.492L368.816 602.474C368.996 602.492 369.158 602.564 369.284 602.69C369.41 602.816 369.482 602.978 369.5 603.158L369.482 604.868C369.482 605.228 369.464 605.588 369.446 605.966C369.428 606.128 369.356 606.308 369.23 606.434C369.104 606.56 368.942 606.632 368.762 606.632C366.98 606.722 365.18 606.758 363.398 606.758C361.616 606.758 359.798 606.722 358.016 606.632C357.854 606.632 357.674 606.56 357.548 606.434C357.422 606.308 357.35 606.128 357.35 605.966C357.206 603.14 357.206 600.278 357.35 597.47C357.35 597.29 357.422 597.128 357.548 597.002C357.674 596.876 357.854 596.804 358.016 596.786C359.798 596.714 361.616 596.66 363.398 596.66C365.18 596.66 366.98 596.714 368.762 596.786C368.942 596.804 369.104 596.876 369.23 597.002C369.356 597.128 369.428 597.29 369.446 597.47C369.464 597.83 369.482 598.19 369.482 598.568H370.976C370.958 598.172 370.94 597.776 370.922 597.398C370.868 596.264 369.968 595.364 368.834 595.31C367.016 595.22 365.198 595.184 363.398 595.184C361.58 595.184 359.762 595.22 357.962 595.31C356.828 595.364 355.928 596.264 355.874 597.398C355.712 600.278 355.712 603.158 355.874 606.038C355.928 607.154 356.828 608.072 357.962 608.108C359.762 608.198 361.58 608.234 363.398 608.234C365.198 608.234 367.016 608.198 368.834 608.108C369.968 608.072 370.868 607.154 370.922 606.038C370.94 605.642 370.958 605.246 370.976 604.868V603.086C370.922 601.952 370.004 601.052 368.888 600.998H360.752V602.492ZM385.42 596.894V595.418H373.576V608H385.42V606.524H375.052V602.456H385.42V600.98H375.052V596.894H385.42ZM408.179 602.456C408.341 602.456 408.521 602.528 408.647 602.654C408.773 602.78 408.845 602.96 408.845 603.122V604.868C408.827 605.228 408.809 605.606 408.791 605.966C408.791 606.146 408.719 606.308 408.593 606.434C408.467 606.56 408.305 606.632 408.125 606.632C406.343 606.722 404.705 606.758 402.923 606.758C401.141 606.758 399.503 606.722 397.721 606.632C397.541 606.632 397.379 606.56 397.253 606.434C397.127 606.308 397.055 606.146 397.037 605.966C397.019 605.606 397.019 605.228 397.001 604.868H395.525C395.525 605.264 395.543 605.642 395.561 606.038C395.615 607.172 396.533 608.072 397.649 608.126C399.467 608.198 401.105 608.252 402.923 608.252C404.741 608.252 406.379 608.198 408.197 608.126C409.313 608.072 410.231 607.172 410.285 606.038C410.303 605.642 410.321 605.264 410.321 604.868V603.05C410.267 601.934 409.367 601.016 408.233 600.98H397.685C397.505 600.962 397.325 600.89 397.199 600.764C397.073 600.638 397.001 600.476 397.001 600.296V598.55C397.019 598.19 397.037 597.83 397.055 597.47C397.055 597.29 397.127 597.11 397.253 596.984C397.379 596.858 397.541 596.786 397.721 596.786C399.503 596.696 401.141 596.66 402.923 596.66C404.705 596.66 406.343 596.696 408.125 596.786C408.305 596.786 408.467 596.858 408.593 596.984C408.719 597.11 408.791 597.29 408.809 597.47C408.827 597.83 408.827 598.19 408.845 598.55H410.321C410.321 598.172 410.303 597.776 410.285 597.38C410.231 596.264 409.313 595.364 408.197 595.31C406.379 595.22 404.741 595.184 402.923 595.184C401.105 595.184 399.467 595.22 397.649 595.31C396.533 595.364 395.615 596.264 395.561 597.38C395.543 597.776 395.525 598.172 395.525 598.55V600.368C395.579 601.502 396.479 602.402 397.613 602.456H408.179ZM427.729 597.506C427.675 596.372 426.775 595.472 425.659 595.418H412.933V608H414.409V603.212H425.641C426.775 603.158 427.675 602.258 427.729 601.124V597.506ZM426.055 601.52C425.929 601.646 425.749 601.718 425.569 601.736L414.409 601.718V596.894H425.587C425.749 596.912 425.929 596.984 426.055 597.11C426.181 597.236 426.253 597.398 426.253 597.578V601.052C426.253 601.232 426.181 601.394 426.055 601.52ZM441.863 596.894V595.418H430.019V608H441.863V606.524H431.495V602.456H441.863V600.98H431.495V596.894H441.863ZM456.101 596.894V595.418H444.257V608H456.101V606.524H445.733V602.456H456.101V600.98H445.733V596.894H456.101ZM458.819 608.018H471.545C472.661 607.964 473.579 607.064 473.633 605.93V597.506C473.579 596.372 472.661 595.472 471.545 595.418H457.901V596.894H458.819V608.018ZM472.157 605.858C472.139 606.038 472.067 606.2 471.941 606.326C471.815 606.452 471.653 606.524 471.473 606.524H460.295V596.894H471.473C471.653 596.912 471.815 596.984 471.941 597.11C472.067 597.236 472.139 597.398 472.157 597.578V605.858Z" fill="#A73A24"/>
<circle cx="292" cy="587" r="15" fill="#A73A24"/>
<path d="M120.3 571.492L128.364 571.474C128.544 571.492 128.706 571.564 128.832 571.69C128.958 571.816 129.03 571.978 129.048 572.158L129.03 573.868C129.03 574.228 129.012 574.588 128.994 574.966C128.976 575.128 128.904 575.308 128.778 575.434C128.652 575.56 128.49 575.632 128.31 575.632C126.528 575.722 124.728 575.758 122.946 575.758C121.164 575.758 119.346 575.722 117.564 575.632C117.402 575.632 117.222 575.56 117.096 575.434C116.97 575.308 116.898 575.128 116.898 574.966C116.754 572.14 116.754 569.278 116.898 566.47C116.898 566.29 116.97 566.128 117.096 566.002C117.222 565.876 117.402 565.804 117.564 565.786C119.346 565.714 121.164 565.66 122.946 565.66C124.728 565.66 126.528 565.714 128.31 565.786C128.49 565.804 128.652 565.876 128.778 566.002C128.904 566.128 128.976 566.29 128.994 566.47C129.012 566.83 129.03 567.19 129.03 567.568H130.524C130.506 567.172 130.488 566.776 130.47 566.398C130.416 565.264 129.516 564.364 128.382 564.31C126.564 564.22 124.746 564.184 122.946 564.184C121.128 564.184 119.31 564.22 117.51 564.31C116.376 564.364 115.476 565.264 115.422 566.398C115.26 569.278 115.26 572.158 115.422 575.038C115.476 576.154 116.376 577.072 117.51 577.108C119.31 577.198 121.128 577.234 122.946 577.234C124.746 577.234 126.564 577.198 128.382 577.108C129.516 577.072 130.416 576.154 130.47 575.038C130.488 574.642 130.506 574.246 130.524 573.868V572.086C130.47 570.952 129.552 570.052 128.436 569.998H120.3V571.492ZM143.815 564.418H131.971V565.894H137.137V577H138.631V565.894H143.815V564.418ZM159.555 564.418L153.849 575.218L148.143 564.418H145.533V577H147.009V565.894H147.261L153.129 577H154.587L160.455 565.894H160.707V577H162.183V564.418H159.555ZM176.889 565.894V564.418H165.045V577H176.889V575.524H166.521V571.456H176.889V569.98H166.521V565.894H176.889ZM189.975 564.418H178.131V565.894H183.297V577H184.791V565.894H189.975V564.418ZM191.693 564.418V577H193.169V572.212H196.823L203.861 577H206.489L199.451 572.212H203.483C204.599 572.158 205.517 571.258 205.571 570.124V566.506C205.517 565.372 204.617 564.472 203.483 564.418H191.693ZM203.411 565.894C203.591 565.912 203.753 565.984 203.879 566.11C204.005 566.236 204.077 566.398 204.077 566.578L204.095 570.052C204.077 570.232 204.005 570.394 203.879 570.52C203.753 570.646 203.591 570.718 203.411 570.736L193.169 570.718V565.894H203.411ZM209.904 577V564.418H208.428V577H209.904ZM228.232 564.418H225.982L219.898 569.728L213.832 564.418H211.582L218.782 570.718L211.582 577H213.832L219.898 571.69L225.982 577H228.232L221.032 570.718L228.232 564.418Z" fill="#A73A24"/>
<ellipse cx="92.5101" cy="562.5" rx="14.5101" ry="14.5" fill="#A73A24"/>
<path d="M79.436 387.012C79.328 384.744 77.528 382.944 75.296 382.836H49.844V408H52.796V398.424H75.26C77.528 398.316 79.328 396.516 79.436 394.248V387.012ZM76.088 395.04C75.836 395.292 75.476 395.436 75.116 395.472L52.796 395.436V385.788H75.152C75.476 385.824 75.836 385.968 76.088 386.22C76.34 386.472 76.484 386.796 76.484 387.156V394.104C76.484 394.464 76.34 394.788 76.088 395.04ZM107.704 385.788V382.836H84.0159V408H107.704V405.048H86.9679V396.912H107.704V393.96H86.9679V385.788H107.704ZM112.492 382.836V408H115.444V398.424H122.752L136.828 408H142.084L128.008 398.424H136.072C138.304 398.316 140.14 396.516 140.248 394.248V387.012C140.14 384.744 138.34 382.944 136.072 382.836H112.492ZM135.928 385.788C136.288 385.824 136.612 385.968 136.864 386.22C137.116 386.472 137.26 386.796 137.26 387.156L137.296 394.104C137.26 394.464 137.116 394.788 136.864 395.04C136.612 395.292 136.288 395.436 135.928 395.472L115.444 395.436V385.788H135.928ZM148.562 408V396.912H167.426V393.96H148.562V385.788H169.298V382.836H145.61V408H148.562ZM187.798 385.32C191.362 385.32 194.962 385.428 198.526 385.572C198.886 385.608 199.21 385.752 199.462 386.004C199.714 386.256 199.858 386.58 199.894 386.94C200.182 392.556 200.182 398.28 199.894 403.932C199.858 404.256 199.714 404.616 199.462 404.868C199.21 405.12 198.886 405.264 198.526 405.264C194.962 405.444 191.362 405.516 187.798 405.516C184.234 405.516 180.598 405.444 177.034 405.264C176.71 405.264 176.35 405.12 176.098 404.868C175.846 404.616 175.702 404.256 175.702 403.932C175.414 398.28 175.414 392.556 175.702 386.94C175.702 386.58 175.846 386.256 176.098 386.004C176.35 385.752 176.71 385.608 177.034 385.572C180.598 385.428 184.234 385.32 187.798 385.32ZM176.926 382.62C174.658 382.728 172.858 384.528 172.75 386.796C172.426 392.556 172.426 398.316 172.75 404.076C172.858 406.308 174.658 408.144 176.926 408.216C180.526 408.396 184.162 408.468 187.798 408.468C191.398 408.468 195.034 408.396 198.67 408.216C200.938 408.144 202.738 406.308 202.846 404.076C203.134 398.316 203.134 392.556 202.846 386.796C202.738 384.528 200.938 382.728 198.67 382.62C195.034 382.44 191.398 382.368 187.798 382.368C184.162 382.368 180.526 382.44 176.926 382.62ZM208.399 382.836V408H211.351V398.424H218.659L232.735 408H237.991L223.915 398.424H231.979C234.211 398.316 236.047 396.516 236.155 394.248V387.012C236.047 384.744 234.247 382.944 231.979 382.836H208.399ZM231.835 385.788C232.195 385.824 232.519 385.968 232.771 386.22C233.023 386.472 233.167 386.796 233.167 387.156L233.203 394.104C233.167 394.464 233.023 394.788 232.771 395.04C232.519 395.292 232.195 395.436 231.835 395.472L211.351 395.436V385.788H231.835ZM269.911 382.836L258.499 404.436L247.087 382.836H241.867V408H244.819V385.788H245.323L257.059 408H259.975L271.711 385.788H272.215V408H275.167V382.836H269.911ZM304.903 408H308.143L296.623 382.836H290.071L278.551 408H281.791L284.275 402.6H302.419L304.903 408ZM285.643 399.612L291.979 385.788H294.715L301.051 399.612H285.643ZM338.152 382.836V405.048H337.18L316.732 382.836H311.512V408H314.464V385.788H315.292L335.884 408H341.104V382.836H338.152ZM373.988 403.932C373.952 404.256 373.808 404.616 373.556 404.868C373.304 405.12 372.98 405.264 372.62 405.264C369.056 405.444 365.456 405.516 361.892 405.516C358.328 405.516 354.692 405.444 351.128 405.264C350.804 405.264 350.444 405.12 350.192 404.868C349.94 404.616 349.796 404.256 349.796 403.932C349.508 398.28 349.508 392.556 349.796 386.94C349.796 386.58 349.94 386.256 350.192 386.004C350.444 385.752 350.804 385.608 351.128 385.572C354.692 385.428 358.328 385.32 361.892 385.32C365.456 385.32 369.056 385.428 372.62 385.572C372.98 385.608 373.304 385.752 373.556 386.004C373.808 386.256 373.952 386.58 373.988 386.94C374.024 387.66 374.06 388.38 374.06 389.136H377.048C377.012 388.344 376.976 387.552 376.94 386.796C376.832 384.528 375.032 382.728 372.764 382.62C369.128 382.44 365.492 382.368 361.892 382.368C358.256 382.368 354.62 382.44 351.02 382.62C348.752 382.728 346.952 384.528 346.844 386.796C346.52 392.556 346.52 398.316 346.844 404.076C346.952 406.308 348.752 408.144 351.02 408.216C354.62 408.396 358.256 408.468 361.892 408.468C365.492 408.468 369.128 408.396 372.764 408.216C375.032 408.144 376.832 406.308 376.94 404.076C376.976 403.284 377.012 402.492 377.048 401.736H374.06C374.06 402.456 374.024 403.176 373.988 403.932ZM405.302 385.788V382.836H381.614V408H405.302V405.048H384.566V396.912H405.302V393.96H384.566V385.788H405.302ZM64.892 420.32C68.456 420.32 72.056 420.428 75.62 420.572C75.98 420.608 76.304 420.752 76.556 421.004C76.808 421.256 76.952 421.58 76.988 421.94C77.276 427.556 77.276 433.28 76.988 438.932C76.952 439.256 76.808 439.616 76.556 439.868C76.304 440.12 75.98 440.264 75.62 440.264C72.056 440.444 68.456 440.516 64.892 440.516C61.328 440.516 57.692 440.444 54.128 440.264C53.804 440.264 53.444 440.12 53.192 439.868C52.94 439.616 52.796 439.256 52.796 438.932C52.508 433.28 52.508 427.556 52.796 421.94C52.796 421.58 52.94 421.256 53.192 421.004C53.444 420.752 53.804 420.608 54.128 420.572C57.692 420.428 61.328 420.32 64.892 420.32ZM54.02 417.62C51.752 417.728 49.952 419.528 49.844 421.796C49.52 427.556 49.52 433.316 49.844 439.076C49.952 441.308 51.752 443.144 54.02 443.216C57.62 443.396 61.256 443.468 64.892 443.468C68.492 443.468 72.128 443.396 75.764 443.216C78.032 443.144 79.832 441.308 79.94 439.076C80.228 433.316 80.228 427.556 79.94 421.796C79.832 419.528 78.032 417.728 75.764 417.62C72.128 417.44 68.492 417.368 64.892 417.368C61.256 417.368 57.62 417.44 54.02 417.62ZM112.308 417.836V440.048H111.336L90.8882 417.836H85.6682V443H88.6202V420.788H89.4482L110.04 443H115.26V417.836H112.308ZM160.614 420.788V417.836H136.926V443H160.614V440.048H139.878V431.912H160.614V428.96H139.878V420.788H160.614ZM176.491 440.048L166.303 417.836H163.063L174.583 443H178.399L189.955 417.836H186.679L176.491 440.048ZM217.04 420.788V417.836H193.352V443H217.04V440.048H196.304V431.912H217.04V428.96H196.304V420.788H217.04ZM221.828 417.836V443H224.78V433.424H232.088L246.164 443H251.42L237.344 433.424H245.408C247.64 433.316 249.476 431.516 249.584 429.248V422.012C249.476 419.744 247.676 417.944 245.408 417.836H221.828ZM245.264 420.788C245.624 420.824 245.948 420.968 246.2 421.22C246.452 421.472 246.596 421.796 246.596 422.156L246.632 429.104C246.596 429.464 246.452 429.788 246.2 430.04C245.948 430.292 245.624 430.436 245.264 430.472L224.78 430.436V420.788H245.264ZM281.189 428.924H258.869C258.509 428.924 258.185 428.78 257.933 428.528C257.681 428.276 257.537 427.952 257.501 427.592V417.836H254.549V427.736C254.657 430.004 256.457 431.804 258.725 431.912H281.189C281.153 434 281.081 436.88 281.009 438.464C280.973 438.824 280.829 439.148 280.577 439.4C280.325 439.652 280.001 439.796 279.641 439.796C276.077 439.976 272.477 440.048 268.913 440.048C265.349 440.048 262.469 439.976 258.905 439.796C258.545 439.796 258.221 439.652 257.969 439.4C257.717 439.148 257.573 438.824 257.537 438.464C257.501 437.708 257.501 436.988 257.465 436.268H254.513C254.513 437.06 254.549 437.816 254.585 438.608C254.693 440.876 256.529 442.676 258.761 442.784C262.397 442.928 265.277 443 268.913 443C272.513 443 276.149 442.928 279.785 442.784C282.017 442.676 283.853 440.876 283.961 438.608C284.069 436.664 284.141 433.676 284.177 431.66V417.836H281.189V428.924ZM79.436 457.012C79.328 454.744 77.528 452.944 75.296 452.836H49.844V478H52.796V468.424H75.26C77.528 468.316 79.328 466.516 79.436 464.248V457.012ZM76.088 465.04C75.836 465.292 75.476 465.436 75.116 465.472L52.796 465.436V455.788H75.152C75.476 455.824 75.836 455.968 76.088 456.22C76.34 456.472 76.484 456.796 76.484 457.156V464.104C76.484 464.464 76.34 464.788 76.088 465.04ZM104.716 475.048H86.9679V452.836H84.0159V478H104.716V475.048ZM132.145 478H135.385L123.865 452.836H117.313L105.793 478H109.033L111.517 472.6H129.661L132.145 478ZM112.885 469.612L119.221 455.788H121.957L128.293 469.612H112.885ZM156.166 452.836H132.478V455.788H142.81V478H145.798V455.788H156.166V452.836ZM162.554 478V466.912H181.418V463.96H162.554V455.788H183.29V452.836H159.602V478H162.554ZM201.79 455.32C205.354 455.32 208.954 455.428 212.518 455.572C212.878 455.608 213.202 455.752 213.454 456.004C213.706 456.256 213.85 456.58 213.886 456.94C214.174 462.556 214.174 468.28 213.886 473.932C213.85 474.256 213.706 474.616 213.454 474.868C213.202 475.12 212.878 475.264 212.518 475.264C208.954 475.444 205.354 475.516 201.79 475.516C198.226 475.516 194.59 475.444 191.026 475.264C190.702 475.264 190.342 475.12 190.09 474.868C189.838 474.616 189.694 474.256 189.694 473.932C189.406 468.28 189.406 462.556 189.694 456.94C189.694 456.58 189.838 456.256 190.09 456.004C190.342 455.752 190.702 455.608 191.026 455.572C194.59 455.428 198.226 455.32 201.79 455.32ZM190.918 452.62C188.65 452.728 186.85 454.528 186.742 456.796C186.418 462.556 186.418 468.316 186.742 474.076C186.85 476.308 188.65 478.144 190.918 478.216C194.518 478.396 198.154 478.468 201.79 478.468C205.39 478.468 209.026 478.396 212.662 478.216C214.93 478.144 216.73 476.308 216.838 474.076C217.126 468.316 217.126 462.556 216.838 456.796C216.73 454.528 214.93 452.728 212.662 452.62C209.026 452.44 205.39 452.368 201.79 452.368C198.154 452.368 194.518 452.44 190.918 452.62ZM222.391 452.836V478H225.343V468.424H232.651L246.727 478H251.983L237.907 468.424H245.971C248.203 468.316 250.039 466.516 250.147 464.248V457.012C250.039 454.744 248.239 452.944 245.971 452.836H222.391ZM245.827 455.788C246.187 455.824 246.511 455.968 246.763 456.22C247.015 456.472 247.159 456.796 247.159 457.156L247.195 464.104C247.159 464.464 247.015 464.788 246.763 465.04C246.511 465.292 246.187 465.436 245.827 465.472L225.343 465.436V455.788H245.827ZM283.904 452.836L272.492 474.436L261.08 452.836H255.86V478H258.812V455.788H259.316L271.052 478H273.968L285.704 455.788H286.208V478H289.16V452.836H283.904Z" fill="#A73A24"/>
<path d="M394.886 528.418L389.792 539.524L384.698 528.418H383.888H383.06L377.966 539.524L372.872 528.418H371.252L377.012 541H378.92L383.888 530.2L388.838 541H390.746L396.524 528.418H394.886ZM410.053 529.894V528.418H398.209V541H410.053V539.524H399.685V535.456H410.053V533.98H399.685V529.894H410.053ZM426.091 533.476C426.235 533.206 426.307 532.918 426.325 532.612V530.506C426.271 529.372 425.371 528.472 424.237 528.418H412.447V541H425.173C426.289 540.946 427.189 540.046 427.243 538.912V535.294C427.207 534.502 426.757 533.818 426.091 533.476ZM424.165 529.894C424.345 529.912 424.507 529.984 424.633 530.11C424.759 530.236 424.831 530.398 424.849 530.578V532.54C424.831 532.72 424.759 532.882 424.633 533.008C424.507 533.134 424.345 533.206 424.165 533.206H413.923V529.894H424.165ZM425.767 538.858C425.767 539.02 425.695 539.2 425.569 539.326C425.443 539.452 425.263 539.524 425.101 539.524H413.923V534.718L425.083 534.7C425.263 534.7 425.443 534.772 425.569 534.898C425.695 535.024 425.767 535.186 425.767 535.366V538.858ZM444.523 530.506C444.469 529.372 443.569 528.472 442.453 528.418H429.727V541H431.203V536.212H442.435C443.569 536.158 444.469 535.258 444.523 534.124V530.506ZM442.849 534.52C442.723 534.646 442.543 534.718 442.363 534.736L431.203 534.718V529.894H442.381C442.543 529.912 442.723 529.984 442.849 530.11C442.975 530.236 443.047 530.398 443.047 530.578V534.052C443.047 534.232 442.975 534.394 442.849 534.52ZM457.465 541H459.085L453.325 528.418H450.049L444.289 541H445.909L447.151 538.3H456.223L457.465 541ZM447.835 536.806L451.003 529.894H452.371L455.539 536.806H447.835ZM465.349 535.492L473.413 535.474C473.593 535.492 473.755 535.564 473.881 535.69C474.007 535.816 474.079 535.978 474.097 536.158L474.079 537.868C474.079 538.228 474.061 538.588 474.043 538.966C474.025 539.128 473.953 539.308 473.827 539.434C473.701 539.56 473.539 539.632 473.359 539.632C471.577 539.722 469.777 539.758 467.995 539.758C466.213 539.758 464.395 539.722 462.613 539.632C462.451 539.632 462.271 539.56 462.145 539.434C462.019 539.308 461.947 539.128 461.947 538.966C461.803 536.14 461.803 533.278 461.947 530.47C461.947 530.29 462.019 530.128 462.145 530.002C462.271 529.876 462.451 529.804 462.613 529.786C464.395 529.714 466.213 529.66 467.995 529.66C469.777 529.66 471.577 529.714 473.359 529.786C473.539 529.804 473.701 529.876 473.827 530.002C473.953 530.128 474.025 530.29 474.043 530.47C474.061 530.83 474.079 531.19 474.079 531.568H475.573C475.555 531.172 475.537 530.776 475.519 530.398C475.465 529.264 474.565 528.364 473.431 528.31C471.613 528.22 469.795 528.184 467.995 528.184C466.177 528.184 464.359 528.22 462.559 528.31C461.425 528.364 460.525 529.264 460.471 530.398C460.309 533.278 460.309 536.158 460.471 539.038C460.525 540.154 461.425 541.072 462.559 541.108C464.359 541.198 466.177 541.234 467.995 541.234C469.795 541.234 471.613 541.198 473.431 541.108C474.565 541.072 475.465 540.154 475.519 539.038C475.537 538.642 475.555 538.246 475.573 537.868V536.086C475.519 534.952 474.601 534.052 473.485 533.998H465.349V535.492ZM490.016 529.894V528.418H478.172V541H490.016V539.524H479.648V535.456H490.016V533.98H479.648V529.894H490.016ZM503.102 528.418H491.258V529.894H496.424V541H497.918V529.894H503.102V528.418ZM516.664 529.894V528.418H504.82V541H516.664V539.524H506.296V535.456H516.664V533.98H506.296V529.894H516.664ZM531.461 535.456C531.623 535.456 531.803 535.528 531.929 535.654C532.055 535.78 532.127 535.96 532.127 536.122V537.868C532.109 538.228 532.091 538.606 532.073 538.966C532.073 539.146 532.001 539.308 531.875 539.434C531.749 539.56 531.587 539.632 531.407 539.632C529.625 539.722 527.987 539.758 526.205 539.758C524.423 539.758 522.785 539.722 521.003 539.632C520.823 539.632 520.661 539.56 520.535 539.434C520.409 539.308 520.337 539.146 520.319 538.966C520.301 538.606 520.301 538.228 520.283 537.868H518.807C518.807 538.264 518.825 538.642 518.843 539.038C518.897 540.172 519.815 541.072 520.931 541.126C522.749 541.198 524.387 541.252 526.205 541.252C528.023 541.252 529.661 541.198 531.479 541.126C532.595 541.072 533.513 540.172 533.567 539.038C533.585 538.642 533.603 538.264 533.603 537.868V536.05C533.549 534.934 532.649 534.016 531.515 533.98H520.967C520.787 533.962 520.607 533.89 520.481 533.764C520.355 533.638 520.283 533.476 520.283 533.296V531.55C520.301 531.19 520.319 530.83 520.337 530.47C520.337 530.29 520.409 530.11 520.535 529.984C520.661 529.858 520.823 529.786 521.003 529.786C522.785 529.696 524.423 529.66 526.205 529.66C527.987 529.66 529.625 529.696 531.407 529.786C531.587 529.786 531.749 529.858 531.875 529.984C532.001 530.11 532.073 530.29 532.091 530.47C532.109 530.83 532.109 531.19 532.127 531.55H533.603C533.603 531.172 533.585 530.776 533.567 530.38C533.513 529.264 532.595 528.364 531.479 528.31C529.661 528.22 528.023 528.184 526.205 528.184C524.387 528.184 522.749 528.22 520.931 528.31C519.815 528.364 518.897 529.264 518.843 530.38C518.825 530.776 518.807 531.172 518.807 531.55V533.368C518.861 534.502 519.761 535.402 520.895 535.456H531.461ZM546.907 528.418H535.063V529.894H540.229V541H541.723V529.894H546.907V528.418Z" fill="#A73A24"/>
<circle cx="346.5" cy="525.5" r="17.5" fill="#A73A24"/>
<path d="M348.922 527.629L347 522.086C346.945 521.922 346.875 521.641 346.789 521.242C346.703 520.844 346.613 520.355 346.52 519.777C346.418 520.332 346.32 520.832 346.227 521.277C346.133 521.715 346.062 522.008 346.016 522.156L344.164 527.629H348.922ZM338 534.156L344.527 517H348.723L355.344 534.156H351.172L349.777 530.512H343.133L341.938 534.156H338Z" fill="white"/>
<path d="M425.208 687.679C425.184 687.896 425.088 688.137 424.919 688.306C424.75 688.475 424.533 688.572 424.291 688.572C421.902 688.692 419.489 688.74 417.101 688.74C414.712 688.74 412.275 688.692 409.886 688.572C409.669 688.572 409.427 688.475 409.258 688.306C409.089 688.137 408.993 687.896 408.993 687.679C408.8 683.89 408.8 680.054 408.993 676.29C408.993 676.048 409.089 675.831 409.258 675.662C409.427 675.493 409.669 675.397 409.886 675.373C412.275 675.276 414.712 675.204 417.101 675.204C419.489 675.204 421.902 675.276 424.291 675.373C424.533 675.397 424.75 675.493 424.919 675.662C425.088 675.831 425.184 676.048 425.208 676.29C425.232 676.772 425.256 677.255 425.256 677.761H427.259C427.235 677.231 427.211 676.7 427.187 676.193C427.114 674.673 425.908 673.466 424.388 673.394C421.951 673.273 419.514 673.225 417.101 673.225C414.663 673.225 412.226 673.273 409.813 673.394C408.293 673.466 407.087 674.673 407.014 676.193C406.797 680.054 406.797 683.914 407.014 687.775C407.087 689.271 408.293 690.502 409.813 690.55C412.226 690.671 414.663 690.719 417.101 690.719C419.514 690.719 421.951 690.671 424.388 690.55C425.908 690.502 427.114 689.271 427.187 687.775C427.211 687.244 427.235 686.714 427.259 686.207H425.256C425.256 686.689 425.232 687.172 425.208 687.679ZM446.414 690.405H448.586L440.864 673.539H436.472L428.751 690.405H430.923L432.588 686.786H444.749L446.414 690.405ZM433.504 684.783L437.751 675.517H439.585L443.832 684.783H433.504ZM467.257 682.973C467.474 682.973 467.716 683.07 467.884 683.239C468.053 683.408 468.15 683.649 468.15 683.866V686.207C468.126 686.689 468.102 687.196 468.077 687.679C468.077 687.92 467.981 688.137 467.812 688.306C467.643 688.475 467.426 688.572 467.185 688.572C464.796 688.692 462.6 688.74 460.211 688.74C457.822 688.74 455.627 688.692 453.238 688.572C452.996 688.572 452.779 688.475 452.61 688.306C452.441 688.137 452.345 687.92 452.321 687.679C452.297 687.196 452.297 686.689 452.272 686.207H450.294C450.294 686.738 450.318 687.244 450.342 687.775C450.414 689.295 451.645 690.502 453.141 690.574C455.578 690.671 457.774 690.743 460.211 690.743C462.648 690.743 464.844 690.671 467.281 690.574C468.777 690.502 470.008 689.295 470.08 687.775C470.104 687.244 470.128 686.738 470.128 686.207V683.77C470.056 682.274 468.85 681.043 467.329 680.995H453.189C452.948 680.971 452.707 680.874 452.538 680.705C452.369 680.536 452.272 680.319 452.272 680.078V677.737C452.297 677.255 452.321 676.772 452.345 676.29C452.345 676.048 452.441 675.807 452.61 675.638C452.779 675.469 452.996 675.373 453.238 675.373C455.627 675.252 457.822 675.204 460.211 675.204C462.6 675.204 464.796 675.252 467.185 675.373C467.426 675.373 467.643 675.469 467.812 675.638C467.981 675.807 468.077 676.048 468.102 676.29C468.126 676.772 468.126 677.255 468.15 677.737H470.128C470.128 677.231 470.104 676.7 470.08 676.169C470.008 674.673 468.777 673.466 467.281 673.394C464.844 673.273 462.648 673.225 460.211 673.225C457.774 673.225 455.578 673.273 453.141 673.394C451.645 673.466 450.414 674.673 450.342 676.169C450.318 676.7 450.294 677.231 450.294 677.737V680.174C450.366 681.695 451.573 682.901 453.093 682.973H467.257ZM489.508 675.517V673.539H473.63V690.405H489.508V688.427H475.609V682.973H489.508V680.995H475.609V675.517H489.508ZM520.017 682.973C520.234 682.973 520.476 683.07 520.645 683.239C520.814 683.408 520.91 683.649 520.91 683.866V686.207C520.886 686.689 520.862 687.196 520.838 687.679C520.838 687.92 520.741 688.137 520.572 688.306C520.403 688.475 520.186 688.572 519.945 688.572C517.556 688.692 515.36 688.74 512.971 688.74C510.583 688.74 508.387 688.692 505.998 688.572C505.757 688.572 505.539 688.475 505.371 688.306C505.202 688.137 505.105 687.92 505.081 687.679C505.057 687.196 505.057 686.689 505.033 686.207H503.054C503.054 686.738 503.078 687.244 503.102 687.775C503.175 689.295 504.405 690.502 505.901 690.574C508.338 690.671 510.534 690.743 512.971 690.743C515.408 690.743 517.604 690.671 520.041 690.574C521.537 690.502 522.768 689.295 522.84 687.775C522.865 687.244 522.889 686.738 522.889 686.207V683.77C522.816 682.274 521.61 681.043 520.09 680.995H505.95C505.708 680.971 505.467 680.874 505.298 680.705C505.129 680.536 505.033 680.319 505.033 680.078V677.737C505.057 677.255 505.081 676.772 505.105 676.29C505.105 676.048 505.202 675.807 505.371 675.638C505.539 675.469 505.757 675.373 505.998 675.373C508.387 675.252 510.583 675.204 512.971 675.204C515.36 675.204 517.556 675.252 519.945 675.373C520.186 675.373 520.403 675.469 520.572 675.638C520.741 675.807 520.838 676.048 520.862 676.29C520.886 676.772 520.886 677.255 520.91 677.737H522.889C522.889 677.231 522.865 676.7 522.84 676.169C522.768 674.673 521.537 673.466 520.041 673.394C517.604 673.273 515.408 673.225 512.971 673.225C510.534 673.225 508.338 673.273 505.901 673.394C504.405 673.466 503.175 674.673 503.102 676.169C503.078 676.7 503.054 677.231 503.054 677.737V680.174C503.126 681.695 504.333 682.901 505.853 682.973H520.017ZM540.724 673.539H524.846V675.517H531.771V690.405H533.774V675.517H540.724V673.539ZM542.979 687.606C543.051 689.127 544.257 690.333 545.778 690.405C548.191 690.526 550.628 690.574 553.065 690.574C555.478 690.574 557.915 690.526 560.352 690.405C561.872 690.333 563.079 689.127 563.151 687.606V673.37H561.172V687.51C561.148 687.751 561.052 687.968 560.883 688.137C560.714 688.306 560.497 688.403 560.255 688.427C557.867 688.523 555.454 688.596 553.065 688.596C550.676 688.596 548.239 688.523 545.85 688.427C545.633 688.403 545.392 688.306 545.223 688.137C545.054 687.968 544.957 687.751 544.957 687.51V673.37H542.979V687.606ZM567.379 690.43H584.439C585.935 690.357 587.165 689.151 587.238 687.63V676.338C587.165 674.818 585.935 673.611 584.439 673.539H566.148V675.517H567.379V690.43ZM585.259 687.534C585.235 687.775 585.138 687.992 584.969 688.161C584.801 688.33 584.583 688.427 584.342 688.427H569.357V675.517H584.342C584.583 675.541 584.801 675.638 584.969 675.807C585.138 675.976 585.235 676.193 585.259 676.434V687.534ZM608.546 680.971H593.586C593.345 680.971 593.128 680.874 592.959 680.705C592.79 680.536 592.693 680.319 592.669 680.078V673.539H590.69V680.174C590.763 681.695 591.969 682.901 593.489 682.973H608.546C608.522 684.373 608.474 686.303 608.426 687.365C608.402 687.606 608.305 687.824 608.136 687.992C607.967 688.161 607.75 688.258 607.509 688.258C605.12 688.378 602.707 688.427 600.318 688.427C597.929 688.427 595.999 688.378 593.61 688.258C593.369 688.258 593.152 688.161 592.983 687.992C592.814 687.824 592.717 687.606 592.693 687.365C592.669 686.858 592.669 686.376 592.645 685.893H590.666C590.666 686.424 590.69 686.931 590.715 687.462C590.787 688.982 592.018 690.188 593.514 690.261C595.951 690.357 597.881 690.405 600.318 690.405C602.731 690.405 605.168 690.357 607.605 690.261C609.101 690.188 610.332 688.982 610.404 687.462C610.477 686.159 610.525 684.156 610.549 682.805V673.539H608.546V680.971Z" fill="white"/>
</svg>
