<svg xmlns="http://www.w3.org/2000/svg" fill="none" viewBox="0 0 638 765"><path fill="#D9E0E2" d="M478.4 763c-1.5-1.1-2.5-2.8-2.5-3.6V758l-4-1.2c-2-.8-8.8-1.8-14.7-2.7l-10.9-1.3-7.1-2.7-7.1-2.8-.8-2.2-.9-2.2-17.1-.8-17.1-.8-7.3-1.9-7.1-1.9.7-.6.8-.7-3.3-2-3.4-2-5.9.6-5.7.4 1.8 1 2 1-1 1.8-.9 2-4 1.1-3.7 1-2.3-.5-2.2-.7v-2a5 5 0 0 1 1.8-3.5c1-.8 1.5-1.4 1.2-1.4l-16-1.3c-8.3-.7-16.9-1.3-19-1.6a18 18 0 0 1-5.6-1.1l-1.7-.8-.9 1.3-1 1.4-3.8-.9c-2.2-.3-6.4-1.9-9.4-3.5l-5.8-2.8-7-.8-7-.8v-2.8l-1.6 1.8-1.4 1.8-2.7-1.3-2.7-1.4.4-1.8.5-2-2.9-1.1-2.9-1.2-1 .7c-.5.5-2.5.8-4.4 1-1.8 0-4.4.6-5.8 1l-2.4.9-1-2.8-1.1-2.7-1 1.5-.7 1.5-6 .7-5.8.8-1 1c-.4.6-1.7 1-3 1h-2l-1.9-3c-1-1.6-2.3-3-3-3h-1.4l1.7 2.3c.7 1.4 1.5 3.5 1.5 4.8v2.5h-4.4l-3.2-2.6-3-2.6-1 .8-1 .7-3.6-2.2-3.7-2.3-5.4.7-5.5.7 1-3.4.7-3.4-2.4-1.5c-1.5-.8-3-1.5-3.7-1.5h-1l-1 5.7-1 5.7-4-.2h-4l-.5-2.6-.4-2.7H173l-.6-1.4-.6-1.5-4.4 2.7a20.2 20.2 0 0 1-5.4 2.6h-1.4v-3.8l-4 .8c-2.4.4-4.6 1.2-5 1.7-.5.6-2.4 1.3-4.2 1.8l-3.5.8v-1c0-.8-1-1.6-2.4-2l-2.3-.7 1.1 1.5 1 1.5-3-2.2-3.2-2.1-4.2.3-4.4.4-.4-2.7-.6-2.9-3.8.9-3.8.7-2.1-1.3-2-1.5-1.5.9-1.7.7-6.4-1.3c-3.6-.7-8.4-2-11-3-2.4-.8-7.6-2.3-11.2-3l-6.6-1.6-1.5 2-1.3 2h-4.4v-5.6l-8.7-1.9c-4.8-1-11.2-2.1-14-2.5l-5.4-.7 2.3 1.2 2.3 1.2h-8.3v-3.8l-3.8.7-3.8.7v-2.6l-4 .7-3.9.8 1-2.3 1-2.3-3.5-1c-1.8-.3-6.4-.9-10-1l-6.7-.1-.9-1.3-1-1.5-2.3.1c-1.2.2-3.5 0-4.9 0l-2.7-.2V3.6l1-1.8.7-1.8 6.6 1.8 6.5 1.6L7 7.8l1 4.4 4 4.4c2.3 2.4 6.8 7.2 10.2 10.4l6 6 8.5 3.5c4.7 2 9.7 3.7 11 3.7h2.5l2.1 3.9 2.1 3.8 4.7 3.7 4.7 3.8-1 2.1c-.6 1.3-2.3 3-4 4L56 63l1.6 1.3 1.7 1.3v7.8l1.8.8c1 .6 3.6.8 5.8.7l3.7-.3 2.3 1.2 2.3 1.1v9.9l6 1.6 6.1 1.7 2.4-.7 2.6-.6.8 1.8.9 1.6 3-.6 3.2-.6-.6-.8-.8-.8h6v2.8l2 .6 1.9.6 7.1-.6 7.1-.7-.7-.8-.8-1 6.8-2.6c3.8-1.4 8-3.4 9.3-4.5l2.4-1.8h8.8l8 6.4c4.3 3.6 10.8 8.2 14.4 10.4l6.5 4 2.1-1.4 2.2-1.4 1.5.7 1.3.7.7-1.3.6-1.4 5 1 5 .7 2.7 5.1 2.7 5 4.7.8 4.7.8 1.7 3.2c2.7 5.5 9.2 15 12.9 18.8l3.3 3.5.6 3.5.4 3.4-11.6 2c-6.5 1.1-12.3 2.4-12.9 3l-1.2 1 2.9-.9c1.6-.4 7.4-1.4 12.8-2.1l10-1.3 4.6.8 4.5 1-2.7.8-2.7.8 3 2.2c1.8 1.3 3.2 2.7 3.2 3.2v1l-4 .8c-2.5.3-9.8 1.8-16.5 3.2l-12 2.4 1.9.6 1.8.4v2.3c0 1.2.3 2.2.6 2.2.5 0 6.4-2 13.2-4.7l12.6-4.8h10.7l-1.6 1-1.7.8.3 2.6c.2 1.6.8 3.1 1.4 3.6l1 .8 1.4-1.6c.9-1 1.5-1.6 1.7-1.2l.6 3.9.6 3.2-1.4-.6-1.4-.7 1.6 3.6c.9 1.9 2.8 4.4 4.3 5.4l2.8 2 10.3 1.1c5.6.6 15.7 2.2 22.3 3.5 13.6 2.7 14.8 2.8 11.6 1.2l-2.3-1.2H306l1-1.3 1-1.3 2.9.6 2.8.5 4.6-1.7 4.5-1.8 4.7.8 4.7.8 2.3 4.2c2.3 4.5 6.7 9.9 12 14.6a46 46 0 0 1 6.8 9.5c2 3.6 5 8.7 6.7 11.3l3.1 4.8 6.1.2 13.2.8 7.3.8 3.6 2 3.6 2.1-.6 6-.4 6 4.8 3.4 5 3.3-1 4.5-1.1 4.6 2.3 1.8 2.4 1.8-.3 14c-.2 7.8-.6 16-1 18.4l-.4 4.4 2 .6 2.1.6v3.7l-3.2 2.5-3 2.4 4 3a15 15 0 0 0 5.4 2.8c1.4 0 1.5.5 1.8 5.1l.2 2.6 3.2 1.2 3 1.2.4 4.9.5 4.9-3 6.3c-4.3 8.8-3 8.8 2 0l3.9-7.3 3.5.4 3.3.3-.5 1.2-.4 1 3.2 1 3.3 1 .8 2.4.7 2.3H444.1l-.4 3.6-.3 3.6h-2c-3.3 0-1.9 1.6 4.5 5.3l6.2 3.6 2.4 3.8 2.4 3.8 3 1.2c1.7.7 5.7 2 8.7 3l5.6 1.7 1 3.4c.5 1.7 2 5.3 3.4 7.8l2.6 4.5 2.9-.6 3-.6 4.2 2 4.3 2v6.2l5.3 4.3c5.3 4.3 8.3 5.5 8.3 3.4v-1.1l4.4-1.4 4.5-1.5.8-1.6.8-1.7 2.5.8 2.6.8-.9-1.2-1-1.3 2.2-1.5 2.3-1.4 6.4-.3c7.5-.4 10.7-.9 11.8-2l.7-.8 5.6 1.8 5.6 1.8 1 3.7a50.8 50.8 0 0 0 10.1 17.4h1l1.1 4.2c.5 2.3 2.4 7.5 4.3 11.6l3.3 7.4 2.6-.3 2.6-.4 5 1.8c2.5 1 7.2 2 10.1 2.4l5.2.6 2.7 2.7 2.6 2.7-.8 4-.8 3.9 1.6 1.5 1.5 1.4V474.6c0 4.7-1.2 29.6-1.5 30.3-.2.3 0 1.5.1 2.8l.3 2.2-1.7-.7-1.6-.9v7.2l2.7 1.2 2.9 1.1 1.8-1.4 1.8-1.4 3.7 3.3 3.6 3.2h6.2v3.1l4.6 2.6c2.5 1.6 4.5 3.2 4.5 4 0 .6-2.6 3.3-6 6.1a78.4 78.4 0 0 0-8.7 9l-3 3.9 1.6 4.7 1.7 4.9-4.5 3.2a62 62 0 0 0-15 15.3l-2.6 4 1.5 1.5 1.7 1.6-1.1.7-.9.8h3.5v8l-5.3 2.6-5.3 2.4.9 1.7.7 1.7-3.4 2c-1.9 1-4.6 1.8-5.8 1.8h-2.6l-3.6 3.1c-2 1.7-5.2 3.6-7 4.2l-3.5 1-.1 2.6a15 15 0 0 0 .1 4c.2.6.3 2.1.5 3.2l.1 2.1h2.5l-2.3 4.4c-2.9 5.4-2.1 4.9-8.3 5.7l-5.3.7-12 4.7-11.8 4.7h-6.1l-4.4 3.2-4.4 3.4-1 4.1c-.5 2.3-1 5-.8 6.2l.1 1.9-3.1 2.3-3 2h-29.8l-.9.8-.9.7 2.6 4 2.6 4.1-.5 4c-.1 2.2-.9 5-1.8 6.2l-1.5 2.3 1.6 2.4 1.6 2.3-2.5-.8-2.5-.7.9 1.2 1 1.3-2.2 1.4c-1.3.8-2.3 2-2.3 2.6v1.1l2-.8 1.8-1-2 2-2.1 2 .6 2.7.4 2.7h2.3c1.2 0 3.2.6 4.3 1.4l1.8 1.5v3.9c0 2.1-.6 5.7-1.4 7.8l-1.5 3.8h2.9v3.5c0 4.1-2.8 10.8-5.6 13.3l-2.1 2 2.4.7c1.3.4 4 .7 5.9.7h3.3l2.4 1.6 2.5 1.4.9 3.3.9 3.2h-4.9l-4.5 3c-5.3 3.6-6 3.6-9.3.8Z"/><path fill="#A73A24" d="m90.4 320.8.3-.6-2.5.3-2.5.4-.7-1-.8-1 .6-1.2.6-1.3-3.8.8-3.8.7-.5-.6-.6-.5.5-.5c.3-.3 3.7-1.2 7.4-2 3.8-.9 8.5-2 10.5-2.7l3.5-1.2v-1l.3-14.6.1-13.7.5-1 .4-1h-.4c-.3 0-2.1 2.4-4 5.2-1.9 2.8-4.3 6-5.3 7l-1.8 1.8-1-1-1-1 1.6-3 1.5-3 5.4-7.2 5.4-7.1.6-2.4.7-2.4 1.4-.7 1.4-.6 1.7-2.8 1.8-2.8.6.3.7.2.2 1.4.2 1.5 1-.3 1.2-.3.4.9.2.8-.8 1.7c-.4.8-1.9 2.8-3.2 4.3l-2.3 2.6v4c0 2-.4 7.4-1 11.8l-1.2 13.7-.4 5.7-.5.7-.4.7h.3c.3 0 2-.4 3.9-1l3.4-.8 2.1.2 2 .2v1.6l-1.6 1c-.9.4-2.2 1.4-2.9 2-.7.7-2.8 2-4.7 3l-3.4 1.7-.5 1.9-.6 1.9-1 .1-1 .3-.8-1-.7-1-3.3 1.2c-3.6 1.4-4 1.5-3.4.7Z"/><path fill="#A73A24" d="m149.7 312-3-1.4-1.7-2.4-1.7-2.4-.9-2.9-.8-2.9v-4.8l-.1-5-1.6 3.9-1.7 3.9-3.2 4.7-3.2 4.9-1.9 1.4-1.7 1.4 1 .4c1 .4 1.3 1.4.3 1.4a565.3 565.3 0 0 1-10.6-4.7l-2.5-1-1.7-2-1.7-2-.7-2.4-.6-2.4.3-4 .3-4.2 2.3-7 2.4-7 1.7-3a65 65 0 0 1 4-5.8l2.2-2.8 2.1-1.3 2.1-1.3 2.7.7 2.6.7 2.1 2 2 2 2 4 1.7 4 .5 5.5c.2 3 .5 5.1.5 4.6a38 38 0 0 1 2.6-6l2.5-5 2.5-3.6 2.6-3.4 2.7-1.8 2.7-1.8 2.4-.3 2.4-.4 3.3 1.1c1.8.7 4 1.7 5 2.4l1.6 1.2 1.2 2.4 1.2 2.5.3 6 .4 5.9-1 3.9-.9 3.8-1.4 3a63 63 0 0 1-4.3 6.7l-2.8 3.7-3.4 3.3-3.4 3.3-2 .8c-1.2.4-2.7.8-3.4.8h-1.3l-3-1.3Zm-20.8-7 1.7-2 2-4.4c1.3-2.4 3.2-7 4.4-10.3l2.3-6v-5.2l-1-2.7-.9-2.7-1.7-1.4-1.7-1.4h-3.3l-1.7 2.3-1.7 2.4-1.8 4.5-1.7 4.4-.5 3.8-.6 3.7.6 5.3.5 5.2 1 2.9c1.4 4.5 1.6 4.6 4 1.6Zm28.4-2.8 2.4-1.3 4-4.3 3.9-4.2 1.5-3c.8-1.8 2-4.4 2.4-5.9l1-2.7v-1.9c0-1-.2-2.7-.4-3.7l-.4-1.8-1.5-1.7-1.6-1.7h-4.1l-2.3 1.4-2.2 1.5-2.4 3.3a48 48 0 0 0-4 6.2l-1.4 3h-1l.3-1c.1-.5.5-1.9.6-3 .6-2.4 3.4-8 4.6-9l.9-.8v-2.2h-2l-1.6 2c-2.4 3-6 9.9-7.6 14.6l-1.6 4.3v9.9l1 1.2c.7.7 2 1.6 3 2l1.6.8 2.3-.3 2.3-.3 2.3-1.4Z"/><path fill="#A73A24" d="m92 359.7-4.2-1.3-3.2-1.7-3.1-1.7-3.8-3.7-3.7-3.7-4-5.7-4.2-5.8-3.8-3-3.8-3-2.6-3.2-2.6-3.2-1.7-3.5-1.6-3.5-.8-4-.9-3.8v-7.5l.6-3.4c.3-1.9 1.4-5.8 2.4-8.8l1.7-5.4 3.7-7.4L60 269l4-5.5c2.2-3 5.2-7.4 6.7-9.9 6-10 13.3-18.6 21.4-25l4.2-3.4 4.6-2.2 4.6-2.1 3.4-.7c2-.3 3.9-.8 4.3-.9 1-.3 15.8-.4 33.8-.1l12.3.2 4.6 1.6a72 72 0 0 1 8 3.4l3.4 1.7 4.3 4.4 4.4 4.2 2.7 4.6c1.4 2.5 3.4 6.5 4.4 8.8l1.8 4.3 1.2 5.4 1.2 5.5v26.2l-1.2 7.1c-.7 4-1.8 8.8-2.5 11l-1.1 3.7.3 1 .3.8h-1l-3.5 7.1-3.5 7-3.3 3.6-3.2 3.4-4 2.7c-2.1 1.4-6.3 3.8-9.1 5.3L158 345l-5 1.8-5 1.7-3.8.7-3.9.6-6.9 2.8a168 168 0 0 1-23 7.7l-4.2.8h-10l-4.2-1.3Zm20.9-3.1 10.8-3.7 6.9-2.4-2-.4c-1-.2-6.8-.7-12.8-1-20.6-1.3-30.4-3.2-40-7.8-1.6-.7-3-1.4-3.4-1.4H72l3.5 4.6 3.6 4.6 2.8 2.2 2.8 2.3 3.1 1.4c1.7.8 4.4 1.9 6 2.3l3.1.9 6-.3 6-.2 4-1.1Zm34.2-13.8 18.4-9.5 10.8-5.5 3-3 3-2.8 1.9-4.6 1.9-4.5.2-2.7.3-2.8.4.3.4.2.7-2c1-3.5 2.3-12.5 2.7-18.6l.3-5.8-1-5.7-.8-5.7-3-8.5-2.8-8.4-1.9-3.9-1.9-3.7-3.1-4-3.1-4-3.3-2.6a53 53 0 0 0-21.4-10.6l-4.8-1.3h-2.1c-1.2 0-4 .2-6.5.6l-4.4.7v.4c0 .2 1.9 1 4.3 1.7l4.4 1.3 3 2 3 1.8.7 1.8.7 1.7-.6 2.1-.6 2 .7.5.7.5h-2l-.3 1c-.2.6-.8 1.5-1.5 2.1l-1.1 1-.3-.3-.4-.4.8-1c1-1.2 2.2-4.7 2.2-6.8v-1.7l-1-.9a33 33 0 0 0-10.3-4.7l-4.8-1.4h-3.4c-1.8 0-3.7.1-4.2.3l-1 .3.4.5.3.4-1-.2-1.1-.3-6.2 3.2-6.3 3-6.3 4.2-6.2 4.2-3.8 3.8-3.8 3.8-2 3.2c-1 1.7-2.1 3.2-2.4 3.2-1 0-.3-1.7 2.3-5.9l2.7-4.3 2.8-3a61 61 0 0 1 12.4-9.9c2.7-1.7 4.6-3.1 4.4-3.1A74.2 74.2 0 0 0 85.9 243l-3.6 3-5 5.8-5.2 6-2.4 4c-3 5.1-7 14.6-9.9 22.8l-2 6-.6 4.7-.7 4.6.6 5c.4 2.6 1.2 6.8 1.8 9.2l1.1 4.5 1.8 3.7c.9 2 2.7 5.5 4 7.7l2.3 4.1 5 2.6 5 2.6 6 2 6 2 5.7.9c3.1.5 10.3 1.2 16 1.7l10.3.8h17.4l7.6-4ZM231.2 648.5c0-1.1-1-2-2-2h-12.8V659h1.5v-4.8h11.2c1.2 0 2-1 2.1-2v-3.7Zm-1.7 4-.4.2h-11.2V648h11.2c.1 0 .3 0 .4.2.2.1.2.3.2.5v3.5c0 .1 0 .3-.2.4Zm5.5 6.5v-12.6h-1.5V659h1.5Zm16.2-12.6v11.1h-.5l-10.2-11h-2.7V659h1.5v-11.1h.4L250 659h2.6v-12.6h-1.4Zm9.2 7h8c.2 0 .4.2.5.3.2.1.2.3.2.5v2.7l-.2.5c-.2.2-.3.2-.5.2a106.7 106.7 0 0 1-11.2-.2 83.6 83.6 0 0 1 0-9.4l.5-.2a134.2 134.2 0 0 1 11.2.2l.2.5v1h1.5v-1.1c0-1.1-1-2-2.1-2a110 110 0 0 0-10.9 0c-1.1 0-2 .9-2 2-.2 2.9-.2 5.8 0 8.6 0 1.2.9 2 2 2.1a109 109 0 0 0 10.9 0c1.1 0 2-1 2-2l.1-1.2V654c0-1.1-1-2-2-2.1h-8.2v1.5Zm13.1 5.6h12.8c1 0 2-1 2-2v-8.5c0-1.1-1-2-2-2h-13.7v1.4h1V659ZM287 657l-.2.4c-.2.2-.3.2-.5.2H275V648h11.2c.2 0 .3 0 .5.2l.2.5v8.3Zm11.8-9.2a133.3 133.3 0 0 1 5.8.3l.2.5a83.6 83.6 0 0 1-.2 9l-.5.1a106.7 106.7 0 0 1-11.2-.2 83.6 83.6 0 0 1 0-9.4l.5-.2 5.4-.1Zm-5.5-1.4c-1.1 0-2 1-2 2.1-.2 2.9-.2 5.8 0 8.6 0 1.2.9 2 2 2.1a109 109 0 0 0 11 0c1 0 2-1 2-2 .1-3 .1-5.8 0-8.7 0-1.1-1-2-2-2a110 110 0 0 0-11 0Zm29.9.1-5.7 10.8-5.7-10.8H309V659h1.4v-11.1h.3l5.9 11.1h1.4l5.9-11.1h.2V659h1.5v-12.6h-2.6Z"/><circle cx="194.5" cy="639.5" r="14.5" fill="#A73A24"/><path fill="#A73A24" d="M330 585.5h8c.3 0 .4 0 .5.2.2.1.2.3.3.5v1.7l-.1 1c0 .2 0 .4-.2.5-.1.2-.3.2-.5.2a106.7 106.7 0 0 1-11.2-.2 83.6 83.6 0 0 1 0-9.4l.5-.2a134.2 134.2 0 0 1 11.2.2l.2.5v1h1.5v-1.1c0-1.1-1-2-2.1-2a110 110 0 0 0-10.9 0c-1.1 0-2 .9-2 2-.2 2.9-.2 5.8 0 8.6 0 1.2.9 2 2 2.1a109 109 0 0 0 10.9 0c1.1 0 2-1 2-2l.1-1.2V586c0-1.1-1-2-2-2.1H330v1.5Zm20.4-5.8a133.3 133.3 0 0 1 5.8.3l.2.5a83.6 83.6 0 0 1-.2 9l-.5.1a106.7 106.7 0 0 1-11.2-.2 83.6 83.6 0 0 1 0-9.4l.5-.2 5.4-.1Zm-5.5-1.4c-1.1 0-2 1-2 2.1-.2 2.9-.2 5.8 0 8.6 0 1.2.9 2 2 2.1a109 109 0 0 0 10.9 0c1.1 0 2-1 2-2 .2-3 .2-5.8 0-8.7 0-1.1-.9-2-2-2a110 110 0 0 0-10.9 0Zm23.4 1.4a133.3 133.3 0 0 1 5.8.3l.2.5a83.6 83.6 0 0 1-.2 9l-.5.1a106.7 106.7 0 0 1-11.2-.2 83.6 83.6 0 0 1 0-9.4l.5-.2 5.4-.1Zm-5.5-1.4c-1.1 0-2 1-2 2.1-.2 2.9-.2 5.8 0 8.6 0 1.2.9 2 2 2.1a109 109 0 0 0 10.9 0c1.1 0 2-1 2-2 .2-3 .2-5.8 0-8.7 0-1.1-.9-2-2-2a110 110 0 0 0-10.9 0Zm20.7 7.2h8.1c.2 0 .3 0 .5.2l.2.5v2.7c0 .2-.2.4-.3.5-.1.2-.3.2-.5.2a106.7 106.7 0 0 1-11.2-.2 83.6 83.6 0 0 1 0-9.4l.5-.2a134.2 134.2 0 0 1 11.2.2l.2.5v1h1.6l-.1-1.1c0-1.1-1-2-2-2a110 110 0 0 0-11 0c-1 0-2 .9-2 2-.2 2.9-.2 5.8 0 8.6 0 1.2 1 2 2 2.1a109 109 0 0 0 11 0c1 0 2-1 2-2v-3c0-1.1-1-2-2-2.1h-8.2v1.5Zm23.2 4h-8.9v-11h-1.4V591h10.3v-1.5Zm13.6-9.6v-1.5h-11.9V591h11.9v-1.5h-10.4v-4h10.4V584h-10.4v-4.1h10.4Zm-80.4 17.6c0-1.1-1-2-2-2H325V608h1.5v-4.8h11.2c1.2 0 2-1 2.1-2v-3.7Zm-1.6 4-.5.2h-11.2V597h11.2c.1 0 .3 0 .5.2l.1.5v3.5l-.1.4Zm14.6 6.5h1.6l-5.8-12.6h-3.2l-5.8 12.6h1.6l1.3-2.7h9l1.3 2.7Zm-9.7-4.2 3.2-7h1.4l3.1 7h-7.7Zm17.6-1.3h8c.2 0 .4 0 .5.2l.2.5v2.7c0 .2-.1.4-.3.5-.1.2-.3.2-.4.2a106.7 106.7 0 0 1-11.3-.2 83.6 83.6 0 0 1 0-9.4l.5-.2a134.2 134.2 0 0 1 11.2.2c.2.1.2.3.2.5v1h1.6v-1.1c-.1-1.1-1-2-2.2-2a110 110 0 0 0-10.8 0c-1.2 0-2 .9-2.1 2-.2 2.9-.2 5.8 0 8.6 0 1.2 1 2 2 2.1a109 109 0 0 0 11 0c1 0 2-1 2-2v-3c0-1.1-.9-2-2-2.1h-8.1v1.5Zm24.6-5.6v-1.5h-11.8V608h11.8v-1.5h-10.3v-4h10.3V601h-10.3v-4.1h10.3Zm22.8 5.6c.1 0 .3 0 .4.2.2 0 .2.3.2.4v2.8c0 .2 0 .4-.2.5-.1.2-.3.2-.5.2a100.3 100.3 0 0 1-10.8-.2.8.8 0 0 1-.3-.4v-1.1h-1.5v1.1c.1 1.2 1 2 2.1 2.1a128.9 128.9 0 0 0 10.6 0c1.1 0 2-1 2-2l.1-1.2V603c0-1-1-2-2-2h-10.6l-.5-.2a.7.7 0 0 1-.2-.5v-2.8c0-.2.1-.4.3-.5l.4-.2a100.3 100.3 0 0 1 10.9.2l.2.5v1h1.5v-1.1c0-1.1-1-2-2.1-2a103.1 103.1 0 0 0-10.6 0c-1 0-2 .9-2 2v3c0 1.1.9 2 2 2h10.6Zm19.5-5c0-1.1-1-2-2-2h-12.8V608h1.5v-4.8h11.2c1.2 0 2-1 2.1-2v-3.7Zm-1.6 4-.5.2h-11.2V597h11.2c.1 0 .3 0 .5.2l.2.5v3.5l-.2.4Zm15.8-4.6v-1.5H430V608H442v-1.5h-10.4v-4h10.4V601h-10.4v-4.1h10.4Zm14.2 0v-1.5h-11.8V608H456v-1.5h-10.4v-4h10.4V601h-10.4v-4.1h10.4Zm2.7 11.1h12.7c1.2 0 2-1 2.1-2v-8.5c0-1.1-1-2-2-2h-13.7v1.4h1V608Zm13.4-2.1-.3.4c0 .2-.2.2-.4.2h-11.2V597h11.2c.2 0 .3 0 .4.2.2.1.2.3.3.5v8.3Z"/><circle cx="292" cy="587" r="15" fill="#A73A24"/><path fill="#A73A24" d="M120.3 571.5h8c.2 0 .4 0 .5.2.2.1.2.3.2.5v2.7l-.2.5c-.1.2-.3.2-.5.2a106.7 106.7 0 0 1-11.2-.2 83.6 83.6 0 0 1 0-9.4l.5-.2a134.2 134.2 0 0 1 11.2.2l.2.5v1h1.5v-1.1c0-1.1-1-2-2.1-2a110 110 0 0 0-10.9 0c-1.1 0-2 .9-2 2-.2 2.9-.2 5.8 0 8.6 0 1.2.9 2 2 2.1a109 109 0 0 0 10.9 0c1.1 0 2-1 2-2l.1-1.2V572c0-1.1-1-2-2-2.1h-8.2v1.5Zm23.5-7H132v1.4h5.1V577h1.5v-11.1h5.2v-1.5Zm15.8 0-5.8 10.7-5.7-10.8h-2.6V577h1.5v-11.1h.3L153 577h1.5l5.9-11.1h.2V577h1.5v-12.6h-2.6Zm17.3 1.4v-1.5H165V577H177v-1.5h-10.4v-4H177V570h-10.4v-4.1H177Zm13-1.5h-11.8v1.5h5.2V577h1.5v-11.1h5.2v-1.5Zm1.8 0V577h1.5v-4.8h3.6l7 4.8h2.7l-7-4.8h4c1.1 0 2-1 2-2v-3.7c0-1.1-.9-2-2-2h-11.8Zm11.7 1.5c.2 0 .4 0 .5.2l.2.5v3.5c0 .1 0 .3-.2.4l-.5.2h-10.2V566h10.2ZM210 577v-12.6h-1.5V577h1.5Zm18.3-12.6H226l-6.1 5.3-6-5.3h-2.3l7.2 6.3-7.2 6.3h2.2l6.1-5.3 6 5.3h2.3l-7.2-6.3 7.2-6.3Z"/><circle cx="92.5" cy="562.5" r="14.5" fill="#A73A24"/><path fill="#A73A24" d="M79.4 387c0-2.3-1.9-4-4.1-4.2H49.8V408h3v-9.6h22.5c2.2 0 4-1.9 4.1-4.2V387Zm-3.3 8c-.3.3-.6.4-1 .5H52.8v-9.7h22.4c.3 0 .6.2.9.4.2.3.4.6.4 1v6.9c0 .4-.2.7-.4 1Zm31.6-9.2v-3H84V408h23.7v-3H87v-8h20.7v-3H87v-8.2h20.7Zm4.8-3V408h3v-9.6h7.3l14 9.6h5.3l-14-9.6h8c2.2 0 4-1.9 4.1-4.2V387c0-2.3-1.9-4-4.1-4.2h-23.6Zm23.4 3c.4 0 .7.2 1 .4.2.3.4.6.4 1v6.9c0 .4-.2.7-.4 1l-1 .4h-20.5v-9.7H136Zm12.7 22.2v-11h18.8v-3h-18.8v-8.2h20.7v-3h-23.7V408h3Zm39.2-22.7c3.6 0 7.2.1 10.7.3.4 0 .7.2 1 .4.2.3.4.6.4 1 .3 5.6.3 11.3 0 17 0 .3-.2.6-.4.9-.3.2-.6.4-1 .4a213.3 213.3 0 0 1-21.5 0c-.3 0-.7-.2-.9-.4-.3-.3-.4-.6-.4-1-.3-5.6-.3-11.3 0-17 0-.3.1-.6.4-.9.3-.2.6-.4 1-.4 3.5-.2 7.1-.3 10.7-.3Zm-10.9-2.7c-2.2.1-4 2-4.2 4.2-.3 5.8-.3 11.5 0 17.3.2 2.2 2 4 4.2 4.1a218 218 0 0 0 21.8 0c2.2 0 4-1.9 4.1-4.1.3-5.8.3-11.5 0-17.3 0-2.3-1.9-4-4.1-4.2a220.1 220.1 0 0 0-21.8 0Zm31.5.2V408h3v-9.6h7.3l14 9.6h5.3l-14-9.6h8c2.2 0 4-1.9 4.2-4.2V387c-.2-2.3-2-4-4.2-4.2h-23.6Zm23.4 3c.4 0 .7.2 1 .4.2.3.4.6.4 1v6.9c0 .4-.2.7-.4 1l-1 .4h-20.4v-9.7h20.4Zm38.1-3-11.4 21.6-11.4-21.6h-5.2V408h3v-22.2h.4l11.8 22.2h2.9l11.7-22.2h.5V408h3v-25.2h-5.3Zm35 25.2h3.2l-11.5-25.2h-6.5L278.6 408h3.2l2.5-5.4h18.1l2.5 5.4Zm-19.3-8.4 6.4-13.8h2.7l6.4 13.8h-15.5Zm52.6-16.8V405h-1l-20.5-22.2h-5.2V408h3v-22.2h.8l20.6 22.2h5.2v-25.2h-3ZM374 404c0 .4-.2.7-.4 1-.3.2-.6.4-1 .4a213.3 213.3 0 0 1-21.5 0c-.3 0-.7-.2-1-.4a167.2 167.2 0 0 1-.4-18c.1-.3.2-.6.5-.9.2-.2.6-.4 1-.4a268.5 268.5 0 0 1 21.4 0c.4 0 .7.2 1 .4.2.3.4.6.4 1v2.1h3v-2.3c-.2-2.3-2-4-4.2-4.2a220.1 220.1 0 0 0-21.8 0c-2.2.1-4 2-4.2 4.2-.3 5.8-.3 11.5 0 17.3.2 2.2 2 4 4.2 4.1a218 218 0 0 0 21.8 0c2.2 0 4-1.9 4.1-4.1l.1-2.4h-3v2.2Zm31.3-18.1v-3h-23.7V408h23.7v-3h-20.7v-8h20.7v-3h-20.7v-8.2h20.7ZM64.9 420.3c3.6 0 7.2.1 10.7.3.4 0 .7.2 1 .4.2.3.4.6.4 1 .3 5.6.3 11.3 0 17 0 .3-.2.6-.4.9-.3.2-.6.4-1 .4a213.3 213.3 0 0 1-21.5 0c-.3 0-.7-.2-1-.4a167.2 167.2 0 0 1-.4-18c.1-.3.2-.6.5-.9.2-.2.6-.4 1-.4 3.5-.2 7.1-.3 10.7-.3ZM54 417.6c-2.2.1-4 2-4.2 4.2-.3 5.8-.3 11.5 0 17.3.2 2.2 2 4 4.2 4.1a218 218 0 0 0 21.8 0c2.2 0 4-1.9 4.1-4.1.3-5.8.3-11.5 0-17.3 0-2.3-1.9-4-4.1-4.2a220.1 220.1 0 0 0-21.8 0Zm58.3.2V440h-1L91 417.8h-5.2V443h3v-22.2h.7L110 443h5.3v-25.2h-3Zm48.3 3v-3H137V443h23.7v-3H140v-8h20.7v-3H140v-8.2h20.7Zm15.9 19.2-10.2-22.2h-3.2l11.5 25.2h3.8l11.6-25.2h-3.3L176.5 440Zm40.5-19.2v-3h-23.6V443H217v-3h-20.7v-8H217v-3h-20.7v-8.2H217Zm4.8-3V443h3v-9.6h7.3l14 9.6h5.3l-14-9.6h8c2.2 0 4-1.9 4.2-4.2V422c-.1-2.3-2-4-4.2-4.2h-23.6Zm23.5 3c.3 0 .6.2.9.4.3.3.4.6.4 1v6.9c0 .4-.1.7-.4 1l-1 .4h-20.4v-9.7h20.5Zm35.9 8.1h-22.3c-.4 0-.7-.1-1-.4-.2-.2-.4-.5-.4-1v-9.7h-3v10c.2 2.2 2 4 4.2 4.1h22.5l-.2 6.6c0 .3-.2.6-.4.9-.3.3-.6.4-1 .4a213.3 213.3 0 0 1-20.7 0c-.4 0-.7-.1-1-.4l-.4-1v-2.1h-3v2.3c.2 2.3 2 4 4.3 4.2a238.8 238.8 0 0 0 21 0c2.2-.1 4-2 4.2-4.2l.2-7v-13.8h-3V429ZM79.4 457c0-2.3-1.9-4-4.1-4.2H49.8V478h3v-9.6h22.5c2.2 0 4-1.9 4.1-4.2V457Zm-3.3 8c-.3.3-.6.4-1 .5H52.8v-9.7h22.4c.3 0 .6.2.9.4.2.3.4.6.4 1v6.9c0 .4-.2.7-.4 1Zm28.6 10H87v-22.2h-3V478h20.7v-3Zm27.4 3h3.3l-11.5-25.2h-6.6L105.8 478h3.2l2.5-5.4h18.2l2.4 5.4Zm-19.2-8.4 6.3-13.8h2.8l6.3 13.8h-15.4Zm43.3-16.8h-23.7v3h10.3V478h3v-22.2h10.4v-3Zm6.4 25.2v-11h18.8v-3h-18.8v-8.2h20.7v-3h-23.7V478h3Zm39.2-22.7c3.6 0 7.2.1 10.7.3.4 0 .7.2 1 .4l.4 1c.3 5.6.3 11.3 0 17 0 .3-.2.6-.4.9-.3.2-.6.4-1 .4a213.3 213.3 0 0 1-21.5 0c-.3 0-.7-.2-1-.4a167.2 167.2 0 0 1-.4-18c0-.3.2-.6.5-.9.2-.2.6-.4 1-.4 3.5-.2 7.1-.3 10.7-.3Zm-10.9-2.7c-2.3.1-4 2-4.2 4.2-.3 5.8-.3 11.5 0 17.3.2 2.2 2 4 4.2 4.1a218 218 0 0 0 21.8 0c2.2 0 4-1.9 4.1-4.1.3-5.8.3-11.5 0-17.3 0-2.3-1.9-4-4.1-4.2a220.1 220.1 0 0 0-21.8 0Zm31.5.2V478h3v-9.6h7.3l14 9.6h5.3l-14-9.6h8c2.2 0 4-1.9 4.1-4.2V457c0-2.3-1.9-4-4.1-4.2h-23.6Zm23.4 3c.4 0 .7.2 1 .4.2.3.4.6.4 1v6.9c0 .4-.2.7-.4 1l-1 .4h-20.5v-9.7h20.5Zm38.1-3-11.4 21.6-11.4-21.6h-5.2V478h3v-22.2h.4l11.8 22.2h2.9l11.7-22.2h.5V478h3v-25.2h-5.3ZM394.9 528.4l-5.1 11.1-5.1-11h-1.6l-5.1 11-5.1-11h-1.6L377 541h2l4.9-10.8 5 10.8h1.8l5.8-12.6H395ZM410 530v-1.5h-11.9V541h11.9v-1.5h-10.4v-4H410V534h-10.4v-4.1H410Zm16 3.6.2-.9v-2c0-1.2-1-2.1-2-2.2h-11.9V541h12.8c1 0 2-1 2-2v-3.7c0-.8-.4-1.5-1.1-1.8Zm-2-3.6c.2 0 .4 0 .5.2.2.1.2.3.2.5v2c0 .1 0 .3-.2.4l-.4.2h-10.3V530h10.3Zm1.7 9-.2.4c-.2.2-.3.2-.5.2h-11.2v-4.8h11.2c.2 0 .3 0 .5.2l.2.5v3.5Zm18.7-8.4c0-1.1-1-2-2-2h-12.8V541h1.5v-4.8h11.2c1.2 0 2-1 2.1-2v-3.7Zm-1.7 4-.4.2h-11.2V530h11.2c.1 0 .3 0 .4.2.2.1.2.3.2.5v3.5c0 .1 0 .3-.2.4Zm14.7 6.5h1.6l-5.8-12.6H450l-5.7 12.6h1.6l1.3-2.7h9l1.3 2.7Zm-9.7-4.2 3.2-7h1.4l3.1 7h-7.7Zm17.5-1.3h8.1c.2 0 .4 0 .5.2l.2.5v2.7c0 .2-.1.4-.3.5-.1.2-.3.2-.4.2a106.7 106.7 0 0 1-11.3-.2 83.6 83.6 0 0 1 0-9.4l.5-.2a134.2 134.2 0 0 1 11.2.2c.2.1.2.3.2.5v1h1.6v-1.1c-.1-1.1-1-2-2.2-2a110 110 0 0 0-10.8 0c-1.2 0-2 .9-2.1 2-.2 2.9-.2 5.8 0 8.6 0 1.2 1 2 2 2.1a109 109 0 0 0 11 0c1 0 2-1 2-2v-3c0-1.1-.9-2-2-2.1h-8.2v1.5Zm24.7-5.6v-1.5h-11.8V541H490v-1.5h-10.4v-4H490V534h-10.4v-4.1H490Zm13.1-1.5h-11.8v1.5h5.1V541h1.5v-11.1h5.2v-1.5Zm13.6 1.5v-1.5h-11.9V541h11.9v-1.5h-10.4v-4h10.4V534h-10.4v-4.1h10.4Zm14.8 5.6c.1 0 .3 0 .4.2.2 0 .2.3.2.4v2.8l-.2.5c-.2.2-.3.2-.5.2a100.3 100.3 0 0 1-10.9-.2.8.8 0 0 1-.2-.4v-1.1h-1.5v1.1c.1 1.2 1 2 2.1 2.1a128.9 128.9 0 0 0 10.6 0c1.1 0 2-1 2-2l.1-1.2V536c0-1-1-2-2-2H521l-.5-.2a.7.7 0 0 1-.2-.5v-2.8l.2-.5.5-.2a100.3 100.3 0 0 1 10.9.2l.2.5v1h1.5v-1.1c0-1.1-1-2-2.1-2a103.1 103.1 0 0 0-10.6 0c-1 0-2 .9-2 2v3c0 1.1.9 2 2 2h10.6Zm15.4-7h-11.8v1.4h5.1V541h1.5v-11.1h5.2v-1.5Z"/><circle cx="346.5" cy="525.5" r="17.5" fill="#A73A24"/><path fill="#fff" d="m349 527.6-2-5.5a28.6 28.6 0 0 1-.5-2.3 63.4 63.4 0 0 1-.5 2.4l-1.8 5.4h4.7Zm-11 6.6 6.5-17.2h4.2l6.6 17.2h-4.1l-1.4-3.7H343l-1.2 3.7H338Z"/><rect width="248" height="50.3" x="385" y="659" fill="#F3C010" rx="6.7"/><path fill="#fff" d="m425.2 687.7-.3.6c-.1.2-.4.3-.6.3a143.8 143.8 0 0 1-15-.3 112 112 0 0 1 0-12.6c.1-.2.4-.3.6-.3a179 179 0 0 1 14.4 0c.2 0 .4 0 .6.3.2.1.3.3.3.6v1.5h2v-1.6a3 3 0 0 0-2.8-2.8 147.1 147.1 0 0 0-14.6 0 3 3 0 0 0-2.8 2.8c-.2 3.9-.2 7.7 0 11.6a3 3 0 0 0 2.8 2.8 145.8 145.8 0 0 0 14.6 0 3 3 0 0 0 2.8-2.8v-1.6h-2v1.5Zm21.2 2.7h2.2l-7.7-16.9h-4.4l-7.7 16.9h2.1l1.7-3.6h12.1l1.7 3.6Zm-12.9-5.6 4.3-9.3h1.8l4.2 9.3h-10.3Zm33.8-1.8c.2 0 .4 0 .6.2.2.2.3.4.3.7v2.3l-.1 1.5-.3.6-.6.3a135.2 135.2 0 0 1-14.6-.3 1 1 0 0 1-.3-.6v-1.5h-2v1.6a3 3 0 0 0 2.8 2.8 172 172 0 0 0 14.2 0 3 3 0 0 0 2.8-2.8v-4a3 3 0 0 0-2.8-2.8h-14.1a1 1 0 0 1-.7-.3.9.9 0 0 1-.2-.6v-3.8c0-.3.1-.5.3-.7l.6-.2a134 134 0 0 1 14.6.2c.2.2.3.4.3.7v1.4h2v-1.5a3 3 0 0 0-2.8-2.8 137.8 137.8 0 0 0-14.2 0 3 3 0 0 0-2.8 2.8v4a3 3 0 0 0 2.8 2.8h14.2Zm22.2-7.5v-2h-15.9v16.9h16v-2h-14V683h14v-2h-14v-5.5h14ZM520 683c.2 0 .5 0 .6.2.2.2.3.4.3.7v3.8l-.3.6c-.2.2-.4.3-.7.3a135.2 135.2 0 0 1-14.5-.3 1 1 0 0 1-.3-.6v-1.5h-2v1.6a3 3 0 0 0 2.8 2.8 172 172 0 0 0 14.1 0 3 3 0 0 0 2.8-2.8v-4a3 3 0 0 0-2.7-2.8h-14.2a1 1 0 0 1-.6-.3.9.9 0 0 1-.3-.6v-2.4l.1-1.4c0-.3.1-.5.3-.7l.6-.2a134.1 134.1 0 0 1 14.6.2l.3.7v1.4h2v-1.5a3 3 0 0 0-2.9-2.8 137.8 137.8 0 0 0-14.1 0 3 3 0 0 0-2.8 2.8v4a3 3 0 0 0 2.8 2.8H520Zm20.7-9.5h-15.9v2h7v14.9h2v-14.9h7v-2Zm2.3 14.1a3 3 0 0 0 2.8 2.8 145.8 145.8 0 0 0 14.6 0 3 3 0 0 0 2.8-2.8v-14.2h-2v14.1c0 .3-.1.5-.3.6a1 1 0 0 1-.6.3 179.6 179.6 0 0 1-14.4 0 1 1 0 0 1-.7-.3.9.9 0 0 1-.2-.6v-14.1h-2v14.2Zm24.4 2.8h17a3 3 0 0 0 2.8-2.8v-11.3a3 3 0 0 0-2.8-2.8h-18.3v2h1.3v15Zm17.9-2.9c0 .3-.2.5-.3.7l-.7.2h-15v-12.9h15a1 1 0 0 1 1 1v11Zm23.2-6.5h-15a.9.9 0 0 1-.5-.3 1 1 0 0 1-.3-.6v-6.6h-2v6.7a3 3 0 0 0 2.8 2.8h15v4.4l-.4.6c-.1.2-.4.3-.6.3a143.8 143.8 0 0 1-14.5-.3 1 1 0 0 1-.3-.6v-1.5h-2v1.6a3 3 0 0 0 2.8 2.8 160.9 160.9 0 0 0 14.1 0 3 3 0 0 0 2.8-2.8l.1-4.7v-9.3h-2v7.5Z"/></svg>