<svg xmlns="http://www.w3.org/2000/svg" fill="none" viewBox="0 0 778 1543"><path fill="#3F8CA8" d="m832 357-7 4h-25l-1 3-1 3 8 8 8 9 1 4-1 5-7 4-8 3h-10l-20-1h-10l-1 8c0 4 0 10 2 11l2 4-9 8c-5 5-8 10-8 11l11 11c13 13 25 26 24 28l-5 4-5 3-10-1-10-1-7-8c-3-4-10-10-15-12l-9-6-2 2-3 1 7 15c3 8 8 17 11 21l6 6 4-3 4-4-3 6-3 6 13 12 13 12-2 6-5 10-4 5-8-3-8-2-4 4-3 6c-1 1 6 6 13 12l15 11-5 3-4 4 1 2 1 3-5-1h-15l-11 3-8-7-9-6-4 5-4 6 4 9 6 10c4 1 19 19 22 26l2 12v7l-6-2-6-2-6 9-6 8-9-4-15-8-6-4-1 3c0 2 1 9 4 15l5 11 13 14c7 7 12 14 11 14-3 2-84 0-90-2l-7-2-1-7-1-8 4-12 4-12 1-28 3-29c1-1 6 3 11 8l10 10h8l7 1-8-7-8-8 3-3 3-2-4 1-5 1-3-5-4-5 2 1 3 1-4-7c-5-9-7-9-10-5l-3 4 2-5 3-6-2-3c-2-2-3-27-2-31 0-1 23-5 25-4l4 14c1 8 3 14 4 13s1-7-1-14l-3-13 5-1h8l2 2-5 19-6 18h7l-3 5-4 4-2 12-2 12 6 4 5 4 1-4 1-4 2 4 6 13 5 9-6-16-6-15-3 1h-3v-3l-1-4 4-1 5-2-4 4-4 4 4-2 3-1 3-15 6-29 5-14-5-7c-2-5-3-7-1-5l2 3 18-4 17-4 12-8 11-7-18 7-28 10-9 2 5-11 5-11 4 8 5 8-4-12-4-11h-4l-3-1 2-4 2-4-4 1-3 1-7 20-6 19-8 1-8 2-13-62-14-62c-2 0-1 2 11 62l11 57-1 5-11 1-11 2v-13l-2-63-1-50 12-7 13-7-10 3-11 3-7-33-7-32 5-5 9-4h5l26 80 28 80c2 1 4 7-28-89-13-41-31-91-39-111l-14-35-4 3-4 4 3-6 4-5-3-5-6-17-2-11 5 3 6 3 10-2c6-1 11-3 11-4l-9 1-10 2-1-40v-39l5-4 4-3 6 2c11 4 33 36 31 46-1 6 6 29 8 30l3 1-2 5-1 4 4 4c5 5 6 5 8 0l1-5-9-31-9-32-3-1-3-1 1-3c2-4-4-23-13-46l-3-13c1-2-1-10-4-17l-6-14 4-13 4-13-3-19-3-19 5-4 6-4 16 8c30 14 43 21 47 26 7 8 12 19 10 24-1 4 1 14 7 30l3 9c0 1 1 7 4 13l3 16-2 4 6 7 6 6v7l-1 7 7 8 7 8-1 3-2 5 6 18 13 34 7 18-5 4c-6 4-7 4 8 17l12 11 1 7 1 7 4 2 4 1-27 35-27 35-15 25-15 24-13 34-13 34 2 8 3 8-3 2-3 2 4-1 4-1 15-41 15-41 14-22 38-54 24-32h5l4-1 17 15 16 14v8l-6 4Z"/><path fill="#A73A24" d="m380 878 9 3 7 2h10l5 2 5 1 4-1h4l-2 1-1 1h2v1l-1 1h12l-1-1v-1l3-1h4v4h1l1-1v-2l2-3 1-3-1-1 2-1 8 1h16l8-1v-2l1-4 2-3 3-3 4 2 20 5h2l7 2 6 3h7l8-1-2 1-1 1 5 2 4 1h5l4-1 1 3 1 2h2l1 1v-4h1l5 1 4 1-2 1h-1l2 1 1 1h-2l-3 1 3 1 2 1h12l2 1v2h13l7 3 10 4 4 1 1 2v1l3 1h3v1l1 1c2 0 4 2 6 4l1 2 6-1 5-1v2l1 2h1l1-1v3l1 3h3l2-1v-2l3 1 2 2v-3h3v-4h2l2-3 1-1v3l4-1h3v-3l4 5 5 5v-1l1-1v2l1 1 1-2 1-2 1 2 1 1v-3l1 1 2 1 6-5 7-8 1-2 7-1 6-1 3 2 3 4 1 1 1 1 5 10 8 16 2 4 3 22 4 23 2 2 1 1h2l2-1 4 1 4 3 2 2 2 2 2 4 2 15 1 9-1 2v13h2l1 6 2 11v4l3-1 3-1 2-5 2-4h2l4-3 3-3 3 1c5 2 7 4 7 6v2h1l2-2 1-1h1l1 4 1 4 1 2 6 14 4 11 1 1 1 1v6l1 6 1 1 2 5 3 12c2 9 2 11 3 30v12l3 12 2 12c-1 1 0 9 3 33l2 24v8a399 399 0 0 0 0 28v5h-1l-1 1 1 7v6l-1 1h-2l1 3v2l-4 3-5 5-2 2-4-1-5-3-1-1v1l-4-2-4-3-3 2-2 1h-1l-1-1h1l-3-1-5-1-3 3-3 4-2-2-1-1-1 3-1 4-1 2-2-2-3-1v3l-1-2-1-3-1 1-1 1-3-4-3-3v5l-2-4-2-4v2l1 3h-2l-1-2-1-2-2 1-1 2h-1l-1-1-2 1-1 2v3l1 2-3-1-2-1-2 3-1 3v1l-1-1h-1v2l-3 1-6-2-1-3v-1h-1l-1 1v-4l-2 2-5 2-4 2v1h-5l-4 1-5-3-5-3-1 1-2 1-3-1-3-2-2-1h-2l-1 4-1 4-1-1-2-1-3 3-2 3-2-2-2-1h-3l1-1 1-1-6-1-7-1-1-1-2-1h1l-2-2c-2-1-3-2-4-1l-2-5-2-4-1 2-1 1-3-2-3-2v1l-1 2-2-1h-2l1 4v4l-1 4c-2 6-3 7-6 10l-3 2-1 2c0 2-2 3-3 1l-1-1-1 1-1 1v-2h-8l-1 1v4l-3 4-4 4-1-1v-1l-2 2c-2 3-2 3-11-3h-4l-1-3-5-5-2-2v-2l-2-2-2-1v-2l-1-1-1 1-1 1-2-3-2-3-2 1-3 2v2l-4-3-5-3h-1v-2l-1-2-1 1h-1l-1-3-4-5-1-3-1 1-1 2v-2l-1-6-1-4v2l-1 3-1-2-3-6-3-9-1-5-2 2c-1 2-4 9-3 11l-3 5-3 4v3l-2 4-1 1v6l-1 1-6 11-2 4-3 1h-2l-2-1-1-1-1 2-1 1-1 1v-2l-1-2-2 1h-2v-3h-4l-2 6-5 8-2 2h-1l-1-1v2l1 2h-5v-2l-1-2h-3l-2-3-1-4-1 1-1 1-2-2-3-3 1-2v-2l-1 1h-1v-1l1-2h-2l-1-7-1-7-1 1h-1v-2l-1 1-1 1v-2l1-2-2 1h-1l-1-1-2-1-1 3v2l-5-1c-6-1-10-2-15-1h-4l-3-1-3-2h-3l-2 1v-11l-2-1h-1v-10h2l-1-7-1-6v-2l1-1h-5v2l1 2h-2l-1 5-3 7-2 3 1 2v5l-1 3h1l1 1-1 1-1 1v2l1 2-2 3-2 2-4 1-3 2-1 2-1 3-2 2 1 1 1 1-4 1-3 1h-1l-2-3v-1l-1 1h-1v-2h3l-3-1-3-1-1-4-1-3-1 1-1 1v1h-1l-1-1v6l1 1h-2l-2 1 1 1v2h-3v6h-2l-1 1-1 1v2h-2l-3 1v-5l-1 2v2h-4l-1-2v-3l-3-2-2-2-1-5-1-5-2-1h-1v1l-5 10-1 2 1 2h-2l-3-1-2-2-3 1h-4l-2-1-2-1-1-3v-3l-2 2-1 3v-2l-2 2-3 6-1 2h-2l-1 2v3h-4l-4 1h-1v-4l-1-3h-1l-2-1-2-5c-1-3-3-7-5-8l-2-4-3-21-4-32-2-14v-2l-2 1h-3v2l-1 2-3-2-3-4v-2l-1 1-7 2-5 1-1-1-2-1-1-5-2-5-1-1-2-2-3-6-4-3-1-4-1-5v-1h-2v3l-2 2-2 2 1 5v7l1 2-2 1h-2l1 2v1l-2 1-2 1v4l-2 9-2 6-2 1-3 2-3-3-4-3v-3h-2l-1-2v-1h-2l-3 6-4 6-1 4-1 3h-4l1 2v1l-2 1h-3v-2l-2-4-2-2-3-8-4-11-1-2v-6h-1l-2-1v-4a261 261 0 0 0-1-16l-3-27a963 963 0 0 1-5-49c-1-5 3-20 4-20l1-4 1-3 2-3 2-4 3-5 3-4v2l2-1 3-2v-2l2-5 1-2 1 1 1 1 1-3v-3l2-1 2-1v-3l1 1 1 1 1-2 1-1 1 1v1h4l1-3 2-3v-2l-1-2h3l2-1-1-2v-3l3-4 3-3-1-5v-4l2-2 5-6 3-4-2-3-1-6v-2h2l4-4 4-3-1-4-1-4 2-2 6-5 4-2v-10l1-1 4-1 5-3 2-2v-3l-1-4 1-1 2-2 4-1 4-2 1-3v-3l5-2 5-1v-2l1-3 1-2 4-1 3-2 6-2 4-1 8-5 7-4 3-1h4l2-3 1-2v-8l2-1 2-1 4-1c6-1 16-5 17-7l1-1 5-1h5l4-4 4-3h1l3 1h2l3-1 3-2v-1l-1-1 4-3 3-2 2-4 4-8 1-3h5Z"/><path fill="#F3C010" d="m236 818 4 5 3 4 2 1 2 2 2 3 2 2 2 1h2l-1 1-1 1h2l-1 2-1 1h1l3 1 2 1v-2h3v5l1-1 1-2 1-3 1-3v-1h1l4 2 3 2 5 2 4 1v-2l1-4 3-3 2-2 1 3 8 10h1l3 5 2 4 4 2 3 1-1 1-1 1 2 2 2 3 2 1h2v6l1 1 1-1v-2h1l2 2 1 2h-1v2l1 1h-3l1 2 1 2 2 1 4 2v2l-1 1 1 1 4 2 2 1 2 4 4 7 2 2-1 2v2l1 1 2 1v3l1 5v3h3l3 1v4h1l-1 3v3h1l2 1v-3l1 2 1 3v-3h2v-2l1-2h1l2-2v-2 4h3l1-1v-1l1 6v6l1-1h1l-1 1v2l1-2 1-2v4l1-1v-2 1l1 2 4-5 6-6 1-2 3 1h3l1 3 1 4v15l-1 20v4l-5 26-4 25v3l1 2 1-1h1l2 2 1 4v3l1 2-1 6-3 16-2 11-1 1v1l-2 7-2 7h2l-2 6-2 12-1 6h2l2-1 2-5 2-4 1 1 3-3 2-3 1 3c2 3 2 5 2 8l-1 2h1l1-1 1-1h1l-1 4-1 5v2l-1 17-1 13v2l-1 7-1 7v1l-1 6-2 14-6 33-4 14-1 13-3 14a504 504 0 0 0-13 63l-2 8a981 981 0 0 0-8 31l-1 6-1-1-2 8-2 8v-1h-1v3l-1 4-3 2-4 4-1 1-1-2-2-4v-1l-1 1-1-4-1-4-2 1-1 1-1-1h1l-2-2-2-3-2 3-2 3-1-1v-2l-1 3-2 4-1 2-1-3v-2l-1 2v2-6h-1v1l-1-4v-4l-1 2-1 2 1-4v-5l-1 3v3h-1v-6l-1 1-2 2v-2l-1 1-1 2-1 3v3l-1-2-1-2-1 3-2 3v1-1l-1-1v3h-2l-3-4 1-3v-2 1h-1v-2l1-2-2 1-2 1-3 1v2l-2-1h-3l-1-5-2-4-1 1h-1l-1-2-1-2v-2l-1-1-2 4-2 5v-3l-2 2-2 2-1-2v-2h-2l1-1 1-1-3-2-3-3v-1l-1-2h1l-1-2-1-3v-10l-1 1-1 2v-3l-1-4-1 2-1 1v-1l-1-1-1 5-1 4-2 5c-2 6-3 6-5 9l-2 1-1 2c-1 3-2 3-2 1v-1h-1l-1 1 1-1v-1l-1-1h-2l-1-1h-1v3l-1 2-2 4-3 3v-2l-2 1c-1 3-1 3-4-5l-1-2h-1v-3l-1-6v-8l-1-2 1-2v-1h-1v1l-1-4v-3l-2 1-1 1-1 2-1-5-1-4h-1v-2l1-2h-1v-14l-1 2-1 2v-3l1-7 1-4-1 2-1 3v-2l1-7 1-11v-5l-1 1-4 11-3 4-3 4-1 3-1 4-1 1-1 3-1 3-1 2-6 10-1 4h-4v-3l-1 2-1 1h-1l1-2v-1h-2v-2l1-3h-2l-3 6-4 7-2 2-1-1v4l-1-1h-2l1-2v-3h-1v-8h-1v1l-1-3v-5l1-2v-1h-1v-1l1-1v-1h-1l2-8 1-8v1h-1v-1l1-1h-1l-1 1 1-2v-2 1h-1l-1-1v-2l-1 3-1 2-2-2-7-5-2-1-1-2-1-3h-3l2-6 1-6v-1l-1-1 2-5 1-5h1l1-7 2-8v-1l1-2-1-1h-1l-1 2v3l-1-1-2 5-3 7-2 3v2l-1 6-2 3h1v1l-1 1v1l-1 2v3l-2 2-1 2-2 1h-2l-1 2-2 4-1 2v2h-2l-2 1v-6l-1 1v1-3h2l-2-2-1-2 1-3v-4l-1 2v1l-1-1v-1l-1 3-1 4v1h-1v-1l-1 2v2h-1l-1 3-1 3h-2l-1 2v2h-1l-1-1v-5 2l-1 2h-1l-1-1v-3l1-3-1-3v-2l1-6 1-6-1-1h-1v1l-5 9-1 2v2h-1l-1-2v-2h-4l-1-2-1-2 1-3v-4l-1 2-1 3v-2l-1 2-3 5-1 3-1-1v-1l-1 3-1 3-2-1h-2v-4l1-4-1-1v-21l4-24 7-36 3-15v-2l-1-1h-1l-1 2-1 2v-3l-1-5 1-2-1 1-4 1-3-1v-9l1-6v-3l-1-7v-9l1-6v-1h-1v1l-1 2-1 2-2 1-1 6-1 8-1 2h-1l-1 2v1l-1 1-2 1-1 3-3 10-2 6-2 1-2 1v-4l-1-4v-4h-1l1-2v-2h-1l-3 6-4 6-1 3-2 3h-1l-1 2v2l-1-1h-1v-10l1-10 1-12v-3l1-3 1-3-1-1h-1l1-6a629 629 0 0 0 10-47 2345 2345 0 0 1 11-54 93 93 0 0 1 9-25l1-3 2-3 2-4 3-5 3-3-1 1v2l1-1 2-1 1-3 2-5 1-2v1l1 2 1-3v-4h2l1-1v-1l1-1v1l1-1 1-1v3h2l1-3 2-2v-3l1-2h1l1 1v-4l1-3 2-3 3-3 1-5 1-5 1-2 4-5 3-3v-4l1-7 1-2 3-2 3-3 1-4v-5l2-2 4-4 2-1 1-5 2-6 1-1h2l3-2 2-2v-3l1-4 1-1 1-2h3l2-1 1-3 1-4h6v-2l2-4 1-1 1-1h3l3-2h2l5-3 5-3h2l1 1 2-3 1-2 1-4 1-4 2-1 1-1h2c3 0 9-1 10-3l1-1 2 1h3l3-3 3-3v1l1 2 1 1 2-1 2-2v-2l2-2 2-2 3-4 3-7 2-3h1l1 1Z"/><path fill="#3F8CA8" d="m354 1097-1-1-1-3-1-4h-2l-1 3-2 3h-1l-1 1-1-2-2-2v-2l-2-6-1-3-2 1-2 1-1 1-2-1-3-2-2 4-5 9-1-1-2-1v-3l-1-2 2-3 2-5v-4h-1l-3 3-4 5-1 2 1 1 1 1-1-1h-2l-2 5-2 4h-4l-2-1v-5h-1l-2-1-1 5-2 5-1-1-1-1-1 1v-1l-2-4-1-3 1-3 1-3-2-1h-2l-1 2-2 2c0 1-3 7-5 8l-2 2-2 1v-4l-3-1h-2v-3l1-5 1-2h-1l-4 2-2 3-2 5-3 4-6-25v-2l2-1 1-1h6l7-2 7-2-1 4-1 4v2l1 2 1-3 1-3h1l1 1-1-1-1-1 1-2 1-1v2l2-2v-3l-1-1h1l2 1v-1l7-4 3 7-3 2c-1 1-3 2-2 3l3-2 3-2v1l1 2v1h-10v2h-1l-1-1-3 1h-3l-1 2v2h2l-1 1-3 3-1 2 3-3 3-3v-1l-1-1h1l1-1 1 1v1h-1l-1-1 1 1v1l4-1 7-1h4l1-2 1-1v1l2 5 3 4 2 3 3 2-3-4-5-7-1-2h3l3 1-2 1-1 2 2-2 3-2-1-1v-1h1l2 1-1-1v-1h-11l-1-2-1-2 14-9 14-10-14 9-13 8h-1l-1-3-1-3 2-1 15-6 12-5 3 3 2 3-1-3-2-2 8-5 7-5 1 1 2 2v1l-17 15-16 15 18-16 24-21 7-7h-1l-1-1h1l2 1 1-2 3-3 3-1-1 2v1l1 3 2 2-1-2-1-2 9-4 10-4 1 1 1 1v2c0 3-6 12-8 13l-7 4v1h-2l-1 2c-1 1-1 2 1 2h1l7-6 6-5v-2h1l10-7 3-2 4-3 2-3h7l4-2 5-3 1 1 1 1v5l-3 15c-1 3-3 5-4 5-2 0-4 2-7 5l-2 2s-2 0-3 2l-3 2h-1l-1 2-2 2-1 1h-2l-1 3-2 2h-2l-4 4-7 6-3 4-2-1c-1-2-1-2-3 4l-2 4-1 1h-2v3l-10-4-11-5-7-2-7-1-9-1h-9l-1 1-2 1h-1l-1-1 1 1 1 1 10 1h11l7 2 15 5 10 4v1l1 1-3 6-2 6h-1l-1 1-1-2ZM123 1155l1-1 2-4 1-3h1l1 3 2 3h1l1 1 1-2 2-2v-3l2-5 1-3 2 1 2 1 1 1 3-2 3-1 1 4 5 9 1-1 2-1v-3l1-3-2-2-1-6-1-2 1-1 3 3 4 5 1 2h-1l-1 1h3l2 4 2 5h1l3-1h2v-5l1-1h2l1 5 2 5 1-1 1-1h1v1-2l2-4 1-2-1-3-1-3 2-1h2l1 1 2 3c0 1 3 7 5 8l3 2 1 1v-4l3-1 2-1v-2l-1-5v-2l4 2 2 3 2 4 3 5 6-25v-2l-1-1-2-1h-6l-7-2-7-2 1 4 1 3v2l-1 2-1-3-1-2h-1l-1 1 1-1 1-1-1-2-1-1v1l-2-1v-4h1-3l-7-4-3 7 3 2 3 2c-1 1-2 0-4-1l-2-2-1 1-1 2 1 1h9v2h1l1-1 3 1h3l1 2v2h-2 1l3 3 1 2-3-3-3-3 1-1h-1l-1-1-1 1v1l1-1h1v1h-5l-7-1h-4l-1-2-1-1v1l-2 5-2 4-3 2-3 3 3-4 5-7 1-2h-6l2 2 1 2-2-2-3-2 1-1v-1h-2v-1h11l1-2 1-2-14-9a186 186 0 0 1 13 7h1l1-3 1-3-2-1-15-6-12-5-3 3-2 3 1-3 2-3-7-4-8-5-1 1-2 2v1l17 14 17 15-19-15-24-21-7-7 1-1h1-3l-1-1-3-3-3-2 1 2v2l-1 3-2 2 1-2 1-3-9-3-10-4-1 1-1 1v2c0 3 6 12 9 12l6 5v1h3v1c1 2 1 2-1 2h-1l-6-5-7-5v-2h-1l-10-7-3-3-4-2-2-3h-7l-4-3-5-2-1 1-1 1v5l3 15c1 3 3 5 5 5l6 5 2 1 3 2 3 3h1l2 2 1 2 1 1h2l1 3 2 2h2l4 3 7 7 3 4 2-2c1-1 1-1 3 4l2 4 1 1 2 1v3l10-5 11-4 7-2 7-2h9l9-1 2 2 1 1h1l1-1-1 1v1h-11l-11 1-6 2-16 5-10 4v2l2 6 2 6h1l1 1 1-2Z"/><path fill="#fff" d="m102 1277-2-4-1-59v-59H83l-3-3-3-3v-18l2-5 1-6 5-2c6-4 8-5 5-2l-3 2h1l9-2 6-2 1-6 6-26 5-20 7-21 16-43 9-22 12-26 13-25 12-18c14-22 26-37 41-52l11-11 10-6 9-6 8-3 8-2 14 1h13l5 5 5 4 3 7 6 15 2 9 2 24 1 25-1 22c-1 28-3 40-9 72l-5 26h45l-17 1-23 2-6 1v9l6-1 8-2 1-1 35 1h36l5 1 5 2 5 5 4 5 1 5 1 6-1 4-2 4-6 3-16 6-11 3-13 1-40 2-27 1-1 9c-4 19-15 120-15 137v8l-2-4-1-3 1-13a581 581 0 0 1 6-61l9-70v-3h-46l-4-2-4-2-1-3-1-9v-6l3-4 2-4 6-6 6-5h-23l-8 3c-4 2-8 3-9 2l9-4 8-4h30l7-4 8-3 13-3 14-4 12-61 2-16v-78l-2-11-1-11-3-8-4-9-6-6-6-7-16 1h-16l-8 4c-32 17-70 66-99 127-22 46-42 104-50 146l-1 4 3-1 37-9 9-1h40l2 2 2 2 1 6 2 6-2 5-1 5-6 4-16 9-11 6-11 3c-13 3-32 6-44 6h-9l-1 18-1 18 1 40 1 40 1 5c2 6 1 6-1 1Zm29-127c7 0 15-2 19-3l5-2-7-1-8-1-5-3c-6-3-16-14-19-20-4-8-2-7 3 1l5 7 8 6 7 6 8 2 8 1 2-2 2-3 1-10 1-11-1-6-1-6-2-1-2-1-16 3-17 4-8 3-8 3v3l-4 29v4h8l21-2Zm224-60 21-2 11-3 16-6 4-2 2-3 1-4-1-5-1-5-5-5-5-5h-34l-35-1v15l-2 7-2 8-3 1-3 2-10-1h-10v6l-1 5h36l21-2Z"/><path fill="#3F8CA8" d="M217 1181h-4v-2l-1 1h-2l-1 1h-1l1-1 2-2 1-2v-2h-2 1-2v1h-1v1h-1 1-1l-1 1v-1l1-2h1v-1h-1l1-1h1v-1h-1l-1 1v1-1l-1 1h-1v-1h1v-3l-1 1h-1v1-1 4l-1-1-1-1 1-1v-2l1-2 1-1 1 1v-1h1v1h1l1-1v-1l2-1 1-1 1 1h-1l-1 1h1l1-1-1 1v1l1-1h1v2h1v-1h1v-1h1-1l2-2 1-1h1l-1 1v1h-1 1v2l-1-1 1-1-1 1v1h1v-1h1l1-1 2-2 1-1 1 1v-1 1l1 1v-1h1l-1 1h3l1-1-1-1v1h-1l-1-1h-1v-1h4l-1 1h-1 2l1-1-1-1v-1h-1v-1h1v1-1l1-1v-1h-1v-2h-1l-1-1v-1l1-1-1 1-1 1h-1v-1l1-3v-1h-2v-1h-3l-1 1v-1h-4l-1 1h1l1 1h-4l-1-1v-1h-1v1h-1v1l-1-1h-1v-1l1-1h-1l1-1-1-1-1 1v1l-2 1v-2h-1v2h-1v-1l-1 1h-1v-1l-1 1-1 2v2l-1-1h-2l-1 1-1 2v3h-1v2l-1 1a39 39 0 0 0-3 4l-2 2 1-2 1-3 1-3 1-2v-4l-1 1-1 2-1 3-2 4v4h-1v2l-1 1v1h1l1-1 1-1v-1 1h1-1v1h-1 1-1v2l-1 1v1-2h-1v2l-1 1v-1 1h-1v1l-1 1 1-1h-1l-1 1v-1h-1l-2 1h-1v-1h-1l-1 1h-1v-1l-1 1h-2v-2l1-2 2-3v-1l2-5 1-1 1 1v-1l1-1 1-3 1-3v-1l1-2-1-1v-1h-1v1l1 1v2l-1 1v1h-1v-10l-1 1 1-1v-1l3-4 5-5 1-1h1v1h1l2-1 1-1 1 1h3v-3l1-2 7-8 5-4 1-1v-1l-1-1v1l-1 1h-1l-1-2h1v-1h2v-1l3-2 1-1h2l1-1h2-1 1v1-1h2v-1h-1 1l1 1v-1h2v1l1-1v-2h-1 2v1-1l-1-1h-1v1l-1-1h1-1v-1h1l1 1v-1h2-2v-1l-1 1v-1h-1v1h-1v-1h-2 1-5 1-1v-1h3v1h1v-1h-1 1l-1-1h-3v-1h2l1-1h10l1 1v-2h3l1 1h-1 1v4l-1 2v7h-1l1 1v1h-1l-1-2h-1l-1-1v-3l-1-2v-1l-1-1v3h1v-1h-1v-1h1v3h-1v1h1v-1 1h-1v2l-1 2-1 1h1-1v1h-1l1-1h-1v2l-1-1v1h-1v-1l-1 1h-2v1h1v-1 1h1-2 2l1 1v-1 2-1h-1v-1h-1v1h-1l1 1v-1 1h-1v-1l-1 1h-1v2l-1-1v2h-1v1h-1l1-1 1-1h-1l-1 1-1 1s-1 0 0 0h-1v1l-1 1-1 1h1-1v2h-1l1-1h-1v-1 1h1l-1-1h1v-1l-1 1-1 1h-1v2h-1l1-1-1 1h1v-1h-1l-1 1h1l-1 1h2l-1 1s-1 0 0 0v-1h1l1-1v2h-1v1-1 1-1l-1 1-1 1h-1 1l-1 1h1v1h1v-1l1-1h1-1 2v2l1-1v-1h1v-1l1 1 1 1v-1h2v1-1h1v1h-1v1h-1l1 1h1-2v1h1v5h1l1-1-1 1v-1h1l1 1h1l1-1c1 0 1 0 0 0v3h-1v1-1 1h1-1 1l1-1-1 1h1l1-1h-1v-1h1v-1l1-1v2h1l1-1v1h1v-1h1-1c0-1 0-1 0 0h-1l1-1 1-1v-1h1v-1h-1v1h-1l1-1h-1l-1 1h1v1h-1l-1 1v-1h1-1v-1 1h1v-2h3v-1l1-1-1 1h-1 1l1-1h1l-1-1h-1v-1l1 1 1 1 1-1v-1l-1 1 1-1h2v1h1v-1h1v-1h1v1h1v-1h5v-1h2l-1 1h1v1-1h2-1l1-1h3l1 1 1 1v-1h3l1 1h7-13 2l-1 1h-1v1l1-1h2v1h-1 2v1l1-1v1h1v1h-3l-5 1h-4l-1 1h-4v1l-2 1h-2v-1l-2 1h-2v1h1v2h-2l-1 1h1l-1 1h-2l-1 1h3l1-1h2v2h-1v1-1h1v1h2l1-1h-1l-1-1 2-1h1-1v-2h1v2l1-1 2-1h1v1h4-1v2l-1-1v-1 1h-1 1v1h-1v1l-1 2-1 2h1l1-1 1-1 1 1v-1l1-1v-1l1-1 1-1 1 1h1v-1h1l-1-1h5v1h3v1h-1 1-3l1 1v1h2l1-1 1-1v1h2l5-2h1v1-1h6v1l2 1 1 1h-1 2l1 1-1 1-1 1v2h-2v1h-1v-1l-1 1h-5l1-1v1h-4v1h1l1-1v2h-2l-1 1h-1l-1 1v1h-2a100 100 0 0 0-11 7l-2 1-1 1h1v2h-1l1 1h-1l-1 1h1l-1 1h-1l1 2h-3l-1-1-1-1h1v-1h-2l-1 2h-1v1l-1 1-3 2-2 2v-2l1-1v-1l-1 1-1 1-1-1h-2l-1 1v1h-1l-1 1h-1v2h-2l-1-1Z"/><path fill="#305673" d="M256 1280h-4l-1-1h-4l-1-1h-3v-1h-3v-1h-1v-1l-1 1v-1h-2v-1h-1v-1h-1v-1h-1v-1h-1v-1 1l-1-1v-1h-1v-2h-1v-1h-1v-1h-1 1l-1-1v-1h-1v-1h-6v-1h-1v-2h-5v1h-2l1 1v1h-1v1h-3v1h-3v2h-5l-1 1-2 1-1 1h-2v1l-1-1h-6v-1 1l-1-1h-6v-1h-1v-2h-1 1-1l-1 1h-2v1h-3l-1-1-1-1-1-1v-1h-3v-5l-1-1v-2a48 48 0 0 1 4-4l1-1v-1l-1 1v1l-2 2-2 2v-6h-1 2l1-1h3-8v-1h1l1-1 1-1v-1h1l1-1h1v-2h1l1-1v-1h1l1-1 3-3 1-1 1-1 1-1v-1l-1-1h-8l-1-1h-2l-1-1h-5v-4l1-2v-1l-1-1v-1h1-1v-3l-1-1h-4v1l-1-1v1-1a103 103 0 0 0-1-2l-1-1v-2h-1v-1h1-1v1-1h-3v-2l1-1v-3h1v-1l-1-1-1-1v-1l1-1 1-1v-1l1-1 1-1v-1h1l3-2h1v-2h4v-1h1v-1h1v-1h1v-1h2v-2h3v-2h3l1-1v-1h3l1-1v-1h5v-1l1 1h19v-1h2v1l2 1 1 1v1h1l1 1v1h5v1l1-1 1-1h2l-1-1h2v-1h2v-1h7-1v-1h4l1 1h1l1 1h11l1 1h2v3-2h7v1l2 1 1 1h2v1h1v-1 1-1h5v10l-1 1-1 1h-1v1h-1v-1h-2v2h-1v1h3v-2h1v1h1v1h1l-1 1-1 1-1 1h1-1 1-2 1v-2h1-2v1h-1v1h-1v1h-1v-1h-1v-1h-2v-1l1-1h1v-1h1v-1h-1v1l-1 1h-4v-1h1l1-1 1-1-1-1v1h-4l-1 1h-3v-1l-1 1h-2l-2 1v-1h1-1 1v-1 1l1-1h1v-1l1-1h1-1v1h-4l-1 1-1 1a12 12 0 0 0-3 2h-3v-1h1l1-1h1l-1-1h2l2-1h-1 1c0-1 0-1 0 0v-1h1l1-1h2v-1h1v-1h-1l-1 1v-2h1-2l-1 1-2 1-1 1h-1l-1 1h-2v1l-2 1h-1v1h-2l-3 2-3 2-2 2h-1v1h-1v1h-3l1-1 1-1 4-3a180 180 0 0 1 11-7h1v1-1l1-1 3-1 2-2 1-1h-1l-1 1h-1l-1 1h-1l-1 1h-2l-1 1-5 3-1 1h-1l-2 1-1 1h-1v1a21 21 0 0 1-2 1h1-1v1h-1l1-1-1 1h1-1l-1 1-2 1-1 2-2 2v1l1-1 2-1h1v1l1 1-2 1-1 1v1h-1v1h-1l-1 1v1h-1 1l-2 2h-1v2l1-1h1l1-1h1l2-1v-1h1v-1h1l1-1h1l1-1h1v1l-1 1h-1v1h-1 1v-1 1h-1l-1 1-1 1h-1v2-1 1h2l1-1h1v-1h1-1l1-1v1l1-1 1-1h1l2-1h1v-1h2l1-1h3v1l-2 1h-1 1-1l-1 1v2h-1 1-1v1h1-1v1l-1 1-1 1h-1l-1 1-1 1v1-1 1h-1v1l-1 1h1v2h-2l-1-1h-2a17 17 0 0 0 4 2v1l1-1 1-1v-1h2-1v-2h2l-1 1h1v1h2l1-1h1v-1h-1 3v2-1h-1v1h-1l-1 1h1v-1h-1v1l-1 1h-1 1-2v1h-1 1v1h-1l-2 2-2 1v1h-1v2h-1v5h1v-1l1-1v-3h1v-1h1l2-2 2-2 2-1 1-1h1v-1h1v-1h2-1 3-1 1l-1 1-1 1h-1 1-3v2l-1 1-4 2v1l-1 1-1 1v1h2v-1h1v-1l1-1a54 54 0 0 1 4-3h1v-1 1l1-1h4-1l1-1v6h-1 1v1h-1 1-2 1l-1 1h-2l-2-1h-1l-1 1h1l1 1h4l-1 1v1h-3l-1-1h-4v1h-1v1h13v1h-1 1v1h1v-1h-1 1v1h1l1 1v-1h1v1-1h1v1h1v-1 1h-1 1-1v-1h-1v2h-1 1v1h2v1h5v1h3v1h1l1 1h1l1 1h1v1h2v1h-1 2l1 1h1v1h1-1v1h1v-1h3v1h-1 2-1v-1h3v1h1v1-1 1h-1l-1 2v1h3l1-1h1v1h-1 2l1 1v1h1-1l1 1h1l1 1h1l1 1h1l1 1v1h1l1 1v1h1v1l1 1v1h-1v1h2v1l2 1 1 1h1-1 1-2l-1 1h-4a59 59 0 0 0-5 1h-9v1h1-14Z"/><path fill="#A73A24" d="M201 1253h-1v-1h-3l-1-1h-1v-1 1l-1-1h-1v-3h1v-1h-1v1-1h1-1v-4 1-1 1h-1v1h-1l-1 1h-3c0-1 0-1 0 0v3h-3l-1-1v-6l1-1v-2h1l-1-1h1-1 1v-2l1-1v-1h-1v1h-1v1h-1v2l-1 1v2-1 3-1 1h-1 1-1v1-1 3h-1v2h-3v-1 1-1l-1-2v-2h1v-2h1v-4h1l-1-1h1v1-2l-1-1h-1l-1-1 1-2v-2h-1l-1-1v-3h1v-2l1-2v1l1-1h-1v-1h1v-1h-1 1l-1 1v1h-1 1v1h-1v-1 3l-1 1-1 1h1l-1 1h-3v-3h1l-1-1h1v-1l1-1v-1 1-2 1-1l1-1 1-2v-2 1-1h-1v1l-1 1-1 1v-1 1h-1l-1 1v-2l1-4 1-1v-2h1v-3l-1-1-1 2v1l-1-1h1v-2l-1-1 1-1v-1h-2 1v-1h-1v1l-1 1 1-1v1h-1v-1 1h-1 1-1v1-1 1h-1v1-1h1l-1 1v3h-1v-2h1l-1-1v1-2 1l-1 1h-1v-1h1v-1l1-1h-1 1v-1l1-1-1 1h1v-2 1-2 1-1l1-1v-1h-1v-1l1 1-1-1c0-1 0-1 0 0v-1h-1v1-1h-1c0-1 0 0 0 0l-1-1h-3 1-1l-1 1v-1h-6 1-2l-2-1h1v1l-1-1h-1v-2 1-1l1 1v-1l1 1h5l1-1h1l2 1h2-1c-2-1-2-1 0-1l1 1h1l1 1v-1 1h1l1 1 1 1 1 1v-2l1 1v-1l1-1 1-2v-2h1v-1h1v-2h1l2-3 1-3h1l1-1v-1l1-1h-1l1-1v-2l1-1v-3h1v-1l1-1h1v3h-1v3l-1 2v6-2l1-1v-3h1v-2l1-1v-2l1-1v1-1h1v2l-1 1v1l-1 2v6l-1 1v3c0 1 0 1 0 0h2l1-1v-2 2l-1-1v1-6 1l1-1v-1 2h1v4-1h1v-1h1v-1h-1 1v-1h1-1 1v-1 1-1l1-1 2-3v3h3v1-1h1l1-1s0-1 0 0v-1l1-1v1-1l1-1 2-2 1-1v-1h1v-1l1-1h2v-1 4h-1l-1 2-1 2-1 1-1 1-1 1v2l1-1 1-1v-1h1v-1h1v-1l1-1 1-1v1h1v2h-1v1l-1 1v2l-2 1v1h-1v2l-1 1v2h1v-1h1v-1h1v4-1h1v2-1h1v1-1h1-1v-1h1v-1h1v-1 1l1-1v-2l-1-1 1-1v-3 1l1-1v1l1-1v1h1l1 1v1h1v1h-1v1-1h-1 1v1h-1l-1-1v1h1v1h-1l1 1h-1v1h-1v3l1 1h-1v3l1-1v-2l1-1v-3h1v1l1 1v1h1v1l1 1h-1v1h1v-5h2v1l1 1v2-1 3h-1v3-1h1v1l1 1v1h-2 1-1v1-1h-1l1-1v-1 1l-1 2v1h-1l-1 1v2h-1l-1 5-1 2v1a27 27 0 0 1-2 6v-2h1v-1l1 1h1v-1h1v-1h1v-3l1-3v-2a46 46 0 0 0 1-3l1-1v-1h2v-2h1v6a15 15 0 0 1-1 5l-1 2-1 9v1h-1v2l-1-1h-1l-1 1v1h-1l-1 1v2h-1v2h-1v1l-1 1-1 1v1l-1-1v1h1l-1 1h-1v1l-1 1v-1 2h-1v1l-1 2-1 1 1-1v2l1-1v-1l1-1v-1h1v-1l1-1 1-1v1-1l1-1 1-1 1-1v-2h1v-2l1-1 2-2v-1 1-1 1h1v-2h1v1h1v-1 1h-1v1h1v-1 1-2l1-1v-3l1-3h1v-2 14h-1v1h-1 1v1h-1v2l-1 1v1h-1 1l-1 1-1 2-1 1v1l-2 4h-1v1h-1l-1 1-1 1v1-1l-1 1-1 1h-1v1h-1v2h-1l1-1-1 1v1l-1-1h-1l-1 1-1 1h-1Z"/><path fill="#fff" d="m163 1058 1-1-8 1-7 1-3-3-2-3 2-4 1-4-11 2-12 2-2-1-2-2 2-2a547 547 0 0 0 57-15l10-3v-3l1-46 1-43 1-4 1-3h-1l-13 17-16 21-6 6-3-3-3-3 5-9 4-10 17-23 17-22 3-8 2-7 4-2 4-2 6-9 5-9 3 1 2 1v4l1 5 3-1 4-1 1 3 1 2-3 6-10 13-7 8v13l-3 37-4 43-1 18-2 3-1 2h1l12-3 11-3 6 1h7v5l-5 3-9 7-15 9-11 6-2 6-2 6h-3l-3 1-2-3-3-3-10 3c-11 5-12 5-11 2Z"/><path fill="#fff" d="m351 1031-10-5-5-7-6-8-2-9-3-9v-31l-5 12-6 12-10 16-10 15-6 4-5 5 3 1c3 1 4 5 1 5l-14-6-20-9-7-4-5-6-6-6-2-8-2-8 1-12 1-13 7-22 8-23 5-9 13-19 6-9 7-4 7-4 8 2 8 2 7 7 7 6 5 13 6 13 2 17 1 15 8-19 8-16 8-12 8-10 9-6 8-6 8-1 7-1 11 4 15 7 5 4 4 7 4 8 1 19 1 19-3 12-3 12-4 10-14 21-9 12-10 10-11 11-6 2-11 3h-4l-9-4Zm-66-22 5-7 7-14 14-32 7-19v-17l-3-8-3-9-5-4-6-5h-10l-6 8-5 7-5 14-6 14-1 12-2 12 2 17 1 16 3 9c5 15 5 15 13 6Zm90-9 7-4 12-14 13-13 5-10 7-18 3-9v-6l-1-12-1-6-5-5-5-5h-13l-7 4-7 5-8 10-12 20-5 10h-3l1-4 2-9c2-8 11-26 14-29l3-2v-7h-6l-5 6c-7 9-19 31-24 47l-5 13v31l3 4c2 3 7 5 9 7l6 2 7-1 7-1 8-4Z"/><path fill="#0E0C0B" d="M595 1439v-3l3-5 6-16 4-12 1-10 2-9-2-9-1-9-3-9-7-22-5-13-2 6-6 16-4 9-5 8-8 10-2 1v2l-1 2-1 1-1-1-2-2-1-20-1-30-1-9-2 8-4 25-3 17-3 9-5 13-3 5h-5l-1-3-3-13-2-13-1-3-2 3-3 3h-3v-4l1-1 1-1v-6l-4-7-11-16-8-10-12-12c-12-12-32-29-33-28s8 48 13 66l3 10 1-15v-15h4v9l1 10v7l-1 7-2 1-3 2h-2l-1-3-2-3-3-10-13-60-2-11-1-1-8-6-7-4-1 2-1 1v-4l-2-1c-3-2-5-2-10-3h-2v-3l-5-2-6-2v4l-1 4 1 2 5 2 8 6 5 5 3 5 3 4 1-1 1-2 1 3 4 16 3 13v10l-1 10-1 1-3 6-2 6v7l-3 6-4 6-2 2-2 1h-2l-2-1v3h-4l-6-2-2-1-2-3-2-3v-3a484 484 0 0 1-3-87l1-7h-21l-3 1-2 2v2l1 2h-2l-3-1-1-2 1-2v-3l5-2 5-3h5l5 1-1-2-1-1 2 1 6 2 3 1 1-2 1-1v-8l-3-1-6-5-2-2v-7l5-8c2-5 9-14 14-21l16-25 7-12-2-13-3-15v-1h4l2 4 2 4v7l1 7a221 221 0 0 0 23-45l2-8v-15l-4-3-3-4-7 1h-8l-5 3-6 2h-2v-4l3-1 8-4 5-1h14l3 2 5 6 2 3v16l-2 7-2 6-4 10-13 23-8 15 4 24 8 51 4 26 7 5 20 17 13 12 10 11a167 167 0 0 1 26 35l-4-31c-16-100-31-239-31-280v-9l-5 3-6 3-1-1-2-1 1 2 1 1-3 1-2 1h-3l-4-2-1-1v-6c0-7 3-30 4-27v9l1-4 1-6 1 1v1l-1 8c-1 8-2 19-1 23v1h1l3-2 2-1h2l8-3a329 329 0 0 1 33-13l5-3 8-2 7-1 3-3 3-3v-1h-4l-1-3-1-4-4 4c-5 5-7 6-7 4v-1h2l1 1 4-5 5-4h1v7h3l-1-1-1-1 2-2 2-1v6l1-1h1l-2 4-1 4-7 1-7 2-9 4-7 4-10 3-9 3-1 7a2462 2462 0 0 0 39 339l2 10 2-4 5-15 3-10 3-21 4-21 2-7 2-7-1-12-2-33c-6-92-17-192-25-226l-2-7 1-1 2-2 1 2 2 2 2 12 7 39 3 27 1-16 1-15 2-11 3-10 1-1 1-1 1 1 1 1-2 12-3 12v23l-1 22 2 27a7371 7371 0 0 0 10 138l5 81c1 1 11-16 14-24 8-20 16-62 22-114l2-17v-31l1-30-1-25c-3-58-10-108-19-133l-3-9 1-1 1-1 2 1 2 1 2 7c7 21 14 67 18 118l1 27v61l-2 22a702 702 0 0 1-6 61l7-11c7-11 35-49 48-64 7-9 8-10 12-21l3-7h3l2-1v6l-4 8-4 8-8 9c-23 28-46 59-54 74l-5 9-2 7-3 8 1 11v10l7 18 6 17 2 10 2 9v10l-1 10-2 9-12 32-1 2h-4v-2Zm-182-75-1-2 3-1 3-1-1-1-2-1 3-3 2-4v-2h2v-2l3-5 2-3v-4l2-6 1-2-1-9c-1-14-2-17-4-23-3-11-10-19-19-25l-4-3-1 1-1 6a1304 1304 0 0 0 3 77l1 3h2v1l7 10v-1Zm26-124-6-40-3-19-1-3-19 28-19 28v3l-1 3 1 1 16 8 26 13 10 5v-1l-4-26ZM358 937l-1-11-1-8h-1l-1 1v-9l-1-9 1-1h1l-1-3-1-2v-7h2l-1-3v-3l-2 2c0 2-2 3-3 3l-1 1v-2l1-2-5 4c-7 5-24 21-26 24l-1 3 4-4 5-4 1 1v2l-5 5-5 4h-5v-5l3-3 2-3h-1l-5 4-4 4v5h-5v-2l-1-2 2-2c2-3 21-19 34-28l9-6-1-2-1-1 3-2 3-1-1 2c-1 2 0 2 3 0l2-2v-10h-3l1-4 1-4h-3v-25l2 2 1 1v-22h-2l-1-1 1-5 1-6h2l1 1v-2l-1-4-1-1 1-2 3-3v-2h6l1 2 1 2-2 1-3 2 1 6 1 7-1 6-1 7v-5l-1-5v39l-1 22h1l23-13 3-3v-40l1-40 1 1h2v39l-1 39 2-1 1-2 1-25 2-37 1-13-1-1-1-2 1-5 1-6h1l2-1 1 1 1 2-1 24-2 42-1 18 4-2 9-6 5-4v-9l3-65 2-10 1-1 1-1 1 1 1 1-1 5-1 4-1 14-2 37-1 22 5-4 6-3v-11a555 555 0 0 1 3-68v-11l2-1 1-1 1-12v-11h4v13l2-1h1l1 7 1 16v9h1l1 1v9l-1 1-1 1 1 23v23h1l3-1 1-2 2-19 2-24v-4l-1 4-2 4 1-6v-6l1-1 1-1 3-30 3-30v-5l-1-4h4v16l-1 16-1 17-2 17 1 1 1 1-1 3-1 3-1 13c-2 15-2 31-1 31l11-5 11-6-1-17-1-21-1-4 1 2 1 3v-32l1-31v-3l1-3 1 1h1v1l-1 33v30l1-3 1-2-1 8-1 36 5-2 4-2v-17l1-16-1-2-2-1 1-4 2-7v-32l1-28 1-1 1-1 1 1 1 2v28l-1 28 2-1 1-1v14h-1l-1-1v35l8-4 7-4v-32l-2-1-1-1v-9h2l1-17 1-29 1-11 1-2 1-1 1 1h1l-2 16-1 29v13l1-1h1v10l-1 1h-1v31l4-2 3-2-1-21v-22h2l1-1v-9l4-50 1-12h2l2 1 1 1-2 10a667 667 0 0 0-3 59l1-3v6l-1 1h-2l2 3 1 3-1 2-1 1-1 15-1 14 5-3 7-4 2-2v-29h-2v-6h2v-57l2 1h1l1 27v26l1-3 1-4v8l-1 1-1 2v32l9-6 9-5 1-8 1-9-1-10v-10l1-1 3-26 3-29 1-3h3v4l-3 27-2 23h1l1 1v5h-1l-1 1-1 16-1 16 10-5 11-6v-22h-2v-4l-1-4h3l-1-25v-24h1l2 3 1 3v44h3l-1 4-2 13v10h1l7-4 7-3 1-4v-9h-2l1-2v-3l1 2 1 2v-2l4-34 4-30h-2l-1-1v-1l2-3 1-2 2 2 2 1v4l-4 32-3 29h1l1 1v5l-1 2-2 1v6l4-2 4-2-1-1v-2l3-1 5-2h2l-1 1-1 2 5-3 3-2 1-24 1-24 2-13 1-13h1l1 1v13c-2 9-4 57-3 57l3-1 2-1 1-17c0-21 2-34 5-56l3-17h1l2 2 1 1-3 19c-3 21-5 44-5 57v8l5-2 3-2-2-1-2-1 2-1 3-2 2 2 1 1 1-2 2-2v-2l5-3 6-3v-7l2-1 2-2v-6c0-8 3-27 6-45l4-16 1-1 1-1 1 1 2 1-4 18-4 17-2 15-2 16v3l1-3 1-2v8l5-3 6-2v-20h2l1-1 1-16 1-30v-13h2l1 14v13l-1 15-1 16 1 1 1 2-1 4-1 10-1 4h1l4-2 4-2-1-6-1-6 1-6 1-6 1 3v2l2-14 6-43 1-2h3v2a348 348 0 0 1-6 43l-1 6 2-1 1-2-1 9v9l-2 1-1 1 1 4v4l9-4 10-3 1-14 1-13h-1l-1-1 1-3 1-4v4l1 3v-8l1-20 1-11h3v12l-1 13h4v-3l-1 1-1 1v-1l2-3 1-1 1-5 3-13 2-7 2-1 1-1 1 1 1 1-2 7-3 11-1 4 1-1 2-1-1 5-3 17-1 12-1 1-1 1-1 6-1 7 2-1 30-9 2-1v-20l1-19-1-1-2-1 1-14 1-15 2 1h1v-3h6l-1 5-1 7v2h6l-1 5-1 7-1 2 1-1 2-1v1l-2 5-2 3-1 16-2 17h1l1 1 7-4 8-4 2-3 4-6 2-2 1 1v4l-1 3-4 3-4 4-8 4-8 4v11h1l8-2 44-13h3v4l-3 1-37 11-18 5 1 8 1 23v5h-4l-1-1v-2l-1-15-1-16-8 3-18 8-9 4 1 12v12l2 5 1 4 2 1h1v2l-1 2-1 1-2-1-2-1-2-5-2-5-1-13-1-12-1 1-2 1-1 11-2 15-1 4-1-1h-1v-3l1-13 1-11-1 1-9 5-9 4v30h1l1 1v4h-4l-1-2-1-2v-14l-1-14-5 2-4 2v12l1 12-1 3-1 3h-3l1-14v-14l-4 2-7 3-3 1v11l1 10 1 2 2 2-2 1-2 1-2-1-1-2-2-10-1-10-14 5-14 6 1 17 1 20v2h-4l-1-1-1-18v-17l-2 1h-2l-1 15v15l2 1 1 1-2 2-1 2-2-1h-1v-33l-1 1-13 5-11 5v28l1 1h1v2c-1 3-3 3-5 0l-2-1-1-9v-18l-7 4-7 3v35l1-1 1-1 1 1 1 1-1 5-2 6h-3l-1-2v-41h-1l-11 5-9 5v6l1 12v6l2 2 3 2v3h-7l-1-3-2-3v-15l-1-7-9 5-9 4 1 10v9l-1 4-1 3h-3v-2l1-8 1-5-1-4-1-4-7 3-6 4v20h1l2 1 1 1-2 7-3 6h-4v-33l-4 2-3 2v12l-1 17-1 5-2 1h-2v-11h3v-23l-8 3-9 4 1 25v24l-2 2-2 1-1-2-1-2 1-23v-23l-4 1-5 2v11l2-2 1-3 1-2 1 1 1 1-2 6-3 11-1 5h-3v-13l1-13h-2l-11 5-10 5-1 23-1 23v3l-1 4-2-1h-2v-4l1-14 1-11-2 5-1 6h-4v-6l-1-12v-6h-1l-5 4-5 3v40l1 1 2 1-2 6-2 6h-4l-1-25v-25l-5 3-4 3 1 10v10l2 1 1 1-1 1-1 6-1 4h-2l-1-15-1-15-9 5-8 5-1 12-1 12 1 9v8l-1 1-2 2-1-1-1-1v-11h-2l-1-5-3-12v-7h-1l-12 6-12 6v14l2 5 3 9 1 5-3-1h-2v4l1 9v5h3v1l-1 6-2 4h-4v-1Z"/><path fill="#F3C010" d="m423 1541 1-1-2-1-2-1v-10l1-15 1-5 6 1h6v-8l-3-3c-3-4-11-8-18-10l-7-2v-5l1-10 2-18c2-20 9-70 13-84l2-6h2l5 1 3 2h9v-5h3v-3l-8-6-8-6 1-7v-7l2-2 1-2h7v3l1 3v-8h6v10h-6l7 9 8 9 5 3 4 3v1c0 2 7 7 11 8l3 1v-6l-2-4-3-4h-1l-2-1-2-3-8-6-6-5-3-6-4-6v-6l-2-7-2-2h-7l-1 1-1 2h-4l-1-2v-2l2-5 2-5v-13l6-1 7-1h2v8l2-1 2-1 1-2-1-1-1-5v-4l6-1 7-1 11 1 16 1 4 1 4-1 5-1 1-5 1-4h5l4 7 4 7 2-3 3-3h2l6 2 3 1 1-2 2-2h6v2l1 1h11l1-1 1-2h6l-1-3-2-2 1-9 3-11 1-3h2l3 1 2 1v18h4l3 6 4 6h5v4l-1-2-1 1-1 1 2 4 1 3h3l3-1v-1l2-2h1v4c0 5-3 23-6 33l-3 16v7l-4 2-3 2v-2l-1 2-16 13-2 2-1 2h-3l-1 3-2 3-1-1v-1l-3 4-3 5a155 155 0 0 0-23 27l-3 3 1 1 1 1-3 1-2 2v4h-2l-2 1 1 2v1l-1 1h-2l1 2v1l-2 1-1 1v1l1 1-3 3-2 2 1 1 1 1h-3l1 1v2l-1 2-2 2 1 1v1h-3l1 1 1 1h-2v6l-2 1-1 2v6l-1 5h-2v2l1 2-1 2c-2 3-2 22-1 37l1 14 1 6h-3l1 1 1 1h-6l-2-1-3-6-1-4v-1l1-2-2-2-1-2v2l-1 1h-1v-2l1-2h-5l1-4 1-5h-3l-1 5v4h-3l1 2 1 3-4 4-8 9-3 4-1-2-2-3 1-1 1-1h-3l1-1v-2h-2v-5l-1 2v2l-2-2-2-2 1 2 1 2h-3l1-3v-2l-2-1-1-1v-3l1-3-1-2v-2l-2 1-2 1v-18l-1-4-1 2-1 2v19l-2 5-2 6-2 3-1 1-2 4-3 3h-1l-1-1v2l-1 3h-3v-1Z"/></svg>