<svg width="400" height="527" fill="none" xmlns="http://www.w3.org/2000/svg"><path d="M0 283.6V40l1 .8 1 .7 1.2-4.4 2-6 .9-1.8v-3h1.5l.2-1.6.2-1.6h1.2l.4 2 .4 2 3.6-.4 3.5-.5 1-1.6 1-1.6.5-4.3.6-4.1H22l.6 1.6.7 1.5 2-.3 1.8-.2v-.7l-.3-.8.8-.6c.4-.3 1.3-.8 1.9-1l1.2-.4.1 1.6.2 3.3v1.8l.8 3 .7 3 2-.2c1 0 3.3 0 5.1.3l3.4.7.2 1.5.3 1.4v-2.6l.5.4 1 1.3c.3.3.9.5 1.1.4l.6-.2.2 2.7.2 2.7-.2 2-.2 2.1.3.8.4.6-.2 1.1-.2 1h1.5l.7 1.6.6 1.5H51l.7-1.9c.8-2.4 2-8.3 2-9.8v-1h.7v-1.6A64.2 64.2 0 0 0 56 19.4V18h.5v-2.6l-.1-2.5.7-1.5C58 9.1 59.6 4 59.3 4c-.1 0 .2-.9.7-2l1-2 .5.6 1.3 2.5c1.7 4.3 3 7 4 8l1 1.2 2 5.1a149 149 0 0 1 2.8 7.7L75 31c1 1.7 3 5.8 4.5 9 1.6 3.2 3 5.8 3.2 5.8.2 0 1 1.6 1.8 3.6l1.4 3.6H87l1.3.2.3.8.4.9 1-.1 1-.1.8 1.4.9 1.5V68.1h1.4l-.4 1.1-.5 1h.7c.8 0 2 2 2.4 3.8l.2 1-.2 10-.2 9.9.6.6.5.8 1.3-4.1 1.2-4 .4.8.4.8-.2-1.1-.3-1.2 1-2 1.3-3.8.5-1.8 1.1 1 1.1 1.2 2.1-.2h3.8l1.7.1.7-1.5a5 5 0 0 1 1.9-2.1l1.2-.7v-2l.7-.7a17 17 0 0 0 1.8-2.3l1.1-1.6-.5-1-.4-.9 2 .5c1.2.4 2.2.9 2.4 1.2l.2.6v-2l.7-.6.6-.6.2 2.8c.2 1.6.2 3.5.2 4.2v1.3l.8.7c.5.5 1.5 1.9 2.2 3.2L130 83h1.4l4.5.1 3.2.1.4-1.8.4-3.3v-1.4H141.1l.1-1.6.2-1.7 1.1.3 1 .2 1.3-3.4 1.2-3.3.3.5.3.5V65l.8-1.3c.4-.6.8-1.6.8-2.1v-.9h1.5l.8 2.5 1.6 4.6.8 2.1.6-.6c.3-.4.7-.5 1-.3l.3.5.2-3 .9-8.6.6-5.7h.5c.3 0 1 .6 1.5 1.5l2.1 2.7 1.2 1 2 .4 2.1.2 1.6-2.8 3.3-5.3 1.7-2.5v-1.4a119 119 0 0 0 1-8.5l.3-3.5h.6c.3 0 1.3 1.2 2.4 2.6l1.9 2.6.3-.8c.2-.4 1-1.5 1.9-2.3l1.5-1.2.6.5.7.5-.2-1-.2-.9.4-.5c.3-.2 1.1-.7 2-1l1.5-.4.2 3.6.2 3.5.4 1.3.5 1.2v4l1.1.7c.6.3 1.2 1 1.3 1.6l.2 1h1.5l.3 2 .4 1.7.2-1.4.3-1.4 1.8 1.5 1.8 1.6 1-2.7c.5-1.5 1.3-3.4 1.9-4.1l1-1.4.7 2.8c.5 1.5.9 3.3.9 4 0 .6.5 2.7 1 4.8l1 3.6 1.5.2 1.6.2.9 2.8c.5 1.6 1 2.9 1.2 2.9.2 0 .7.6 1.1 1.5l.9 1.5.4-1c.3-.5 1-1 1.5-1h1l.7-2c.4-1.3.8-2.2 1-2.2l1.4 1 1.3.7 3.8-1.2L227 62l.5 1.2.5 1.2-.3-1.8-.1-2 .2.4c.4.4 1.5-3.9 1.8-6.7l.3-2.6.6-2 .7-1.9 1 .5a4 4 0 0 1 1.4 2c.5 1.5 1 2.1 3.8 4l1.5.9 1.7 2.9 1.8 3 1.8.3 2 .3h.5l-.1 1.8v1.9l.5.4.6.3v-3.4l1.8.2 1.9.2.8-1.5 1-2.1c0-.4.5-1 1.1-1.3l1-.7.7 3a77.2 77.2 0 0 0 2.5 11.8l1.9 6.6.8-1.1 1-1.2.6.3c1 .4 1.4 2 1.9 7l.4 4.6.8 1.7.8 1.8h1.5l-.2.8-.2 1h.6l.2 3.7.2 3.8.7.5.7.6 2.6-.6 3.5-.8.8-.2v-.8l.1-1.6c.1-1.4 1.2-6.2 1.2-5.2v.8l.4-1 .4-1.1 1.3 1.5 1.3 1.5 2.7.6c1.5.3 3.3.7 4.1.7h1.4l.4 1.3c.2.8.7 1.7 1.2 2l.8.7 1-1.2.8-1 .6-2.7a30.3 30.3 0 0 0 1-6.8 108.1 108.1 0 0 0 .7-10.4l.2-2.5.3.6.2.5.2-1 .2-1 1.2 1 1.1.8 2-.7c2-.6 2.6-.6 6-.2l2 .2.2-1.2.2-1.2 1.4-1 2-1.7.6-.6-.2 1-.2 1 1.4-.9c.7-.4 1.8-1.2 2.2-1.9l1-1.2.3.7.3.7-.2-1-.1-1.1.8-1.4c.5-.9 1.1-1.5 1.5-1.4h.5v-1.8l.2-2.6c.2-.4.3-1.2.3-1.5a27.4 27.4 0 0 1 1.1-5v1l.4-1.2.3-1.2.9 1.5.8 1.4 1.6.7 5 1.9c.4 0 .8.5 1 .8 0 .3.6 1.2 1.2 1.8l1 1.3.2-.8a3 3 0 0 1 1-1.5l.6-.7.2 1.5.2 1.5h2.9l-.2 1-.2 1.2h1.4l-.2-1-.2-1 .6-.7.7-.7.6 1.2c.4.7.7 1.6.7 2.2v1h-1.1l.2.7c.1.4 1 .7 2 .8l1.7.2-.2-.8v-.9l.9.2 1 .3v4.9h.5c.3 0 1.2.7 2 1.6l1.4 1.7 2.1-5.8c2.7-7.4 5.2-15.2 5.2-16.5l-.4-2.2-.4-1.2.4-1.5.4-1.5-.3-.7-.2-.9.6-1.5.6-1.5h3.5l1-1.5 1-1.4.9-3 .9-3v-3.7l.6-.5.7-.7.9.6.9.6.5-2 .7-1.6c.3.6 1.7-1.2 2-2.5l.4-1.5.5.7.5.6-.2-1.5-.3-1.5.5 1.5.6 1.4 2-2.5a30.7 30.7 0 0 1 3.4-4l.8-1 .6 2.1.6 2.3-.2 1.4-.1 1.3.6.5.6.5V25l1.6-.8 1.6-.9.5-1.6c.2-.8.5-2.1.5-2.8 0-1.6 1.3-5.2 1.8-5.3h.5l1 2.6 1 2.6h4.8c.5 0 1.3.1 1.7.5l.8.4.1 253.6.1 253.7H0V283.6Z" fill="#fff"/><path d="M104.8 446.4V457h-.6v-10.6h-4v-.6h8.5v.6h-3.9Zm5.8-1.2h.6v5c.2-.5.5-.8.9-1 .4-.4 1-.5 1.6-.5 1 0 1.6.2 2 .8.5.5.8 1.3.8 2.3v5.2h-.6v-5.1c0-1-.2-1.6-.6-2-.4-.5-1-.7-1.7-.7l-1 .1-.7.4a2 2 0 0 0-.5.6 2 2 0 0 0-.2 1v5.7h-.6v-11.8Zm14.2 11.8c-.4 0-.6-.2-.6-.7v-.6h-.1c-.2.5-.5.8-1 1a3 3 0 0 1-1.6.5c-.8 0-1.5-.2-2-.6-.4-.4-.6-1-.6-1.7l.1-1c.1-.3.3-.5.6-.7.2-.2.5-.4 1-.5l1.4-.2h2.1v-1c0-.8-.1-1.4-.5-1.8-.4-.3-1-.5-1.7-.5-1.1 0-2 .5-2.3 1.4l-.4-.3c.2-.5.5-.9 1-1.2a3 3 0 0 1 1.7-.4c1 0 1.6.2 2.1.7.5.4.7 1.1.7 2v5.1h1.3v.5h-1.2Zm-3.2-.3 1-.1.8-.4.5-.7c.2-.2.2-.5.2-.9V453h-2c-1 0-1.6.1-2 .4-.4.3-.6.7-.6 1.2v.5c0 .5.1 1 .5 1.2.4.3 1 .4 1.6.4Zm7.4.3c-.4 0-.7-.2-.7-.7v-7H127v-.4h1l.4-.1v-2.2h.6v2.3h1.9v.5h-2v7.1h1.9v.5H129Zm4.9-12c.2 0 .3 0 .4.2l.1.3v.2c0 .5-.1 1-.3 1.4a4 4 0 0 1-1 1.3h-.4l.8-1.2c.2-.3.3-.7.3-1-.2 0-.3 0-.4-.2l-.1-.3v-.2l.1-.3.5-.2Zm5 12.2a4 4 0 0 1-1.8-.4c-.5-.2-1-.6-1.3-1.1l.4-.3c.4.4.8.8 1.2 1 .4.2.9.3 1.5.3.7 0 1.2-.2 1.6-.5.4-.3.6-.7.6-1.2 0-.6-.2-1-.5-1.3a3 3 0 0 0-1.5-.5l-.6-.1c-.4 0-.7-.2-1-.3-.3 0-.6-.2-.8-.4a2 2 0 0 1-.5-.6l-.1-1c0-.3 0-.6.2-.9l.5-.7.9-.4 1-.1c.7 0 1.3.1 1.7.3l1 .9-.4.3a3.5 3.5 0 0 0-.8-.7l-.7-.2-.8-.1c-.6 0-1.1.1-1.5.4-.4.3-.6.7-.6 1.2 0 .6.2 1 .5 1.2.3.3.8.4 1.5.5l.6.1c.8.2 1.4.4 1.8.8.4.3.6.8.6 1.5a2 2 0 0 1-.7 1.7c-.5.4-1.2.6-2 .6Zm11.8 0c-1 0-2-.4-2.5-1.1-.7-.7-1-1.8-1-3.2 0-1.3.3-2.4 1-3.1a3 3 0 0 1 2.4-1.1 3.1 3.1 0 0 1 2.5 1l.7 1.4.2 1.6v.3h-6.2v.4c0 .5 0 1 .2 1.4.1.4.3.7.6 1 .2.3.5.5.9.7l1.2.2c1.3 0 2.2-.6 2.7-1.9l.4.3c-.2.6-.6 1.1-1.1 1.5-.6.4-1.2.6-2 .6Zm0-8c-.5 0-.9 0-1.3.2l-.8.7a3 3 0 0 0-.6 1l-.2 1.4h5.6c0-.6 0-1-.2-1.4-.2-.4-.3-.8-.6-1l-.8-.7-1.2-.2Zm5.8 7.8v-8.1h.6v1.2l.8-1c.5-.3 1-.4 1.7-.4 1 0 1.6.2 2 .8.5.5.8 1.3.8 2.3v5.2h-.6v-5.1c0-1-.2-1.6-.6-2-.4-.5-1-.7-1.7-.7l-1 .1-.7.4a2 2 0 0 0-.5.6 2 2 0 0 0-.2 1v5.7h-.6Zm11.7.2c-1 0-2-.4-2.5-1.1-.6-.7-1-1.8-1-3.2 0-1.4.4-2.4 1-3.1.6-.8 1.4-1.1 2.5-1.1 1 0 1.9.3 2.5 1 .6.8 1 1.8 1 3.2 0 1.4-.4 2.5-1 3.2-.6.7-1.4 1-2.5 1Zm0-.5c.9 0 1.6-.3 2-.9.6-.6.8-1.4.8-2.4v-.9c0-1-.2-1.9-.7-2.4-.5-.6-1.2-1-2.1-1-1 0-1.6.4-2.1 1-.5.5-.7 1.4-.7 2.4v.9c0 1 .2 1.8.7 2.4.5.6 1.2.9 2.1.9Zm11.1-1a2.4 2.4 0 0 1-.8 1l-.8.4h-1c-.8 0-1.5-.2-2-.7-.5-.5-.7-1.3-.7-2.3v-5.2h.6v5c0 1 .2 1.7.6 2.2.4.4 1 .6 1.7.6a3.2 3.2 0 0 0 1.7-.5l.5-.6c.2-.3.2-.6.2-1V449h.6v8.1h-.6v-1.2Zm10.3 2.3a2 2 0 0 1-1 1.8c-.7.4-1.6.6-2.9.6-1.2 0-2-.2-2.6-.6-.6-.3-.8-.8-.8-1.5 0-.5 0-.8.4-1.2.2-.3.6-.5 1-.6-.5-.3-.7-.6-.7-1.2 0-.4 0-.7.4-.9l1-.5c-.5-.2-1-.6-1.2-1a3 3 0 0 1-.2-2.6 2.5 2.5 0 0 1 1.5-1.4c.4-.2.8-.2 1.2-.2.7 0 1.3.1 1.7.5v-.7c0-.4.2-.6.6-.6h1.5v.5h-1.7v1c.3.3.4.6.6 1l.2 1-.2 1.1a2.5 2.5 0 0 1-1.5 1.5 3.4 3.4 0 0 1-2 0l-1 .5c-.3.2-.4.4-.4.7 0 .2 0 .4.3.6.1.2.5.3 1 .3h2c1 0 1.7.1 2.1.5.5.3.7.8.7 1.4Zm-.6 0c0-.4-.1-.8-.5-1-.3-.3-.8-.4-1.6-.4h-2.6c-.4.1-.8.3-1 .6-.3.2-.5.6-.5 1 0 .5.2 1 .7 1.2.4.3 1 .5 1.8.5h.8l1.2-.1a3 3 0 0 0 1-.4l.5-.5c.2-.3.2-.5.2-.9Zm-3.3-4.3c.7 0 1.3-.2 1.7-.6.4-.4.5-.8.5-1.4v-.6c0-.5-.1-1-.5-1.4-.4-.3-1-.5-1.7-.5s-1.3.2-1.7.5c-.3.4-.5.9-.5 1.4v.6c0 .6.2 1 .6 1.4.4.4.9.6 1.6.6Zm5.8-8.5h.6v5c.2-.5.5-.8.9-1 .4-.4 1-.5 1.6-.5 1 0 1.6.2 2 .8.6.5.8 1.3.8 2.3v5.2h-.6v-5.1c0-1-.2-1.6-.6-2-.4-.5-1-.7-1.7-.7l-.9.1c-.3 0-.5.2-.8.4a2 2 0 0 0-.5.6 2 2 0 0 0-.2 1v5.7h-.6v-11.8Zm15.6 12c-1.1 0-2-.4-2.6-1.1-.6-.7-1-1.8-1-3.2 0-1.3.4-2.4 1-3.1a3 3 0 0 1 2.5-1.1 3.1 3.1 0 0 1 3.1 2.4c.2.5.2 1 .2 1.6v.3h-6.1v.4c0 .5 0 1 .2 1.4 0 .4.3.7.5 1l1 .7 1.2.2c1.2 0 2.1-.6 2.6-1.9l.5.3c-.3.6-.7 1.1-1.2 1.5-.5.4-1.2.6-2 .6Zm-.1-8c-.5 0-.9 0-1.2.2l-.9.7a3 3 0 0 0-.5 1c-.2.4-.2.9-.2 1.4h5.5c0-.6 0-1-.2-1.4l-.5-1-.9-.7-1.1-.2Zm6.5 7.8c-.4 0-.7-.2-.7-.7v-11.1h.6v11.3h1.3v.5h-1.2Zm6.2.2c-1 0-1.9-.4-2.5-1.1-.7-.7-1-1.8-1-3.2 0-1.3.3-2.4 1-3.1a3 3 0 0 1 2.5-1.1 3.1 3.1 0 0 1 2.4 1l.7 1.4.2 1.6v.3h-6.2v.4l.2 1.4c.2.4.3.7.6 1 .2.3.5.5.9.7l1.2.2c1.3 0 2.2-.6 2.7-1.9l.4.3c-.2.6-.6 1.1-1.1 1.5-.5.4-1.2.6-2 .6Zm0-8c-.5 0-.9 0-1.2.2l-1 .7a3 3 0 0 0-.5 1l-.2 1.4h5.6c0-.6 0-1-.2-1.4-.1-.4-.3-.8-.6-1l-.8-.7-1.1-.2Zm8.6 8c-1.1 0-2-.4-2.6-1.1-.6-.7-.9-1.8-.9-3.2 0-1.4.3-2.4 1-3.1.5-.8 1.4-1.1 2.5-1.1a3 3 0 0 1 1.7.4c.4.3.8.7 1 1.3l-.5.2c-.2-.5-.5-.8-.8-1-.4-.3-.9-.4-1.4-.4-1 0-1.6.3-2.1.9-.5.6-.8 1.4-.8 2.4v.9c0 1 .3 1.8.8 2.4.5.6 1.2.9 2 .9.7 0 1.2-.1 1.6-.4.4-.2.7-.6 1-1l.3.3c-.2.5-.6.8-1 1.1-.5.3-1.1.5-1.8.5Zm6.1-.2c-.4 0-.7-.2-.7-.7v-7h-1.4v-.4h1l.4-.1v-2.2h.6v2.3h1.9v.5h-2v7.1h1.9v.5h-1.7Zm4.1 0v-8.1h.6v1.4c.2-.4.5-.7.9-1 .3-.3.9-.4 1.6-.4h.6v.5h-.7l-1 .1-.7.4a2 2 0 0 0-.5.7c-.2.2-.2.5-.2.8v5.6h-.6Zm5.8-10.6c-.1 0-.3 0-.3-.2l-.1-.3v-.4l.4-.1.4.1.1.3v.1l-.1.3-.4.2Zm-.2 2.5h.5v8.1h-.5v-8.1Zm6.5 8.3c-1.1 0-2-.4-2.6-1.1-.6-.7-.9-1.8-.9-3.2 0-1.4.3-2.4 1-3.1.5-.8 1.4-1.1 2.5-1.1a3 3 0 0 1 1.7.4c.4.3.8.7 1 1.3l-.5.2c-.2-.5-.5-.8-.9-1-.3-.3-.8-.4-1.3-.4-1 0-1.7.3-2.1.9-.5.6-.8 1.4-.8 2.4v.9c0 1 .3 1.8.8 2.4.4.6 1.2.9 2 .9.7 0 1.2-.1 1.6-.4.4-.2.7-.6 1-1l.3.3c-.2.5-.6.8-1 1.1-.5.3-1.1.5-1.8.5Zm5.4-10.8c-.2 0-.3 0-.4-.2l-.1-.3v-.4l.4-.1.4.1.1.3v.4l-.4.2Zm-.3 2.5h.5v8.1h-.5v-8.1Zm4.8 8.1c-.5 0-.7-.2-.7-.7v-7h-1.5v-.4h1l.4-.1.1-.4v-1.8h.6v2.3h1.9v.5h-2v7.1h1.8v.5h-1.6Zm9-8.1h.6l-4 10.8c0 .2-.2.3-.3.4l-.5.1h-1.2v-.5h1.5l1-2.5-3.1-8.3h.6l2.7 7.5 2.7-7.5Zm7.4 8.1c-.5 0-.7-.2-.7-.7v-7h-1.5v-.4h1.1l.4-.1v-2.2h.6v2.3h1.9v.5h-2v7.1h1.9v.5h-1.7Zm6.8.2c-1.1 0-2-.4-2.6-1.1-.6-.7-.9-1.8-.9-3.2 0-1.4.3-2.4 1-3.1.6-.8 1.4-1.1 2.5-1.1 1 0 1.9.3 2.5 1 .6.8 1 1.8 1 3.2 0 1.4-.4 2.5-1 3.2-.6.7-1.5 1-2.5 1Zm0-.5c.9 0 1.6-.3 2-.9.6-.6.8-1.4.8-2.4v-.9c0-1-.2-1.9-.7-2.4-.5-.6-1.2-1-2.1-1-1 0-1.6.4-2.1 1-.5.5-.8 1.4-.8 2.4v.9c0 1 .3 1.8.8 2.4.5.6 1.2.9 2 .9Zm15-1c-.2.4-.5.8-1 1a3 3 0 0 1-1.6.5 3 3 0 0 1-2.5-1c-.6-.8-.9-1.9-.9-3.3s.3-2.4.9-3.1a3 3 0 0 1 2.5-1.1 3 3 0 0 1 1.6.4c.5.3.8.6 1 1v-5h.6V457h-.6v-1.3Zm-2.5 1c.3 0 .6 0 1-.2a2.4 2.4 0 0 0 1.3-1l.2-.9v-3.4c0-.3 0-.6-.2-.8-.1-.3-.3-.5-.6-.6-.2-.2-.4-.4-.8-.5a3 3 0 0 0-1-.1c-.8 0-1.5.3-2 .9-.5.6-.8 1.4-.8 2.4v.9c0 1 .3 1.8.8 2.4.5.6 1.2.9 2 .9Zm6.3.3v-8.1h.5v1.4h.1c.2-.4.4-.7.8-1 .4-.3 1-.4 1.7-.4h.6v.5h-.7l-1 .1-.7.4a2 2 0 0 0-.6.7l-.2.8v5.6h-.5Zm5.8-10.6c-.2 0-.3 0-.4-.2v-.7l.4-.1.4.1v.7l-.4.2Zm-.3 2.5h.6v8.1h-.6v-8.1Zm2.6 0h.5l2.8 7.5 2.7-7.5h.6l-3 8.1h-.7l-3-8.1Zm11.3 8.3c-1.1 0-2-.4-2.6-1.1-.6-.7-1-1.8-1-3.2 0-1.3.4-2.4 1-3.1a3 3 0 0 1 2.5-1.1 3.1 3.1 0 0 1 2.4 1l.7 1.4c.2.5.2 1 .2 1.6v.3H319v.4c0 .5 0 1 .2 1.4 0 .4.3.7.5 1l1 .7 1.2.2c1.3 0 2.2-.6 2.6-1.9l.5.3c-.3.6-.7 1.1-1.2 1.5-.5.4-1.2.6-2 .6Zm0-8c-.5 0-1 0-1.3.2l-.9.7a3 3 0 0 0-.5 1c-.2.4-.2.9-.2 1.4h5.5c0-.6 0-1-.2-1.4l-.5-1-.9-.7-1-.2Zm14.8 7.8c-.4 0-.6-.2-.6-.7v-.6h-.1c-.2.5-.5.8-1 1a3 3 0 0 1-1.6.5c-.8 0-1.5-.2-2-.6-.4-.4-.6-1-.6-1.7l.1-1 .5-.7 1-.5 1.5-.2h2.1v-1c0-.8-.2-1.4-.5-1.8-.4-.3-1-.5-1.7-.5-1.1 0-2 .5-2.4 1.4l-.4-.3c.3-.5.6-.9 1-1.2a3 3 0 0 1 1.8-.4c1 0 1.6.2 2 .7.6.4.8 1.1.8 2v5.1h1.2v.5h-1Zm-3.3-.3 1-.1.9-.4.5-.7c.2-.2.2-.5.2-.9V453h-2c-1 0-1.6.1-2 .4-.4.3-.7.7-.7 1.2v.5c0 .5.2 1 .6 1.2.4.3 1 .4 1.5.4Zm6.4.3v-8.1h.6v1.2c.2-.4.4-.7.8-1 .4-.3 1-.4 1.7-.4.9 0 1.6.2 2 .8.5.5.8 1.3.8 2.3v5.2h-.6v-5.1c0-1-.2-1.6-.6-2-.4-.5-1-.7-1.7-.7l-1 .1-.7.4a2 2 0 0 0-.5.6 2 2 0 0 0-.2 1v5.7h-.6Zm-235.4 21.2c-1 0-2-.4-2.6-1.1-.6-.7-.9-1.8-.9-3.2 0-1.3.3-2.4 1-3.1a3 3 0 0 1 2.4-1.1 3.1 3.1 0 0 1 2.5 1c.3.4.5.9.6 1.4.2.5.3 1 .3 1.6v.3h-6.2v.4c0 .5 0 1 .2 1.4.1.4.3.7.6 1 .2.3.5.5.9.7l1.2.2c1.3 0 2.2-.6 2.7-1.9l.4.3c-.2.6-.6 1.1-1.1 1.5-.6.4-1.2.6-2 .6Zm0-8c-.5 0-1 0-1.3.2l-.8.7a3 3 0 0 0-.6 1l-.2 1.4h5.6l-.2-1.4-.6-1c-.2-.3-.5-.5-.9-.7l-1-.2Zm6.5 7.8c-.5 0-.7-.2-.7-.7v-11.1h.6v11.3h1.3v.5h-1.2Zm6.2.2c-1.1 0-2-.4-2.6-1.1-.6-.7-1-1.8-1-3.2 0-1.3.4-2.4 1-3.1a3 3 0 0 1 2.5-1.1 3.1 3.1 0 0 1 2.4 1 5.3 5.3 0 0 1 1 3v.3h-6.2v.4c0 .5 0 1 .2 1.4l.5 1 1 .7 1.2.2c1.3 0 2.2-.6 2.6-1.9l.5.3c-.3.6-.7 1.1-1.2 1.5-.5.4-1.1.6-2 .6Zm0-8c-.5 0-1 0-1.3.2l-.9.7a3 3 0 0 0-.5 1c-.2.4-.2.9-.2 1.4h5.5c0-.6 0-1-.2-1.4 0-.4-.3-.8-.5-1l-.9-.7-1-.2Zm8.5 8c-1 0-2-.4-2.5-1.1-.6-.7-1-1.8-1-3.2 0-1.4.4-2.4 1-3.1.6-.8 1.4-1.1 2.5-1.1a3 3 0 0 1 1.7.4c.5.3.8.7 1 1.3l-.4.2c-.2-.5-.5-.8-1-1-.3-.3-.7-.4-1.3-.4-.9 0-1.6.3-2 .9-.6.6-.8 1.4-.8 2.4v.9c0 1 .2 1.8.7 2.4.5.6 1.2.9 2.1.9.6 0 1.1-.1 1.5-.4.4-.2.7-.6 1-1l.4.3a3.2 3.2 0 0 1-2.9 1.6Zm6.2-.2c-.5 0-.7-.2-.7-.7v-7h-1.5v-.4h1l.4-.1.1-.4v-1.8h.5v2.3h2v.5h-2v7.1h1.8v.5h-1.6Zm4 0v-8.1h.6v1.4c.2-.4.5-.7 1-1 .3-.3.8-.4 1.6-.4h.6v.5h-.7l-1 .1-.8.4a2 2 0 0 0-.5.7l-.2.8v5.6h-.6Zm5.9-10.6c-.2 0-.3 0-.4-.2v-.7l.4-.1.3.1.1.3v.4l-.4.2Zm-.3 2.5h.6v8.1h-.6v-8.1Zm6.5 8.3c-1 0-2-.4-2.5-1.1-.6-.7-1-1.8-1-3.2 0-1.4.4-2.4 1-3.1.6-.8 1.4-1.1 2.5-1.1a3 3 0 0 1 1.7.4c.5.3.8.7 1 1.3l-.4.2c-.2-.5-.5-.8-1-1-.3-.3-.7-.4-1.3-.4-.9 0-1.6.3-2.1.9-.5.6-.7 1.4-.7 2.4v.9c0 1 .2 1.8.7 2.4.5.6 1.2.9 2.1.9.6 0 1.1-.1 1.5-.4.4-.2.7-.6 1-1l.4.3c-.3.5-.7.8-1.1 1.1-.5.3-1 .5-1.8.5Zm11.7 0c-1.1 0-2-.4-2.6-1.1-.6-.7-.9-1.8-.9-3.2 0-1.4.3-2.4 1-3.1.5-.8 1.4-1.1 2.5-1.1a3 3 0 0 1 1.7.4c.4.3.7.7 1 1.3l-.5.2c-.2-.5-.5-.8-.9-1-.3-.3-.8-.4-1.3-.4-1 0-1.7.3-2.2.9-.4.6-.7 1.4-.7 2.4v.9c0 1 .3 1.8.7 2.4.5.6 1.2.9 2.2.9.6 0 1-.1 1.4-.4.4-.2.8-.6 1-1l.4.3c-.2.5-.6.8-1 1.1-.5.3-1.1.5-1.8.5Zm10.4-.2c-.5 0-.7-.2-.7-.7v-.6c-.3.5-.6.8-1 1a3 3 0 0 1-1.7.5c-.8 0-1.5-.2-2-.6-.4-.4-.6-1-.6-1.7l.1-1c.1-.3.3-.5.6-.7.2-.2.5-.4 1-.5l1.4-.2h2.2v-1c0-.8-.2-1.4-.6-1.8-.4-.3-1-.5-1.7-.5-1.1 0-1.9.5-2.3 1.4l-.4-.3c.2-.5.5-.9 1-1.2a3 3 0 0 1 1.7-.4c1 0 1.6.2 2.1.7.5.4.7 1.1.7 2v5.1h1.3v.5H170Zm-3.3-.3 1-.1.8-.4.5-.7c.2-.2.3-.5.3-.9V474H167c-.9 0-1.5.1-2 .4-.3.3-.5.7-.5 1.2v.5c0 .5.2 1 .5 1.2.4.3 1 .4 1.6.4Zm6.3.3v-8.1h.6v1.4c.2-.4.5-.7.9-1 .4-.3 1-.4 1.6-.4h.7v.5h-.8l-.9.1-.8.4a2 2 0 0 0-.5.7c-.2.2-.2.5-.2.8v5.6h-.6Zm12.2-6.1c.3 0 .7 0 1-.2.4 0 .6-.2.9-.4l.5-.7.2-1v-.3a2 2 0 0 0-.7-1.5c-.5-.4-1-.6-1.8-.6a3 3 0 0 0-1.7.4 3 3 0 0 0-1 1.1l-.4-.3c.2-.5.6-.9 1.1-1.2.5-.4 1.2-.6 2-.6l1.3.2a2.7 2.7 0 0 1 1.6 1.5l.2 1.1c0 .8-.2 1.4-.6 1.8a3 3 0 0 1-1.6.9c.7.2 1.3.4 1.8 1 .4.4.7 1 .7 1.9 0 .5-.1 1-.3 1.3-.1.4-.4.8-.7 1a3 3 0 0 1-1 .7l-1.5.2a4 4 0 0 1-3.5-1.8l.5-.3c.4.5.8 1 1.2 1.2.5.2 1.1.4 1.8.4a3 3 0 0 0 2-.7c.6-.5.8-1 .8-1.8v-.4c0-.7-.2-1.3-.7-1.7a3 3 0 0 0-2.1-.7h-1.5v-.5h1.5Zm6.7 6.1v-8.1h.6v1.2l.4-.5c0-.2.3-.3.5-.5l.6-.3a3 3 0 0 1 1-.1c.6 0 1.1.1 1.6.4.4.3.7.8.9 1.3.2-.5.5-.9 1-1.2.3-.4 1-.5 1.7-.5.9 0 1.5.2 2 .8.5.5.7 1.3.7 2.3v5.2h-.5v-5.1c0-1-.2-1.6-.6-2-.4-.5-1-.7-1.7-.7l-1 .1-.7.4-.5.6a2 2 0 0 0-.2 1v5.7h-.5v-5.1c0-1-.2-1.6-.6-2-.4-.5-1-.7-1.7-.7l-1 .1-.7.4a1.9 1.9 0 0 0-.7 1.5v5.8h-.6Zm14.4-10.6c-.2 0-.3 0-.4-.2l-.1-.3v-.4l.5-.1.3.1.1.3v.4l-.4.2Zm-.3 2.5h.6v8.1h-.6v-8.1Zm4.1 8.2-.4-.1a.5.5 0 0 1-.1-.4v-.2l.1-.3.4-.2c.2 0 .4 0 .5.2l.1.3v.2l-.1.4-.5.1ZM101.9 431v-2.4h3.7v-9.4h-.1l-2.9 3.7-1.9-1.5 3.3-4.4h4.6v11.6h3v2.4h-9.7Zm11.5-14.8h3v8.7l1.4-1.9 2-2.5h3.3l-3.5 4 4 6.5H120l-2.3-4.4-1.4 1.4v3h-3v-14.8ZM127 431l-3.1-14h3l1.3 6.7.7 4h.1l.9-4 1.5-6.7h3.3l1.6 6.7.9 4 .8-4 1.3-6.7h2.9l-3.3 14h-3.4l-1.8-7.6-.7-3-.7 3-1.8 7.6h-3.5Zm17.1-14.8h3v6h.1c.2-.5.5-1 1-1.3.5-.4 1.1-.6 2-.6 1 0 1.8.3 2.4 1 .5.8.8 1.8.8 3.1v6.6h-3v-6.3c0-.7 0-1.2-.3-1.5-.2-.4-.6-.5-1.1-.5a2.5 2.5 0 0 0-1.3.3l-.4.5c-.2.2-.2.4-.2.7v6.8h-3v-14.8Zm20.8 15c-.7 0-1.3 0-1.8-.3-.6-.3-1-.6-1.4-1a5 5 0 0 1-1-1.8c-.2-.6-.3-1.4-.3-2.2 0-.9.1-1.6.4-2.3.2-.6.5-1.2.9-1.6.3-.5.8-.9 1.4-1.1.5-.3 1.1-.4 1.8-.4s1.3.1 1.8.4c.6.2 1 .6 1.4 1l1 1.7c.1.7.3 1.4.3 2.3 0 .8-.2 1.6-.4 2.2a5 5 0 0 1-.9 1.7c-.4.5-.8.8-1.4 1-.5.3-1.1.4-1.8.4Zm0-1a3 3 0 0 0 2.4-1c.5-.5.8-1.5.8-2.7v-1.3c0-1.2-.3-2-.8-2.7a3 3 0 0 0-2.4-1c-1 0-1.8.4-2.4 1-.6.6-.8 1.5-.8 2.7v1.3c0 1.2.2 2.1.8 2.8.6.6 1.4 1 2.4 1Zm7.8-8.4H171v-1h1.8v-2.9c0-.5 0-1 .3-1.2.3-.3.7-.5 1.3-.5h1.8v1h-2.3v3.6h2.3v1h-2.3v9.2h-1.2v-9.2Zm14 9.4c-.7 0-1.3 0-1.8-.3a4 4 0 0 1-2.4-2.8c-.2-.6-.3-1.4-.3-2.2 0-.9.1-1.6.3-2.3.3-.6.6-1.2 1-1.6a4 4 0 0 1 1.4-1.1c.5-.3 1.1-.4 1.8-.4a4.1 4.1 0 0 1 4 3c.2.6.3 1.3.3 2v.6h-7.6v.5l.3 1.5c.1.4.3.8.6 1.1l1 .8c.5.2 1 .2 1.5.2 1.5 0 2.5-.6 3-2l1 .5a4 4 0 0 1-1.6 1.9c-.7.4-1.5.6-2.5.6Zm0-9.7c-.5 0-1 0-1.3.3a3 3 0 0 0-1.7 1.9c-.2.4-.3.9-.3 1.4v.1h6.4v-.1c0-.6 0-1-.2-1.5a3 3 0 0 0-1.7-1.9 3 3 0 0 0-1.2-.2Zm7.2 9.5v-10.2h1.2v1.6c.3-.6.6-1 1-1.3.6-.4 1.2-.6 2-.6 1.1 0 2 .4 2.6 1 .6.7 1 1.7 1 3v6.5h-1.2v-6.4c0-1-.3-1.8-.7-2.3-.5-.5-1.1-.8-2-.8-.3 0-.7 0-1 .2a3 3 0 0 0-.9.4c-.2.2-.5.4-.6.7a2 2 0 0 0-.2 1v7.2H194Zm15 .2c-.7 0-1.3 0-1.9-.3a4 4 0 0 1-2.3-2.8c-.2-.6-.3-1.4-.3-2.2 0-.9 0-1.6.3-2.3.2-.6.5-1.2.9-1.6a4 4 0 0 1 1.4-1.1c.5-.3 1.2-.4 1.8-.4a4.1 4.1 0 0 1 4 3c.3.6.4 1.3.4 2v.6h-7.6v.5a3.6 3.6 0 0 0 .9 2.6l1 .8c.4.2.9.2 1.4.2 1.5 0 2.5-.6 3.1-2l.9.5a4 4 0 0 1-1.6 1.9c-.6.4-1.5.6-2.4.6Zm0-9.7c-.6 0-1 0-1.4.3a3 3 0 0 0-1.7 1.9l-.2 1.4v.1h6.3v-.1c0-.6 0-1-.2-1.5a3 3 0 0 0-1.6-1.9 3 3 0 0 0-1.3-.2Zm7.2 9.5v-10.2h1.1v1.8c.3-.5.6-1 1.1-1.3.5-.4 1.2-.5 2-.5h.7v1h-.9c-.8 0-1.5.3-2 .6-.6.4-.9 1-.9 1.6v7h-1.1Zm15 1.2c0 1-.4 1.8-1.2 2.3-.9.5-2 .7-3.7.7-1.6 0-2.7-.2-3.4-.6-.7-.5-1-1.1-1-2 0-.5.1-1 .4-1.3.3-.4.8-.6 1.3-.8v-.1c-.6-.3-1-.8-1-1.4 0-.5.2-1 .6-1.2.3-.3.7-.5 1.2-.6a3 3 0 0 1-1.4-1.3c-.3-.5-.5-1.2-.5-1.9 0-.5.1-1 .3-1.4a3.1 3.1 0 0 1 1.9-1.8l1.5-.3c.8 0 1.5.2 2.1.5v-.5c0-.3 0-.5.2-.7.2-.2.4-.3.7-.3h1.8v1h-2v1l.7 1 .3 1.5a3.5 3.5 0 0 1-1 2.5l-1.2.8a4.5 4.5 0 0 1-2 .2l-.6-.1-1.1.5a1 1 0 0 0-.4.8c0 .6.5 1 1.6 1h2.4c1.2 0 2.1.2 2.7.6.5.5.8 1.1.8 1.9Zm-1 0c0-.4-.3-.8-.6-1.1-.4-.3-1-.4-1.9-.4h-3.3c-.5.1-.8.3-1 .6-.3.3-.4.7-.4 1.1 0 .6.2 1 .6 1.4.5.3 1.1.5 2 .5h1.3c1 0 1.8-.2 2.4-.5.5-.3.8-.8.8-1.5Zm-4-5.6c.8 0 1.5-.2 1.9-.6.5-.4.7-1 .7-1.7v-.6a2 2 0 0 0-.7-1.7c-.4-.4-1-.6-1.8-.6s-1.5.2-1.9.6a2 2 0 0 0-.7 1.7v.6c0 .7.3 1.3.7 1.7.4.4 1 .6 1.9.6Zm13.4-5.8h1.2l-4.8 13c-.1.5-.3.8-.5 1l-1.2.2h-1.1v-1h1.7l1-2.7-3.8-10.5h1.2l3.1 9h.1l3.1-9ZM106.8 345.2c-.9 0-1.7-.1-2.4-.4a5 5 0 0 1-1.9-1.3 6 6 0 0 1-1.1-2 9.6 9.6 0 0 1 0-6c.2-.9.6-1.6 1.1-2.2.6-.6 1.2-1 1.9-1.3.7-.3 1.5-.5 2.4-.5 1.3 0 2.3.3 3 .8.9.5 1.5 1.2 2 2.3l-2.5 1.3-.8-1.3c-.4-.4-1-.5-1.7-.5-.8 0-1.5.3-2 .8-.5.6-.8 1.4-.8 2.4v2.1c0 1 .3 1.9.8 2.4.5.6 1.2.9 2 .9.7 0 1.3-.2 1.7-.6.4-.4.8-.9 1-1.4l2.3 1.4a6 6 0 0 1-2 2.3c-.7.6-1.8.8-3 .8Zm9.7-.2c-1 0-1.7-.2-2.1-.7-.5-.5-.7-1.1-.7-2v-11.4h2.8v12h1.3v2.1h-1.3Zm7.1.2c-.8 0-1.4 0-2-.3l-1.6-1c-.4-.5-.7-1-.9-1.7-.2-.7-.3-1.4-.3-2.2 0-.8.1-1.5.3-2.1.2-.7.5-1.2 1-1.7a4 4 0 0 1 1.4-1 5 5 0 0 1 2-.4c.8 0 1.5.1 2 .4.7.3 1.2.7 1.5 1.1.4.5.7 1 .9 1.7l.2 1.9v.8h-6.4v.2c0 .6.2 1.2.6 1.6.3.3.9.5 1.6.5.6 0 1 0 1.4-.3a6 6 0 0 0 1-.9l1.5 1.8c-.5.5-1 .9-1.8 1.2-.7.3-1.5.4-2.4.4Zm0-8.3c-.6 0-1 .2-1.4.5-.3.4-.5.9-.5 1.5v.2h3.5v-.2c0-.6-.1-1-.4-1.5-.3-.3-.7-.5-1.3-.5Zm13.9 8.1c-.5 0-1-.2-1.3-.5-.3-.3-.5-.7-.6-1.2h-.1c-.2.6-.5 1-1 1.4-.6.4-1.2.5-2 .5-1 0-1.7-.2-2.3-.8-.5-.5-.8-1.2-.8-2 0-1.1.4-2 1.2-2.4.8-.5 1.8-.8 3.1-.8h1.6v-.6c0-.5-.1-.9-.4-1.2-.2-.3-.7-.4-1.3-.4-.5 0-1 .1-1.3.4l-.8.8-1.7-1.5c.4-.6 1-1 1.5-1.4.7-.3 1.5-.5 2.6-.5 1.4 0 2.4.3 3.1 1 .8.5 1.1 1.5 1.1 2.6v4.4h1v2.2h-1.6Zm-4-1.7c.6 0 1-.1 1.3-.3.3-.2.5-.6.5-1v-1.2h-1.4c-1 0-1.6.4-1.6 1.1v.3c0 .4 0 .6.3.8.2.2.6.3 1 .3Zm7.4 1.7v-10h2.8v1.7h.2c.1-.5.4-1 .9-1.3.4-.4 1-.6 1.8-.6 1 0 1.8.3 2.3 1 .6.7.8 1.7.8 3v6.2H147v-6c0-.7 0-1.1-.3-1.4-.2-.4-.5-.5-1-.5a2.4 2.4 0 0 0-1.3.3l-.4.5-.2.6v6.5H141Zm15.5.2c-.8 0-1.4 0-2-.3-.6-.3-1.1-.6-1.5-1-.5-.5-.8-1-1-1.7-.2-.7-.3-1.4-.3-2.2 0-.8.1-1.5.3-2.1.2-.7.5-1.2 1-1.7a4 4 0 0 1 1.4-1 5 5 0 0 1 2-.4c.8 0 1.5.1 2.1.4.6.3 1 .7 1.4 1.1.4.5.7 1 .9 1.7l.2 1.9v.8h-6.4v.2c0 .6.2 1.2.6 1.6.3.3.9.5 1.6.5.6 0 1 0 1.5-.3a6 6 0 0 0 1-.9l1.4 1.8c-.5.5-1 .9-1.8 1.2-.7.3-1.5.4-2.4.4Zm0-8.3c-.6 0-1 .2-1.4.5-.3.4-.5.9-.5 1.5v.2h3.5v-.2c0-.6-.1-1-.4-1.5-.3-.3-.7-.5-1.3-.5Zm6.5 8.1v-10h2.8v2.2h.1a3 3 0 0 1 .8-1.5l.7-.5 1-.2h.6v2.6h-.7a4 4 0 0 0-1.9.4c-.4.2-.6.6-.6 1.2v5.8H163Zm15.7 0c-1 0-1.7-.2-2.2-.7-.5-.5-.8-1.3-.8-2.2v-4.9h-1.4V335h.7c.4 0 .7 0 .8-.2l.2-.8v-1.7h2.5v2.7h2v2.2h-2v5.6h1.9v2.2h-1.7Zm3.8-14h2.8v5.7c.3-.5.6-1 1-1.3.5-.4 1-.6 1.9-.6 1 0 1.8.3 2.3 1 .5.7.8 1.7.8 3v6.2h-2.8v-6c0-.7-.1-1.1-.3-1.4-.2-.4-.6-.5-1.1-.5a2.4 2.4 0 0 0-1.3.3l-.4.5-.1.6v6.5h-2.8v-14Zm18.6 14c-.5 0-.9-.2-1.2-.5-.4-.3-.6-.7-.7-1.2-.2.6-.6 1-1 1.4-.6.4-1.2.5-2 .5-1 0-1.8-.2-2.3-.8-.5-.5-.8-1.2-.8-2 0-1.1.4-2 1.2-2.4.7-.5 1.8-.8 3-.8h1.7v-.6c0-.5-.2-.9-.4-1.2-.3-.3-.7-.4-1.3-.4-.5 0-1 .1-1.3.4l-.8.8-1.7-1.5c.4-.6.9-1 1.5-1.4.6-.3 1.5-.5 2.5-.5 1.4 0 2.5.3 3.2 1 .7.5 1 1.5 1 2.6v4.4h1v2.2H201Zm-3.8-1.7 1.2-.3c.3-.2.5-.6.5-1v-1.2h-1.4c-1.1 0-1.7.4-1.7 1.1v.3c0 .4.2.6.4.8.2.2.5.3 1 .3Zm7.3 1.7v-10h2.8v1.7h.1c.2-.5.5-1 1-1.3.4-.4 1-.6 1.8-.6 1 0 1.8.3 2.3 1 .5.7.8 1.7.8 3v6.2h-2.8v-6c0-.7-.1-1.1-.3-1.4-.2-.4-.6-.5-1-.5a2.4 2.4 0 0 0-1.3.3l-.4.5-.2.6v6.5h-2.8Zm16.3 0v-2.3h3.5v-8.9h-.1l-2.7 3.5-1.8-1.4 3.1-4.2h4.4v11h2.8v2.3h-9.2Zm15.3.2c-1.8 0-3-.6-3.9-1.8a8.8 8.8 0 0 1-1.2-5c0-2.2.4-3.9 1.2-5 .9-1.3 2.1-1.9 3.9-1.9 1.7 0 3 .6 3.8 1.8a8.8 8.8 0 0 1 1.3 5c0 2.2-.4 4-1.3 5.1-.8 1.2-2 1.8-3.8 1.8Zm0-2.4c.7 0 1.3-.3 1.6-.8.3-.6.4-1.4.4-2.4v-2.5c0-1-.1-1.8-.4-2.3-.3-.6-.9-.9-1.6-.9-.8 0-1.3.3-1.6.9-.3.5-.4 1.3-.4 2.3v2.5c0 1 .1 1.8.4 2.4.3.5.8.8 1.6.8Zm11.4 2.4c-1.8 0-3-.6-3.9-1.8a8.8 8.8 0 0 1-1.2-5c0-2.2.4-3.9 1.2-5 .9-1.3 2.1-1.9 3.9-1.9 1.7 0 3 .6 3.8 1.8a8.8 8.8 0 0 1 1.3 5c0 2.2-.4 4-1.3 5.1-.8 1.2-2 1.8-3.8 1.8Zm0-2.4c.7 0 1.3-.3 1.6-.8.2-.6.4-1.4.4-2.4v-2.5c0-1-.2-1.8-.4-2.3-.3-.6-.9-.9-1.6-.9-.8 0-1.3.3-1.6.9-.3.5-.4 1.3-.4 2.3v2.5c0 1 .1 1.8.4 2.4.3.5.8.8 1.6.8Zm9 2.2 9.3-13.3h2.5L259 345h-2.5Zm1-6c-1 0-2-.3-2.5-1-.6-.5-.9-1.5-.9-2.7 0-1.3.3-2.2.9-2.8.6-.7 1.4-1 2.5-1 1.2 0 2 .3 2.6 1 .6.6.9 1.5.9 2.8 0 1.2-.3 2.2-1 2.8-.5.6-1.3 1-2.5 1Zm0-1.6c.4 0 .6-.1.8-.4l.2-1.2v-1c0-.6 0-1-.2-1.3a.8.8 0 0 0-.8-.4c-.3 0-.5.2-.7.4-.2.3-.2.7-.2 1.3v1c0 .5 0 1 .2 1.2.2.3.4.4.7.4Zm9.8 7.8c-1.1 0-2-.3-2.5-1-.6-.6-1-1.5-1-2.7 0-1.3.4-2.2 1-2.8.5-.7 1.4-1 2.5-1s2 .3 2.6 1c.5.6.8 1.5.8 2.8 0 1.2-.3 2.1-.8 2.8-.6.6-1.5 1-2.6 1Zm0-1.6c.3 0 .6-.1.7-.4.2-.3.3-.7.3-1.2v-1c0-.6 0-1-.3-1.3a.8.8 0 0 0-.7-.4c-.3 0-.6.2-.7.4-.2.3-.3.7-.3 1.3v1c0 .5.1 1 .3 1.2.1.3.4.4.7.4Zm-162 26.6c-.7 0-1.3 0-1.8-.3-.5-.2-1-.6-1.4-1l-.8-1.6a7 7 0 0 1-.3-2.2c0-.8 0-1.5.3-2 .2-.7.5-1.3.8-1.7.4-.4.9-.8 1.4-1a4.1 4.1 0 0 1 3.5 0c.5.2 1 .6 1.3 1 .4.4.7 1 .9 1.6.2.6.3 1.3.3 2.1a7 7 0 0 1-.3 2.2c-.2.6-.5 1.2-.9 1.6-.4.4-.8.8-1.3 1-.5.2-1.1.3-1.8.3Zm0-1c.9 0 1.6-.2 2.2-.8.5-.6.8-1.5.8-2.7v-1.2c0-1.1-.3-2-.8-2.6-.6-.6-1.3-.9-2.3-.9a3 3 0 0 0-2.2 1c-.6.5-.9 1.4-.9 2.5v1.2c0 1.2.3 2 .9 2.7a3 3 0 0 0 2.2.9Zm7.3-8h-1.7v-1h1.7v-2.6c0-.5.1-1 .4-1.2.2-.3.6-.5 1.1-.5h1.7v1h-2.1v3.4h2.1v1h-2.1v8.7h-1.1v-8.8Zm11.6 8.8c-.4 0-.7-.1-1-.3l-.2-.9v-7.6h-1.7v-1h1.6l.2-.7v-2h1v2.8h2.2v1H124v7.8h2v.9h-2Zm4.7-14h1v5.8h.1c.2-.5.5-1 1-1.2a3 3 0 0 1 1.9-.6c1 0 1.8.4 2.4 1 .6.6.9 1.6.9 2.7v6.3H135v-6c0-1-.2-1.8-.7-2.3-.4-.4-1-.7-1.8-.7l-1 .1-.9.4a2 2 0 0 0-.6.7 2 2 0 0 0-.2 1v6.8h-1v-14Zm14.1 14.2c-.6 0-1.2 0-1.7-.3a3.8 3.8 0 0 1-2.2-2.6c-.2-.7-.3-1.4-.3-2.2 0-.8 0-1.5.3-2 .2-.7.5-1.3.8-1.7.4-.4.9-.8 1.4-1a3.9 3.9 0 0 1 5.5 2.5c.2.6.3 1.2.3 2v.4H140v.5c0 .5 0 1 .2 1.4l.7 1.1c.2.3.6.6 1 .7.4.2.8.3 1.3.3a3 3 0 0 0 3-2l.7.6c-.3.7-.7 1.3-1.4 1.7-.7.4-1.4.6-2.4.6Zm0-9.2a3 3 0 0 0-1.3.2 2.9 2.9 0 0 0-1.6 1.8l-.2 1.4v.1h6v-.1c0-.5 0-1-.2-1.4a2.9 2.9 0 0 0-1.5-1.8c-.4-.2-.7-.2-1.2-.2Zm10.2-.7h1l2.4 8.7 2.7-8.7h1l2.6 8.7 2.3-8.7h1l-2.7 9.7h-1.3l-2.5-8.2-2.4 8.2H156l-2.8-9.7Zm18.9 10c-.7 0-1.3-.2-1.8-.4a3.8 3.8 0 0 1-2.2-2.6c-.2-.7-.3-1.4-.3-2.2 0-.8.1-1.5.3-2 .2-.7.5-1.3.9-1.7.3-.4.8-.8 1.3-1 .5-.2 1.1-.4 1.8-.4a3.9 3.9 0 0 1 3.8 2.9c.2.6.3 1.2.3 2v.4H169v.5c0 .5 0 1 .2 1.4.1.4.3.8.6 1.1.3.3.6.6 1 .7.4.2.8.3 1.3.3a3 3 0 0 0 3-2l.8.6c-.3.7-.8 1.3-1.5 1.7-.6.4-1.4.6-2.3.6Zm0-9.3a3 3 0 0 0-1.3.2 2.9 2.9 0 0 0-1.6 1.8c-.2.4-.2 1-.2 1.4v.1h6v-.1c0-.5 0-1-.2-1.4a2.9 2.9 0 0 0-1.6-1.8c-.3-.2-.7-.2-1.1-.2Zm6.8-5h1.1v5.8a3.3 3.3 0 0 1 3-1.8c1.3 0 2.3.5 3 1.4.7.9 1 2.1 1 3.7 0 1.7-.3 3-1 3.8-.7.9-1.7 1.3-3 1.3-.7 0-1.3-.1-1.8-.4-.5-.4-.9-.8-1.1-1.4h-.1v1.6h-1v-14Zm3.9 13.3c1 0 1.7-.4 2.3-1 .5-.6.8-1.4.8-2.5v-1.3c0-1.1-.3-2-.8-2.6-.6-.6-1.3-.9-2.3-.9a3.4 3.4 0 0 0-2 .6l-.6.7-.2.9v3.8c0 .4 0 .7.2 1a2.5 2.5 0 0 0 1.5 1.1l1 .2Zm11.5-9h1.1v1.5a3.3 3.3 0 0 1 3-1.8c1.3 0 2.3.5 3 1.4.7.9 1 2.1 1 3.7 0 1.7-.3 3-1 3.8-.7.9-1.7 1.3-3 1.3-.7 0-1.3-.1-1.8-.4-.5-.4-.9-.8-1.1-1.4h-.1v5.4h-1v-13.5Zm3.9 9c1 0 1.7-.4 2.3-1 .5-.6.8-1.4.8-2.5v-1.3c0-1.1-.3-2-.8-2.6-.6-.6-1.3-.9-2.3-.9a3.4 3.4 0 0 0-2 .6l-.6.7-.2.9v3.8c0 .4 0 .7.2 1a2.5 2.5 0 0 0 1.5 1.1l1 .2Zm13.7.7c-.4 0-.7-.1-.9-.3-.2-.2-.3-.5-.3-.9v-.3h-.1c-.2.5-.6 1-1 1.3-.6.3-1.2.4-2 .4-1 0-1.8-.2-2.3-.7-.6-.5-.9-1.2-.9-2.1 0-.9.3-1.6 1-2 .6-.6 1.6-.9 3-.9h2.2v-1c0-1.7-.8-2.5-2.5-2.5a3 3 0 0 0-1.6.4 3 3 0 0 0-1 1.2l-.7-.6c.3-.6.7-1 1.2-1.4.6-.4 1.3-.6 2.2-.6 1.1 0 2 .3 2.6.9.6.6 1 1.4 1 2.4v5.8h1.2v.9h-1Zm-4.1-.7c.4 0 .8 0 1-.2.4 0 .7-.2 1-.4l.6-.6.2-1v-1.7h-2.3c-1 0-1.6.1-2 .4-.5.3-.7.8-.7 1.3v.5c0 .5.2 1 .6 1.3.4.3 1 .4 1.6.4Zm15.4 1.8c0 1-.4 1.8-1.2 2.2-.8.5-2 .7-3.4.7a6 6 0 0 1-3.3-.6 2 2 0 0 1-1-1.8c0-.6.2-1 .5-1.3.3-.4.7-.6 1.2-.8v-.1c-.6-.2-.9-.7-.9-1.3 0-.5.2-.9.5-1.1.3-.3.7-.5 1.2-.6a3 3 0 0 1-1.4-1.2c-.3-.5-.4-1.1-.4-1.8 0-.5 0-1 .2-1.4.2-.4.4-.8.7-1 .3-.3.7-.6 1.1-.7l1.5-.3c.7 0 1.4.2 2 .5v-.5c0-.2 0-.5.2-.7l.6-.2h1.7v1h-2v.8c.4.3.6.7.8 1.1.2.4.3.9.3 1.4a3.3 3.3 0 0 1-1 2.4c-.3.3-.7.5-1.1.6a4.3 4.3 0 0 1-2 .2h-.5c-.4 0-.8.2-1 .4a1 1 0 0 0-.4.8c0 .6.5.9 1.5.9h2.3c1.2 0 2 .2 2.5.7.6.4.8 1 .8 1.7Zm-1 .1c0-.5-.2-.8-.5-1.1-.4-.3-1-.4-1.8-.4h-3.2c-.4.1-.7.3-1 .6-.2.3-.3.6-.3 1 0 .6.2 1 .6 1.3.4.4 1 .5 2 .5h1.1c1 0 1.7-.1 2.3-.4.5-.3.8-.8.8-1.5Zm-3.7-5.4c.8 0 1.3-.2 1.8-.6.4-.3.6-.9.6-1.5v-.7a2 2 0 0 0-.6-1.5c-.5-.4-1-.6-1.8-.6-.7 0-1.3.2-1.8.6a2 2 0 0 0-.6 1.5v.7c0 .6.2 1.2.6 1.6.5.3 1 .5 1.8.5Zm10.2 4.4c-.7 0-1.3 0-1.8-.3a3.8 3.8 0 0 1-2.2-2.6c-.2-.7-.3-1.4-.3-2.2 0-.8.1-1.5.3-2 .2-.7.5-1.3.9-1.7.3-.4.8-.8 1.3-1 .5-.2 1.1-.4 1.8-.4a3.9 3.9 0 0 1 3.8 2.9c.2.6.3 1.2.3 2v.4h-7.2v.5c0 .5 0 1 .2 1.4.1.4.3.8.6 1.1.3.3.6.6 1 .7.4.2.8.3 1.3.3a3 3 0 0 0 3-2l.8.6c-.3.7-.8 1.3-1.5 1.7-.6.4-1.4.6-2.3.6Zm0-9.2a3 3 0 0 0-1.3.2 2.9 2.9 0 0 0-1.6 1.8c-.2.4-.2 1-.2 1.4v.1h6v-.1c0-.5 0-1-.2-1.4a3 3 0 0 0-1.6-1.8c-.3-.2-.7-.2-1.1-.2Zm9.6 9.2c-.9 0-1.6-.1-2.2-.4-.6-.4-1.1-.8-1.6-1.4l.8-.7c.4.6.9 1 1.3 1.2.5.3 1 .4 1.7.4.8 0 1.4-.2 1.8-.5.4-.3.6-.8.6-1.3 0-.6-.2-1-.5-1.3-.3-.3-.8-.5-1.5-.6l-.8-.1c-.5 0-.9-.2-1.2-.3l-1-.5-.6-.8-.2-1.1c0-.5 0-.9.2-1.2.2-.4.5-.6.8-.9a3 3 0 0 1 1-.5l1.3-.2a4.4 4.4 0 0 1 3.3 1.5l-.7.7c-.2-.3-.6-.6-1-.8a3 3 0 0 0-1.7-.4c-.6 0-1.2.1-1.6.4-.4.3-.6.8-.6 1.3 0 .6.2 1 .6 1.3.3.2.8.4 1.5.5l.8.1a4 4 0 0 1 2.2 1c.5.3.7 1 .7 1.7 0 1-.3 1.7-1 2.2-.5.5-1.4.7-2.4.7Zm12.4-.2c-.4 0-.7-.1-.9-.3-.2-.2-.3-.5-.3-.9v-7.6h-1.7v-1H249.5l.1-.7v-2h1v2.8h2.2v1h-2.2v7.8h2v.9h-1.9Zm8.1.2c-.6 0-1.2 0-1.7-.3a3.8 3.8 0 0 1-2.3-2.6l-.2-2.2c0-.8 0-1.5.3-2 .2-.7.4-1.3.8-1.7.4-.4.8-.8 1.4-1a3.9 3.9 0 0 1 5.5 2.5c.2.6.3 1.2.3 2v.4h-7.2v.5c0 .5 0 1 .2 1.4l.6 1.1 1 .7c.4.2.9.3 1.4.3a3 3 0 0 0 3-2l.7.6c-.3.7-.8 1.3-1.4 1.7-.7.4-1.5.6-2.4.6Zm0-9.2a3 3 0 0 0-1.3.2 2.9 2.9 0 0 0-1.6 1.8l-.2 1.4v.1h6v-.1c0-.5 0-1-.2-1.4a2.9 2.9 0 0 0-1.5-1.8c-.4-.2-.8-.2-1.2-.2Zm9.6 9.2c-.8 0-1.6-.1-2.2-.4-.6-.4-1-.8-1.5-1.4l.8-.7c.4.6.8 1 1.3 1.2.5.3 1 .4 1.7.4s1.3-.2 1.7-.5c.4-.3.6-.8.6-1.3 0-.6-.1-1-.4-1.3-.3-.3-.9-.5-1.6-.6l-.8-.1-1.2-.3-1-.5-.5-.8c-.2-.3-.2-.7-.2-1.1 0-.5 0-.9.2-1.2l.7-.9a3 3 0 0 1 1-.5l1.4-.2a4.4 4.4 0 0 1 3.3 1.5l-.7.7-1-.8a3 3 0 0 0-1.7-.4c-.7 0-1.2.1-1.6.4-.4.3-.6.8-.6 1.3 0 .6.2 1 .5 1.3.4.2.9.4 1.6.5l.8.1a4 4 0 0 1 2.2 1c.4.3.7 1 .7 1.7 0 1-.3 1.7-1 2.2-.6.5-1.4.7-2.5.7Zm8-.2c-.5 0-.8-.1-1-.3-.2-.2-.3-.5-.3-.9v-7.6h-1.7v-1H275.1l.1-.7v-2h1v2.8h2.2v1h-2.2v7.8h2v.9h-1.9Zm8 .2c-.6 0-1.2 0-1.8-.3a3.8 3.8 0 0 1-2.2-2.6c-.2-.7-.2-1.4-.2-2.2 0-.8 0-1.5.2-2 .2-.7.5-1.3.9-1.7.4-.4.8-.8 1.3-1 .6-.2 1.1-.4 1.8-.4a3.9 3.9 0 0 1 3.8 2.9c.2.6.3 1.2.3 2v.4h-7.2v.5c0 .5 0 1 .2 1.4l.6 1.1c.3.3.6.6 1 .7.4.2.9.3 1.4.3a3 3 0 0 0 3-2l.7.6c-.3.7-.8 1.3-1.4 1.7-.7.4-1.5.6-2.4.6Zm0-9.2a3 3 0 0 0-1.3.2 2.9 2.9 0 0 0-1.6 1.8l-.2 1.4v.1h6v-.1c0-.5 0-1-.2-1.4a2.9 2.9 0 0 0-1.5-1.8c-.4-.2-.8-.2-1.2-.2Zm13.1 7.4c-.3.6-.6 1-1.1 1.4-.5.3-1.1.4-1.9.4-1.2 0-2.2-.4-3-1.3-.6-.9-1-2.1-1-3.8 0-1.6.4-2.8 1-3.7.8-1 1.8-1.4 3-1.4.8 0 1.4.2 1.9.5.5.4.8.8 1 1.3h.1V356h1.1V370h-1v-1.6Zm-2.7.9c.3 0 .7 0 1-.2.4 0 .7-.2 1-.4l.5-.7c.2-.3.2-.6.2-1v-3.8c0-.3 0-.6-.2-.9a2 2 0 0 0-.6-.7c-.2-.2-.5-.3-.9-.4l-1-.2c-1 0-1.8.3-2.3 1-.6.6-.8 1.4-.8 2.5v1.3c0 1 .2 2 .8 2.5.5.6 1.3 1 2.3 1ZM104.8 262.4V273h-.6v-10.6h-4v-.6h8.5v.6h-3.9Zm5.8-1.2h.6v5c.2-.5.5-.8.9-1 .4-.4 1-.5 1.6-.5 1 0 1.6.2 2 .8.5.5.8 1.3.8 2.3v5.2h-.6v-5.1c0-1-.2-1.6-.6-2-.4-.5-1-.7-1.7-.7l-1 .1-.7.4a2 2 0 0 0-.5.6 2 2 0 0 0-.2 1v5.7h-.6v-11.8Zm11.8 12c-1.1 0-2-.4-2.6-1.1-.6-.7-1-1.8-1-3.2 0-1.3.4-2.4 1-3.1a3 3 0 0 1 2.5-1.1 3.1 3.1 0 0 1 2.4 1l.7 1.4c.2.5.2 1 .2 1.6v.3h-6.1v.4l.1 1.4.6 1 1 .7 1.2.2c1.2 0 2.1-.6 2.6-1.9l.5.3c-.3.6-.7 1.1-1.2 1.5-.5.4-1.2.6-2 .6Zm-.1-8c-.5 0-.9 0-1.2.2l-.9.7a3 3 0 0 0-.6 1l-.1 1.4h5.5c0-.6 0-1-.2-1.4l-.5-1-1-.7-1-.2Zm11.8 8a4 4 0 0 1-1.7-.4c-.5-.2-1-.6-1.3-1.1l.4-.3c.4.4.7.8 1.1 1l1.5.3c.8 0 1.3-.2 1.7-.5.4-.3.5-.7.5-1.2 0-.6-.1-1-.4-1.3a3 3 0 0 0-1.5-.5l-.7-.1-1-.3-.7-.4a2 2 0 0 1-.5-.6l-.1-1 .1-.9.6-.7c.2-.2.5-.3.9-.4l1-.1c.7 0 1.2.1 1.7.3l1 .9-.4.3a3.5 3.5 0 0 0-.9-.7l-.6-.2-.8-.1c-.6 0-1.2.1-1.5.4-.4.3-.6.7-.6 1.2 0 .6.2 1 .5 1.2.3.3.8.4 1.4.5l.7.1c.8.2 1.4.4 1.8.8.4.3.6.8.6 1.5a2 2 0 0 1-.7 1.7c-.5.4-1.2.6-2 .6Zm10.6-.2c-.4 0-.7-.2-.7-.7v-.6c-.2.5-.5.8-1 1a3 3 0 0 1-1.6.5c-.9 0-1.5-.2-2-.6-.4-.4-.7-1-.7-1.7 0-.4 0-.7.2-1 0-.3.3-.5.5-.7l1-.5 1.5-.2h2.1v-1c0-.8-.2-1.4-.6-1.8-.3-.3-.9-.5-1.6-.5-1.2 0-2 .5-2.4 1.4l-.4-.3c.2-.5.6-.9 1-1.2a3 3 0 0 1 1.8-.4c.9 0 1.6.2 2 .7.5.4.8 1.1.8 2v5.1h1.2v.5h-1Zm-3.3-.3 1-.1.8-.4c.3-.2.5-.4.6-.7l.2-.9V269H142c-1 0-1.6.1-2 .4-.4.3-.6.7-.6 1.2v.5c0 .5.2 1 .6 1.2.4.3.9.4 1.5.4Zm6.4.3v-8.1h.5v1.2l.4-.5.5-.5.7-.3a3 3 0 0 1 .9-.1c.6 0 1.2.1 1.6.4.4.3.7.8 1 1.3.1-.5.4-.9.8-1.2.5-.4 1-.5 1.8-.5.9 0 1.6.2 2 .8.5.5.7 1.3.7 2.3v5.2h-.5v-5.1c0-1-.2-1.6-.6-2-.4-.5-1-.7-1.7-.7l-1 .1c-.2 0-.4.2-.6.4l-.6.6a2 2 0 0 0-.2 1v5.7h-.5v-5.1c0-1-.2-1.6-.6-2-.4-.5-1-.7-1.7-.7l-1 .1-.7.4a1.9 1.9 0 0 0-.7 1.5v5.8h-.5Zm16.8.2c-1 0-2-.4-2.5-1.1-.7-.7-1-1.8-1-3.2 0-1.3.3-2.4 1-3.1a3 3 0 0 1 2.5-1.1 3.1 3.1 0 0 1 2.4 1l.7 1.4.2 1.6v.3h-6.2v.4c0 .5 0 1 .2 1.4.1.4.3.7.6 1 .2.3.5.5.9.7l1.2.2c1.3 0 2.2-.6 2.7-1.9l.4.3c-.2.6-.6 1.1-1.1 1.5-.6.4-1.2.6-2 .6Zm0-8c-.5 0-.9 0-1.2.2l-1 .7a3 3 0 0 0-.5 1l-.2 1.4h5.6c0-.6 0-1-.2-1.4-.1-.4-.3-.8-.6-1l-.8-.7-1.1-.2Zm8.5-.3h.6l2.2 7.5 2.3-7.5h.6l2.3 7.5 2.2-7.5h.5l-2.4 8.1h-.7l-2.2-7.3-2.3 7.3h-.7l-2.4-8.1Zm15.6 8.3c-1 0-1.9-.4-2.5-1.1-.6-.7-1-1.8-1-3.2 0-1.3.4-2.4 1-3.1a3 3 0 0 1 2.5-1.1 3.1 3.1 0 0 1 2.4 1l.7 1.4.2 1.6v.3h-6.2v.4l.2 1.4.6 1 1 .7 1.1.2c1.3 0 2.2-.6 2.7-1.9l.4.3c-.2.6-.6 1.1-1.1 1.5-.5.4-1.2.6-2 .6Zm0-8c-.5 0-.9 0-1.2.2-.4.2-.7.4-.9.7a3 3 0 0 0-.6 1l-.2 1.4h5.6c0-.6 0-1-.2-1.4-.1-.4-.3-.8-.6-1l-.8-.7-1.1-.2Zm6.1-2.8c-.1 0-.3 0-.3-.2-.1 0-.2-.1-.2-.3v-.1l.1-.3.4-.1.4.1v.7l-.4.2Zm-.3 2.5h.6v8.1h-.6v-8.1Zm10.3 9.1a2 2 0 0 1-1 1.8c-.7.4-1.6.6-2.9.6-1.2 0-2-.2-2.6-.6-.6-.3-.8-.8-.8-1.5 0-.5.1-.8.4-1.2.2-.3.6-.5 1-.6-.5-.3-.7-.6-.7-1.2 0-.4.1-.7.4-.9l1-.5c-.5-.2-.9-.6-1.2-1-.2-.4-.3-.9-.3-1.5 0-.4 0-.8.2-1.1a2.5 2.5 0 0 1 1.4-1.4c.4-.2.8-.2 1.2-.2.7 0 1.3.1 1.7.5v-.7c0-.4.2-.6.6-.6h1.6v.5H203v1c.3.3.5.6.6 1l.2 1c0 .4 0 .8-.2 1.1a2.5 2.5 0 0 1-1.5 1.5 3.4 3.4 0 0 1-2 0l-1 .5c-.3.2-.4.4-.4.7 0 .2 0 .4.3.6.2.2.5.3 1 .3h2.1c1 0 1.6.1 2 .5.5.3.7.8.7 1.4Zm-.6 0c0-.4-.1-.8-.4-1-.4-.3-1-.4-1.7-.4h-2.6c-.4.1-.8.3-1 .6-.3.2-.5.6-.5 1 0 .5.2 1 .7 1.2.4.3 1 .5 1.8.5h.9l1.1-.1a3 3 0 0 0 1-.4l.5-.5c.2-.3.2-.5.2-.9Zm-3.3-4.3c.7 0 1.3-.2 1.7-.6.4-.4.6-.8.6-1.4v-.6c0-.5-.2-1-.6-1.4-.4-.3-1-.5-1.7-.5s-1.2.2-1.6.5c-.4.4-.6.9-.6 1.4v.6c0 .6.2 1 .6 1.4.4.4 1 .6 1.6.6Zm5.9-8.5h.5v5c.2-.5.5-.8.9-1 .4-.4 1-.5 1.7-.5.9 0 1.5.2 2 .8.5.5.7 1.3.7 2.3v5.2h-.5v-5.1c0-1-.2-1.6-.6-2-.4-.5-1-.7-1.8-.7l-.9.1c-.3 0-.5.2-.7.4a2 2 0 0 0-.6.6 2 2 0 0 0-.2 1v5.7h-.5v-11.8Zm10 11.8c-.5 0-.8-.2-.8-.7v-7h-1.4v-.4h1l.4-.1v-2.2h.6v2.3h2v.5h-2v7.1h1.8v.5h-1.7Zm13.1 0c-.4 0-.7-.2-.7-.7v-.6c-.2.5-.6.8-1 1a3 3 0 0 1-1.6.5c-.9 0-1.5-.2-2-.6-.5-.4-.7-1-.7-1.7 0-.4 0-.7.2-1 0-.3.3-.5.5-.7l1-.5 1.5-.2h2v-1c0-.8 0-1.4-.5-1.8-.3-.3-.9-.5-1.6-.5-1.2 0-2 .5-2.4 1.4l-.4-.3c.2-.5.6-.9 1-1.2a3 3 0 0 1 1.8-.4c.9 0 1.6.2 2 .7.5.4.8 1.1.8 2v5.1h1.2v.5h-1.1Zm-3.3-.3 1-.1.8-.4.6-.7.2-.9V269H227c-1 0-1.6.1-2 .4-.4.3-.6.7-.6 1.2v.5c0 .5.2 1 .6 1.2.4.3.9.4 1.5.4Zm8.6.5a4 4 0 0 1-1.8-.4c-.5-.2-1-.6-1.3-1.1l.4-.3c.4.4.8.8 1.2 1 .4.2.9.3 1.5.3.7 0 1.2-.2 1.6-.5.4-.3.6-.7.6-1.2 0-.6-.2-1-.5-1.3a3 3 0 0 0-1.4-.5l-.7-.1c-.4 0-.7-.2-1-.3-.3 0-.6-.2-.8-.4a2 2 0 0 1-.5-.6l-.1-1c0-.3 0-.6.2-.9l.5-.7.9-.4 1-.1c.7 0 1.3.1 1.7.3l1 .9-.3.3a3.4 3.4 0 0 0-1-.7l-.6-.2-.8-.1c-.6 0-1.1.1-1.5.4-.4.3-.6.7-.6 1.2 0 .6.2 1 .5 1.2.3.3.8.4 1.5.5l.7.1c.7.2 1.3.4 1.7.8.4.3.6.8.6 1.5a2 2 0 0 1-.7 1.7c-.5.4-1.2.6-2 .6Zm-130.4 21c-1.2 0-2.1-.5-2.8-1.4a8 8 0 0 1-1-4.4 8 8 0 0 1 1-4.4c.7-.9 1.6-1.4 2.8-1.4 1.2 0 2.1.5 2.8 1.4.6 1 1 2.4 1 4.4 0 2-.4 3.5-1 4.4-.7 1-1.6 1.4-2.8 1.4Zm0-.5c1 0 1.8-.4 2.3-1.2.5-.8.8-2 .8-3.5v-1.2c0-1.5-.3-2.7-.8-3.4a2.6 2.6 0 0 0-2.3-1.2c-1 0-1.8.4-2.3 1.2-.5.7-.8 1.9-.8 3.4v1.2c0 1.5.3 2.7.8 3.5.5.8 1.3 1.2 2.3 1.2Zm12.4.5a4 4 0 0 1-1.8-.4c-.5-.2-1-.6-1.3-1.1l.4-.3c.4.4.8.8 1.2 1 .4.2 1 .3 1.5.3.7 0 1.3-.2 1.6-.5.4-.3.6-.7.6-1.2 0-.6-.2-1-.5-1.3a3 3 0 0 0-1.4-.5l-.7-.1c-.4 0-.7-.2-1-.3-.3 0-.5-.2-.8-.4a2 2 0 0 1-.4-.6l-.2-1c0-.3 0-.6.2-.9.1-.3.3-.5.6-.7l.8-.4 1-.1c.7 0 1.3.1 1.7.3l1 .9-.3.3a3.5 3.5 0 0 0-1-.7l-.5-.2-.9-.1c-.6 0-1.1.1-1.5.4-.4.3-.6.7-.6 1.2 0 .6.2 1 .5 1.2.3.3.8.4 1.5.5l.7.1c.7.2 1.3.4 1.7.8.4.3.6.8.6 1.5a2 2 0 0 1-.7 1.7c-.5.4-1.2.6-2 .6Zm10.4-1.4a2.4 2.4 0 0 1-.8 1l-.7.3h-1c-.9 0-1.6-.2-2-.7-.5-.5-.8-1.3-.8-2.3v-5.2h.6v5c0 1 .2 1.7.6 2.2.4.4 1 .6 1.7.6a3.1 3.1 0 0 0 1.7-.5l.5-.6c.2-.3.2-.6.2-1V286h.6v8.1h-.6v-1.2Zm3.8 1.2v-8.1h.6v1.2c0-.2.2-.4.3-.5l.5-.5.7-.3a3 3 0 0 1 1-.1c.5 0 1 .1 1.5.4.5.3.8.8 1 1.3.1-.5.4-.9.9-1.2.4-.4 1-.5 1.7-.5 1 0 1.6.2 2 .8.5.5.8 1.3.8 2.3v5.2h-.6v-5.1c0-1-.2-1.6-.6-2-.3-.5-1-.7-1.7-.7l-.9.1c-.3 0-.5.2-.7.4l-.5.6a2 2 0 0 0-.2 1v5.7h-.6v-5.1c0-1-.2-1.6-.6-2-.4-.5-1-.7-1.7-.7l-.9.1c-.3 0-.5.2-.7.4a1.9 1.9 0 0 0-.7 1.5v5.8h-.6Zm16.8.2c-1 0-2-.4-2.5-1.1-.6-.7-1-1.8-1-3.2 0-1.4.4-2.4 1-3.1.6-.8 1.4-1.1 2.5-1.1 1 0 1.9.3 2.5 1 .6.8 1 1.8 1 3.2 0 1.4-.4 2.5-1 3.2-.6.7-1.4 1-2.5 1Zm0-.5c.9 0 1.6-.3 2-.9.6-.6.8-1.4.8-2.4v-.9c0-1-.2-1.9-.7-2.4-.5-.6-1.2-1-2.1-1-1 0-1.6.4-2.1 1-.5.5-.7 1.4-.7 2.4v.9c0 1 .2 1.8.7 2.4.5.6 1.2.9 2.1.9Zm8.7-7.8h.5l2.2 7.5 2.3-7.5h.6l2.3 7.5 2.2-7.5h.5l-2.4 8.1h-.6l-2.3-7.3-2.2 7.3h-.7l-2.4-8.1Zm12.8 8.1v-8.1h.6v1.4l.8-1c.4-.3 1-.4 1.7-.4h.6v.5h-.7l-1 .1-.7.4a2 2 0 0 0-.6.7l-.1.8v5.6h-.6Zm8.3.2c-1 0-2-.4-2.5-1.1-.7-.7-1-1.8-1-3.2 0-1.3.3-2.4 1-3.1a3 3 0 0 1 2.5-1.1 3.1 3.1 0 0 1 2.4 1l.7 1.4.2 1.6v.3h-6.2v.4c0 .5 0 1 .2 1.4.1.4.3.7.6 1 .2.3.5.5.9.7l1.2.2c1.3 0 2.2-.6 2.7-1.9l.4.3c-.2.6-.6 1.1-1.1 1.5-.5.4-1.2.6-2 .6Zm0-8c-.5 0-.9 0-1.2.2l-1 .7a3 3 0 0 0-.5 1l-.2 1.4h5.6c0-.6 0-1-.2-1.4-.1-.4-.3-.8-.6-1l-.8-.7-1.1-.2Zm8 8a4 4 0 0 1-1.7-.4c-.5-.2-1-.6-1.3-1.1l.4-.3c.3.4.7.8 1.1 1l1.5.3c.8 0 1.3-.2 1.7-.5.3-.3.5-.7.5-1.2 0-.6-.1-1-.4-1.3a3 3 0 0 0-1.5-.5l-.7-.1-1-.3c-.3 0-.5-.2-.7-.4a2 2 0 0 1-.5-.6l-.2-1 .2-.9.6-.7.8-.4 1.1-.1c.7 0 1.2.1 1.7.3l1 .9-.4.3a3.6 3.6 0 0 0-.9-.7l-.6-.2-.8-.1c-.7 0-1.2.1-1.6.4-.3.3-.5.7-.5 1.2 0 .6.1 1 .5 1.2.3.3.8.4 1.4.5l.7.1c.8.2 1.3.4 1.8.8.4.3.6.8.6 1.5a2 2 0 0 1-.8 1.7c-.4.4-1.1.6-2 .6Zm6.3-.2c-.4 0-.7-.2-.7-.7v-7h-1.4v-.4h1l.4-.1v-2.2h.6v2.3h1.9v.5h-2v7.1h1.9v.5h-1.7Zm4.8 0c-.5 0-.7-.2-.7-.7v-11.1h.6v11.3h1.3v.5H197Zm6.2.2c-1.1 0-2-.4-2.6-1.1-.6-.7-1-1.8-1-3.2 0-1.3.4-2.4 1-3.1a3 3 0 0 1 2.5-1.1 3.1 3.1 0 0 1 2.4 1 5.3 5.3 0 0 1 1 3v.3h-6.2v.4c0 .5 0 1 .2 1.4l.5 1 1 .7 1.2.2c1.3 0 2.2-.6 2.6-1.9l.5.3c-.3.6-.7 1.1-1.2 1.5-.5.4-1.1.6-2 .6Zm0-8c-.5 0-1 0-1.3.2l-.9.7a3 3 0 0 0-.5 1c-.2.4-.2.9-.2 1.4h5.5c0-.6 0-1-.2-1.4 0-.4-.3-.8-.5-1l-.9-.7-1-.2Zm5.8 7.8v-8.1h.5v1.4c.3-.4.5-.7 1-1 .3-.3.9-.4 1.6-.4h.6v.5h-.7l-1 .1-.7.4a2 2 0 0 0-.6.7l-.2.8v5.6h-.5Zm7.7.2a4 4 0 0 1-1.8-.4c-.4-.2-.9-.6-1.2-1.1l.4-.3c.3.4.7.8 1.1 1l1.5.3c.7 0 1.3-.2 1.7-.5.3-.3.5-.7.5-1.2 0-.6-.1-1-.4-1.3a3 3 0 0 0-1.5-.5l-.7-.1-1-.3c-.3 0-.5-.2-.7-.4a2 2 0 0 1-.5-.6l-.2-1 .2-.9.6-.7.8-.4 1.1-.1c.7 0 1.2.1 1.7.3l1 .9-.4.3a3.6 3.6 0 0 0-.9-.7l-.6-.2-.8-.1c-.7 0-1.2.1-1.6.4-.3.3-.5.7-.5 1.2 0 .6.1 1 .5 1.2.3.3.8.4 1.4.5l.7.1c.8.2 1.3.4 1.8.8.4.3.6.8.6 1.5a2 2 0 0 1-.8 1.7c-.5.4-1.1.6-2 .6Zm5.6 0-.4-.2a.5.5 0 0 1-.2-.4v-.2c0-.1 0-.2.2-.3l.4-.2c.2 0 .3 0 .4.2l.2.3v.2c0 .1 0 .3-.2.4l-.4.1ZM102 221v-14h5.5c1.2 0 2.1.4 2.7 1.1a4 4 0 0 1 1 2.8c0 1.3-.3 2.2-1 3-.6.6-1.5 1-2.7 1h-4.3v6.1H102Zm1.2-7.2h4.3c.8 0 1.4-.2 1.8-.7.4-.4.6-1 .6-1.7v-1c0-.6-.2-1.2-.6-1.6-.4-.5-1-.7-1.8-.7h-4.3v5.7Zm10.5 7.2v-10.2h1.1v1.8h.1c.2-.5.5-1 1-1.3.5-.4 1.2-.5 2-.5h.7v1h-.9c-.8 0-1.5.3-2 .6-.6.4-.9 1-.9 1.6v7h-1.1Zm10.7.2c-.7 0-1.3 0-1.8-.3-.6-.3-1-.6-1.4-1a5 5 0 0 1-1-1.8c-.1-.6-.3-1.4-.3-2.2 0-.9.2-1.6.4-2.3.2-.6.5-1.2.9-1.6.4-.5.8-.9 1.4-1.1.5-.3 1.1-.4 1.8-.4s1.3.1 1.8.4c.6.2 1 .6 1.4 1l1 1.7c.2.7.3 1.4.3 2.3 0 .8-.1 1.6-.4 2.2a5 5 0 0 1-.9 1.7c-.3.5-.8.8-1.4 1-.5.3-1.1.4-1.8.4Zm0-1a3 3 0 0 0 2.4-1c.6-.5.8-1.5.8-2.7v-1.3c0-1.2-.2-2-.8-2.7a3 3 0 0 0-2.4-1c-1 0-1.8.4-2.4 1-.5.6-.8 1.5-.8 2.7v1.3c0 1.2.3 2.1.8 2.8.6.6 1.4 1 2.4 1Zm14-.8c-.3.5-.7 1-1.3 1.3-.5.4-1.1.5-1.9.5-1.3 0-2.4-.4-3.1-1.4-.7-.9-1.1-2.2-1.1-4 0-1.6.4-3 1.1-3.9.7-1 1.8-1.4 3.1-1.4.8 0 1.4.2 2 .5.5.4.9.8 1.1 1.4v-6.2h1.2V221h-1.1v-1.6Zm-3 .8 1.2-.1a3 3 0 0 0 1-.5l.5-.7c.2-.3.3-.7.3-1v-4c0-.4-.1-.7-.3-1-.1-.3-.3-.5-.6-.7a3 3 0 0 0-1-.5l-1-.2a3 3 0 0 0-2.4 1c-.6.7-.9 1.6-.9 2.7v1.4c0 1.1.3 2 .9 2.6a3 3 0 0 0 2.4 1Zm14.2-.8-.4.7a2.6 2.6 0 0 1-1.5 1l-1.1.1c-1.1 0-2-.3-2.6-1-.6-.6-.9-1.6-.9-2.9v-6.5h1.1v6.3c0 1 .3 1.9.7 2.4.5.5 1.1.7 2 .7l1-.1.9-.4.6-.7c.2-.3.2-.7.2-1v-7.2h1.2V221h-1.2v-1.6Zm8.5 1.8a4 4 0 0 1-3.3-1.4c-.7-.9-1.1-2.2-1.1-4 0-1.6.4-3 1.1-3.9a4 4 0 0 1 3.3-1.4c1 0 1.7.2 2.3.6.6.5 1 1 1.4 1.7l-1 .5c-.2-.6-.6-1-1-1.3-.5-.3-1-.5-1.7-.5-1 0-1.8.4-2.4 1a4 4 0 0 0-.8 2.7v1.4c0 1 .3 2 .8 2.6.6.7 1.4 1 2.4 1 .7 0 1.3-.1 1.8-.4.5-.3.9-.8 1.2-1.4l.8.6a4 4 0 0 1-1.4 1.6c-.7.4-1.4.6-2.4.6Zm9.8 0c-.6 0-1.3 0-1.8-.3a4 4 0 0 1-2.3-2.8c-.2-.6-.3-1.4-.3-2.2 0-.9 0-1.6.3-2.3.2-.6.5-1.2.9-1.6a4 4 0 0 1 1.4-1.1c.5-.3 1.1-.4 1.8-.4a4.1 4.1 0 0 1 4 3c.2.6.3 1.3.3 2v.6h-7.5v.5a3.6 3.6 0 0 0 .9 2.6c.2.3.6.6 1 .8.4.2.9.2 1.4.2 1.5 0 2.5-.6 3.1-2l.8.5a4 4 0 0 1-1.5 1.9c-.7.4-1.5.6-2.5.6Zm0-9.7c-.5 0-1 0-1.3.3a3 3 0 0 0-1.7 1.9c-.2.4-.2.9-.2 1.4v.1h6.3v-.1c0-.6 0-1-.2-1.5a3 3 0 0 0-1.6-1.9 3 3 0 0 0-1.3-.2Zm10.1 9.7a5 5 0 0 1-2.3-.5c-.6-.3-1.1-.8-1.6-1.4l.8-.7 1.4 1.3c.5.2 1.1.4 1.8.4.8 0 1.4-.2 1.8-.5.5-.4.7-.9.7-1.5 0-.5-.2-1-.5-1.3-.3-.3-.9-.5-1.6-.6l-.9-.1a7 7 0 0 1-1.2-.3l-1-.6-.7-.8a3 3 0 0 1-.2-1.2c0-.5 0-.9.3-1.3.1-.3.4-.6.7-.9l1.1-.5a5 5 0 0 1 1.4-.2c.8 0 1.5.2 2 .5.6.3 1 .6 1.5 1.1l-.8.7a4 4 0 0 0-1-.9c-.5-.3-1-.4-1.8-.4-.7 0-1.3.2-1.7.5-.4.3-.6.8-.6 1.3 0 .6.2 1 .5 1.3.4.3 1 .5 1.7.6l.8.1c1 .2 1.8.5 2.3 1 .5.4.8 1 .8 1.9 0 1-.3 1.7-1 2.2a4 4 0 0 1-2.7.8Zm15.5 0c-1.8 0-3.1-.6-4-1.9-.9-1.2-1.3-3-1.3-5.3s.4-4 1.3-5.3c.9-1.3 2.2-1.9 4-1.9 1.9 0 3.2.6 4.1 1.9.9 1.3 1.3 3 1.3 5.3s-.4 4-1.3 5.3c-.9 1.3-2.2 2-4 2Zm0-2.5c.8 0 1.4-.3 1.7-.9.3-.6.5-1.4.5-2.5v-2.6c0-1-.2-1.9-.5-2.5-.3-.6-.9-.9-1.7-.9-.8 0-1.3.3-1.6 1-.3.5-.5 1.3-.5 2.4v2.6c0 1.1.2 2 .5 2.5.3.6.8.9 1.6.9Zm9.1 2.5c-.6 0-1-.1-1.3-.4-.3-.3-.4-.7-.4-1.2v-.4c0-.4.1-.8.4-1.1.3-.3.7-.5 1.3-.5.6 0 1 .2 1.4.5.2.3.4.7.4 1.1v.4c0 .5-.2.9-.4 1.2-.3.3-.8.4-1.4.4Zm6.4-.2 4.7-11.5h-4.3v2.5h-2.6v-5h9.9v2.6l-4.5 11.4H209Zm13 0c-1 0-1.7-.2-2.2-.7-.5-.5-.7-1.2-.7-2.2v-11.9h3v12.5h1.3v2.3H222Zm3.2-14.8h3v6c.2-.5.5-1 1-1.4.5-.4 1.2-.5 1.8-.5 1.4 0 2.4.4 3 1.4.7.9 1 2.3 1 4a7 7 0 0 1-1 4.1c-.6 1-1.6 1.4-3 1.4a3 3 0 0 1-1-.1 3 3 0 0 1-.8-.4l-.6-.7-.4-.8v1.8h-3v-14.8Zm4.9 12.6c.5 0 1-.2 1.3-.5.4-.4.6-1 .6-1.6v-1.9c0-.6-.2-1.2-.6-1.5-.3-.4-.8-.6-1.3-.6-.6 0-1 .1-1.4.4-.4.2-.6.6-.6 1.1v3.1c0 .5.2.9.6 1.1.3.3.8.4 1.4.4Zm10.8 2.4a6 6 0 0 1-2.6-.4 6 6 0 0 1-1.8-1.4l1.7-1.8 1.2 1c.5.2 1 .3 1.6.3.6 0 1 0 1.2-.2.2-.2.3-.5.3-.8 0-.5-.3-.7-1-.8l-1.2-.2c-2.3-.3-3.5-1.4-3.5-3.2 0-.5 0-1 .3-1.4.2-.4.5-.8.8-1 .4-.4.8-.6 1.3-.8.5-.2 1-.2 1.7-.2a7.7 7.7 0 0 1 2.5.4l1 .5.8.7-1.7 1.7a3.7 3.7 0 0 0-2.5-1c-.5 0-.8 0-1 .2-.3.2-.4.4-.4.6 0 .3.1.5.3.7.1.1.4.3.8.3l1.2.2c2.3.3 3.5 1.3 3.5 3.1a3 3 0 0 1-1.3 2.6c-.3.3-.8.5-1.4.7a6 6 0 0 1-1.8.2Zm-135.4 26c-.7 0-1.3 0-1.8-.3-.6-.3-1-.6-1.4-1a5 5 0 0 1-1-1.8c-.2-.6-.3-1.4-.3-2.2 0-.9.1-1.6.4-2.3.2-.6.5-1.2.9-1.6.3-.5.8-.9 1.4-1.1.5-.3 1.1-.4 1.8-.4s1.3.1 1.8.4c.6.2 1 .6 1.4 1l1 1.7c.2.7.3 1.4.3 2.3 0 .8-.1 1.6-.4 2.2a5 5 0 0 1-.9 1.7c-.3.5-.8.8-1.4 1-.5.3-1.1.4-1.8.4Zm0-1a3 3 0 0 0 2.4-1c.5-.5.8-1.5.8-2.7v-1.3c0-1.2-.3-2-.8-2.7a3 3 0 0 0-2.4-1c-1 0-1.8.4-2.4 1-.6.6-.8 1.5-.8 2.7v1.3c0 1.2.2 2.1.8 2.8.6.6 1.4 1 2.4 1Zm7.8-8.4h-1.8v-1h1.8v-2.9c0-.5 0-1 .3-1.2.3-.3.7-.5 1.3-.5h1.8v1h-2.3v3.6h2.3v1h-2.3v9.2h-1.1v-9.2Zm15.2 9.4c-1.7 0-3-.6-4-1.8-1-1.2-1.4-3-1.4-5.3 0-2.4.5-4.2 1.4-5.4 1-1.3 2.3-1.9 4-1.9a4.8 4.8 0 0 1 4.6 3l-1 .6a4 4 0 0 0-1.3-1.8c-.7-.5-1.4-.7-2.3-.7-1.3 0-2.3.4-3 1.4-.8 1-1.1 2.2-1.1 4v1.6c0 1.7.3 3 1 3.9.8 1 1.8 1.4 3.1 1.4 1 0 1.7-.3 2.4-.7.6-.5 1-1.2 1.4-2l1 .6c-.5 1-1 1.7-1.9 2.3a5 5 0 0 1-2.9.8Zm12.4 0c-1.8 0-3.2-.6-4.2-1.8-1-1.2-1.6-3-1.6-5.4 0-2.4.6-4.1 1.6-5.4 1-1.2 2.4-1.8 4.2-1.8 1.7 0 3.1.6 4.1 1.8 1 1.3 1.6 3 1.6 5.4 0 2.4-.5 4.2-1.6 5.4a5.1 5.1 0 0 1-4.1 1.8Zm0-1c.6 0 1.2-.2 1.8-.4.5-.2 1-.6 1.4-1 .4-.5.7-1 .9-1.7.2-.6.3-1.4.3-2.2v-1.8c0-.8-.1-1.5-.3-2.2-.2-.6-.5-1.2-1-1.6-.3-.5-.8-.8-1.3-1a4.5 4.5 0 0 0-3.6 0c-.6.2-1 .5-1.5 1l-.9 1.6c-.2.7-.3 1.4-.3 2.2v1.8c0 .8.1 1.6.3 2.2l1 1.7c.3.4.8.8 1.3 1 .6.2 1.2.4 1.9.4Zm17.5.8h-9v-1.2l5-4.7c.6-.6 1.1-1.3 1.5-2a4 4 0 0 0 .6-2v-.4c0-.8-.2-1.5-.7-2-.5-.6-1.2-.8-2.1-.8-1 0-1.7.2-2.2.7a4 4 0 0 0-1 1.8l-1.1-.4c0-.4.3-.8.5-1.2a4 4 0 0 1 2.1-1.7 5 5 0 0 1 1.7-.3c.6 0 1.2.1 1.7.3.6.2 1 .5 1.3.8.4.3.7.8.8 1.3.2.4.3 1 .3 1.6a5 5 0 0 1-.7 2.7l-1 1.2-1 1.2-4.4 4h7.7v1.1Zm8-10.2h1.2v1.6c.3-.6.7-1 1.2-1.4.5-.3 1.1-.5 2-.5 1.3 0 2.3.5 3 1.4.8 1 1.2 2.3 1.2 4 0 1.7-.4 3-1.2 4-.7.9-1.7 1.3-3 1.3-.9 0-1.5-.1-2-.5-.5-.3-1-.8-1.2-1.3v5.6h-1.2v-14.2Zm4 9.4a3 3 0 0 0 2.5-1c.5-.6.8-1.5.8-2.6v-1.4c0-1.1-.3-2-.8-2.7a3 3 0 0 0-2.4-1 3.6 3.6 0 0 0-2 .7c-.4.2-.6.4-.7.7a2 2 0 0 0-.2 1v4c0 .3 0 .7.2 1a2.6 2.6 0 0 0 1.5 1.2l1.2.1Zm11.2 1c-.7 0-1.3 0-2-.3a4 4 0 0 1-2.2-2.8c-.2-.6-.3-1.4-.3-2.2 0-.9 0-1.6.3-2.3.2-.6.5-1.2.9-1.6a4 4 0 0 1 1.4-1.1c.5-.3 1.2-.4 1.8-.4a4.1 4.1 0 0 1 4 3c.2.6.4 1.3.4 2v.6h-7.6v.5a3.6 3.6 0 0 0 .9 2.6c.2.3.6.6 1 .8.4.2.9.2 1.4.2 1.5 0 2.5-.6 3.1-2l.9.5a4 4 0 0 1-1.6 1.9c-.6.4-1.5.6-2.4.6Zm0-9.7c-.6 0-1 0-1.4.3a3 3 0 0 0-1.7 1.9c-.2.4-.2.9-.2 1.4v.1h6.3v-.1c0-.6 0-1-.2-1.5a3 3 0 0 0-1.6-1.9 3 3 0 0 0-1.3-.2Zm7.2 9.5v-10.2h1v1.8h.2c.2-.5.5-1 1-1.3.5-.4 1.2-.5 2-.5h.7v1h-.9c-.8 0-1.5.3-2 .6-.6.4-1 1-1 1.6v7h-1Zm11.8 0v-1h4v-12l-3.9 3.3-.7-.7 4-3.6h1.8v13h3.9v1h-9.1Zm16.2.2c-3.2 0-4.8-2.4-4.8-7.2 0-4.8 1.6-7.2 4.8-7.2 3.1 0 4.7 2.4 4.7 7.2 0 4.8-1.6 7.2-4.7 7.2Zm0-1c1.1 0 2-.5 2.6-1.4.5-1 .8-2.2.8-3.8v-2c0-1.5-.3-2.8-.8-3.8-.6-.9-1.5-1.4-2.6-1.4-1.2 0-2.1.5-2.7 1.4-.5 1-.8 2.3-.8 3.9v1.9c0 1.6.3 2.9.8 3.8.6 1 1.5 1.4 2.7 1.4Zm11.4-6.4-2.3 2.5v4.7h-1.2v-14h1.2v7.9l2.3-2.6 4.6-5.3h1.5l-5.3 6 5.5 8h-1.4l-5-7.2Zm12-3h1.1l3.1 9h.1l3.1-9h1.2l-3.7 10.2h-1.3l-3.7-10.2Zm11.4-2.8c-.2 0-.4 0-.6-.2a.7.7 0 0 1-.2-.5v-.2l.2-.6.6-.2.6.2.2.6v.2c0 .2 0 .3-.2.5l-.6.2Zm-.5 2.8h1.1V247h-1.1v-10.2Zm8.5 10.4c-.7 0-1.3 0-1.9-.3a4 4 0 0 1-2.3-2.8c-.2-.6-.3-1.4-.3-2.2 0-.9.1-1.6.3-2.3.2-.6.5-1.2.9-1.6a4 4 0 0 1 1.4-1.1c.6-.3 1.2-.4 1.9-.4a4.1 4.1 0 0 1 4 3c.2.6.3 1.3.3 2v.6h-7.6v.5a3.6 3.6 0 0 0 .9 2.6l1 .8c.5.2 1 .2 1.4.2 1.5 0 2.6-.6 3.1-2l.9.5a4 4 0 0 1-1.5 1.9c-.7.4-1.5.6-2.5.6Zm0-9.7c-.5 0-1 0-1.4.3a3 3 0 0 0-1.7 1.9l-.2 1.4v.1h6.3v-.1c0-.6 0-1-.2-1.5a3 3 0 0 0-1.6-1.9 3 3 0 0 0-1.2-.2Zm5.9-.7h1.1l2.5 9.2 2.7-9.2h1l2.8 9.2 2.5-9.2h1.1l-2.9 10.2H275l-2.6-8.6-2.6 8.6h-1.3l-3-10.2Zm19.1 10.4a5 5 0 0 1-2.3-.5c-.6-.3-1.2-.8-1.6-1.4l.8-.7c.4.6.9 1 1.4 1.3.5.2 1.1.4 1.8.4.8 0 1.4-.2 1.8-.5.4-.4.6-.9.6-1.5 0-.5-.1-1-.5-1.3-.3-.3-.8-.5-1.6-.6l-.8-.1a7 7 0 0 1-1.3-.3l-1-.6c-.2-.2-.5-.5-.6-.8a3 3 0 0 1-.2-1.2c0-.5 0-.9.2-1.3l.8-.9 1-.5a5 5 0 0 1 1.4-.2c.9 0 1.6.2 2.1.5.6.3 1 .6 1.4 1.1l-.7.7-1.1-.9c-.4-.3-1-.4-1.7-.4-.8 0-1.3.2-1.7.5-.4.3-.6.8-.6 1.3 0 .6.1 1 .5 1.3.4.3 1 .5 1.7.6l.8.1c1 .2 1.8.5 2.3 1 .5.4.7 1 .7 1.9 0 1-.3 1.7-1 2.2a4 4 0 0 1-2.6.8Z" fill="#82AF52"/><path d="m127.6 162-.2-.1-1.2-.1c-.9 0-1 0-1-.2h-.2c-.2 0-.1-.3.2-.5l.2-.3h1.3l1.3.1.2.1s.3 0 .4.2l.3.1v.7H127.6ZM121.7 160.4l-.3-.2h-.2l-.1-.2c0-.1 0-.2-.2-.3a.4.4 0 0 1-.1-.4v-.2l-.2-.4-.1-.4c-.2-.2-.2-.9 0-1v-.2l.2-.2c0-.1.4-.2.5-.1h.2l.3.1.3.1.3.1c0 .2.2.2.5.2.2 0 .3 0 .3.4v.3c.2 0 .2.2.2.5 0 .4-.1.7-.3 1l-.1.3c0 .1 0 .2-.3.4-.1.2-.2.3-.5.2h-.4ZM106.8 157.4h-.2l-.2-.2-.2-.1-.2-.1v-.1c-.2 0-.1-.1.1-.4l.4-.2.2-.1.2-.1.2-.1.2-.2h.2c0-.1.1-.2.3-.2l.4-.2h.7v1.2a1 1 0 0 0-.2.6v.3h-2Zm1.8-1.3v-.2h-1.1v.4h1.1v-.2ZM117 157.1c-.2 0-.6-.6-.6-.7 0 0 0-.2-.2-.2v-.3l-.2-.2v-.7l.2.1c0 .2.1.3.3.3l.1-.4-.1-.3-.1-.1-.1-.1.1-.2.7-.1c.6 0 .8 0 .8.2h.2l.2.2.1.1c.1 0 .2 0 .2.4l-.1.5-.1.3-.2.3v.2l-.6.6c-.1.1-.3.2-.6.1ZM112 155.6v-.8l.4-.3c.3-.3.3-.3.5-.3s.3 0 .3.2l.1.3v1.2h-.1l-.3.1-.2.1-.2.1-.2.2h-.2v-.8ZM104.6 155.8l-2.8-.1-2.9-.1v-.1h-.1c0 .2-1.8.2-2 0h-1.4c-1.1 0-1.1 0 .7-.1h1.8l.1-.2a90.5 90.5 0 0 1 6.7.2c0 .4 0 .6-.1.4ZM109.8 155.6c0-.2 0-.2 0 0h.5c0-.1 0 0 0 0v.1h-.5ZM113.2 154l-.2-.1c-.1 0-.2-.1-.2-.3l-.1-.3c-.3-.3-.2-.7.2-1l.2-.2h1.1l.2.2c.2.2.2.2.2.5v.4l-.4.4c-.4.4-.4.4-.7.4h-.3ZM115 152.6l-.3-.4-.2-.2v-.5c0-.5 0-.5.2-.7l.3-.1.3-.2c.2-.2.3-.3.7-.3h.6l.1.7v.8l-.2.2-.3.3-.2.2-.1.2c-.2.2-.7.2-.9 0ZM118.2 151.9l-.2-.3-.1-.3-.1-.2s0-.2-.2-.3c-.2-.3-.1-.7 0-1l.4-.1.2-.1.7-.1h.7l.3.2.2.2v.4c-.1.3-.1.4-.4.6l-.2.4-.4.4c-.3.4-.5.4-.9.2ZM106 151.3l-.2-.2h1.3c1.2 0 1.2 0 1.2.2v.1H106v-.1ZM102.1 151c-.5 0-.6 0-.6-.2h-.2l-.1-.1.2-.1 1.4-.1h1.4c0 .2.2.2 1.6.2h1.4l.1.2.1.1h-5.3ZM110 149.3v-.2l-.1-.2-.1-.2-.2-.4v-.2l-.4-.7v-.5h.3l.6.2.2.4.3.3.1.3.1.5-.1.5-.1.2c0 .2-.4.1-.5 0ZM111.8 148.7l-.4-.5-.1-.2-.1-.3-.1-.2-.1-.4-.2-.5c0-.3-.2-.7-.1-1l.4-.3.2-.2h.9V145.6c.1 0 .1 0 0 0v.4l.1.3.2.2c.2 0 .2.2.2.5l.1.3.1.2c0 .1 0 .2.2.3v.4c0 .4 0 .6-.2.6h-.2c0 .1-.1.2-.3.2-.2 0-.3 0-.6-.4ZM90.2 145.5l.5-.1.6-.1c.4 0 .5 0 .5-.2h.6c.4 0 .5 0 .6-.2l.6-.1.6-.1.6-.1.7-.1c0-.1 0-.2.5-.2h2l-.1.1v.2h-2.1c-.1.2-.2.2-1 .2s-.8 0-1 .2h-.7c-.7 0-.8 0-.8.2l-.7.1-.7.1-.7.1h-.5.5ZM126.4 144.6l-.5-.1c-.8 0-.8 0-.8-.3s.1-.4.9-1.1a4.6 4.6 0 0 0 .6-.7l.1-.1.4-.1.4-.1.5-.2.5.1.4.2c.1 0 .2 0 .5.3l.3.3v1.1h-.4l-.5.1-.8.1-.8.1h-.1l-.2.2c-.1 0-.1 0 0 .1l-.3.1h-.2ZM98.2 144.2l1.2-.1c.6 0 .7 0 1-.2l.2-.2h.9c.7 0 1 0 1-.2v.1c0 .2 0 .2.2.2s.2 0 .2.2v.1h-1l-1 .1-1.3.1h-1.4ZM118.2 144l-1.6-.1-1.7-.1c0-.2.1-.2.5-.2l.5-.1.4-.1h.2v.2h1.7c0-.2.2-.1.2.1l-.1.3ZM113.8 143.6v-.1c0-.2 0-.2.4-.1h.5c0-.1 0 0 0 0v.3h-.9ZM79 142.9l-.4-.1-.4-.1h.5l.5.1c0 .1-.1.2-.2 0ZM80.9 142.8c0-.2 0-.2.4-.2h.6l1.4-.1h1.2c0 .2 0 .2-.3.2l-.3.1-1.5.1h-1.5v-.1ZM80.4 142.6c.1-.2.5-.2.4 0l-.2.1h-.3.1ZM102 142.4l-.3-.1-.9-.6v-.1l-.2-.1-.1-.2-.1-.1-.2-.2-.1-.1h-.1l-.1-.2-.2-.1-.3-.1-.1-.1s-.2 0-.2-.2H99l-.2-.2-.1-.1-.3-.2h-3.7c-.1.2-.1.2-2.2.2a29.4 29.4 0 0 1-2-.2h1c1 0 1.1 0 1.1-.2l1.3-.1 1.2-.1 1-.1 1.1-.1h.3l.4-.2h.5l.4-.1.2-.2h.2c.2-.2.3-.2 1.5-.2l1.5.1.3.1c.2 0 .3 0 .5.3l.4.2.4.4.3.3v.7l-.1.8-.1.3c-.1.2-.3.4-.5.4l-.3.2h-.2l-.2.2h-.7ZM110.8 142v-.2l-.3-.3-.3-.4-.1-.3-.1-.2-.1-.2-.1-.4c0-.3 0-.4-.2-.5V138l.1-.1c.2-.2.3-.2.8-.2l.9.1.3.3.2.3v.7l.2.8v1.8l-.2.1-.2.1c-.1.1-.2.2-.5.2l-.4-.1ZM133 141.4h-.1c-.2 0-.6-.4-.8-.6l-.2-.4-.2-.3-.1-.2-.2-.3v-.4c-.2-.2-.2-.3-.2-1.4l.1-1.3.1-.3.1-.4.1-.2.4-.5c.3-.2.4-.4.1-.4l-.2-.2c-.2-.1-.2-.2-.2-.4l-.1-.4c-.1 0-.2-.2-.2-.7 0-.6 0-.6.2-.8.2-.2.6-.2 1.3-.2.4 0 .5 0 .6.2h.1l.3.3c.2.2.2.2.2.5l-.1.3v.4c0 .2-.1.3-.4.3l-.2.2-.1.3.4.1c.4 0 .5 0 .6.2h.3l.3.2.2.2.4.4.3.5v.2c.2.1.2.2 0 .3v.1l-.2.1v.1l-.2.2-.1.2-.1.2-.1.1-.2.2v.8c0 .7-.1.8-.2.8s-.2.2-.1.4h-.3l-.3-.3c-.2-.3-.2-.3-.2-.7v-.5l-.1.5c0 .3 0 .5-.2.6v.4c.2.2.2.2.2 1l-.1.7h-.5ZM120.6 140.4a1 1 0 0 1-.4-.3c-.3-.3-.3-.3-.3-.6v-.3c-.2-.1-.2-.5 0-1 0-.4.2-.5.7-.5l.4-.1c.3-.2 1-.2 1.2 0l.3.1.5.3c.3.3.4.5.2.7l-.1.4c0 .1 0 .2-.3.4 0 .2-.2.4-.3.5l-.2.2-.2.1-.7.1h-.8ZM73 140h-.3l-.2-.1h-.2v-1c0-.9 0-.9.2-1l.2-.3.7-.1h.8l.6.2.4.1.3.1c.2 0 .3.1.3.3l.3.5c.1.1 0 .6 0 .8l-.2.2c0 .2 0 .2-.3.2l-.3.1-1 .1H73ZM88.6 140l.8-.1h.6c0 .2 0 .2-.8.2h-.8l.2-.1ZM68.5 139.5l-.6-.1-.6-.1-.5-.1c-.4 0-.5 0-.5-.2h-1.1v-1.4l.3-.3.3-.3h.4l.5.1.5.1.6.2h.4l.5.5.3.5c.2.2.1.5 0 .6l-.1.1c0 .2-.2.5-.3.5l-.1-.1ZM80.6 139l.1-.4c.2-.2.2-.2.5-.2l.4.1.3.1.2.1v.2h-.4l-.3.1c0 .1 0 .2-.4.2h-.3l-.1-.2ZM107.6 138.3c-.2-.2-.2-.2-.2-.7v-.4l.3-.3c.2-.3.3-.3.5-.3h.3l.2.2s.2 0 .3.2l.2.4c0 .3-.2.7-.5 1l-.6.1c-.3 0-.3 0-.5-.2ZM95.9 138.3c-.2 0-.2-.1-.2-.2l-.2-.1-.1-.2h-.2l-.1-.2h-.2l-.2-.2-.1-.1-.2-.2c-.1 0-.2 0-.2-.2h-.1l-.1-.3-.1-.2-.1-.2-.2-.1v-.1l-.2-.1-.1-.2h-.5c-.4 0-.4 0-.3-.1l.1-.1.2-.1c.2 0 .3-.2.1-.2v-.3c0-.1 0-.2-.2-.2 0 0-.1 0 0-.1 0-.3-.1-.4-.3-.4l-.2.1-.2.2H92l-.2.2-.2.1-.4.1c-.2 0-.3 0-.3.2h-.4c-.2 0-.3 0-.3.2l-.3.1-.3.1c0 .2-.5.2-.5 0l.2-.2v-.3l.2-.4c.3-.3.6-.4.8-.4l.5-.2h2.6c.2.1.3.2.8.2h.6l.3.2c.2 0 .5 0 .5.2h.1l.3.1.3.2.6.6.2.2v.2l.2.4c0 .3 0 .4-.2.5l-.1.3v.2l-.2.2-.3.5-.5.3ZM62 138.1l-.3-.1h-.2v-.3l-.1-.3-.2-.5v-.3l-.3-.3c-.2-.3-.2-.3-.2-1.4l.1-1.2c.2-.2.3-.2.3 0h.4c.2 0 .3 0 .3.2h.4c.3 0 .3 0 .3.2l.4.1.4.1.6.1.5.1c0 .2.1.2.7.2h.7c0 .2.1.2.7.2h.7c0 .2-1 1.2-1.1 1.2-.1 0-.2 0-.3.2h-.5l-.6-.1-.2-.3c0-.2-.1-.3-.2-.2l-.2.2-.2.2-.8.8-.7.4h-.1v.5c0 .4 0 .4-.2.4H62ZM84.6 137.5v-.2l-.2-.2v-.5c0-.4-.1-.5-.2-.5l-.1-.3c0-.3 0-.5.3-.5h1.5c.2 0 .3 0 .4.2h.2l.4.4c.3.3.4.4.2.4v.2l-.3.1-.3.1-.2.1-.2.1c0 .1-.1.2-.3.2h-.2c0 .2 0 .2-.3.2l-.2.1-.2.1h-.3ZM121.7 137.2h-.2l-.3-.3-.2-.5v-1.1l.1-.3.8-.1h.8l.3.3c.3.3.3.3.3.5l-.1.4-.1.3-.4.5c-.4.4-.5.4-.7.4h-.3ZM71.2 137l-.2-.1-.1-.3-.1-.2c-.1 0-.2-.2-.2-.5v-.5h3.2v.1c0 .2-.2.4-.3.4l-.5.4-.6.6c-.2.2-.3.2-.7.2h-.5ZM76.2 136.8l-.3-.2-.3-.2-.3-.2c-.1-.1-.2-.2-.2-.6v-.4h.2c.3 0 .5 0 .5-.2l.8-.1.7-.1.6-.1c.5 0 .5 0 .5-.2h.5c.4 0 .4 0 .5-.2h.8l-.1.2-.1.2-.2.3c0 .2-.3.5-.4.5l-.7.6-.7.6h-.2c-.1.2-.2.2-.8.2h-.8ZM57.6 136.7l-.3-.1-.3-.1-.3-.2h-.2c0-.2-.2-.2-.4-.2l-.2-.1-.2-.1c-.1 0-.2 0-.3-.2h-.1l-.2-.2-.2-.1-.2-.1-.2-.1v-.3c0-.4.2-1 .4-1 .1-.2.2-.2.6-.2h.6c.1.2.2.2.5.2l.5.1.3.2c.2 0 .3.1.3.2l.4.4c.2.2.2.2.2.6l-.1.5-.2.3s0 .2-.2.3l-.2.2ZM119.4 135.6l-1-.2a3 3 0 0 1-.7 0l-.6-.2-.6-.1a.8.8 0 0 0-.6-.1l-.5-.1-.3-.2-.4-.1a.7.7 0 0 0-.3-.1v-.5h1.6c1.4 0 1.4 0 1.5-.2l.3-.1.3-.1c.1-.2.6-.2.9 0l.4.1.2.1.2.3.2.2v1.4h-.6ZM137.5 135.3v-.3l-.2-.3-.1-.3-.1-.9v-.7l.2-.1c.2-.2.2-.2.8-.2h.7l.5.4.5.3-.2.1v.1l-.2.1-.1.3-.1.2-.1.1-.1.1h-.2l-.2.4-.3.3-.2.2h-.1l-.1.2-.1.1h-.1l-.1.1v-.2ZM58.5 135c-.2-.2-.2-.3-.1-.6 0-.5.2-.7.5-.7s.4 0 .4.3v.2c.2 0 .2.4 0 .5v.3l-.4.2-.4-.2ZM147.6 134.8c-.1-.1-.2-.2-.2-.6 0-.5 0-.5.4-.5l.1-.1.3-.1c.3 0 .3 0 .3.2l.2.3v.2l.1.3v.2l-.1.2h-.5l-.6-.1ZM126.4 134.5c-.4-.4-.4-.5-.4-1l-.1-.5-.1-.3c0-.3 0-.3.3-.6l.3-.3h.5l.6.1.4.2c.2 0 .2 0 .4.3s.3.7 0 .9v.2l-.3.4-.3.4-.1.3-.6.1c-.4 0-.4 0-.6-.2ZM146.6 134.5v-.2h-.2l-.2-.1-.1-.1-.3-.1-.2-.1v-.2l.2-.2c0-.1 0-.1-.2 0-.2.2-.2.3-.5.3-.6 0-.6-.1-.2-.5l1-1.2 1.1-1 .3-.4-.2.1-.2.2-.3.1-.3.1c-.2 0-.3 0-.4.2h-.2l-.1.2-.3.1a1 1 0 0 0-.5.3c-.2.2-.2.2-.5.1h-.4v-.2c0-.2 0-.4.3-.4 0 0 .2 0 .3-.2.2-.2.3-.2.5-.2h.3l.2-.3.4-.2h.3c.1-.2.2-.2.3-.2l.2-.1.3-.1c.3 0 .4-.1.4-.3h.8l-.2-.4-.3-.2-.5-.4c-.4-.4-.4-.5-.4-.7 0-.1 0-.2-.2-.3-.2-.1-.2-.2-.2-.4v-.2c.2 0 .1-.2-.2-.6-.4-.4-.4-.4-.4-.7 0-.2.1-.3.3-.3.2 0 .2 0 0-.3l-.3-.3h-.4c0 .2-.4.2-.5 0H143l-.2-.2-.2-.2V123.4c.1 0 .2-.1.2-.3l.2-.4v-.3l.5-.5.4-.4h1.2l.2.2c.2 0 .3 0 .3.3v.2c.2 0 .2.1.2.6l.1.6.1.2c0 .1.3.4.5.4.2.1.2.1.2.3l.1.2.2.1c0 .1 0 .2.2.2h.3l.1.3v.4c0 .3.1.4.2.4l.3.1.4.2.6.6.2.2v1.1l-.1 1.3-.3.2v.3l.2.4c0 .3 0 .4-.5.8l-.2.3-.2.4-.2.3s0 .2-.2.3l-.1.2c0 .2-.3.5-.4.5v.2l-.2.3v.1l-.4.8h-.2Zm1.7-6.2.1-.6-.1-.6h-.1l-.1-.2-.2-.1-.1-.1-.1-.1-.1-.1-.2-.2c-.1-.1-.3 0-.3.1v.2c.2 0 .2 0 .2.3v.2c.2 0 .2.1.2.3l.1.2c.2 0 .2 0 .1.3l.1.4h.5ZM85.8 133.5a2 2 0 0 1-.3-.4l-.2-.3c-.1 0-.1-.2 0-.2l.2-.2h.2l.2-.2.2-.1v-.1l.2-.1c.1 0 .2 0 .3-.2l.2-.1c0-.2 0-.2-.3-.2l-.2-.1-1.6-.2h-1.5l-.6-.1H82V130.7h1.5c0 .2.4.2.7 0h2l1.9-.1.1-.2h.1l.1-.2.2-.1.2-.1.2-.2h.2v-.2l.2-.1.1-.1.4-.1c.2 0 .3 0 .3-.2h.2c.2 0 .2-.1.3-.2l.1-.1.1-.1.1-.1c.2 0 .3 0 .3-.2h.2l.1-.2.2-.2.2-.2h.1l.1-.2.1-.1.2-.1v-.1l.2-.2h.2l.1-.2h.2l.1-.2.2-.1.2-.2v-.1l.2-.1v-.1l.3-.1.2-.1c0-.2.1-.1.3 0v1.5l-.2.3v.2l-.2.2-.1.2-.1.3-1.3 1.4a19 19 0 0 1-2.8 2.3h-.2l-.2.2-.1.1-.2.1-.2.1-.2.2h-.3l-.4.2-.3.1-.4.1-.3.2H87c0 .2-.2.2-.5.2h-.4l-.3-.3ZM103.5 133.5l-.1-.3-.1-.4c-.2-.2-.2-.4 0-.7.1-.5.2-.5.6-.5h.5c.1.2.2.2.3.2l.2.1v1.1l-.4.3c-.3.2-.4.3-.7.3h-.3ZM56.8 133.2l-.2-.2v-.8c.3-.1.3-.2.6-.1h.4v.4c0 .6-.2.8-.6.8l-.2-.1ZM149.9 133l-.1-1v-.7l-.2-.2-.3-.3.2-.2.4-.2c.2 0 .3 0 .5-.2s.3-.3.6-.3c.2 0 .3 0 .3.2l.1.1.1.3c0 .4 0 .4.2.4v.1l.2.1.1.2-.1.1-.1.2-.1.3c-.1 0-.2 0-.2.2s0 .2-.2.2l-.2.1c0 .1 0 .2-.3.2s-.5.1-.5.3v.2h-.2c0 .1-.1 0-.2 0ZM110.2 133l-.2-.2h-.3l-.2-.4c0-.3.1-.4.7-.4.5 0 .5 0 .7.2.2.2.2.3.2.5v.3h-.9ZM121.3 132.3l-.2-.4c0-.1 0-.3-.2-.4l-.1-.4-.1-.4-.1-.7c0-.5 0-.8.2-1 .2-.1 1.8 0 1.8.1l.1.1.6.6.3.2c.2.1.2.2.3.4 0 .2 0 .7-.2 1 0 0 0 .2-.2.2l-.2.3-.3.4-.3.3h-1.1l-.3-.3ZM140.2 132.3v-.2l-.2-.1v-.4c0-.2-.1-.3-.2-.3-.1-.2-.2-.4-.1-.7 0-.3 0-.4.3-.6l.3-.4h.5c.5.1.5.1.7.3l.2.3.1.4.1.4c0 .3 0 .3-.4.7l-.6.5h-.2c0 .1-.4.2-.5 0ZM76.3 131s-.2-.1-1.6 0h-.8l.8-.2 2-.1 1.8-.1c.1-.2.1-.2.6-.1h.6c0 .1.3.1.4 0h.2c.2.2.2.2-.1.2l-.3.1c0 .2 0 .2-.5.2h-.6c-.1.2-2.5.2-2.5 0ZM80.6 131v-.3h.6v.4h-.6v-.2ZM132.3 130.1h-.3l-.5-.3-.3-.4c0-.2-.2-.3-.5-.3-.4 0-.4 0-.4-.4l-.1-.3c-.1-.1-.2-.8-.1-1-.2.2-.3.2-.3 0h-.3l-.2-.1c0-.1-.1-.2-1.5-.2h-1.6l-.1-.1h-4.2l-1.3.1h-1.2l-.1-.2V126.6H127c0-.2 0-.2.3-.2l.6.1c.1.2.1.2 1.4.2a8.3 8.3 0 0 1 1.6 0h.5l.5-.1c.1-.2.2-.2.9-.2l.8-.1c0-.2.1-.1.4.1l.4.2.4.3.3.3v.5l-.1.6-.2.1-.2.1-.3.1-.2.2s0 .3-.2.4l-.2.3c0 .1-.3.4-.5.4l-.2.2c-.1.1-.5.2-.7 0ZM116.5 129.6l-.4-.3-.2-.1-.3-.1c-.2 0-.9-1-.9-1.3l-.1-.4-.1-.7v-.5H114.8c0 .2 0 .2.3.2l.4.1c0 .2.1.2.4.2l.3.1.4.1.3.1.2.1c.2 0 .3 0 .3.2h.4c.3 0 .4 0 .5.2l.2.1v1l-.4.5-.1.1-.1.2-.2.2c-.1.2-.2.2-.5.2h-.4l-.3-.2Z" fill="#040302"/><path d="m127.2 129-.2-.3-.2-.2-.1-.2c0-.2 0-.2.7-.2l.6-.1c0-.1.1-.2.6-.2.3 0 .3 0 .3.2s0 .3-.2.4l-.1.2-.3.3c-.2.2-.2.2-.6.2-.4 0-.4 0-.5-.2ZM100.7 128.2h-.3c-.2 0-.5-.4-.7-.6l-.2-.4-.1-.4-.1-.4-.1-1-.1-1-.1-.9v-.6l.2-.1.5-.1c.5 0 .5 0 .6-.2h2.4c0 .1.1.2 1 .2h1c0 .2 0 .2.6.2h.6c0 .2.1.2.4.2l.5.1c.1.2.2.2.5.2l.4.1.3.1.2.1.4.1c.3 0 .3 0 .3.2h.2c.2 0 .3.1.3.2v.1c.1 0 .1 0 0 0v.4l-.1.3-.2.3a8 8 0 0 1-1.9 2h-.2l-.2.1-.3.1c0 .1-.1.2-.3.2h-.3c-.1.2-.2.2-.5.2l-.4.1c-.2.2-.3.2-.8.1h-.6c-.1.2-.4.3-1.6.3-1 0-1.1 0-1.3-.2ZM136.9 127.5h-.3c-.2 0-.4-.3-.5-.7 0-.4 0-.5.3-.8a19.8 19.8 0 0 1 .7-.5l.2-.1c.1-.2.2-.2.7-.2.5 0 .5 0 .7.2l.1.7c0 .6 0 .8-.5 1.2l-.3.4h-.5c-.5 0-.6 0-.6-.2ZM144 127.4v-.2l-.2-.2-.1-.5c0-.5 0-.5.2-.7l.5-.1c.3 0 .5 0 .7.2l.1.6c0 .4 0 .6-.2.8l-.6.1h-.4ZM82.6 126.9l1-.1 2.7-.1a15.2 15.2 0 0 1 3.6.2 72.3 72.3 0 0 1-7.3 0ZM119.3 126.5l.1-.2.9-.1.8-.1.3-.1h.4c0 .1 0 .2.2.2l.2.2-1.4.1h-1.5ZM140.2 125.7v-.1c0-.1 0-.2-.2-.3v-.5c0-.3 0-.3-.2-.4-.1-.1-.2-.1-.2-.4v-.4h.5l.5.1.3.1c.2 0 .2 0 .2-.2s0-.3.2-.3l.1.1v1.2h-.3c-.2 0-.2 0-.2.2l.1.2h.4l-.1.3-.1.2c0 .2-.2.3-.6.3h-.4ZM134.7 125c0-.2-.1-.2-.6-.2l-.5-.1.4-.2.5.1.5.2.4.1v.1h-.7ZM94.4 124.8c-1.1 0-1.2 0-1.2-.3l-.3-.1h-.5c0 .2-.2.2-1.5.2l-1.4-.1-.1-.1h-1.2.4l.6-.2 2.4-.1H94c0 .2.1.2.9.2l.9.1.1.1v.3h-1.5ZM114.5 123.5l-.4-.1h-.2c.2 0 .3-.1.3-.2H116.8c.1.2.2.2.8.2h.2-.6l-.2.1-1.3.1h-1.2Z" fill="#040302"/><path d="m113.2 155.8.1-.2.1.1c0 .2-.2.2-.2 0ZM109 152.7l-.2-.5.1-.5.3-.2.4-.2.1-.1.3-.1c.3 0 .3 0 .3.4l-.1.4-.2.2a2.5 2.5 0 0 1-.6.6c-.1.2-.3.1-.3 0ZM108.2 151.4c-.3-.2-.3-.2 0-.2l.2.1v.2l-.2-.1ZM117.4 150.3l.1-.2.2-.1h.1v.2c-.2 0-.1.2 0 .3h-.2c-.1 0-.2 0-.2-.2ZM108 150.2v-1.8h-.2c-.1 0-.2-.1-.1-.2 0-.1 0-.3-.2-.3v-.3l-.1-.2v-.4c0-.2.3-.3.8-.3l.6.1h.1c0-.2 0-.2.3-.2l.2.1.2.1.1.2c0 .1 0 .1-.1 0-.2 0-.3.1-.2.3.3.3.4.8.2.8l-.2.3c0 .1 0 .2-.2.2l-.3.1-.3.3-.2.4v.4l-.2.2c0 .2-.3.4-.3.2ZM118 149.8c0-.1 0-.2.2-.2.1 0 .2 0 .1.1l-.2.2-.1-.1ZM112.8 147.7l-.1-.1c-.2-.2-.2-.4 0-.4.1 0 .3.2.3.4l-.1.2h-.1Z" fill="#876000"/><path d="m112.5 147-.1-.2h-.1v-.2l.1-.1h.2v.1l.1.3c0 .3-.1.3-.2 0ZM105.7 144.9l.1-.7.2-.1h.5V145c0 .3-.1.5-.5.5h-.3v-.6ZM104.3 144.9l-.2-.1h-.2l-.1-.2-.2-.2-.1-.1h.1l.3-.3.1-.3v-.1l.3-.4.4-.2c.3 0 .4.1.4.4l-.1.3-.1.2s0 .2-.2.3v.3c0 .3-.3.5-.4.4ZM126 144.5c-.2 0-.3-.2 0-.2h.5l.2.2c.1 0 .2 0 0 0h-.6ZM103 144.1h-.3a1 1 0 0 0-.4-.2h-.1v-.2l.2-.1c.1-.2.2-.1.2 0 0 .2 0 .2.2.2s.3.1.2.3ZM114.5 143.7s-.1-.2 0-.2l.2-.2s0-.1.1 0h.3c.2 0 .2 0 .2.2l-.1.2h-.7ZM113.7 143.5v-.1h-.5c-.5 0-.6 0-1-.2-.3-.2-.3-.2-.3-.9 0-.4 0-.4-.2-.5h-.2s.2-.2.3-.1v-.1c.2-.1.2-.3.2-.7v-.8l-.2-.5.1-.3.2.1c0 .1.1.1.2 0l.2-.1v-.1l.3-.2h.3c0-.2 0-.2.5-.2h.4v.3c0 .2 0 .3-.5.7-.2.3-.5.5-.6.5-.2 0-.6.6-.6.7 0 .2 0 .2.7.2h.8c.1.2.2.2.3.2l.2.2h.2l.4.6c0 .3 0 .4-.3.6l-.4.2h-.3c-.2.1 0 .3.1.4l.2.2-.2.1c-.2 0-.3 0-.3-.2ZM100.4 141.3v-.1h.1c0 .1 0 .2 0 0ZM100 140.8s0-.1 0 0h.2c0 .1 0 .2-.2 0ZM115.4 140.3l-.2-.3v-1.9h.2c0-.2 0-.2.4-.2l.6.1.2.1c.2 0 .7.5.8.8 0 .3 0 .4-.6 1l-.4.4h-1ZM118 139.4c-.5 0-.7-.5-.3-.9l.6-.1h.5l.2.2c.2 0 .2 0 .3.3 0 .1 0 .2-.2.3 0 .2-.1.2-.5.2a4 4 0 0 1-.6 0ZM111.4 137.8l-.1-.3c-.2-.1-.2-.4 0-.6l.4-.2c.1 0 .1 0 0-.2l-.1-.7c0-.7 0-.8.2-1 .2-.2.2-.2.7-.2l.6.1.2.1c.3 0 .5.3.5.8l-.1.5-.2.3-.1.1c-.2 0-.4.3-.4.5l-.1.4-.2.2-.6.3h-.7ZM67.7 137.6l-.3-.1c-.4-.2-.4-.3.1-.3h.2l.2.2c.1 0 .1.2 0 .2h-.2ZM61.2 136.8l-.2-.2v-.5l.2.3.2.2v.4l-.2-.2ZM116.5 136.7l-.2-.2c-.2 0-.5-.3-.5-.4l-.1-.2-.1-.5-.1-.4v-.4l.1.1s.2.1.2 0c0 0 .6 0 .9.2.2.1.3.2.6.1h.4c.2.2.4.2 1 .3l1 .2c-.1 0-.1 0 0 0h.1v.1l-.5.4-.4.3-.2.1-.2.1-.1.2h-1.9ZM121 135.8c0-.2.1-.3.2-.1v.2l-.2-.1ZM94.3 134.3l-.1-.1.2-.1.2.1v.2h-.3ZM57 134.2l-.3-.1-.1-.1.2-.1c.2 0 .2 0 .2.2s0 .2 0 0ZM110.9 134l.1-.3.2-.4c0-.2 0-.2.3-.2h.3l.2.1.1.3c0 .2-.2.5-.4.5h-.2c0 .2 0 .2-.3.2h-.3v-.2ZM56 134l-.3-.2c0-.1 0-.2.2-.2s.2 0 .2.2c0 .3 0 .3-.2.1ZM86.4 133.8l.1-.2h.3c0 .3 0 .3-.2.3l-.2-.1ZM109.7 133.6c-.2 0-.2-.1-.2-.5v-.3h.2c.2 0 .2 0 .2.2l.1.2.2.3c0 .2 0 .2-.2.2h-.3ZM103.4 132.8v-.2.1c.2.1.2.4 0 .4v-.3ZM85.2 132.7c0-.2 0-.2.3 0 .2 0 .2.1 0 .1l-.3-.1ZM93.9 128.5v-.2l.1-.1.1-.3c0-.1 0-.2.1-.1h.1l.2-.4v.5l-.1.2-.1.2-.1.2H94l-.1.2c-.2 0-.2 0-.1-.2ZM118.4 127.9v-.2l.1-.1c.2 0 .2 0 .2.2l-.2.1ZM136.8 125.8c0-.1 0-.2.2-.2l.2-.1.2-.1c.2 0 .2 0 .1.1 0 .1-.1.2-.3.2h-.1l-.2.2-.2.1v-.2ZM142.7 123.6l.1-.3.1-.3h.2l.1.2h-.1v.4h-.2v.1l-.2-.1ZM141.3 123.6h-.1V123.2c.2 0 .2 0 .3.2l-.1.2h-.1Z" fill="#876000"/><path d="M128.8 161.8c0-.3 0-.3-.3-.4l-.5-.2-.2-.1-1.1-.1h-1l-.4.2c-.3.3-.3.3-.6.3h-.4c0-.2-.1-.2-.4-.2l-.4-.1-.3-.1-.3-.1c0-.1-.1-.2-.3-.2h-.3c0-.1 0-.2-.2-.2h-.3v-.2l-.3-.1-.3-.2-.1-.1-.3-.1-.2-.1-.1-.1-.2-.2h-.2c-.2 0-.2-.1-.2-.2l-.2-.1-.2-.1-.2-.1-.2-.1-.2-.2h-.2c0-.2-.1-.2-.3-.2l-.2-.2h-.1l-.1-.2-.2-.1h-.2l-.2-.2-.1-.2h-.3l-.2-.2-.2-.2-.2-.1-.3-.1-.2-.1c-.1 0-.3 0-.4-.2a.7.7 0 0 0-.4-.1l-.2-.1-.2-.1-.2-.1-.2-.2-.1-.1-.2-.1-.3-.1-.2-.1h-.1c0 .3-.1.2-.2 0l.1-.1.4-.3.3-.2.3-.2.4-.3s.2 0 .3-.2l.4-.3.8-.6.6-.5s.2 0 .3-.2l.7-.5.4-.4s.3-.2.4-.1c0 0 .7-.5.7-.7l.3-.4.2-.4v-.5c.2 0 .3-.1.3-.2h.2c0 .2.3.2.3 0h.5c0 .1 0 .1.1 0h.4l.2-.2.4-.1.5-.1.3-.1.2-.1c0-.1.1-.2.3-.2.2 0 .4 0 .4-.2h.3c.2 0 .2 0 .2-.2s0-.3-.2-.3v-.1l-.3-.1-.2-.1-.2-.2c0-.2-.1-.2-.3-.2l-.3-.1v-.2h.7l.1-.1 1-.2h-2.4v-.6l.2-.2.1-.3v-.2l.2-.2.1-.3.2-.3v-.3l.2-.3h2l.3.2 1.3.2.1.3.1.2c.1 0 .2 0 .1.3 0 .2 0 .2.2.2l.1.2.1.3.1.2c0 .2 0 .2.2.2v.2h.2l.1.2v.2h.2v.2h-1.2c0-.2-.2-.2-.5-.2-.4 0-.4 0-.3.1l.2.3v.2h.3l.5-.1h.3l.5.1c0 .2.2.2.3.2.3 0 .4 0 .4.2.2.1.2.1 0 .2v.6l-.2.1-.1.1-.1.2h-.1l-.2.2-.2.1-.2.1-.4.1c-.2 0-.3 0-.3.2h-.2c-.2 0-.3.2-.3.3h-.2c-.2 0-.2 0-.3.2h-.1l-.1.2-.3.1-.2.1v.1c-.2 0-.2.1-.2.2h-.3c-.2.1-.2.1-.2.3v.2h.2l.3.1c0 .1 0 .2.2.2h.2l.1.2.2.1.1.2h.2c0 .2 0 .2.2.2l.2.1.1.1v.2c0 .2.1.2.2.3l.2.1v.1c.2 0 .2 0 .2.2v.3c.2 0 .2 0 .2.6l-.1.6-.1.1c0 .1-.3.2-.8.2-.4 0-.5 0-.5-.2h-.3c-.3 0-.5-.1-.5-.2s-.2-.2-.6-.2c-.3 0-.3 0-.4.2l-1 .1h-.9c0-.2-.1-.3-.3-.3h-.2c0-.2-.1-.2-.3-.2l-.2-.1-.1-.1-.1-.1c0-.1-.1-.2-.3-.2h-.2c0-.2 0-.2-.2-.2h-.3c0-.2 0-.2-.3-.2l-.4-.1-1.1-.1h-1.1v.1l.2.1.1.2.1.1.2.1.1.1h-.5c-.5 0-.6 0-.8.2h-.4v-.1c0-.1-.1-.2-.3-.2-.1 0-.2 0-.2.2l-.1.2.1.1.2.1.2.1V155.5c.2 0 .2.2.2.3l.1.2.1.2c0 .2.5.7.7.7.1 0 .2 0 .6-.4l.2-.3v-.2l.2-.2v-.3c.2-.2.4-.1.4.1s.3.5.5.5h.3c0 .2.1.2.4.2h.4c0-.2.3-.1.3 0 .1 0 .2 0 .2.2h.2c.2 0 .2.1.3.2v.2h-.2s-.3.2-.3.4v.2c-.2.1-.2.4 0 .7 0 .2.1.3 0 .4l.3.4v.2l.1.3.2.3.1.3.5.1c.4 0 .4 0 .6-.2.1-.1.2-.2.1-.3l.2-.4.3-.5c0-.2 0-.2.3-.2l.4.2h.3l.4.2.6.1c.4 0 .5 0 .6.2h.4c.4 0 .4 0 .5.2l.5.1.4.1.4.1.3.1.3.2h.4l.5.2.3.1.2.2h.2c0 .2.2.2.4.2l.4.1.2.1c.1 0 .2 0 .2.2l-.1.1-.1.1-.2.2c0 .1-.2.2-.5.2l-.5.1-.6.1h-.5v-.2Zm-9.1-9.4v-.4c-.2 0-.2 1 0 1v-.6Zm6.1-4.6-.1-.1h-.2l.1.1h.2Z" fill="#F7BC00"/><path d="M105.3 156.4h-.2c-.2 0-.2 0-.3-.2h-.1l-.2-.5c0-.4 0-.7.2-.8h.1c0-.2.1-.2.9-.2l.9-.1 1.4-.1 1.4-.1c0-.1 0-.2.3-.2h.3l.3-.2h.3s.1-.2 0-.2l-.1-.1-.3-.1c-.1 0-.2 0-.2-.2l-.2-.1v-.1l-.3-.1-.2-.1-.1-.2h-.1l.2-.3.1-.1h.3l.1-.1c-.2 0-.2-.1 0-.2v-.1l.2-.3c.2-.1.2-.2.1-.3 0-.2-.1-.2-.2 0h-.2l-.2.2-.3.3c-.2 0-.2.1-.2.2s0 .1-.2 0h-.2l-.1-.2-.1-.2c0-.3 0-.4-.4-.4-.1 0-.2 0-.2-.2 0-.1 0-.2.2-.2l.2-.3c0-.3 0-.3-.2-.3-.1-.1-.2-.2 0-.3v-.1l.2-.3v-.4c0-.2 0-.2.2-.3l.3-.3c0-.2.1-.2.3-.2l.2-.1v-.3c.3-.2.3-.2.4 0 .2.2.3.3.3.5l.1.2.2.2.1.3.2-.3c.2-.2.2-.5 0-.6l-.1-.3-.2-.4a1 1 0 0 1-.3-.3l-.5-.3-.1-.1-.2-.1v.2c.1.1.1.1 0 .2h-.2c0-.2-.3-.2-.8-.3-.3 0-.5 0-.5.2v.5l-.1.3v-.3c0-.1 0-.2-.2-.2l-.1-.1-.1-.1-.3-.3h-.1l-.1-.2-.1-.1-.2-.2-.2-.2h-.1l-.1-.2-.1-.1-.3-.1-.2-.1-.2-.2v-.1h-.3l-.2-.2-.1-.1-.1-.1-.1-.2v-.1l.2-.4v-.3l.2-.3.1-.2c.2-.1.1-.2 0-.2h-.3l-.2.4-.1.2-.2.5H103.7c0 .1 0 .1 0 0h-.2v-.1l-.3-.1-.3-.1-.3-.1a1 1 0 0 1-.3 0v-.3l.2-.1-.1-.2h-.2l-.1-.2-.1-.2-.2-.1v-.1l-.2-.1-.1-.1-.1-.1-.1-.2h-.1l-.2-.2c-.2 0-.2-.1-.2-.3v-.2c-.2 0-.2-.1-.2-.2l.1.1.2.2s.3 0 .5.2l.5.2.2.1h.3l.6.1.3.1.3.1.3.1.3.1.3.2.3.1h.3l.3.2.2.1.2.1.3.2.3.1.1.1.3.2a33 33 0 0 0 1.3 1c.4.4.5.4.5.3l-.2-.2v-.2l-.2-.2v-.2c0-.2-.3-.5-1.5-1.6-.9-1-1.3-1.3-1.4-1.3l-.3-.1v-.1l-.2-.2-.3-.1-.3-.2-.3-.3v-.7l-.4-.3-.4-.3-.4-.3-.4-.2h-.4c0-.2-.2-.2-.6-.2-.5 0-.6 0-.7-.2h-.2c-.3 0-.3-.2-.3-.4 0-.1 0-.2.4-.6l.5-.6.3-.4.2-.3.2-.4.3-.3c0-.1 0-.3.2-.4l.3-.4v-.2l.2-.3.1-.2.1-.2.1-.3.2-.2c0-.2 0-.3.3-.3v.2c0 .4.3.4.8 0 .4-.2.4-.3.4-.7 0-.3 0-.4-.2-.4l-.2-.1-.3-.2h-.2v-.4c0-.4 0-.6.2-.8v-.7l-.2-.4v-.3l-.2-.2-.2-.4c-.2-.2-.3-.4-.1-.4h.1c.1-.1.2-.2.7-.1.5 0 .6 0 .7-.2h.5l.4-.2.3-.1.4-.1.2-.1c.1 0 .2 0 .2-.2h.3a8 8 0 0 0 1.9-2l.1-.2.1-.4v-.3h.2l.3.1.4.1.2.1.2.1c0 .1.1.2.3.2h.2c0 .2.2.2.3.2.1 0 .2 0 .2.2h.4c.3 0 .3 0 .3.2l.2.1.3.1.3.1.4.1c0 .1 0 .2.3.2h.4c0 .2 0 .2.2.2h.3v.3l-.1.7a5 5 0 0 0-.1 1.7v1.5c.2.1.2.2.2.6l.1.7.1.6v.5h-1c-.1-.2-.3-.2-.6-.2l-.4-.1-.4-.1-.5-.1-.5-.1c-.2 0-.3 0-.4-.2h-.4l-.4-.2-.5-.1c-.4 0-.4 0-.6.2l-.1.4.1.5h.1l-.2-.4v-.3h.3c.3 0 .6.1.4.2l.1.2.3.2h.3c.2.2.4.2.5.1 0-.1.1 0 .2 0l.3.2c.2 0 .2 0 .2.2v.1c-.2 0-.2 0-.2.2l-.2.3c-.2.2-.2.2 0 .2h.2l.1-.2c.2 0 .5-.2.5-.3h-.1l-.1-.1h.8l.3.2h.3l.4.2.3.1.4.1.2.2c.2 0 .2 0 0 0v.1l.3.1.5.2s.2 0 .3.2c.1.1.2.2.2.5l.1.4c0 .1.1.2 0 .2l.5.5h.3c0 .2.2.2.7.2l.8-.1.1-.1.2-.1.2-.2.4-.3.4-.3.3-.1.7-.1c.7 0 .9 0 .7.1v.4c.2.2-.4 1.1-.8 1.1-.2 0-.4.3-.4.4l-.1.3-.2.2h-.9l.4.1h.3v.6l-.2.3-.1.2-.1-.1-.2-.1c-.1 0-.3 0-.3-.2-.1-.1-.5-.1-.7.1l-.2.2.1.2.6.1h.5c.1-.2.1-.2.1.2v.5c-.2.1-.2.2-.2.6l-.1.6c-.2.4-.2 1.4 0 1.6l.1 1.2v1h.2l.2-.2.5-.4v-.3l.2-.2.1-.2.1-.6.1-.8.1-.8c0-.5 0-.6.2-.8v-.3h1c.2 0 .3 0 .4-.2l.3-.1.1-.2.4-.4.2-.5v-.3l.2-.1-.3-.3c-.2-.3-.3-.3-.5-.3h-.1l-.2-.2-.2-.1.4-.5.4-.4c0-.1 0-.2.2-.2l.1-.2.4-.5c.2-.2.5-.5.5-.7l.3-.4.2-.3.1-.2c.1-.1.1-.1 0-.2v-.2c0-.2-.4-.4-.5-.4l-.2-.2H122.4l-.4.2h-.5c-.1.2-.1.2-2 .2l-2-.1-.8-.1c-.4 0-.5 0-.6-.2h-.9v-.6c.2 0 .2-.1.2-.6l.1-.7.1-1v-1c0-.3.1-.4.2-.4l.2.1.3.1.4.3c.2.3.2.3.5.2l.3-.1c.1-.2.2-.2.2 0l.8.9c.2.2.3.2.5.2l.3.1.4.1c.3 0 .4 0 .5.2h.4c.3 0 .4 0 .4.2l.1.2.2.3.2.4.3.3h.7l.3-.3c.2-.1.3-.3.3-.4l.2-.2c.2-.1.3-.2.3-.5l.5-.1h.6c.1.2.7.2.9 0h.4l.4-.2h.3l.3-.2.3-.1c.1 0 .2 0 .3-.2l.3-.2.4-.4.7-.5c.3-.2.5-.4.5-.6l.1-.2.2-.4v-.3h.5v.6l.1.3c0 .4 0 .4.5.4.3 0 .5.1.5.3l.3.4.5.3h.3c.1.2.2.2.4 0l.2-.1s.4-.3.4-.5c0 0 0-.2.2-.3l.3-.4.1-.1.3-.2h.3l.2-.6c0-.3 0-.3-.2-.5s-.2-.3 0-.3l.2-.1.3-.2.3-.1.2-.1.3-.3c.2-.2.3-.2.5-.2.3 0 .4 0 .2.1l-.2.3-.2.4c0 .3.3.6.5.6h.2c0 .2.1.2.5.2h.3l.4-.3c.4-.4.5-.7.5-1.1 0-.3 0-.4-.2-.5-.2-.2-.2-.2-.6-.2h-.4c0-.2.2-.4.3-.4l.2-.2.3-.1.2-.1.2-.1.2-.1.3-.2.2-.1.2-.1h.2s0 .2.2.2l.1.5.1.4.1.3c0 .1 0 .2.2.2s.4 0 .5-.2l.2-.3.2-.3-.1-.2v-.6l-.1-.5v-.2c.2-.2.3-.2.5-.2l.4-.1.1-.2.3-.1.3-.1.2-.1c.1-.2.5-.2.4 0l-.1.3-.2.3-.1.3-.1.7c0 .4 0 .4.2.6.2.3.2.4-.1.4-.2 0-.3 0-.6.3l-.5.4-1 1s-.1.3-.4.5l-.5.6-.2.4c-.2.1-.3.3-.3.4 0 0 0 .2-.2.3l-.2.4-.1.2-.2.2s0 .2-.2.3l-.2.4-.3.4c-.2.3-.3.3-.5.3l-.4.1-.9.1h-2c-.4 0-.5 0-.5.2l-.2.1-.2.1-.2.1s-.2 0-.3.2l-.2.1c-.5 0-.7 0-.9.2-.2.2-.2.2-.2.6l.1.6c.1.1.2.2.1.6l-.1.5-.1.5-.1.5c-.1 0-.2.2-.2.5l-.1.6-.1 1.4v1.4c.2 0 .2.2.2.4l.1.3c.1 0 .2 0 .2.3 0 .2 0 .3-.2.3l-.1.1-.2.1-.3.1-.2.2h-.3c0 .2-.1.2-.2.2l-.2.1-.3.1-.3.1-.3.2h-.3c0 .2-.2.2-.4 0l-.7.1-.3.1c-.2 0-.3 0-.4.2h-.2v.1l-.3.3-.8.1-.6.1-.4.2h-.4l-.2.2-.2.1-.3.1a7 7 0 0 0-1.8 2l-.3.3v.3l-.2.3-.3.3-.2.4-.2.3-.3.4a7.4 7.4 0 0 1-2 1.8l-.3.3c-.2.2-.3.2-.2.3l-.1.1h-1c0-.1-.3-.2-.6-.1-.3 0-.4 0-.5.2-.2.2-.3.2-.3 0h-.4l-.5-.1c-.1-.1-.2-.2-1.2-.2l-1.2-.1-.6-.1h-.5v.4c0 .3 0 .4.2.5v.8h.4l.6.1.3.1v-.1c.2-.3.4-.3.7 0 .4.1.6.3.4.3l-.1.1-.2.2c-.4.2-.4.5-.2.7l.1.3.1.2h.2l-.2.2-.2.2h-.2c0 .2-.2.2-.2.2l-.3.1-.2.1-.2.1-.3.2-.2.1-.3.1s-.2 0-.2.2h-.4l-.2.1-.5.2h-.3l-.3.2h-.4c0-.2-.3-.2-.4 0h-.3a1 1 0 0 0-.6.4l-.6.1-.6.1-.6.2-.3-.1Zm7.2-7.6h.2l.3-.5-.1-.3-.1-.2v-.3h-.1l-.1-.1v-.4c0-.2 0-.2-.2-.2 0 0-.1-.2 0-.2v-.2c.2 0 .3 0 .3.2h.2c.2 0 .2.1.3.2l.2.1.2.1.1.2.2.1.2.1.2.1.3.1c.1 0 .2 0 .2.2h.2v.2l.4.1.3.1.7.1h.6l.2-.2.1-.1.1-.1c.1 0 .2 0 .2-.3v-.2c.2 0 .2 0 .2-.2l.1-.3.1-.1v-1.4l.1-1.3.1-.3v-.4H116.5l-.2.1s-.2 0-.3.2h-.7l-.3-.1c.1-.2.1-.2 0-.2h-.3c0-.2 0-.3-.3-.3l-.2-.1.2-.4c.2-.2.3-.3.3-.5v-.2h-.1c0 .2 0 .2-.2 0h-.1l-.2-.2h-.2l-.3-.2c-.1-.2-.2-.2-.8-.2h-.8v-.3c0-.2 0-.3.3-.5l.4-.3c.3 0 1.2-1 1.1-1.1 0-.2-.5-.1-.6 0l-.2.1-.3.1v.1l-.2.2h-.2l-.3.2-.1.1v-.8c0-.3 0-.4-.2-.5l-.1-.3c-.1-.2-.7-.4-1.1-.4l-.6.1-.2.2v.5l.1.6.1.5.1.4.2.2v.3c.2 0 .2.2.2.2l.2.4c.2.1.3.3.3.4v.1h.6l.3-.1c.2-.1.2 0 .2.5v.6l.5.2c.3.2.4.2.7.2h.5c0-.1.1-.1.1 0 0 .2.1.3.2.3l.1.1c0 .2 0 .3-.3.3-.2 0-.2 0-.2.2l-.1.3-.1.2-.1.2-.1.1-.2.2-.2.2-.1.1-.2.1v.2h-.2l-.1.1-.1-.4c0-.2 0-.2-.3-.2l-.3.1-.2.1-.4.3v.5c0 .2.1.3.2.3v.4l.1.4.2.2v.3l.2.2.8.9h.1Zm6-1.5v-.3h-.4v.3c0 .3 0 .4.2.3l.2-.3Zm-12.3-2.1c.2-.2.2-.2 0-.3l.1-.3v-.3c0-.1 0-.1 0 0h-.3v.6c-.1.3 0 .4 0 .4l.2-.1Zm10.4-5.4c.4-.5.6-.7.6-.9l-.7-.6h-.3c0-.2-.2-.2-.4-.2l-.3.1v.1h-.1v.2l-.1.6.1.7c.2.3.3.4.5.4l.7-.4Zm-8-1.6.4-.8-.5-.5h-.2c0-.2-.2-.1-.5.1l-.2.6c0 .3 0 .4.2.5.2.3.4.3.7 0Zm3.4-.5.1-.1.2-.2h.2l.1-.2V137.5l.2-.2c.2-.1.2-.1 0-.1V136.6l.4-.3h.1l.2-.3.1-.4c0-.3-.2-.6-.4-.6l-.3-.1-.4-.1-.5.1c-.2.3-.2.4-.2.9v.4l.2.3c.3.3.3.4 0 .4s-.3 0-.5.2l-.1.1v.2c.2.1.2.2.2.3 0 .1 0 .1.1 0h.3Zm6.2 0-.2-.1c-.1 0-.1 0 0 0h.2Zm-1.4-.5H116.5h.2s.1 0 0 0Zm-.8-.3h-.1s-.1 0 0 0v.1h.1Zm-.9-.1-.5-.1h-.7.4c.4 0 .5 0 .5.2h.1l.2-.1Zm12.3-2.4.2-.3s0-.2.2-.3l.3-.4.1-.3c.2-.2.1-.3-.1-.6s-.2-.3-.4-.3l-.4-.1-.4-.1c-.3 0-.4 0-.6.2-.4.4-.4.5-.2.7v.5c0 .5 0 .6.4.9.2.2.3.2.5.2l.4-.1Zm-17.6-1v-.3h-.1v.3c.2.1.2 0 .1 0ZM118 154.6v-.2c.2 0 .3.1.3.2.1.3 0 .3-.2 0Z" fill="#F7BC00"/><path d="M114.4 152.8c0-.2-.3-.6-.4-.6 0-.2.6-.2.8 0 .3.2.2.7-.2.7l-.2-.1ZM108.8 152.4l.1-.1c.1 0 .1 0 0 0v.2-.1ZM121.3 148c0-.3 0-.3.3-.6.2-.2.3-.3.5-.3 0 0 .1 0 0 0v.2l-.8.8v-.2ZM109.2 147.4c-.1-.1 0-.2.2 0 0 .1-.1 0-.2 0ZM72 139.8l.4-.2v.1c.1.2.1.2-.2.2l-.2-.1ZM75.5 139.9l.2-.2v-.2l.2-.2c.1-.2.1-.4 0-.4l.1-.1.5-.2h.7c.2-.2.3-.2.6-.2l.4-.1.6-.2h.5l.5-.2.5-.1.5-.1.4-.1.5-.1c.4 0 .4 0 .5-.2h.4l.4-.2.4-.1.4-.1c.2-.2.7-.2.7-.1l.1.2.1.1.1.3.2.1h-.2l-.1.1-.3.1c-.1 0-.2 0-.2.2H84c-.2 0-.3.1-.3.3h-.3c-.1 0-.2 0-.3.2h-.3c-.2 0-.2.1-.3.2l-.2.1h-.2c0 .2-.6.1-.7 0-.2-.3-.6 0-.7.4v.3h-.5l-.5.1-.6.1c-.7 0-.9 0-.9.2h-2.7ZM68.7 139.1v-.2c.2 0 .3-.2.1-.3a2 2 0 0 1-.3-.5c0-.1-.3-.4-.5-.4l-.4-.3H67l-.5-.1-.4-.1c-.2 0-.3 0-.5.3l-.3.3v1.1h-.2c0-.2 0-.2-.5-.2l-.6-.1-.5-.1-.5-.1c-.1-.1-.2-.2-.5-.2H62V137.3l.2-.1.6-.5c.8-.7.7-.7 1.2-.7l.5.1.6.2h.6c0 .2.2.2.9.2l1 .1 2 .1 1.6.1.4.1h.4c.2-.2.3-.2 1.7-.2h1.6v.2c0 .3-.3.4-.8.4-.4 0-.5 0-.5.2h-.5l-.6.2a1 1 0 0 1-.5 0l-.4.2c-.2.2-.2.2-.5.2h-.4c0 .2-.1.2-.3.2l-.4.1-.3.1-.3.1-.3.2-.6.3-.2.1h-.1ZM60.9 137.9c0-.1-.2-.2-.5-.2H60c-.1-.2-.2-.2-.4-.2l-.4-.1-.3-.1-.3-.1-.2-.1c-.2 0-.2 0-.3-.2H58c-.2 0-.3-.1-.3-.2l-.1-.1.1-.2.2-.4.2-.3c.2-.2.2-.5-.1-.7a2 2 0 0 1-.3-.4l-.4-.2-.3-.2-.4-.1-.5-.1v-.2h-.4l-.6.2a2 2 0 0 0-.4 1c0 .2-.1.2-.2 0h-.2v-.6c0-.6 0-.9.3-1l.9.1h.2l.1.1h.5c.5 0 .6.1.6.2l.5.1.4.1c.1.1.2.2.5.2h.3v.3l.5.5v-.2c.1-.2.1-.2.5-.2l.4.1.4.2h.3l.2.2.1.6.2.4v.2l.2.2.1.3c0 .2 0 .4.2.4v.8h-.3l-.4-.1ZM86.8 136l-.3-.2.2-.1.2-.2.3-.2h.2l.2-.2.5-.3.2-.2 1-.8.1-.1c.2 0 1-.7 1.1-1 0-.2.2-.3.3-.4l.1-.3.2-.3.3-.4c0-.2.1-.3 1.2-1.5a9 9 0 0 0 1.6-1.8l.1-.3v-.2l.2-.3.1-.5-.1-.6c-.2-.2-.2-.2-.1-.3h.2v-.2h.2l.1-.2.1-.1.2-.2.2-.1.2-.2h.2c.2 0 .2-.1.2-.2l.5-.1.3-.1.4-.2h.4c0-.2.2-.2.4-.2h.5c.2-.2.7-.3.8-.2v1.4c0 .8 0 1 .2 1v.5l.2.4.2.2.1.2.1.2-.4.1-.2.1-.3.2H99l-.2.2-.2.1-.3.1-.2.1c-.2 0-1 .9-1 1v.2c-.2 0-.2.2-.2.3l-.1.2-.1.2s0 .2-.2.3v.1h.2c.2 0 .2 0 .2.2l-.1.2-.1.2-.3.4c-.6.5-.7.7-.7.8l-.2.3c-.2.1-.3.3-.3.4 0 0 0 .2-.2.3l-.2.3-.1.3c-.1 0-.1.1-.2 0H93c-.2-.2-.3-.2-1.1-.2l-1.2.1-.4.1c-.3 0-.5.2-.8.5l-.2.4-.1.3-.3.1-.1.1c0 .1-.1.2-.4.2h-.3c0 .2 0 .2-.2.2l-.3.1-.3.1h-.3s-.2 0-.3-.2ZM81.6 135.5c0-.2.1-.4.4-.4l.2-.1.2-.2c.2 0 .5-.2.7-.5l.2-.1 1-.8 1-.8h.2l.2.3.3.5.5.3h.2l-.4.4-.2.1-.2.1-.3.1-.2.1-.3.2H85l-.3.2-.3.1-.4.1-.4.1-.3.1-.4.2h-.5c0 .2-.1.2-.4.2h-.3v-.2ZM56.8 132l.1-.1h.2v.2H56.9ZM54 132c-.1-.1-.1-.1 0-.2 0-.1.1-.2.4-.2h.3c0 .3-.4.5-.7.3ZM55.2 131.9v-.2l.5-.1h.6v.2l.2.1H55.2ZM101.7 130.4l-.4-.3c-.2 0-.3-.2-.3-.4s0-.3.5-.3c.4 0 .5 0 .6.2.4.4.5.5.5.7 0 .4 0 .4-.3.4-.2 0-.3 0-.6-.3ZM118.4 127.8l.1-.1.3-.1h.4l.1.2h-.9ZM146.6 124.3l-.2-.1-.5-.5v-.1c-.1 0-.2-.2-.2-.6v-.6l-.2-.3c0-.1 0-.2-.3-.2l-.2-.2-.1-.1.1-.3c.2-.1.3-.1.4 0h.3v.2l.2.1.2.1v.1l.2.2v.2c0 .2 0 .5.2.5v.5c0 .6.1.6.2.6l.1.3v.3l-.2-.1Z" fill="#F7BC00"/><path d="M130.7 161h-.4c-.2 0-.3 0-.3-.2h-.3l-.2-.2-.3-.1-.5-.2a1 1 0 0 0-.4 0l-.2-.2-.4-.1-.3-.1-.5-.1-.5-.1c0-.1-.1-.2-.4-.2h-.5c0-.2-.2-.2-.6-.2l-.6-.1-.3-.2h-.4l-.3-.2c-.2 0-.2 0-.2-.3l-.1-.3c-.2-.2-.2-.4-.1-.4v-.2c0-.3 0-.4.2-.2l.3.1c.3 0 .4 0 .4.2h.4c.4 0 .5 0 .5.2l.5.1.4.1.5.1.5.1c0 .1 0 .2.5.2h.4c0 .2 0 .2.5.2l.5.1.4.1c.4 0 .4 0 .5.2l.4.1.3.1.4.1.3.1c0 .1 0 .2.3.2h.2v.2c.2 0 .2 0 .2.5l-.1.4-.1.2c0 .2 0 .2-.3.2l-.3-.1ZM119.2 156.4l-.3-.2c-.2 0-.5-.2-.5-.4v-.2c-.1 0-.1-.1 0-.2l-.1-.5-.1-.3c0-.1 0-.2 0 0l.2.1.2.1.1.1.1.2h.1l.1.2h.2v.2l.4.2h.2l.1.2.1.1.2.1.3.1c0 .2-.2.3-.7.3l-.6-.1ZM98.6 155.6h-.3c-.3 0-.4-.1-.4-.3 0-.1.2-.2.3-.1h.5l.4.2.5.1.4.1h-1.4ZM126.7 155.6l-.1-.2h.6l-.2.2h-.3ZM123.2 155l.2-.2v-.2l.2-.2a8 8 0 0 1 1.6-1.7h.3c.2-.2.6-.3.7-.2l.2.1h.2-.3l-.3.2-.3.1s-.2 0-.2.2h-.3c-.1 0-1.2 1-1.2 1.3 0 0 0 .2-.2.3l-.2.4-.2.1h-.3l.1-.1ZM119.6 153.6v-.2l-.1-.3c-.2-.2-.2-1.1 0-1.3v-.2l.4-.7.2-.3s.1-.3.5-.6l.5-.5h.6l-.2.2-.3.2-.4.3-.2.2v.1c0 .2-.1.3-.3.4l-.2.4s0 .2-.2.2v2c.1 0 .2 0 .2.2h-.5ZM114.7 152.7v-.1c.1 0 0-.1 0-.2-.2-.2-.3-.2-1-.2h-.5l-.3-.2-.3-.1v.1l-.4.2h-.2l-.6-.2-.3.1-.5.2h-.4c-.1.2-.8.2-.8.1l.2-.2.8-.2c.2 0 .4-.2.5-.5l-.1-.4c-.2-.1-.2-.2-.2-.5v-.4c-.3-.3-.2-.3.6-.3l.8.1 1.3.1c1 0 1 0 1.1.2l.4.1.4-.2.2-.2-.2-.2a35.8 35.8 0 0 1-2.7-3l-.1-.3h.3l.2.4.3.4.1.2.9 1 .9 1h.2c.2.2.4.2.7-.1.2-.2.3-.3.3-.6s.2-.5.3-.5c.1 0 .2 0 .2.2l-.1.4-.2.3-.6.7c-.4.5-.6.6-.5.7 0 0 0 .2-.2.2l-.3.2c-.2.1-.2.2-.2.5l.2.6.3.3.2.1c.2 0 .4-.2.5-.3l.1-.2c.2 0 .4-.2.3-.3l.1-.1.1-.7v-.5H117.4l.4.1.2.4v.3l.2.3.2.2c.2.1.2.2 0 .3 0 .1 0 .2-.2.3l-.4.1-.4.1-1.4.2h-1.3ZM108.8 152.3v-.1c-.2 0-.2-.2 0-.2s.2 0 .2.3c0 .2-.2.2-.2 0ZM106 151.2h-1.7l-1.6-.1c0-.1-.1-.2-.6-.2h-.6 2.9a32 32 0 0 1 3.3 0h.3v.4h-2ZM121.8 149.4l.2-.1c.2 0 .2 0 0 .1h-.2ZM109.8 148.4l-.3-.2-.2-.2h.1c.1-.2.2-.2.2-.1l.1.1v.1l.1.1.1.2h-.1ZM124.3 148.1l.1-.2.5-.1c.1 0 .3 0 .3-.2h.6c.4 0 .6-.1.6-.2l-.3-.2c-.2-.1-.3-.2-1.1-.2l-1 .1-.2.2h-.9l-.4-.1c-.3 0-.4 0-.5.2-.2.1-.3.1-.3-.2 0-.1 0-.2.2-.3l.2-.3v-.1h.3l1.8.1 1.7.1.8.1.7.1c0 .1.2.2.5.2l.5.1.2.2.1.1.1.1.1.2v.3c.2 0 .2 0 0 0l-.5-.1c-.2 0-.3 0-.4-.2-.2-.2-.3-.3-.5-.1h-.6c-.5 0-.6 0-.8.2a1 1 0 0 1-.5 0c-.3 0-.6.2-.6.3h-.7ZM107.1 147.3v-.1l-.2-.1-.1-.2h.5l.2.1v.1l-.1.2h-.3ZM112.1 145.9v-.7h.2v.6h-.1c0 .1 0 .1 0 0ZM94.2 144.6h.6-.6ZM95.5 144.4h.7c.7 0 .7 0 .8-.2h.8c.7 0 .7-.1.8-.2l1-.1 1-.1h2v.2h-1l-1 .1-1.2.1a5.3 5.3 0 0 0-1.5.2h-2.4ZM113.9 143.7c.1-.2.2-.2.4-.2h.7c.1 0 .2-.1 0-.2l-.1-.3-.1-.4-.1-.2-.1-.3-.2-.6-.1-.3c-.1-.1-.2-.2-.2-1.5 0-1.4 0-1.4.2-1.5v-.4l.2-.3c0-.1.2-.3.1-.5h-.9l-.3.2-.6.5c-.4.4-.5.5-.5.7l-.2.4v.3l-.2.4v-1.1l.1-.3.3-.3.2-.3c0-.2.4-.6.5-.6h.2l.2-.2.3-.1.7-.1h.6l.4-.4.5-.4c.2 0 .1.2-.2.5-.4.4-.4.5.1.5l.5.1.4.1c.1 0 .2 0 .3.2h.4l.3.2h.4l.3.2.6.1h.6v-.1c.3 0 .2.5 0 .6-.2.2-.2.2-.2 0h-.3l-.5-.1-.5-.1a1 1 0 0 1-.4-.2h-.2l-.3-.2-.4-.1-.5-.1-.3-.1-.4-.1-.2-.2c-.2 0-.5.3-.5.5l-.1.2-.1.5c0 .2 0 .3-.2.4v2.2c.1.1.2.2.2.5v.5c.2 0 .2 0 .2.3l.1.4.1.2.1.2.1.4c0 .2 0 .3.2.4.1 0 .1.1 0 .1l-1 .2h-.8l.2-.2ZM79 142.9c-.1 0-.1 0 0-.1l.7-.1.8-.1 2-.1h2-1c-.9 0-1.1 0-1.3.2l-.7.1h-2.6ZM131.5 141.3l-.3-.5c.2-.1.2-.4 0-.4v-.3l-.2-.4-.1-.1v-1.4l.1-1.5.1-.6c0-.4 0-.5.2-.6v-.4c0-.3.1-.4.2-.5l.1-.4.1-.3c.1-.1.1-.1.1 0 0 .3.4.7.5.6l.1.1c.2.2.2.2.4 0 .3-.2.4-.3.4-.5s.1-.2.3-.2c.2 0 .3-.1.2-.4l.1-.3c.2-.2.2-.3 0-.6l-.3-.1-.2-.1c0-.2-.2-.2-.4-.2a1 1 0 0 1-.3 0l.4-.4s.2 0 .2-.2h.2l.2-.2.6-.1.7-.1H137l.4-.2c.2 0 .3 0 .5-.3.2-.1.3-.3.3-.4l.3-.3.2-.4v-.2c.2 0 .2-.1.2-.2l.2-.4c.2 0 .3-.2.3-.3l.2-.4.3-.3.4-.6.5-.5c0-.2.8-1 1-1l.4-.4c.3-.3.4-.4.6-.4h.3c0-.1 0-.1.1 0H145c0 .2.2.2.3.1l.2-.1.2-.1c.1-.2.2-.1.3.1l.4.5c.3.3.3.3.2.4h-.2c-.3 0-.3 0-.4.2 0 .1 0 .2.3.5.4.4.4.5.4.7v.5c.2.1.2.2.2.4s0 .2.4.6l.6.4.3.3c.2.2.2.2.3 0H148.8c.1 0 .2 0 .3-.2l.2-1.1v-.9l-.3-.3-.6-.5-.4-.2-.3-.1h-.2c-.1-.1-.1-.2 0-.2.2-.2.2-.6 0-.7l-.2-.3-.2-.1h.2l.3.1.2.1s.2 0 .2.2h.1l.2.2v.1l.2.1.1.1.1.1.2.2.2.2.1.1.1.1.1.2.1.3.1.7v.6h.1l.2.2.4.4v.1l.3.1c.2 0 .2 0 .2.2l.1.3c.2 0 .2 0 .2.2v.2c.3.1.3.2 0 .2s-.3 0-.6.3l-.4.4-.2-.1-.2-.1h-.1v-.2c.4 0 .5 0 .5-.2s0-.2-.3-.2l-.2-.1-.1-.1-.2-.1c0-.2-.3-.2-.3-.1h-.3l-.2.1s0 .2-.2.3h-.4l-.3.1c0 .2-.2.1-.2 0l-.1-.3-.1-.3-.3-.3-.2-.4c0-.1-.7-.9-.9-.9 0 0-.2 0-.3-.2l-.4-.2-.2-.1c-.2-.1-.2-.2 0-.3.3-.4.2-1-.3-1.2l-.5.1c-.2.2-.2.2-.2.5v.3l.2.2h-.7l-.8.9a5 5 0 0 0-1.1 1.3l-.3.3v.3h-.4c-.3 0-.3 0-.6.3l-.3.4v.6c.2 0 .2.1.2.3 0 .2-.2.3-.7.8l-.7.6-.6-.1-.6.1-.2.4-.6.2h-2.2l-.2.2c-.1 0-.4.3-.4.5l-.1.3-.1.2c0 .2 0 .2-.4.2l-.5.1-.3.2s-.2 0-.3.2c-.3.2-.4.3-.3.4l-.1.1v.2l-.2.3-.1.4-.1 1.1.1 1.2.1.4c0 .2 0 .3.2.3v.3l.2.2.3.4.3.3.3.2-.2.1c-.1.2-.2.2-.6.2h-.6ZM85.5 140.3h.8l.8-.1.8-.1h.7l.6-.1.6-.1h.4l.3-.1h1.9c1.9 0 2 0 2-.2l1.5-.1c1.8 0 2.4 0 .8.1-1 0-1.2 0-1.3.2H93l-2.4.2-1.3.1-1.5.1c0 .1-.2.2-1.2.2h-1ZM70.2 139.9l-.2-.2h-.8c-.7 0-.8-.1-.6-.4.2-.3.7-.7.9-.7l.2-.1.3-.1c.2 0 .3 0 .3-.2h.4l.4-.2c0-.1.2-.2.4-.1.2 0 .3 0 .5-.2h.5c.3 0 .4-.1.5-.2l.4-.1.5-.1.5-.1c.3 0 .4 0 .6-.2l.2-.1H75c-.2 0-.2 0 0-.1h.4l.5-.2s.2-.1.2 0h.2l.7.1.6-.1.3-.1.3-.2c.2-.2.3-.3.5-.3h.4c.1-.2.2-.2.5-.2l.5-.1c.1-.2.2-.2.5-.2l.6-.1.4-.1c.3 0 .4 0 .3.2-.1 0 0 0 0 0l.3-.1v-.1l-.2-.1.2-.1h.1c0 .2 0 .2.3.2l.4-.1.4-.1c.1 0 .3 0 .4-.2h.3l.4-.2.2-.1.3-.1.3-.2h.2l.3-.2h.2l.2-.2h.1c0-.2.2-.2.3-.2l.2-.1.3-.2.2-.1.4-.2h.3c.1-.2.2-.2.4-.2l.3-.1.3-.1.2-.1v-.2l.3-.1.2-.1.2-.1s.2-.1.2 0l.1-.1.4-.4.5-.4h.2v-.2l.3-.1c.2-.2.3-.1 0 0v.5c0 .2 0 .3-.3.5l-.2.3s0 .2-.2.3l-.2.3c-.2.4-1 1-1.1 1l-.2.2a4.1 4.1 0 0 1-1.2 1l-.4.3-.3.1-.2.1-.2.1-.3.2c-.1.1-.1.1-.2 0h-.3l-.2-.2h-.4l-.5-.2h-.4c0 .1-.2.2-.3.1l-.2.2v.2c.2.2.2.2.2.6 0 .4 0 .4-.2.4-.1 0-.3 0-.3.2h-.4l-.4.2-.5.1-.3.1-.5.1-.5.1-.4.2h-.5l-.5.2-.5.1-.6.1-.6.1c0 .1-.2.2-.4.1a1 1 0 0 0-.6.2l-.6.1-.5.1h-.3c-.2-.3-.4-.5-.3-.6 0-.1-.1-.2-.3-.2l-.2-.1-.4-.1a1 1 0 0 1-.6-.1l-.7-.2c-.3 0-.4 0-.5.2l-.3.3-.1.9v.7l-.2.1h-2.1ZM97.6 139.3h-.2c-.3 0-.3-.1-.3-.2l-.1-.2h-.2c0-.2 0-.2-.2-.2l-.3-.1v-.1l-.2-.1-.2-.2s0-.2.3-.4l.3-.4v-.2l.2-.2c0-.1 0-.3.2-.3v-.8h-.1l-.2-.3-.5-.5-.3-.2a.8.8 0 0 0-.3-.1h-.1l-.6-.3h-.3l-.1-.2.1-.2.1-.2.2-.3.3-.4.2-.4.2-.3.7-.8c.3-.3.4-.3.2-.4l-.1-.4v-.3l.2-.2.1-.3.1-.2.1-.2.1-.3 1-1h.2l.3-.2.2-.1.2-.1.3-.1.3-.2h.2l.2-.2.4.2c.1.2.2.2.3.2.1 0 .3 0 .4.2h2.3l.4.2.2.4.1.2c.2.1.2.2.1.4l.1.3c.2.1.2.2.2.5l-.1.5-.2.6v.5h-.1l-.3.2-.2.3v.5c.2.1.2.3 0 .4v.3l-.2.2-.1.2-.1.3-.1.2-.1.2-.2.2c0 .1 0 .3-.2.4l-.3.4-.2.4-.2.3-.2.3c-.2.2-.3.3-.3.5l-.6.6c-.3.4-.4.4-.3.5v.3c-.2.2-.3.2-.5.2h-.5c-.1.2-.2.2-.3.2l-.1.1c-.1.1-.2.2-.5.1-.3 0-.4 0-.5.2-.2.1-.2.2-.3.1Zm4.8-8.8-.1-.4c-.4-.4-.5-.5-.8-.5-.2 0-.4.1-.3.2h.2l.5.4c.4.4.4.4.5.3ZM120.5 135.8l-.2-.3-.2-.1h.7c.1 0 .1 0 0 0h-.2v.2c.2.1.2.2.1.3l-.2-.1ZM115 134l-.2-.2-.1-.4c0-.2 0-.3-.2-.3 0-.2-.1-.5 0-.4.2 0 .2-.5 0-.8v-.7c0-.4-.1-.5-.2-.7l-.1-1.6.1-1.9.1-.5.1-.3c.1 0 .2 0 .2.4v.7l.2.3c0 .3.6 1.2.9 1.3l.1.2-.1 1.4-.1 1-.1.7c0 .4 0 .5-.2.6v.2h.2v.9l-.3.1h-.4Z" fill="#DF5980"/><path d="m149 132.1-.4-.4-.1-.3c-.2-.1-.2-.3 0-.4l.4-.4.2-.3v.2l.2.1h.1l.3.3.2.2c.1 0 .2.2.1.3v1h-.7l-.4-.3ZM120 131.1h-.4c-.3 0-.4-.1-.5-.2l-.3-.1c-.1 0-.3 0-.5-.2l-.9-1 .3-.4c0-.2.1-.3.3-.3l.3-.6.3-.6h.7l.6.1c.7 0 .8 0 .8.2h1.2c1 0 1 0 1.2.2l1.8.1 1.8-.1c.1-.2.2-.2.2 0l.1.1.2.2.1.3.4.1c.2 0 .3 0 .4-.2l.2-.1v-.1l.3-.3.1-.2.2-.2h.2c0-.2 0-.2.3-.2h.7v.1c-.1 0-.2 0-.1.3 0 .2 0 .3-.2.4l-.1.3c0 .2-.2.4-.6.6-.2 0-.4.3-.6.5l-.5.3s-.2.1-.2.3l-.4.2h-.3l-.2.2-.3.1-.5.1-.4.1c-.2.2-1 .2-1.2 0h-.5c-.4 0-.4 0-.4-.2v-.2c.2-.2 0-.4-.1-.5l-.4-.2-.5-.6h-.1c0-.2-.4-.3-.9-.3-.7 0-.9.2-.9 1 0 .2 0 .3.2.4l.1.5v.2h-1ZM77.5 131h1.1c0-.2.2-.2.6-.2l.5-.1c.1-.1.1-.1 1.6 0h5.5-1c-.9.1-1.2.1-1.4.3h-1c-.1.2-6 .2-6 0Zm3.6-.1h-.4l.2.1.2-.1ZM148.1 130.8v-.2c0-.2 0-.2.1 0l.1.1c0 .1-.1.2-.2.1ZM119.2 126.6c0-.2 0-.2.2-.2a149.6 149.6 0 0 1 11.2.3l-5.7.1h-5.7v-.2ZM121 126h.8-.7ZM95.4 124.9H94c-1.4 0-1.6-.1-1.6-.2l-1.1-.1H90l1-.2 1.2-.1 1-.1h.7l.9.1h.7l-1 .1h-1c-.2.1-.2.1-.1.2h2v.4l-.1-.1Z" fill="#DF5980"/><path d="m108.3 157.5.1-.1.1-.4.1-.5.2-.6.1-.3s.2 0 .3-.2h.4c.2 0 .3-.1.3-.2l.3-.1.4-.1.3-.2h.2c.1-.2.2-.2.3-.2l.2-.1.2-.1c.1 0 .2 0 .3-.2h.2l.2-.2h.2l.2-.2h.5c.1 0 .2 0 .6-.4l.4-.5v-.2h.3c0-.2.3-.2 1.3-.2l1.3-.1.5-.1c.3 0 .4 0 .4-.2 0 0 .1-.1.2 0l-.4.4-.7.5-.3.2-.7.5-.7.6a2 2 0 0 0-.4.3l-.3.2-.4.2-.3.3s-.2 0-.3.2l-.4.2h-.1c-.1.2-.2 0-.2-.3v-.6l-.2-.3c0-.2-.1-.2-.4.2l-.3.3v.7c0 .6 0 .7-.2.7h-.1c0 .2 0 .2-.3.2h-.4c0 .2-.1.2-.3.2-.3 0-.4 0-.5.2h-.3c-.3 0-.3.1-.3.2l-.4.1-.4.1-.4.1h-.4Zm1.3-1.5c0-.3-.3-.4-.6-.3l-.2.2c0 .2 0 .2.4.2l.4-.1Zm.6-.2v-.2l-.1-.2-.2.1v.2c-.1.1 0 .2.1.2h.2ZM106 157v-.1l-.2-.2-.3-.1-.2-.1-.2-.1-.3-.1s0-.1.1 0h.6c.3 0 .4 0 .6-.2h1.1c.2 0 0 .1 0 .1-.2 0-.3 0-.3.2h-.2l-.4.3-.3.2ZM119.7 149.8l-.2-.2h-.6l-.5.1c-.1.2-.2.2-.2 0a20 20 0 0 0 2.1-2.3l.2-.3.2-.3c.2-.1.3-.3.3-.4 0 0 0-.2.2-.3v-.2l.3-.4.2-.3a7 7 0 0 1 1.7-1.7h.2l.2-.2.3-.1.3-.1.5-.1c.1-.2.2-.2.6-.2h.6l.6-.2-.5.6-.8.8-.2.2h-.9c-1 0-.9 0-1 .5v.2l-.2.2-.1.3-.1.3-.1.2-.2.3v.2l-.2.1-.1.2-.2.3-.2.3s0 .2-.2.3a1 1 0 0 0-.3.3l-.3.5-.4.5-.2.3c-.2.2-.3.3-.2.4 0 .1 0 .2-.2.3-.1.2-.2.2-.4 0ZM109 146.7v-.1l-.1-.2-.2-.3a7 7 0 0 0-2.4-2.1l-.1-.1-.3-.2-.2-.1-.2-.1-.3-.1-.2-.1-.3-.1-.3-.2h-.4c0-.2-.2-.2-.3-.2h-.3l-.1-.2h-.3l-.2-.1-.3-.2h-.1l.2-.2h.2l.2-.2h.2l.1-.1.3-.4.1-.3c.1 0 .1-.2 0-.4 0-.2 0-.2.2-.2.1 0 .3 0 .4.2l.4.2s.2 0 .3.2l.1.1h.1c0 .2.1.2.3.2l1.4 1.4c1.1 1 1.4 1.4 1.4 1.5v.2c.2 0 .2.1.2.2l.1.2.1.3.1.2c.1 0 .2.1.2.4v.4c.2.2.3.5.1.6h-.1ZM118.7 145.3V144c0-1 0-1-.2-1.2v-2l.1-.6c0-.3 0-.4.2-.6v-.3l.2-.4.1-.4.1-.2.2-.3v-.2l.2-.2.1-.3.1-.3.1-.1.2-.3v-.2l.2.2h.1l.3-.3.3-.5s0-.1.1 0l.1.3c0 .4 0 .4.2.6l.3.1.2.2h.1c.1 0 1-.8.9-.9v-.2c.2-.1.2-.2.2-.3l-.3-.3-.3-.3h-1.2V135.4h-1.5v-.4c0-.5 0-.5-.2-.8l-.2-.2-.2-.1s-.3 0-.4-.2h-.6l-.3.2h-.2c-.1.2-.2.2-1.5.2l-1.6.1c-.2.2-.4.2-.5 0l-.3-.1-.4-.1-.3-.1-.4-.1-.2-.2h-.4l-.3-.2-.3-.1-.3-.2c-.2 0-.3-.1-.3-.3 0-.2 0-.3-.2-.4-.2-.2-.2-.2-.5-.2l-.5.1v.1h-.2c-.2-.2-.3-.2-.3 0l.1.1.1.2.1.2.1.2.2.3c.1.1.1.2 0 .2-.2 0-.3-.1-.6-.4l-.4-.4v-.5l.1-.6c.2-.2.2-.2.8-.2l.7.1.3.2h.4c.1.2.2.2.5.2l.4.1.5.1.5.1.4.1c.3 0 .5 0 .6.2h.3c.3 0 .6.4.6.7v.3c.1 0 .2 0 .2.2 0 0 .2.1.2 0v-.8h1c0 .2.1.2.6.2l.7.1 1.9.1 1.8-.1.5-.1.5-.1.7-.1h.8l.2.2c.2 0 .6.3.5.4l.1.3c.2.1.2.1 0 .4l-.1.3s0 .2-.2.3l-.3.4-.6.7a4 4 0 0 0-.6.7c0 .2-.3.4-.4.6l-.4.4h-.8a1 1 0 0 1-.5.2c-.4 0-.5 0-.7.6v.9c0 .2 0 .2.4.6.4.3.4.5.2.8v.8c0 .5-.1.6-.2.8l-.1.7-.1.6-.1.3-.2.2v.2c0 .2-.4.5-.5.5l-.4.2-.3.2ZM129.5 143.6v-.4c0-.2 0-.3-.3-.6l-.5-.3h-.3v-.2h.1c.1-.2.2-.2.3-.2l.3-.1.3-.1.3-.1.2-.2.3-.1.2-.1.3-.1.2-.2.3-.1c0-.1.1-.1.2 0 .3.4.3.4.7.4h.4v-.2h.3l.2.2h.2l.2.2.1-.7-.1-.7c-.2-.2-.2-.5 0-.7l.1-.7v-.6h.3c.1.2.2.2.2.6 0 .4 0 .4.2.7 0 .2.2.3.3.4.1 0 .1.4 0 .4-.2 0-.2.2-.2.3v.2c-.1 0-.2 0-.2.2l-.2.2V141.3l-.5.4h-.1l-.1.2-.2.1v.1l-.3.1-.2.1-.1.2h-.2c0 .2 0 .2-.2.2l-.2.1-.2.1c-.1 0-.3 0-.3.2h-.2l-.3.2-.2.1-.3.1c0 .1 0 .2-.3.2h-.3c0 .3-.2.2-.2 0ZM100.1 141l-.1-.2h-.1.3v.2h-.1ZM99.8 138.5l.2-.2.4-.2c.2 0 .6.3.6.4h-1.2ZM69.5 136.9a7 7 0 0 1-2-.1l-1-.1-.9-.1-.6-.2-.6-.1-.5-.1h-.3l.1-.2.3-.3.1-.2.1-.2v-.2c.2 0 .3 0 .3.2v.2c.2 0 .2.2.2.2l.1.3c.2.2.3.2.5.2l.3-.1.3-.1.6-.6.7-.5.2.2h1.2c1 0 1.1 0 1.2.2l.5.1h.5v.4l.1.4.1.3.2.2.1.2h-1.8ZM72.3 136.7l.2-.1.4-.4.5-.5.1-.1c.1-.2.2-.2.3-.2l.3-.1.7-.1h.5v.3c0 .3 0 .4.2.5l.2.2.4.2.2.2-.2.2h-4 .2ZM135.7 136.5l-.1-.3-.3-.4-.3-.4h-.1l-.2-.2-.3-.1-.2-.2-.4-.1h-.3v-.6l.2-.3.4-.5.2-.1.6-.1h2.4v1l.2.3.1.3c.1.2.2.2.1.4v.4h-.3l-.2.1c0 .1-.1.2-.3.2h-.2l-.1.2-.1.1-.2.1c-.2 0-.3 0-.3.2h-.3ZM78.4 136.1l.9-.8.3-.4v-.1l.2-.2c0-.2.2-.4.3-.4l.1-.1.4-.1.4-.1.4-.1c.2 0 .3 0 .3-.2h.5c.3 0 .4-.1.5-.3h.4c.2 0 .3 0 .3-.2h.4c.3 0 .3-.1.4-.2l.3-.1.3-.1.3-.1h.3a18 18 0 0 1-3.3 2.7H82l-.2.2h-.4a1 1 0 0 1-.6.2l-.4.1c-.1.1-.2.2-.5.2h-.5c0 .2-.2.2-.5.2h-.4ZM60.7 135.2h-.3l-.3-.2-.4-.1-.3-.1-.3-.1c.2 0 .2-.3 0-.4v-.2l-.1-.2-.3.1-.1.4c0 .2-.2.2-.2 0H58l-.5-.2-.4-.1a1 1 0 0 1-.4-.1l-.6-.2h-.7l-.2-.1h-.6l-.2.1v.7c0 .4 0 .4-.2.4H54l-.2-.2-.1-.2h-.2v-.2h-.2v-.2c0-.2 0-.3-.2-.3l-.1-.5.1-.5c.1 0 .2-.1.2-.3v-.2h.2v-.2l.2-.1.1-.1h.1l.2-.2h.1c0 .2 0 .1.2 0s.9-.2 1 0h.5l.5.1h.3l.2.1h.1l.1.1.3.1.4.1.2.1.3.1c0 .1 0 .2.3.2h.4c0 .2 0 .2.2.2l.2.1.3.1.3.1.3.1c.2 0 .3 0 .3.2l.3.1c.2 0 .2 0 .2.2v.2c-.1 0-.2.3-.2.7v.7h-.2Zm-3.4-2.3v-.4l-.1-.3c-.1 0-.2 0-.3.2-.2.2-.2.3-.1.4l.1.2c.1.2.3.1.4-.1ZM147.3 134.8l-.3-.1-.2-.1-.1-.1c-.2 0-.2-.2-.1-.2l.3-.7.1-.2c.2 0 .2-.2.1-.3l-.5.5v.3l-.2.2-.1.1c-.3 0-.3-.2-.2-.4l.2-.2s0-.2.2-.3l.2-.4v-.2l.4-.3.2-.2c.1.2 0 .4-.1.5-.1 0-.1 0 0 .2h.1l.3-.4s0-.2.2-.3l.1-.3.2-.3c.2-.1.3-.2.2-.3l.1-.3h.1c0 .1 0 .2.2.3 0 0 .1.2 0 .2l.4.4c.3.4.3.4.6.3.3 0 .3 0 .3.4v.3l.2.2v.2c0 .2-.1.2-.2.2l-.1.3-.1.2h-.1l-.1.2-.2.1v.2h-.2l-.1.2h-.3c-.1.1-.2 0-.2-.3l-.1-.3-.1-.3c-.1-.2-.3-.2-.3 0l.1.4.1.3.1.4c.2 0 .1 0 0 0h-.3v-.3l-.2-.4c0-.3-.1-.3-.2-.3v.7l.1.2c0 .2-.4.2-.5 0ZM64.2 134.5h.2-.2Z" fill="#61BAD2"/><path d="m145.6 133.9-.3-.1h-.2l.5-.6a150 150 0 0 0 2-1.7c-.2 0-.2.2-.1.3.1 0 .2.3 0 .4l-.1-.3c0-.2-.2-.2-.3 0l-.3.5-.4.5s0 .2-.2.3l-.3.4-.2.4-.1-.1Z" fill="#61BAD2"/><path d="M143 133.6h-.4c-.2 0-.3 0-.3-.2l-.3-.1-.2-.1-.3-.1-.4-.2-.5-.1-.6.1-.1.2h-.1v.2l-1.1-.6.5-.7c.5-.5.7-.6.7-.8v-.1c.2 0 .2.1.2.4l.1.3.1.2.1.1h.2l.2-.1.5-.4.5-.6-.2-.2v-.4c0-.2-.4-.5-.6-.5-.2 0-.2 0-.1-.2l.1-.3.3-.4.2-.3s.3-.5.9-1l.9-.9h.3c.4 0 .5 0 .5.3l.3.2.4-.1c0-.1 0-.1.2 0l.3.1.3.2.4.3 1 .9.1.4.3.3v.2c.2.1.2.2.2.3 0 .3-.1.4-.4.4l-.3.1-.2.2h-.3c0 .2-.2.2-.3.2-.2 0-.3 0-.4.2l-.2.2h.3l.3-.1c.2 0 .3 0 .4-.2l.2-.1.3-.1.3-.1c.2 0 .3 0 .4-.2 0-.1.3 0 .4 0l.2.4s-.2 0-.3.2v.3c.1 0 0 .2 0 .2h-.1l-.2-.3.1-.2.2-.2v-.1c0-.2-.1-.1-.4.2a3 3 0 0 1-.4.4c-.2 0-.8.6-1 1a6 6 0 0 1-.8.8l-.6.6h-.2l-.1-.1c0-.1-.2 0-.4 0 0 .1-.1.2-.6.2-.4 0-.4 0-.5-.2Zm1.7-1.8.4-.3c.2 0 .3 0 .2-.2-.1-.1-.4 0-.6.2a1 1 0 0 1-.4.2l-.2.2c0 .2.4 0 .6-.1Z" fill="#61BAD2"/><path d="m147.6 131.7.1-.2c.1 0 .1.2 0 .2ZM130.1 127.7h-.2l-.1-.2c0-.2.3-.5.5-.4h.1l-.2.7ZM134.5 127l-.3-.2c-.1 0-.7-.5-.6-.6h.3l.4-.1.2-.1c.2 0 .2 0 .2-.2h.2l.1-.2.2-.1.2-.1.1-.1.2-.1.1-.2.3-.1.2-.1.1-.2h.2c.2 0 .3 0 .3-.2l.2-.1.3-.1.3-.1.3-.1c0-.1.1-.2.6-.2h.6c0-.2 0-.2.3-.2s.4 0 .3.4l-.1.2h-.2l-.1.2-.3.1-.2.1c-.1 0-.2 0-.2.2h-.3l-.2.2-.2.2-.6.4h-.2l-.3.3-.3.2s-.3 0-.4.2l-.4.2-.1.1-.3.2-.3.1-.3.2c-.2 0-.2 0-.3-.2ZM95 125.3l.1-.1.1-.2.2-.2.3-.2.4-.2.1-.1.1-.1.3-.1.2-.1.1-.2.2-.1h.2l.2-.2.2-.1c.2 0 .2 0 .3-.2h.2c.2 0 .2-.1.3-.2l.3-.1h.3v.4l.1.4v.2H99l-.3.2h-.5l-.4.2-.4.1-.4.1-.3.1-.5.2H96l-.2.2-.2.1-.3.1-.4.1ZM141.2 123.5v-.4h.8v-.2l.2-.2.1-.3v-.2l.2-.1.1-.1c.1 0 .2-.1.2-.3v-.2l.2-.2h.3c.1 0 .2 0 .2-.2l1-.1.9.1.1.1h.2l-.2.1-.3.2-.6.1h-.4l-.6.6-.7.6h-.2l-.3.2-.3.2h-.3c-.2 0-.2 0-.3.2h-.3Z" fill="#61BAD2"/><mask id="a" maskUnits="userSpaceOnUse" x="171" y="115" width="112" height="51" fill="#000"><path fill="#fff" d="M171 115h112v51H171z"/><path d="m197.5 116.2-5.3 11.4-5.3-11.4h-1.7l-5.2 11.4-5.3-11.4H173l6 12.9h2l5-11 5.2 11h2l6-12.9h-1.7ZM208.4 117.5a139.1 139.1 0 0 1 6 .4c.2 0 .2.3.3.4a84.2 84.2 0 0 1-.3 9.2l-.5.2a112 112 0 0 1-11.6-.2 84.2 84.2 0 0 1 0-9.6l.5-.3h5.6Zm-5.6-1.4c-1.2 0-2.2 1-2.2 2.2-.2 2.9-.2 5.8 0 8.8 0 1.1 1 2 2.2 2.1a114.5 114.5 0 0 0 11.2 0c1.2 0 2.1-1 2.2-2.1v-8.8c0-1.2-1-2.1-2.2-2.2a115.5 115.5 0 0 0-11.2 0ZM219 116.2v12.9h1.6v-4.9h3.8l7.3 4.9h2.7l-7.3-4.9h4.2c1.1 0 2-1 2.1-2.1v-3.7c0-1.2-1-2.1-2.1-2.2H219Zm12.2 1.5c.2 0 .3.1.5.3l.2.4v3.6a.8.8 0 0 1-.7.7h-10.6v-5h10.6ZM247 127.6h-9.3v-11.4h-1.5v12.9h10.7v-1.5ZM248.7 129.1h13.2c1.1 0 2-1 2.1-2.1v-8.6c0-1.2-1-2.1-2.1-2.2h-14.1v1.5h.9v11.4Zm13.8-2.2c0 .2 0 .3-.2.5l-.5.2h-11.6v-9.9h11.6c.2 0 .4.1.5.3l.2.4v8.5ZM279.8 123.4l.5.2.2.5v1.8a442.6 442.6 0 0 1-.3 1.6l-.5.2a105.3 105.3 0 0 1-11.2-.2.8.8 0 0 1-.3-.5V126h-1.5v1.2c0 1.1 1 2 2.2 2.1a134.6 134.6 0 0 0 10.9 0c1.2 0 2.1-1 2.2-2.1V124c0-1.1-1-2-2.2-2H269l-.5-.3a.7.7 0 0 1-.2-.5v-2.8c0-.3.1-.4.3-.6l.4-.2a105.3 105.3 0 0 1 11.3.2l.2.5v1.1h1.6v-1.2c0-1.1-1-2-2.2-2a108.2 108.2 0 0 0-11 0c-1 0-2 .9-2 2l-.1 1.2v1.9c0 1.2 1 2 2.1 2.1h11ZM175.7 147v-5.7h9.8v-1.5h-9.8v-4.2h10.8V134h-12.3v12.8h1.5ZM199 147h1.8l-6-13h-3.4l-6 13h1.7l1.3-2.8h9.4l1.3 2.7Zm-9.9-4.4 3.3-7h1.4l3.3 7h-8ZM215.2 141.3c.2 0 .3 0 .5.2l.2.4V144.8c0 .2-.2.4-.3.5-.1.2-.3.2-.5.2a105.3 105.3 0 0 1-11.2-.2.8.8 0 0 1-.3-.5v-1h-1.5v1.1c0 1.2 1 2.1 2.2 2.2a136.4 136.4 0 0 0 10.9 0c1.2-.1 2.1-1 2.2-2.2v-3c0-1.2-1-2.1-2.2-2.1h-10.9c-.2 0-.4-.1-.5-.3a.7.7 0 0 1-.2-.4v-1.8a428.9 428.9 0 0 0 .3-1.6c.1-.2.3-.2.5-.2a105.3 105.3 0 0 1 11.2.2l.2.5v1h1.6v-1.1c0-1.2-1-2-2.2-2.1a109.4 109.4 0 0 0-11 0c-1 0-2 1-2 2l-.1 1.3v1.8c0 1.2 1 2.1 2.1 2.2h11ZM231.2 134h-12.3v1.6h5.4v11.3h1.5v-11.3h5.4V134ZM245.2 135.6V134H233v12.8h12.2v-1.5h-10.7v-4.1h10.7v-1.5h-10.7v-4.2h10.7ZM260.6 141.3c.1 0 .3 0 .4.2.2 0 .2.3.2.4V144.8c0 .2 0 .4-.2.5-.1.2-.3.2-.5.2a105.3 105.3 0 0 1-11.3-.2.8.8 0 0 1-.2-.5v-1h-1.6v1.1c.1 1.2 1 2.1 2.2 2.2a136.4 136.4 0 0 0 11 0c1.1-.1 2-1 2.1-2.2v-3c0-1.2-1-2.1-2-2.1h-11c-.2 0-.4-.1-.5-.3a.7.7 0 0 1-.2-.4V136.2l.2-.5c.2-.2.3-.2.5-.2a105.3 105.3 0 0 1 11.3.2l.2.5v1h1.6v-1.1c-.1-1.2-1-2-2.2-2.1a109.4 109.4 0 0 0-11 0c-1.1 0-2 1-2.1 2v3.1c0 1.2 1 2.1 2.1 2.2h11ZM276.6 134h-12.3v1.6h5.3v11.3h1.6v-11.3h5.4V134ZM173.2 163.3v1.5h1.6v-1.5h-1.6ZM190.8 162.7c0 .2 0 .3-.2.5l-.5.2a112 112 0 0 1-11.6-.2 84.2 84.2 0 0 1 0-9.6c.1-.2.3-.3.5-.3a142 142 0 0 1 11.6.2l.2.5v1.1h1.6V154c-.1-1.1-1-2-2.2-2.1a115.5 115.5 0 0 0-11.3 0c-1.2 0-2 1-2.1 2.1-.2 3-.2 6 0 8.9 0 1.1 1 2 2.1 2a114.5 114.5 0 0 0 11.3 0c1.2 0 2-.9 2.1-2l.1-1.2h-1.5v1ZM202.6 153.2a141 141 0 0 1 6 .3l.2.5a84.2 84.2 0 0 1-.2 9.2l-.5.2a112 112 0 0 1-11.6-.2 84.2 84.2 0 0 1 0-9.6c.1-.2.3-.3.5-.3l5.6-.1Zm-5.7-1.4c-1.1 0-2 1-2.1 2.1-.2 3-.2 6 0 8.9 0 1.1 1 2 2.1 2a114.5 114.5 0 0 0 11.3 0c1.2 0 2.1-.9 2.2-2v-8.9c-.1-1.1-1-2-2.2-2.1a115.5 115.5 0 0 0-11.3 0ZM227.8 152l-5.9 11-5.9-11h-2.7v12.8h1.5v-11.4h.3l6 11.4h1.6l6-11.4h.3v11.4h1.6v-12.9h-2.8Z"/></mask><path d="m197.5 116.2-5.3 11.4-5.3-11.4h-1.7l-5.2 11.4-5.3-11.4H173l6 12.9h2l5-11 5.2 11h2l6-12.9h-1.7ZM208.4 117.5a139.1 139.1 0 0 1 6 .4c.2 0 .2.3.3.4a84.2 84.2 0 0 1-.3 9.2l-.5.2a112 112 0 0 1-11.6-.2 84.2 84.2 0 0 1 0-9.6l.5-.3h5.6Zm-5.6-1.4c-1.2 0-2.2 1-2.2 2.2-.2 2.9-.2 5.8 0 8.8 0 1.1 1 2 2.2 2.1a114.5 114.5 0 0 0 11.2 0c1.2 0 2.1-1 2.2-2.1v-8.8c0-1.2-1-2.1-2.2-2.2a115.5 115.5 0 0 0-11.2 0ZM219 116.2v12.9h1.6v-4.9h3.8l7.3 4.9h2.7l-7.3-4.9h4.2c1.1 0 2-1 2.1-2.1v-3.7c0-1.2-1-2.1-2.1-2.2H219Zm12.2 1.5c.2 0 .3.1.5.3l.2.4v3.6a.8.8 0 0 1-.7.7h-10.6v-5h10.6ZM247 127.6h-9.3v-11.4h-1.5v12.9h10.7v-1.5ZM248.7 129.1h13.2c1.1 0 2-1 2.1-2.1v-8.6c0-1.2-1-2.1-2.1-2.2h-14.1v1.5h.9v11.4Zm13.8-2.2c0 .2 0 .3-.2.5l-.5.2h-11.6v-9.9h11.6c.2 0 .4.1.5.3l.2.4v8.5ZM279.8 123.4l.5.2.2.5v1.8a442.6 442.6 0 0 1-.3 1.6l-.5.2a105.3 105.3 0 0 1-11.2-.2.8.8 0 0 1-.3-.5V126h-1.5v1.2c0 1.1 1 2 2.2 2.1a134.6 134.6 0 0 0 10.9 0c1.2 0 2.1-1 2.2-2.1V124c0-1.1-1-2-2.2-2H269l-.5-.3a.7.7 0 0 1-.2-.5v-2.8c0-.3.1-.4.3-.6l.4-.2a105.3 105.3 0 0 1 11.3.2l.2.5v1.1h1.6v-1.2c0-1.1-1-2-2.2-2a108.2 108.2 0 0 0-11 0c-1 0-2 .9-2 2l-.1 1.2v1.9c0 1.2 1 2 2.1 2.1h11ZM175.7 147v-5.7h9.8v-1.5h-9.8v-4.2h10.8V134h-12.3v12.8h1.5ZM199 147h1.8l-6-13h-3.4l-6 13h1.7l1.3-2.8h9.4l1.3 2.7Zm-9.9-4.4 3.3-7h1.4l3.3 7h-8ZM215.2 141.3c.2 0 .3 0 .5.2l.2.4V144.8c0 .2-.2.4-.3.5-.1.2-.3.2-.5.2a105.3 105.3 0 0 1-11.2-.2.8.8 0 0 1-.3-.5v-1h-1.5v1.1c0 1.2 1 2.1 2.2 2.2a136.4 136.4 0 0 0 10.9 0c1.2-.1 2.1-1 2.2-2.2v-3c0-1.2-1-2.1-2.2-2.1h-10.9c-.2 0-.4-.1-.5-.3a.7.7 0 0 1-.2-.4v-1.8a428.9 428.9 0 0 0 .3-1.6c.1-.2.3-.2.5-.2a105.3 105.3 0 0 1 11.2.2l.2.5v1h1.6v-1.1c0-1.2-1-2-2.2-2.1a109.4 109.4 0 0 0-11 0c-1 0-2 1-2 2l-.1 1.3v1.8c0 1.2 1 2.1 2.1 2.2h11ZM231.2 134h-12.3v1.6h5.4v11.3h1.5v-11.3h5.4V134ZM245.2 135.6V134H233v12.8h12.2v-1.5h-10.7v-4.1h10.7v-1.5h-10.7v-4.2h10.7ZM260.6 141.3c.1 0 .3 0 .4.2.2 0 .2.3.2.4V144.8c0 .2 0 .4-.2.5-.1.2-.3.2-.5.2a105.3 105.3 0 0 1-11.3-.2.8.8 0 0 1-.2-.5v-1h-1.6v1.1c.1 1.2 1 2.1 2.2 2.2a136.4 136.4 0 0 0 11 0c1.1-.1 2-1 2.1-2.2v-3c0-1.2-1-2.1-2-2.1h-11c-.2 0-.4-.1-.5-.3a.7.7 0 0 1-.2-.4V136.2l.2-.5c.2-.2.3-.2.5-.2a105.3 105.3 0 0 1 11.3.2l.2.5v1h1.6v-1.1c-.1-1.2-1-2-2.2-2.1a109.4 109.4 0 0 0-11 0c-1.1 0-2 1-2.1 2v3.1c0 1.2 1 2.1 2.1 2.2h11ZM276.6 134h-12.3v1.6h5.3v11.3h1.6v-11.3h5.4V134ZM173.2 163.3v1.5h1.6v-1.5h-1.6ZM190.8 162.7c0 .2 0 .3-.2.5l-.5.2a112 112 0 0 1-11.6-.2 84.2 84.2 0 0 1 0-9.6c.1-.2.3-.3.5-.3a142 142 0 0 1 11.6.2l.2.5v1.1h1.6V154c-.1-1.1-1-2-2.2-2.1a115.5 115.5 0 0 0-11.3 0c-1.2 0-2 1-2.1 2.1-.2 3-.2 6 0 8.9 0 1.1 1 2 2.1 2a114.5 114.5 0 0 0 11.3 0c1.2 0 2-.9 2.1-2l.1-1.2h-1.5v1ZM202.6 153.2a141 141 0 0 1 6 .3l.2.5a84.2 84.2 0 0 1-.2 9.2l-.5.2a112 112 0 0 1-11.6-.2 84.2 84.2 0 0 1 0-9.6c.1-.2.3-.3.5-.3l5.6-.1Zm-5.7-1.4c-1.1 0-2 1-2.1 2.1-.2 3-.2 6 0 8.9 0 1.1 1 2 2.1 2a114.5 114.5 0 0 0 11.3 0c1.2 0 2.1-.9 2.2-2v-8.9c-.1-1.1-1-2-2.2-2.1a115.5 115.5 0 0 0-11.3 0ZM227.8 152l-5.9 11-5.9-11h-2.7v12.8h1.5v-11.4h.3l6 11.4h1.6l6-11.4h.3v11.4h1.6v-12.9h-2.8Z" fill="#000"/><path d="m197.5 116.2-5.3 11.4-5.3-11.4h-1.7l-5.2 11.4-5.3-11.4H173l6 12.9h2l5-11 5.2 11h2l6-12.9h-1.7ZM208.4 117.5a139.1 139.1 0 0 1 6 .4c.2 0 .2.3.3.4a84.2 84.2 0 0 1-.3 9.2l-.5.2a112 112 0 0 1-11.6-.2 84.2 84.2 0 0 1 0-9.6l.5-.3h5.6Zm-5.6-1.4c-1.2 0-2.2 1-2.2 2.2-.2 2.9-.2 5.8 0 8.8 0 1.1 1 2 2.2 2.1a114.5 114.5 0 0 0 11.2 0c1.2 0 2.1-1 2.2-2.1v-8.8c0-1.2-1-2.1-2.2-2.2a115.5 115.5 0 0 0-11.2 0ZM219 116.2v12.9h1.6v-4.9h3.8l7.3 4.9h2.7l-7.3-4.9h4.2c1.1 0 2-1 2.1-2.1v-3.7c0-1.2-1-2.1-2.1-2.2H219Zm12.2 1.5c.2 0 .3.1.5.3l.2.4v3.6a.8.8 0 0 1-.7.7h-10.6v-5h10.6ZM247 127.6h-9.3v-11.4h-1.5v12.9h10.7v-1.5ZM248.7 129.1h13.2c1.1 0 2-1 2.1-2.1v-8.6c0-1.2-1-2.1-2.1-2.2h-14.1v1.5h.9v11.4Zm13.8-2.2c0 .2 0 .3-.2.5l-.5.2h-11.6v-9.9h11.6c.2 0 .4.1.5.3l.2.4v8.5ZM279.8 123.4l.5.2.2.5v1.8a442.6 442.6 0 0 1-.3 1.6l-.5.2a105.3 105.3 0 0 1-11.2-.2.8.8 0 0 1-.3-.5V126h-1.5v1.2c0 1.1 1 2 2.2 2.1a134.6 134.6 0 0 0 10.9 0c1.2 0 2.1-1 2.2-2.1V124c0-1.1-1-2-2.2-2H269l-.5-.3a.7.7 0 0 1-.2-.5v-2.8c0-.3.1-.4.3-.6l.4-.2a105.3 105.3 0 0 1 11.3.2l.2.5v1.1h1.6v-1.2c0-1.1-1-2-2.2-2a108.2 108.2 0 0 0-11 0c-1 0-2 .9-2 2l-.1 1.2v1.9c0 1.2 1 2 2.1 2.1h11ZM175.7 147v-5.7h9.8v-1.5h-9.8v-4.2h10.8V134h-12.3v12.8h1.5ZM199 147h1.8l-6-13h-3.4l-6 13h1.7l1.3-2.8h9.4l1.3 2.7Zm-9.9-4.4 3.3-7h1.4l3.3 7h-8ZM215.2 141.3c.2 0 .3 0 .5.2l.2.4V144.8c0 .2-.2.4-.3.5-.1.2-.3.2-.5.2a105.3 105.3 0 0 1-11.2-.2.8.8 0 0 1-.3-.5v-1h-1.5v1.1c0 1.2 1 2.1 2.2 2.2a136.4 136.4 0 0 0 10.9 0c1.2-.1 2.1-1 2.2-2.2v-3c0-1.2-1-2.1-2.2-2.1h-10.9c-.2 0-.4-.1-.5-.3a.7.7 0 0 1-.2-.4v-1.8a428.9 428.9 0 0 0 .3-1.6c.1-.2.3-.2.5-.2a105.3 105.3 0 0 1 11.2.2l.2.5v1h1.6v-1.1c0-1.2-1-2-2.2-2.1a109.4 109.4 0 0 0-11 0c-1 0-2 1-2 2l-.1 1.3v1.8c0 1.2 1 2.1 2.1 2.2h11ZM231.2 134h-12.3v1.6h5.4v11.3h1.5v-11.3h5.4V134ZM245.2 135.6V134H233v12.8h12.2v-1.5h-10.7v-4.1h10.7v-1.5h-10.7v-4.2h10.7ZM260.6 141.3c.1 0 .3 0 .4.2.2 0 .2.3.2.4V144.8c0 .2 0 .4-.2.5-.1.2-.3.2-.5.2a105.3 105.3 0 0 1-11.3-.2.8.8 0 0 1-.2-.5v-1h-1.6v1.1c.1 1.2 1 2.1 2.2 2.2a136.4 136.4 0 0 0 11 0c1.1-.1 2-1 2.1-2.2v-3c0-1.2-1-2.1-2-2.1h-11c-.2 0-.4-.1-.5-.3a.7.7 0 0 1-.2-.4V136.2l.2-.5c.2-.2.3-.2.5-.2a105.3 105.3 0 0 1 11.3.2l.2.5v1h1.6v-1.1c-.1-1.2-1-2-2.2-2.1a109.4 109.4 0 0 0-11 0c-1.1 0-2 1-2.1 2v3.1c0 1.2 1 2.1 2.1 2.2h11ZM276.6 134h-12.3v1.6h5.3v11.3h1.6v-11.3h5.4V134ZM173.2 163.3v1.5h1.6v-1.5h-1.6ZM190.8 162.7c0 .2 0 .3-.2.5l-.5.2a112 112 0 0 1-11.6-.2 84.2 84.2 0 0 1 0-9.6c.1-.2.3-.3.5-.3a142 142 0 0 1 11.6.2l.2.5v1.1h1.6V154c-.1-1.1-1-2-2.2-2.1a115.5 115.5 0 0 0-11.3 0c-1.2 0-2 1-2.1 2.1-.2 3-.2 6 0 8.9 0 1.1 1 2 2.1 2a114.5 114.5 0 0 0 11.3 0c1.2 0 2-.9 2.1-2l.1-1.2h-1.5v1ZM202.6 153.2a141 141 0 0 1 6 .3l.2.5a84.2 84.2 0 0 1-.2 9.2l-.5.2a112 112 0 0 1-11.6-.2 84.2 84.2 0 0 1 0-9.6c.1-.2.3-.3.5-.3l5.6-.1Zm-5.7-1.4c-1.1 0-2 1-2.1 2.1-.2 3-.2 6 0 8.9 0 1.1 1 2 2.1 2a114.5 114.5 0 0 0 11.3 0c1.2 0 2.1-.9 2.2-2v-8.9c-.1-1.1-1-2-2.2-2.1a115.5 115.5 0 0 0-11.3 0ZM227.8 152l-5.9 11-5.9-11h-2.7v12.8h1.5v-11.4h.3l6 11.4h1.6l6-11.4h.3v11.4h1.6v-12.9h-2.8Z" stroke="#fff" stroke-width="2" mask="url(#a)"/></svg>