<svg xmlns="http://www.w3.org/2000/svg" fill="none" viewBox="0 0 461 457"><path fill="#3F8CA8" d="m-122 8 8 7 6 17 6 18h9l7-15 8-15 6-3 7-1 9 8 8 9 3 14 9 28 5 14 11-3c6-1 13-4 15-7l4-5 15 8c9 5 17 8 18 7l11-20c12-25 25-46 27-46l8 6 7 5 3 14 3 14-7 13c-4 6-9 19-11 27l-3 14 3 3 3 2 17-15c10-9 20-20 24-26l6-10-7-4-7-4 10 1 9 2 11-24 10-23h9c5 0 13 1 17 3l9 2v25l8 3 9 2 11-24 8-25 7 5 6 4 3-3 4-2v7c0 4 4 13 8 21l8 13-5 15-5 16 9 2 10 3 10-9c7-5 11-11 11-13 0-6 19-35 26-42l16-9 9-3v18l15 4 15 5-2 14-4 24-3 10h5c3 0 12-5 19-12l13-12 13-24c7-13 13-23 14-22 5 3 39 116 39 126v10l-10 5-10 4h-18l-18 1-40 11c-22 6-41 10-41 9-1-1 1-10 6-19l9-19-3-10-2-10-6 14-7 15-5-3-5-3 3 5 4 5-5 8-5 8-1-4v-5l-8 9c-9 11-9 14-1 17l6 2-8-1-9-2-4 4c-2 4-35 18-40 18-2 0-18-30-18-33l18-12c10-5 17-11 16-12-2-1-10 3-19 8l-16 10-5-6c-2-4-3-8-2-11l1-4 28-1h28l-1-5-2-5 8 2 7 3 18-3 17-2 3-9 2-9h-11l5-4 15-14 10-11-19 15-19 15 3 4 2 3-5 2-5 3-3-5-4-5 7 3 6 4-3-4-3-5-22 4-43 4h-21l-9 10c-4 6-7 7-5 4l3-5-14-22-13-22-16-12-16-13 19 22 27 33 6 12-17-2-18-1 9-10 9-9-14 10-13 11 1 5 1 5-7-2-7-1 3 5 4 4h59l5 10 6 11-79 46c-44 25-79 46-79 48s3 1 81-44c37-22 70-40 73-41l6-1 7 15 7 14-16 7-86 31-69 25-15-15-15-14 8 12 9 14-42 25-42 24-8-5c-4-3-8-7-10-11l-1-6 98-73 97-75c0-3 7-8-110 79-51 38-111 85-135 105l-42 35 7 4 6 4-9-2-8-3-6 7-21 16-14 9 2-10 2-10-8-12c-4-8-9-13-10-13l5 12 8 13-55 18-54 19-7-5-7-5v-8c0-17 34-63 49-65 8-1 38-20 38-25v-3h15l3-7c4-10 4-11-5-11h-6l-40 27-39 27v4l1 5h-6c-6 0-30 16-56 38-8 6-16 11-18 11s-12 6-21 14l-17 14h-19l-20 1-24 12-25 13-8-6-8-5 3-25c6-48 9-69 14-77 9-13 22-26 29-26 6 0 19-8 38-23l11-8c2 0 9-5 17-11 7-6 16-11 20-11h6l6-11 7-11 10-3 9-2 8-14 8-13h12c2 1 12-7 23-16l40-34 22-17 8 5c8 7 8 8 19-19l9-21 10-5 10-4V87l60 21 60 21 41 10 41 9 53 2 53 3 9-8 9-7 5 3 4 4-3-5-4-5-63-3-63-2-37-9c-20-5-62-17-91-28l-55-18-2-6-3-6 12-29 12-30 6-2 6-1 8 7Z"/></svg>