<svg width="292" height="314" viewBox="0 0 292 314" fill="none" xmlns="http://www.w3.org/2000/svg">
<path d="M274.077 5.03801L279.389 9.91816L283.661 21.8384L287.934 34.0646L291.112 34.0555L294.291 34.0465L299.206 23.6298L304.474 13.2123L308.707 11.6705L313.295 10.4335L319.316 16.2297L325.337 22.3317L327.483 31.8102C328.912 37.3134 331.408 45.8731 333.189 51.0693L336.748 60.8498L344.513 58.992C348.749 58.0621 353.334 55.9072 354.741 54.0675L357.204 50.695L368.169 56.477C374.181 59.5195 379.838 61.339 380.189 60.7261C380.895 60.4181 384.056 54.29 387.568 47.5489C395.995 30.0852 404.782 15.3742 406.195 15.3702C406.901 15.3682 409.379 17.1968 411.857 19.3315L416.459 22.9899L418.606 32.7745L420.753 42.5591L415.833 51.1399C413.02 55.7373 409.513 64.314 408.469 69.8243L406.379 79.9268L408.149 81.4516L410.273 83.2814L422.251 72.5387C428.944 66.7064 436.339 59.0364 438.8 55.0519L443.018 48.0029L438.419 45.2623L433.467 42.5229L440.18 43.4216L446.54 44.3213L453.91 28.0846L460.928 12.1547L467.285 12.1366C470.464 12.1275 475.764 13.0302 478.945 13.939L484.601 15.7588L484.626 24.3255L484.65 32.8922L490.306 34.712C493.487 35.6208 496.315 36.5306 496.669 36.5296C497.375 36.5275 500.532 28.8696 504.037 19.6808L509.992 2.53028L514.24 5.88364L518.84 8.93015L520.953 6.78237L523.42 4.93967L523.435 10.1409C523.443 12.8945 525.933 19.3125 528.773 24.5056L534.45 33.6682L530.948 44.0809L527.799 54.4925L534.162 56.31L540.877 58.1266L547.923 51.9873C552.151 48.3038 555.318 44.3174 555.315 43.0936C555.303 39.1162 567.96 18.8868 573.245 14.2824C576.063 11.8267 581 9.05904 584.175 7.82618L590.526 5.9722L590.544 12.0913L590.561 18.2105L600.812 21.2408L610.71 24.2722L609.678 34.0659C608.987 39.5751 607.596 46.9221 606.547 50.5966L604.801 57.6386L608.333 57.6285C610.452 57.6225 616.445 53.934 621.376 49.0246L630.181 40.7386L639.318 24.4968C643.884 15.611 648.456 8.86682 649.164 9.47671C651.995 11.6103 675.527 89.5627 675.545 95.9877L675.565 103.025L668.865 106.409L661.81 109.489L649.449 109.524L637.088 109.56L609.562 117.287C594.74 121.307 581.681 124.403 581.326 123.792C580.618 123.182 582.367 117.058 585.526 110.318L591.494 97.757L589.708 90.725L588.276 83.6921L584.065 93.4948L579.503 103.604L575.612 101.474L572.075 99.6481L574.557 103.007L577.039 106.671L573.523 111.882L570.006 117.4L569.645 114.647L569.637 111.587L564.357 117.722C558.02 125.083 558.026 127.224 563.329 129.045L567.924 130.256L561.918 129.661L555.559 128.761L553.447 131.521C552.042 133.972 529.112 143.523 525.227 143.534C524.168 143.537 513.16 122.763 513.154 120.621C513.152 120.009 518.794 116.628 525.847 112.936C532.547 109.245 537.48 105.254 536.418 104.645C535.356 103.73 529.712 106.194 523.719 109.882L512.437 116.952L509.247 112.677C507.474 110.235 506.758 106.871 507.46 105.339L508.511 102.277L527.581 101.917L546.653 101.862L545.936 98.1928L544.867 94.8302L550.169 96.3449L555.471 98.1657L567.474 96.2956L579.477 94.4257L581.225 88.3016L582.974 82.1774L579.089 82.1885L574.851 82.2006L578.375 79.7429C580.138 78.5141 585.07 74.2166 588.943 69.9221L595.984 62.2531L582.947 72.6929L569.909 83.1325L571.682 85.5751L573.101 88.0188L569.927 89.5577L566.401 91.4034L563.919 88.045L561.436 84.3805L566.034 86.8151L570.633 89.2496L568.505 86.1961L566.024 83.1436L551.198 85.6334C542.725 86.8814 529.308 88.1435 521.539 88.4716L506.706 88.5139L501.074 95.261C497.907 99.2475 496.144 100.476 497.198 98.3317L499.306 94.6541L489.728 79.6894L480.502 64.4177L469.529 55.8822L458.909 47.3457L472.02 62.3003C479.107 70.541 487.259 80.9204 490.097 85.1957L494.711 93.4433L482.7 92.2538L470.336 91.0651L476.674 84.3159L483.012 77.8728L473.497 85.243L463.983 92.613L464.699 95.9766L465.415 99.34L460.821 98.4353L456.228 97.8364L458.355 100.89L460.483 103.943L480.967 103.885L501.452 103.827L505.003 110.854L508.908 117.88L454.609 149.548C424.639 167.073 400.312 181.828 400.314 182.746C400.32 184.582 402.435 183.352 455.677 152.299C481.416 137.539 503.984 124.931 506.455 124.618L510.691 123.688L515.311 133.771L520.283 143.548L508.994 148.169C502.644 150.635 475.83 160.196 449.722 169.755L402.092 186.719L391.822 176.957L381.551 166.89L387.225 175.135C390.77 179.714 393.254 183.99 393.257 184.908C393.259 185.52 380.214 193.512 364.346 202.124L335.785 218.421L330.125 215.378C326.941 213.551 324.106 210.194 323.393 207.748L322.321 203.468L389.636 153.405C426.287 125.764 456.594 102.425 456.591 101.507C456.586 99.6712 461.52 95.9856 380.814 156.183C345.924 182.289 304.341 214.533 288.133 228.042L259.243 252.601L263.489 255.342L268.088 258.083L262.079 256.57L256.07 254.751L251.845 259.353C249.38 261.807 243.037 266.721 237.749 270.101L227.877 276.249L229.271 269.514L230.665 263.085L225.342 254.227C222.503 249.34 219.313 245.371 218.254 245.374C217.547 245.376 218.971 249.35 221.81 253.931L227.132 262.483L189.379 275.44L151.978 288.091L147.377 284.739L142.777 281.692L142.761 275.879C142.727 263.947 166.3 232.672 176.186 231.42C182.187 230.485 202.634 217.271 202.625 214.211L202.618 211.763L207.563 211.749L212.507 211.735L214.612 206.834C217.418 200.095 217.416 199.483 211.766 199.499L207.174 199.512L180.032 217.947L153.243 236.381L153.252 239.44L153.261 242.5L149.376 242.511C145.491 242.522 128.923 253.584 110.602 268.934C105.669 272.925 100.027 276.307 98.6146 276.311C96.8488 276.316 90.1506 280.619 83.8092 286.144L72.5346 295.661L59.1149 296.005L45.6952 296.349L28.7672 304.964L11.8402 313.885L6.17797 309.924L0.868991 305.961L2.93931 288.822C6.73099 256.074 9.16131 241.381 12.6774 235.863C18.3021 226.669 27.461 218.382 32.0523 218.369C36.6436 218.355 45.4572 212.823 58.4942 202.077C62.0181 199.314 65.5429 196.856 66.2492 196.854C67.3087 196.851 72.2435 193.471 77.5289 189.173C82.8143 184.874 88.8087 181.492 91.2809 181.485L95.519 181.473L100.088 173.811L104.658 166.149L111.363 164.294L117.716 162.746L122.987 153.552L128.613 144.663L131.791 144.654C133.91 144.648 136.029 144.642 137.089 144.639C138.149 144.942 145.198 139.721 152.596 133.275C159.995 126.828 172.68 116.39 180.784 109.942L195.583 97.967L200.892 101.929C206.908 106.196 206.557 106.809 214.275 88.4291L220.591 74.031L227.292 70.9524L233.993 67.5678L233.981 63.2843L233.97 59.307L275.333 73.8751L317.05 88.7483L345.322 95.0928L373.595 101.437L409.977 103.17L446.006 104.903L452.348 99.6831L459.044 94.7688L461.876 96.9025L464.708 99.342L462.58 95.9826L460.451 92.6231L417.005 90.9111L373.56 89.199L348.114 83.1524C333.976 79.5212 305.345 71.0359 284.841 64.0573L247.368 51.6198L245.59 47.3414L243.813 43.369L252.231 22.8458L260.296 2.62966L264.178 1.39466L268.412 0.158897L274.077 5.03801Z" fill="#3F8CA8"/>
</svg>
