<svg xmlns="http://www.w3.org/2000/svg" fill="none" viewBox="0 0 715 733"><path fill="#F3C010" d="M175.3 64.2c1 .5 5.5 2 9.7 3.6l7.6 3h4.8c2.7 0 5.4.4 6.4.8.9.7 3.7 1.5 6.2 2.2l4.7 1.3 4.4-.7 4.4-.6-1.6 1.8-1.7 1.7 1.6-.2 1.6-.3-.5 1.6-.6 1.6h1.7l6.4-.5 4.7-.2-.8-1.3-.8-1 3.8-.6 3.9-.5.4 2.9.4 3 1.3-.2c.6-.1 1.3-1 1.2-1.7v-3c-.2-.7.5-2.3 1.1-3.5.8-1 1.3-2.7 1.2-3.6l-.3-1.7 2.2-.3c1.2-.3 4.9 0 8.2.6 3.3.6 6.8 1 7.8.9 1-.2 5.7-.5 10.4-.9l8.6-.6.3-3c.3-1.8.4-3.5.4-4 0-.4 1.3-2.4 3-4.4l3-3.7L295 55a66.6 66.6 0 0 0 22.2 7.3l2.2-.3 7.1 3.3 7.2 3.5h8.1l8-.1-1.4 1.2-1.2 1.2 5.1 2 5.2 2 4.7-.7 4.8-.6 1.2 3.2 1.2 3.3 1.9.5 1.8.5-.2-2-.3-2.3 1.5-.2c.9 0 3.4.6 5.7 1.5l4 1.4-1.8.4-1.9.4 2.1 1.2 2.1 1.2-3.2.4-3 .4 3.1 2 3.1 1.8 5.5-.1c3-.3 6.4 0 7.7.4l2.4.7-.5 1.3-.4 1.4 2.3.4c1.4.4 4.7.5 7.6.5l5-.3 7.4 3.3 11.9 5.4 4.6 1.9.3 2.2.3 2.2 3.3.5 3.3.4.2 1.3c0 .8.8 1.3 1.6 1.1 1.6-.2 4.5 2.4 6.1 5.5l1.1 2.5 6.5-.9 6.3-.9.3 2.3.3 2.2 1.3-.2 1.2-.2.5 3.7.5 3.7 3.2-.5 3.2-.4-.3-1.8-.2-1.6 2.9 2.3 2.9 2.3-.3-1.6-.2-1.8 1.9-.3 1.9-.2-.3-2.2-.4-2.4 2-1.2c1.3-.7 2.5-2 2.9-2.9l.8-1.8.2 1.8.3 2 3.6-.6 3.7-.5.3-1.7.1-1.5 4.6 6 4.6 6.3 1-1 1-.9.2 2 .3 1.9 1-2.4.9-2.4 1.6 2 1.5 2-.3-2.2-.3-2 1.6 1.4 1.5 1.3 7-7c3.8-4 7.5-8.2 8-9.5l1.2-2.4 6.8-1 6.7-1.3 3.2 2.7c2 1.5 3.5 3.5 3.6 4.4.2 1 .8 1.9 1.3 1.8.6-.1 1.2.7 1.5 1.6 1 5 3.5 10.6 5.2 12.4 1.8 2 6.7 12.4 10 21l1.8 4.8 4.4 29.5 4.4 29.5 2 2.2 2.2 2.2 2.1-1 2.3-1.1 4.3 1.8c2.3 1 4.3 2.5 4.4 3.3.1.7 1.2 2 2.4 3.2l2.2 2 1.8 6.2a197 197 0 0 1 3.1 18.7l1.5 12.4-1 1.8-.9 1.8.2 7.7.3 7.8 1.3-.2 1.1-.2 1.4 7.6c.5 4.3 1.6 10.6 2 14l1 6 3-.9c1.7-.4 3.3-1 3.4-1.3l1.9-6.6 1.8-5.8 1.3.3 1.3.4 4-4 3.8-4.1 3.6 2c5 2.9 7.1 5 7.5 7.5l.3 2.4 1.1-.2c.8-.1 1.6-1 1.8-1.8.3-.9 1.1-1.6 1.6-1.7l1-.1.9 5.1.8 5.1 1.8 2.8c1 1.5 3.8 9.7 6.4 18l4.6 15.4 1.2.7 1.4.7.6 8 .6 7.9 1 1.5c.7.8 1.7 3.8 2.3 6.7l3.7 15.2c2.7 11.3 3 14.9 4.2 38.4l.7 16.4 3.3 15a127 127 0 0 1 2.8 15.6c-.7.9.3 11.5 3.8 43a596 596 0 0 1 3 31v9.7l.6 17.2c.2 6.6.5 15 .5 19l.1 7.1-.8.2h-1l.4 9 .4 9-1.2.1-1.2.2.5 3.7.5 3.6-4.5 3.5c-2.5 2-5.2 4.8-6 6.1l-1.6 2.3-4.6-1.7c-2.6-1-5.1-2.5-5.8-3.3l-1.2-1.3.2 1.2c.1.7-1.9-.5-4.2-2.7l-4.6-3.9-3 2-3.1 1.9-.8-.8-.7-.7 1.1-.1c.6-.3-1.3-1-4.2-1.7l-5.3-1.4-2.9 4.3-2.9 4.3-2.1-1.5-2-1.5-.4 3.5c-.3 2-1 4.5-1.6 5.6l-1 2.1-2.6-2.2-2.7-2.1.1 2 .3 2.1-1.7-3.2-1.6-3.2-1 1-1.2 1-2.9-4.2-2.9-4-.4 2.5-.5 2.8-2-5-2-5 .4 3.3.3 3.4-1.1.2-1.1.1-1.1-3.1-1.2-3-1.8 2.2-1.6 2.2-1-.8-.9-.9-1.5 1.9-1.5 1.8.6 3.7.4 3.5-2.8-1.2-3-1.4-1.3 3c-.7 1.6-1.3 3.5-1.2 4l.1 1.2-1.4-.7-1.3-.7.2 1.5.2 1.6-3.5.5c-3.6.5-7.1-.8-7.2-2.6l-.3-3.2-.4-2.2-1 1-1.2 1-.4-2.3-.3-2.5-2.1 1.4c-1 .7-3.5 2-5.4 2.7-1.9.5-3.7 1.7-4 2.5l-.4 1.4-4.8.6-4.8.7-5.4-3.7-5.5-3.9-1.6 1-1.5 1-3.4-1.2c-1.9-.7-3.5-1.8-3.5-2.4-.1-.6-1.1-1.3-2.3-1.6l-2-.6-1.2 5.5-1.1 5.7-1.6-1.4-1.7-1.4-3 3.2-3.1 3.5-1.8-2-1.8-2-2.2.3-2 .3 1.5-1.4 1.4-1.6-7.3-1-7.2-.9-1.7-1.8-1.6-1.8h1c.6-.2-.6-1.2-2.4-2.3-2-1.2-3.9-2-4.2-1.8-.4.2-1.9-2.2-3.1-5.4l-2.5-5.8-.7 2.2-.9 2-3.1-3.1-3.2-3.2-.7 2-.8 2-2.1-.8-2.3-.6.7 5.3.8 5.2-1.5 5.9c-1.6 7-2.5 8.3-6.6 11.7l-3.3 2.5-.4 3c-.3 3-1.9 3.8-3.4 1.6l-1-1.3-1.2.9-1 1-.1-1.2-.2-1.3-2.3.2H449c-.8 0-2 0-3 .3l-1.4.3.3 2.5.4 2.7-4 5.5-4.1 5.4-.6-1.5-.7-1.4-1.6 2.5c-2.3 3.8-2.3 3.6-12-3.6-1-.6-2.4-1.1-3.2-1l-1.2.2-2.1-4c-1.2-2-3.5-4.7-5.1-6l-3-2.4.2-2V645l-2.2-1.6-2.1-1.5-.3-2.2-.3-2.1-1.1 1-1 1.1-2.7-3.5-2.7-3.5-2.5 1.3c-1.3.8-2.7 2-2.8 2.8l-.2 1.6-4.3-4c-2.2-2.3-4.8-4-5.4-4l-1.4.2-.3-2.2-.3-2.2-1.3.2-1.3.2-1.6-3.3-3.7-7.2-2-4.1-.8 2.2-1 2.4-.5-3c-.4-1.5-.9-5.2-1.3-8l-.4-5.2-.8 3.1-.7 3.1-1-2.1a100.8 100.8 0 0 1-6.9-18.8l-1.6-6.7-1.8 2.8c-1.6 2.5-4 11.5-3.5 13.3 0 .4-1.3 3.1-3 6l-3.2 5.4-.2 3.8c0 2.1-.8 4.3-1.4 5l-1.1 1 .2 4 .1 3.8-1.3 2.3c-1.4 2.4-3.4 6.5-6.8 14l-2 4.3-3 1-3 1.2-1.7-1.4-1.7-1.4-.3 1.8c-.3 1.1-1 2-1.5 2.2l-1.2.1-.3-2-.3-2-2.2.5-2.1.5v-5l-2.2.6-2.2.5-2.9 7.1c-1.6 3.9-3.7 8.5-4.7 10.1l-2 3-1.2-.7-1.4-.7.3 2.2.4 2.3-2.6.4-2.5.3-.4-2.9-.4-3-1.8.3-1.7.2-2-4.5-2.1-4.3-.7 1-.7 1-2.8-3.1-2.8-3.2.4-2.4.4-2.5-1.5.2-1.4.2.6-1.4.4-1.6-1-.5-1-.5-1.2-8.9-1.2-9-1 1-.8.8-.3-1.6-.2-1.6-1.4 1.2-1.2 1.2.4-2.6.5-2.6-1.2 1-1.1 1.3-2-1.5-2-1.4-.4 3-.3 3-5.5-1.4a53 53 0 0 0-17-2l-4.6.4-3.2-2.1-3.3-2-3 .4-3 .4v-13.8l-1.8-.9-1.7-1v-12.2l1.3-.2 1.2-.2-1.5-8.5-1.4-8.6.6-1.7c.4-1.1.5-2 .3-2l-2.8-.2-2.2-.2.4 2.8.4 2.8-1 .1-1 .2-.9 5.7c-.4 3.2-1.8 7.4-3 9.2l-2 3.6.7 2.6c.4 1.6.3 4.4 0 6.6l-.8 3.8 1.2.8 1.4.7-1.2 1.2-1.3 1.2.4 3 .4 2.8-2 3-2 3.2-3.9 1.6-3.8 1.6-.5 2.4a13 13 0 0 1-1.8 4.8l-1.3 2.3.8 1 .7 1.2-3.7 1.4-3.8 1.4-1.3-.7c-.7-.4-1.4-1.6-1.5-2.8l-.3-2.2-1.2 1-1.1 1.1-.2-1.5-.3-1.6 1.6-.2 1.6-.2-3.4-1.5-3.4-1.3-1-4-.9-4-1.3.2c-.6 0-1 .9-.9 1.8l.2 1.4-1.4-.7-1.3-.7.3 3.4c.1 2 .4 3.9.6 4.4l.3 1.2-1.9.3-1.9.2.3 2.2.3 2.2-1.2.2-1.3.2-.2 3.8-.3 3.7-1.7.3-2 .3-.3 2.2-.4 2.4-2.4.3-2.4.3-.6-3.3-.6-3.3-.3 2.6v2.7l-2.6.4-2.4.3-.5-3.6-.5-3.7-3-2.6-2.9-2.6-.9-6.5-1-6.4-2-.7-2-.4.3 1.4c.2 1.7-3.7 11.4-5.1 12.3-.5.4-.7 1.6-.5 2.8l.3 2-1.8.3c-.9.1-2.5-.6-3.5-1.6l-1.8-1.9-4.2.8-4.2.7-2.3-1.6-2.2-1.7-.6-4-.7-3.8-1.3 3-1.5 3.3-.2-1.3-.2-1.4-2 3.3c-1 1.8-2.4 4.9-2.9 6.7l-1 3.6-1.1-.6-1.2-.6-.9 3.6-.8 3.6-3.7.2c-1.9 0-4 0-4.6.2l-.9-.2-.6-4.3-.6-4.2-1.7-.5-1.6-.4-2.8-6.8c-1.5-3.9-3.9-8.8-5.2-11.1l-2.6-4.2-3.8-27.3-5.6-42-2.1-17.3-.5-2.5-2.5.3-2.4.4-1 2.6-.7 2.7-3.2-3.2a18 18 0 0 1-3.4-5.2l-.3-1.9L44 527c-.8.7-3.9 1.7-7 2.3l-5.7 1-1.7-1.3-1.6-1.6-1.9-6.8-1.8-6.8-1.4-.5a4.7 4.7 0 0 1-1.6-3c-.1-1.1-2-4.3-4-7.2l-4-5-1.2-4.3c-.6-2.5-1.4-5.2-1.5-6.2l-.4-1.8-1.3.2-1.2.2.2 1.9.3 1.9-2.2 2.4-2.2 2.5.9 6.7c.5 3.6 1 7.8 1 9.1l.2 2.7-1.7.2-1.7.3.3 2 .3 2.2-2.2 1.2-2.3 1.2-.2 4.4c0 2.6-.8 8-1.7 12l-1.5 7.2-2.8 2-2.7 2-3.9-3.7-4-3.7-.3-2.2-.3-2.2-1.2.2-1.3.2-.3-2.2-.3-2.3-1.3.2-1.4.2-2.9 8c-1.5 4.2-3.2 7.9-3.7 8-.5 0-1.3 1.8-1.8 4l-1 3.8-1.9.3-1.9.2.3 2.2.3 2.2-2.5.4-2.5.3-.4-2.6c-.2-1.5-1.4-3.8-2.7-5.5l-2.2-2.8-3-10.5c-1.6-6-3.6-12.1-4.6-13.8l-1.8-2.9.4-3.8.2-3.7-1.6-.4-1.7-.5-.5-6.1-1.1-12.9c-.4-3.7-.5-6.7 0-6.7.3 0-1.6-16.2-4.2-35.9a1454.1 1454.1 0 0 1-7.1-63.1c-.8-5.7 2.5-25.7 4.4-26 .3 0 .8-2 1-4.4l.2-4.3 2.6-3.6c1.5-1.9 2.6-4.3 2.5-5.2-.2-.8 1.1-3.7 3-6.5l3-5 .3 1.8.2 1.6 2.2-2 2.3-1.7.5-3.4c0-2 1-4.8 2-6.4l1.6-2.8 1 1.5 1 1.5.4-3.8.3-4 2.4-1.2 2.4-1.2-.3-1.6-.2-1.6 1 .7 1 1 1.5-1.9 1.4-1.8.2 1.6.2 1.6 2-.3 2.2-.3 1.8-3.5 2-3.5-.4-2.8-.4-2.6 2.4-.3 2.3-.4-.5-3.6-.5-3.7 3.4-4.7 3.4-4.5-1-5.5-1-5.6 2.8-2.8c1.4-1.7 3.9-5 5.3-7.5l2.9-4.6-1.6-4.6a27 27 0 0 1-1.4-7.4v-2.6l1.3-.1c.6-.1 3-2 5.2-4.2l4-3.9-1.2-5.3-1.1-5.4 2.4-2.8c1.4-1.6 4.2-4.1 6.3-6l3.8-2.9V207c0-3 .2-6.2.6-7.1l.8-2 3.9-1.4c2.2-.9 4.8-2.5 5.8-3.6l1.9-2.1-.3-4.5-.2-4.3 1.2-2 1.1-1.9 4.7-1.7 4.5-1.7.7-4.3.7-4.3 5.4-1.8 5.4-1.6-.3-2.2c-.2-1.2.3-3 1-4.4l1.6-2.1 3.5-1.1c2-.4 3.8-1.4 4.1-2 .3-.6 2.9-1.8 5.8-2.8l5.2-1.7 8-5.7 7.8-5.8 3.8-.2 4-.2 1.9-3.5 1.9-3.2-.2-4.8-.3-4.7 2.1-1.8 2-1.8 5-1a47.8 47.8 0 0 0 18-7.6l1.1-1.7 5.8-.8 5.7-.8 4.4-4.5 4.2-4.5 1 1c.6.8 2 1.3 3.5 1.4l2.3.1 3.5-2 3.2-2.3-.4-1.5-.5-1.4 3.5-3 3.4-3 2-5.6c1.2-3 3-7.3 4.1-9.6l2-4.1 1.7-.3c1-.1 2.6.3 3.7.7Z"/><path fill="#fff" d="m82.7 417 4.2 10.7 4.4-11.5 4.1 11.5 4.5-10.8h2.6L95.3 434l-4-11.4-4.4 11.4-6.8-17h2.6Zm19.6 10.9a5 5 0 0 1 1.5-3.8c1-1 2.3-1.5 3.9-1.5a5.3 5.3 0 0 1 5.4 5.3c0 1.6-.6 2.8-1.6 3.9-1 1-2.4 1.5-3.9 1.5s-2.8-.5-3.8-1.6c-1-1-1.5-2.3-1.5-3.8Zm2.3 0c0 1 .3 1.8.9 2.4.5.6 1.2.9 2.2.9.9 0 1.6-.3 2.1-.9.6-.6.9-1.4.9-2.3 0-1-.3-1.8-.9-2.4-.5-.6-1.2-.9-2.1-.9-1 0-1.7.3-2.2.9-.6.6-.9 1.4-.9 2.3Zm11-5h2.3v.9c.4-.5.8-.8 1.1-1l1.2-.2c.6 0 1.3.2 2 .6l-1.1 2.1c-.4-.3-.9-.4-1.3-.4-1.3 0-2 1-2 2.9v5.2h-2.3v-10.1Zm10.6-7.5V433h-2.4v-17.6h2.4Zm10.4 0h2.4V433h-2.4v-1c-1 .8-2 1.3-3.1 1.3-1.4 0-2.6-.5-3.5-1.5-.9-1-1.3-2.3-1.3-3.9 0-1.5.4-2.8 1.3-3.8a4.3 4.3 0 0 1 6.6 0v-8.7Zm-5.5 12.5c0 1 .2 1.8.7 2.4.6.6 1.2.9 2 .9 1 0 1.6-.3 2.2-.9.5-.6.8-1.4.8-2.3 0-1-.3-1.8-.8-2.4-.6-.6-1.3-.9-2.1-.9s-1.5.3-2 1c-.6.5-.8 1.3-.8 2.2Zm16.7-3.3-2 1c-.2-.6-.6-1-1-1-.3 0-.5.2-.6.3-.2.2-.2.3-.2.6s.4.7 1.3 1.1c1.2.5 2 1 2.5 1.5.4.4.7 1 .7 1.8 0 1-.4 1.8-1.1 2.5-.7.6-1.6.9-2.6.9-1.7 0-2.9-.8-3.6-2.5l2-1c.3.6.5.9.7 1 .2.3.6.4 1 .4.8 0 1.2-.4 1.2-1 0-.5-.3-.9-1-1.2a35.2 35.2 0 0 0-1.4-.7l-1.4-1c-.4-.4-.5-1-.5-1.7 0-.8.3-1.6.9-2.1.6-.6 1.3-.9 2.2-.9 1.3 0 2.3.7 2.9 2Zm5.2.5v7.9h-2.4v-8h-.8V423h.8v-4c0-1.2.3-2.1.7-2.6.6-.8 1.5-1.1 2.7-1.1.4 0 .9 0 1.5.3v2.4l-.2-.1a3 3 0 0 0-1.3-.4c-.4 0-.6.2-.8.5l-.2 1.6v3.4h2.5v2.2H153Zm11.7-2.2h2.3V433h-2.3v-1a4.5 4.5 0 0 1-6.6-.2c-1-1-1.4-2.3-1.4-3.9 0-1.5.5-2.8 1.4-3.8a4.4 4.4 0 0 1 6.6 0v-1.2Zm-5.6 5c0 1 .3 1.8.8 2.4.5.6 1.2.9 2 .9.9 0 1.6-.3 2.1-.9.6-.6.8-1.4.8-2.3 0-1-.2-1.8-.8-2.4-.5-.6-1.2-.9-2-.9-.9 0-1.5.3-2 1-.6.5-.9 1.3-.9 2.2Zm16.8-3.3-2 1c-.3-.6-.6-1-1-1-.3 0-.5.2-.6.3-.2.2-.3.3-.3.6s.5.7 1.4 1.1c1.2.5 2 1 2.5 1.5.4.4.6 1 .6 1.8 0 1-.3 1.8-1 2.5-.8.6-1.6.9-2.6.9-1.7 0-2.9-.8-3.6-2.5l2-1 .6 1c.3.3.7.4 1 .4.8 0 1.2-.4 1.2-1 0-.5-.3-.9-.9-1.2a32.7 32.7 0 0 0-1.4-.7c-.7-.4-1.2-.7-1.4-1-.4-.4-.6-1-.6-1.7 0-.8.3-1.6 1-2.1.6-.6 1.3-.9 2.2-.9 1.3 0 2.2.7 2.9 2Zm5.2.5v7.9h-2.4v-8h-1V423h1v-3.7h2.4v3.7h1.8v2.2H181Zm12.8 3.4h-7.3c0 .8.3 1.5.8 2s1.1.7 1.9.7c.5 0 1-.1 1.4-.4a6 6 0 0 0 1.3-1.6l2 1.2a8 8 0 0 1-1 1.3l-1 1-1.3.4-1.5.2c-1.5 0-2.7-.5-3.7-1.5-.9-1-1.3-2.2-1.3-3.9 0-1.6.4-2.8 1.3-3.8s2-1.5 3.6-1.5c1.5 0 2.6.5 3.5 1.4.9 1 1.3 2.3 1.3 4v.5Zm-2.4-2c-.4-1.2-1.1-1.8-2.4-1.8a2.3 2.3 0 0 0-2 1.1c-.1.2-.3.5-.3.8h4.7Zm10.8-1.9-2 1c-.2-.6-.6-1-1-1-.3 0-.4.2-.6.3l-.2.6c0 .3.4.7 1.3 1.1 1.3.5 2.1 1 2.5 1.5.5.4.7 1 .7 1.8 0 1-.4 1.8-1.1 2.5-.7.6-1.5.9-2.5.9-1.7 0-3-.8-3.6-2.5l2-1c.2.6.4.9.6 1 .3.3.6.4 1 .4.8 0 1.2-.4 1.2-1 0-.5-.3-.9-1-1.2a32.7 32.7 0 0 0-1.3-.7l-1.5-1c-.3-.4-.5-1-.5-1.7 0-.8.3-1.6.9-2.1.6-.6 1.4-.9 2.2-.9 1.3 0 2.3.7 3 2Zm5.2.5v7.9h-2.3v-8h-1V423h1v-3.7h2.3v3.7h1.8v2.2h-1.8Zm3.8 6.7c0-.3.1-.7.4-1 .3-.3.6-.4 1-.4s.8.1 1 .4c.3.3.5.7.5 1 0 .5-.2.8-.5 1-.2.4-.6.5-1 .5s-.7-.1-1-.4c-.3-.3-.4-.6-.4-1Zm14-8.5v3.1l-1.4-1.3c-.4-.3-.9-.4-1.4-.4-1 0-1.6.3-2.2 1-.6.5-.9 1.3-.9 2.3 0 .9.3 1.7.8 2.3.6.6 1.3.9 2.2.9.6 0 1-.1 1.5-.4.4-.2 1-.7 1.5-1.3v3c-1 .5-2 .8-2.9.8-1.5 0-2.9-.5-4-1.5a5 5 0 0 1-1.5-3.8c0-1.5.5-2.8 1.6-3.8a5.9 5.9 0 0 1 6.8-.8Zm1.9 4.6a5 5 0 0 1 1.5-3.8c1-1 2.4-1.5 3.9-1.5a5.3 5.3 0 0 1 5.4 5.3c0 1.6-.6 2.8-1.6 3.9-1 1-2.4 1.5-3.9 1.5s-2.8-.5-3.8-1.6c-1-1-1.5-2.3-1.5-3.8Zm2.4 0c0 1 .2 1.8.8 2.4.5.6 1.2.9 2.2.9.9 0 1.6-.3 2.2-.9.5-.6.8-1.4.8-2.3 0-1-.3-1.8-.8-2.4-.6-.6-1.3-.9-2.2-.9-1 0-1.7.3-2.2.9-.6.6-.8 1.4-.8 2.3Zm10.8-5h2.4v1c.4-.6.8-.9 1.1-1a3.1 3.1 0 0 1 4 1.2c.8-1 1.8-1.5 3-1.5 2.3 0 3.4 1.4 3.4 4.1v6.3H252v-5.6c0-1-.1-1.7-.4-2-.2-.5-.6-.7-1.2-.7s-1 .2-1.4.7c-.3.5-.4 1.3-.4 2.4v5.2h-2.4v-5.6c0-1.8-.5-2.7-1.5-2.7-.7 0-1.2.3-1.5.7-.3.5-.4 1.3-.4 2.4v5.2h-2.4v-10.1Zm23.5-7.5h2.3v8.3a4 4 0 0 1 2.8-1.1c1.1 0 2 .4 2.7 1.1.6.7.9 1.7.9 3.1v6.2h-2.4v-6c0-.8-.1-1.4-.4-1.7-.3-.4-.7-.6-1.4-.6-.8 0-1.4.3-1.7.8-.3.5-.5 1.4-.5 2.6v4.9H264v-17.6ZM283 423h2.4V433H283v-1a4.5 4.5 0 0 1-6.6-.2c-.9-1-1.3-2.3-1.3-3.9 0-1.5.4-2.8 1.3-3.8a4.4 4.4 0 0 1 6.6 0v-1.2Zm-5.5 5c0 1 .2 1.8.7 2.4.6.6 1.3.9 2 .9 1 0 1.6-.3 2.2-.9.5-.6.8-1.4.8-2.3 0-1-.3-1.8-.8-2.4-.6-.6-1.3-.9-2.1-.9s-1.5.3-2 1c-.6.5-.8 1.3-.8 2.2Zm16.7-3.3-2 1c-.2-.6-.6-1-1-1-.3 0-.5.2-.6.3-.2.2-.2.3-.2.6s.4.7 1.3 1.1c1.3.5 2 1 2.5 1.5.5.4.7 1 .7 1.8 0 1-.4 1.8-1.1 2.5-.7.6-1.6.9-2.6.9-1.7 0-2.9-.8-3.6-2.5l2-1c.3.6.5.9.7 1 .3.3.6.4 1 .4.8 0 1.2-.4 1.2-1 0-.5-.3-.9-1-1.2a32.7 32.7 0 0 0-1.4-.7l-1.4-1c-.4-.4-.5-1-.5-1.7 0-.8.3-1.6.9-2.1.6-.6 1.3-.9 2.2-.9 1.3 0 2.3.7 3 2Zm16.8-1.7h2.4V433H311v-1a4.5 4.5 0 0 1-6.6-.2c-.9-1-1.3-2.3-1.3-3.9 0-1.5.4-2.8 1.3-3.8a4.4 4.4 0 0 1 6.6 0v-1.2Zm-5.5 5c0 1 .2 1.8.7 2.4.6.6 1.2.9 2 .9 1 0 1.6-.3 2.2-.9.5-.6.8-1.4.8-2.3 0-1-.3-1.8-.8-2.4-.6-.6-1.3-.9-2.1-.9s-1.5.3-2 1c-.6.5-.8 1.3-.8 2.2Zm13.2-12.5V433h-2.4v-17.6h2.4Zm3 7.5h2.3v.9c.4-.5.8-.8 1.1-1l1.2-.2c.6 0 1.3.2 2 .6l-1.1 2.1c-.5-.3-.9-.4-1.3-.4-1.3 0-2 1-2 2.9v5.2h-2.3v-10.1Zm17 5.6h-7.3c0 .8.3 1.5.8 2s1.1.7 1.9.7c.5 0 1-.1 1.4-.4a6 6 0 0 0 1.3-1.6l2 1.2a8 8 0 0 1-1 1.3l-1.1 1-1.3.4-1.4.2c-1.5 0-2.7-.5-3.7-1.5-.9-1-1.3-2.2-1.3-3.9 0-1.6.4-2.8 1.3-3.8s2-1.5 3.6-1.5c1.4 0 2.6.5 3.5 1.4.8 1 1.3 2.3 1.3 4v.5Zm-2.4-2c-.4-1.2-1.2-1.8-2.4-1.8a2.3 2.3 0 0 0-2 1.1c-.1.2-.3.5-.3.8h4.7Zm12.4-3.6h2.4V433h-2.4v-1a4.5 4.5 0 0 1-6.6-.2c-.9-1-1.3-2.3-1.3-3.9 0-1.5.4-2.8 1.3-3.8a4.4 4.4 0 0 1 6.6 0v-1.2Zm-5.6 5c0 1 .3 1.8.8 2.4.6.6 1.2.9 2 .9 1 0 1.6-.3 2.1-.9.6-.6.8-1.4.8-2.3 0-1-.2-1.8-.8-2.4-.5-.6-1.2-.9-2-.9s-1.5.3-2 1c-.6.5-.9 1.3-.9 2.2Zm18.4-12.5h2.3V433h-2.3v-1c-1 .8-2 1.3-3.2 1.3-1.3 0-2.5-.5-3.4-1.5-1-1-1.4-2.3-1.4-3.9 0-1.5.5-2.8 1.4-3.8a4.3 4.3 0 0 1 6.6 0v-8.7Zm-5.6 12.5c0 1 .3 1.8.8 2.4.5.6 1.2.9 2 .9.9 0 1.6-.3 2.1-.9.5-.6.8-1.4.8-2.3 0-1-.3-1.8-.8-2.4-.5-.6-1.2-.9-2-.9-.9 0-1.5.3-2 1-.6.5-.9 1.3-.9 2.2Zm14 3.2-4.5-8.2h2.7l3.1 5.8 3-5.8h2.6l-8.1 15.6H366l4-7.4Zm15 1.9v-10.5h3.4v2.5c.4-1 .9-1.6 1.5-2a3.8 3.8 0 0 1 2.7-.7 10.3 10.3 0 0 1 .5 0l-.4 3.4-.7-.2h-.6c-.9 0-1.6.3-2 .8-.5.6-.8 1.3-.8 2.4v4.3h-3.7Zm16.7-6.6c0-.6-.3-1-.7-1.4a2 2 0 0 0-1.4-.6 2 2 0 0 0-1.5.5c-.3.4-.6.9-.7 1.5h4.3Zm3.6 2h-8c0 1 .3 1.5.7 2 .4.4 1 .6 1.7.6.6 0 1 0 1.4-.3.4-.2.7-.5.9-1l2.8 1.2c-.3.8-1 1.4-1.8 1.8-.8.5-1.9.7-3 .7-2 0-3.4-.5-4.5-1.5a5.1 5.1 0 0 1-1.7-4c0-1.7.6-3 1.7-4.1 1.1-1 2.5-1.6 4.2-1.6 1.7 0 3.1.5 4.1 1.6.5.6.9 1.2 1.2 2 .2.7.3 1.6.3 2.5v.2Zm16 4.6v-5.7a4 4 0 0 0-.3-1.9c-.2-.4-.6-.5-1.1-.5-.7 0-1.2.2-1.5.7a7 7 0 0 0-.4 3v4.4h-3.6v-5.7c0-1 0-1.6-.3-2-.2-.3-.6-.4-1.2-.4-.7 0-1.2.2-1.4.7a7 7 0 0 0-.4 3v4.4h-3.6v-10.5h3.6v1.8c.4-.7 1-1.2 1.5-1.6.6-.4 1.2-.5 2-.5.9 0 1.6.1 2.1.5.6.3 1 .8 1.2 1.4a4 4 0 0 1 3.6-2 4 4 0 0 1 1.6.4 3.2 3.2 0 0 1 1.8 2l.1 2.3v6.2h-3.7Zm13.8-5.2c0-.8-.2-1.4-.6-1.9a2 2 0 0 0-1.6-.6 2 2 0 0 0-1.6.6c-.4.5-.6 1-.6 1.9 0 .8.2 1.4.6 1.8.4.5 1 .7 1.6.7a2 2 0 0 0 1.6-.7c.4-.4.6-1 .6-1.8Zm3.7 0c0 .8-.2 1.5-.5 2.1-.3.7-.7 1.4-1.2 1.9a6 6 0 0 1-2 1.2 6 6 0 0 1-2.2.4 6 6 0 0 1-4.2-1.6 5 5 0 0 1-1.2-1.9 5.4 5.4 0 0 1 0-4.3c.3-.7.7-1.3 1.3-1.8a5.8 5.8 0 0 1 4.1-1.6 5.8 5.8 0 0 1 5.4 3.4c.3.7.5 1.4.5 2.2Zm5.3 5.2-4.7-10.5h4l1.7 4.6v.2c.3.5.4 1 .5 1.5a8.3 8.3 0 0 1 .5-1.7l1.8-4.6h3.9l-4.8 10.5h-3Zm16-6.6c0-.6-.2-1-.6-1.4a2 2 0 0 0-1.4-.6 2 2 0 0 0-1.5.5c-.3.4-.6.9-.7 1.5h4.3Zm3.7 2h-8c0 1 .3 1.5.7 2 .4.4 1 .6 1.7.6.6 0 1 0 1.4-.3.4-.2.7-.5.9-1l2.8 1.2c-.3.8-1 1.4-1.8 1.8-.8.5-1.9.7-3 .7-2 0-3.4-.5-4.5-1.5a5.1 5.1 0 0 1-1.7-4c0-1.7.6-3 1.7-4.1 1.1-1 2.5-1.6 4.2-1.6 1.7 0 3.1.5 4.1 1.6.5.6 1 1.2 1.2 2 .2.7.3 1.6.3 2.5v.2Zm10.2-.6c0-.9-.2-1.5-.6-2-.5-.4-1-.7-1.8-.7s-1.4.3-1.8.7c-.4.5-.6 1.1-.6 2 0 .8.2 1.4.6 2 .4.4 1 .6 1.8.6.7 0 1.3-.2 1.8-.7.4-.5.6-1.1.6-2Zm3.3-11V433h-3.4v-1.7c-.5.7-1 1.2-1.6 1.6-.6.3-1.2.5-2 .5-1.5 0-2.6-.5-3.5-1.5-.9-1-1.3-2.4-1.3-4.1 0-1.7.4-3 1.3-4.1.9-1 2-1.5 3.4-1.5.9 0 1.6.1 2.1.5.6.3 1 .8 1.5 1.5a12.4 12.4 0 0 1 0-1.8v-5.5h3.5Zm-388.4 39c0-.8-.2-1.4-.6-1.9a2 2 0 0 0-1.6-.6 2 2 0 0 0-1.6.6c-.4.5-.6 1-.6 1.9 0 .8.2 1.4.6 1.8.4.5 1 .7 1.6.7a2 2 0 0 0 1.6-.7c.4-.4.6-1 .6-1.8Zm3.7 0c0 .8-.2 1.5-.4 2.1-.4.7-.8 1.4-1.3 1.9a6 6 0 0 1-2 1.2 6 6 0 0 1-2.2.4 6 6 0 0 1-4.2-1.6 5 5 0 0 1-1.2-1.9 5.4 5.4 0 0 1 0-4.3c.3-.7.7-1.3 1.3-1.8a5.8 5.8 0 0 1 4.1-1.6 5.8 5.8 0 0 1 5.4 3.4c.3.7.5 1.4.5 2.2Zm5.3 5.2-4.7-10.5h4l1.7 4.6v.2c.3.5.4 1 .5 1.5a8.2 8.2 0 0 1 .5-1.7l1.8-4.6h3.9l-4.8 10.5h-2.9Zm16-6.6c0-.6-.2-1-.6-1.4a2 2 0 0 0-1.4-.6 2 2 0 0 0-1.4.5c-.4.4-.7.9-.8 1.5h4.3Zm3.7 2h-8c0 1 .3 1.5.7 2 .4.4 1 .6 1.7.6.6 0 1 0 1.4-.3.4-.2.7-.5 1-1l2.7 1.2c-.3.8-1 1.4-1.8 1.8-.8.5-1.9.7-3 .7-2 0-3.4-.5-4.5-1.5a5.1 5.1 0 0 1-1.6-4c0-1.7.5-3 1.6-4.1 1.1-1 2.5-1.6 4.2-1.6 1.7 0 3.1.5 4.1 1.6.5.6 1 1.2 1.2 2 .2.7.3 1.6.3 2.5v.2Zm2.2 4.6v-10.5h3.5v2.5c.4-1 .8-1.6 1.5-2a3.8 3.8 0 0 1 2.7-.7 11.1 11.1 0 0 1 .4 0l-.3 3.4-.7-.2h-.6c-1 0-1.6.3-2.1.8-.5.6-.7 1.3-.7 2.4v4.3h-3.7Zm20 0v-11.6h-3.3l1.7-3.5h5.3V461h-3.8Zm10.6-3.4h3.9L151 464H148l2.2-6.5Zm16.6-4c0 2.5-.5 4.4-1.5 5.7a5 5 0 0 1-4.3 2.1 5 5 0 0 1-4.2-2.1 7 7 0 0 1-.8-1.6 9 9 0 0 1-.6-2 14.5 14.5 0 0 1 .3-5.5c.2-1 .6-1.8 1.1-2.5a5 5 0 0 1 4.2-2 5 5 0 0 1 4.3 2c1 1.4 1.5 3.4 1.5 6Zm-7.7 0c0 1.6.2 2.8.5 3.5.3.8.8 1.2 1.4 1.2.7 0 1.2-.4 1.5-1.2.3-.7.5-1.9.5-3.6 0-1.7-.2-2.9-.5-3.6-.3-.8-.8-1.2-1.5-1.2-.6 0-1.1.4-1.4 1.1-.3.8-.5 2-.5 3.7Zm21 0c0 2.5-.5 4.4-1.5 5.7a5 5 0 0 1-4.3 2.1 5 5 0 0 1-4.2-2.1l-.8-1.6a9 9 0 0 1-.6-2 14.5 14.5 0 0 1 .3-5.5c.2-1 .6-1.8 1.1-2.5a5 5 0 0 1 4.3-2 5 5 0 0 1 4.2 2c1 1.4 1.5 3.4 1.5 6Zm-7.7 0c0 1.6.2 2.8.5 3.5.3.8.8 1.2 1.4 1.2.7 0 1.2-.4 1.5-1.2.3-.7.5-1.9.5-3.6 0-1.7-.2-2.9-.5-3.6-.3-.8-.8-1.2-1.5-1.2-.6 0-1.1.4-1.4 1.1-.3.8-.5 2-.5 3.7Zm21 0c0 2.5-.5 4.4-1.5 5.7a5 5 0 0 1-4.2 2.1 5 5 0 0 1-4.3-2.1l-.8-1.6a9 9 0 0 1-.5-2 14.6 14.6 0 0 1 .2-5.5c.2-1 .6-1.8 1.1-2.5a5 5 0 0 1 4.3-2 5 5 0 0 1 4.2 2c1 1.4 1.5 3.4 1.5 6Zm-7.7 0c0 1.6.2 2.8.5 3.5.3.8.8 1.2 1.5 1.2.6 0 1-.4 1.4-1.2.3-.7.5-1.9.5-3.6 0-1.7-.2-2.9-.5-3.6-.3-.8-.8-1.2-1.4-1.2-.7 0-1.2.4-1.5 1.1-.3.8-.5 2-.5 3.7Zm11.1 4h3.9l-3.2 6.5h-3l2.3-6.5Zm16.6-4c0 2.5-.5 4.4-1.6 5.7a5 5 0 0 1-4.2 2.1 5 5 0 0 1-4.2-2.1 7 7 0 0 1-.8-1.6 9 9 0 0 1-.6-2 14.5 14.5 0 0 1 .2-5.5c.3-1 .7-1.8 1.2-2.5a5 5 0 0 1 4.2-2 5 5 0 0 1 4.3 2c1 1.4 1.5 3.4 1.5 6Zm-7.7 0c0 1.6.1 2.8.5 3.5.3.8.8 1.2 1.4 1.2.7 0 1.2-.4 1.5-1.2.3-.7.4-1.9.4-3.6 0-1.7-.1-2.9-.4-3.6-.3-.8-.8-1.2-1.5-1.2s-1.1.4-1.4 1.1c-.4.8-.5 2-.5 3.7Zm21 0c0 2.5-.5 4.4-1.5 5.7a5 5 0 0 1-4.3 2.1 5 5 0 0 1-4.2-2.1 7 7 0 0 1-.8-1.6 9 9 0 0 1-.6-2 14.5 14.5 0 0 1 .2-5.5c.3-1 .7-1.8 1.2-2.5a5 5 0 0 1 4.2-2 5 5 0 0 1 4.3 2c1 1.4 1.5 3.4 1.5 6Zm-7.7 0c0 1.6.2 2.8.5 3.5.3.8.8 1.2 1.4 1.2.7 0 1.2-.4 1.5-1.2.3-.7.4-1.9.4-3.6 0-1.7-.1-2.9-.4-3.6-.3-.8-.8-1.2-1.5-1.2s-1.1.4-1.4 1.1c-.3.8-.5 2-.5 3.7Zm21 0c0 2.5-.5 4.4-1.5 5.7a5 5 0 0 1-4.3 2.1 5 5 0 0 1-4.2-2.1l-.8-1.6a9 9 0 0 1-.6-2 14.5 14.5 0 0 1 .3-5.5c.2-1 .6-1.8 1.1-2.5a5 5 0 0 1 4.2-2 5 5 0 0 1 4.3 2c1 1.4 1.5 3.4 1.5 6Zm-7.7 0c0 1.6.2 2.8.5 3.5.3.8.8 1.2 1.4 1.2.7 0 1.2-.4 1.5-1.2.3-.7.5-1.9.5-3.6 0-1.7-.2-2.9-.5-3.6-.3-.8-.8-1.2-1.5-1.2-.6 0-1.1.4-1.4 1.1-.3.8-.5 2-.5 3.7Zm20 2.2c0 .8.2 1.4.6 2 .4.4 1 .6 1.7.6.8 0 1.4-.2 1.8-.7.4-.5.6-1.1.6-2 0-.7-.2-1.4-.6-1.9-.4-.4-1-.7-1.8-.7-.7 0-1.3.3-1.7.7-.4.5-.7 1.2-.7 2Zm-3.3 9.8v-15h3.4v1.7c.4-.7 1-1.2 1.6-1.6.5-.3 1.2-.5 2-.5a5 5 0 0 1 2 .4c.5.2 1 .6 1.5 1a6 6 0 0 1 1.3 4.2c0 1.7-.5 3-1.3 4a4.3 4.3 0 0 1-3.5 1.6c-.9 0-1.6-.2-2.1-.5-.6-.3-1-.8-1.5-1.6v6.3h-3.4Zm21.4-9.8c0-.8-.2-1.4-.5-1.9a2 2 0 0 0-1.7-.6 2 2 0 0 0-1.6.6c-.3.5-.5 1-.5 1.9 0 .8.1 1.4.5 1.8.4.5 1 .7 1.6.7a2 2 0 0 0 1.7-.7c.4-.4.5-1 .5-1.8Zm3.7 0c0 .8-.1 1.5-.4 2.1a6 6 0 0 1-3.2 3 6 6 0 0 1-2.3.5 6 6 0 0 1-4.2-1.6 5 5 0 0 1-1.2-1.9 5.4 5.4 0 0 1 0-4.3c.3-.7.7-1.3 1.3-1.8a5.8 5.8 0 0 1 4.1-1.6 5.8 5.8 0 0 1 5.4 3.4c.4.7.5 1.4.5 2.2Zm13-5.3v5.4c0 1.2-.2 2-.3 2.6a4.1 4.1 0 0 1-2.7 2.6c-.7.2-1.5.3-2.5.3s-1.8-.1-2.4-.3c-.7-.3-1.3-.6-1.8-1-.4-.5-.8-1-1-1.6l-.2-2.6v-5.4h3.5v5.6c0 .9.2 1.5.5 1.9.2.4.7.6 1.4.6.6 0 1-.2 1.4-.6.3-.4.4-1 .4-1.9v-5.6h3.6Zm2.6 10.5v-10.5h3.4v2.1a4.3 4.3 0 0 1 4-2.5 5 5 0 0 1 1.8.4c.6.2 1 .5 1.3 1 .3.3.5.8.6 1.2l.2 2.3v6h-3.7v-5.6c0-.9-.2-1.5-.4-1.9-.3-.3-.7-.5-1.4-.5s-1.3.3-1.6.8c-.4.6-.6 1.5-.6 2.8v4.4h-3.6Zm22-5.2c0-.9-.3-1.5-.7-2-.5-.4-1-.7-1.8-.7-.7 0-1.3.3-1.8.7-.4.5-.6 1.1-.6 2 0 .8.2 1.4.6 2 .5.4 1 .6 1.8.6s1.4-.2 1.8-.7c.4-.5.6-1.1.6-2Zm3.2-11V461h-3.4v-1.7c-.5.7-1 1.2-1.6 1.6-.5.3-1.2.5-2 .5-1.4 0-2.6-.5-3.5-1.5-.8-1-1.3-2.4-1.3-4.1 0-1.7.5-3 1.3-4.1 1-1 2-1.5 3.4-1.5 1 0 1.6.1 2.2.5.5.3 1 .8 1.5 1.5a12 12 0 0 1-.1-1.8v-5.5h3.5Zm1.8 15.3.8-2.8a5.7 5.7 0 0 0 3.7 1.5c.5 0 .8-.1 1-.3.3-.1.4-.3.4-.6 0-.5-.5-.8-1.4-1l-.8-.2c-1.1-.4-2-.8-2.4-1.3-.5-.5-.8-1-.8-1.9a3 3 0 0 1 1.2-2.4c.7-.6 1.7-1 3-1a10.1 10.1 0 0 1 4.3 1l-.8 2.6a6 6 0 0 0-1.5-.8c-.5-.2-1-.2-1.5-.2-.4 0-.8 0-1 .2-.2 0-.3.3-.3.5 0 .4.5.7 1.5 1l.5.1c1.2.4 2.1.8 2.6 1.3s.8 1.2.8 2c0 1-.4 2-1.2 2.6-.9.7-2 1-3.3 1a8.5 8.5 0 0 1-4.8-1.3Zm25.4-4.3c0-.8-.2-1.4-.6-1.9a2 2 0 0 0-1.6-.6 2 2 0 0 0-1.6.6c-.4.5-.6 1-.6 1.9 0 .8.2 1.4.6 1.8.4.5 1 .7 1.6.7a2 2 0 0 0 1.6-.7c.4-.4.6-1 .6-1.8Zm3.7 0c0 .8-.2 1.5-.5 2.1-.3.7-.7 1.4-1.2 1.9a6 6 0 0 1-2 1.2 6 6 0 0 1-2.2.4 6 6 0 0 1-4.2-1.6 5 5 0 0 1-1.2-1.9 5.4 5.4 0 0 1 0-4.3c.3-.7.7-1.3 1.3-1.8a5.8 5.8 0 0 1 4.1-1.6 5.8 5.8 0 0 1 5.4 3.4c.3.7.5 1.4.5 2.2Zm2.5 5.2v-7.9h-1.6v-2.6h1.6v-2.2c0-1.2.3-2 1-2.7.6-.6 1.6-1 3-1a12.4 12.4 0 0 1 1.5.3v2.8l-.5-.2h-.4c-.3 0-.6.1-.7.3-.2.2-.3.6-.3 1v1.7h1.9v2.6H352v7.9h-3.6Zm25-14.6v4.5a7 7 0 0 0-1.6-1.4c-.6-.3-1.2-.4-1.8-.4a3.8 3.8 0 0 0-3.6 2.1l-.3 1-.1 1.3c0 1.2.3 2.2 1 3 .8.8 1.8 1.2 3 1.2a4 4 0 0 0 1.8-.4l1.7-1.4v4.5a9.7 9.7 0 0 1-4 1c-.8 0-1.5-.1-2.3-.3a6 6 0 0 1-1.9-1c-1.1-.7-2-1.6-2.6-2.8a8.6 8.6 0 0 1-.9-3.9 8.4 8.4 0 0 1 1.2-4.5 9 9 0 0 1 1-1.3 7 7 0 0 1 2.5-1.6c1-.4 2-.6 3-.6a9 9 0 0 1 4 1Zm18 7a8 8 0 0 1-.5 3.1 7.9 7.9 0 0 1-4.5 4.3c-1 .4-2 .6-3 .6a8.4 8.4 0 0 1-5.8-2.3 7.7 7.7 0 0 1-2.4-5.7 7.8 7.8 0 0 1 2.4-5.6 7.8 7.8 0 0 1 5.7-2.4 8.2 8.2 0 0 1 7.6 5c.4 1 .5 2 .5 3Zm-8 4.5c1 0 2-.4 2.8-1.3.4-.4.6-.9.8-1.4.2-.5.3-1.1.3-1.8 0-1.2-.4-2.3-1.1-3.2a3.7 3.7 0 0 0-2.9-1.2c-1.1 0-2.1.4-2.8 1.2-.8.9-1.2 2-1.2 3.2 0 1.3.4 2.4 1.1 3.2.8.9 1.8 1.3 3 1.3Zm21 3.1h-11.6l6.9-8 .9-1.4.3-1.1c0-.6-.2-1-.5-1.4a2 2 0 0 0-1.3-.5c-.7 0-1.2.3-1.5.7-.4.4-.6 1-.6 1.8v.2h-3.6v-.1c0-1.7.5-3.1 1.5-4.1 1-1 2.4-1.5 4.1-1.5a6 6 0 0 1 4 1.3c1.1.9 1.6 2 1.6 3.5 0 .7-.2 1.4-.5 2.1-.3.7-.8 1.5-1.5 2.2l-2.8 3h4.7v3.3Zm11.8-8v8H414v-8h-.9V451h.9v-4c0-1.2.2-2.1.6-2.6.6-.8 1.5-1.1 2.7-1.1.4 0 1 0 1.6.3v2.4l-.3-.1a3 3 0 0 0-1.2-.4c-.4 0-.7.2-.9.5l-.2 1.6v3.4h2.6v2.2h-2.6Zm4-2.1h2.3v.9c.4-.5.8-.8 1.1-1l1.2-.2c.6 0 1.3.2 2 .6l-1.1 2.1c-.5-.3-1-.4-1.3-.4-1.3 0-2 1-2 2.9v5.2h-2.3v-10.1Zm7.2 5a5 5 0 0 1 1.6-3.8c1-1 2.3-1.5 3.8-1.5a5.3 5.3 0 0 1 5.4 5.3c0 1.6-.5 2.8-1.5 3.9-1.1 1-2.4 1.5-4 1.5-1.4 0-2.7-.5-3.7-1.6-1-1-1.6-2.3-1.6-3.8Zm2.4 0c0 1 .3 1.8.8 2.4.6.6 1.3.9 2.2.9 1 0 1.7-.3 2.2-.9.6-.6.8-1.4.8-2.3 0-1-.2-1.8-.8-2.4-.5-.6-1.3-.9-2.2-.9-.9 0-1.6.3-2.2.9-.5.6-.8 1.4-.8 2.3Zm11-5h2.2v1c.5-.6.9-.9 1.2-1 .3-.2.8-.3 1.3-.3 1.1 0 2 .5 2.7 1.5.7-1 1.7-1.5 3-1.5 2.3 0 3.4 1.4 3.4 4.1v6.3h-2.4v-5.6c0-1 0-1.7-.3-2-.2-.5-.6-.7-1.2-.7s-1.1.2-1.4.7c-.3.5-.5 1.3-.5 2.4v5.2h-2.3v-5.6c0-1.8-.5-2.7-1.6-2.7-.6 0-1.1.3-1.4.7-.3.5-.5 1.3-.5 2.4v5.2h-2.3v-10.1ZM83.7 481v7.9h-2.3v-8h-1V479h1v-3.7H84v3.7h1.8v2.2H84Zm4-9.7H90v8.3a4 4 0 0 1 2.7-1.1c1.2 0 2 .4 2.8 1.1.6.7.9 1.7.9 3.1v6.2H94v-6c0-.8-.1-1.4-.4-1.7-.3-.4-.8-.6-1.4-.6-.8 0-1.4.3-1.7.8-.4.5-.5 1.4-.5 2.6v4.9h-2.4v-17.6Zm20.8 13h-7.2c0 1 .3 1.6.8 2 .5.6 1 .8 1.8.8.6 0 1.1-.1 1.5-.4a6 6 0 0 0 1.3-1.6l2 1.2a8 8 0 0 1-1 1.3l-1.1 1-1.3.4-1.4.2c-1.6 0-2.8-.5-3.7-1.5-.9-1-1.4-2.2-1.4-3.9 0-1.6.5-2.8 1.4-3.8.9-1 2-1.5 3.5-1.5s2.7.5 3.6 1.4c.8 1 1.3 2.3 1.3 4v.5Zm-2.4-1.8c-.3-1.3-1-1.9-2.3-1.9a2.3 2.3 0 0 0-2 1.1l-.4.8h4.7Zm19-3.7h2.4V489h-2.3v-1a4.5 4.5 0 0 1-6.6-.2c-1-1-1.4-2.3-1.4-3.9 0-1.5.5-2.8 1.4-3.8a4.4 4.4 0 0 1 6.6 0v-1.2Zm-5.5 5c0 1 .3 1.8.8 2.4.5.6 1.2.9 2 .9.9 0 1.6-.3 2.1-.9.5-.6.8-1.4.8-2.3 0-1-.3-1.8-.8-2.4-.5-.6-1.2-.9-2-.9-.9 0-1.6.3-2.1 1-.5.5-.8 1.3-.8 2.2Zm13.3-2.8v7.9h-2.4v-8h-1V479h1v-3.7h2.4v3.7h1.8v2.2H133Zm3.4-2.2h2.3v1c.5-.6.9-.9 1.2-1 .3-.2.7-.3 1.3-.3 1.1 0 2 .5 2.7 1.5.7-1 1.7-1.5 3-1.5 2.2 0 3.4 1.4 3.4 4.1v6.3h-2.4v-5.6c0-1 0-1.7-.3-2-.3-.5-.7-.7-1.2-.7-.7 0-1.1.2-1.4.7-.3.5-.5 1.3-.5 2.4v5.2h-2.3v-5.6c0-1.8-.5-2.7-1.6-2.7-.6 0-1.1.3-1.4.7-.3.5-.5 1.3-.5 2.4v5.2h-2.3v-10.1Zm16.3 5a5 5 0 0 1 1.6-3.8c1-1 2.3-1.5 3.8-1.5a5.3 5.3 0 0 1 5.5 5.3c0 1.6-.6 2.8-1.6 3.9-1 1-2.4 1.5-3.9 1.5s-2.8-.5-3.8-1.6c-1-1-1.6-2.3-1.6-3.8Zm2.4 0c0 1 .3 1.8.9 2.4.5.6 1.2.9 2.1.9 1 0 1.7-.3 2.2-.9.6-.6.9-1.4.9-2.3 0-1-.3-1.8-.9-2.4-.5-.6-1.2-.9-2.2-.9-.8 0-1.6.3-2.1.9-.6.6-.9 1.4-.9 2.3Zm16.8-3.3-2 1c-.2-.6-.6-1-1-1-.3 0-.4.2-.6.3l-.2.6c0 .3.4.7 1.3 1.1 1.3.5 2.1 1 2.5 1.5.5.4.7 1 .7 1.8 0 1-.4 1.8-1.1 2.5-.7.6-1.5.9-2.5.9-1.7 0-3-.8-3.6-2.5l2-1c.2.6.4.9.6 1 .3.3.6.4 1 .4.8 0 1.2-.4 1.2-1 0-.5-.3-.9-1-1.2a32.8 32.8 0 0 0-1.4-.7l-1.4-1c-.3-.4-.5-1-.5-1.7 0-.8.3-1.6.9-2.1.6-.6 1.4-.9 2.2-.9 1.3 0 2.3.7 3 2Zm5.1 14h-2.3v-15.7h2.3v1c1-.8 2-1.3 3.2-1.3 1.4 0 2.5.5 3.4 1.5 1 1 1.4 2.3 1.4 3.9 0 1.5-.5 2.8-1.4 3.8-.9 1-2 1.5-3.4 1.5-1.2 0-2.2-.5-3.2-1.4v6.6Zm5.6-10.6c0-1-.3-1.8-.8-2.4-.5-.6-1.2-.9-2-.9-.9 0-1.6.3-2.1.9-.5.6-.8 1.4-.8 2.3 0 1 .3 1.8.8 2.4.5.6 1.2.9 2 .9.9 0 1.6-.3 2-1 .6-.5.9-1.3.9-2.2Zm4.9-12.6h2.3v8.3a4 4 0 0 1 2.8-1.1c1.1 0 2 .4 2.7 1.1.6.7.9 1.7.9 3.1v6.2h-2.4v-6c0-.8-.1-1.4-.4-1.7-.3-.4-.7-.6-1.4-.6-.8 0-1.4.3-1.7.8-.3.5-.5 1.4-.5 2.6v4.9h-2.3v-17.6Zm20.9 13H201c0 1 .3 1.6.8 2 .5.6 1.1.8 1.9.8.5 0 1-.1 1.4-.4a6 6 0 0 0 1.3-1.6l2 1.2a8 8 0 0 1-1 1.3l-1 1-1.4.4-1.4.2c-1.5 0-2.7-.5-3.7-1.5-.9-1-1.3-2.2-1.3-3.9 0-1.6.4-2.8 1.3-3.8s2-1.5 3.6-1.5c1.4 0 2.6.5 3.5 1.4.9 1 1.3 2.3 1.3 4v.5Zm-2.4-1.8c-.4-1.3-1.1-1.9-2.4-1.9a2.3 2.3 0 0 0-2 1.1c-.1.2-.3.5-.3.8h4.7Zm5-3.7h2.3v.9c.4-.5.8-.8 1.1-1l1.2-.2c.6 0 1.3.2 2 .6l-1.1 2.1c-.5-.3-.9-.4-1.3-.4-1.3 0-2 1-2 2.9v5.2H211v-10.1Zm17 5.6h-7.3c0 .8.4 1.5.8 2 .5.5 1.1.7 1.9.7.6 0 1-.1 1.4-.4a6 6 0 0 0 1.3-1.6l2 1.2a8 8 0 0 1-1 1.3l-1 1-1.3.4-1.5.2c-1.5 0-2.7-.5-3.6-1.5-1-1-1.4-2.2-1.4-3.9 0-1.6.4-2.8 1.3-3.8 1-1 2-1.5 3.6-1.5 1.5 0 2.6.5 3.5 1.4.9 1 1.3 2.3 1.3 4v.5Zm-2.4-2c-.3-1.2-1.1-1.8-2.4-1.8a2.3 2.3 0 0 0-2 1.1l-.3.8h4.7Zm5.3 5.3c0-.3.2-.7.4-1 .3-.3.7-.4 1-.4.5 0 .8.1 1 .4.4.3.5.7.5 1 0 .5-.1.8-.4 1-.3.4-.6.5-1 .5s-.8-.1-1-.4c-.3-.3-.5-.6-.5-1Z"/><path fill="#D9E0E2" d="m574.4 633.2-5.1-1.4-2.2-1.5c-1.2-.8-4.2-3.3-6.6-5.5l-4.5-4.3-3.7-5c-3.3-4.4-7.4-10.4-8.8-12.7l-.4-.9 1.2 1.1c.7.7 3.6 4.4 6.4 8.4l5.2 7.2 5.2 5 5.2 5 2.3 1.2 2.3 1.2 4.8 1.2 4.8 1.3 9.6-.3 9.6-.3 3.2-1 3.2-1 5.5-3.2 10.2-6.1 4.8-3 3.5-3 3.5-3.1 1.5-2.6 1.5-2.5-.4-5.6c-.2-3-.5-5.7-.6-5.9l-1.2.8-.9 1h-2.2l-1.2-2c-.6-1-1.7-3.4-2.4-5.4-.6-2-1.7-4.4-2.4-5.5L624 583l-1.3-.2-1.2-.1-2.4.6-2.4.6-2.6 2.7a71.2 71.2 0 0 0-5.3 6.2l-2.6 3.5-1.4.7-1.3.7-1.1-1-1.1-1.2-.4-2.5a74 74 0 0 0-2.1-7.7L597 580l-1.2-1.8-1.1-2h-5.4l-2.2 2.4-2.2 2.3-2.2 4.4c-1.1 2.5-3 6.9-4 9.7-1 2.9-2 5.7-2.3 6.2l-.4 1h-1.5l-1.4-.3-1.4-4-2.3-7c-1.2-4.2-4-11.6-5.1-13.2l-1-1.5-2.1.4-2.1.4-1.7 1.3-1.6 1.2-5 6.4-6 7.8-1.1 1.3 1-2.2.9-2.3 3.6-4.6c2-2.6 4.8-5.8 6.3-7.2l2.5-2.5 2.5-.5 2.4-.6 1.4.8 1.2 1 2.1 5.6c1.2 3 3 8.5 4.2 12.1l2.1 6.5h1.5l1.9-5.3c1-3 3-7.7 4.3-10.6l2.5-5.2 2-2.2 2-2.3 3.2-.2 3.3-.3 1.5 1.6 1.5 1.6 2 6.2a68.7 68.7 0 0 1 2.8 10l.9 2 .9-.3.8-.3 2.9-3.8c1.5-2.2 4.1-5.1 5.8-6.6l2.8-2.7 2.3-.6c1.2-.3 2.9-.6 3.6-.6h1.3l1.7 1.8c.9.9 1.8 2.3 2 3l2.1 5.7 1.7 4.5h2.3l.9-2.1.9-2-.7-4.8c-.3-2.5-.8-6-1.2-7.7l-.6-3-1.8.3-2.6.6-.8.2.3-.5c.2-.3 1.1-.6 2-.8l1.8-.4 1.4-3 1.5-3.1.9-4 1-4 .3-10 .3-9.9-2.2-2.8c-1.1-1.6-2.4-3-2.6-3-.4 0-2.1 1-4 2.3l-3.3 2.2-2 2.2-1.9 2.2-1.8 4-3.4 7.5-1.5 3.3h-.6c-.3 0-.8-.6-1.2-1.2l-.6-1.1-.5-6c-.9-9.6-2-12-10.5-24.8l-5.2-8-2.9-2.8c-1.5-1.6-3-2.8-3.4-2.8-.3 0-1.7 1-3 2.5l-2.5 2.4-1.4 3.4-1.3 3.4-2 10-2 10.1-.6 6.7-1 8.7-.5 2-.6.2-.6.2-.4-4.8c-.6-9.4-1.6-18.2-3-27.1l-1.4-9-1.4-4.2-1.5-4-2.7-4.6a77.9 77.9 0 0 0-4-6.1l-1.3-1.6-3.2 2.5-3.3 2.5-2.9 4.3-2.9 4.3v2.2l3 5.8c4.5 9 3.4 8.4-1.5-.8l-2.6-5.1-1.5 3.2-1.4 3.3.3 1.6c.2.8.8 2.9 1.5 4.6.5 1.6.9 3 .7 3-.4 0-2.9-5.7-3.3-7.8l-.4-1.7 1.7-3.7 1.8-3.7V513c0-1.9.3-7.6.8-12.8l1.2-14.7.2-5.3h-.5c-.3 0-1-.6-1.7-1.3l-1.1-1.2-.4-2.1-.3-2.1h-22.8l-1.2-.8-1.1-.7 7.3.4 7.4.4 5.2-.5 5.2-.4v-4l1-3.4.9-3.3 1.2-1 1.2-1-.5.7-.5.8.9-.3.8-.2.1-1 .2-.9-5.2 1.4c-2.9.8-7.6 2.3-10.6 3.4-7.9 2.8-11 3.8-12.3 3.8h-1.2l.8-.5c.9-.6 23.3-8 26.5-8.7l2.4-.6.4-8.2c.7-15 3.8-37 7-49.7l1.5-5.7 2.3-4.7 2.4-4.9 2-1.7c1-1 3-2.3 4.2-2.9l2.3-1.1h2.6c1.4 0 4.6.4 7.1.8l4.5.9 4 2 4.1 2 5 4c8 6.4 16.5 16.4 25.6 30l5.2 7.8 2.2 4.6 2.2 4.6 1.5 5.2 1.4 5.2 1 6.1.8 7.9v1.7l2.2-1.1 2.2-1.1 3.4.2 3.5.3 2.7 1.1a17 17 0 0 1 4 2.4l1 1.1 4.5.7c6.8 1 15.3 3.2 21.6 5.5l5.6 2.1 2.3 1.6 2.3 1.5.6 1.6.5 1.5-.5 1.6-.6 1.5-1.8 1c-1 .7-3.8 1.7-6.3 2.4l-4.6 1.2H653l-4.8-.7-4.8-.7-2.2.7-2.3.7v51.7l-.5 2-.3 1.9 2.4 4 2.3 3.8v5.9l-.8-3.3-.7-3.2-1.4-2.2-1.4-2.3-.4 9-.4 8.9-1.2 4.9-1.4 5.7c0 .5-.4 1.2-.8 1.7l-.8.8.4 1c.5 1.8 2 10.6 2 12.3v1.6l.9-.7.8-.6v.5c0 .4-.3 1.4-.6 2.2l-.5 1.5.7 6.5.7 6.6-.8 2.4-.7 2.4-3.8 3.7-3.8 3.7-4.1 2.8c-2.3 1.5-7.5 4.6-11.5 6.9l-7.3 4.1-3 1-3.2.8-10.1.3-10.2.2-5-1.3Zm42.8-81.8 3.4-7 1.9-2.2 1.8-2.1 3.7-2.4c2-1.2 3.9-2.3 4.2-2.3h.7l2.3 2.6 2.3 2.6.4-14.2.4-14-.4-13.6-.4-13.4-1.8-.4-1.8-.3-1-.9-.8-.8-9-2.3c-5-1.2-13.1-3.6-18-5.3l-9.2-2.9v-.6c0-.7-1-.9 9.3 2.4 9 2.9 23.6 7 25.2 7h.9v-2.9l1.7-5a65 65 0 0 1 3-6.9l1.2-2h-1.8l-2 2.4c-2.4 2.7-2.9 2.5-.8-.3l1.5-1.8-8 .4-7.9.3-4.6.9a62 62 0 0 0-6.3 1.6c-2.9 1-2.3.2.7-1l2.8-1.3 3.7-.6 3.7-.7 8.2-.3 8.3-.4 1-1.2 1.2-1.2-1-8-1.1-7.9-1.5-5.3-1.5-5.3-2-4a185.8 185.8 0 0 0-22.5-32.2l-4.4-5.2-4.7-3.8a93.9 93.9 0 0 0-7.8-5.8l-3.2-1.9-3.9-1-3.9-1.2-4.3-.3-4.4-.4-1.9 1c-1 .5-2.8 1.8-4 2.8l-2 1.8-1.7 3.5c-3.5 6.8-4.9 12.2-8 30.6l-1.8 10.4-.8 10.5c-.5 5.8-.9 12-.9 13.8v3.3h14.8l8.1 2.8 8.2 2.7 1 1c.5.6 1 1.4 1 1.7v.6l-4.6 1.9-4.4 1.8-3.8.8-8.8 1.4-5.1.7-2.2 3.2-2.2 3.3-1.8 1.2-1.8 1.1-.4 3.5a445.4 445.4 0 0 0-2 28l.3 1.4 1-1.9c1.3-2.5 7-8.5 9.4-10l1.9-1.1.9.3.9.4 2.8 4.4a117 117 0 0 1 4.5 7.5l1.5 3.1 1.4 5.3 1.3 5.2 1.2 10.1a589 589 0 0 1 1.7 14.7l.4 4.6.5-3.4c.2-2 1.3-8.4 2.4-14.5l2-10.9 1.1-3.8 1.2-3.8 1.6-2.4 1.6-2.3 2-1.5a8 8 0 0 1 2.5-1.5c.3 0 2 1.4 3.7 3l3.3 3 5.6 8.5c3.1 4.6 6.3 9.8 7.2 11.6l1.5 3.3.9 3.6.8 3.6v2.6c0 2.7.6 7 1 7 0 0 1.7-3.2 3.5-7.1Zm66.8-67.6 5.8-2 2.2-1.1.3-1c.2-.5.3-1.3.3-1.9v-1l-1.2-1.2c-2-1.8-5.4-3.3-13.2-5.8l-7.3-2.3-6.2-1.2c-3.4-.7-6.6-1.2-7-1.2h-.8l-.3 2.3-.3 2.3-1.8 3.7-1.7 3.6-2.5 2.6c-1.4 1.4-3 2.9-3.7 3.2l-1.2.6.4.4c.2.2 3.4.6 7 .9l6.5.4 10.5-.1 10.4-.2 3.8-1Z"/><path fill="#000" d="M115.8 186.8H79.1v4.5h16v34.5h4.6v-34.5h16.1v-4.5Zm46.7 0V204h-36.7v-17.2h-4.6v39h4.6v-17.2h36.7v17.2h4.6v-39h-4.6Zm18.1 39v-39H176v39h4.6Zm47.4-17.2c.5 0 1.1.2 1.5.6.4.4.6 1 .6 1.5v5.4l-.2 3.4c0 .6-.2 1-.6 1.5a2 2 0 0 1-1.4.6 311 311 0 0 1-32.3 0 2 2 0 0 1-1.5-.6c-.4-.4-.6-1-.7-1.5v-3.4h-4.7c0 1.2 0 2.4.2 3.6.1 3.6 3 6.4 6.4 6.5a399.6 399.6 0 0 0 32.8 0c3.5-.1 6.3-3 6.5-6.5v-9.2c0-3.5-2.9-6.3-6.4-6.5h-32.8c-.5 0-1-.2-1.5-.6a2 2 0 0 1-.6-1.5v-5.4l.2-3.4c0-.5.2-1 .6-1.5a2 2 0 0 1 1.5-.6 311 311 0 0 1 32.3 0c.5 0 1 .2 1.4.6.4.4.6 1 .7 1.5l.1 3.4h4.6l-.1-3.6c-.2-3.5-3-6.3-6.5-6.5a319.7 319.7 0 0 0-32.8 0c-3.4.2-6.3 3-6.5 6.5v9.2c.1 3.6 2.9 6.4 6.4 6.5H228Zm85.5-15.4c-.2-3.5-3-6.3-6.4-6.4h-39.6v39h4.6V211H307c3.5-.2 6.3-3 6.5-6.5v-11.3Zm-5.2 12.5c-.4.4-1 .6-1.5.7H272v-15h34.7c.5 0 1.1.2 1.5.6.4.4.6 1 .6 1.5v10.8c0 .5-.2 1-.6 1.4Zm45.4 20.1h5l-17.9-39h-10.2l-17.8 39h5l3.8-8.3h28.2l3.9 8.3Zm-30-13 10-21.5h4.2l9.8 21.5h-24Zm54.5-4 25-.1c.6 0 1 .3 1.5.6.4.4.6 1 .6 1.5v5.3l-.1 3.4c0 .5-.3 1-.7 1.5a2 2 0 0 1-1.5.6 330.7 330.7 0 0 1-33.3 0c-.5 0-1-.2-1.5-.6-.4-.4-.6-1-.6-1.5-.4-8.8-.4-17.6 0-26.4 0-.5.2-1 .6-1.4.4-.4 1-.6 1.5-.7a416.1 416.1 0 0 1 33.3 0c.6 0 1.1.3 1.5.7.4.4.6.9.7 1.4v3.4h4.7l-.1-3.6c-.2-3.5-3-6.3-6.5-6.5a341.2 341.2 0 0 0-33.8 0c-3.5.2-6.3 3-6.5 6.5-.5 9-.5 17.9 0 26.8.2 3.5 3 6.4 6.5 6.5a339.3 339.3 0 0 0 33.8 0c3.5-.1 6.3-3 6.5-6.5l.1-3.6v-5.5c-.1-3.5-3-6.3-6.5-6.5h-25.2v4.6Zm76.6-17.5v-4.5H418v39h36.8v-4.5h-32.2v-12.7h32.2V204h-32.2v-12.7h32.2ZM87.2 279.8v-39h-4.6v39h4.6Zm47.4-17.2c.5 0 1 .2 1.5.6.4.4.6 1 .6 1.5v5.4l-.2 3.4c0 .6-.2 1-.6 1.5a2 2 0 0 1-1.4.6 311 311 0 0 1-32.3 0 2 2 0 0 1-1.5-.6c-.4-.4-.6-1-.7-1.5v-3.4h-4.7l.1 3.6c.2 3.6 3 6.4 6.5 6.5a399.6 399.6 0 0 0 32.8 0c3.5-.1 6.3-3 6.5-6.5v-9.2c0-3.5-2.9-6.4-6.4-6.5H102c-.5 0-1-.2-1.5-.6a2 2 0 0 1-.6-1.5v-5.4l.2-3.4c0-.5.2-1 .6-1.5a2 2 0 0 1 1.5-.6 311 311 0 0 1 32.3 0c.5 0 1 .2 1.4.6.4.4.6 1 .7 1.5l.1 3.4h4.6l-.1-3.6c-.2-3.5-3-6.3-6.5-6.5a319.7 319.7 0 0 0-32.8 0c-3.4.2-6.3 3-6.5 6.5v9.2c.1 3.6 2.9 6.4 6.4 6.5h32.8Zm81.7 11c0 .4-.3 1-.7 1.4a2 2 0 0 1-1.4.6 330.7 330.7 0 0 1-33.4 0c-.5 0-1-.2-1.5-.6-.4-.4-.6-1-.6-1.5-.4-8.8-.4-17.6 0-26.4 0-.5.2-1 .6-1.4.4-.4 1-.6 1.5-.7a416.1 416.1 0 0 1 33.4 0c.5 0 1 .3 1.4.7.4.4.6.9.7 1.4v3.4h4.7l-.1-3.6c-.2-3.5-3-6.3-6.5-6.5a341.3 341.3 0 0 0-33.8 0c-3.5.2-6.3 3-6.5 6.5-.5 9-.5 17.9 0 26.8.2 3.5 3 6.4 6.5 6.5a339.3 339.3 0 0 0 33.8 0c3.5-.1 6.3-3 6.5-6.5l.1-3.6h-4.6l-.1 3.4Zm44 1.7h-27.6v-34.5h-4.6v39h32.2v-4.5Zm42-30v-4.5h-36.7v39h36.8v-4.5h-32.2v-12.7h32.2V258h-32.2v-12.7h32.2Zm44.8 34.5h5l-17.9-39H324l-17.8 39h5l3.8-8.3h28.2l3.9 8.3Zm-30-13 10-21.5h4.2l9.8 21.5h-24Zm81.6-26v34.5h-1.5l-31.8-34.5h-8v39h4.5v-34.5h1.3l32 34.5h8v-39h-4.5Zm50.3 4.5v-4.5h-36.8v39H449v-4.5h-32.2v-12.7H449V258h-32.2v-12.7H449Zm7.4-4.5v39h4.6V265h11.4l21.8 14.8h8.2L480.5 265H493c3.5-.2 6.4-3 6.5-6.5v-11.3c-.1-3.5-3-6.3-6.5-6.4h-36.6Zm36.4 4.5c.6.1 1 .3 1.5.7.4.4.6 1 .6 1.5v10.8c0 .5-.2 1-.6 1.4-.4.4-1 .6-1.5.7H461v-15h31.8Zm-377 49.5H79.1v4.5h16v34.5h4.6v-34.5h16.1v-4.5Zm46.7 0V312h-36.7v-17.2h-4.6v39h4.6v-17.2h36.7v17.2h4.6v-39h-4.6Zm50.8 39h5l-17.8-39h-10.2l-17.9 39h5l3.9-8.3h28.2l3.8 8.3Zm-29.9-13 9.9-21.5h4.2l9.8 21.5h-23.9Zm81.6-26v34.5h-1.6l-31.7-34.5h-8.1v39h4.6v-34.5h1.3l32 34.5h8v-39H265Zm46.4-.2-10.7 9.8h6.8l5.7-5.2v34.5h4.6v-39.1h-6.4Zm38.8 3.5c5.6 0 11.2.1 16.7.4.6 0 1 .2 1.5.6.4.4.6 1 .6 1.5.5 8.8.5 17.6 0 26.4 0 .5-.2 1-.6 1.4-.4.4-1 .6-1.5.7a413.2 413.2 0 0 1-33.4 0c-.5 0-1-.3-1.4-.7a2 2 0 0 1-.6-1.4c-.5-8.8-.5-17.6 0-26.4 0-.6.2-1 .6-1.5.4-.4 1-.6 1.4-.6 5.6-.3 11.2-.4 16.7-.4Zm-16.8-4.2c-3.6.1-6.4 3-6.5 6.5-.5 8.9-.5 17.8 0 26.8.1 3.5 3 6.3 6.5 6.5a422.1 422.1 0 0 0 33.7 0c3.6-.2 6.3-3 6.5-6.5.5-9 .5-17.9 0-26.8-.2-3.6-3-6.4-6.5-6.5a427 427 0 0 0-33.7 0Zm72.8 4.2c5.5 0 11.1.1 16.7.4.5 0 1 .2 1.4.6.4.4.6 1 .7 1.5.4 8.8.4 17.6 0 26.4 0 .5-.3 1-.7 1.4-.4.4-.9.6-1.4.7a413.3 413.3 0 0 1-33.4 0c-.5 0-1-.3-1.5-.7a2 2 0 0 1-.6-1.4c-.4-8.8-.4-17.6 0-26.4 0-.6.2-1 .6-1.5.4-.4 1-.6 1.5-.6 5.5-.3 11.2-.4 16.7-.4Zm-16.9-4.2c-3.5.1-6.3 3-6.5 6.5-.5 8.9-.5 17.8 0 26.8.2 3.5 3 6.3 6.5 6.5a422 422 0 0 0 33.8 0c3.5-.2 6.3-3 6.5-6.5.4-9 .4-17.9 0-26.8-.2-3.6-3-6.4-6.5-6.5a427 427 0 0 0-33.8 0Zm93 .9-18.9 16.5-3.4 3-22.4 19.5h7l18.8-16.5 3.6-3 22.3-19.5h-7ZM444 314.6h7c3.4-.2 6.2-3 6.4-6.5v-6.9c-.2-3.5-3-6.3-6.5-6.4h-6.8c-3.5.1-6.3 3-6.5 6.4v6.9c.1 3.5 3 6.3 6.4 6.5Zm-1.2-14.6c.4-.4 1-.6 1.5-.7h6.4c.6.1 1 .3 1.5.7.3.4.6 1 .6 1.5v6.4c0 .6-.3 1-.6 1.5a2 2 0 0 1-1.5.6h-6.4c-.5 0-1-.3-1.5-.6-.4-.4-.6-1-.6-1.5v-6.4c0-.6.2-1 .6-1.5Zm40 14H476c-3.5.2-6.3 3-6.5 6.5v6.9c.2 3.5 3 6.3 6.5 6.4h6.8c3.6 0 6.4-3 6.5-6.4v-6.9c-.1-3.5-3-6.3-6.5-6.4Zm1.3 14.6a2 2 0 0 1-1.5.7h-6.4c-.5 0-1-.3-1.5-.7-.4-.4-.6-1-.6-1.4v-6.4c0-.6.2-1.1.6-1.5.4-.4 1-.6 1.6-.7h6.3c.6 0 1 .3 1.5.7.4.4.6.9.6 1.5v6.4c0 .5-.2 1-.6 1.4Zm-378.1 24c5.5 0 11.1.2 16.7.4.5 0 1 .3 1.4.7.4.4.6.9.7 1.4.4 8.8.4 17.6 0 26.4 0 .5-.3 1-.7 1.5a2 2 0 0 1-1.4.6 330.7 330.7 0 0 1-33.4 0c-.5 0-1-.2-1.5-.6-.4-.4-.6-1-.6-1.5-.4-8.8-.4-17.6 0-26.4 0-.5.2-1 .6-1.4.4-.4 1-.6 1.5-.7 5.5-.2 11.2-.4 16.7-.4Zm-16.9-4.2c-3.5.2-6.3 3-6.5 6.5-.5 9-.5 17.9 0 26.8.2 3.5 3 6.4 6.5 6.5a339.3 339.3 0 0 0 33.8 0c3.5-.1 6.3-3 6.5-6.5.4-8.9.4-17.8 0-26.8-.2-3.5-3-6.3-6.5-6.5a341.2 341.2 0 0 0-33.8 0Zm53.5 39.4v-17.2h29.3V366h-29.3v-12.7h32.2v-4.5H138v39h4.6Zm96.1-39H202v4.5h16v34.5h4.7v-34.5h16.1v-4.5Zm46.7 0V366h-36.8v-17.2h-4.5v39h4.5v-17.2h36.8v17.2h4.6v-39h-4.6Zm50.3 4.5v-4.5H299v39h36.8v-4.5h-32.2v-12.7h32.2V366h-32.2v-12.7h32.2Zm102-4.5-15.9 34.5-15.8-34.5h-5.1l-15.8 34.5-15.8-34.5h-5l17.8 39h6l15.4-33.5 15.4 33.5h5.9l18-39h-5.2Zm47 4.5v-4.5H448v39h36.7v-4.5h-32.2v-12.7h32.2V366h-32.2v-12.7h32.2Zm49.9 11.2c.4-.9.6-1.8.7-2.7v-6.6c-.2-3.5-3-6.3-6.5-6.4h-36.6v39h39.5c3.5-.1 6.3-3 6.4-6.4V370a6.7 6.7 0 0 0-3.5-5.6Zm-6-11.2c.5.1 1 .3 1.4.7.4.4.6 1 .7 1.5v6c0 .6-.3 1.1-.7 1.5a2 2 0 0 1-1.4.6h-31.8v-10.3h31.8Zm5 27.9c0 .5-.3 1-.7 1.4-.4.4-1 .7-1.4.7h-34.7v-15h34.6c.6 0 1.1.2 1.5.6.4.4.6.9.6 1.4v10.9Z"/><path fill="#000" d="M115.8 294.8H79.1v4.5h16v34.5h4.6v-34.5h16.1v-4.5Zm46.7 0V312h-36.7v-17.2h-4.6v39h4.6v-17.2h36.7v17.2h4.6v-39h-4.6Zm50.8 39h5l-17.8-39h-10.2l-17.9 39h5l3.9-8.3h28.2l3.8 8.3Zm-29.9-13 9.9-21.5h4.2l9.8 21.5h-23.9Zm81.6-26v34.5h-1.6l-31.7-34.5h-8.1v39h4.6v-34.5h1.3l32 34.5h8v-39H265Zm46.4-.2-10.7 9.8h6.8l5.7-5.2v34.5h4.6v-39.1h-6.4Zm38.8 3.5c5.6 0 11.2.1 16.7.4.6 0 1 .2 1.5.6.4.4.6 1 .6 1.5.5 8.8.5 17.6 0 26.4 0 .5-.2 1-.6 1.4-.4.4-1 .6-1.5.7a413.2 413.2 0 0 1-33.4 0c-.5 0-1-.3-1.4-.7a2 2 0 0 1-.6-1.4c-.5-8.8-.5-17.6 0-26.4 0-.6.2-1 .6-1.5.4-.4 1-.6 1.4-.6 5.6-.3 11.2-.4 16.7-.4Zm-16.8-4.2c-3.6.1-6.4 3-6.5 6.5-.5 8.9-.5 17.8 0 26.8.1 3.5 3 6.3 6.5 6.5a422.1 422.1 0 0 0 33.7 0c3.6-.2 6.3-3 6.5-6.5.5-9 .5-17.9 0-26.8-.2-3.6-3-6.4-6.5-6.5a427 427 0 0 0-33.7 0Zm72.8 4.2c5.5 0 11.1.1 16.7.4.5 0 1 .2 1.4.6.4.4.6 1 .7 1.5.4 8.8.4 17.6 0 26.4 0 .5-.3 1-.7 1.4-.4.4-.9.6-1.4.7a413.3 413.3 0 0 1-33.4 0c-.5 0-1-.3-1.5-.7a2 2 0 0 1-.6-1.4c-.4-8.8-.4-17.6 0-26.4 0-.6.2-1 .6-1.5.4-.4 1-.6 1.5-.6 5.5-.3 11.2-.4 16.7-.4Zm-16.9-4.2c-3.5.1-6.3 3-6.5 6.5-.5 8.9-.5 17.8 0 26.8.2 3.5 3 6.3 6.5 6.5a422 422 0 0 0 33.8 0c3.5-.2 6.3-3 6.5-6.5.4-9 .4-17.9 0-26.8-.2-3.6-3-6.4-6.5-6.5a427 427 0 0 0-33.8 0Zm93 .9-18.9 16.5-3.4 3-22.4 19.5h7l18.8-16.5 3.6-3 22.3-19.5h-7ZM444 314.6h7c3.4-.2 6.2-3 6.4-6.5v-6.9c-.2-3.5-3-6.3-6.5-6.4h-6.8c-3.5.1-6.3 3-6.5 6.4v6.9c.1 3.5 3 6.3 6.4 6.5Zm-1.2-14.6c.4-.4 1-.6 1.5-.7h6.4c.6.1 1 .3 1.5.7.3.4.6 1 .6 1.5v6.4c0 .6-.3 1-.6 1.5a2 2 0 0 1-1.5.6h-6.4c-.5 0-1-.3-1.5-.6-.4-.4-.6-1-.6-1.5v-6.4c0-.6.2-1 .6-1.5Zm40 14H476c-3.5.2-6.3 3-6.5 6.5v6.9c.2 3.5 3 6.3 6.5 6.4h6.8c3.6 0 6.4-3 6.5-6.4v-6.9c-.1-3.5-3-6.3-6.5-6.4Zm1.3 14.6a2 2 0 0 1-1.5.7h-6.4c-.5 0-1-.3-1.5-.7-.4-.4-.6-1-.6-1.4v-6.4c0-.6.2-1.1.6-1.5.4-.4 1-.6 1.6-.7h6.3c.6 0 1 .3 1.5.7.4.4.6.9.6 1.5v6.4c0 .5-.2 1-.6 1.4Z"/><path fill="#000" d="M115.8 294.8h1v-1h-1v1Zm-36.7 0v-1h-1v1h1Zm0 4.5h-1v1h1v-1Zm16 0h.9v-.8h-1v.8Zm0 34.5h-.9v1h.9v-1Zm4.6 0v1h1v-1h-1Zm0-34.5v-.8h-.9v.8h1Zm16.1 0v1h1v-1h-1Zm0-5.4H79.1v1.8h36.7v-1.8Zm-37.6.9v4.5h1.7v-4.5h-1.7Zm.9 5.4h16v-1.7H79v1.7Zm15.1-.9v34.5H96v-34.5h-1.8Zm.9 35.4h4.6V333h-4.6v1.7Zm5.5-.9v-34.5h-1.8v34.5h1.8Zm-.9-33.6h16.1v-1.7h-16v1.7Zm17-.9v-4.5H115v4.5h1.8Zm45.8-4.5v-1h-.8v1h.8Zm0 17.2v1h1v-1h-1Zm-36.7 0h-1v1h1v-1Zm0-17.2h.8v-1h-.8v1Zm-4.6 0v-1h-1v1h1Zm0 39h-1v1h1v-1Zm4.6 0v1h.8v-1h-.8Zm0-17.2v-.9h-1v1h1Zm36.7 0h1v-.9h-1v1Zm0 17.2h-.8v1h.8v-1Zm4.6 0v1h1v-1h-1Zm0-39h1v-1h-1v1Zm-5.4 0V312h1.7v-17.2h-1.7Zm.8 16.4h-36.7v1.7h36.7v-1.7Zm-35.9.8v-17.2H125V312h1.7Zm-.8-18.1h-4.6v1.8h4.6v-1.8Zm-5.5.9v39h1.8v-39h-1.8Zm.9 40h4.6V333h-4.6v1.7Zm5.4-1v-17.2H125v17.2h1.7Zm-.8-16.3h36.7v-1.8h-36.7v1.8Zm35.9-.9v17.2h1.7v-17.2h-1.7Zm.8 18.1h4.6V333h-4.6v1.7Zm5.5-.9v-39h-1.8v39h1.8Zm-.9-40h-4.6v1.9h4.6v-1.8Zm46.2 40-.8.4.3.5h.5v-.9Zm5 0v1h1.4l-.5-1.3-.8.3Zm-17.8-39 .8-.4-.3-.5h-.5v.9Zm-10.2 0v-1h-.6l-.2.6.8.4Zm-17.9 39-.8-.3-.6 1.2h1.4v-.9Zm5 0v1h.6l.2-.6-.8-.4Zm3.9-8.3v-1h-.6l-.2.6.8.4Zm28.2 0 .8-.4-.3-.5h-.5v.9Zm-26-4.7-.9-.4-.6 1.3h1.4v-.9Zm9.8-21.5v-.8h-.6l-.3.5.9.3Zm4.2 0 .8-.3-.2-.5h-.6v.8Zm9.8 21.5v.9h1.4l-.6-1.3-.8.4Zm6 14h5V333h-5v1.7Zm5.9-1.3-18-39.1-1.5.7 17.8 39.1 1.7-.7Zm-18.7-39.6h-10.2v1.8h10.2v-1.8Zm-11 .5-17.9 39 1.6.8 17.9-39-1.6-.8Zm-17.1 40.3h5V333h-5v1.7Zm5.8-.5 3.9-8.4-1.6-.7-3.9 8.4 1.6.7Zm3-7.9h28.3v-1.7h-28.2v1.7Zm27.5-.5 3.8 8.4 1.6-.7-3.8-8.4-1.6.7Zm-24.5-4.6 9.9-21.5-1.7-.7-9.8 21.4 1.6.8Zm9-21h4.3v-1.7h-4.2v1.7Zm3.5-.5 9.8 21.5 1.6-.8-9.8-21.4-1.6.7Zm10.6 20.2h-23.9v1.8h24v-1.8Zm57.7-25.1v-1h-1v1h1Zm0 34.5v.8h.8v-.8h-.8Zm-1.6 0-.6.6.3.2h.3v-.8Zm-31.7-34.5.6-.6-.2-.3h-.4v.9Zm-8.1 0v-1h-.9v1h.9Zm0 39h-.9v1h.9v-1Zm4.6 0v1h.9v-1h-1Zm0-34.5v-.8h-1v.8h1Zm1.3 0 .6-.6-.3-.2h-.3v.8Zm32 34.5-.7.6.2.3h.4v-.9Zm8 0v1h1v-1h-1Zm0-39h1v-1h-1v1Zm-5.4 0v34.5h1.7v-34.5h-1.7Zm.9 33.6h-1.6v1.7h1.6v-1.7Zm-.9.3-31.8-34.5-1.3 1.2 31.8 34.5 1.3-1.2Zm-32.4-34.8h-8.1v1.8h8v-1.8Zm-9 .9v39h1.8v-39h-1.8Zm.9 40h4.6V333h-4.6v1.7Zm5.5-1v-34.5h-1.8v34.5h1.8Zm-1-33.6h1.4v-1.7h-1.3v1.7Zm.7-.2 32 34.4 1.3-1.2-32-34.5-1.3 1.3Zm32.6 34.7h8.1V333h-8v1.7Zm9-.9v-39h-1.7v39h1.7Zm-.9-40H265v1.9h4.5v-1.8Zm41.9.8v-.9h-.3l-.3.2.6.7Zm-10.7 9.8-.6-.7-1.7 1.6h2.3v-1Zm6.8 0v.9h.4l.2-.3-.6-.6Zm5.7-5.2h.9v-2l-1.5 1.3.6.7Zm0 34.5h-.9v.9h.9v-1Zm4.6 0v.9h.9v-1h-1Zm0-39.1h.9v-.9h-1v.9Zm-7-.7-10.7 9.8 1.2 1.3 10.7-9.7-1.2-1.4Zm-10 11.4h6.7v-1.8h-6.8v1.8Zm7.3-.3 5.7-5.2-1.2-1.3-5.7 5.2 1.2 1.3Zm4.2-5.8v34.5h1.8v-34.5h-1.8Zm.9 35.4h4.6v-1.8h-4.6v1.8Zm5.5-1v-39h-1.8v39h1.8Zm-1-39.9h-6.3v1.8h6.4v-1.8Zm49.2 4.8v.9-.9Zm1.5.6.6-.6-.6.6Zm.6 1.5h1v-.1h-1Zm0 26.4h1-1Zm-.6 1.4.6.6-.6-.6Zm-1.5.7v.9h.1v-1Zm-33.4 0v.9-1Zm-2-2.1h.9-1Zm0-26.4h.9-1Zm.6-1.5-.6-.6.6.6Zm1.4-.6v.9-.9Zm-.1-4.6v-1 1Zm-6.5 6.5h.9-1Zm0 26.8h.9-1Zm6.5 6.5v.9-1Zm33.7 0v.9-1Zm6.5-6.5h-.9 1Zm0-26.8h-.9 1Zm-6.5-6.5v-1 1Zm-16.9 5.1c5.6 0 11.1.1 16.7.4v-1.8c-5.5-.3-11.1-.4-16.7-.4v1.8Zm16.7.4c.3 0 .6.1.8.4l1.3-1.3a3 3 0 0 0-2-.9v1.8Zm.8.4c.3.2.4.5.4.9l1.8-.2c0-.8-.4-1.5-1-2l-1.2 1.3Zm.4.8c.5 8.8.5 17.6 0 26.3l1.8.1c.5-8.8.5-17.7 0-26.5l-1.8.1Zm0 26.3c0 .3-.1.7-.4.9l1.3 1.2c.5-.5.8-1.2 1-2l-1.9-.1Zm-.4.9c-.2.2-.5.4-.9.4l.2 1.8c.7-.1 1.4-.4 2-1l-1.3-1.2Zm-.8.4c-5.6.2-11.1.3-16.7.3v1.8c5.6 0 11.2-.1 16.7-.3v-1.8Zm-16.7.3a416 416 0 0 1-16.6-.3l-.1 1.8c5.5.2 11.2.3 16.7.3v-1.8Zm-16.6-.3c-.3 0-.7-.2-.9-.4l-1.2 1.2c.5.6 1.3.9 2 1l.1-1.8Zm-.9-.4c-.2-.2-.3-.5-.3-.8h-1.8c0 .8.3 1.5.9 2l1.2-1.2Zm-.3-.9c-.5-8.7-.5-17.5 0-26.3h-1.8c-.5 8.7-.5 17.6 0 26.4h1.8Zm0-26.3c0-.3 0-.6.3-.8l-1.2-1.3a3 3 0 0 0-1 2h1.9Zm.3-.8c.2-.3.6-.4.8-.4v-1.8a3 3 0 0 0-2 .9l1.2 1.3Zm.9-.4c5.5-.3 11.1-.4 16.6-.4v-1.8c-5.5 0-11.2.1-16.7.4v1.8Zm-.3-6.4c-4 .2-7.1 3.3-7.3 7.3l1.8.1a6 6 0 0 1 5.6-5.6V293Zm-7.3 7.3c-.5 9-.5 18 0 27l1.8-.2c-.5-8.9-.5-17.8 0-26.7l-1.8-.1Zm0 27c.2 4 3.3 7 7.3 7.3l.1-1.8a6 6 0 0 1-5.6-5.7l-1.8.1Zm7.3 7.3c5.6.2 11.3.4 17 .4v-1.8c-5.7 0-11.3-.2-16.9-.4v1.8Zm17 .4c5.6 0 11.2-.2 16.9-.4l-.1-1.8c-5.6.2-11.3.4-16.9.4v1.8Zm16.9-.4c4-.2 7.1-3.4 7.3-7.4h-1.8a6 6 0 0 1-5.6 5.6v1.8Zm7.3-7.4c.4-9 .4-18 0-26.9l-1.8.1c.5 9 .5 17.8 0 26.7l1.8.1Zm0-26.9c-.2-4-3.3-7.1-7.3-7.3l-.1 1.8a6 6 0 0 1 5.6 5.6h1.8Zm-7.3-7.3c-5.7-.2-11.3-.4-17-.4v1.8c5.6 0 11.3.1 16.9.4V293Zm-17-.4c-5.6 0-11.3.2-16.9.4l.1 1.8c5.6-.3 11.2-.4 16.8-.4v-1.8Zm72.7 6v.8-.9Zm1.4.5.6-.6-.6.6Zm.7 1.5h.9v-.1h-1Zm0 26.4h.9-1Zm-.7 1.4.6.6-.6-.6Zm-1.4.7v.9-1Zm-33.4 0-.1.9v-1Zm-2-2.1h.8-.9Zm0-26.4h.8-.9Zm.5-1.5-.6-.6.6.6Zm1.5-.6v.9-.9Zm-.2-4.6v-1 1Zm-6.5 6.5h1-1Zm0 26.8h1-1Zm6.5 6.5v.9-1Zm33.8 0v.9-1Zm6.5-6.5h-1 1Zm0-26.8h-1 1Zm-6.5-6.5v-1 1Zm-16.9 5.1c5.5 0 11.1.1 16.6.4l.1-1.8c-5.5-.3-11.1-.4-16.7-.4v1.8Zm16.7.4c.3 0 .6.1.8.4l1.2-1.3a3 3 0 0 0-2-.9v1.8Zm.8.4c.2.2.4.5.4.9l1.8-.2c-.1-.8-.4-1.5-1-2l-1.2 1.3Zm.4.8c.4 8.8.4 17.6 0 26.3l1.8.1c.4-8.8.4-17.7 0-26.5l-1.8.1Zm0 26.3c0 .3-.2.7-.4.9l1.2 1.2c.6-.5.9-1.2 1-2l-1.8-.1Zm-.4.9c-.2.2-.6.4-1 .4l.3 1.8c.7-.1 1.4-.4 2-1l-1.3-1.2Zm-.9.4c-5.5.2-11 .3-16.6.3v1.8c5.6 0 11.2-.1 16.7-.3v-1.8Zm-16.6.3c-5.5 0-11.2 0-16.7-.3v1.8c5.5.2 11.2.3 16.7.3v-1.8Zm-16.6-.3c-.4 0-.7-.2-1-.4l-1.2 1.2c.6.6 1.3.9 2 1l.2-1.8Zm-1-.4c-.2-.2-.3-.5-.3-.8h-1.8c0 .8.4 1.5 1 2l1.2-1.2Zm-.3-.9c-.4-8.7-.4-17.5 0-26.3h-1.8c-.4 8.7-.4 17.6 0 26.4h1.8Zm0-26.3c0-.3.1-.6.4-.8l-1.3-1.3a3 3 0 0 0-.9 2h1.8Zm.4-.8c.2-.3.5-.4.8-.4v-1.8a3 3 0 0 0-2 .9l1.2 1.3Zm.8-.4c5.6-.3 11.2-.4 16.7-.4v-1.8c-5.5 0-11.2.1-16.8.4l.1 1.8Zm-.2-6.4c-4 .2-7.2 3.3-7.3 7.3l1.7.1a6 6 0 0 1 5.7-5.6l-.1-1.8Zm-7.3 7.3c-.6 9-.6 18 0 27l1.7-.2c-.5-8.9-.5-17.8 0-26.7l-1.7-.1Zm0 27c.1 4 3.3 7 7.3 7.3v-1.8a6 6 0 0 1-5.6-5.7l-1.7.1Zm7.3 7.3c5.6.2 11.2.4 16.9.4v-1.8c-5.6 0-11.3-.2-16.8-.4l-.1 1.8Zm16.9.4c5.6 0 11.3-.2 17-.4l-.1-1.8c-5.7.2-11.3.4-16.9.4v1.8Zm17-.4c4-.2 7-3.4 7.3-7.4h-1.8a6 6 0 0 1-5.7 5.6l.1 1.8Zm7.3-7.4c.4-9 .4-18 0-26.9l-1.8.1c.4 9 .4 17.8 0 26.7l1.8.1Zm0-26.9c-.2-4-3.4-7.1-7.4-7.3v1.8a6 6 0 0 1 5.6 5.6h1.8ZM423 293c-5.6-.2-11.3-.4-16.9-.4v1.8c5.6 0 11.2.1 16.9.4V293Zm-16.9-.4c-5.7 0-11.3.2-17 .4l.2 1.8c5.5-.3 11.2-.4 16.8-.4v-1.8Zm76.1 2.2v-1h-.3l-.2.3.5.7Zm-18.9 16.5-.5-.7.5.7Zm-3.4 3 .6.7-.6-.7Zm-22.4 19.5-.6-.6-1.7 1.5h2.3v-.9Zm7 0v1h.3l.3-.3-.6-.7Zm18.8-16.5-.5-.6.5.6Zm3.6-3 .5.7-.5-.7Zm22.3-19.5.6.6 1.8-1.5h-2.4v.9ZM444 314.6v.9-.9Zm7 0v.9-.9Zm6.4-6.5h.9-.9Zm0-6.9h.9-.9Zm-6.5-6.4v-1 1Zm-6.8 0v-1 1Zm-6.5 6.4h-.9 1Zm0 6.9h-.9 1Zm5.2-8 .6.5-.6-.6Zm1.5-.8v-.8h-.1v.8Zm6.4 0v-.8.8Zm1.5.7-.7.6.7-.6Zm.6 1.5h1v-.1h-1Zm0 6.4h1-1Zm-10 1.5.6-.7-.6.7Zm40 4.7v-1 1Zm-6.8 0v-1 1Zm-6.5 6.4h-.8.8Zm0 6.9h-.8.8Zm6.5 6.4v1-1Zm6.8 0v1-1Zm6.5-6.4h1-1Zm0-6.9h1-1Zm-5.2 8.1-.7-.6.7.6Zm-9.4 0-.6.7.6-.7Zm0-9.3-.6-.6.6.6Zm1.6-.7v-.9h-.1v1Zm6.3 0 .1-.8v.8Zm1.5.7-.7.6.7-.6Zm.6 1.5h1v-.1h-1Zm-3-26.7L463 310.6l1.1 1.3 19-16.5-1.2-1.3ZM463 310.6l-3.5 3 1.2 1.4 3.4-3-1.1-1.4Zm-3.5 3L437 333.3l1.2 1.3 22.4-19.5-1.2-1.3Zm-21.8 21.1h7V333h-7v1.7Zm7.6-.2L464 318l-1.1-1.3-18.9 16.5 1.2 1.3ZM464 318l3.5-3-1.1-1.3-3.5 3 1.1 1.3Zm3.6-3 22.3-19.6-1.2-1.3-22.3 19.6 1.2 1.3Zm21.7-21.1h-7v1.8h7v-1.8ZM444 315.5h7v-1.8h-7v1.8Zm7 0c4-.2 7.1-3.4 7.3-7.3l-1.8-.1a6 6 0 0 1-5.6 5.6v1.8Zm7.3-7.4v-6.9h-1.8v7h1.8Zm0-6.9c-.2-4-3.4-7.1-7.3-7.3l-.1 1.8a6 6 0 0 1 5.6 5.6h1.8Zm-7.4-7.3h-6.8v1.8h6.8v-1.8Zm-6.8 0c-4 .2-7.2 3.3-7.4 7.3h1.8a6 6 0 0 1 5.6-5.6V294Zm-7.4 7.3v6.9h1.8v-6.9h-1.8Zm0 6.9c.2 4 3.4 7.1 7.3 7.4l.1-1.8a6 6 0 0 1-5.6-5.7l-1.8.1Zm6.7-7.5 1-.4-.2-1.7c-.7 0-1.4.3-2 .9l1.2 1.2Zm.9-.4h6.4v-1.7h-6.4v1.7Zm6.3 0c.4 0 .7.2 1 .4l1.2-1.2c-.6-.6-1.3-.9-2-1l-.2 1.8Zm1 .4c.2.3.3.6.3 1l1.8-.2c0-.8-.4-1.5-1-2l-1.2 1.2Zm.3.9v6.4h1.8v-6.4H452Zm0 6.3c0 .4-.1.7-.4 1l1.3 1.2c.5-.6.8-1.3 1-2l-1.9-.2Zm-.4 1c-.2.2-.5.3-.8.3v1.8a3 3 0 0 0 2-1l-1.2-1.2Zm-.8.3h-6.4v1.8h6.4V309Zm-6.4 0c-.3 0-.6-.1-.9-.4l-1.2 1.3a3 3 0 0 0 2 .9V309Zm-.9-.4c-.2-.2-.3-.5-.3-.8h-1.8c0 .7.3 1.5.9 2l1.2-1.2Zm-.3-.8v-6.4h-1.8v6.4h1.8Zm0-6.4.3-.9-1.2-1.2a3 3 0 0 0-.9 2h1.8Zm39.7 11.7H476v1.7h6.8v-1.7Zm-6.8 0c-4 .2-7.2 3.3-7.3 7.3h1.7a6 6 0 0 1 5.7-5.6l-.1-1.7Zm-7.3 7.3v6.9h1.7v-6.9h-1.7Zm0 6.9c.1 4 3.3 7.1 7.2 7.3l.1-1.7c-3-.2-5.4-2.6-5.6-5.7l-1.7.1Zm7.3 7.3h6.8V333H476v1.7Zm6.9 0c4-.1 7.1-3.3 7.3-7.2l-1.8-.1c-.1 3-2.5 5.5-5.6 5.6v1.7Zm7.3-7.3v-6.9h-1.8v7h1.8Zm0-7c-.2-3.9-3.3-7-7.3-7.2l-.1 1.7a6 6 0 0 1 5.6 5.7l1.8-.1Zm-6.8 7.6c-.2.3-.5.4-.8.4v1.7a3 3 0 0 0 2.1-.8l-1.3-1.3Zm-.8.4h-6.4v1.7h6.4v-1.7Zm-6.4 0c-.3 0-.6-.2-.8-.4l-1.3 1.3a3 3 0 0 0 2 .8v-1.7Zm-.8-.4c-.3-.2-.4-.5-.4-.8h-1.8c0 .7.4 1.5 1 2l1.2-1.2Zm-.4-.8v-6.4h-1.8v6.4h1.8Zm0-6.4c0-.3.1-.6.4-.9l-1.3-1.2a3 3 0 0 0-.9 2h1.8Zm.4-.9c.2-.2.5-.3 1-.4l-.2-1.7c-.8 0-1.5.3-2 .9l1.2 1.2Zm.9-.4h6.3v-1.8h-6.4v1.8Zm6.2 0c.4 0 .7.2 1 .4l1.2-1.2c-.5-.6-1.2-.9-2-1l-.2 1.8Zm1 .4.4 1 1.7-.2c0-.8-.3-1.5-.9-2l-1.3 1.2Zm.4.9v6.4h1.7v-6.4H484Zm0 6.4c0 .2-.2.5-.5.8l1.3 1.3a3 3 0 0 0 1-2.1h-1.8ZM216.2 273.7c0 .5-.3 1-.7 1.4a2 2 0 0 1-1.4.6 332 332 0 0 1-33.4 0c-.5 0-1-.2-1.5-.6-.4-.4-.6-1-.6-1.4-.4-8.8-.4-17.7 0-26.4 0-.6.2-1.1.6-1.5.4-.4 1-.6 1.5-.7a416.1 416.1 0 0 1 33.4 0c.5.1 1 .3 1.4.7.4.4.6 1 .7 1.5v3.4h4.7l-.1-3.7c-.2-3.5-3-6.3-6.5-6.4a341.2 341.2 0 0 0-33.8 0c-3.5.1-6.3 3-6.5 6.4-.5 9-.5 18 0 26.9.2 3.4 3 6.3 6.5 6.4a339.3 339.3 0 0 0 33.8 0c3.5-.1 6.3-3 6.5-6.4l.1-3.7h-4.6l-.1 3.5Zm44 1.7h-27.6v-34.5H228v39h32.2v-4.5Zm42-30V241h-36.7v39h36.8v-4.5H270v-12.6h32.2v-4.6H270v-12.7h32.2ZM347 280h5l-17.9-39.1H324l-17.8 39h5l3.8-8.3h28.2l3.9 8.4Zm-30-13 10-21.5h4.2l9.8 21.4h-24Zm81.6-26.1v34.5h-1.5l-31.8-34.5h-8v39h4.5v-34.4h1.3l32 34.5h8v-39.1h-4.5Zm50.3 4.6v-4.6H412v39h36.8v-4.5h-32.2v-12.6h32.2v-4.6h-32.2v-12.7h32.2Zm7.4-4.6v39h4.6v-14.8h11.4L494 280h8.2L480.4 265H493c3.5-.2 6.4-3 6.5-6.5v-11.2c-.1-3.5-3-6.3-6.5-6.5h-36.6Zm36.4 4.6c.6 0 1 .3 1.5.6.4.4.6 1 .6 1.5v10.8c0 .5-.2 1-.6 1.4-.4.4-1 .7-1.5.7H461v-15h31.8Z"/><path fill="#000" d="M216.2 273.7h.9-1Zm-2.1 2v-.9 1Zm-33.4 0v-.9 1Zm-2-2h.8-.9Zm0-26.4h.8-.9Zm.5-1.5.7.6-.7-.6Zm1.5-.7v-.8h-.1v.8Zm33.4 0v-.8.8Zm1.4.7-.6.6.6-.6Zm.7 1.5h.9v-.1h-1Zm0 3.4h-.8v.9h.9v-1Zm4.7 0v.9h1v-1h-1Zm-.1-3.7h-1 1Zm-6.5-6.4v.8-.8Zm-33.8 0v.8-.8ZM174 247h1-1Zm0 26.9h1-1Zm6.5 6.4v-.9.9Zm33.8 0v-.9.9Zm6.5-6.4h.8-.8Zm.1-3.7h1v-.8h-1v.8Zm-4.6 0v-.8h-.9v.8h.9Zm-1 3.4c0 .3-.2.7-.4.9l1.2 1.2c.6-.5.9-1.3 1-2l-1.8-.1Zm-.4.9c-.3.2-.5.3-.8.3v1.8a3 3 0 0 0 2-.9l-1.2-1.2Zm-.9.3c-5.5.3-11 .4-16.6.4v1.8c5.5 0 11.1-.1 16.7-.4v-1.8Zm-16.6.4c-5.5 0-11.2 0-16.7-.4v1.8c5.5.3 11.1.4 16.7.4v-1.8Zm-16.7-.4c-.3 0-.6-.1-.8-.3l-1.3 1.2a3 3 0 0 0 2 1v-1.9Zm-.8-.3c-.3-.3-.4-.6-.4-.8h-1.8c0 .7.3 1.5.9 2l1.3-1.2Zm-.4-.9c-.4-8.7-.4-17.6 0-26.3h-1.8c-.4 8.7-.4 17.6 0 26.4h1.8Zm0-26.3c0-.3.1-.6.4-.9l-1.3-1.2a3 3 0 0 0-.9 2h1.8Zm.4-.9c.2-.2.5-.3.9-.4l-.2-1.7c-.7 0-1.4.3-2 .9l1.3 1.2Zm.8-.4c5.5-.2 11.2-.4 16.7-.4V244c-5.6 0-11.2.1-16.8.4l.1 1.7Zm16.7-.4c5.5 0 11 .2 16.6.4v-1.7c-5.5-.3-11-.4-16.6-.4v1.7Zm16.6.4c.3 0 .6.2.9.4l1.2-1.2c-.5-.6-1.2-.9-2-1l-.1 1.8Zm.9.4c.2.3.4.6.4 1l1.8-.2c-.1-.8-.4-1.5-1-2l-1.2 1.2Zm.4 1 .1 3.3h1.8l-.1-3.5-1.8.1Zm1 4.2h4.6v-1.8h-4.6v1.8Zm5.5-1-.2-3.6H220l.1 3.7h1.8Zm-.2-3.6c-.1-4-3.3-7.1-7.3-7.3v1.7a6 6 0 0 1 5.6 5.7l1.7-.1Zm-7.3-7.3c-5.6-.3-11.3-.4-17-.4v1.8c5.7 0 11.3 0 17 .3v-1.7Zm-17-.4c-5.6 0-11.2 0-16.8.4v1.7c5.6-.2 11.3-.3 16.9-.3v-1.8Zm-16.8.4c-4 .2-7.2 3.3-7.4 7.3h1.8a6 6 0 0 1 5.7-5.6l-.1-1.7ZM173 247c-.5 9-.5 18 0 27l1.8-.2c-.5-8.9-.5-17.8 0-26.7l-1.8-.1Zm0 27c.2 3.8 3.4 7 7.4 7.2v-1.8c-3 0-5.4-2.6-5.6-5.6l-1.8.1Zm7.4 7.2c5.6.3 11.2.4 16.9.4v-1.8c-5.6 0-11.3-.1-16.8-.4l-.1 1.8Zm16.9.4c5.6 0 11.3-.1 17-.4l-.2-1.8c-5.6.3-11.2.4-16.8.4v1.8Zm16.9-.4c4-.1 7.2-3.4 7.3-7.3H220c-.2 3-2.6 5.4-5.7 5.5l.1 1.8Zm7.3-7.3.2-3.6-1.8-.1-.1 3.6 1.7.1Zm-.7-4.5h-4.6v1.7h4.6v-1.7Zm-5.5.8-.1 3.4h1.8v-3.4h-1.7Zm44.8 5.2h.8v-.9h-.8v.9Zm-27.6 0h-.9v.9h.9v-1Zm0-34.5h.9v-.9h-.9v.9Zm-4.6 0v-.9h-.9v.9h1Zm0 39h-.9v1h1v-1Zm32.2 0v1h.8v-1h-.8Zm0-5.4h-27.6v1.8h27.6v-1.8Zm-26.7.9v-34.5h-1.8v34.5h1.8Zm-.9-35.4H228v1.8h4.6V240Zm-5.5.9v39h1.8v-39h-1.8Zm1 40h32V279h-32v1.8Zm33-1v-4.5h-1.8v4.6h1.7Zm41.2-34.4v.9h.8v-1h-.8Zm0-4.6h.8v-.9h-.8v.9Zm-36.8 0v-.9h-1v.9h1Zm0 39h-1v1h1v-1Zm36.8 0v1h.8v-1h-.8Zm0-4.5h.8v-.9h-.8v.9Zm-32.2 0h-1v.9h1v-1Zm0-12.6v-1h-1v1h1Zm32.2 0v.8h.8v-.9h-.8Zm0-4.6h.8v-1h-.8v1Zm-32.2 0h-1v.9h1v-1Zm0-12.7v-1h-1v1h1Zm33 0v-4.6h-1.7v4.6h1.7Zm-.8-5.5h-36.8v1.8h36.8V240Zm-37.7.9v39h1.8v-39h-1.8Zm.9 40h36.8V279h-36.8v1.8Zm37.6-1v-4.5h-1.7v4.6h1.7Zm-.8-5.4H270v1.8h32.2v-1.8Zm-31.4.9v-12.6h-1.7v12.6h1.7Zm-.8-11.8h32.2V262H270v1.7Zm33-.9v-4.5h-1.7v4.6h1.7Zm-.8-5.4H270v1.8h32.2v-1.8Zm-31.4.9v-12.7h-1.7v12.7h1.7Zm-.8-11.8h32.2v-1.8H270v1.8ZM347 280l-.8.3.2.6h.6v-1Zm5 0v.9h1.4l-.6-1.3-.8.4Zm-17.9-39.1.8-.4-.2-.5h-.6v.9Zm-10.2 0v-.9h-.5l-.3.5.8.4Zm-17.8 39-.9-.3-.5 1.3h1.4v-1Zm5 0v1h.6l.2-.6-.8-.3Zm3.8-8.3v-1h-.5l-.3.6.8.4Zm28.2 0 .8-.4-.2-.5h-.6v.9Zm-26-4.7-.8-.3-.6 1.2h1.4v-.9Zm9.8-21.4v-1h-.6l-.2.6.8.4Zm4.3 0 .8-.4-.3-.5h-.5v.9Zm9.8 21.4v1h1.4l-.6-1.3-.8.3Zm6 14h5V279h-5v1.8Zm5.8-1.3-17.9-39-1.6.7 17.9 39 1.6-.7ZM334.1 240H324v1.8h10.2V240Zm-11 .5-17.9 39.1 1.7.7 17.9-39-1.7-.8Zm-17 40.4h5V279h-5v1.8Zm5.8-.6 3.8-8.3-1.6-.8-3.8 8.4 1.6.7Zm3-7.8h28.2v-1.8H315v1.8Zm27.4-.5 3.9 8.3 1.6-.7-3.9-8.4-1.6.8Zm-24.4-4.7 9.8-21.5-1.6-.7-9.8 21.5 1.6.7Zm9-21h4.3v-1.7h-4.3v1.8Zm3.4-.5 9.9 21.5 1.6-.7L332 245l-1.7.7Zm10.7 20.3h-24v1.7h24v-1.7Zm57.6-25.2v-.9h-.9v.9h1Zm0 34.5v.9h.9v-1h-.9Zm-1.5 0-.7.6.3.3h.4v-1Zm-31.8-34.5.7-.6-.3-.3h-.4v.9Zm-8 0v-.9h-1v.9h1Zm0 39h-1v1h1v-1Zm4.5 0v1h1v-1h-1Zm0-34.4v-1h-.9v1h1Zm1.3 0 .7-.6-.3-.3h-.4v.9Zm32 34.5-.7.6.3.3h.4v-1Zm8 0v.9h1v-1h-1Zm0-39.1h1v-.9h-1v.9Zm-5.4 0v34.5h1.8v-34.5h-1.8Zm1 33.6H397v1.8h1.5v-1.8Zm-1 .3L366 240.3l-1.3 1.2 31.7 34.5 1.4-1.2ZM365.4 240h-8v1.8h8V240Zm-9 .9v39h1.8v-39h-1.7Zm1 40h4.5V279h-4.6v1.8Zm5.4-1v-34.4H361V280h1.8Zm-.9-33.5h1.3v-1.8h-1.3v1.8Zm.7-.3 32 34.5 1.2-1.2-32-34.5-1.2 1.2Zm32.6 34.8h8V279h-8v1.8Zm9-1v-39h-1.8v39h1.8Zm-1-39.9h-4.5v1.8h4.6V240Zm45.8 5.5v.9h.9v-1h-1Zm0-4.6h.9v-.9h-1v.9Zm-36.8 0v-.9h-.9v.9h.9Zm0 39h-.9v1h.9v-1Zm36.8 0v1h.9v-1h-1Zm0-4.5h.9v-.9h-1v.9Zm-32.2 0h-.9v.9h.9v-1Zm0-12.6v-1h-.9v1h.9Zm32.2 0v.8h.9v-.9h-1Zm0-4.6h.9v-1h-1v1Zm-32.2 0h-.9v.9h.9v-1Zm0-12.7v-1h-.9v1h.9Zm33 0v-4.6H448v4.6h1.8Zm-.8-5.5H412v1.8h36.8V240Zm-37.7.9v39h1.8v-39h-1.8Zm.9 40h36.8V279H412v1.8Zm37.7-1v-4.5H448v4.6h1.8Zm-1-5.4h-32.1v1.8h32.2v-1.8Zm-31.2.9v-12.6h-1.8v12.6h1.8Zm-1-11.8H449V262h-32.2v1.7Zm33.2-.9v-4.5H448v4.6h1.8Zm-1-5.4h-32.1v1.8h32.2v-1.8Zm-31.2.9v-12.7h-1.8v12.7h1.8Zm-1-11.8H449v-1.8h-32.2v1.8Zm39.7-5.5v-.9h-.9v.9h1Zm0 39h-.9v1h1v-1Zm4.6 0v1h.9v-1h-.9Zm0-14.8v-.9h-.9v.9h1Zm11.4 0 .5-.7-.3-.2h-.2v.9ZM494 280l-.5.7.2.2h.3v-1Zm8.2 0v.9h2.9l-2.4-1.7-.5.8ZM480.4 265v-.9h-2.9l2.4 1.6.5-.7Zm12.5 0v.9-.9Zm6.5-6.5h1-1Zm0-11.2h1-1Zm-6.5-6.5v-.9.9Zm-.2 4.6.1-1v1Zm2 2.1h-.8.9Zm.1 10.8h1-1Zm-.6 1.4.6.7-.6-.7Zm-1.5.7v.9h.1v-.9Zm-31.8 0h-.9v.8h1v-.8Zm0-15v-1h-.9v1h1Zm-5.5-4.6v39h1.8v-39h-1.8Zm1 40h4.5V279h-4.6v1.8Zm5.4-1v-14.8H460V280h1.8Zm-.9-14h11.4v-1.7h-11.4v1.8Zm10.9 0 21.8 14.8 1-1.5-21.8-14.8-1 1.4Zm22.3 15h8.2V279H494v1.8Zm8.7-1.7-21.9-14.8-1 1.4 21.9 14.9 1-1.5ZM480.4 266H493v-1.8h-12.5v1.8Zm12.6 0c3.9-.2 7.1-3.4 7.3-7.3l-1.8-.1a6 6 0 0 1-5.6 5.6v1.8Zm7.3-7.4v-11.2h-1.8v11.2h1.8Zm0-11.3c-.2-4-3.3-7.1-7.3-7.3l-.1 1.8a6 6 0 0 1 5.6 5.6h1.8ZM493 240h-36.6v1.8H493V240Zm-.3 6.4c.4 0 .7.1 1 .4l1.2-1.3c-.6-.5-1.3-.8-2-1l-.2 1.9Zm1 .4c.2.2.3.5.3.8h1.8a3 3 0 0 0-.9-2l-1.3 1.2Zm.3.8v10.8h1.8v-10.8h-1.8Zm0 10.7c0 .4-.1.7-.4 1l1.3 1.2c.5-.6.8-1.3 1-2l-1.8-.2Zm-.4 1c-.2.1-.5.3-.9.3l.2 1.8c.8 0 1.4-.4 2-1l-1.3-1.2Zm-.8.3H461v1.7l31.8.1v-1.8Zm-30.9.9v-15H460v15h1.8Zm-.9-14.1h31.8v-1.8H461v1.8Z"/></svg>