<svg xmlns="http://www.w3.org/2000/svg" fill="none" viewBox="0 0 715 733"><path fill="#F3C010" d="M175.3 64.2c1 .5 5.5 2 9.7 3.6l7.6 3h4.8c2.7 0 5.4.4 6.4.8.9.7 3.7 1.5 6.2 2.2l4.7 1.3 4.4-.7 4.4-.6-1.6 1.8-1.7 1.7 1.6-.2 1.6-.3-.5 1.6-.6 1.6h1.7l6.4-.5 4.7-.2-.8-1.3-.8-1 3.8-.6 3.9-.5.4 2.9.4 3 1.3-.2c.6-.1 1.3-1 1.2-1.7v-3c-.2-.7.5-2.3 1.1-3.5a6 6 0 0 0 1.2-3.6l-.3-1.7 2.2-.3c1.2-.3 4.9 0 8.2.6 3.3.6 6.8 1 7.8.9 1-.2 5.7-.5 10.4-.9l8.6-.6.3-3c.3-1.8.4-3.5.4-4a17 17 0 0 1 3-4.4l3-3.7L295 55a66.6 66.6 0 0 0 22.2 7.3l2.2-.3 7.1 3.3 7.2 3.5h8.1l8-.1-1.4 1.2-1.2 1.2 5.1 2 5.2 2 4.7-.7 4.8-.6 1.2 3.2 1.2 3.3 1.9.5 1.8.5-.2-2-.3-2.3 1.5-.2c.9 0 3.4.6 5.7 1.5l4 1.4-1.8.4-1.9.4 2.1 1.2 2.1 1.2-3.2.4-3 .4 3.1 2 3.1 1.8 5.5-.1c3-.3 6.4 0 7.7.4l2.4.7-.5 1.3-.4 1.4 2.3.4c1.4.4 4.7.5 7.6.5l5-.3 7.4 3.3 11.9 5.4 4.6 1.9.3 2.2.3 2.2 3.3.5 3.3.4.2 1.3c0 .8.8 1.3 1.6 1.1 1.6-.2 4.5 2.4 6.1 5.5l1.1 2.5 6.5-.9 6.3-.9.3 2.3.3 2.2 1.3-.2 1.2-.2.5 3.7.5 3.7 3.2-.5 3.2-.4-.3-1.8-.2-1.6 2.9 2.3 2.9 2.3-.3-1.6-.2-1.8 1.9-.3 1.9-.2-.3-2.2-.4-2.4 2-1.2c1.3-.7 2.5-2 2.9-2.9l.8-1.8.2 1.8.3 2 3.6-.6 3.7-.5.3-1.7.1-1.5 4.6 6 4.6 6.3 1-1 1-.9.2 2 .3 1.9 1-2.4.9-2.4 1.6 2 1.5 2-.3-2.2-.3-2 1.6 1.4 1.5 1.3 7-7c3.8-4 7.5-8.2 8-9.5l1.2-2.4 6.8-1 6.7-1.3 3.2 2.7c2 1.5 3.5 3.5 3.6 4.4.2 1 .8 1.9 1.3 1.8.6-.1 1.2.7 1.5 1.6 1 5 3.5 10.6 5.2 12.4 1.8 2 6.7 12.4 10 21l1.8 4.8 4.4 29.5 4.4 29.5 2 2.2 2.2 2.2 2.1-1 2.3-1.1 4.3 1.8c2.3 1 4.3 2.5 4.4 3.3.1.7 1.2 2 2.4 3.2l2.2 2 1.8 6.2a197 197 0 0 1 3.1 18.7l1.5 12.4-1 1.8-.9 1.8.2 7.7.3 7.8 1.3-.2 1.1-.2 1.4 7.6c.5 4.3 1.6 10.6 2 14l1 6 3-.9c1.7-.4 3.3-1 3.4-1.3l1.9-6.6 1.8-5.8 1.3.3 1.3.4 4-4 3.8-4.1 3.6 2c5 2.9 7.1 5 7.5 7.5l.3 2.4 1.1-.2c.8-.1 1.6-1 1.8-1.8.3-.9 1.1-1.6 1.6-1.7l1-.1.9 5.1.8 5.1 1.8 2.8c1 1.5 3.8 9.7 6.4 18l4.6 15.4 1.2.7 1.4.7.6 8 .6 7.9 1 1.5c.7.8 1.7 3.8 2.3 6.7l3.7 15.2c2.7 11.3 3 14.9 4.2 38.4l.7 16.4 3.3 15a127 127 0 0 1 2.8 15.6c-.7.9.3 11.5 3.8 43a596 596 0 0 1 3 31v9.7l.6 17.2c.2 6.6.5 15 .5 19l.1 7.1-.8.2h-1l.4 9 .4 9-1.2.1-1.2.2.5 3.7.5 3.6-4.5 3.5c-2.5 2-5.2 4.8-6 6.1l-1.6 2.3-4.6-1.7c-2.6-1-5.1-2.5-5.8-3.3l-1.2-1.3.2 1.2c.1.7-1.9-.5-4.2-2.7l-4.6-3.9-3 2-3.1 1.9-.8-.8-.7-.7 1.1-.1c.6-.3-1.3-1-4.2-1.7l-5.3-1.4-2.9 4.3-2.9 4.3-2.1-1.5-2-1.5-.4 3.5c-.3 2-1 4.5-1.6 5.6l-1 2.1-2.6-2.2-2.7-2.1.1 2 .3 2.1-1.7-3.2-1.6-3.2-1 1-1.2 1-2.9-4.2-2.9-4-.4 2.5-.5 2.8-2-5-2-5 .4 3.3.3 3.4-1.1.2-1.1.1-1.1-3.1-1.2-3-1.8 2.2-1.6 2.2-1-.8-.9-.9-1.5 1.9-1.5 1.8.6 3.7.4 3.5-2.8-1.2-3-1.4-1.3 3c-.7 1.6-1.3 3.5-1.2 4l.1 1.2-1.4-.7-1.3-.7.2 1.5.2 1.6-3.5.5c-3.6.5-7.1-.8-7.2-2.6l-.3-3.2-.4-2.2-1 1-1.2 1-.4-2.3-.3-2.5-2.1 1.4c-1 .7-3.5 2-5.4 2.7-1.9.5-3.7 1.7-4 2.5l-.4 1.4-4.8.6-4.8.7-5.4-3.7-5.5-3.9-1.6 1-1.5 1-3.4-1.2c-1.9-.7-3.5-1.8-3.5-2.4-.1-.6-1.1-1.3-2.3-1.6l-2-.6-1.2 5.5-1.1 5.7-1.6-1.4-1.7-1.4-3 3.2-3.1 3.5-1.8-2-1.8-2-2.2.3-2 .3 1.5-1.4 1.4-1.6-7.3-1-7.2-.9-1.7-1.8-1.6-1.8h1c.6-.2-.6-1.2-2.4-2.3-2-1.2-3.9-2-4.2-1.8-.4.2-1.9-2.2-3.1-5.4l-2.5-5.8-.7 2.2-.9 2-3.1-3.1-3.2-3.2-.7 2-.8 2-2.1-.8-2.3-.6.7 5.3.8 5.2-1.5 5.9c-1.6 7-2.5 8.3-6.6 11.7l-3.3 2.5-.4 3c-.3 3-1.9 3.8-3.4 1.6l-1-1.3-1.2.9-1 1-.1-1.2-.2-1.3-2.3.2H449c-.8 0-2 0-3 .3l-1.4.3.3 2.5.4 2.7-4 5.5-4.1 5.4-.6-1.5-.7-1.4-1.6 2.5c-2.3 3.8-2.3 3.6-12-3.6-1-.6-2.4-1.1-3.2-1l-1.2.2-2.1-4c-1.2-2-3.5-4.7-5.1-6l-3-2.4.2-2V645l-2.2-1.6-2.1-1.5-.3-2.2-.3-2.1-1.1 1-1 1.1-2.7-3.5-2.7-3.5-2.5 1.3c-1.3.8-2.7 2-2.8 2.8l-.2 1.6-4.3-4c-2.2-2.3-4.8-4-5.4-4l-1.4.2-.3-2.2-.3-2.2-1.3.2-1.3.2-1.6-3.3-3.7-7.2-2-4.1-.8 2.2-1 2.4-.5-3c-.4-1.5-.9-5.2-1.3-8l-.4-5.2-.8 3.1-.7 3.1-1-2.1a100.8 100.8 0 0 1-6.9-18.8l-1.6-6.7-1.8 2.8c-1.6 2.5-4 11.5-3.5 13.3 0 .4-1.3 3.1-3 6l-3.2 5.4-.2 3.8c0 2.1-.8 4.3-1.4 5l-1.1 1 .2 4 .1 3.8-1.3 2.3c-1.4 2.4-3.4 6.5-6.8 14l-2 4.3-3 1-3 1.2-1.7-1.4-1.7-1.4-.3 1.8c-.3 1.1-1 2-1.5 2.2l-1.2.1-.3-2-.3-2-2.2.5-2.1.5v-5l-2.2.6-2.2.5-2.9 7.1a94.7 94.7 0 0 1-4.7 10.1l-2 3-1.2-.7-1.4-.7.3 2.2.4 2.3-2.6.4-2.5.3-.4-2.9-.4-3-1.8.3-1.7.2-2-4.5-2.1-4.3-.7 1-.7 1-2.8-3.1-2.8-3.2.4-2.4.4-2.5-1.5.2-1.4.2.6-1.4.4-1.6-1-.5-1-.5-1.2-8.9-1.2-9-1 1-.8.8-.3-1.6-.2-1.6-1.4 1.2-1.2 1.2.4-2.6.5-2.6-1.2 1-1.1 1.3-2-1.5-2-1.4-.4 3-.3 3-5.5-1.4a53 53 0 0 0-17-2l-4.6.4-3.2-2.1-3.3-2-3 .4-3 .4v-13.8l-1.8-.9-1.7-1v-12.2l1.3-.2 1.2-.2-1.5-8.5-1.4-8.6.6-1.7c.4-1.1.5-2 .3-2l-2.8-.2-2.2-.2.4 2.8.4 2.8-1 .1-1 .2-.9 5.7c-.4 3.2-1.8 7.4-3 9.2l-2 3.6.7 2.6c.4 1.6.3 4.4 0 6.6l-.8 3.8 1.2.8 1.4.7-1.2 1.2-1.3 1.2.4 3 .4 2.8-2 3-2 3.2-3.9 1.6-3.8 1.6-.5 2.4a13 13 0 0 1-1.8 4.8l-1.3 2.3.8 1 .7 1.2-3.7 1.4-3.8 1.4-1.3-.7c-.7-.4-1.4-1.6-1.5-2.8l-.3-2.2-1.2 1-1.1 1.1-.2-1.5-.3-1.6 1.6-.2 1.6-.2-3.4-1.5-3.4-1.3-1-4-.9-4-1.3.2c-.6 0-1 .9-.9 1.8l.2 1.4-1.4-.7-1.3-.7.3 3.4c.1 2 .4 3.9.6 4.4l.3 1.2-1.9.3-1.9.2.3 2.2.3 2.2-1.2.2-1.3.2-.2 3.8-.3 3.7-1.7.3-2 .3-.3 2.2-.4 2.4-2.4.3-2.4.3-.6-3.3-.6-3.3-.3 2.6v2.7l-2.6.4-2.4.3-.5-3.6-.5-3.7-3-2.6-2.9-2.6-.9-6.5-1-6.4-2-.7-2-.4.3 1.4c.2 1.7-3.7 11.4-5.1 12.3-.5.4-.7 1.6-.5 2.8l.3 2-1.8.3c-.9.1-2.5-.6-3.5-1.6l-1.8-1.9-4.2.8-4.2.7-2.3-1.6-2.2-1.7-.6-4-.7-3.8-1.3 3-1.5 3.3-.2-1.3-.2-1.4-2 3.3c-1 1.8-2.4 4.9-2.9 6.7l-1 3.6-1.1-.6-1.2-.6-.9 3.6-.8 3.6-3.7.2c-1.9 0-4 0-4.6.2l-.9-.2-.6-4.3-.6-4.2-1.7-.5-1.6-.4-2.8-6.8a99.8 99.8 0 0 0-5.2-11.1l-2.6-4.2-3.8-27.3-5.6-42-2.1-17.3-.5-2.5-2.5.3-2.4.4-1 2.6-.7 2.7-3.2-3.2a18 18 0 0 1-3.4-5.2l-.3-1.9L44 527c-.8.7-3.9 1.7-7 2.3l-5.7 1-1.7-1.3-1.6-1.6-1.9-6.8-1.8-6.8-1.4-.5a4.7 4.7 0 0 1-1.6-3c-.1-1.1-2-4.3-4-7.2l-4-5-1.2-4.3c-.6-2.5-1.4-5.2-1.5-6.2l-.4-1.8-1.3.2-1.2.2.2 1.9.3 1.9-2.2 2.4-2.2 2.5.9 6.7c.5 3.6 1 7.8 1 9.1l.2 2.7-1.7.2-1.7.3.3 2 .3 2.2-2.2 1.2-2.3 1.2-.2 4.4c0 2.6-.8 8-1.7 12l-1.5 7.2-2.8 2-2.7 2-3.9-3.7-4-3.7-.3-2.2-.3-2.2-1.2.2-1.3.2-.3-2.2-.3-2.3-1.3.2-1.4.2-2.9 8a28 28 0 0 1-3.7 8c-.5 0-1.3 1.8-1.8 4l-1 3.8-1.9.3-1.9.2.3 2.2.3 2.2-2.5.4-2.5.3-.4-2.6a14 14 0 0 0-2.7-5.5l-2.2-2.8-3-10.5a85 85 0 0 0-4.6-13.8l-1.8-2.9.4-3.8.2-3.7-1.6-.4-1.7-.5-.5-6.1-1.1-12.9c-.4-3.7-.5-6.7 0-6.7.3 0-1.6-16.2-4.2-35.9a1454.1 1454.1 0 0 1-7.1-63.1c-.8-5.7 2.5-25.7 4.4-26 .3 0 .8-2 1-4.4l.2-4.3 2.6-3.6c1.5-1.9 2.6-4.3 2.5-5.2-.2-.8 1.1-3.7 3-6.5l3-5 .3 1.8.2 1.6 2.2-2 2.3-1.7.5-3.4c0-2 1-4.8 2-6.4l1.6-2.8 1 1.5 1 1.5.4-3.8.3-4 2.4-1.2 2.4-1.2-.3-1.6-.2-1.6 1 .7 1 1 1.5-1.9 1.4-1.8.2 1.6.2 1.6 2-.3 2.2-.3 1.8-3.5 2-3.5-.4-2.8-.4-2.6 2.4-.3 2.3-.4-.5-3.6-.5-3.7 3.4-4.7 3.4-4.5-1-5.5-1-5.6 2.8-2.8c1.4-1.7 3.9-5 5.3-7.5l2.9-4.6-1.6-4.6a27 27 0 0 1-1.4-7.4v-2.6l1.3-.1c.6-.1 3-2 5.2-4.2l4-3.9-1.2-5.3-1.1-5.4 2.4-2.8c1.4-1.6 4.2-4.1 6.3-6l3.8-2.9V207c0-3 .2-6.2.6-7.1l.8-2 3.9-1.4c2.2-.9 4.8-2.5 5.8-3.6l1.9-2.1-.3-4.5-.2-4.3 1.2-2 1.1-1.9 4.7-1.7 4.5-1.7.7-4.3.7-4.3 5.4-1.8 5.4-1.6-.3-2.2c-.2-1.2.3-3 1-4.4l1.6-2.1 3.5-1.1c2-.4 3.8-1.4 4.1-2 .3-.6 2.9-1.8 5.8-2.8l5.2-1.7 8-5.7 7.8-5.8 3.8-.2 4-.2 1.9-3.5 1.9-3.2-.2-4.8-.3-4.7 2.1-1.8 2-1.8 5-1a47.8 47.8 0 0 0 18-7.6l1.1-1.7 5.8-.8 5.7-.8 4.4-4.5 4.2-4.5 1 1c.6.8 2 1.3 3.5 1.4l2.3.1 3.5-2 3.2-2.3-.4-1.5-.5-1.4 3.5-3 3.4-3 2-5.6c1.2-3 3-7.3 4.1-9.6l2-4.1 1.7-.3c1-.1 2.6.3 3.7.7Z"/><path fill="#fff" d="M102.3 462h2.3l1.1 4.7 1 4.2 1.2-4.2 1.4-4.6h2l1.4 4.6 1.2 4.2 1-4.2 1.2-4.6h2.2l-3 11h-2.7l-1.4-5-.9-3.1-1 3.1-1.4 5h-2.5l-3-11Zm22.4 11.4c-.8 0-1.5-.1-2.1-.4a4.4 4.4 0 0 1-2.6-3 6 6 0 0 1-.4-2.4c0-.9 0-1.7.3-2.4s.6-1.3 1-1.8c.5-.5 1-.9 1.7-1.2.6-.2 1.3-.4 2-.4.8 0 1.5.2 2.1.4.7.3 1.2.7 1.7 1.2.4.5.7 1.1 1 1.8.2.7.3 1.5.3 2.4 0 .9 0 1.7-.3 2.4s-.6 1.4-1 1.9a5 5 0 0 1-1.7 1.1c-.6.3-1.3.4-2 .4Zm0-1.9c.8 0 1.4-.2 1.9-.7.5-.5.7-1.3.7-2.2v-2c0-.9-.2-1.6-.7-2.1-.5-.5-1.1-.8-2-.8-.7 0-1.4.3-1.9.8-.4.5-.7 1.2-.7 2.2v1.9c0 1 .3 1.7.7 2.2.5.5 1.2.7 2 .7Zm7.6 1.7V462h2.4v2.1c.2-.6.5-1 1-1.5a3 3 0 0 1 2.1-.6h.6v2.2h-.9c-1 0-1.6.2-2.1.5s-.7.7-.7 1.3v7h-2.4Zm10.6 0c-.8 0-1.4-.2-1.8-.6-.4-.4-.6-1-.6-1.7v-13.5h2.3v13.9h1.5v1.9H143Zm10.6-1.9a3 3 0 0 1-1.3 1.6c-.5.3-1.2.5-1.9.5-1.4 0-2.5-.5-3.2-1.5a7 7 0 0 1-1.2-4.3 7 7 0 0 1 1.2-4.2c.7-1 1.8-1.6 3.2-1.6.7 0 1.4.2 2 .6.5.3.9.9 1.1 1.5h.1v-6.5h2.3v15.8h-2.3v-1.9Zm-2.5.1a3 3 0 0 0 1.8-.5c.5-.4.7-.8.7-1.4v-3.8c0-.5-.2-1-.7-1.3a3 3 0 0 0-1.8-.6 3 3 0 0 0-2 .8c-.4.5-.6 1.2-.6 2v2c0 .8.2 1.5.7 2 .5.6 1.1.8 2 .8Zm11.7 2c-1 0-2-.2-2.7-.5-.7-.4-1.3-1-1.8-1.6l1.5-1.3a3.7 3.7 0 0 0 3.1 1.6c.7 0 1.2-.2 1.5-.4.4-.3.5-.7.5-1.1 0-.4 0-.7-.3-1-.3-.2-.7-.4-1.2-.4l-1-.2a4.7 4.7 0 0 1-2.8-1c-.6-.5-1-1.2-1-2.3 0-.5.2-1 .4-1.4.2-.4.5-.8.8-1a4 4 0 0 1 1.3-.7c.5-.2 1-.3 1.7-.3 1 0 1.8.2 2.4.5.7.3 1.2.7 1.7 1.3l-1.4 1.4-1.1-1c-.5-.2-1-.3-1.6-.3-.6 0-1.1.1-1.4.4-.3.2-.5.6-.5 1s.2.7.4 1c.3.2.7.3 1.3.4l1 .1c1.3.2 2.2.6 2.7 1.1.6.6.9 1.3.9 2.2a3.3 3.3 0 0 1-1.2 2.5l-1.4.8a6 6 0 0 1-1.8.2Zm7.5-9.4h-1.7v-2h1.7v-1.7c0-1 .2-1.6.7-2.1.5-.5 1.2-.8 2-.8h2v1.9h-2.4v2.8h2.3v1.9h-2.3v9.2h-2.3V464Zm14.8 9.2c-.7 0-1.1-.2-1.4-.6-.4-.3-.6-.8-.6-1.3h-.2a3 3 0 0 1-1.1 1.6c-.6.3-1.3.5-2 .5-1.2 0-2.1-.3-2.8-.9-.6-.6-.9-1.4-.9-2.4s.4-2 1.2-2.5c.8-.5 2-.8 3.6-.8h2v-1c0-.6-.2-1.2-.6-1.5-.4-.4-1-.6-1.7-.6s-1.2.2-1.6.5c-.4.2-.8.6-1 1l-1.4-1.2c.3-.6.8-1.2 1.5-1.6a5 5 0 0 1 2.6-.6 5 5 0 0 1 3.3 1c.8.7 1.2 1.7 1.2 3v5.5h1.2v1.9H185Zm-4.7-1.6c.7 0 1.3-.1 1.8-.4.4-.3.7-.8.7-1.3v-1.6h-2c-1.6 0-2.4.5-2.4 1.5v.4c0 .5.2.8.5 1 .3.3.8.4 1.4.4Zm11.7 1.8c-1 0-1.9-.2-2.6-.5-.7-.4-1.3-1-1.8-1.6l1.4-1.3 1.4 1.1c.5.3 1.1.4 1.8.4s1.2 0 1.5-.3c.3-.3.5-.7.5-1.1 0-.4-.1-.7-.4-1-.2-.2-.6-.4-1.2-.4l-1-.2c-1.1-.1-2-.4-2.7-1-.6-.5-1-1.2-1-2.3 0-.5.2-1 .4-1.4.2-.4.4-.8.8-1 .4-.4.8-.6 1.3-.7.5-.2 1-.3 1.7-.3a5.2 5.2 0 0 1 4.1 1.8l-1.4 1.4a4 4 0 0 0-1.2-1c-.4-.2-1-.3-1.5-.3-.7 0-1.1.1-1.5.4-.3.2-.4.6-.4 1s.1.7.4 1c.3.2.7.3 1.3.4l1 .1c1.2.2 2.1.6 2.7 1.1.5.6.8 1.3.8 2.2 0 .5 0 1-.3 1.4-.2.5-.5.8-.9 1.1l-1.3.8a6 6 0 0 1-1.9.2Zm10-.2c-.8 0-1.4-.2-1.9-.7-.4-.4-.6-1-.6-1.7V464h-1.7v-2h1c.3 0 .6 0 .7-.2.2-.1.3-.4.3-.8v-2h2v3h2.4v2h-2.4v7.3h2.2v1.9h-2Zm9 .2a5 5 0 0 1-3.8-1.5c-.4-.5-.8-1.2-1-1.9a8 8 0 0 1-.3-2.4c0-.9 0-1.7.3-2.4.2-.7.6-1.3 1-1.8.5-.5 1-.9 1.6-1.2.6-.2 1.4-.4 2.1-.4a5 5 0 0 1 2.2.5c.6.2 1.1.6 1.5 1.1.4.5.7 1.1 1 1.8l.3 2.1v1h-7.6v.3c0 .8.2 1.5.7 2 .5.6 1.2.9 2.2.9a3 3 0 0 0 1.7-.4 4 4 0 0 0 1.2-1.3l1.4 1.4a4 4 0 0 1-1.8 1.6 6 6 0 0 1-2.8.6Zm0-9.8-1.2.3c-.3.1-.6.3-.8.6a2 2 0 0 0-.5.9c-.2.3-.2.7-.2 1.1v.2h5.1v-.2a3 3 0 0 0-.6-2c-.5-.6-1-.9-1.9-.9Zm11 9.8c-1.1 0-2-.2-2.7-.5-.7-.4-1.3-1-1.8-1.6l1.4-1.3 1.4 1.1c.5.3 1.1.4 1.8.4s1.2 0 1.5-.3c.3-.3.5-.7.5-1.1 0-.4-.1-.7-.4-1-.2-.2-.6-.4-1.2-.4l-1-.2c-1.1-.1-2-.4-2.7-1-.6-.5-1-1.2-1-2.3 0-.5.2-1 .4-1.4.2-.4.4-.8.8-1a4 4 0 0 1 1.3-.7c.5-.2 1-.3 1.7-.3a5.2 5.2 0 0 1 4.1 1.8l-1.4 1.4a4 4 0 0 0-1.2-1c-.4-.2-1-.3-1.5-.3-.7 0-1.1.1-1.5.4-.3.2-.4.6-.4 1s.1.7.4 1c.3.2.7.3 1.3.4l1 .1c1.2.2 2.1.6 2.7 1.1.6.6.8 1.3.8 2.2a3.3 3.3 0 0 1-1.2 2.5l-1.3.8a6 6 0 0 1-1.8.2Zm9.9-.2c-.8 0-1.4-.2-1.8-.7-.5-.4-.7-1-.7-1.7V464h-1.7v-2h1c.3 0 .6 0 .7-.2.2-.1.3-.4.3-.8v-2h2v3h2.4v2h-2.3v7.3h2.1v1.9h-2Zm6.1.2c-.5 0-.9-.1-1.2-.4-.2-.3-.3-.6-.3-1v-.4c0-.4 0-.7.3-1 .3-.3.7-.4 1.2-.4s1 .1 1.2.4c.2.3.4.6.4 1v.4c0 .4-.2.7-.4 1-.3.3-.7.4-1.2.4Zm8.8 0c-.8 0-1.5-.1-2.1-.4-.7-.3-1.2-.6-1.6-1.1-.4-.5-.8-1.2-1-1.9a8 8 0 0 1-.3-2.4c0-.9 0-1.7.3-2.4a4.8 4.8 0 0 1 2.6-3c.6-.2 1.3-.4 2.1-.4a4.6 4.6 0 0 1 4.3 2.8l-2 .9a2.3 2.3 0 0 0-2.3-1.7c-.9 0-1.5.2-2 .8-.4.5-.6 1.2-.6 2v2c0 .9.2 1.6.7 2.1.4.5 1 .8 1.9.8.7 0 1.2-.2 1.6-.5.4-.3.8-.8 1-1.3l1.8.9c-.4 1-1 1.6-1.7 2-.7.6-1.6.8-2.7.8Zm10.8 0c-.8 0-1.5-.1-2.1-.4-.6-.3-1.2-.6-1.6-1.1-.5-.5-.8-1.2-1-1.9a6 6 0 0 1-.4-2.4c0-.9.1-1.7.4-2.4a4 4 0 0 1 1-1.8c.4-.5 1-.9 1.6-1.2a5.4 5.4 0 0 1 4.1 0c.7.3 1.3.7 1.7 1.2.4.5.8 1.1 1 1.8.3.7.4 1.5.4 2.4a6 6 0 0 1-.4 2.4c-.2.7-.6 1.4-1 1.9s-1 .8-1.6 1.1c-.6.3-1.3.4-2.1.4Zm0-1.9c.8 0 1.4-.2 2-.7.4-.5.6-1.3.6-2.2v-2c0-.9-.2-1.6-.7-2.1-.5-.5-1.1-.8-1.9-.8a3 3 0 0 0-2 .8c-.4.5-.6 1.2-.6 2.2v1.9c0 1 .2 1.7.7 2.2.5.5 1.1.7 1.9.7Zm7.7 1.7V462h2.3v1.8h.1l.4-.8.6-.7.8-.4 1.2-.2c.7 0 1.4.2 2 .6.5.4 1 1 1.2 1.7h.1a3.5 3.5 0 0 1 3.3-2.3c1.2 0 2 .4 2.6 1.2.6.7 1 1.8 1 3.1v7h-2.4v-6.7c0-.8-.1-1.5-.5-2a2 2 0 0 0-1.5-.6 2.8 2.8 0 0 0-1.6.5l-.5.6-.2.8v7.5H272v-6.8c0-1.7-.7-2.6-2-2.6a3 3 0 0 0-1.6.5 1.7 1.7 0 0 0-.7 1.4v7.5h-2.3Zm23.8-15.8h2.3v6.5h.1c.3-.6.6-1 1.1-1.5.5-.4 1.2-.6 2-.6 1.2 0 2 .4 2.7 1.2.6.7 1 1.8 1 3.1v7h-2.4v-6.7c0-1.7-.7-2.6-2-2.6a3.2 3.2 0 0 0-1.7.5l-.6.6-.2.8v7.5h-2.3v-15.8Zm20.5 15.8c-.7 0-1.1-.2-1.5-.6-.3-.3-.5-.8-.6-1.3a4 4 0 0 1-1.2 1.6c-.6.3-1.3.5-2 .5-1.2 0-2.1-.3-2.8-.9-.6-.6-.9-1.4-.9-2.4s.4-2 1.2-2.5c.8-.5 2-.8 3.6-.8h2v-1c0-.6-.2-1.2-.6-1.5-.4-.4-1-.6-1.7-.6s-1.2.2-1.6.5c-.4.2-.8.6-1 1L301 464c.3-.6.8-1.2 1.5-1.6a5 5 0 0 1 2.6-.6 5 5 0 0 1 3.3 1c.8.7 1.2 1.7 1.2 3v5.5h1.2v1.9h-1.3Zm-4.7-1.6c.7 0 1.3-.1 1.8-.4.4-.3.7-.8.7-1.3v-1.6h-2c-1.6 0-2.4.5-2.4 1.5v.4c0 .5.2.8.5 1 .3.3.8.4 1.4.4Zm11.7 1.8c-1 0-1.9-.2-2.6-.5-.7-.4-1.3-1-1.9-1.6l1.5-1.3c.4.5.9.9 1.4 1.1.5.3 1.1.4 1.8.4.6 0 1.2 0 1.5-.3.3-.3.5-.7.5-1.1 0-.4-.1-.7-.4-1-.2-.2-.6-.4-1.2-.4l-1-.2c-1.1-.1-2-.4-2.7-1-.6-.5-1-1.2-1-2.3 0-.5.2-1 .4-1.4.1-.4.4-.8.8-1a2 2 0 0 1 1.3-.7c.5-.2 1-.3 1.7-.3a5.2 5.2 0 0 1 4.1 1.8l-1.4 1.4a4 4 0 0 0-1.2-1c-.4-.2-1-.3-1.5-.3-.7 0-1.2.1-1.5.4-.3.2-.4.6-.4 1s.1.7.4 1c.3.2.7.3 1.3.4l1 .1c1.2.2 2.1.6 2.7 1.1.5.6.8 1.3.8 2.2 0 .5 0 1-.3 1.4-.2.5-.5.8-.9 1.1-.3.3-.8.6-1.4.8a6 6 0 0 1-1.8.2Zm20.2-.2c-.6 0-1-.2-1.4-.6-.3-.3-.5-.8-.6-1.3h-.1c-.2.7-.6 1.2-1.2 1.6-.6.3-1.2.5-2 .5-1.2 0-2-.3-2.7-.9-.6-.6-1-1.4-1-2.4s.5-2 1.3-2.5 2-.8 3.5-.8h2v-1c0-.6-.2-1.2-.6-1.5-.3-.4-.9-.6-1.7-.6-.6 0-1.2.2-1.6.5-.4.2-.7.6-1 1l-1.4-1.2c.4-.6.9-1.2 1.6-1.6a5 5 0 0 1 2.6-.6c1.4 0 2.5.4 3.3 1a4 4 0 0 1 1.1 3v5.5h1.2v1.9h-1.3Zm-4.7-1.6c.7 0 1.3-.1 1.8-.4.5-.3.7-.8.7-1.3v-1.6h-2c-1.6 0-2.4.5-2.4 1.5v.4c0 .5.2.8.5 1 .4.3.8.4 1.4.4Zm10.6 1.6c-.8 0-1.4-.2-1.8-.6-.3-.4-.5-1-.5-1.7v-13.5h2.3v13.9h1.5v1.9h-1.5Zm3.7 0V462h2.4v2.1c.2-.6.6-1 1-1.5a3 3 0 0 1 2.1-.6h.6v2.2h-.9c-.9 0-1.6.2-2.1.5s-.7.7-.7 1.3v7h-2.4Zm12.4.2a4 4 0 0 1-2-.4c-.7-.3-1.3-.6-1.7-1.1-.4-.5-.8-1.2-1-1.9a8 8 0 0 1-.4-2.4c0-.9.2-1.7.4-2.4s.6-1.3 1-1.8 1-.9 1.6-1.2c.6-.2 1.3-.4 2.1-.4a5 5 0 0 1 2.2.5c.6.2 1.1.6 1.5 1.1.4.5.7 1.1 1 1.8l.3 2.1v1h-7.6v.3c0 .8.2 1.5.7 2 .5.6 1.2.9 2.2.9a3 3 0 0 0 1.7-.4 4 4 0 0 0 1.2-1.3l1.4 1.4c-.5.7-1 1.2-1.8 1.6a6 6 0 0 1-2.8.6Zm0-9.8c-.4 0-.7.1-1 .3a2 2 0 0 0-1 .6l-.5.9-.1 1.1v.2h5.1v-.2a3 3 0 0 0-.7-2 2 2 0 0 0-1.8-.9Zm15.6 9.6c-.6 0-1-.2-1.4-.6-.3-.3-.5-.8-.6-1.3a4 4 0 0 1-1.2 1.6c-.6.3-1.3.5-2.1.5-1.2 0-2-.3-2.7-.9-.6-.6-.9-1.4-.9-2.4s.4-2 1.2-2.5c.8-.5 2-.8 3.5-.8h2v-1c0-.6-.1-1.2-.5-1.5-.4-.4-1-.6-1.7-.6s-1.2.2-1.6.5c-.4.2-.8.6-1 1l-1.5-1.2a6 6 0 0 1 1.6-1.6 5 5 0 0 1 2.6-.6c1.4 0 2.6.4 3.3 1 .8.7 1.2 1.7 1.2 3v5.5h1.1v1.9h-1.3Zm-4.6-1.6c.7 0 1.3-.1 1.7-.4.5-.3.7-.8.7-1.3v-1.6h-2c-1.5 0-2.3.5-2.3 1.5v.4c0 .5.1.8.5 1 .3.3.8.4 1.4.4Zm15.2-.3h-.1a3 3 0 0 1-1.2 1.6c-.6.3-1.2.5-2 .5a4 4 0 0 1-3.2-1.5 7 7 0 0 1-1.1-4.3 7 7 0 0 1 1.1-4.2 4 4 0 0 1 3.3-1.6c.7 0 1.3.2 1.9.6.5.3 1 .9 1.2 1.5v-6.5h2.4v15.8H385v-1.9Zm-2.5.1a3 3 0 0 0 1.8-.5c.4-.4.7-.8.7-1.4v-3.8c0-.5-.3-1-.7-1.3a3 3 0 0 0-1.8-.6c-.8 0-1.5.3-2 .8s-.7 1.2-.7 2v2c0 .8.2 1.5.7 2 .5.6 1.2.8 2 .8Zm15-9.3h2.1l-4.6 13.3a4 4 0 0 1-.5.9 2 2 0 0 1-.5.6 2 2 0 0 1-.8.4l-1.1.1h-1.4v-1.9h1.9l.6-1.9-4-11.5h2.3l2.2 6.5.7 2.4.8-2.4 2.2-6.5Zm8.9 11V462h3.1v2.4h.2a3.3 3.3 0 0 1 .8-1.7c.2-.2.5-.4.9-.5l1.1-.2h.6v3h-.8c-1 0-1.6 0-2 .3-.5.2-.8.7-.8 1.3v6.6h-3.1Zm13.2.3a6 6 0 0 1-2.3-.4 5 5 0 0 1-1.7-1.2c-.5-.5-.8-1-1-1.8a7.8 7.8 0 0 1 0-4.8 4.5 4.5 0 0 1 2.7-3 5.4 5.4 0 0 1 4.6 0c.6.3 1.1.7 1.5 1.2a7 7 0 0 1 1 1.9l.2 2.1v1h-7.1v.1c0 .8.2 1.4.6 1.8.4.4 1 .6 1.8.6a3 3 0 0 0 1.6-.3l1.2-1 1.6 2a5 5 0 0 1-2 1.3 6 6 0 0 1-2.7.5Zm-.1-9.4c-.6 0-1.1.3-1.5.7-.4.4-.5 1-.5 1.6v.2h3.9v-.2c0-.7-.2-1.2-.5-1.6-.3-.4-.8-.7-1.4-.7Zm7.4 9.2V462h3.1v1.9h.1a4 4 0 0 1 1-1.5c.5-.5 1.2-.7 2-.7a3.2 3.2 0 0 1 3.2 2.3 3 3 0 0 1 1.3-1.6l1-.5 1.1-.2c1.1 0 2 .4 2.5 1.2.6.7.9 1.8.9 3.3v7h-3.2v-6.8c0-1.4-.5-2.1-1.5-2.1a2 2 0 0 0-1.3.4c-.4.3-.5.7-.5 1.2v7.3h-3.2v-6.8c0-1.4-.5-2.1-1.5-2.1a2.3 2.3 0 0 0-1.3.4l-.4.5-.2.7v7.3h-3Zm23.5.2c-.8 0-1.5-.1-2.2-.4-.6-.3-1.2-.6-1.6-1.2-.5-.5-.8-1-1-1.8a6 6 0 0 1-.4-2.4c0-1 .1-1.7.4-2.5a4 4 0 0 1 1-1.8c.4-.5 1-.9 1.6-1.2.7-.2 1.4-.4 2.2-.4.9 0 1.6.2 2.2.4.7.3 1.2.7 1.7 1.2a5 5 0 0 1 1 1.8c.2.8.4 1.6.4 2.5 0 .9-.2 1.7-.4 2.4s-.6 1.3-1 1.8c-.5.6-1 1-1.7 1.2-.6.3-1.3.4-2.2.4Zm0-2.5c.7 0 1.1-.2 1.5-.6.3-.3.5-.9.5-1.6v-2.3c0-.7-.2-1.2-.5-1.6-.4-.4-.8-.6-1.5-.6-.6 0-1 .2-1.4.6-.4.4-.5 1-.5 1.6v2.3c0 .7.1 1.3.5 1.6.3.4.8.6 1.4.6Zm9.7 2.3-3.6-11.2h3l1.5 4.5 1 4h.2l1-4 1.4-4.5h3l-3.7 11.2H460Zm13.6.2a6 6 0 0 1-2.3-.4 5 5 0 0 1-1.7-1.2c-.4-.5-.8-1-1-1.8a7.8 7.8 0 0 1 0-4.8 4.5 4.5 0 0 1 2.7-3 5.2 5.2 0 0 1 4.5 0c.7.3 1.2.7 1.7 1.2.4.6.7 1.2.9 1.9l.3 2.1v1h-7.2v.1c0 .8.2 1.4.6 1.8.4.4 1 .6 1.9.6a3 3 0 0 0 1.6-.3l1.1-1 1.6 2a5 5 0 0 1-2 1.3 6 6 0 0 1-2.7.5Zm0-9.4c-.7 0-1.2.3-1.6.7-.3.4-.5 1-.5 1.6v.2h4v-.2c0-.7-.2-1.2-.6-1.6-.3-.4-.7-.7-1.4-.7Zm14.2 7.3h-.2a3 3 0 0 1-1 1.5l-1 .4a3 3 0 0 1-1 .2c-1.4 0-2.4-.5-3.2-1.5-.7-1-1-2.4-1-4.3 0-2 .3-3.4 1-4.4.8-1 1.8-1.5 3.2-1.5.8 0 1.4.2 2 .6.5.4.9 1 1 1.6h.2v-6.5h3.1v15.8h-3v-2Zm-2.1-.4c.6 0 1-.2 1.5-.5.4-.3.6-.7.6-1.2V466c0-.5-.2-.9-.6-1.2-.4-.3-1-.4-1.5-.4a2 2 0 0 0-1.5.6c-.4.4-.6 1-.6 1.7v2c0 .6.2 1.2.6 1.6.4.5.9.7 1.5.7Zm17.7 2.5c-.8 0-1.5-.1-2.2-.4-.6-.3-1.2-.6-1.6-1.2-.5-.5-.8-1-1-1.8a6 6 0 0 1-.4-2.4c0-1 .1-1.7.3-2.5.3-.7.6-1.3 1-1.8.5-.5 1-.9 1.7-1.2.7-.2 1.4-.4 2.2-.4.8 0 1.6.2 2.2.4.7.3 1.2.7 1.7 1.2a5 5 0 0 1 1 1.8c.2.8.4 1.6.4 2.5 0 .9-.2 1.7-.4 2.4s-.6 1.3-1 1.8c-.5.6-1 1-1.7 1.2a5 5 0 0 1-2.2.4Zm0-2.5a2 2 0 0 0 1.5-.6c.3-.3.5-.9.5-1.6v-2.3c0-.7-.2-1.2-.5-1.6-.4-.4-.9-.6-1.5-.6s-1 .2-1.4.6c-.4.4-.5 1-.5 1.6v2.3c0 .7.1 1.3.5 1.6.3.4.8.6 1.4.6Zm9.7 2.3-3.6-11.2h3l1.5 4.5 1 4h.2l1-4 1.4-4.5h3l-3.7 11.2h-3.8Zm13.6.2a6 6 0 0 1-2.3-.4 5 5 0 0 1-1.7-1.2c-.4-.5-.8-1-1-1.8a7.8 7.8 0 0 1 0-4.8 4.5 4.5 0 0 1 2.7-3 5.2 5.2 0 0 1 4.5 0c.7.3 1.2.7 1.7 1.2.4.6.7 1.2.9 1.9l.3 2.1v1h-7.2v.1c0 .8.2 1.4.6 1.8.4.4 1 .6 1.9.6a3 3 0 0 0 1.6-.3l1.1-1 1.6 2a5 5 0 0 1-2 1.3 6 6 0 0 1-2.7.5Zm0-9.4c-.7 0-1.2.3-1.6.7-.3.4-.5 1-.5 1.6v.2h4v-.2c0-.7-.2-1.2-.6-1.6-.3-.4-.7-.7-1.4-.7Zm7.3 9.2V462h3.1v2.4h.1a3.3 3.3 0 0 1 .9-1.7c.2-.2.5-.4.9-.5l1.1-.2h.6v3h-.8c-1 0-1.6 0-2.1.3-.4.2-.7.7-.7 1.3v6.6h-3.1Zm-430.3 28v-2.6h4v-10h-.2l-3 4-2-1.6 3.5-4.7h4.9v12.3h3.1v2.6h-10.3Zm14-3.6c.7 0 1.2.1 1.5.5.3.3.4.7.4 1.2v.4c0 .9-.2 1.7-.6 2.5-.4.9-1 1.6-1.6 2h-2.2c.5-.4 1-.8 1.3-1.3.4-.5.6-1 .8-1.5-.5-.1-.8-.3-1-.6-.3-.3-.4-.7-.4-1.1v-.4c0-.5.1-1 .4-1.2.3-.4.8-.5 1.5-.5Zm9.7 3.8a5 5 0 0 1-4.3-2 9.8 9.8 0 0 1-1.4-5.7c0-2.4.5-4.3 1.4-5.6 1-1.4 2.4-2 4.3-2 2 0 3.4.6 4.4 2a9.8 9.8 0 0 1 1.4 5.6c0 2.5-.5 4.3-1.4 5.7-1 1.3-2.4 2-4.4 2Zm0-2.7c.9 0 1.5-.3 1.8-1 .3-.6.5-1.4.5-2.6v-2.8a6 6 0 0 0-.5-2.6c-.3-.6-1-1-1.8-1s-1.4.4-1.7 1c-.4.6-.5 1.5-.5 2.6v2.8c0 1.2.1 2 .5 2.7.3.6.9 1 1.7 1Zm12.8 2.7c-2 0-3.4-.7-4.3-2a9.8 9.8 0 0 1-1.4-5.7c0-2.4.4-4.3 1.4-5.6 1-1.4 2.4-2 4.3-2 2 0 3.4.6 4.3 2 1 1.3 1.4 3.2 1.4 5.6 0 2.5-.4 4.3-1.4 5.7a5 5 0 0 1-4.3 2Zm0-2.7c.9 0 1.4-.3 1.8-1 .3-.6.5-1.4.5-2.6v-2.8a6 6 0 0 0-.5-2.6c-.3-.6-1-1-1.8-1s-1.4.4-1.8 1c-.3.6-.4 1.5-.4 2.6v2.8c0 1.2.1 2 .4 2.7.4.6 1 1 1.8 1Zm12.8 2.7c-2 0-3.4-.7-4.3-2a9.8 9.8 0 0 1-1.5-5.7c0-2.4.5-4.3 1.5-5.6.9-1.4 2.3-2 4.3-2s3.4.6 4.3 2c1 1.3 1.4 3.2 1.4 5.6 0 2.5-.5 4.3-1.4 5.7-1 1.3-2.4 2-4.3 2Zm0-2.7c.8 0 1.4-.3 1.7-1 .4-.6.5-1.4.5-2.6v-2.8c0-1.1-.1-2-.5-2.6-.3-.6-.9-1-1.7-1-.9 0-1.5.4-1.8 1a6 6 0 0 0-.5 2.6v2.8c0 1.2.2 2 .5 2.7.3.6 1 1 1.8 1Zm9.7-1.1c.6 0 1 .1 1.4.5.3.3.4.7.4 1.2v.4c0 .9-.2 1.7-.6 2.5-.4.9-1 1.6-1.6 2h-2.2c.5-.4 1-.8 1.3-1.3.4-.5.6-1 .8-1.5-.5-.1-.8-.3-1-.6-.3-.3-.4-.7-.4-1.1v-.4c0-.5.1-1 .4-1.2.3-.4.8-.5 1.5-.5Zm9.6 3.8a5 5 0 0 1-4.3-2 9.8 9.8 0 0 1-1.4-5.7c0-2.4.5-4.3 1.4-5.6 1-1.4 2.4-2 4.3-2 2 0 3.4.6 4.4 2a9.8 9.8 0 0 1 1.4 5.6c0 2.5-.5 4.3-1.4 5.7-1 1.3-2.4 2-4.4 2Zm0-2.7c.9 0 1.5-.3 1.8-1 .3-.6.5-1.4.5-2.6v-2.8a6 6 0 0 0-.5-2.6c-.3-.6-1-1-1.8-1s-1.4.4-1.7 1c-.4.6-.5 1.5-.5 2.6v2.8c0 1.2.1 2 .5 2.7.3.6.9 1 1.7 1Zm12.8 2.7c-2 0-3.4-.7-4.3-2a9.8 9.8 0 0 1-1.4-5.7c0-2.4.4-4.3 1.4-5.6 1-1.4 2.4-2 4.3-2 2 0 3.4.6 4.3 2 1 1.3 1.4 3.2 1.4 5.6 0 2.5-.4 4.3-1.4 5.7-.9 1.3-2.3 2-4.3 2Zm0-2.7c.9 0 1.5-.3 1.8-1 .3-.6.5-1.4.5-2.6v-2.8a6 6 0 0 0-.5-2.6c-.3-.6-1-1-1.8-1s-1.4.4-1.8 1c-.3.6-.4 1.5-.4 2.6v2.8c0 1.2.1 2 .4 2.7.4.6 1 1 1.8 1Zm12.8 2.7c-2 0-3.4-.7-4.3-2a9.8 9.8 0 0 1-1.4-5.7c0-2.4.4-4.3 1.4-5.6.9-1.4 2.3-2 4.3-2s3.4.6 4.3 2c1 1.3 1.4 3.2 1.4 5.6 0 2.5-.5 4.3-1.4 5.7-1 1.3-2.4 2-4.3 2Zm0-2.7c.8 0 1.4-.3 1.7-1 .4-.6.5-1.4.5-2.6v-2.8c0-1.1-.1-2-.5-2.6-.3-.6-.9-1-1.7-1-.9 0-1.5.4-1.8 1a6 6 0 0 0-.5 2.6v2.8c0 1.2.2 2 .5 2.7.3.6 1 1 1.8 1Zm12.9-8.7h3.1v1.9h.1a3 3 0 0 1 1-1.6c.7-.4 1.3-.6 2-.6 1.4 0 2.5.5 3.2 1.5.8 1 1.1 2.5 1.1 4.4 0 1.9-.3 3.3-1 4.3a4 4 0 0 1-3.3 1.5c-.3 0-.7 0-1-.2-.3 0-.6-.2-1-.4l-.6-.7a3 3 0 0 1-.4-.8v6.1h-3.2V490Zm5.2 8.9c.6 0 1-.2 1.4-.7.4-.4.6-1 .6-1.7v-1.9c0-.7-.2-1.3-.6-1.7-.3-.4-.8-.6-1.4-.6-.6 0-1.1.1-1.5.4-.4.3-.6.7-.6 1.2v3.3c0 .5.2 1 .6 1.2.4.3.9.5 1.5.5Zm12.3 2.5c-.9 0-1.6-.1-2.3-.4-.6-.3-1.1-.6-1.6-1.2-.4-.5-.8-1-1-1.8a6 6 0 0 1-.4-2.4c0-1 .1-1.7.4-2.5a4.5 4.5 0 0 1 2.7-3c.6-.2 1.3-.4 2.2-.4.8 0 1.5.2 2.1.4.7.3 1.2.7 1.7 1.2a5 5 0 0 1 1 1.8c.3.8.4 1.6.4 2.5a6 6 0 0 1-.4 2.4c-.2.7-.6 1.3-1 1.8-.5.6-1 1-1.7 1.2-.6.3-1.3.4-2.1.4Zm0-2.5c.6 0 1-.2 1.4-.6.3-.3.5-.9.5-1.6v-2.3c0-.7-.2-1.2-.5-1.6-.3-.4-.8-.6-1.4-.6-.7 0-1.2.2-1.5.6-.3.4-.5 1-.5 1.6v2.3c0 .7.2 1.3.5 1.6.3.4.8.6 1.5.6Zm14 .4a3.5 3.5 0 0 1-1 1.5 3 3 0 0 1-1 .4c-.3.2-.7.2-1.2.2-1.1 0-2-.4-2.6-1.1-.6-.8-.9-1.9-.9-3.3v-7h3.2v6.7c0 .7 0 1.2.3 1.6.3.4.7.6 1.3.6a2.6 2.6 0 0 0 1.3-.4l.5-.6.1-.7V490h3.2v11.2h-3.2v-2Zm6.1 1.9V490h3.2v1.9h.1a4 4 0 0 1 1-1.5 3 3 0 0 1 2.1-.7c1.2 0 2 .4 2.6 1.2a5 5 0 0 1 1 3.3v7h-3.2v-6.8a3 3 0 0 0-.4-1.6c-.2-.3-.6-.5-1.2-.5a2.6 2.6 0 0 0-1.4.4l-.5.5-.1.7v7.3h-3.2Zm19.6-2h-.1a3 3 0 0 1-1.1 1.6l-1 .4a3 3 0 0 1-1 .2c-1.4 0-2.4-.5-3.2-1.5-.7-1-1-2.4-1-4.3 0-2 .3-3.4 1-4.4.8-1 1.8-1.5 3.3-1.5.7 0 1.3.2 1.9.6.5.4 1 1 1 1.6h.2v-6.5h3.1v15.8h-3.1v-2Zm-2.1-.3c.6 0 1-.2 1.5-.5.4-.3.6-.7.6-1.2V494c0-.5-.2-.9-.6-1.2-.4-.3-.9-.4-1.5-.4a2 2 0 0 0-1.5.6c-.4.4-.6 1-.6 1.7v2c0 .6.2 1.2.6 1.6.4.5 1 .7 1.5.7Zm12 2.5c-1.1 0-2-.2-2.8-.5-.7-.4-1.4-.8-2-1.5l2-1.9c.3.5.7.8 1.2 1 .5.3 1 .5 1.7.5.6 0 1-.1 1.3-.3.2-.2.3-.5.3-.8 0-.5-.3-.8-1.1-1h-1.2c-2.5-.4-3.8-1.5-3.8-3.5a3.3 3.3 0 0 1 1.2-2.6 4 4 0 0 1 1.3-.8c.6-.2 1.2-.3 1.9-.3a8 8 0 0 1 2.7.5l1 .5.8.8-1.8 1.8a4 4 0 0 0-2.6-1.1c-.5 0-.9 0-1.1.2-.2.2-.4.4-.4.7 0 .3.1.5.3.7.1.2.5.3 1 .4l1.2.1c2.4.3 3.7 1.5 3.7 3.4 0 .5-.2 1-.4 1.5-.2.4-.5.8-1 1.2-.4.3-.9.6-1.5.7a6 6 0 0 1-2 .3Zm16.5 0c-.9 0-1.6-.1-2.2-.4a4 4 0 0 1-1.7-1.2c-.4-.5-.8-1-1-1.8a7.7 7.7 0 0 1 0-4.9c.2-.7.6-1.3 1-1.8.5-.5 1-.9 1.7-1.2.6-.2 1.3-.4 2.2-.4.8 0 1.5.2 2.2.4a5 5 0 0 1 2.7 3c.2.8.3 1.6.3 2.5a6 6 0 0 1-.4 2.4 4 4 0 0 1-1 1.8c-.4.6-1 1-1.6 1.2-.7.3-1.4.4-2.2.4Zm0-2.5c.6 0 1-.2 1.4-.6.4-.3.5-.9.5-1.6v-2.3c0-.7-.1-1.2-.5-1.6-.3-.4-.8-.6-1.4-.6-.7 0-1.1.2-1.5.6-.3.4-.5 1-.5 1.6v2.3c0 .7.2 1.3.5 1.6.4.4.8.6 1.5.6Zm7.9-6.5h-1.6V490h1.6v-1.3c0-1.1.3-2 .8-2.5.6-.5 1.4-.8 2.5-.8h2v2.5h-2.2v2h2.3v2.5h-2.3v8.8h-3.1v-8.8Zm18.3 9a6 6 0 0 1-2.7-.5c-.8-.3-1.5-.8-2-1.4-.6-.6-1-1.4-1.4-2.3-.3-1-.4-2.1-.4-3.4 0-1.2.1-2.3.4-3.3.3-1 .8-1.8 1.3-2.4.6-.7 1.3-1.2 2.1-1.5a7 7 0 0 1 2.7-.6 6 6 0 0 1 3.4.9c1 .5 1.7 1.4 2.2 2.6l-2.8 1.5a3 3 0 0 0-1-1.5c-.3-.4-1-.6-1.8-.6a3 3 0 0 0-2.3 1 4 4 0 0 0-.8 2.6v2.4c0 1.2.3 2.1.8 2.7a3 3 0 0 0 2.3 1c.8 0 1.5-.3 2-.7.4-.4.8-1 1-1.6l2.6 1.6c-.5 1.1-1.3 2-2.2 2.6-.9.6-2 1-3.4 1Zm13.6 0a6 6 0 0 1-2.7-.5c-.8-.3-1.5-.8-2-1.4a7 7 0 0 1-1.4-2.4c-.3-1-.4-2.1-.4-3.4 0-1.2.1-2.3.4-3.3.3-1 .8-1.8 1.3-2.4.6-.7 1.3-1.1 2.1-1.5a7.6 7.6 0 0 1 5.4 0 5 5 0 0 1 2 1.5 7 7 0 0 1 1.4 2.4c.3 1 .4 2 .4 3.3 0 1.3-.1 2.4-.4 3.4a8 8 0 0 1-1.4 2.4c-.5.6-1.2 1.1-2 1.4a6 6 0 0 1-2.7.5Zm0-2.9c1 0 1.7-.3 2.3-1a4 4 0 0 0 .8-2.7v-2.2c0-1.2-.3-2-.8-2.7-.6-.7-1.3-1-2.3-1-1 0-1.8.3-2.3 1-.5.6-.8 1.5-.8 2.7v2.2c0 1.2.3 2.1.8 2.8a3 3 0 0 0 2.3 1Zm19.3 2.7h-10.5v-3l4.6-3.9a19.4 19.4 0 0 0 1.7-1.8l.4-.8.1-.9v-.3a1.6 1.6 0 0 0-.6-1.3 2.3 2.3 0 0 0-1.3-.4c-.4 0-.7 0-1 .2l-.7.4-.4.7c-.2.2-.3.5-.3.8l-2.8-1 .7-1.5a4.8 4.8 0 0 1 2.7-2c.6-.3 1.3-.4 2-.4.9 0 1.6.2 2.2.4.6.2 1.2.5 1.6 1 .4.3.8.8 1 1.3l.3 1.8c0 .7 0 1.2-.3 1.8a9 9 0 0 1-2.1 2.8l-1.5 1.2-2.8 2.2h7v2.7Zm8.3-9.2h-1.7v-2h1.7v-1.7c0-1 .3-1.6.7-2.1.5-.5 1.2-.8 2.1-.8h1.9v1.9h-2.3v2.8h2.3v1.9h-2.3v9.2h-2.4V492Zm6.7 9.2V490h2.3v2.1h.1c.2-.6.5-1 1-1.5a3 3 0 0 1 2-.6h.7v2.2h-1c-.9 0-1.6.2-2 .5-.5.3-.8.7-.8 1.3v7h-2.3Zm12.4.2c-.8 0-1.5-.1-2.1-.4-.6-.3-1.2-.6-1.6-1.1-.5-.5-.8-1.2-1-1.9a6 6 0 0 1-.4-2.4c0-.9.1-1.7.4-2.4a4 4 0 0 1 1-1.8c.4-.5 1-.9 1.6-1.2.6-.2 1.3-.4 2-.4.9 0 1.5.2 2.2.4a4.8 4.8 0 0 1 2.6 3c.3.7.4 1.5.4 2.4a6 6 0 0 1-.4 2.4c-.2.7-.6 1.4-1 1.9s-1 .8-1.6 1.1a5 5 0 0 1-2.1.4Zm0-1.9c.8 0 1.4-.2 1.9-.7.5-.5.7-1.3.7-2.2v-2c0-.9-.2-1.6-.7-2.1-.5-.5-1.1-.8-2-.8-.7 0-1.3.3-1.8.8s-.8 1.2-.8 2.2v1.9c0 1 .3 1.7.8 2.2.5.5 1 .7 1.9.7Zm7.7 1.7V490h2.3v1.8l.5-.8.6-.7.8-.4 1.2-.2c.7 0 1.4.2 2 .6.5.4 1 1 1.2 1.7.3-.6.7-1.2 1.2-1.6.6-.4 1.3-.7 2.2-.7a3 3 0 0 1 2.6 1.2c.6.7 1 1.8 1 3.1v7h-2.4v-6.7a4 4 0 0 0-.5-2 2 2 0 0 0-1.5-.6 2.8 2.8 0 0 0-1.6.5l-.5.6-.2.8v7.5h-2.3v-6.8c0-1.7-.7-2.6-2-2.6a3 3 0 0 0-1.6.5 1.7 1.7 0 0 0-.7 1.4v7.5h-2.3Zm26.8 0c-.8 0-1.4-.2-1.8-.7-.4-.4-.6-1-.6-1.7V492h-1.7v-2h.9c.4 0 .6 0 .8-.2l.2-.8v-2h2.1v3h2.3v2h-2.3v7.3h2.2v1.9h-2Zm4.8-15.8h2.3v6.5c.3-.6.7-1 1.2-1.5a3 3 0 0 1 2-.6 3 3 0 0 1 2.6 1.2c.7.7 1 1.8 1 3.1v7H427v-6.7c0-1.7-.7-2.6-2.1-2.6a3.2 3.2 0 0 0-1.7.5l-.5.6c-.2.2-.2.5-.2.8v7.5h-2.3v-15.8Zm16.7 16a5 5 0 0 1-3.8-1.5c-.4-.5-.8-1.2-1-1.9a8 8 0 0 1-.3-2.4c0-.9 0-1.7.3-2.4.2-.7.6-1.3 1-1.8.5-.5 1-.9 1.6-1.2.6-.2 1.4-.4 2.2-.4a5 5 0 0 1 2 .5 3 3 0 0 1 1.6 1.1c.4.5.8 1.1 1 1.8l.3 2.1v1h-7.6v.3c0 .8.2 1.5.7 2 .5.6 1.2.9 2.2.9a3 3 0 0 0 1.7-.4 4 4 0 0 0 1.2-1.3l1.4 1.4a4 4 0 0 1-1.8 1.6 6 6 0 0 1-2.7.6Zm0-9.8-1.2.3c-.3.1-.6.3-.8.6a2 2 0 0 0-.5.9c-.2.3-.2.7-.2 1.1v.2h5.1v-.2a3 3 0 0 0-.6-2c-.5-.6-1-.9-1.8-.9Zm20.6 9.6c-.6 0-1-.2-1.4-.6-.3-.3-.5-.8-.6-1.3h-.1c-.2.7-.6 1.2-1.2 1.6-.6.3-1.2.5-2 .5-1.2 0-2.1-.3-2.7-.9-.6-.6-1-1.4-1-2.4s.5-2 1.3-2.5 2-.8 3.5-.8h2v-1c0-.6-.2-1.2-.6-1.5-.3-.4-1-.6-1.7-.6-.6 0-1.2.2-1.6.5-.4.2-.7.6-1 1L449 492c.4-.6.9-1.2 1.5-1.6a5 5 0 0 1 2.7-.6c1.4 0 2.5.4 3.3 1a4 4 0 0 1 1.1 3v5.5h1.2v1.9h-1.3Zm-4.7-1.6c.7 0 1.3-.1 1.8-.4.5-.3.7-.8.7-1.3v-1.6h-2c-1.6 0-2.4.5-2.4 1.5v.4c0 .5.2.8.5 1 .4.3.8.4 1.4.4Zm11.3 1.6c-.8 0-1.5-.2-1.9-.7-.4-.4-.6-1-.6-1.7V492H460v-2h1c.3 0 .6 0 .7-.2.2-.1.3-.4.3-.8v-2h2v3h2.4v2H464v7.3h2.2v1.9h-2Zm4.7 0V490h2.3v1.8h.1l.4-.8.6-.7.8-.4 1.2-.2c.7 0 1.4.2 2 .6.5.4 1 1 1.2 1.7h.1a3.5 3.5 0 0 1 3.3-2.3c1.2 0 2 .4 2.6 1.2.6.7 1 1.8 1 3.1v7H482v-6.7c0-.8-.1-1.5-.5-2a2 2 0 0 0-1.5-.6 2.8 2.8 0 0 0-1.6.5l-.5.6-.2.8v7.5h-2.3v-6.8c0-1.7-.7-2.6-2-2.6a3 3 0 0 0-1.6.5 1.7 1.7 0 0 0-.7 1.4v7.5h-2.3Zm23.1.2c-.8 0-1.5-.1-2.1-.4-.6-.3-1.2-.6-1.6-1.1-.4-.5-.8-1.2-1-1.9a6 6 0 0 1-.4-2.4c0-.9.1-1.7.4-2.4a4.8 4.8 0 0 1 2.6-3 5.4 5.4 0 0 1 4.1 0c.7.3 1.3.7 1.7 1.2.4.5.8 1.1 1 1.8.3.7.4 1.5.4 2.4a6 6 0 0 1-.4 2.4c-.2.7-.6 1.4-1 1.9s-1 .8-1.6 1.1c-.6.3-1.3.4-2.1.4Zm0-1.9c.8 0 1.4-.2 2-.7.4-.5.6-1.3.6-2.2v-2c0-.9-.2-1.6-.7-2.1-.5-.5-1.1-.8-1.9-.8a3 3 0 0 0-2 .8c-.4.5-.6 1.2-.6 2.2v1.9c0 1 .2 1.7.7 2.2.5.5 1.1.7 1.9.7Zm11.2 2c-1 0-2-.3-2.6-.6a6 6 0 0 1-1.9-1.6l1.5-1.3c.4.5.9.9 1.4 1.1.5.3 1 .4 1.7.4s1.2 0 1.5-.3c.4-.3.5-.7.5-1.1 0-.4 0-.7-.3-1-.2-.2-.7-.4-1.2-.4l-1-.2c-1.2-.1-2-.4-2.7-1-.7-.5-1-1.2-1-2.3 0-.5.1-1 .3-1.4.2-.4.5-.8.8-1 .4-.4.8-.6 1.3-.7.5-.2 1.1-.3 1.7-.3 1 0 1.8.2 2.4.5.7.3 1.2.7 1.7 1.3L506 493a3.2 3.2 0 0 0-2.7-1.3c-.6 0-1.1.1-1.4.4-.3.2-.5.6-.5 1s.2.7.4 1c.3.2.7.3 1.3.4l1 .1c1.3.2 2.2.6 2.7 1.1.6.6.9 1.3.9 2.2a3.1 3.1 0 0 1-1.2 2.6l-1.4.7a6 6 0 0 1-1.8.2Zm7-11.4h2.3v1.8h.1a3 3 0 0 1 1.2-1.5c.6-.4 1.2-.6 2-.6 1.3 0 2.4.5 3.2 1.6.8 1 1.1 2.4 1.1 4.2a7 7 0 0 1-1.1 4.3 4 4 0 0 1-3.3 1.5c-.7 0-1.3-.2-1.9-.5-.5-.4-1-1-1.2-1.6v6.1h-2.4v-15.3Zm4.8 9.3c.8 0 1.5-.2 2-.8a3 3 0 0 0 .7-2v-2c0-.8-.2-1.5-.7-2-.5-.5-1.2-.8-2-.8a3 3 0 0 0-1.8.6c-.4.3-.7.8-.7 1.3v3.8c0 .6.3 1 .7 1.4.5.3 1.1.5 1.8.5Zm7.8-14h2.3v6.5h.1c.3-.6.6-1 1.1-1.5.5-.4 1.2-.6 2-.6 1.2 0 2 .4 2.7 1.2.6.7 1 1.8 1 3.1v7h-2.4v-6.7c0-1.7-.7-2.6-2-2.6a3.2 3.2 0 0 0-1.7.5l-.6.6-.2.8v7.5h-2.3v-15.8Zm16.7 16c-.8 0-1.5-.1-2.1-.4a4.4 4.4 0 0 1-2.6-3 8 8 0 0 1-.4-2.4c0-.9.1-1.7.4-2.4a4 4 0 0 1 1-1.8c.4-.5 1-.9 1.6-1.2.6-.2 1.3-.4 2.1-.4a5 5 0 0 1 2.1.5 3 3 0 0 1 1.6 1.1 7 7 0 0 1 1.2 3.9v1h-7.6v.3c0 .8.3 1.5.8 2 .5.6 1.2.9 2.1.9.7 0 1.3-.1 1.8-.4a4 4 0 0 0 1.2-1.3l1.3 1.4a4 4 0 0 1-1.8 1.6 6 6 0 0 1-2.7.6Zm0-9.8a2 2 0 0 0-1.1.3l-.9.6a2 2 0 0 0-.5.9l-.2 1.1v.2h5.2v-.2a3 3 0 0 0-.7-2 2 2 0 0 0-1.8-.9Zm7.5 9.6V490h2.3v2.1h.1c.2-.6.5-1 1-1.5a3 3 0 0 1 2-.6h.7v2.2h-1c-.9 0-1.6.2-2 .5-.5.3-.8.7-.8 1.3v7H547Zm12.4.2c-.8 0-1.5-.1-2.1-.4a4.4 4.4 0 0 1-2.6-3 8 8 0 0 1-.4-2.4c0-.9.1-1.7.3-2.4.3-.7.6-1.3 1-1.8.5-.5 1-.9 1.7-1.2.6-.2 1.3-.4 2-.4a5 5 0 0 1 2.2.5c.6.2 1.2.6 1.6 1.1a7 7 0 0 1 1.2 3.9v1h-7.6v.3c0 .8.2 1.5.7 2a3 3 0 0 0 2.2.9c.7 0 1.3-.1 1.7-.4a4 4 0 0 0 1.2-1.3l1.4 1.4a4 4 0 0 1-1.8 1.6 6 6 0 0 1-2.7.6Zm0-9.8a2 2 0 0 0-1.1.3l-.9.6a2 2 0 0 0-.5.9l-.2 1.1v.2h5.2v-.2a3 3 0 0 0-.7-2 2 2 0 0 0-1.8-.9Zm8.5 9.8c-.5 0-.9-.1-1.1-.4-.3-.3-.4-.6-.4-1v-.4c0-.4.1-.7.4-1 .2-.3.6-.4 1.1-.4.6 0 1 .1 1.2.4.3.3.4.6.4 1v.4c0 .4-.1.7-.4 1-.3.3-.6.4-1.2.4Z"/><path fill="#000" d="M137.6 227h-36.8v4.5h16V266h4.7v-34.5h16.1V227Zm46.7 0v17.2h-36.8v-17.3H143V266h4.5v-17.2h36.8V266h4.6v-39h-4.6Zm18.1 39v-39h-4.6v39h4.6Zm47.4-17.2c.5 0 1 .2 1.5.6.4.4.6 1 .6 1.4v5.5l-.2 3.4c0 .5-.2 1-.6 1.4a2 2 0 0 1-1.4.7 311 311 0 0 1-32.4 0 2 2 0 0 1-1.4-.7c-.4-.4-.6-.9-.7-1.4v-3.4h-4.7l.1 3.6a7 7 0 0 0 6.5 6.5 399.6 399.6 0 0 0 32.8 0 7 7 0 0 0 6.5-6.5v-9.3c0-3.4-2.9-6.3-6.4-6.4h-32.8c-.5 0-1-.3-1.5-.7a2 2 0 0 1-.6-1.4v-5.4l.2-3.4c0-.6.2-1.1.6-1.5a2 2 0 0 1 1.4-.6 311 311 0 0 1 32.4 0c.5 0 1 .2 1.4.6.4.4.6 1 .7 1.5v3.4h4.7l-.1-3.7c-.2-3.4-3-6.2-6.5-6.4a320.9 320.9 0 0 0-32.8 0 7 7 0 0 0-6.5 6.4v9.3c0 3.5 2.9 6.3 6.4 6.5h32.8Zm85.5-15.4a7 7 0 0 0-6.5-6.5h-39.5V266h4.6v-14.9h34.9c3.5-.1 6.3-3 6.5-6.5v-11.2ZM330 246c-.4.4-1 .6-1.5.6h-34.7v-15h34.7c.5 0 1 .3 1.5.7.4.4.6.9.6 1.4v10.8c0 .6-.2 1-.6 1.5Zm45.4 20.1h5l-17.9-39h-10.2l-17.9 39h5l4-8.4h28.1l3.9 8.4Zm-30-13 9.9-21.5h4.2l9.9 21.5h-24Zm54.5-4.1h25c.6 0 1 .2 1.5.6.3.4.6.9.6 1.5v5.3l-.1 3.4c-.1.5-.3 1-.7 1.4a2 2 0 0 1-1.5.7 330.7 330.7 0 0 1-33.3 0c-.5 0-1.1-.3-1.5-.7-.4-.4-.6-1-.6-1.4-.5-8.8-.5-17.7 0-26.4 0-.6.2-1 .6-1.5.4-.3 1-.6 1.5-.6a416.1 416.1 0 0 1 33.3 0c.6 0 1 .3 1.5.6.4.4.6 1 .7 1.5v3.4h4.7l-.2-3.6c-.1-3.5-3-6.3-6.4-6.5a342.4 342.4 0 0 0-33.8 0 7 7 0 0 0-6.5 6.5c-.5 9-.5 17.9 0 26.8.2 3.5 3 6.3 6.5 6.4a338 338 0 0 0 33.8 0c3.5 0 6.3-3 6.4-6.4l.2-3.6v-5.6c-.2-3.5-3-6.3-6.5-6.4H400v4.6Zm76.6-17.4V227h-36.8v39h36.8v-4.6h-32.2v-12.6h32.2v-4.6h-32.2v-12.7h32.2ZM109 320v-39h-4.6v39h4.6Zm47.4-17.2c.5 0 1 .2 1.5.6.4.4.6 1 .6 1.5v5.4l-.2 3.4c0 .5-.2 1-.6 1.4a2 2 0 0 1-1.4.7 311 311 0 0 1-32.4 0 2 2 0 0 1-1.4-.7c-.4-.4-.6-.9-.7-1.4l-.1-3.4h-4.6l.1 3.6a7 7 0 0 0 6.5 6.5 399.6 399.6 0 0 0 32.8 0 7 7 0 0 0 6.5-6.5v-9.3a6.7 6.7 0 0 0-6.4-6.4h-32.8c-.5 0-1-.3-1.5-.7a2 2 0 0 1-.6-1.4v-5.4l.2-3.4c0-.6.2-1.1.6-1.5a2 2 0 0 1 1.4-.6 311 311 0 0 1 32.3 0 2 2 0 0 1 1.5.6c.4.4.6 1 .7 1.5v3.4h4.7l-.1-3.7c-.2-3.4-3-6.2-6.5-6.4a321 321 0 0 0-32.8 0c-3.5.2-6.3 3-6.5 6.4v9.3c0 3.5 2.9 6.3 6.4 6.5h32.8Zm81.7 10.9c0 .5-.3 1-.7 1.4a2 2 0 0 1-1.5.7 330.7 330.7 0 0 1-33.3 0c-.5 0-1.1-.3-1.5-.7-.4-.4-.6-1-.6-1.4-.4-8.8-.4-17.7 0-26.4 0-.6.2-1 .6-1.5.4-.3 1-.6 1.5-.6a416.1 416.1 0 0 1 33.3 0c.6 0 1.1.3 1.5.6.4.4.6 1 .7 1.5v3.4h4.7l-.2-3.6c-.1-3.5-3-6.3-6.4-6.5a342.5 342.5 0 0 0-33.8 0 7 7 0 0 0-6.5 6.5c-.5 9-.5 17.9 0 26.8.2 3.5 3 6.3 6.5 6.4a338.1 338.1 0 0 0 33.8 0c3.5 0 6.3-3 6.4-6.4l.2-3.6h-4.6l-.1 3.4Zm44 1.7h-27.6V281h-4.6v39h32.2v-4.6Zm42-29.9V281h-36.7v39H324v-4.6h-32v-12.6h32.2v-4.6H292v-12.7h32.2ZM369 320h5l-18-39h-10.2L328 320h5l4-8.4h28l3.9 8.4Zm-30-13 9.9-21.5h4.2L363 307h-24Zm81.6-26v34.4H419L387.2 281h-8v39h4.5v-34.5h1.3l32 34.5h8v-39h-4.5Zm50.3 4.5V281H434v39h36.8v-4.6h-32.2v-12.6h32.2v-4.6h-32.2v-12.7h32.2Zm7.4-4.6V320h4.6v-14.9h11.3L516 320h8.2l-21.9-14.9h12.5c3.5-.1 6.3-3 6.5-6.5v-11.2a7 7 0 0 0-6.5-6.5h-36.6Zm36.4 4.6c.6 0 1 .3 1.5.7.4.4.6.9.6 1.4v10.8c0 .6-.3 1-.6 1.5-.4.4-1 .6-1.5.6h-31.8v-15h31.8Zm-377 49.4h-36.8v4.6h16V374h4.7v-34.5h16.1V335Zm46.7 0v17.3h-36.8v-17.3H143V374h4.5v-17.2h36.8V374h4.6v-39h-4.6Zm50.8 39.1h5l-17.8-39H212l-18 39h5.1l3.9-8.4h28.2l3.8 8.4Zm-29.9-13 9.8-21.5h4.3L229 361h-23.9Zm81.5-26v34.4h-1.5L253.5 335h-8.1v39h4.6v-34.5h1.2l32 34.5h8.1v-39h-4.6Zm46.5-.2-10.7 9.7h6.8l5.7-5.2v34.5h4.6v-39h-6.4Zm38.8 3.5c5.6 0 11.2 0 16.7.4.6 0 1 .2 1.4.6.4.4.7.9.7 1.4.5 8.8.5 17.6 0 26.4 0 .6-.3 1-.7 1.5-.3.4-.8.6-1.4.6a413.3 413.3 0 0 1-33.4 0 2 2 0 0 1-1.4-.6 2 2 0 0 1-.6-1.5c-.5-8.8-.5-17.6 0-26.4 0-.5.2-1 .6-1.4.4-.4 1-.6 1.4-.6 5.6-.3 11.2-.4 16.7-.4Zm-16.8-4.3c-3.6.2-6.4 3-6.5 6.5-.5 9-.5 17.9 0 26.8.1 3.6 3 6.4 6.5 6.5a422.1 422.1 0 0 0 33.7 0c3.5-.1 6.3-3 6.5-6.5.5-8.9.5-17.8 0-26.8a7 7 0 0 0-6.5-6.5 429 429 0 0 0-33.7 0Zm72.8 4.3c5.5 0 11.1 0 16.7.4.5 0 1 .2 1.4.6.4.4.6.9.7 1.4.4 8.8.4 17.6 0 26.4 0 .6-.3 1-.7 1.5a2 2 0 0 1-1.4.6 413.3 413.3 0 0 1-33.4 0c-.5 0-1-.2-1.5-.6a2 2 0 0 1-.6-1.5c-.4-8.8-.4-17.6 0-26.4 0-.5.2-1 .6-1.4.4-.4 1-.6 1.5-.6 5.5-.3 11.2-.4 16.7-.4ZM411 334a7 7 0 0 0-6.5 6.5c-.5 9-.5 17.9 0 26.8.2 3.6 3 6.4 6.5 6.5a422 422 0 0 0 33.8 0c3.5-.1 6.3-3 6.5-6.5.4-8.9.4-17.8 0-26.8a7 7 0 0 0-6.5-6.5 428.9 428.9 0 0 0-33.8 0Zm93 1-18.9 16.4-3.4 3-22.4 19.6h7l18.8-16.5 3.6-3 22.3-19.6h-7Zm-38.3 19.8h7c3.4-.2 6.2-3 6.4-6.5v-6.9a7 7 0 0 0-6.5-6.5H466a7 7 0 0 0-6.5 6.5v6.8a7 7 0 0 0 6.4 6.6Zm-1.2-14.6a3 3 0 0 1 1.5-.7h6.4c.5 0 1 .3 1.4.7.4.4.7.9.7 1.4v6.5c0 .5-.3 1-.7 1.4a2 2 0 0 1-1.4.6H466c-.5 0-1.1-.2-1.5-.6-.4-.4-.6-1-.6-1.4v-6.5c0-.5.2-1 .6-1.4Zm40 14h-6.8a7 7 0 0 0-6.5 6.5v6.8a7 7 0 0 0 6.5 6.5h6.8c3.6-.1 6.4-3 6.5-6.4v-7c-.1-3.4-3-6.2-6.5-6.4Zm1.3 14.6a2 2 0 0 1-1.5.6H498c-.5 0-1-.2-1.5-.6-.4-.4-.6-1-.6-1.5V361c0-.5.2-1 .6-1.4a3 3 0 0 1 1.5-.7h6.4c.6 0 1 .3 1.5.7.4.4.6.9.6 1.4v6.4a2 2 0 0 1-.6 1.5Zm-378.1 24c5.5 0 11.1.1 16.6.4.6 0 1.1.3 1.5.6.4.4.6 1 .7 1.5.4 8.7.4 17.6 0 26.4 0 .5-.3 1-.7 1.4a2 2 0 0 1-1.5.7 330.7 330.7 0 0 1-33.3 0c-.5 0-1-.3-1.5-.7-.4-.4-.6-1-.6-1.4-.4-8.8-.4-17.7 0-26.4 0-.6.2-1 .6-1.5.4-.3 1-.6 1.5-.6 5.5-.3 11.1-.4 16.7-.4Zm-16.9-4.2a7 7 0 0 0-6.5 6.5c-.5 9-.5 17.9 0 26.8.2 3.5 3 6.3 6.5 6.4a338 338 0 0 0 33.8 0c3.5 0 6.3-3 6.5-6.4.4-9 .4-17.9 0-26.8a7 7 0 0 0-6.5-6.5 342.4 342.4 0 0 0-33.8 0Zm53.5 39.4v-17.2h29.3v-4.6h-29.3v-12.7h32.2V389h-36.8v39h4.6Zm96.1-39h-36.8v4.5h16V428h4.7v-34.5h16.1V389Zm46.7 0v17.2h-36.8v-17.3h-4.6V428h4.6v-17.2h36.8V428h4.6v-39h-4.6Zm50.3 4.5V389h-36.8v39h36.8v-4.6h-32.2v-12.6h32.2v-4.6h-32.2v-12.7h32.2Zm102-4.6-15.9 34.5-15.8-34.5h-5.1l-15.8 34.5L391 389h-5l17.8 39.1h6l15.4-33.5 15.3 33.5h6l18-39h-5.2Zm47 4.6V389h-36.8v39h36.8v-4.6h-32.2v-12.6h32.2v-4.6h-32.2v-12.7h32.2Zm49.8 11.1a6 6 0 0 0 .8-2.7v-6.5a7 7 0 0 0-6.5-6.5H514V428h39.5c3.5-.2 6.3-3 6.4-6.5v-11.2a6.7 6.7 0 0 0-3.6-5.7Zm-6-11a2 2 0 0 1 1.5.6c.4.4.6.9.7 1.4v6.1c0 .6-.3 1-.7 1.5a2 2 0 0 1-1.4.6h-31.8v-10.3h31.8Zm5 27.7a2 2 0 0 1-2 2.1h-34.7v-15h34.6c.6 0 1.1.3 1.5.6.4.4.6 1 .6 1.5v10.8Z"/><path fill="#000" d="M137.6 335h-36.8v4.5h16V374h4.7v-34.5h16.1V335Zm46.7 0v17.2h-36.8v-17.3H143V374h4.5v-17.2h36.8V374h4.6v-39h-4.6Zm50.8 39h5l-17.8-39H212l-18 39h5.1l3.9-8.4h28.2l3.8 8.4Zm-29.9-13 9.8-21.5h4.3L229 361h-23.9Zm81.5-26v34.4h-1.5L253.5 335h-8.1v39h4.6v-34.5h1.2l32 34.5h8.1v-39h-4.6Zm46.5-.2-10.7 9.7h6.8l5.7-5.2v34.5h4.6v-39h-6.4Zm38.8 3.5c5.6 0 11.2 0 16.7.4.6 0 1 .2 1.4.6.4.4.7.9.7 1.4.5 8.8.5 17.6 0 26.4 0 .6-.3 1-.7 1.5-.3.4-.8.6-1.4.6a413.3 413.3 0 0 1-33.4 0 2 2 0 0 1-1.4-.6 2 2 0 0 1-.6-1.5c-.5-8.8-.5-17.6 0-26.4 0-.5.2-1 .6-1.4.4-.4 1-.6 1.4-.6 5.6-.3 11.2-.4 16.7-.4Zm-16.8-4.3c-3.6.2-6.4 3-6.5 6.5-.5 9-.5 17.9 0 26.8.1 3.6 3 6.4 6.5 6.5a422.1 422.1 0 0 0 33.7 0c3.5-.1 6.3-3 6.5-6.5.5-8.9.5-17.8 0-26.8a7 7 0 0 0-6.5-6.5 429 429 0 0 0-33.7 0Zm72.8 4.3c5.5 0 11.1 0 16.7.4.5 0 1 .2 1.4.6.4.4.6.9.7 1.4.4 8.8.4 17.6 0 26.4 0 .6-.3 1-.7 1.5a2 2 0 0 1-1.4.6 413.3 413.3 0 0 1-33.4 0c-.5 0-1-.2-1.5-.6a2 2 0 0 1-.6-1.5c-.4-8.8-.4-17.6 0-26.4 0-.5.2-1 .6-1.4.4-.4 1-.6 1.5-.6 5.5-.3 11.2-.4 16.7-.4Zm-17-4.3a7 7 0 0 0-6.5 6.5c-.5 9-.5 17.9 0 26.8.2 3.6 3 6.4 6.5 6.5a422 422 0 0 0 33.8 0c3.5-.1 6.3-3 6.5-6.5.4-8.9.4-17.8 0-26.8a7 7 0 0 0-6.5-6.5 428.9 428.9 0 0 0-33.8 0Zm93 1-18.9 16.4-3.4 3-22.4 19.6h7l18.8-16.5 3.6-3 22.3-19.6h-7Zm-38.3 19.8h7c3.4-.2 6.2-3 6.4-6.5v-6.9a7 7 0 0 0-6.5-6.5H466a7 7 0 0 0-6.5 6.5v6.8a7 7 0 0 0 6.4 6.6Zm-1.2-14.6a3 3 0 0 1 1.5-.7h6.4c.5 0 1 .3 1.4.7.4.4.7.9.7 1.4v6.5c0 .5-.3 1-.7 1.4a2 2 0 0 1-1.4.6H466c-.5 0-1.1-.2-1.5-.6-.4-.4-.6-1-.6-1.4v-6.5c0-.5.2-1 .6-1.4Zm40 14h-6.8a7 7 0 0 0-6.5 6.5v6.8a7 7 0 0 0 6.5 6.5h6.8c3.6-.1 6.4-3 6.5-6.4v-7c-.1-3.4-3-6.2-6.5-6.4Zm1.3 14.6a2 2 0 0 1-1.5.6H498c-.5 0-1-.2-1.5-.6-.4-.4-.6-1-.6-1.5V361c0-.5.2-1 .6-1.4a3 3 0 0 1 1.5-.7h6.4c.6 0 1 .3 1.5.7.4.4.6.9.6 1.4v6.4a2 2 0 0 1-.6 1.5Z"/><path fill="#000" d="M137.6 335h1v-1h-1v1Zm-36.8 0v-1h-.8v1h.8Zm0 4.5h-.8v.9h.8v-.9Zm16 0h1v-.9h-1v1Zm0 34.5h-.8v.9h.9v-.9Zm4.7 0v.9h1v-.9h-1Zm0-34.5v-.9h-.9v1h1Zm16.1 0v.9h1v-.9h-1Zm0-5.5h-36.8v1.8h36.8V334Zm-37.6 1v4.5h1.7V335H100Zm.8 5.4h16v-1.8h-16v1.8Zm15.2-.9V374h1.8v-34.5H116Zm.9 35.4h4.6V373H117v1.8Zm5.5-.9v-34.5h-1.8V374h1.8Zm-.9-33.6h16.1v-1.8h-16v1.8Zm17-.9V335h-1.8v4.6h1.8Zm45.8-4.6v-.9h-.9v1h1Zm0 17.3v.9h1v-.9h-1Zm-36.8 0h-.8v.9h.8v-.9Zm0-17.3h1v-.9h-1v1Zm-4.5 0v-.9h-1v1h1Zm0 39.1h-1v.9h1v-.9Zm4.5 0v.9h1v-.9h-1Zm0-17.2v-1h-.8v1h.8Zm36.8 0h1v-1h-1v1Zm0 17.2h-.9v.9h1v-.9Zm4.6 0v.9h.9v-.9h-.9Zm0-39h.9v-1h-.9v1Zm-5.5 0v17.2h1.8v-17.3h-1.8Zm1 16.3h-36.9v1.8h36.8v-1.8Zm-36 .9v-17.3h-1.7v17.3h1.7Zm-.9-18.2H143v1.8h4.5V334Zm-5.4 1v39h1.7v-39h-1.7Zm.9 39.9h4.5V373H143v1.8Zm5.4-.9v-17.2h-1.7V374h1.7Zm-.9-16.3h36.8v-1.8h-36.8v1.8Zm36-1V374h1.7v-17.2h-1.8Zm.8 18.2h4.6V373h-4.6v1.8Zm5.5-.9v-39H188v39h1.8Zm-.9-40h-4.6v1.8h4.6V334Zm46.2 40-.8.4.2.5h.6v-.9Zm5 0v.9h1.4l-.6-1.3-.8.4Zm-17.8-39 .8-.4-.3-.6h-.5v1Zm-10.2 0v-1h-.6l-.2.6.8.3Zm-18 39-.7-.4-.6 1.3h1.4v-.9Zm5.1 0v.9h.6l.2-.5-.8-.4Zm3.9-8.4v-.9h-.6l-.2.5.8.4Zm28.2 0 .8-.4-.3-.5h-.5v1Zm-26.1-4.6-.8-.4-.6 1.3h1.4v-1Zm9.8-21.5v-.9h-.5l-.3.5.8.4Zm4.3 0 .8-.4-.2-.5h-.6v1ZM229 361v.9h1.4l-.6-1.3-.8.4Zm6 13.9h5V373h-5v1.8Zm5.8-1.3-17.8-39-1.7.7 18 39 1.5-.7ZM222.3 334H212v1.8h10.2V334Zm-11 .6-18 39 1.7.8 17.9-39.1-1.6-.7Zm-17.1 40.3h5V373h-5v1.8Zm5.8-.5 3.9-8.4-1.6-.8-3.9 8.4 1.6.8Zm3-7.9h28.3v-1.8H203v1.8Zm27.4-.5 4 8.4 1.5-.8-3.8-8.4-1.7.8Zm-24.4-4.7 9.8-21.4-1.6-.8-9.8 21.5 1.6.7Zm9-21h4.3v-1.7H215v1.8Zm3.5-.4 9.8 21.4 1.6-.7-9.8-21.5-1.6.8ZM229 360h-23.9v1.8h24V360Zm57.6-25.2v-.9h-.8v1h.8Zm0 34.5v.9h1v-.9h-1Zm-1.5 0-.6.6.2.3h.4v-.9ZM253.5 335l.6-.6-.2-.3h-.4v1Zm-8.1 0v-.9h-1v1h1Zm0 39.1h-1v.9h1v-.9Zm4.6 0v.9h.8v-.9h-.8Zm0-34.5v-.9h-1v1h1Zm1.2 0 .7-.6-.3-.3h-.4v1Zm32 34.5-.6.6.2.3h.4v-.9Zm8.1 0v.9h1v-.9h-1Zm0-39h1v-1h-1v1Zm-5.4 0v34.4h1.7V335H286Zm.8 33.5h-1.5v1.8h1.5v-1.8Zm-.8.3L254 334.3l-1.3 1.2 31.8 34.5 1.3-1.2ZM253.5 334h-8.1v1.8h8V334Zm-9 1v39h1.8v-39h-1.8Zm.9 39.9h4.6V373h-4.6v1.8Zm5.4-.9v-34.5h-1.7V374h1.7Zm-.8-33.6h1.2v-1.8H250v1.8Zm.6-.3 32 34.5 1.3-1.2-32-34.5-1.3 1.2Zm32.6 34.8h8.1V373h-8v1.8Zm9-.9v-39h-1.8v39h1.8Zm-.9-40h-4.6v1.8h4.6V334Zm41.9.8v-1h-.4l-.2.3.6.7Zm-10.7 9.7-.6-.6-1.7 1.5h2.3v-.9Zm6.8 0v1h.4l.2-.3-.6-.7Zm5.7-5.2h.9v-2l-1.5 1.4.6.6Zm0 34.5h-1v1h1v-1Zm4.6 0v1h.8v-1h-.8Zm0-39h.8v-1h-.8v1Zm-7-.7-10.7 9.8 1.2 1.3 10.7-9.8-1.2-1.3Zm-10 11.3h6.7v-1.7h-6.8v1.7Zm7.3-.2 5.7-5.2-1.2-1.3-5.7 5.2 1.2 1.3Zm4.2-5.9v34.5h1.8v-34.5H334Zm.9 35.4h4.6V373H335v1.8Zm5.4-.9v-39h-1.7v39h1.7Zm-.8-40h-6.4v1.8h6.4V334Zm49 4.9v.9-1Zm1.5.6.7-.6-.7.6Zm.7 1.4h.9-.9Zm0 26.4.9.1h-.9Zm-.7 1.5.7.6-.7-.6Zm-1.4.6v1-1Zm-33.4 0v1-1Zm-2-2h.8v-.1h-.8Zm0-26.5h.8-.8Zm.6-1.4-.7-.6.7.6Zm1.4-.6v.9-1Zm-.1-4.7v-.9 1Zm-6.5 6.5h.9-1Zm0 26.8h.9-1Zm6.5 6.5v1-1Zm33.7 0v1-1Zm6.5-6.5h-.9.9Zm0-26.8h-.9.9Zm-6.5-6.5v-.9 1Zm-16.9 5.2c5.6 0 11.1 0 16.6.4l.1-1.8c-5.5-.3-11.1-.4-16.7-.4v1.8Zm16.7.4c.3 0 .6 0 .8.3l1.3-1.2a3 3 0 0 0-2.1-1v1.9Zm.8.3c.3.2.4.6.4 1l1.8-.3c0-.7-.4-1.4-1-2l-1.2 1.3Zm.4.9c.5 8.7.5 17.5 0 26.3h1.8c.5-8.7.5-17.6 0-26.4h-1.8Zm0 26.2c0 .4-.1.7-.4 1l1.3 1.2c.5-.5.8-1.2.9-2l-1.8-.2Zm-.4 1c-.2.2-.5.3-.9.4l.2 1.7c.7 0 1.4-.3 2-.9l-1.3-1.3Zm-.8.4c-5.6.2-11.1.3-16.7.3v1.8c5.6 0 11.2-.1 16.7-.4v-1.7Zm-16.7.3a416 416 0 0 1-16.6-.3l-.1 1.7c5.5.3 11.2.4 16.7.4v-1.8Zm-16.6-.3c-.3 0-.7-.2-1-.4l-1.2 1.2c.6.6 1.4.9 2 1l.2-1.8Zm-1-.4-.3-.9h-1.7c0 .8.3 1.6.8 2.1l1.3-1.3Zm-.3-1c-.4-8.7-.4-17.5 0-26.2l-1.7-.1c-.5 8.8-.5 17.7 0 26.5l1.7-.1Zm0-26.3c0-.3.2-.6.4-.8l-1.3-1.2a3 3 0 0 0-.8 2h1.7Zm.4-.8c.2-.2.6-.3.8-.3v-1.8a3 3 0 0 0-2 .9l1.2 1.2Zm.9-.3c5.5-.3 11.1-.4 16.6-.4v-1.8c-5.5 0-11.2.1-16.7.4v1.8Zm-.3-6.5c-4 .2-7.1 3.4-7.3 7.4h1.8a6 6 0 0 1 5.6-5.6v-1.8Zm-7.3 7.4c-.5 9-.5 18 0 26.9l1.8-.1c-.5-9-.5-17.8 0-26.7l-1.8-.1Zm0 26.9c.2 4 3.3 7.1 7.3 7.3V373a6 6 0 0 1-5.5-5.6h-1.8Zm7.3 7.3c5.6.2 11.3.4 17 .4v-1.8c-5.7 0-11.3-.1-17-.4v1.8Zm17 .4c5.5 0 11.2-.2 16.9-.4l-.1-1.8c-5.7.3-11.3.4-16.9.4v1.8Zm16.9-.4c4-.2 7.1-3.3 7.3-7.3h-1.8a6 6 0 0 1-5.6 5.5v1.8Zm7.3-7.3c.4-9 .4-18 0-27l-1.8.2c.5 8.9.5 17.8 0 26.7h1.8Zm0-27c-.2-4-3.4-7-7.3-7.3l-.1 1.8a6 6 0 0 1 5.6 5.7l1.8-.1Zm-7.3-7.3-17-.3v1.7c5.6 0 11.2.2 16.9.4v-1.8Zm-17-.3c-5.6 0-11.3.1-16.9.3v1.8c5.7-.2 11.3-.4 17-.4v-1.7Zm72.7 5.9v.9-1Zm1.4.6.6-.6-.6.6Zm.7 1.4h.9-1Zm0 26.4.9.1h-1Zm-.7 1.5.6.6-.6-.6Zm-1.4.6v1-1Zm-33.4 0-.1 1v-1Zm-2-2h.8v-.1h-.9Zm0-26.5h.8-.9Zm.5-1.4-.6-.6.6.6Zm1.5-.6v.9-1Zm-.2-4.7v-.9 1Zm-6.5 6.5h1-1Zm0 26.8h1-1Zm6.5 6.5v1-1Zm33.8 0v1-1Zm6.5-6.5h-1 1Zm0-26.8h-1 1Zm-6.5-6.5v-.9 1Zm-17 5.2c5.6 0 11.2 0 16.7.4l.1-1.8c-5.6-.3-11.2-.4-16.7-.4v1.8Zm16.8.4c.3 0 .5 0 .8.3l1.2-1.2a3 3 0 0 0-2-1v1.9Zm.8.3c.2.2.4.6.4 1l1.8-.3c-.1-.7-.4-1.4-1-2l-1.2 1.3Zm.4.9c.4 8.7.4 17.5 0 26.3h1.8c.4-8.7.4-17.6 0-26.4h-1.8Zm0 26.2c0 .4-.2.7-.4 1l1.2 1.2a3 3 0 0 0 1-2l-1.8-.2Zm-.4 1-1 .4.2 1.7c.8 0 1.5-.3 2-.9l-1.2-1.3Zm-.9.4c-5.5.2-11 .3-16.6.3v1.8c5.5 0 11.1-.1 16.7-.4v-1.7Zm-16.6.3a465 465 0 0 1-16.7-.3v1.7c5.5.3 11.1.4 16.7.4v-1.8Zm-16.6-.3c-.4 0-.7-.2-1-.4l-1.2 1.2c.6.6 1.3.9 2 1l.2-1.8Zm-1-.4-.3-.9h-1.8c0 .8.3 1.6.9 2.1l1.3-1.3Zm-.3-1a229 229 0 0 1 0-26.2l-1.8-.1c-.4 8.8-.4 17.7 0 26.5l1.8-.1Zm0-26.3c0-.3.1-.6.4-.8l-1.3-1.2a3 3 0 0 0-.9 2h1.8Zm.4-.8c.2-.2.5-.3.8-.3v-1.8a3 3 0 0 0-2.1.9l1.3 1.2Zm.8-.3c5.5-.3 11.2-.4 16.7-.4v-1.8c-5.6 0-11.2.1-16.8.4l.1 1.8Zm-.2-6.5c-4 .2-7.2 3.4-7.4 7.4h1.8a6 6 0 0 1 5.7-5.6l-.1-1.8Zm-7.4 7.4c-.5 9-.5 18 0 26.9l1.8-.1c-.5-9-.5-17.8 0-26.7l-1.8-.1Zm0 26.9c.2 4 3.4 7.1 7.4 7.3V373a6 6 0 0 1-5.6-5.6h-1.8Zm7.4 7.3c5.6.2 11.2.4 16.9.4v-1.8c-5.6 0-11.3-.1-16.9-.4v1.8Zm16.9.4c5.6 0 11.3-.2 17-.4l-.2-1.8c-5.6.3-11.2.4-16.8.4v1.8Zm17-.4c3.9-.2 7-3.3 7.2-7.3h-1.7a6 6 0 0 1-5.7 5.5l.1 1.8Zm7.2-7.3c.5-9 .5-18 0-27l-1.7.2c.4 8.9.4 17.8 0 26.7h1.7Zm0-27c-.1-4-3.3-7-7.3-7.3v1.8a6 6 0 0 1 5.6 5.7l1.7-.1Zm-7.3-7.3c-5.6-.2-11.3-.3-17-.3v1.7c5.7 0 11.3.2 17 .4v-1.8Zm-17-.3-16.8.3v1.8c5.6-.2 11.3-.4 16.9-.4v-1.7Zm76.2 2.1v-.9h-.3l-.3.3.6.6Zm-18.9 16.5-.5-.7.5.7Zm-3.4 3 .6.8-.6-.7ZM459.4 374l-.6-.7-1.8 1.6h2.4v-.9Zm7 0v.9h.3l.3-.2-.6-.7Zm18.8-16.5-.5-.7.5.7Zm3.6-3 .5.7-.5-.7Zm22.3-19.6.6.7 1.8-1.6H511v1Zm-45.3 19.9v.9-1Zm7 0v.9-1Zm6.4-6.5h.9-.9Zm0-6.9h.9-.9Zm-6.5-6.5v-.9 1Zm-6.8 0v-.9 1Zm-6.5 6.5h-.9 1Zm0 6.8h-.9 1Zm5.2-8 .6.6-.6-.6Zm1.5-.7v-.9h-.1v1Zm6.4 0v-.9 1Zm1.4.7-.6.6.6-.6Zm.7 1.4h.9-.9Zm0 6.5h.9-.9Zm-10 1.4.6-.6-.6.6Zm40 4.7v-.9 1Zm-6.8 0v-.9 1Zm-6.5 6.5h-.9 1Zm0 6.8h-.9 1Zm6.5 6.5v.9-.9Zm6.8 0v.9-.9Zm6.5-6.4h.9-.9Zm0-7h1-1Zm-5.2 8.2-.7-.6.7.6Zm-9.4 0-.6.6.6-.6Zm0-9.3-.6-.7.6.7Zm1.5-.7v-.9.9Zm6.4 0 .1-.9v.9Zm1.5.7-.7.6.7-.6Zm.6 1.4h1-1Zm-3-26.6-18.8 16.4 1.1 1.4 19-16.5-1.3-1.3Zm-18.9 16.5-3.4 3 1.2 1.4 3.4-3.1-1.2-1.3Zm-3.4 3-22.4 19.5 1.2 1.4 22.4-19.5-1.2-1.4Zm-21.8 21h7v-1.7h-7v1.8Zm7.6-.1 18.8-16.5-1.1-1.4-18.9 16.5 1.2 1.4Zm18.8-16.5 3.5-3-1.1-1.4-3.5 3 1.1 1.4Zm3.5-3 22.4-19.6-1.2-1.3-22.3 19.5 1.1 1.4Zm21.8-21.2h-7v1.8h7V334Zm-45.3 21.7h7v-1.8h-7v1.8Zm7 0c4-.2 7-3.4 7.3-7.4h-1.8a6 6 0 0 1-5.6 5.6v1.8Zm7.3-7.4v-6.9h-1.8v6.9h1.8Zm0-7c-.2-4-3.4-7-7.3-7.3l-.1 1.8a6 6 0 0 1 5.6 5.7l1.8-.1Zm-7.4-7.3H466v1.8h6.8V334Zm-6.8 0c-4 .2-7.2 3.4-7.4 7.4h1.8a6 6 0 0 1 5.6-5.6V334Zm-7.4 7.4v6.8h1.8v-6.8h-1.8Zm0 6.9c.1 4 3.4 7.1 7.3 7.4v-1.8a6 6 0 0 1-5.5-5.7h-1.8Zm6.7-7.5c.3-.2.6-.4 1-.4l-.2-1.8c-.7.1-1.5.4-2 1l1.2 1.2Zm.9-.4h6.4v-1.8H466v1.8Zm6.3 0c.4 0 .7.2 1 .4l1.2-1.2c-.6-.6-1.3-.9-2-1l-.2 1.8Zm1 .4c.2.2.3.5.3 1l1.8-.3c0-.7-.4-1.4-1-2l-1.2 1.3Zm.3.8v6.5h1.8v-6.5h-1.8Zm0 6.4c0 .3-.1.7-.4.9l1.3 1.2c.5-.5.8-1.2.9-2l-1.8-.1Zm-.4.9c-.2.2-.5.3-.8.3v1.8a3 3 0 0 0 2-.9l-1.2-1.2Zm-.8.3H466v1.8h6.4v-1.8Zm-6.4 0c-.3 0-.6 0-.9-.3L464 350a3 3 0 0 0 2 1v-1.9Zm-.9-.3c-.2-.2-.3-.6-.3-.8H463c0 .7.3 1.5.9 2l1.2-1.2Zm-.3-.8v-6.5H463v6.5h1.8Zm0-6.5c0-.3.1-.6.3-.8l-1.2-1.2a3 3 0 0 0-.9 2h1.8Zm39.7 11.7h-6.8v1.8h6.8v-1.8Zm-6.8 0c-4 .2-7.2 3.4-7.4 7.4h1.8a6 6 0 0 1 5.7-5.6l-.1-1.8Zm-7.4 7.4v6.8h1.8v-6.8h-1.8Zm0 6.9c.2 4 3.4 7.1 7.3 7.3l.1-1.8a6 6 0 0 1-5.6-5.6h-1.8Zm7.4 7.3h6.8V373h-6.8v1.8Zm6.9 0c4-.1 7.1-3.4 7.3-7.3h-1.8c-.1 3-2.5 5.4-5.6 5.5v1.8Zm7.3-7.3v-7h-1.8v7h1.8Zm0-7c-.2-4-3.3-7-7.3-7.3l-.1 1.8a6 6 0 0 1 5.6 5.6h1.8Zm-6.8 7.6c-.2.2-.5.3-.8.3v1.8a3 3 0 0 0 2-.9l-1.2-1.2Zm-.8.3H498v1.8h6.4v-1.8Zm-6.4 0c-.3 0-.6-.1-.8-.3l-1.3 1.2a3 3 0 0 0 2 .9v-1.8Zm-.8-.3c-.3-.3-.4-.6-.4-.9H495c0 .8.3 1.6.9 2.1l1.3-1.2Zm-.4-.9V361H495v6.4h1.8Zm0-6.4c0-.3.1-.6.4-.8l-1.3-1.3a3 3 0 0 0-.9 2.1h1.8Zm.4-.8c.2-.2.5-.4 1-.4l-.3-1.8c-.7 0-1.4.4-2 1l1.3 1.2Zm.8-.4h6.4v-1.8H498v1.8Zm6.3 0c.4 0 .7.2 1 .4l1.2-1.3a4 4 0 0 0-2-.9l-.2 1.8Zm1 .4c.2.2.3.5.4 1l1.7-.3c0-.7-.4-1.4-1-2l-1.2 1.3Zm.3.8v6.4h1.8V361h-1.8Zm0 6.4c0 .3 0 .6-.4.9l1.3 1.2a3 3 0 0 0 1-2h-1.9ZM238 313.8c0 .5-.3 1-.7 1.5a2 2 0 0 1-1.5.6 332 332 0 0 1-33.3 0c-.5 0-1.1-.2-1.5-.6-.4-.4-.6-1-.6-1.5-.5-8.8-.5-17.7 0-26.4 0-.5.2-1 .6-1.4a3 3 0 0 1 1.5-.7 416.2 416.2 0 0 1 33.3 0c.6 0 1.1.3 1.5.7.4.4.6.9.7 1.4v3.4h4.7l-.2-3.6c-.1-3.5-3-6.3-6.4-6.5a341.2 341.2 0 0 0-33.8 0 7 7 0 0 0-6.5 6.5c-.5 9-.5 17.9 0 26.8.2 3.5 3 6.4 6.5 6.5a339.3 339.3 0 0 0 33.8 0c3.5-.1 6.3-3 6.4-6.5l.2-3.6h-4.6l-.1 3.4Zm44 1.7h-27.6v-34.4h-4.6v39H282v-4.6Zm42-29.9v-4.5h-36.7v39H324v-4.6h-32.2V303H324v-4.6h-32.2v-12.7H324Zm44.8 34.5h5l-17.9-39h-10.2l-17.9 39h5l4-8.4h28.1l3.9 8.4Zm-30-13 9.9-21.5h4.2l9.9 21.5h-24Zm81.6-26v34.4h-1.5L387 281.1h-8v39h4.5v-34.5h1.3l32 34.5h8v-39h-4.5Zm50.3 4.5v-4.5h-36.8v39h36.8v-4.6h-32.2V303h32.2v-4.6h-32.2v-12.7h32.2Zm7.4-4.5v39h4.6v-14.8H494l22 14.7h8.2l-21.9-14.8h12.5a7 7 0 0 0 6.5-6.5v-11.3c-.2-3.5-3-6.3-6.5-6.4h-36.6Zm36.4 4.5c.6 0 1 .3 1.5.7.3.4.6.9.6 1.5v10.8c0 .5-.3 1-.6 1.4a3 3 0 0 1-1.5.7h-31.8v-15h31.8Z"/><path fill="#000" d="m238 313.8.8.1h-.8Zm-2.2 2v-.8.9Zm-33.3 0v-.8.9Zm-2.1-2h.9-.9Zm0-26.4h.9-.9Zm.6-1.4.6.6-.6-.6Zm1.5-.7v-.9h-.1v.9Zm33.3 0 .1-.9v.9Zm1.5.7-.6.6.6-.6Zm.7 1.4h.8-.8Zm0 3.4h-.8v1h.9v-1Zm4.7 0v1h1l-.1-1h-.9Zm-.2-3.6h-.8.8Zm-6.4-6.5v.9-.9Zm-33.8 0v.9-.9Zm-6.5 6.5h.9-.9Zm0 26.8h.9-.9Zm6.5 6.5v-1 1Zm33.8 0v-1 1Zm6.4-6.5h1-1Zm.2-3.6h.9v-.9h-.9v.9Zm-4.6 0v-.9h-1v.9h1Zm-1 3.3c0 .4-.2.7-.4 1l1.2 1.2c.6-.6.9-1.3 1-2l-1.8-.2Zm-.4 1-.9.3v1.8a3 3 0 0 0 2.1-1l-1.2-1.2Zm-1 .3c-5.4.3-11 .4-16.5.4v1.8c5.5 0 11.1-.2 16.7-.4l-.1-1.8Zm-16.5.4c-5.5 0-11.2-.1-16.7-.4v1.8c5.5.2 11.1.4 16.7.4v-1.8Zm-16.7-.4c-.3 0-.6-.1-.9-.4l-1.2 1.3a3 3 0 0 0 2 .9V315Zm-.9-.4c-.2-.2-.3-.5-.3-.8h-1.8c0 .8.3 1.5.9 2l1.2-1.2Zm-.3-.8c-.5-8.8-.5-17.6 0-26.3l-1.8-.1c-.4 8.7-.4 17.7 0 26.5l1.8-.1Zm0-26.4c0-.3.1-.6.3-.8l-1.2-1.3a3 3 0 0 0-.9 2.1h1.8Zm.3-.8c.3-.2.6-.4 1-.4l-.2-1.8c-.7 0-1.5.4-2 1l1.2 1.2Zm.9-.4c5.5-.2 11.2-.4 16.7-.4V284c-5.6 0-11.2.2-16.8.4l.1 1.8Zm16.7-.4c5.5 0 11 .2 16.6.4v-1.8c-5.5-.2-11-.4-16.6-.4v1.8Zm16.6.4c.3 0 .6.2.9.4l1.2-1.3c-.5-.5-1.2-.8-2-.9l-.1 1.8Zm.9.4c.2.2.3.5.4 1l1.7-.3c0-.7-.3-1.4-.9-2l-1.2 1.3Zm.4.9v3.3h1.9c0-1.2 0-2.3-.2-3.4h-1.7Zm1 4.2h4.6V290h-4.6v1.8Zm5.5-.9-.2-3.6h-1.7l.1 3.7 1.8-.1Zm-.2-3.6c-.2-4-3.3-7.2-7.3-7.4v1.8a6 6 0 0 1 5.6 5.6h1.7Zm-7.3-7.4c-5.7-.3-11.3-.4-17-.4v1.8c5.7 0 11.3.1 17 .4v-1.8Zm-17-.4c-5.6 0-11.2.2-16.8.4v1.8c5.6-.3 11.2-.4 16.9-.4v-1.8Zm-16.8.4c-4 .2-7.2 3.4-7.4 7.4h1.8a6 6 0 0 1 5.6-5.6v-1.8Zm-7.4 7.4c-.5 9-.5 18 0 26.9l1.8-.1c-.5-9-.5-17.8 0-26.7l-1.8-.1Zm0 26.9a7.8 7.8 0 0 0 7.4 7.3v-1.8c-3-.1-5.5-2.6-5.6-5.6h-1.8Zm7.4 7.3c5.6.2 11.2.3 16.9.3V320c-5.7 0-11.3-.1-16.9-.4v1.8Zm16.9.3c5.6 0 11.2 0 17-.3l-.2-1.8c-5.6.3-11.2.4-16.8.4v1.7Zm16.9-.3c4-.2 7.1-3.4 7.3-7.3l-1.7-.1a6 6 0 0 1-5.7 5.6v1.8Zm7.3-7.3.2-3.7h-1.8l-.1 3.6h1.7Zm-.7-4.6h-4.6v1.8h4.6v-1.8Zm-5.5.9-.1 3.4h1.8v-3.4h-1.7Zm44.7 5.1h1v-.8h-1v.8Zm-27.5 0h-.9v1h.9v-1Zm0-34.4h.9v-1h-1v1Zm-4.6 0v-1h-.9v1h1Zm0 39h-.9v1h1v-1Zm32.1 0v1h1v-1h-1Zm0-5.4h-27.5v1.7h27.5v-1.7Zm-26.6.8v-34.4h-1.8v34.4h1.8Zm-1-35.3h-4.5v1.7h4.6v-1.7Zm-5.4.9v39h1.8v-39h-1.8Zm1 40h32v-1.9h-32v1.8Zm33-1v-4.6H281v4.6h1.7Zm41.1-34.5v1h1v-1h-1Zm0-4.5h1v-1h-1v1Zm-36.7 0v-1h-1v1h1Zm0 39h-1v1h1v-1Zm36.7 0v1h1v-1h-1Zm0-4.6h1v-.8h-1v.8Zm-32.2 0h-.8v1h.8v-1Zm0-12.6v-.9h-.8v1h.8Zm32.2 0v.9h1v-.9h-1Zm0-4.6h1v-.9h-1v1Zm-32.2 0h-.8v1h.8v-1Zm0-12.7v-.9h-.8v1h.8Zm33.1 0v-4.5h-1.7v4.5h1.7Zm-.9-5.4h-36.7v1.7H324v-1.7Zm-37.6.9v39h1.7v-39h-1.7Zm.9 40H324v-1.9h-36.7v1.8Zm37.6-1v-4.6h-1.7v4.6h1.7Zm-.9-5.4h-32.2v1.7H324v-1.7Zm-31.3.8V303H291v12.6h1.7Zm-.9-11.7H324V302h-32.2v1.8Zm33.1-.9v-4.6h-1.7v4.6h1.7Zm-.9-5.5h-32.2v1.8H324v-1.8Zm-31.3 1v-12.8H291v12.7h1.7Zm-.9-11.9H324v-1.8h-32.2v1.8Zm77 33.6-.8.4.2.5h.6v-.9Zm5 0v1h1.4l-.6-1.3-.8.3Zm-17.9-39 .8-.4-.2-.5h-.6v.9Zm-10.2 0v-1h-.5l-.3.6.8.4Zm-17.9 39-.8-.3-.5 1.2h1.3v-.9Zm5 0v1h.6l.3-.6-.8-.4Zm4-8.4v-.8h-.6l-.3.5.8.3Zm28.1 0 .8-.3-.2-.5h-.6v.8Zm-26-4.6-.9-.4-.5 1.3h1.4v-.9Zm9.8-21.5v-.9h-.6l-.2.6.8.3Zm4.2 0 .8-.3-.2-.6h-.6v1Zm9.9 21.5v.9h1.4l-.6-1.3-.8.4Zm6 14h5v-1.9h-5v1.8Zm5.8-1.3-17.9-39.1-1.6.7 17.9 39.1 1.6-.7Zm-18.7-39.6h-10.2v1.7H356v-1.7Zm-11 .5-17.9 39 1.6.8 18-39-1.7-.8ZM328 321h5v-1.8h-5v1.8Zm5.8-.5 3.8-8.4-1.6-.7-3.8 8.4 1.6.7Zm3-7.9H365V311h-28.2v1.7Zm27.4-.5 3.9 8.4 1.6-.7-3.9-8.4-1.6.7Zm-24.4-4.6 9.8-21.5-1.6-.7-9.9 21.4 1.7.8Zm9-21h4.2v-1.8h-4.2v1.8Zm3.4-.5 9.9 21.5 1.6-.8-9.9-21.4-1.6.7Zm10.7 20.2h-24v1.8h24v-1.8Zm57.6-25.1v-1h-.9v1h.9Zm0 34.4v1h.9v-1h-1Zm-1.5 0-.7.6.3.3h.4v-.9Zm-32-34.4.7-.6-.3-.3h-.4v.9Zm-8 0v-1h-1v1h1Zm0 39h-1v1h1v-1Zm4.5 0v1h.9v-1h-.9Zm0-34.5v-.9h-.9v1h1Zm1.3 0 .6-.6-.2-.3h-.4v1Zm32 34.5-.7.6.3.3h.4v-.9Zm8 0v1h1v-1h-1Zm0-39h1v-1h-1v1Zm-5.4 0v34.4h1.8v-34.4h-1.8Zm.9 33.6h-1.5v1.7h1.5v-1.7Zm-.9.2-31.7-34.4-1.3 1.2 31.7 34.4 1.3-1.2ZM387 280.2h-8v1.7h8v-1.7Zm-9 .9v39h1.8v-39H378Zm1 40h4.5v-1.9H379v1.8Zm5.4-1v-34.5h-1.8v34.5h1.8Zm-.9-33.6h1.3v-1.8h-1.3v1.8Zm.6-.3 32 34.5 1.3-1.2-32-34.5-1.3 1.2ZM417 321h8v-1.8h-8v1.8Zm9-.9v-39h-2v39h1.8Zm-1-40h-4.5v1.8h4.6v-1.7Zm45.8 5.5v1h.9v-1h-1Zm0-4.5h.9v-1h-1v1Zm-36.8 0v-1h-.9v1h.9Zm0 39h-.9v1h.9v-1Zm36.8 0v1h.9v-1h-1Zm0-4.6h.9v-.8h-1v.8Zm-32.2 0h-1v1h1v-1Zm0-12.6v-.9h-1v1h1Zm32.2 0v.9h.9v-.9h-1Zm0-4.6h.9v-.9h-1v1Zm-32.2 0h-1v1h1v-1Zm0-12.7v-.9h-1v1h1Zm33 0v-4.5h-1.7v4.5h1.8Zm-.8-5.4H434v1.7h36.8v-1.7Zm-37.7.9v39h1.8v-39H433Zm.9 40h36.8v-1.9H434v1.8Zm37.7-1v-4.6h-1.8v4.6h1.8Zm-1-5.4h-32.1v1.7h32.2v-1.7Zm-31.2.8V303h-1.8v12.6h1.8Zm-1-11.7h32.3V302h-32.2v1.8Zm33.2-.9v-4.6h-1.8v4.6h1.8Zm-1-5.5h-32.1v1.8h32.2v-1.8Zm-31.2 1v-12.8h-1.8v12.7h1.8Zm-1-11.9h32.3v-1.8h-32.2v1.8Zm39.7-5.4v-1h-.9v1h1Zm0 39h-.9v1h1v-1Zm4.6 0v1h.9v-1h-.9Zm0-14.8v-1h-.9v1h.9Zm11.3 0 .5-.8-.2-.1h-.3v.9ZM516 320l-.5.8.2.1h.3v-.9Zm8.2 0v1h2.8l-2.3-1.7-.5.7Zm-21.9-14.8v-1h-2.9l2.4 1.7.5-.7Zm12.5 0v.8-.8Zm6.5-6.5h.9-.9Zm0-11.3h.9-.9Zm-6.5-6.4v-1 1Zm-.2 4.5v-.8.8Zm2 2.2h-.8.9Zm.1 10.8h1-1Zm-.6 1.4.6.6-.6-.6Zm-1.5.7v.9-1Zm-31.8 0h-.9v.8h.9v-.9Zm0-15v-1h-.9v1h.9Zm-5.5-4.6v39h1.8v-39h-1.8Zm1 40h4.5v-1.9h-4.6v1.8Zm5.4-1v-14.8h-1.8V320h1.8Zm-.9-14H494v-1.7h-11.3v1.7Zm10.8-.1 21.9 14.9 1-1.5-21.9-14.9-1 1.5Zm22.4 15h8.2v-1.8H516v1.8Zm8.7-1.6-21.9-14.9-1 1.5 21.9 14.9 1-1.5ZM502.2 306h12.5v-1.7h-12.5v1.7Zm12.6 0a7.6 7.6 0 0 0 7.3-7.3h-1.8a6 6 0 0 1-5.6 5.6v1.7Zm7.3-7.3v-11.3h-1.8v11.3h1.8Zm0-11.3c-.2-4-3.4-7.1-7.3-7.3l-.1 1.7a6 6 0 0 1 5.6 5.7l1.8-.1Zm-7.4-7.3h-36.6v1.7h36.6v-1.7Zm-.3 6.3c.4 0 .7.2 1 .4l1.2-1.2c-.6-.6-1.3-.9-2-1l-.2 1.8Zm1 .4.3.9h1.8a3 3 0 0 0-1-2.1l-1.2 1.2Zm.3.9v10.8h1.8v-10.8h-1.8Zm0 10.7c0 .3-.1.6-.4.9l1.3 1.2c.5-.5.8-1.2 1-2l-1.9-.1Zm-.4.9c-.2.2-.5.4-.9.4l.2 1.8c.7-.1 1.4-.4 2-1l-1.3-1.2Zm-.8.4h-31.8v1.7h31.8v-1.7Zm-31 .8v-15h-1.7v15h1.8Zm-.8-14h31.8v-1.9h-31.8v1.8Z"/></svg>