<svg width="731" height="40" viewBox="0 0 731 40" fill="none" xmlns="http://www.w3.org/2000/svg">
<path d="M393.319 40L55.6373 40L56.6761 39.904L57.715 39.808L51.6318 39.68C48.2194 39.6064 44.51 39.5136 43.1747 39.472L40.8007 39.392L38.7237 39.392L36.6467 39.392L36.6467 39.3152L36.6467 39.2384L34.4212 39.2192L32.1957 39.2032L32.1957 39.1456L32.1957 39.0848L35.0145 39.0432L37.8334 38.9984L37.24 38.6432L36.4982 38.288L34.2727 38.1888L32.0472 38.0896L26.1126 38.0352L20.3264 37.9808L20.3264 37.8944L20.3264 37.8048L22.5519 37.7408L24.6289 37.6736L24.3326 37.4784L24.0356 37.2864L22.9967 37.2992L21.9586 37.3152L21.0683 37.2416C20.6232 37.2 20.0299 37.1136 19.7331 37.0496L19.1398 36.9312L21.3653 36.9152C22.5522 36.9056 24.6288 36.896 25.9641 36.896L28.4866 36.8928L32.6405 36.8224L36.6467 36.7488L36.4982 36.5568C36.3498 36.4544 36.4986 36.2176 36.9437 36.0352L37.8334 35.7024L39.9111 35.6768L41.8395 35.648L40.0588 35.648L38.2789 35.648L38.8722 35.6C39.3173 35.5744 40.0594 35.5264 40.6529 35.4944C41.098 35.4656 41.3946 35.4144 41.2462 35.3856L40.9492 35.3312L44.6583 35.3088L48.3675 35.2896L51.1863 35.312L54.1536 35.3312L55.1925 35.296L56.0828 35.264L57.5665 35.28L58.9016 35.2992L58.9016 35.2256L58.9016 35.1488L61.1271 35.0848L63.2041 35.024L63.2041 34.96L63.2041 34.896L60.6823 34.832C57.2699 34.7488 49.1095 34.624 47.0323 34.624L45.5487 34.624L45.5487 34.592L45.5487 34.56L43.4717 34.56C42.2848 34.56 41.0974 34.5504 40.8007 34.5344C40.2072 34.5024 29.6735 34.4 27.0029 34.4L24.7774 34.4L24.7774 34.3712L24.7774 34.3456L21.2168 34.352L17.8039 34.3616L15.7269 34.2944C12.6113 34.1984 5.48983 34.0416 5.48983 34.0704C5.48983 34.0832 4.30305 34.0512 2.67102 34L-2.66464e-07 33.904L0.890341 33.8528C1.33544 33.824 2.9679 33.7664 4.3032 33.7248C10.2378 33.5488 13.947 33.4144 15.4307 33.3248L17.0621 33.2256L24.1841 33.024C28.0416 32.912 32.9373 32.784 34.866 32.7392C36.7948 32.6944 40.5045 32.5824 42.8784 32.496C45.2522 32.4064 50.89 32.208 55.341 32.0512C59.792 31.8944 63.3526 31.7504 63.3526 31.728C63.3526 31.7056 65.578 31.6288 68.3969 31.552L73.4412 31.4144L73.4412 31.2896L73.5897 31.1648L74.7771 31.1264L75.9637 31.088L75.8152 30.992L75.6667 30.896L77.7444 30.8064L79.8214 30.72L83.8268 30.7168C86.0523 30.7136 89.3164 30.7168 91.2451 30.72L94.5095 30.7232L94.5095 30.6496L94.5095 30.576L95.9931 30.624L97.4768 30.672L97.4768 30.5984C97.4768 30.5248 100.147 30.4 102.67 30.3616L104.005 30.3392L117.803 30.3584L131.601 30.3776L132.491 30.3232L133.529 30.2688L127.892 30.144L122.402 30.0224L123.441 29.9808L124.628 29.9424L122.996 29.9648L121.364 29.9872L118.693 29.8976C117.209 29.8496 114.836 29.7856 113.352 29.76L110.83 29.712L112.313 29.6L113.946 29.488L113.649 29.28C113.649 29.1648 113.5 28.9952 113.649 28.9024L113.797 28.7328L111.72 28.6624C110.533 28.624 109.198 28.5376 108.753 28.4704L107.714 28.352L106.379 28.352L105.044 28.352L104.005 28.2816C103.56 28.2432 102.076 28.1632 100.889 28.1024L98.6634 27.9904L97.3283 28.0352L95.9931 28.08L96.735 27.8752C97.1801 27.7632 97.922 27.6576 98.3671 27.6448L99.109 27.616L97.7738 27.616L96.2902 27.616L95.5483 27.552L94.8065 27.488L98.6634 27.4656C100.889 27.4528 103.412 27.4464 104.45 27.4496L106.23 27.4592L107.269 27.3696C107.863 27.3216 109.791 27.2192 111.72 27.1456L115.132 27.0112L115.132 26.8736C115.132 26.7968 115.281 26.592 115.281 26.416L115.429 26.0992L112.907 26.0576C111.423 26.0352 109.346 26.016 108.307 26.016L106.379 26.016L106.379 25.9552L106.379 25.8944L104.153 25.8752L101.779 25.856L102.225 25.7504L102.521 25.6416L97.7738 25.52L93.1743 25.3984L93.9162 25.3696L94.658 25.344L92.284 25.344L90.0585 25.344L88.2778 25.264C87.3876 25.2192 86.0523 25.184 85.3105 25.184L84.1239 25.184L84.1239 25.1104L84.1239 25.0336L87.536 24.9472C89.3164 24.8992 92.1358 24.8256 93.9162 24.7872L96.8835 24.7136L95.9931 24.6528C95.3997 24.6208 95.2516 24.576 95.5483 24.5536L96.2902 24.5152L91.987 24.496C89.7615 24.4832 84.2719 24.4448 80.1177 24.4096L72.2546 24.3456L72.2546 24.2976C72.2546 24.272 73.1446 24.2048 74.3315 24.1504C75.5185 24.0928 77.1505 23.9968 78.0407 23.936L79.5244 23.824L79.9699 23.616L80.2662 23.408L76.4085 23.248C74.3314 23.1584 71.0675 23.0112 69.1387 22.9216L65.5781 22.752L63.6496 22.752C62.6111 22.752 60.6823 22.7392 59.1986 22.7232C57.8633 22.7072 54.4504 22.6752 51.9281 22.656L47.0323 22.6176L47.0323 22.5632C47.0323 22.5344 48.6642 22.4256 50.593 22.32L54.3021 22.1312L53.1155 22.096C52.522 22.08 51.0382 21.9968 49.9997 21.9136L48.219 21.76L48.9608 21.696L49.7026 21.632L48.3675 21.6512L47.0323 21.6672L46.2905 21.6256C45.9938 21.6032 45.4005 21.5168 44.9554 21.4336L44.362 21.2832L49.4063 21.2608L54.3021 21.2416L56.0828 21.1968L57.715 21.152L60.5338 21.152L63.2041 21.152L64.2429 21.04C64.688 20.9792 65.7266 20.9184 66.4684 20.9088L67.8036 20.8928L67.8036 20.816L67.8036 20.7392L70.4739 20.7072L72.9964 20.672L71.0679 20.6464L69.1387 20.6176L71.2157 20.4352L73.4412 20.256L69.5843 20.1632C67.5071 20.112 64.9845 20.0256 63.9459 19.9712L62.0175 19.8752L65.8751 19.7952C67.9522 19.7504 70.474 19.712 71.3642 19.712C72.2544 19.712 75.2217 19.664 78.0407 19.6096L83.085 19.5104L83.382 19.3568L83.679 19.2L87.536 19.1104C89.7615 19.0592 91.5422 19.008 91.5422 18.9888C91.5422 18.9728 92.4322 18.9216 93.6191 18.8768L95.6961 18.7904L94.361 18.7488C93.6191 18.7232 93.0258 18.6592 93.0258 18.6048L93.0258 18.5056L90.0585 18.432C88.4265 18.3904 87.0912 18.3488 87.0912 18.3392C87.2395 18.3296 87.6845 18.2624 88.4263 18.192L89.4652 18.064L87.833 17.68L86.0523 17.296L87.6845 17.2512L89.3167 17.2032L86.7942 17.2256L84.1239 17.2448L84.5687 17.2224C85.1621 17.184 79.2279 17.0656 75.3704 17.04L71.6613 17.0144L68.9902 16.9472L66.3199 16.88L67.0618 16.7872C67.5069 16.736 68.6936 16.6688 69.8806 16.6432C71.8093 16.592 72.6997 16.5312 75.2219 16.256L76.557 16.112L80.5632 15.936L84.7172 15.76L85.1627 15.584C85.3111 15.488 85.4592 15.392 85.6075 15.3728L85.6075 15.3344L88.13 15.3408L90.6518 15.344L91.2451 15.2864L91.6907 15.232L89.3167 15.232L86.9427 15.232L87.2397 15.0464L87.536 14.8608L85.459 14.784C84.2721 14.7392 82.9368 14.6976 82.4917 14.688C82.0466 14.6784 81.1568 14.6272 80.7117 14.5696L79.8214 14.4672L83.9753 14.4C86.3492 14.3648 88.8719 14.336 89.6137 14.336C90.3555 14.336 95.1028 14.2528 100.296 14.1504L109.495 13.9648L107.862 13.8752L106.23 13.7824L106.676 13.7152C107.269 13.6192 109.494 13.5776 116.467 13.5328L122.699 13.4944L125.073 13.4144L127.595 13.3344L127.595 13.2608L127.595 13.184L128.782 13.2032L130.117 13.2192L130.117 13.1904L130.117 13.1584L135.31 13.1392L140.503 13.1168L141.245 13.0464L141.987 12.976L141.245 12.72C140.8 12.5792 140.355 12.4256 140.058 12.3744L139.761 12.288L138.722 12.2848C137.98 12.2816 137.09 12.2784 136.497 12.2752C134.568 12.2688 127.892 12.16 129.227 12.16L130.414 12.16L128.931 12.1184L127.447 12.08L129.524 11.952L131.601 11.824L132.491 11.552C132.936 11.4016 133.382 11.216 133.382 11.136L133.382 10.9952L135.31 10.96C136.349 10.944 137.536 10.8896 138.129 10.8448L139.019 10.7584L137.387 10.6688L135.903 10.576L132.194 10.5184C130.117 10.4832 127.595 10.4544 126.705 10.4512C125.667 10.4448 123.886 10.432 122.699 10.4224C121.512 10.4128 118.545 10.3968 116.023 10.3872C113.649 10.3776 110.088 10.3616 108.307 10.3488L104.895 10.3296L105.637 10.304L106.379 10.2752L105.044 10.2592L103.708 10.24L104.895 10.1248L106.082 10.0096L105.192 9.81442C104.302 9.60322 104.302 9.54562 104.895 9.21922L105.192 9.01762L103.411 8.99202L101.779 8.96962L100.296 8.82882C99.5538 8.75202 98.5152 8.66242 98.0701 8.62722L97.1798 8.56642L98.6634 8.58882L99.9993 8.60802L98.812 8.47042C98.2185 8.39682 97.0319 8.29442 96.1417 8.24642L94.5095 8.15362L95.3998 8.12162L96.4379 8.08642L94.9543 8.10562L93.4706 8.12482L91.5422 8.03842C90.3552 7.99042 89.4653 7.92642 89.6137 7.89442L89.6137 7.84002L87.0912 7.84002C85.7559 7.84002 84.124 7.83042 83.5305 7.81762C82.9371 7.80162 81.8987 7.79202 81.4536 7.79202C80.8601 7.79202 78.7827 7.76642 76.7055 7.73442C74.7768 7.70562 73.7382 7.68002 74.4801 7.68002L75.8152 7.68002L74.183 7.64482L72.5516 7.60962L74.6286 7.52322L76.557 7.43682L77.5959 7.28002C78.3377 7.12642 79.2275 6.95042 80.1177 6.78402C80.2661 6.73922 80.8599 6.69762 81.305 6.68802C81.7501 6.67842 82.9366 6.62402 83.8268 6.56322L85.6075 6.45122L84.4209 6.43522C83.6791 6.42562 82.7883 6.38402 82.3432 6.34562L81.4536 6.27522L83.5305 6.25922L85.6075 6.24322L85.6075 6.09602L85.6075 5.94882L87.0912 5.96802L88.5748 5.98722L88.5748 5.92002L88.5748 5.85282L87.2397 5.87202L85.756 5.88802L84.8657 5.82722L83.9753 5.76322L85.6075 5.69602C86.4977 5.66082 87.833 5.63202 88.5748 5.63202L90.0585 5.63202L90.0585 5.68642L90.0585 5.73763L90.9488 5.71842C91.5423 5.70882 91.9871 5.61922 92.1355 5.52322L92.4325 5.35042L91.2451 5.36642L90.0585 5.37922L90.3555 5.28322L90.6518 5.18402L94.0647 5.18402L97.4768 5.18402L97.4768 5.12642C97.4768 5.09762 98.5154 5.00802 99.7023 4.93122L102.076 4.79362L94.0647 4.57922C83.8274 4.31042 72.9961 4.06402 71.2157 4.06402C70.4739 4.06402 69.1392 4.08002 68.1006 4.10242L66.4684 4.13763L64.3915 4.10242L62.3138 4.06402L61.2756 4.08963L60.0883 4.11202L58.0113 4.05123L55.9343 3.98723L55.9343 3.81763L55.9343 3.64483L53.8573 3.54242L51.9281 3.44003L47.7742 3.35042L43.6202 3.26402L41.0977 3.26402L38.4274 3.26402L37.6856 3.19683L36.7952 3.12643L37.5371 3.04003L38.4274 2.95363L35.6079 2.89603C34.1242 2.86402 33.0856 2.83203 33.3824 2.82563C34.2726 2.80323 31.7506 2.65603 29.9702 2.62403L27.8933 2.58883L28.7836 2.53763L29.6732 2.48643L27.5962 2.51203L25.5193 2.54083L27.5962 2.48643L29.5254 2.43203L26.1126 2.23363C24.1838 2.12163 22.5518 2.01603 22.4034 2.00003C22.2551 1.98083 21.5137 1.93283 20.6235 1.88803L19.1398 1.80803L22.1071 1.75043L25.2222 1.69283L27.1514 1.70883L28.9314 1.72483L29.6732 1.66083L30.415 1.60003L32.6405 1.60003L34.7182 1.60003L33.5309 1.44003L32.3442 1.28003L30.1187 1.23203C28.9318 1.20643 27.1513 1.18403 26.2611 1.18403C24.0356 1.18403 18.9911 1.05283 18.8428 0.995227L18.8428 0.950427L22.4034 0.848029L26.1126 0.745631L26.1126 0.55683C26.1126 0.454428 26.1126 0.32323 26.1126 0.272029C26.1126 0.217627 26.2608 0.14083 26.7059 0.09603L27.2999 0.0160282L379.075 0.00641119L721 0.000182107C726.523 7.88689e-05 731 4.47726 731 10.0002L731 20L731 30C731 35.5228 726.523 40 721 40L393.319 40Z" fill="#F3C010"/>
</svg>
