<svg width="336" height="52" viewBox="0 0 336 52" fill="none" xmlns="http://www.w3.org/2000/svg">
<path d="M155.213 51.7217L310.427 51.7217L309.949 51.5996L309.472 51.4775L312.268 51.3148C313.836 51.2212 315.541 51.1032 316.155 51.0503L317.246 50.9486L318.201 50.9486L319.156 50.9486L319.156 50.8509L319.156 50.7533L320.178 50.7289L321.201 50.7085L321.201 50.6353L321.201 50.558L319.906 50.5051L318.61 50.4481L318.883 49.9965L319.224 49.5448L320.247 49.4187L321.27 49.2926L323.998 49.2234L326.657 49.1542L326.657 49.0444L326.657 48.9304L325.634 48.8491L324.679 48.7636L324.816 48.5154L324.952 48.2713L325.43 48.2876L325.907 48.3079L326.316 48.2143C326.521 48.1614 326.793 48.0516 326.93 47.9702L327.202 47.8196L326.18 47.7993C325.634 47.7871 324.68 47.7749 324.066 47.7749L322.906 47.7708L320.997 47.6813L319.156 47.5877L319.224 47.3436C319.292 47.2134 319.224 46.9123 319.019 46.6803L318.61 46.2572L317.655 46.2246L316.769 46.188L317.587 46.188L318.405 46.188L318.133 46.127C317.928 46.0944 317.587 46.0334 317.314 45.9927C317.11 45.9561 316.973 45.891 317.041 45.8544L317.178 45.7852L315.473 45.7567L313.768 45.7323L312.473 45.7608L311.109 45.7852L310.631 45.7404L310.222 45.6997L309.54 45.7201L308.926 45.7445L308.926 45.6509L308.926 45.5533L307.903 45.4719L306.949 45.3946L306.949 45.3132L306.949 45.2318L308.108 45.1504C309.676 45.0447 313.427 44.886 314.382 44.886L315.064 44.886L315.064 44.8453L315.064 44.8046L316.018 44.8046C316.564 44.8046 317.11 44.7924 317.246 44.772C317.519 44.7314 322.361 44.6012 323.588 44.6012L324.611 44.6012L324.611 44.5645L324.611 44.532L326.248 44.5401L327.817 44.5523L328.771 44.4669C330.203 44.3448 333.477 44.1454 333.477 44.1821C333.477 44.1983 334.022 44.1576 334.772 44.0925L336 43.9705L335.591 43.9054C335.386 43.8688 334.636 43.7955 334.022 43.7426C331.294 43.5188 329.589 43.3479 328.907 43.234L328.158 43.1079L324.884 42.8515C323.111 42.7091 320.861 42.5464 319.974 42.4894C319.087 42.4324 317.382 42.29 316.291 42.1802C315.2 42.0662 312.609 41.814 310.563 41.6146C308.517 41.4152 306.88 41.2321 306.88 41.2036C306.88 41.1752 305.857 41.0775 304.562 40.9799L302.243 40.8049L302.243 40.6462L302.175 40.4875L301.629 40.4387L301.084 40.3899L301.152 40.2678L301.22 40.1457L300.265 40.0318L299.311 39.9219L297.469 39.9179C296.447 39.9138 294.946 39.9179 294.06 39.9219L292.559 39.926L292.559 39.8324L292.559 39.7388L291.877 39.7999L291.195 39.8609L291.195 39.7673C291.195 39.6737 289.968 39.5151 288.808 39.4662L288.195 39.4378L281.852 39.4622L275.51 39.4866L275.101 39.4174L274.624 39.3482L277.215 39.1895L279.739 39.0349L279.261 38.982L278.716 38.9332L279.466 38.9617L280.216 38.9902L281.444 38.8762C282.125 38.8152 283.216 38.7338 283.898 38.7013L285.058 38.6403L284.376 38.4978L283.626 38.3554L283.762 38.091C283.762 37.9445 283.83 37.7288 283.762 37.6108L283.694 37.3952L284.648 37.3057C285.194 37.2568 285.808 37.147 286.012 37.0615L286.49 36.911L287.104 36.911L287.717 36.911L288.195 36.8215C288.399 36.7726 289.081 36.6709 289.627 36.5936L290.65 36.4512L291.264 36.5082L291.877 36.5651L291.536 36.3047C291.332 36.1623 290.991 36.028 290.786 36.0118L290.445 35.9751L291.059 35.9751L291.741 35.9751L292.082 35.8938L292.423 35.8124L290.65 35.7839C289.627 35.7676 288.467 35.7595 287.99 35.7636L287.172 35.7758L286.694 35.6618C286.422 35.6008 285.535 35.4706 284.648 35.377L283.08 35.2061L283.08 35.0312C283.08 34.9335 283.012 34.6731 283.012 34.4493L282.944 34.0465L284.103 33.9936C284.785 33.9651 285.74 33.9407 286.217 33.9407L287.104 33.9407L287.104 33.8634L287.104 33.7861L288.127 33.7617L289.218 33.7373L289.013 33.603L288.877 33.4646L291.059 33.31L293.173 33.1554L292.832 33.1188L292.491 33.0862L293.582 33.0862L294.605 33.0862L295.424 32.9845C295.833 32.9276 296.447 32.8828 296.788 32.8828L297.333 32.8828L297.333 32.7892L297.333 32.6916L295.765 32.5817C294.946 32.5207 293.65 32.4271 292.832 32.3783L291.468 32.2847L291.877 32.2074C292.15 32.1667 292.218 32.1097 292.082 32.0812L291.741 32.0324L293.719 32.008C294.742 31.9917 297.265 31.9429 299.174 31.8981L302.789 31.8168L302.789 31.7557C302.789 31.7232 302.379 31.6377 301.834 31.5686C301.288 31.4953 300.538 31.3732 300.129 31.2959L299.447 31.1535L299.242 30.8891L299.106 30.6246L300.879 30.4211C301.834 30.3072 303.334 30.12 304.221 30.0061L305.857 29.7905L306.744 29.7905C307.221 29.7905 308.108 29.7742 308.79 29.7538C309.403 29.7335 310.972 29.6928 312.132 29.6684L314.382 29.6196L314.382 29.5504C314.382 29.5138 313.632 29.3754 312.745 29.2412L311.04 29.0011L311.586 28.9563C311.859 28.936 312.541 28.8302 313.018 28.7244L313.836 28.5291L313.495 28.4477L313.154 28.3664L313.768 28.3908L314.382 28.4111L314.723 28.3582C314.859 28.3297 315.132 28.2199 315.337 28.1141L315.609 27.9228L313.291 27.8944L311.04 27.87L310.222 27.813L309.472 27.756L308.176 27.756L306.949 27.756L306.471 27.6136C306.267 27.5363 305.789 27.459 305.448 27.4468L304.834 27.4264L304.834 27.3288L304.834 27.2311L303.607 27.1904L302.448 27.1457L303.334 27.1131L304.221 27.0765L303.266 26.8446L302.243 26.6167L304.016 26.4987C304.971 26.4336 306.13 26.3238 306.608 26.2546L307.494 26.1325L305.721 26.0308C304.766 25.9739 303.607 25.925 303.198 25.925C302.789 25.925 301.425 25.864 300.129 25.7948L297.81 25.6687L297.674 25.4734L297.537 25.274L295.765 25.1601C294.742 25.095 293.923 25.0299 293.923 25.0055C293.923 24.9851 293.514 24.92 292.968 24.8631L292.014 24.7532L292.628 24.7003C292.968 24.6677 293.241 24.5864 293.241 24.5172L293.241 24.3911L294.605 24.2975C295.355 24.2446 295.969 24.1917 295.969 24.1795C295.901 24.1673 295.696 24.0818 295.355 23.9923L294.878 23.8296L295.628 23.3413L296.447 22.853L295.696 22.7961L294.946 22.735L296.106 22.7635L297.333 22.7879L297.128 22.7594C296.856 22.7106 299.583 22.5601 301.356 22.5275L303.061 22.495L304.289 22.4095L305.516 22.3241L305.175 22.2061C304.971 22.141 304.425 22.0555 303.88 22.023C302.993 21.9579 302.584 21.8806 301.425 21.5306L300.811 21.3475L298.97 21.1238L297.06 20.9L296.855 20.6762C296.787 20.5541 296.719 20.4321 296.651 20.4076L296.651 20.3588L295.492 20.367L294.332 20.371L294.06 20.2978L293.855 20.2286L294.946 20.2286L296.037 20.2286L295.901 19.9926L295.765 19.7566L296.719 19.659C297.265 19.602 297.879 19.5491 298.083 19.5369C298.288 19.5247 298.697 19.4596 298.901 19.3864L299.311 19.2561L297.401 19.1707C296.31 19.1259 295.151 19.0893 294.81 19.0893C294.469 19.0893 292.287 18.9835 289.9 18.8533L285.671 18.6173L286.422 18.5034L287.172 18.3854L286.967 18.3C286.694 18.1779 285.672 18.125 282.466 18.068L279.602 18.0192L278.511 17.9175L277.352 17.8158L277.352 17.7222L277.352 17.6245L276.806 17.6489L276.192 17.6693L276.192 17.6327L276.192 17.592L273.805 17.5676L271.419 17.5391L271.078 17.4496L270.737 17.36L271.078 17.0345C271.282 16.8555 271.487 16.6602 271.623 16.5951L271.76 16.4852L272.237 16.4812C272.578 16.4771 272.987 16.473 273.26 16.469C274.147 16.4608 277.215 16.3225 276.602 16.3225L276.056 16.3225L276.738 16.2696L277.42 16.2208L276.465 16.058L275.51 15.8953L275.101 15.5494C274.897 15.3582 274.692 15.1222 274.692 15.0205L274.692 14.8414L273.805 14.7967C273.328 14.7763 272.783 14.7071 272.51 14.6502L272.101 14.5403L272.851 14.4264L273.533 14.3084L275.238 14.2352C276.192 14.1904 277.351 14.1538 277.761 14.1497C278.238 14.1416 279.057 14.1253 279.602 14.1131C280.148 14.1009 281.512 14.0805 282.671 14.0683C283.762 14.0561 285.399 14.0358 286.217 14.0195L287.786 13.9951L287.445 13.9625L287.104 13.9259L287.717 13.9056L288.331 13.8812L287.786 13.7347L287.24 13.5882L287.649 13.34C288.058 13.0715 288.058 12.9982 287.786 12.5832L287.649 12.3269L288.468 12.2943L289.218 12.2658L289.9 12.0868C290.241 11.9891 290.718 11.8752 290.923 11.8305L291.332 11.7531L290.65 11.7816L290.036 11.806L290.582 11.6311C290.854 11.5375 291.4 11.4073 291.809 11.3463L292.559 11.2283L292.15 11.1876L291.673 11.1428L292.355 11.1672L293.037 11.1916L293.923 11.0818C294.469 11.0208 294.878 10.9394 294.81 10.8987L294.81 10.8295L295.969 10.8295C296.583 10.8295 297.333 10.8173 297.606 10.801C297.878 10.7807 298.356 10.7685 298.56 10.7685C298.833 10.7685 299.788 10.7359 300.743 10.6952C301.629 10.6586 302.107 10.6261 301.766 10.6261L301.152 10.6261L301.902 10.5813L302.652 10.5366L301.697 10.4267L300.811 10.3168L300.333 10.1175C299.993 9.92216 299.584 9.69837 299.174 9.48679C299.106 9.42982 298.833 9.37693 298.629 9.36472C298.424 9.35252 297.879 9.28334 297.469 9.20603L296.651 9.06362L297.196 9.04328C297.537 9.03107 297.947 8.97818 298.151 8.92935L298.56 8.83984L297.606 8.81949L296.651 8.79915L296.651 8.61198L296.651 8.42481L295.969 8.44923L295.287 8.47364L295.287 8.38819L295.287 8.30274L295.901 8.32716L296.583 8.34751L296.992 8.27019L297.401 8.18882L296.651 8.10337C296.242 8.05861 295.628 8.02199 295.287 8.02199L294.605 8.02199L294.605 8.09116L294.605 8.15627L294.196 8.13185C293.923 8.11965 293.719 8.00571 293.65 7.88365L293.514 7.66393L294.06 7.68428L294.605 7.70055L294.469 7.57849L294.332 7.45235L292.764 7.45235L291.195 7.45235L291.195 7.37911C291.195 7.34249 290.718 7.22856 290.172 7.13091L289.081 6.95595L292.764 6.68334C297.469 6.34155 302.448 6.02824 303.266 6.02824C303.607 6.02824 304.221 6.04859 304.698 6.07707L305.448 6.12183L306.403 6.07707L307.358 6.02824L307.835 6.0608L308.381 6.08928L309.335 6.01197L310.29 5.9306L310.29 5.71495L310.29 5.49523L311.245 5.36502L312.132 5.23482L314.041 5.12089L315.95 5.01103L317.11 5.01103L318.337 5.01103L318.678 4.92559L319.087 4.83607L318.746 4.72621L318.337 4.61635L319.633 4.54311C320.315 4.50242 320.792 4.46174 320.656 4.4536C320.247 4.42512 321.406 4.23794 322.224 4.19726L323.179 4.1525L322.77 4.0874L322.361 4.0223L323.316 4.05485L324.27 4.09147L323.316 4.0223L322.429 3.95313L323.998 3.70086C324.884 3.55845 325.634 3.42417 325.702 3.40383C325.771 3.37942 326.111 3.31838 326.521 3.26142L327.202 3.1597L325.839 3.08646L324.407 3.01322L323.52 3.03356L322.702 3.05391L322.361 2.97253L322.02 2.89522L320.997 2.89522L320.042 2.89522L320.588 2.69177L321.133 2.48833L322.156 2.4273C322.702 2.39475 323.52 2.36626 323.929 2.36626C324.952 2.36626 327.271 2.19944 327.339 2.1262L327.339 2.06924L325.702 1.93904L323.998 1.80883L323.998 1.56877C323.998 1.43856 323.998 1.27174 323.998 1.20664C323.998 1.13746 323.929 1.03981 323.725 0.982851L323.452 0.881125L161.76 0.868898L4.59668 0.860975C2.05805 0.860849 7.71148e-07 2.91878 7.31034e-07 5.45742L4.01834e-07 26.2912L7.26297e-08 47.1252C3.25175e-08 49.6637 2.05789 51.7216 4.59644 51.7216L155.213 51.7217Z" fill="white"/>
</svg>
