<svg xmlns="http://www.w3.org/2000/svg" fill="none" viewBox="0 0 459 25"><mask id="a" width="459" height="25" x="0" y="0" fill="#000" maskUnits="userSpaceOnUse"><path fill="#fff" d="M0 0h459v25H0z"/><path d="M43 1.4 34.2 21 25.3 1.4h-2.8L13.7 21 4.8 1.4H2l10 22.2h3.3l8.6-19 8.6 19h3.3l10-22.2H43ZM61.3 3.6c3 0 6.2 0 9.3.2A1.3 1.3 0 0 1 71.8 5c.2 5 .2 10 0 15 0 .3-.2.6-.4.8-.2.2-.5.3-.8.3a182.5 182.5 0 0 1-18.7 0 1.2 1.2 0 0 1-1.1-1.1c-.3-5-.3-10 0-15 0-.3.1-.6.3-.8l.8-.4 9.4-.2Zm-9.4-2.4c-2 .1-3.6 1.7-3.7 3.7-.3 5-.3 10.1 0 15.2.1 2 1.7 3.6 3.7 3.6a186.6 186.6 0 0 0 18.8 0c2 0 3.5-1.6 3.6-3.6.3-5 .3-10.1 0-15.2 0-2-1.6-3.6-3.6-3.7a188.3 188.3 0 0 0-18.8 0ZM79.2 1.4v22.2h2.5V15h6.4l12.2 8.5h4.5L92.6 15h7c2 0 3.5-1.6 3.6-3.6V5c0-2-1.6-3.6-3.6-3.7H79.2ZM99.5 4c.3 0 .6.2.8.4.2.2.3.5.3.8v6.1c0 .3 0 .6-.3.9-.2.2-.5.3-.8.3H81.7V4h17.8ZM125.8 21h-15.3V1.4h-2.6v22.2h18V21ZM128.8 23.6H151c2-.1 3.5-1.7 3.6-3.7V5.1c0-2-1.7-3.6-3.6-3.7h-23.7V4h1.6v19.6Zm23.2-3.8c0 .3-.2.6-.4.8-.2.2-.5.4-.8.4h-19.4V4h19.4a1.3 1.3 0 0 1 1.2 1.2v14.6ZM180.9 13.8a1.2 1.2 0 0 1 1.2 1.2v3l-.1 2c0 .3-.2.6-.4.8-.2.2-.5.3-.8.3a171.6 171.6 0 0 1-18 0c-.4 0-.6 0-.9-.3-.2-.2-.3-.5-.3-.8l-.1-2h-2.6l.1 2.1c.1 2 1.7 3.6 3.6 3.7a220.4 220.4 0 0 0 18.3 0c2-.1 3.6-1.7 3.7-3.7v-5.3c0-2-1.6-3.5-3.6-3.6h-18.3c-.3 0-.6-.2-.9-.4-.2-.2-.3-.5-.3-.8V5c0-.3.2-.6.4-.8.3-.3.5-.4.9-.4a171.7 171.7 0 0 1 18 0c.3 0 .6.1.8.4.2.2.4.5.4.8v2h2.6V4.8c-.1-2-1.7-3.6-3.7-3.7a176.4 176.4 0 0 0-18.3 0c-2 .1-3.5 1.7-3.6 3.7V10c0 2 1.6 3.6 3.6 3.7h18.3ZM191.7 23.6v-9.8h16.4v-2.6h-16.4V4h18V1.4h-20.6v22.2h2.6ZM230.8 23.6h2.8l-10-22.2H218l-10 22.2h2.9l2.1-4.8h15.8l2.1 4.8Zm-16.7-7.4L219.6 4h2.4l5.5 12.2H214ZM257.8 13.8a1.2 1.2 0 0 1 1.1 1.2v5c0 .3-.2.6-.4.8-.2.2-.5.3-.8.3a171.6 171.6 0 0 1-18 0c-.4 0-.6 0-.9-.3-.2-.2-.3-.5-.3-.8l-.1-2h-2.6l.1 2.1c0 2 1.7 3.6 3.6 3.7a220.4 220.4 0 0 0 18.3 0c2-.1 3.6-1.7 3.6-3.7l.1-2v-3.3c0-2-1.6-3.5-3.6-3.6h-18.3c-.3 0-.6-.2-.9-.4-.2-.2-.3-.5-.3-.8V5c0-.3.2-.6.4-.8.3-.3.5-.4.8-.4a171.6 171.6 0 0 1 18.1 0c.3 0 .6.1.8.4.2.2.4.5.4.8v2h2.6V4.8c-.1-2-1.7-3.6-3.7-3.7a176.4 176.4 0 0 0-18.3 0c-2 .1-3.5 1.7-3.6 3.7V10c0 2 1.6 3.6 3.6 3.7h18.3ZM284.6 1.4H264V4h9v19.6h2.6V4h9V1.4ZM308.1 4V1.4h-20.5v22.2H308V21h-18v-7.2h18v-2.6h-18V4h18ZM333.8 13.8A1.2 1.2 0 0 1 335 15v3l-.1 2c0 .3-.2.6-.4.8-.2.2-.5.3-.8.3a171.7 171.7 0 0 1-18 0c-.4 0-.6 0-.9-.3-.2-.2-.3-.5-.3-.8v-2h-2.7l.1 2.1c.1 2 1.7 3.6 3.6 3.7a220.4 220.4 0 0 0 18.3 0c2-.1 3.6-1.7 3.7-3.7v-5.3c0-2-1.6-3.5-3.6-3.6h-18.3c-.3 0-.6-.2-.8-.4-.3-.2-.4-.5-.4-.8V7l.1-2c0-.3.1-.6.3-.8.3-.3.5-.4.9-.4a171.7 171.7 0 0 1 18 0c.3 0 .6.1.8.4.2.2.4.5.4.8v2h2.6V4.8c-.1-2-1.7-3.6-3.7-3.7a176.4 176.4 0 0 0-18.3 0C313.6 1.3 312 3 312 5V10c0 2 1.6 3.6 3.6 3.7h18.3ZM360.6 1.4h-20.5V4h9v19.6h2.5V4h9V1.4ZM362 21v2.6h2.5V21H362ZM391.4 20c0 .3-.1.6-.4.8-.2.2-.5.3-.8.3a182.5 182.5 0 0 1-18.6 0 1.2 1.2 0 0 1-1.2-1.1c-.2-5-.2-10 0-15 0-.3.1-.6.4-.8l.8-.4a229.6 229.6 0 0 1 18.6 0 1.3 1.3 0 0 1 1.2 1.2v2h2.7l-.1-2.1c-.1-2-1.7-3.6-3.7-3.7a188.3 188.3 0 0 0-18.8 0c-2 .1-3.5 1.7-3.6 3.7-.3 5-.3 10.1 0 15.2 0 2 1.6 3.6 3.6 3.6a186.6 186.6 0 0 0 18.8 0c2 0 3.6-1.6 3.7-3.6v-2h-2.5V20ZM411 3.6c3.2 0 6.3 0 9.4.2a1.3 1.3 0 0 1 1.2 1.2c.2 5 .2 10 0 15 0 .3-.2.6-.4.8-.2.2-.5.3-.8.3a182.5 182.5 0 0 1-18.7 0 1.2 1.2 0 0 1-1.1-1.1c-.3-5-.3-10 0-15 0-.3.1-.6.3-.8l.8-.4 9.4-.2Zm-9.4-2.4c-2 .1-3.5 1.7-3.6 3.7-.3 5-.3 10.1 0 15.2.1 2 1.7 3.6 3.6 3.6a186.5 186.5 0 0 0 19 0c1.9 0 3.4-1.6 3.5-3.6.3-5 .3-10.1 0-15.2 0-2-1.6-3.6-3.6-3.7a188.3 188.3 0 0 0-18.9 0ZM453.4 1.4l-9.9 19-9.9-19h-4.5v22.2h2.6V4h.4l10.2 19.6h2.5L455 4h.4v19.6h2.6V1.4h-4.6Z"/></mask><path fill="#D0D0D0" d="M43 1.4 34.2 21 25.3 1.4h-2.8L13.7 21 4.8 1.4H2l10 22.2h3.3l8.6-19 8.6 19h3.3l10-22.2H43ZM61.3 3.6c3 0 6.2 0 9.3.2A1.3 1.3 0 0 1 71.8 5c.2 5 .2 10 0 15 0 .3-.2.6-.4.8-.2.2-.5.3-.8.3a182.5 182.5 0 0 1-18.7 0 1.2 1.2 0 0 1-1.1-1.1c-.3-5-.3-10 0-15 0-.3.1-.6.3-.8l.8-.4 9.4-.2Zm-9.4-2.4c-2 .1-3.6 1.7-3.7 3.7-.3 5-.3 10.1 0 15.2.1 2 1.7 3.6 3.7 3.6a186.6 186.6 0 0 0 18.8 0c2 0 3.5-1.6 3.6-3.6.3-5 .3-10.1 0-15.2 0-2-1.6-3.6-3.6-3.7a188.3 188.3 0 0 0-18.8 0ZM79.2 1.4v22.2h2.5V15h6.4l12.2 8.5h4.5L92.6 15h7c2 0 3.5-1.6 3.6-3.6V5c0-2-1.6-3.6-3.6-3.7H79.2ZM99.5 4c.3 0 .6.2.8.4.2.2.3.5.3.8v6.1c0 .3 0 .6-.3.9-.2.2-.5.3-.8.3H81.7V4h17.8ZM125.8 21h-15.3V1.4h-2.6v22.2h18V21ZM128.8 23.6H151c2-.1 3.5-1.7 3.6-3.7V5.1c0-2-1.7-3.6-3.6-3.7h-23.7V4h1.6v19.6Zm23.2-3.8c0 .3-.2.6-.4.8-.2.2-.5.4-.8.4h-19.4V4h19.4a1.3 1.3 0 0 1 1.2 1.2v14.6ZM180.9 13.8a1.2 1.2 0 0 1 1.2 1.2v3l-.1 2c0 .3-.2.6-.4.8-.2.2-.5.3-.8.3a171.6 171.6 0 0 1-18 0c-.4 0-.6 0-.9-.3-.2-.2-.3-.5-.3-.8l-.1-2h-2.6l.1 2.1c.1 2 1.7 3.6 3.6 3.7a220.4 220.4 0 0 0 18.3 0c2-.1 3.6-1.7 3.7-3.7v-5.3c0-2-1.6-3.5-3.6-3.6h-18.3c-.3 0-.6-.2-.9-.4-.2-.2-.3-.5-.3-.8V5c0-.3.2-.6.4-.8.3-.3.5-.4.9-.4a171.7 171.7 0 0 1 18 0c.3 0 .6.1.8.4.2.2.4.5.4.8v2h2.6V4.8c-.1-2-1.7-3.6-3.7-3.7a176.4 176.4 0 0 0-18.3 0c-2 .1-3.5 1.7-3.6 3.7V10c0 2 1.6 3.6 3.6 3.7h18.3ZM191.7 23.6v-9.8h16.4v-2.6h-16.4V4h18V1.4h-20.6v22.2h2.6ZM230.8 23.6h2.8l-10-22.2H218l-10 22.2h2.9l2.1-4.8h15.8l2.1 4.8Zm-16.7-7.4L219.6 4h2.4l5.5 12.2H214ZM257.8 13.8a1.2 1.2 0 0 1 1.1 1.2v5c0 .3-.2.6-.4.8-.2.2-.5.3-.8.3a171.6 171.6 0 0 1-18 0c-.4 0-.6 0-.9-.3-.2-.2-.3-.5-.3-.8l-.1-2h-2.6l.1 2.1c0 2 1.7 3.6 3.6 3.7a220.4 220.4 0 0 0 18.3 0c2-.1 3.6-1.7 3.6-3.7l.1-2v-3.3c0-2-1.6-3.5-3.6-3.6h-18.3c-.3 0-.6-.2-.9-.4-.2-.2-.3-.5-.3-.8V5c0-.3.2-.6.4-.8.3-.3.5-.4.8-.4a171.6 171.6 0 0 1 18.1 0c.3 0 .6.1.8.4.2.2.4.5.4.8v2h2.6V4.8c-.1-2-1.7-3.6-3.7-3.7a176.4 176.4 0 0 0-18.3 0c-2 .1-3.5 1.7-3.6 3.7V10c0 2 1.6 3.6 3.6 3.7h18.3ZM284.6 1.4H264V4h9v19.6h2.6V4h9V1.4ZM308.1 4V1.4h-20.5v22.2H308V21h-18v-7.2h18v-2.6h-18V4h18ZM333.8 13.8A1.2 1.2 0 0 1 335 15v3l-.1 2c0 .3-.2.6-.4.8-.2.2-.5.3-.8.3a171.7 171.7 0 0 1-18 0c-.4 0-.6 0-.9-.3-.2-.2-.3-.5-.3-.8v-2h-2.7l.1 2.1c.1 2 1.7 3.6 3.6 3.7a220.4 220.4 0 0 0 18.3 0c2-.1 3.6-1.7 3.7-3.7v-5.3c0-2-1.6-3.5-3.6-3.6h-18.3c-.3 0-.6-.2-.8-.4-.3-.2-.4-.5-.4-.8V7l.1-2c0-.3.1-.6.3-.8.3-.3.5-.4.9-.4a171.7 171.7 0 0 1 18 0c.3 0 .6.1.8.4.2.2.4.5.4.8v2h2.6V4.8c-.1-2-1.7-3.6-3.7-3.7a176.4 176.4 0 0 0-18.3 0C313.6 1.3 312 3 312 5V10c0 2 1.6 3.6 3.6 3.7h18.3ZM360.6 1.4h-20.5V4h9v19.6h2.5V4h9V1.4ZM362 21v2.6h2.5V21H362ZM391.4 20c0 .3-.1.6-.4.8-.2.2-.5.3-.8.3a182.5 182.5 0 0 1-18.6 0 1.2 1.2 0 0 1-1.2-1.1c-.2-5-.2-10 0-15 0-.3.1-.6.4-.8l.8-.4a229.6 229.6 0 0 1 18.6 0 1.3 1.3 0 0 1 1.2 1.2v2h2.7l-.1-2.1c-.1-2-1.7-3.6-3.7-3.7a188.3 188.3 0 0 0-18.8 0c-2 .1-3.5 1.7-3.6 3.7-.3 5-.3 10.1 0 15.2 0 2 1.6 3.6 3.6 3.6a186.6 186.6 0 0 0 18.8 0c2 0 3.6-1.6 3.7-3.6v-2h-2.5V20ZM411 3.6c3.2 0 6.3 0 9.4.2a1.3 1.3 0 0 1 1.2 1.2c.2 5 .2 10 0 15 0 .3-.2.6-.4.8-.2.2-.5.3-.8.3a182.5 182.5 0 0 1-18.7 0 1.2 1.2 0 0 1-1.1-1.1c-.3-5-.3-10 0-15 0-.3.1-.6.3-.8l.8-.4 9.4-.2Zm-9.4-2.4c-2 .1-3.5 1.7-3.6 3.7-.3 5-.3 10.1 0 15.2.1 2 1.7 3.6 3.6 3.6a186.5 186.5 0 0 0 19 0c1.9 0 3.4-1.6 3.5-3.6.3-5 .3-10.1 0-15.2 0-2-1.6-3.6-3.6-3.7a188.3 188.3 0 0 0-18.9 0ZM453.4 1.4l-9.9 19-9.9-19h-4.5v22.2h2.6V4h.4l10.2 19.6h2.5L455 4h.4v19.6h2.6V1.4h-4.6Z"/><path stroke="#000" stroke-width="2" d="M43 1.4 34.2 21 25.3 1.4h-2.8L13.7 21 4.8 1.4H2l10 22.2h3.3l8.6-19 8.6 19h3.3l10-22.2H43ZM61.3 3.6c3 0 6.2 0 9.3.2A1.3 1.3 0 0 1 71.8 5c.2 5 .2 10 0 15 0 .3-.2.6-.4.8-.2.2-.5.3-.8.3a182.5 182.5 0 0 1-18.7 0 1.2 1.2 0 0 1-1.1-1.1c-.3-5-.3-10 0-15 0-.3.1-.6.3-.8l.8-.4 9.4-.2Zm-9.4-2.4c-2 .1-3.6 1.7-3.7 3.7-.3 5-.3 10.1 0 15.2.1 2 1.7 3.6 3.7 3.6a186.6 186.6 0 0 0 18.8 0c2 0 3.5-1.6 3.6-3.6.3-5 .3-10.1 0-15.2 0-2-1.6-3.6-3.6-3.7a188.3 188.3 0 0 0-18.8 0ZM79.2 1.4v22.2h2.5V15h6.4l12.2 8.5h4.5L92.6 15h7c2 0 3.5-1.6 3.6-3.6V5c0-2-1.6-3.6-3.6-3.7H79.2ZM99.5 4c.3 0 .6.2.8.4.2.2.3.5.3.8v6.1c0 .3 0 .6-.3.9-.2.2-.5.3-.8.3H81.7V4h17.8ZM125.8 21h-15.3V1.4h-2.6v22.2h18V21ZM128.8 23.6H151c2-.1 3.5-1.7 3.6-3.7V5.1c0-2-1.7-3.6-3.6-3.7h-23.7V4h1.6v19.6Zm23.2-3.8c0 .3-.2.6-.4.8-.2.2-.5.4-.8.4h-19.4V4h19.4a1.3 1.3 0 0 1 1.2 1.2v14.6ZM180.9 13.8a1.2 1.2 0 0 1 1.2 1.2v3l-.1 2c0 .3-.2.6-.4.8-.2.2-.5.3-.8.3a171.6 171.6 0 0 1-18 0c-.4 0-.6 0-.9-.3-.2-.2-.3-.5-.3-.8l-.1-2h-2.6l.1 2.1c.1 2 1.7 3.6 3.6 3.7a220.4 220.4 0 0 0 18.3 0c2-.1 3.6-1.7 3.7-3.7v-5.3c0-2-1.6-3.5-3.6-3.6h-18.3c-.3 0-.6-.2-.9-.4-.2-.2-.3-.5-.3-.8V5c0-.3.2-.6.4-.8.3-.3.5-.4.9-.4a171.7 171.7 0 0 1 18 0c.3 0 .6.1.8.4.2.2.4.5.4.8v2h2.6V4.8c-.1-2-1.7-3.6-3.7-3.7a176.4 176.4 0 0 0-18.3 0c-2 .1-3.5 1.7-3.6 3.7V10c0 2 1.6 3.6 3.6 3.7h18.3ZM191.7 23.6v-9.8h16.4v-2.6h-16.4V4h18V1.4h-20.6v22.2h2.6ZM230.8 23.6h2.8l-10-22.2H218l-10 22.2h2.9l2.1-4.8h15.8l2.1 4.8Zm-16.7-7.4L219.6 4h2.4l5.5 12.2H214ZM257.8 13.8a1.2 1.2 0 0 1 1.1 1.2v5c0 .3-.2.6-.4.8-.2.2-.5.3-.8.3a171.6 171.6 0 0 1-18 0c-.4 0-.6 0-.9-.3-.2-.2-.3-.5-.3-.8l-.1-2h-2.6l.1 2.1c0 2 1.7 3.6 3.6 3.7a220.4 220.4 0 0 0 18.3 0c2-.1 3.6-1.7 3.6-3.7l.1-2v-3.3c0-2-1.6-3.5-3.6-3.6h-18.3c-.3 0-.6-.2-.9-.4-.2-.2-.3-.5-.3-.8V5c0-.3.2-.6.4-.8.3-.3.5-.4.8-.4a171.6 171.6 0 0 1 18.1 0c.3 0 .6.1.8.4.2.2.4.5.4.8v2h2.6V4.8c-.1-2-1.7-3.6-3.7-3.7a176.4 176.4 0 0 0-18.3 0c-2 .1-3.5 1.7-3.6 3.7V10c0 2 1.6 3.6 3.6 3.7h18.3ZM284.6 1.4H264V4h9v19.6h2.6V4h9V1.4ZM308.1 4V1.4h-20.5v22.2H308V21h-18v-7.2h18v-2.6h-18V4h18ZM333.8 13.8A1.2 1.2 0 0 1 335 15v3l-.1 2c0 .3-.2.6-.4.8-.2.2-.5.3-.8.3a171.7 171.7 0 0 1-18 0c-.4 0-.6 0-.9-.3-.2-.2-.3-.5-.3-.8v-2h-2.7l.1 2.1c.1 2 1.7 3.6 3.6 3.7a220.4 220.4 0 0 0 18.3 0c2-.1 3.6-1.7 3.7-3.7v-5.3c0-2-1.6-3.5-3.6-3.6h-18.3c-.3 0-.6-.2-.8-.4-.3-.2-.4-.5-.4-.8V7l.1-2c0-.3.1-.6.3-.8.3-.3.5-.4.9-.4a171.7 171.7 0 0 1 18 0c.3 0 .6.1.8.4.2.2.4.5.4.8v2h2.6V4.8c-.1-2-1.7-3.6-3.7-3.7a176.4 176.4 0 0 0-18.3 0C313.6 1.3 312 3 312 5V10c0 2 1.6 3.6 3.6 3.7h18.3ZM360.6 1.4h-20.5V4h9v19.6h2.5V4h9V1.4ZM362 21v2.6h2.5V21H362ZM391.4 20c0 .3-.1.6-.4.8-.2.2-.5.3-.8.3a182.5 182.5 0 0 1-18.6 0 1.2 1.2 0 0 1-1.2-1.1c-.2-5-.2-10 0-15 0-.3.1-.6.4-.8l.8-.4a229.6 229.6 0 0 1 18.6 0 1.3 1.3 0 0 1 1.2 1.2v2h2.7l-.1-2.1c-.1-2-1.7-3.6-3.7-3.7a188.3 188.3 0 0 0-18.8 0c-2 .1-3.5 1.7-3.6 3.7-.3 5-.3 10.1 0 15.2 0 2 1.6 3.6 3.6 3.6a186.6 186.6 0 0 0 18.8 0c2 0 3.6-1.6 3.7-3.6v-2h-2.5V20ZM411 3.6c3.2 0 6.3 0 9.4.2a1.3 1.3 0 0 1 1.2 1.2c.2 5 .2 10 0 15 0 .3-.2.6-.4.8-.2.2-.5.3-.8.3a182.5 182.5 0 0 1-18.7 0 1.2 1.2 0 0 1-1.1-1.1c-.3-5-.3-10 0-15 0-.3.1-.6.3-.8l.8-.4 9.4-.2Zm-9.4-2.4c-2 .1-3.5 1.7-3.6 3.7-.3 5-.3 10.1 0 15.2.1 2 1.7 3.6 3.6 3.6a186.5 186.5 0 0 0 19 0c1.9 0 3.4-1.6 3.5-3.6.3-5 .3-10.1 0-15.2 0-2-1.6-3.6-3.6-3.7a188.3 188.3 0 0 0-18.9 0ZM453.4 1.4l-9.9 19-9.9-19h-4.5v22.2h2.6V4h.4l10.2 19.6h2.5L455 4h.4v19.6h2.6V1.4h-4.6Z" mask="url(#a)"/></svg>