<svg xmlns="http://www.w3.org/2000/svg" viewBox="0 0 182 83"><path fill="#fff" d="m41 0-9 20-9-20h-3l-8 20L3 0H0l10 22h3l9-19 8 19h4L44 0h-3Zm18 3a231 231 0 0 1 11 1 145 145 0 0 1-1 15l-1 1a184 184 0 0 1-19-1 145 145 0 0 1 0-16h10Zm-9-3c-2 0-4 2-4 4v15c0 2 2 3 4 3a189 189 0 0 0 18 0c2 0 4-1 4-3V4c0-2-2-4-4-4a190 190 0 0 0-18 0Zm27 0v22h2v-8h7l12 8h4l-12-8h7c2 0 4-2 4-4V4c0-2-2-4-4-4H77Zm20 3h1v8H79V3h18Zm26 17h-15V0h-2v22h17v-2Zm3 2h22c2 0 4-1 4-3V4c0-2-2-4-4-4h-23v3h1v19Zm23-4v1l-1 1h-19V3h20v15Zm29-5h1v6l-1 1a173 173 0 0 1-19-1v-2h-3v2c1 2 2 3 4 3a223 223 0 0 0 18 0c2 0 4-1 4-3v-5c0-2-2-4-4-4h-19V6a2344379 2344379 0 0 0 1-3 173 173 0 0 1 19 0v3h3V4c0-2-2-4-4-4a178 178 0 0 0-18 0c-2 0-3 2-4 4v5l4 4h18ZM5 52v-9h16v-3H5v-7h18v-2H2v21h3Zm39 0h2L36 31h-5L21 52h3l2-4h15l3 4Zm-17-7 5-12h3l5 12H27Zm43-2h1l1 1v3l-1 2v1h-1a174 174 0 0 1-18 0l-1-1v-2h-2v2c0 2 1 4 3 4a223 223 0 0 0 18 0c2 0 4-2 4-4v-5c0-2-2-4-3-4H51v-6l1-1a174 174 0 0 1 19 0l1 1v2h2v-2c0-2-2-3-4-4a178 178 0 0 0-18 0c-2 1-3 2-3 4v5c0 2 1 4 3 4h18Zm27-12H77v2h9v19h2V33h9v-2Zm24 2v-2h-21v21h21v-2h-18v-7h18v-3h-18v-7h18Zm25 10h1v7h-1a174 174 0 0 1-19 0v-3h-3v2c0 2 2 4 4 4a223 223 0 0 0 18 0c2 0 4-2 4-4v-5c0-2-2-4-4-4h-19v-4a234460 234460 0 0 1 1-3 174 174 0 0 1 19 0v3h3v-2c0-2-2-3-4-4a178 178 0 0 0-18 0c-2 1-4 2-4 4v5c0 2 2 4 4 4h18Zm27-12h-21v2h9v19h3V33h9v-2ZM0 80v3h3v-3H0Zm30-1-1 1a185 185 0 0 1-20 0v-1a145 145 0 0 1 0-15l1-1a232 232 0 0 1 19 1h1v2h2v-2c0-2-1-3-3-3a190 190 0 0 0-19 0c-2 0-4 1-4 3v15c0 2 2 4 4 4a189 189 0 0 0 19 0c2 0 3-2 3-4v-2h-2v2Zm19-16a230 230 0 0 1 11 1 145 145 0 0 1-1 16 185 185 0 0 1-20 0v-1a145 145 0 0 1 0-15l1-1h9Zm-9-2c-2 0-4 1-4 3v15c0 2 2 4 4 4a189 189 0 0 0 19 0c2 0 3-2 3-4V64c0-2-1-3-3-3a190 190 0 0 0-19 0Zm52 0L82 80 72 61h-5v22h3V63l10 20h3l10-20h1v20h2V61h-4Z"/></svg>