<svg xmlns="http://www.w3.org/2000/svg" viewBox="0 0 125 57"><path fill="#fff" d="m28 .3-6 13.2L16 .3h-2L8 13.5 2 .3H0l6.8 15h2.3l6-13 5.8 13h2.3L30 .2h-2Zm12.6 1.5a158.4 158.4 0 0 1 7 .4l.2.5a99.3 99.3 0 0 1-.3 10.7l-.5.2a126.7 126.7 0 0 1-13.4-.2 99.3 99.3 0 0 1 0-11.2l.6-.3 6.4-.1ZM34 0a2.6 2.6 0 0 0-2.5 2.5V13a2.8 2.8 0 0 0 2.5 2.5 129.5 129.5 0 0 0 13 0c1.3 0 2.4-1.2 2.4-2.5.2-3.4.2-6.8 0-10.3 0-1.3-1.1-2.4-2.5-2.5A130.7 130.7 0 0 0 34 .2Zm18.8.3v15h1.8V9.4h4.3l8.4 5.7h3L62 9.5h4.8c1.3 0 2.4-1.1 2.5-2.4V2.8c0-1.4-1.1-2.5-2.5-2.5h-14Zm14 1.7.5.3.2.5V7c0 .2 0 .4-.2.5l-.6.3H54.6V2h12.1Zm18 11.5H74.2V.3h-1.7v15h12.3v-1.8Zm2 1.7H102c1.4 0 2.4-1 2.5-2.4v-10c0-1.4-1.1-2.5-2.5-2.5H85.7V2h1.1v13.2Zm15.9-2.5c0 .2-.2.4-.3.5-.2.2-.3.3-.6.3H88.6V2h13.2c.3 0 .5.1.6.3l.3.5v9.9Zm19.8-4.1c.1 0 .4.1.5.3.2.1.2.3.2.5v3.4l-.3.6-.5.2a119.2 119.2 0 0 1-13-.2.9.9 0 0 1-.2-.6v-1.3h-1.8v1.4a2.8 2.8 0 0 0 2.5 2.5 153.1 153.1 0 0 0 12.6 0c1.3 0 2.4-1.2 2.5-2.5V9.3c0-1.3-1.1-2.4-2.5-2.4H110a1 1 0 0 1-.6-.3.8.8 0 0 1-.2-.5V2.7l.3-.6.5-.2a119.2 119.2 0 0 1 13 .2l.2.6V4h1.8V2.6a2.8 2.8 0 0 0-2.5-2.5 122.5 122.5 0 0 0-12.6 0 2.6 2.6 0 0 0-2.4 2.5v3.6c0 1.3 1 2.4 2.4 2.4h12.6ZM3.1 36v-6.6h11.2v-1.8H3.1v-4.8h12.4V21H1.4v15H3ZM30 36h1.8L25 21h-4l-6.8 15h1.9l1.5-3.2h10.7L30 36Zm-11.5-5 3.7-8.2H24l3.7 8.2h-9.1Zm29.9-1.6c.2 0 .4 0 .5.2l.3.6v2l-.1 1.4c0 .2 0 .4-.2.5-.2.2-.4.2-.6.2a119.2 119.2 0 0 1-12.9-.2.9.9 0 0 1-.3-.5v-1.3h-1.8v1.3c.2 1.4 1.2 2.5 2.6 2.5a153.1 153.1 0 0 0 12.5 0c1.3 0 2.4-1.1 2.5-2.5v-3.5c0-1.3-1.1-2.4-2.5-2.5H36a1 1 0 0 1-.6-.2.8.8 0 0 1-.2-.6v-2a5243 5243 0 0 1 .3-2l.6-.1a119.2 119.2 0 0 1 12.9.2l.2.6v1.2H51v-1.3c0-1.4-1.2-2.4-2.5-2.5a122.5 122.5 0 0 0-12.5 0 2.6 2.6 0 0 0-2.5 2.5v3.5c0 1.4 1 2.4 2.4 2.5h12.6ZM66.7 21h-14v1.8h6V36h1.9V22.8h6.1V21Zm16.1 1.8V21h-14v15h14v-1.8H70.5v-4.8h12.3v-1.8H70.5v-4.8h12.3Zm17.6 6.6c.2 0 .4 0 .6.2l.2.6v3.4c0 .2-.2.4-.3.5-.2.2-.3.2-.6.2a119.2 119.2 0 0 1-12.9-.2.9.9 0 0 1-.2-.5v-1.3h-1.8v1.3c0 1.4 1.2 2.5 2.5 2.5a153.1 153.1 0 0 0 12.5 0c1.4 0 2.4-1.1 2.5-2.5v-3.5c0-1.3-1-2.4-2.4-2.5H87.9a1 1 0 0 1-.5-.2.8.8 0 0 1-.3-.6v-2l.1-1.3c0-.2 0-.5.2-.6.2-.2.4-.2.6-.2a119.2 119.2 0 0 1 12.9.2l.3.6v1.2h1.8v-1.3a2.8 2.8 0 0 0-2.6-2.5 122.5 122.5 0 0 0-12.5 0 2.6 2.6 0 0 0-2.5 2.5v3.5c0 1.4 1.1 2.4 2.5 2.5h12.5Zm18.4-8.4h-14.1v1.8h6.1V36h1.8V22.8h6.2V21ZM.3 55v1.7H2V55H.3Zm20.1-.7c0 .2 0 .4-.2.6l-.6.2a126.7 126.7 0 0 1-13.3-.2 99.3 99.3 0 0 1 0-11.2l.6-.3a159.5 159.5 0 0 1 12.7 0l.6.3.2.5v1.3h1.9l-.1-1.4c0-1.3-1.1-2.4-2.5-2.5a130.7 130.7 0 0 0-13 0 2.6 2.6 0 0 0-2.4 2.5c-.2 3.5-.2 6.9 0 10.3 0 1.3 1.1 2.4 2.5 2.5a129.5 129.5 0 0 0 13 0c1.3 0 2.3-1.2 2.4-2.5V53h-1.7v1.3Zm13.5-11a158.4 158.4 0 0 1 7 .4l.2.5a99.3 99.3 0 0 1-.3 10.7l-.5.2a126.7 126.7 0 0 1-13.3-.2 99.3 99.3 0 0 1 0-11.2c.1-.2.3-.3.5-.3l6.4-.1Zm-6.5-1.7a2.6 2.6 0 0 0-2.4 2.5c-.2 3.5-.2 6.9 0 10.3 0 1.3 1 2.4 2.4 2.5a129.5 129.5 0 0 0 13 0c1.3 0 2.4-1.2 2.4-2.5.2-3.4.2-6.8 0-10.3 0-1.3-1.1-2.4-2.4-2.5a130.7 130.7 0 0 0-13 0Zm35.5.2L56 54.6l-6.8-12.8h-3v15H48V43.4h.3l7 13.2H57l7-13.2h.3v13.2H66v-15h-3Z"/></svg>