<svg width="1440" height="156" viewBox="0 0 1440 156" fill="none" xmlns="http://www.w3.org/2000/svg">
<path d="M6.10352e-05 142.585V20.1695L3.45606 20.5461L6.91206 20.9227L11.5201 18.7174C14.1697 17.4804 17.5105 16.1356 19.0081 15.6516L21.8881 14.7909V14.038V13.2851H24.6529H27.4177L28.1089 12.4783L28.6849 11.6715H30.7585H32.9473L34.4449 12.6934L36.0577 13.7152L48.8449 13.5001L61.6321 13.2312L65.2033 12.4244L68.7745 11.6177L70.7329 9.46626L72.6913 7.36868H75.8017H79.0273L81.3313 8.17546L83.7505 8.9284L90.7777 8.82099L97.6897 8.71331L97.2289 8.33671L96.6529 7.96037L99.3025 7.63761C100.8 7.47625 103.91 7.26117 106.214 7.15359L110.477 6.93851L111.053 7.74528C111.398 8.17557 111.744 8.92835 111.744 9.41242L111.859 10.3269L114.394 11.8328L117.043 13.2851L123.955 13.2312C127.642 13.1774 136.166 13.2314 142.733 13.3927L154.714 13.7152L155.635 14.4684L156.672 15.1675V14.522V13.8767L158.4 14.0918C159.322 14.2532 161.05 14.5222 162.202 14.7374C163.238 14.8987 165.082 15.0062 166.118 14.9525L168.077 14.8448L168.883 16.1894L169.574 17.534L168.768 18.5559L168.077 19.6316L169.344 20.0082L170.496 20.331L169.92 20.8688L169.229 21.3528H171.878H174.643L176.947 22.1596L179.136 22.9126H181.44H183.744L186.048 21.9984C189.043 20.7613 193.536 17.803 193.536 17.05V16.5122H194.688H195.84V15.7592C195.84 15.329 196.186 14.8985 196.762 14.7909C197.914 14.5758 201.6 10.7572 201.6 9.78902V8.98224H202.637H203.558L203.328 7.69145L202.982 6.45423L205.402 5.70129C208.858 4.5718 214.502 1.99016 213.466 1.99016C213.005 1.99016 214.157 1.55993 216 0.968292L219.456 0L221.299 0.322764C222.336 0.48412 224.41 1.07591 225.907 1.55998C232.243 3.71139 237.082 5.05602 240.307 5.59387L243.878 6.1853L251.136 8.76715C255.168 10.1656 259.776 11.9403 261.389 12.6395C263.002 13.3387 267.034 14.6836 270.144 15.5441C273.37 16.4047 280.512 18.4485 286.157 20.0621C291.802 21.6756 296.986 22.9664 297.792 22.9664C298.598 22.9664 301.363 23.7731 304.128 24.795L309.082 26.6237H313.574L318.067 26.6775L319.45 27.108L320.832 27.5381L324.288 27.4843L327.744 27.4305L330.97 28.1837L334.08 28.9366L334.195 30.3887C334.31 31.1954 334.195 32.3787 334.08 33.0779L333.965 34.2613H336.614H339.264L337.536 34.7992L335.808 35.337H338.458C341.107 35.337 345.6 36.3051 346.982 37.2195L347.789 37.7035L347.098 42.7057L346.406 47.7076L348.365 48.0304L350.323 48.4067L354.816 46.363L359.194 44.3728L360.691 44.7494L362.074 45.1796L361.267 44.5882L360.461 43.9965L363.686 43.0282C365.414 42.4903 367.718 41.63 368.64 41.0921L370.368 40.1777L374.4 40.7155L378.432 41.3072L385.92 41.1995C390.067 41.1995 396.173 41.1458 399.514 41.1995L405.619 41.2534L408.154 40.5004C409.536 40.0702 412.646 39.5861 415.066 39.4247L419.328 39.0481V38.5641V38.0801L421.862 37.7035C423.245 37.5421 426.125 37.0042 428.314 36.574L432.346 35.7672L430.733 35.2832L429.12 34.7992L436.493 35.0681C440.525 35.2294 444.326 35.4984 444.787 35.6598L445.824 35.9287V35.4447V34.9068L448.128 34.6379L450.432 34.369L451.238 35.7672C451.699 36.574 451.93 37.4885 451.814 37.865L451.469 38.5103L454.694 38.8869C456.422 39.102 460.109 39.8012 462.758 40.5004L467.597 41.7374H472.55C475.315 41.7374 482.688 41.7912 489.024 41.7912L500.429 41.8451L501.926 40.9306C502.733 40.3928 503.424 39.6397 503.424 39.2632V38.5641H505.613H507.802L508.493 37.7573L509.184 36.8967L512.986 37.0582L516.902 37.1657L521.28 35.4447L525.658 33.7773L526.694 34.0462L527.616 34.3151V33.4545V32.6477L530.496 32.0022C532.109 31.6795 533.376 31.1954 533.376 30.9265V30.4963H536.026H538.79L541.901 31.7333C543.629 32.3787 546.278 33.4008 547.661 34.0462L550.31 35.1219L552.499 34.7992C553.651 34.584 555.264 34.5303 556.07 34.6379L557.453 34.9068L558.144 33.3468C558.605 32.5401 559.987 30.55 561.254 29.044L563.558 26.1935H565.286C566.208 26.1935 568.627 26.5162 570.586 26.9465C572.659 27.3767 576.115 27.9684 578.304 28.2911L582.336 28.8289L589.824 28.9905L597.312 29.0979L603.072 27.6994C606.298 26.9464 611.597 25.7632 614.822 25.064L620.928 23.7732V23.0741C620.928 22.6976 621.389 21.9984 621.965 21.4605C622.541 20.9765 623.693 19.7392 624.384 18.8248L625.766 17.05H627.725C628.762 17.05 632.678 17.6416 636.48 18.3408L643.277 19.6855L644.544 19.2553C645.12 19.0401 648.115 18.5022 651.11 18.1257L656.64 17.4802L658.944 17.7491L661.248 18.0181L660.557 17.534L659.981 17.05L661.478 16.7811C662.285 16.6735 665.395 16.4584 668.39 16.2971L673.805 16.082L674.611 17.9106L675.302 19.6855L676.915 20.331L678.528 20.9227V21.9445V22.9126L682.56 23.2892C684.749 23.4505 686.938 23.827 687.283 24.0959L687.859 24.58H690.624H693.389L694.541 25.548L695.808 26.4624L696.73 25.7633L697.766 25.064L704.333 25.8169L710.784 26.6237L714.125 25.2255C715.968 24.4725 719.078 23.558 721.037 23.1815L724.493 22.4824L727.373 23.8809C728.986 24.6339 730.368 25.548 730.368 25.8708C730.368 26.1935 732.096 27.2692 734.054 28.2911L737.626 30.1197L743.155 30.2274L748.8 30.3351L752.026 31.7333C753.869 32.5401 755.712 33.1856 756.403 33.1856C756.979 33.1856 758.822 33.5083 760.435 33.9385L763.546 34.6915L765.043 34.2075C765.965 33.9385 768.269 33.7234 770.227 33.7234H773.798L776.448 32.6477C777.946 32.0561 779.443 31.572 779.789 31.572C780.134 31.6258 782.554 31.7871 785.088 32.0561L789.696 32.4327L803.52 31.841L817.344 31.1954L818.957 31.7871L820.685 32.3788L819.878 31.4644L819.187 30.4963L819.994 30.6576C821.376 30.8727 825.638 28.7215 826.56 27.3231L827.482 25.9784L829.901 25.0101L832.32 24.0421L835.661 24.311C837.504 24.4724 839.923 24.9026 840.845 25.3329C842.688 26.0321 844.877 26.3549 854.784 27.2692L859.968 27.7532L866.304 29.2055L872.64 30.7114L878.976 30.8729C882.432 30.9267 885.888 30.9804 886.579 31.0342H887.962L887.731 31.9486L887.616 32.8628L889.69 33.0779L891.648 33.2394V32.3788V31.5182L898.33 31.6259L905.011 31.7333L907.776 30.9804C909.389 30.5501 910.886 30.066 911.232 29.9046C911.578 29.7433 913.421 29.4207 915.494 29.2594L919.181 28.9366L921.6 30.4425C922.867 31.3031 923.904 32.2176 923.904 32.4865C923.904 32.7554 926.899 34.4764 930.586 36.3589L937.267 39.6937L940.493 39.102L943.834 38.5103L946.253 38.6718C949.709 38.8869 951.206 39.6935 952.819 42.2214L954.202 44.4805L957.082 45.3411L959.962 46.2553H962.611H965.376L964.685 46.6857L964.109 47.1698H965.146H966.298L966.989 49.0522L967.795 50.9347L970.33 51.2037L972.864 51.4726L982.08 51.2037C987.149 51.0423 992.678 50.881 994.522 50.7735L997.632 50.6658L997.747 50.2892C997.862 50.0203 997.978 49.6976 998.093 49.4824C998.323 48.7832 1002.24 46.3629 1002.24 46.847V47.2774L1003.74 46.7396L1005.12 46.2017L1009.73 46.9547L1014.34 47.7076L1024.13 48.0304C1029.54 48.1917 1036.22 48.3531 1039.1 48.3531H1044.17L1045.44 49.0522C1046.02 49.4287 1047.97 49.859 1049.59 50.0741L1052.7 50.3969L1055.92 49.8052L1059.26 49.2673L1061.34 47.9227C1062.6 47.1697 1063.64 46.2555 1063.76 45.9328C1063.99 45.5563 1064.45 44.9108 1064.79 44.4805C1065.14 44.0502 1065.72 42.9745 1066.06 42.0602C1066.41 41.1996 1066.98 39.9086 1067.44 39.2632L1068.13 38.0263L1069.06 38.2952L1070.09 38.5641L1070.67 38.0801L1071.36 37.5961L1075.51 38.0263L1079.65 38.4564L1086.68 38.1339C1094.28 37.8112 1096.36 37.8111 1108.11 38.0263L1115.37 38.1339L1116.29 37.4884L1117.09 36.8967L1122.16 36.3589C1124.93 36.09 1128.15 35.7135 1129.42 35.5521L1131.61 35.2293L1130.8 35.7672L1130.11 36.2515L1135.07 35.821C1137.72 35.6059 1141.4 35.1757 1143.13 34.853L1146.47 34.2613L1147.62 34.5841L1148.89 34.9604L1148.2 34.4226L1147.51 33.8847L1150.62 33.1856C1152.35 32.7553 1154.65 32.4327 1155.8 32.4865H1157.76V31.572C1157.76 31.088 1158.11 30.4964 1158.57 30.2812C1159.14 30.0661 1159.49 29.6897 1159.49 29.5283C1159.49 29.3132 1160.41 28.5601 1161.56 27.8071C1162.6 27.1079 1163.52 26.7314 1163.52 27.0003V27.4843L1164.79 26.8926L1166.05 26.3012L1169.16 27.0541L1172.28 27.7532L1177.92 28.1298C1183.45 28.3988 1189.79 28.7213 1195.78 29.044C1197.39 29.0978 1198.89 29.3131 1199.23 29.4745C1199.58 29.6358 1201.54 30.066 1203.72 30.3887L1207.76 31.0342L1208.33 30.604C1208.68 30.3351 1210.18 30.0122 1211.56 29.8508L1214.09 29.5283L1214.67 30.2812L1215.24 31.0342H1220.54H1225.84L1225.15 31.572L1224.46 32.1099H1226.88H1229.3L1228.61 31.6259L1228.03 31.088L1230.22 30.7653L1232.52 30.4425L1234.94 31.0342C1236.21 31.3569 1237.25 31.841 1237.25 32.1099V32.6477H1235.29H1233.45L1234.14 32.9705C1234.48 33.1856 1237.71 33.3469 1241.16 33.4007L1247.39 33.5084L1246.81 33.0779L1246.35 32.6477L1249.8 32.7554L1253.38 32.8628V34.1001V35.337H1255.45C1256.49 35.337 1259.71 35.7135 1262.48 36.1438L1267.43 37.0044L1275.15 34.1001C1284.83 30.3889 1293.7 26.4623 1293.7 25.8169C1293.7 25.548 1293.12 25.0641 1292.31 24.6876L1291.05 24.0959L1292.31 23.343L1293.7 22.5898L1292.77 22.2135L1291.97 21.783L1294.16 21.0301L1296.46 20.2771H1302.57H1308.79L1312.47 19.5242L1316.16 18.8248L1319.39 17.319L1322.5 15.8131V14.8986V13.9306L1324.92 13.6617L1327.45 13.3389L1330.56 13.6078L1333.67 13.9306L1335.74 12.9085C1336.9 12.3706 1338.05 11.9941 1338.28 12.1017C1339.08 12.4244 1344.38 11.5101 1345.54 10.8647L1346.8 10.1118L1348.65 10.4345L1350.49 10.757L1349.57 10.0041L1348.53 9.25117L1350.49 10.0041L1352.45 10.7035L1359.59 9.46626C1363.62 8.76705 1367.42 8.17541 1368 8.12162C1368.69 8.06784 1370.42 7.79907 1372.03 7.47636L1374.91 6.93851L1376.99 8.01421L1379.06 9.14349L1378.48 9.84286L1377.91 10.4881L1380.21 10.757L1382.4 11.026V11.8328V12.586L1388.16 12.1555L1393.92 11.7253L1395.65 10.9186C1396.57 10.4883 1397.38 9.8428 1397.38 9.52009C1397.38 8.71331 1402.1 6.88462 1404.17 6.83083H1405.79L1409.47 8.12162L1413.16 9.46626H1419.96C1423.64 9.46626 1428.36 9.46626 1430.21 9.46626C1432.17 9.46626 1434.93 9.51999 1436.54 9.68134L1439.42 9.89669L1439.77 137.421L1440 265H720H6.10352e-05V142.585Z" fill="#A73A24"/>
</svg>
