<svg width="475" height="41" viewBox="0 0 475 41" fill="none" xmlns="http://www.w3.org/2000/svg">
<path d="M202.592 37.969H200.745V38.8515H202.592V37.969Z" fill="white"/>
<path d="M204.22 37.5843C204.082 37.7222 203.999 37.9152 203.971 38.1358H205.599C205.571 37.8876 205.488 37.6946 205.35 37.5843C205.212 37.4464 205.019 37.3913 204.799 37.3913C204.551 37.3913 204.358 37.4464 204.22 37.5843ZM205.626 36.757C205.874 36.8673 206.095 37.0603 206.26 37.2809C206.398 37.5016 206.509 37.7498 206.536 38.0255C206.564 38.191 206.564 38.4392 206.564 38.7426H203.944C203.971 39.1011 204.082 39.3492 204.33 39.5147C204.468 39.5974 204.661 39.6526 204.854 39.6526C205.075 39.6526 205.24 39.5974 205.378 39.4871C205.461 39.432 205.516 39.3492 205.571 39.2389H206.536C206.509 39.4596 206.398 39.6802 206.178 39.9008C205.847 40.2593 205.405 40.4248 204.826 40.4248C204.358 40.4248 203.916 40.2869 203.558 39.9835C203.199 39.6802 203.006 39.2114 203.006 38.5495C203.006 37.9152 203.172 37.4464 203.503 37.1155C203.834 36.7845 204.275 36.6191 204.799 36.6191C205.102 36.5915 205.378 36.6467 205.626 36.757Z" fill="white"/>
<path d="M194.043 37.5843C193.906 37.7222 193.823 37.9152 193.795 38.1358H195.422C195.395 37.8876 195.312 37.6946 195.174 37.5843C195.036 37.4464 194.843 37.3913 194.623 37.3913C194.347 37.3913 194.181 37.4464 194.043 37.5843ZM195.45 36.757C195.698 36.8673 195.919 37.0603 196.084 37.2809C196.222 37.5016 196.332 37.7498 196.36 38.0255C196.388 38.191 196.388 38.4392 196.388 38.7426H193.768C193.795 39.1011 193.906 39.3492 194.154 39.5147C194.292 39.5974 194.485 39.6526 194.678 39.6526C194.898 39.6526 195.064 39.5974 195.202 39.4871C195.284 39.432 195.34 39.3492 195.395 39.2389H196.36C196.332 39.4596 196.222 39.6802 196.001 39.9008C195.671 40.2593 195.229 40.4248 194.65 40.4248C194.181 40.4248 193.74 40.2869 193.382 39.9835C193.023 39.6802 192.83 39.2114 192.83 38.5495C192.83 37.9152 192.996 37.4464 193.326 37.1155C193.657 36.7845 194.099 36.6191 194.623 36.6191C194.898 36.5915 195.202 36.6467 195.45 36.757Z" fill="white"/>
<path d="M190.266 37.5843C190.128 37.7222 190.045 37.9152 190.017 38.1358H191.644C191.617 37.8876 191.534 37.6946 191.396 37.5843C191.258 37.4464 191.065 37.3913 190.845 37.3913C190.596 37.3913 190.403 37.4464 190.266 37.5843ZM191.672 36.757C191.92 36.8673 192.141 37.0603 192.306 37.2809C192.444 37.5016 192.554 37.7498 192.582 38.0255C192.61 38.191 192.61 38.4392 192.61 38.7426H189.99C190.017 39.1011 190.128 39.3492 190.376 39.5147C190.514 39.5974 190.707 39.6526 190.9 39.6526C191.12 39.6526 191.286 39.5974 191.424 39.4871C191.507 39.432 191.562 39.3492 191.617 39.2389H192.582C192.554 39.4596 192.444 39.6802 192.224 39.9008C191.893 40.2593 191.451 40.4248 190.872 40.4248C190.403 40.4248 189.962 40.2869 189.604 39.9835C189.245 39.6802 189.052 39.2114 189.052 38.5495C189.052 37.9152 189.218 37.4464 189.549 37.1155C189.879 36.7845 190.321 36.6191 190.845 36.6191C191.148 36.5915 191.424 36.6467 191.672 36.757Z" fill="white"/>
<path d="M199.78 36.8944C200.028 37.0875 200.138 37.4184 200.138 37.8596V40.2864H199.173V38.0802C199.173 37.8872 199.145 37.7493 199.09 37.639C199.008 37.446 198.815 37.3632 198.566 37.3632C198.263 37.3632 198.042 37.5011 197.904 37.7769C197.849 37.9148 197.822 38.1078 197.822 38.3284V40.2864H196.884V36.6738H197.794V37.1978C197.904 37.0047 198.042 36.8668 198.125 36.8117C198.318 36.6738 198.566 36.5911 198.87 36.5911C199.228 36.6186 199.532 36.7014 199.78 36.8944Z" fill="white"/>
<path d="M188.666 36.6186C188.666 36.6186 188.694 36.6186 188.749 36.6186V37.5838C188.694 37.5838 188.639 37.5838 188.584 37.5563C188.528 37.5563 188.501 37.5563 188.473 37.5563C188.087 37.5563 187.839 37.6666 187.701 37.9148C187.618 38.0527 187.591 38.2733 187.591 38.549V40.2864H186.653V36.6738H187.536V37.3081C187.673 37.0599 187.811 36.8944 187.922 36.8117C188.087 36.6738 188.335 36.5911 188.611 36.5911C188.639 36.6186 188.666 36.6186 188.666 36.6186Z" fill="white"/>
<path d="M184.751 36.9503C184.668 36.6194 184.475 36.3712 184.171 36.2609C184.006 36.1781 183.813 36.1505 183.62 36.1505C183.234 36.1505 182.903 36.2884 182.655 36.5918C182.406 36.8951 182.269 37.3364 182.269 37.9155C182.269 38.5222 182.406 38.9359 182.682 39.1841C182.958 39.4322 183.261 39.5701 183.62 39.5701C183.951 39.5701 184.254 39.4598 184.475 39.2668C184.695 39.0737 184.833 38.8255 184.888 38.4946H183.758V37.6673H185.799V40.2871H185.137L185.026 39.6804C184.833 39.9011 184.64 40.0665 184.502 40.1768C184.227 40.3423 183.896 40.425 183.51 40.425C182.875 40.425 182.324 40.2044 181.91 39.7632C181.469 39.3219 181.276 38.6877 181.276 37.9155C181.276 37.1158 181.496 36.4815 181.938 36.0127C182.379 35.5438 182.958 35.2957 183.675 35.2957C184.309 35.2957 184.806 35.4611 185.164 35.7645C185.55 36.0678 185.743 36.4815 185.826 36.9503H184.751Z" fill="white"/>
<path d="M205.93 16.7374L205.682 15.193L200.525 16.0204C200.663 16.5168 200.746 17.0407 200.773 17.5647L205.93 16.7374ZM199.505 13.9521L203.476 10.4773L202.428 9.29147L198.457 12.7662C198.87 13.1247 199.201 13.5108 199.505 13.9521ZM196.747 11.6631L198.346 6.56131L196.83 6.09249L195.258 11.1667C195.782 11.2771 196.278 11.4425 196.747 11.6631ZM192.638 11.1667L191.121 6.20281L189.604 6.67162L191.121 11.6631C191.59 11.4425 192.114 11.2771 192.638 11.1667ZM189.384 12.7662L185.44 9.23632L184.392 10.4221L188.336 13.9521C188.639 13.5108 188.998 13.1247 189.384 12.7662ZM187.371 15.9376L182.296 15.1655L182.048 16.7374L187.067 17.5095C187.122 16.9304 187.233 16.434 187.371 15.9376ZM200.746 29.6988C202.676 28.1544 203.338 25.6449 203.476 22.6665C200.525 22.832 198.732 23.6041 197.326 24.4866C196.664 24.9003 196.002 25.4243 195.368 26.1413L195.34 23.9902C197.409 23.4938 198.898 21.784 199.477 20.1294H196.692C196.25 20.8464 195.368 21.6462 193.906 21.6462C192.5 21.6462 191.369 20.5982 190.956 19.3021H199.67C199.725 18.8884 199.808 18.4748 199.808 18.0611C199.808 14.9173 197.243 12.132 194.044 12.132C190.68 12.132 188.088 14.9173 188.088 18.2266C188.088 21.1222 190.156 23.4663 192.914 24.0454L192.886 31.5189C185.909 30.9673 180.421 25.1485 180.421 18.0335C180.421 10.56 186.488 4.49301 193.962 4.49301C201.435 4.49301 207.502 10.56 207.502 18.0335C207.502 23.3284 204.772 27.658 200.415 30.0573L200.746 29.6988ZM197.078 17.0683C196.83 15.6343 195.616 14.476 194.017 14.476C192.472 14.476 191.204 15.6894 190.9 17.0683H197.078ZM195.451 30.5812V29.0921C196.085 27.5477 197.216 26.6101 198.319 25.9207C199.256 25.3415 200.332 24.983 201.49 24.7348C201.187 26.1137 200.663 27.4098 199.505 28.4853C198.512 29.3678 197.822 29.9194 195.451 30.5812ZM193.934 32.5944C185.854 32.5944 179.318 26.0585 179.318 17.9784C179.318 9.89818 185.854 3.36233 193.934 3.36233C202.014 3.36233 208.55 9.89818 208.55 17.9784C208.55 26.031 202.014 32.5944 193.934 32.5944ZM193.934 2.14893C185.164 2.14893 178.077 9.2639 178.077 18.0059C178.077 26.7755 185.192 33.8629 193.934 33.8629C202.676 33.8629 209.791 26.748 209.791 18.0059C209.791 9.2639 202.704 2.14893 193.934 2.14893Z" fill="white"/>
<path d="M206.371 32.0977C206.371 31.4634 206.923 30.9395 207.612 30.9395C208.301 30.9395 208.853 31.4634 208.853 32.0977C208.853 32.732 208.301 33.2559 207.612 33.2559C206.923 33.2559 206.371 32.732 206.371 32.0977Z" stroke="white" stroke-width="0.4983"/>
<path d="M207.281 32.0977H207.667C207.75 32.0977 207.805 32.0977 207.86 32.0702C207.915 32.0426 207.943 32.015 207.971 31.9874C207.998 31.9598 207.998 31.9047 207.998 31.8771C207.998 31.8219 207.971 31.7668 207.915 31.7116C207.86 31.6565 207.805 31.6565 207.695 31.6565H207.254V32.0977H207.281ZM207.088 32.87V31.491H207.695C207.805 31.491 207.915 31.491 207.971 31.5185C208.026 31.5461 208.081 31.5737 208.136 31.6565C208.164 31.7116 208.191 31.7944 208.191 31.8771C208.191 31.9874 208.164 32.0702 208.108 32.1253C208.053 32.1805 207.943 32.2357 207.805 32.2632C207.86 32.2908 207.888 32.3184 207.915 32.3184C207.971 32.3736 208.026 32.4287 208.053 32.5115L208.301 32.8976H208.081L207.888 32.6218C207.833 32.539 207.777 32.4839 207.75 32.4287C207.722 32.3735 207.695 32.346 207.667 32.346C207.64 32.3184 207.612 32.3184 207.584 32.3184C207.557 32.3184 207.529 32.3184 207.474 32.3184H207.254V32.9252H207.088V32.87Z" fill="white"/>
<path d="M307.662 20.4857C307.083 20.9269 306.201 21.2578 301.733 21.837C299.968 22.0852 297.155 22.6091 297.155 25.3117C297.155 27.6282 298.341 29.0346 301.044 29.0346C304.381 29.0346 307.662 26.8836 307.662 24.0155V20.4857ZM294.536 16.5422C294.701 11.4404 298.093 9.45483 303.36 9.45483C305.07 9.45483 311.275 9.95122 311.275 15.4115V27.6557C311.275 28.5658 311.716 28.9243 312.461 28.9243C312.792 28.9243 313.233 28.8415 313.647 28.7588V31.3786C313.04 31.5441 312.516 31.7923 311.689 31.7923C308.517 31.7923 308.021 30.1653 307.883 28.5382C306.504 30.0549 304.326 32.0129 300.161 32.0129C296.245 32.0129 293.46 29.531 293.46 25.8632C293.46 24.0707 293.984 19.9066 299.941 19.162L305.87 18.4174C306.725 18.3347 307.745 18.0037 307.745 15.8803C307.745 13.6466 306.118 12.4056 302.726 12.4056C298.645 12.4056 298.065 14.8875 297.817 16.5146H294.536V16.5422Z" fill="white"/>
<path d="M339.817 19.0259C339.624 15.7166 338.218 12.6555 333.861 12.6555C330.551 12.6555 327.932 15.7166 327.932 19.0259H339.817ZM343.237 24.6792C343.127 25.6996 342.134 28.7055 339.431 30.5256C338.439 31.1875 337.06 31.9872 333.64 31.9872C327.656 31.9872 324.098 27.4645 324.098 21.2872C324.098 14.6686 327.27 9.40137 334.33 9.40137C340.479 9.40137 343.513 14.3101 343.513 21.8387H327.932C327.932 26.2787 330 28.8434 334.136 28.8434C337.529 28.8434 339.514 26.2235 339.652 24.6516H343.237V24.6792Z" fill="white"/>
<path d="M262.049 10.0357H265.441V13.0416H265.524C266.296 11.9109 268.144 9.40137 271.977 9.40137C275.81 9.40137 277.024 11.7179 277.658 12.8761C279.451 10.8906 280.885 9.40137 284.194 9.40137C286.483 9.40137 290.812 10.5872 290.812 16.5715V31.3531H287.227V17.5643C287.227 14.6135 286.317 12.6279 283.256 12.6279C280.25 12.6279 278.237 15.496 278.237 18.3365V31.3531H274.652V16.6267C274.652 14.8342 273.963 12.6555 271.315 12.6555C269.275 12.6555 265.689 13.9517 265.689 19.743V31.3807H262.104V10.0357H262.049Z" fill="white"/>
<path d="M319.989 13.0129V26.8843C319.989 28.5665 321.423 28.5665 322.14 28.5665H323.409V31.3794C322.113 31.4897 321.092 31.6552 320.706 31.6552C317.149 31.6552 316.377 29.6421 316.377 27.0774V13.0129H313.481V10.0346H316.377V4.07788H319.962V10.0346H323.381V13.0129H319.989Z" fill="white"/>
<path d="M258.051 31.3789H254.466V10.0339H258.051V31.3789ZM254.466 2.09155H258.051V6.17302H254.466V2.09155Z" fill="white"/>
<path d="M250.412 2.09155H246.827V31.3789H250.412V2.09155Z" fill="white"/>
<path d="M239.767 10.8892C238.664 5.75979 234.39 4.82216 231.577 4.82216C226.282 4.82216 221.98 8.73813 221.98 16.4598C221.98 23.3541 224.434 28.649 231.687 28.649C234.252 28.649 238.692 27.4356 240.043 20.624H243.876C242.249 31.6825 233.259 32.1789 231.053 32.1789C224.407 32.1789 217.871 27.8492 217.871 16.5977C217.871 7.57989 223 1.34741 231.549 1.34741C239.105 1.34741 243.021 6.03556 243.573 10.9443H239.767V10.8892Z" fill="white"/>
<path d="M130.426 3.58897C133.916 3.58897 136.781 6.45446 136.781 9.9439V31.828C136.781 35.3174 133.916 38.1829 130.426 38.1829H8.94397C5.45456 38.1829 2.58908 35.3174 2.58908 31.828V9.9439C2.58908 6.45446 5.45456 3.58897 8.94397 3.58897H130.426ZM130.426 1.34741H8.94397C4.20669 1.34741 0.347534 5.20659 0.347534 9.9439V31.828C0.347534 36.5653 4.20669 40.4244 8.94397 40.4244H130.403C135.141 40.4244 139 36.5653 139 31.828V9.9439C139.023 5.20659 135.164 1.34741 130.426 1.34741Z" fill="white"/>
<path d="M31.3366 12.4866H30.574C29.0026 12.4866 28.3093 12.9256 27.7085 14.5432L21.1918 32.0597H16.6394L10.1227 14.2428C9.59124 12.7176 8.89798 12.4866 7.627 12.4866H6.70265V10.0139H18.465V12.4866H16.4083C15.4146 12.4866 14.9756 12.7176 14.9756 13.2491C14.9756 13.7806 15.1373 14.1735 15.2991 14.6126L19.4125 26.7215H19.4818L23.9649 14.6126C24.1728 14.0348 24.2884 13.7113 24.2884 13.3185C24.2884 12.7176 23.6645 12.4866 22.6939 12.4866H20.6603V10.0139H31.2903V12.4866H31.3366Z" fill="white"/>
<path d="M48.7376 9.68908H51.0947V18.7939H48.6451C48.2061 15.1658 46.3574 12.2079 42.3595 12.2079C37.4836 12.2079 36.2357 16.6679 36.2357 21.0124C36.2357 25.3106 37.576 29.863 42.3595 29.863C46.1494 29.863 47.975 27.2055 48.3447 23.6699H51.2102C50.8173 29.4702 47.4897 32.7054 41.6663 32.7054C34.6874 32.7054 31.0363 27.7832 31.0363 20.6888C31.0363 14.4264 35.1496 9.31934 42.0822 9.31934C44.2545 9.31934 46.6809 10.3592 48.1367 11.7458L48.7376 9.68908Z" fill="white"/>
<path d="M69.1888 10.0142H71.1069V18.4027H68.7035C67.8947 14.7746 65.8149 12.1865 61.8633 12.1865C58.7667 12.1865 57.4958 12.9953 57.4958 15.1906C57.4958 20.1821 72.3316 16.4616 72.3316 25.7282C72.3316 31.0201 68.2183 32.7532 63.5503 32.7532C61.0545 32.7532 58.5588 31.6902 56.6407 30.1188L55.9012 32.0831H53.6366V23.0707H56.1092C56.5714 27.5307 59.2982 29.9109 64.0124 29.9109C66.9473 29.9109 68.3338 28.5474 68.3338 26.9529C68.3338 21.2682 53.4979 25.5664 53.4979 16.0456C53.4979 11.3545 57.7268 9.36719 61.7478 9.36719C64.2666 9.36719 66.3927 10.5226 68.0565 11.7012L69.1888 10.0142Z" fill="white"/>
<path d="M76.3061 24.7086C76.3061 22.4902 75.8439 21.4734 73.7873 20.8495C75.8439 20.2255 76.3061 19.1625 76.3061 17.0365V11.0513C76.3061 7.03042 78.1317 6.33716 82.8921 6.33716V6.7069C81.0665 7.28462 80.4657 8.53249 80.4657 10.8896V16.5281C80.4657 18.8621 80.0728 20.2255 77.762 20.8263V20.8957C80.0497 21.4965 80.4657 22.7906 80.4657 25.2401V30.8555C80.4657 33.1895 81.0665 34.5067 82.8921 35.0382V35.408C78.1317 35.408 76.3061 34.7147 76.3061 30.6476V24.7086Z" fill="white"/>
<path d="M86.381 10.384V11.008H85.9188C85.7802 11.008 85.6878 11.0542 85.6878 11.1466C85.6878 11.2622 85.7571 11.447 85.8033 11.5857L86.5428 13.9197H86.5659L87.3285 11.5857C87.3747 11.447 87.444 11.2622 87.444 11.1466C87.444 11.0542 87.3747 11.008 87.236 11.008H86.8201V10.384H88.8768V11.008H88.715C88.4146 11.008 88.299 11.1004 88.1604 11.447L86.9356 15.0751H85.6647L84.4399 11.447C84.3243 11.1004 84.2088 11.008 83.8391 11.008H83.7004V10.384H86.381Z" fill="white"/>
<path d="M94.1226 12.7406C94.1226 14.2889 93.1059 15.2364 91.5576 15.2364C90.0093 15.2364 88.9925 14.2889 88.9925 12.7406C88.9925 11.1923 90.0093 10.2449 91.5576 10.2449C93.1059 10.2449 94.1226 11.1923 94.1226 12.7406ZM90.5177 12.7406C90.5177 13.9885 90.8412 14.5662 91.5576 14.5662C92.2739 14.5662 92.5975 13.9885 92.5975 12.7406C92.5975 11.4928 92.2739 10.915 91.5576 10.915C90.8412 10.8919 90.5177 11.4928 90.5177 12.7406Z" fill="white"/>
<path d="M94.2846 15.0751V14.4512H94.7236C94.9085 14.4512 95.0009 14.3356 95.0009 14.1739V11.2853C95.0009 11.1004 94.9085 11.008 94.7236 11.008H94.2846V10.384H97.0576V11.008H96.6185C96.4337 11.008 96.3412 11.1235 96.3412 11.2853V14.4512H97.1038C97.9589 14.4512 98.0975 13.8966 98.0975 13.134H98.7677V15.0751H94.2846Z" fill="white"/>
<path d="M98.6754 10.384H101.448V11.008H101.009C100.824 11.008 100.732 11.1235 100.732 11.2853V13.781C100.732 14.2432 100.986 14.5667 101.564 14.5667C102.396 14.5667 102.534 14.197 102.534 13.3188V11.2853C102.534 11.1004 102.442 11.008 102.257 11.008H101.841V10.384H103.99V11.008H103.574C103.389 11.008 103.297 11.1235 103.297 11.2853V13.5499C103.297 14.5898 102.742 15.2138 101.425 15.2138C100.177 15.2138 99.4148 14.8209 99.4148 13.6193V11.2622C99.4148 11.0773 99.3224 10.9849 99.1375 10.9849H98.6985V10.384H98.6754Z" fill="white"/>
<path d="M108.404 13.6193L108.427 11.2853C108.427 11.1004 108.335 11.008 108.15 11.008H107.711V10.384H109.883V11.008H109.467C109.282 11.008 109.19 11.1235 109.19 11.2853V15.0751H107.757L105.793 11.5857H105.769V14.1739C105.769 14.3587 105.862 14.4512 106.047 14.4512H106.486V15.0751H104.291V14.4512H104.73C104.914 14.4512 105.007 14.3356 105.007 14.1739V11.2853C105.007 11.1004 104.914 11.008 104.73 11.008H104.291V10.384H106.578L108.404 13.6193Z" fill="white"/>
<path d="M110.229 12.1865V10.384H114.944V12.1865H114.297C114.297 11.4701 114.089 11.008 113.257 11.008V14.1739C113.257 14.3587 113.349 14.4512 113.534 14.4512H113.95V15.0751H111.2V14.4512H111.639C111.824 14.4512 111.916 14.3356 111.916 14.1739V11.008C111.108 11.008 110.876 11.4701 110.876 12.1865H110.229Z" fill="white"/>
<path d="M118.064 10.384L119.242 13.9197C119.381 14.3587 119.473 14.4512 119.727 14.4512H119.958V15.0751H117.37V14.4512H117.578C117.786 14.4512 117.971 14.4281 117.971 14.3356C117.971 14.2663 117.971 14.197 117.948 14.0814L117.809 13.573H116.354L116.261 13.8503C116.192 14.1045 116.146 14.197 116.146 14.3125C116.146 14.4281 116.4 14.4512 116.585 14.4512H116.793V15.0751H114.713V14.4512H114.944C115.198 14.4512 115.291 14.3587 115.429 13.9197L116.608 10.384H118.064ZM116.585 12.9491H117.601L117.093 11.4239L116.585 12.9491Z" fill="white"/>
<path d="M121.022 11.2853C121.022 11.1004 120.929 11.008 120.744 11.008H120.305V10.384H123.564C124.557 10.384 125.135 10.7769 125.135 11.5395C125.135 12.2096 124.673 12.51 124.072 12.6025V12.6256C124.603 12.7642 124.904 12.9491 124.904 13.5268V14.2663C124.904 14.405 124.95 14.4974 125.135 14.4974C125.32 14.4974 125.366 14.2894 125.366 14.0583V13.7579H125.851V13.989C125.851 14.6823 125.62 15.1907 124.696 15.1907C124.026 15.1907 123.564 14.8671 123.564 14.0352V13.4575C123.564 13.0415 123.494 12.926 122.917 12.926H122.339V14.1508C122.339 14.3356 122.431 14.4281 122.616 14.4281H123.055V15.052H120.305V14.4512H120.744C120.929 14.4512 121.022 14.3356 121.022 14.1739V11.2853ZM122.339 12.3252H123.009C123.54 12.3252 123.795 12.2096 123.795 11.655C123.795 11.1235 123.494 11.008 122.847 11.008H122.339V12.3252Z" fill="white"/>
<path d="M128.532 10.384V11.008H128.231C128.093 11.008 128.024 11.0311 128.024 11.1235C128.024 11.1928 128.093 11.3084 128.139 11.3546L128.763 12.3252L129.387 11.3546C129.433 11.2853 129.502 11.1928 129.502 11.1235C129.502 11.0311 129.433 11.008 129.294 11.008H128.994V10.384H131.028V11.008H130.889C130.635 11.008 130.496 11.0542 130.404 11.1928L129.133 13.1802V14.1739C129.133 14.3587 129.225 14.4512 129.41 14.4512H129.895V15.0751H127.03V14.4512H127.492C127.677 14.4512 127.769 14.3356 127.769 14.1739V13.1802L126.637 11.4008C126.452 11.1004 126.337 11.008 125.944 11.008H125.805V10.384H128.532Z" fill="white"/>
<path d="M87.6983 18.8166H88.3453V20.7346H87.6752C87.6752 19.9951 87.2824 19.3943 86.4736 19.3943C85.6879 19.3943 85.2489 19.972 85.2489 21.2199C85.2489 22.3292 85.5261 23.0456 86.5198 23.0456C87.2592 23.0456 87.6521 22.4216 87.6521 21.7746H88.3222C88.2991 23.0687 87.5365 23.7158 86.2194 23.7158C84.7405 23.7158 83.7237 22.8838 83.7237 21.2199C83.7237 19.7178 84.7636 18.7241 86.127 18.7241C86.4736 18.7241 87.2361 18.909 87.5365 19.2094L87.6983 18.8166Z" fill="white"/>
<path d="M91.9043 18.8862L93.0828 22.4219C93.2215 22.8609 93.3139 22.9534 93.5681 22.9534H93.7992V23.5773H91.211V22.9534H91.419C91.627 22.9534 91.8118 22.9303 91.8118 22.8378C91.8118 22.7685 91.8118 22.6992 91.7656 22.5836L91.627 22.0752H90.1942L90.1018 22.3525C90.0325 22.6067 89.9862 22.6992 89.9862 22.8147C89.9862 22.9303 90.2404 22.9534 90.4253 22.9534H90.6333V23.5773H88.5535V22.9534H88.7846C89.0388 22.9534 89.1312 22.8609 89.2699 22.4219L90.4484 18.8862H91.9043ZM90.4022 21.4744H91.419L90.9106 19.9492H90.8875L90.4022 21.4744Z" fill="white"/>
<path d="M94.8391 19.7875C94.8391 19.6026 94.7467 19.5102 94.5618 19.5102H94.1227V18.8862H97.3811C98.3748 18.8862 98.9757 19.2791 98.9757 20.0417C98.9757 20.7118 98.5135 21.0122 97.9126 21.1047V21.1278C98.4442 21.2664 98.7446 21.4513 98.7446 22.029V22.7685C98.7446 22.9072 98.7908 22.9996 98.9757 22.9996C99.1606 22.9996 99.2068 22.7685 99.2068 22.5605V22.2832H99.6921V22.5143C99.6921 23.2076 99.461 23.7391 98.5366 23.7391C97.8664 23.7391 97.4042 23.4155 97.4042 22.5836V22.0059C97.4042 21.59 97.3349 21.4744 96.7572 21.4744H96.1794V22.6992C96.1794 22.884 96.2719 22.9765 96.4568 22.9765H96.8958V23.6004H94.1458V22.9765H94.5849C94.7698 22.9765 94.8622 22.8609 94.8622 22.6992V19.7875H94.8391ZM96.1794 20.8274H96.8727C97.4042 20.8274 97.6584 20.7118 97.6584 20.1572C97.6584 19.6257 97.358 19.5102 96.711 19.5102H96.2026V20.8274H96.1794Z" fill="white"/>
<path d="M100.686 19.7875C100.686 19.6026 100.593 19.5102 100.408 19.5102H99.9923V18.8862H103.043C104.059 18.8862 104.545 19.3484 104.545 19.9954C104.545 20.6194 104.106 20.966 103.528 21.1047V21.1278C104.129 21.3126 104.776 21.4975 104.776 22.3525C104.776 23.2538 104.244 23.6235 102.858 23.6235H99.9923V22.9996H100.385C100.57 22.9996 100.662 22.884 100.662 22.7223V19.7875H100.686ZM102.003 20.8274H102.396C102.881 20.8274 103.227 20.6887 103.227 20.1572C103.227 19.6488 102.881 19.4871 102.396 19.4871H102.003V20.8274ZM102.003 22.9534H102.488C102.996 22.9534 103.389 22.8147 103.389 22.1908C103.389 21.59 102.996 21.4513 102.488 21.4513H102.003V22.9534Z" fill="white"/>
<path d="M110.276 21.2448C110.276 22.7931 109.259 23.7405 107.711 23.7405C106.163 23.7405 105.146 22.7931 105.146 21.2448C105.146 19.6965 106.163 18.749 107.711 18.749C109.259 18.749 110.276 19.6965 110.276 21.2448ZM106.671 21.2448C106.671 22.4926 106.994 23.0704 107.711 23.0704C108.427 23.0704 108.751 22.4926 108.751 21.2448C108.751 19.9969 108.427 19.4192 107.711 19.4192C106.994 19.4192 106.671 19.9969 106.671 21.2448Z" fill="white"/>
<path d="M114.574 22.1215L114.597 19.7875C114.597 19.6026 114.505 19.5102 114.32 19.5102H113.881V18.8862H116.053V19.5102H115.637C115.452 19.5102 115.36 19.6257 115.36 19.7875V23.5773H113.927L111.963 20.0879H111.94V22.6761C111.94 22.8609 112.032 22.9534 112.217 22.9534H112.656V23.5773H110.461V22.9534H110.9C111.084 22.9534 111.177 22.8378 111.177 22.6761V19.7875C111.177 19.6026 111.084 19.5102 110.9 19.5102H110.461V18.8862H112.748L114.574 22.1215Z" fill="white"/>
<path d="M87.8372 29.0765H87.1902C87.0746 28.337 86.4276 27.9211 85.8036 27.9211C85.3876 27.9211 85.0179 28.0597 85.0179 28.5219C85.0179 29.4231 88.0914 28.7068 88.0914 30.7172C88.0914 31.8495 87.1208 32.2424 86.1271 32.2424C85.5725 32.2424 85.041 32.1269 84.5788 31.8033L84.3939 32.1731H83.7931V30.3244H84.4632C84.5557 31.0638 85.1796 31.5954 86.0116 31.5954C86.3813 31.5954 86.8204 31.3874 86.8204 30.9945C86.8204 29.9777 83.7469 30.8096 83.7469 28.7761C83.7469 27.5975 84.8099 27.2971 85.7805 27.2971C86.2658 27.2971 86.728 27.4589 87.1208 27.7131L87.2364 27.3896H87.8141V29.0765H87.8372Z" fill="white"/>
<path d="M88.3224 29.1929V27.3904H93.0364V29.1929H92.3663C92.3663 28.4765 92.1583 28.0143 91.3264 28.0143V31.1802C91.3264 31.3651 91.4189 31.4575 91.6037 31.4575H92.0197V32.0815H89.2698V31.4575H89.7089C89.8937 31.4575 89.9862 31.342 89.9862 31.1802V28.0143C89.1774 28.0143 88.9694 28.4765 88.9694 29.1929H88.3224Z" fill="white"/>
<path d="M96.1567 27.3904L97.3352 30.926C97.4739 31.3651 97.5663 31.4575 97.8205 31.4575H98.0747V32.0815H95.4865V31.4575H95.6945C95.9025 31.4575 96.0873 31.4344 96.0873 31.342C96.0873 31.2727 96.0873 31.2033 96.0411 31.0878L95.9025 30.5794H94.4466L94.3541 30.8567C94.2848 31.1109 94.2386 31.2033 94.2386 31.3189C94.2386 31.4344 94.4928 31.4575 94.6777 31.4575H94.8856V32.0815H92.8058V31.4575H93.0369C93.2911 31.4575 93.3835 31.3651 93.5222 30.926L94.7008 27.3904H96.1567ZM94.6777 29.9786H95.6945L95.1861 28.4534H95.163L94.6777 29.9786Z" fill="white"/>
<path d="M102.535 30.6256L102.558 28.2916C102.558 28.1068 102.465 28.0143 102.28 28.0143H101.841V27.3904H104.037V28.0143H103.621C103.436 28.0143 103.343 28.1299 103.343 28.2916V32.0815H101.911L99.9463 28.592H99.9232V31.1802C99.9232 31.3651 100.016 31.4575 100.201 31.4575H100.64V32.0815H98.4443V31.4575H98.8833C99.0682 31.4575 99.1606 31.342 99.1606 31.1802V28.2916C99.1606 28.1068 99.0682 28.0143 98.8833 28.0143H98.4443V27.3904H100.732L102.535 30.6256Z" fill="white"/>
<path d="M105.007 28.2916C105.007 28.1068 104.915 28.0143 104.73 28.0143H104.314V27.3904H106.879C108.496 27.3904 109.536 28.0836 109.536 29.7706C109.536 31.3882 108.519 32.0815 106.833 32.0815H104.314V31.4575H104.73C104.915 31.4575 105.007 31.342 105.007 31.1802V28.2916ZM106.324 31.4575H106.648C107.595 31.4575 108.011 31.134 108.011 29.7244C108.011 28.3147 107.595 27.9912 106.648 27.9912H106.324V31.4575Z" fill="white"/>
<path d="M112.887 27.3904L114.066 30.926C114.204 31.3651 114.297 31.4575 114.551 31.4575H114.782V32.0815H112.194V31.4575H112.402C112.61 31.4575 112.795 31.4344 112.795 31.342C112.795 31.2727 112.795 31.2033 112.749 31.0878L112.61 30.5794H111.154L111.062 30.8567C110.992 31.1109 110.946 31.2033 110.946 31.3189C110.946 31.4344 111.2 31.4575 111.385 31.4575H111.593V32.0815H109.513V31.4575H109.744C109.999 31.4575 110.091 31.3651 110.23 30.926L111.408 27.3904H112.887ZM111.385 29.9786H112.425L111.917 28.4534H111.893L111.385 29.9786Z" fill="white"/>
<path d="M115.822 28.2916C115.822 28.1068 115.73 28.0143 115.545 28.0143H115.106V27.3904H118.364C119.358 27.3904 119.935 27.7832 119.935 28.5458C119.935 29.216 119.473 29.5164 118.872 29.6088V29.6319C119.404 29.7706 119.704 29.9555 119.704 30.5332V31.2726C119.704 31.4113 119.751 31.5037 119.935 31.5037C120.12 31.5037 120.167 31.2958 120.167 31.0647V30.7874H120.652V31.0185C120.652 31.7117 120.421 32.2201 119.496 32.2201C118.826 32.2201 118.364 31.8966 118.364 31.0647V30.487C118.364 30.071 118.295 29.9555 117.717 29.9555H117.139V31.1802C117.139 31.3651 117.232 31.4575 117.417 31.4575H117.856V32.0815H115.106V31.4575H115.545C115.73 31.4575 115.822 31.342 115.822 31.1802V28.2916ZM117.162 29.3315H117.833C118.364 29.3315 118.618 29.216 118.618 28.6614C118.618 28.1299 118.318 28.0143 117.671 28.0143H117.162V29.3315Z" fill="white"/>
<path d="M121.669 28.2916C121.669 28.1068 121.576 28.0143 121.391 28.0143H120.975V27.3904H123.54C125.158 27.3904 126.198 28.0836 126.198 29.7706C126.198 31.3882 125.181 32.0815 123.494 32.0815H120.975V31.4575H121.391C121.576 31.4575 121.669 31.342 121.669 31.1802V28.2916ZM123.009 31.4575H123.332C124.28 31.4575 124.696 31.134 124.696 29.7244C124.696 28.3147 124.28 27.9912 123.332 27.9912H123.009V31.4575Z" fill="white"/>
<path d="M469.929 30.0022H474.301V31.4105H471.594V32.6352H473.86V33.9701H471.594V34.8518H474.435V36.2724H469.929V30.0022Z" fill="white"/>
<path d="M464.651 36.3336C464.614 36.3826 464.565 36.3826 464.54 36.3336L461.601 30.0022H463.377L464.651 32.9169L465.9 30.0022H467.59L464.651 36.3336Z" fill="white"/>
<path d="M456.874 33.4924C457.633 33.4924 457.902 33.0638 457.902 32.4637C457.902 31.8637 457.633 31.4228 456.874 31.4228H456.261V33.4924H456.874ZM459.568 36.2602H457.756L456.886 34.8273H456.261V36.2602H454.596V30.0022H456.96C458.637 30.0022 459.593 31.0676 459.593 32.4637C459.593 33.3577 459.188 34.0803 458.454 34.4844L459.568 36.2602Z" fill="white"/>
<path d="M446.611 30.0022H450.996V31.4105H448.289V32.6352H450.543V33.9701H448.289V34.8518H451.118V36.2724H446.611V30.0022Z" fill="white"/>
<path d="M430.875 30.0022H435.259V31.4105H432.552V32.6352H434.818V33.9701H432.552V34.8518H435.393V36.2724H430.875V30.0022Z" fill="white"/>
<path d="M425.107 33.4924C425.854 33.4924 426.135 33.0638 426.135 32.4637C426.135 31.8637 425.854 31.4228 425.107 31.4228H424.482V33.4924H425.107ZM427.801 36.2602H425.989L425.119 34.8273H424.482V36.2602H422.817V30.0022H425.18C426.87 30.0022 427.813 31.0676 427.813 32.4637C427.813 33.3577 427.421 34.0803 426.687 34.4844L427.801 36.2602Z" fill="white"/>
<path d="M438.296 35.1959L439.508 34.2774C439.815 34.6571 440.182 34.9632 440.819 34.9632C441.456 34.9632 441.603 34.8163 441.603 34.4734C441.603 34.1305 441.407 34.0692 440.99 33.9345L440.255 33.6896C439.337 33.3834 438.7 32.8323 438.7 31.7914C438.7 30.7504 439.717 29.9299 440.831 29.9299C441.945 29.9299 442.546 30.3218 442.913 30.7627L441.958 31.7669C441.832 31.6169 441.675 31.4971 441.497 31.4165C441.318 31.3359 441.124 31.2966 440.929 31.3015C440.525 31.3015 440.317 31.4975 440.317 31.7424C440.317 31.9873 440.451 32.0976 440.758 32.1955L441.59 32.4772C442.839 32.8936 443.256 33.4937 443.256 34.3754C443.256 35.5266 442.546 36.3593 440.892 36.3593C439.484 36.3593 438.688 35.7103 438.296 35.1959Z" fill="white"/>
<path d="M452.526 18.3442H451.559V24.5385H452.526V18.3442Z" fill="white"/>
<path d="M443.366 19.2137H441.529V18.3442H446.171V19.2137H444.334V24.5409H443.366V19.2137Z" fill="white"/>
<path d="M470.138 20.4749V24.5407H469.231V18.2583H469.305L473.26 22.4221V18.344H474.179V24.6387H474.105L470.138 20.4749Z" fill="white"/>
<path d="M431.646 21.4424C431.646 19.6177 433.042 18.2583 434.794 18.2583C435.945 18.2583 436.729 18.7114 437.267 19.4707L436.52 19.9973C436.116 19.434 435.59 19.14 434.769 19.14C433.545 19.14 432.651 20.132 432.651 21.4424C432.651 22.7528 433.569 23.7325 434.806 23.7325C435.614 23.7325 436.202 23.4386 436.667 22.8385L437.414 23.3528C436.778 24.1978 435.969 24.6265 434.769 24.6265C433.006 24.6265 431.646 23.2671 431.646 21.4424Z" fill="white"/>
<path d="M463.365 21.4418C463.365 20.1314 462.458 19.1394 461.185 19.1394C459.911 19.1394 459.005 20.1314 459.005 21.4418C459.005 22.7521 459.899 23.7319 461.185 23.7319C462.471 23.7319 463.365 22.7521 463.365 21.4418ZM457.988 21.4418C457.986 20.8091 458.171 20.1899 458.521 19.6626C458.871 19.1354 459.369 18.7238 459.953 18.48C460.537 18.2362 461.18 18.1711 461.801 18.2931C462.422 18.415 462.992 18.7185 463.44 19.165C463.889 19.6115 464.194 20.1811 464.319 20.8014C464.443 21.4218 464.38 22.0651 464.139 22.6499C463.897 23.2346 463.488 23.7346 462.962 24.0863C462.436 24.4381 461.817 24.6259 461.185 24.6259C460.764 24.6325 460.347 24.5547 459.957 24.3971C459.567 24.2396 459.212 24.0055 458.914 23.7087C458.616 23.4119 458.381 23.0583 458.222 22.669C458.063 22.2796 457.983 21.8623 457.988 21.4418Z" fill="white"/>
<path d="M424.812 20.353L423.784 22.8023H425.829L424.812 20.353ZM423.073 24.5413H422.094L424.8 18.2222H424.849L427.568 24.5413H426.539L426.184 23.6718H423.429L423.073 24.5413Z" fill="white"/>
<path d="M388.581 19.8292C388.958 19.6767 389.26 19.3814 389.421 19.0075C389.581 18.6337 389.588 18.2115 389.439 17.833L389.022 16.7798C388.949 16.5924 388.84 16.4214 388.7 16.2767C388.561 16.1319 388.394 16.0163 388.209 15.9366C388.025 15.8568 387.826 15.8145 387.625 15.8121C387.424 15.8097 387.225 15.8472 387.038 15.9225L385.997 16.3389C385.809 16.4131 385.638 16.5238 385.493 16.6644C385.348 16.8051 385.233 16.9731 385.153 17.1586C385.073 17.3441 385.031 17.5436 385.029 17.7455C385.027 17.9475 385.064 18.1478 385.14 18.3351L385.556 19.3761C385.629 19.5635 385.739 19.7347 385.878 19.8798C386.017 20.025 386.184 20.1413 386.368 20.222C386.552 20.3028 386.751 20.3464 386.952 20.3505C387.153 20.3545 387.353 20.3189 387.54 20.2456L388.581 19.8292Z" fill="white"/>
<path d="M386.585 14.0617C386.874 13.9471 387.105 13.7231 387.229 13.4386C387.353 13.1542 387.359 12.8323 387.247 12.5431C387.161 12.3302 387.015 12.1472 386.826 12.0173C386.637 11.8874 386.413 11.8162 386.184 11.8129C385.954 11.8095 385.729 11.874 385.536 11.9984C385.343 12.1227 385.192 12.3013 385.1 12.5116C385.009 12.722 384.981 12.9548 385.021 13.1806C385.062 13.4065 385.168 13.6154 385.327 13.7811C385.485 13.9467 385.69 14.0618 385.914 14.1117C386.138 14.1616 386.371 14.1442 386.585 14.0617Z" fill="white"/>
<path d="M470.223 7.10181H474.154V7.97131H471.19V10.4696H473.811V11.3146H471.19V12.4413H474.276V13.2985H470.223V7.10181Z" fill="white"/>
<path d="M463.952 7.97131H462.128V7.10181H466.769V7.97131H464.932V13.2985H463.952V7.97131Z" fill="white"/>
<path d="M440.146 7.10181H439.179V13.2998H440.146V7.10181Z" fill="white"/>
<path d="M431.756 7.10181H432.724V12.4413H435.442V13.2985H431.756V7.10181Z" fill="white"/>
<path d="M422.278 10.2C422.278 8.36298 423.662 7.01587 425.425 7.01587C426.564 7.01587 427.36 7.46899 427.899 8.22827L427.152 8.75487C426.736 8.19153 426.209 7.89761 425.401 7.89761C424.176 7.89761 423.282 8.88958 423.282 10.2C423.282 11.5103 424.188 12.5023 425.437 12.5023C425.796 12.5142 426.153 12.4379 426.475 12.2798C426.798 12.1218 427.076 11.887 427.287 11.596L428.034 12.1104C427.409 12.9554 426.601 13.384 425.401 13.384C423.637 13.384 422.278 12.0247 422.278 10.2Z" fill="white"/>
<path d="M457.278 9.11062L456.249 11.5722H458.282C458.294 11.5722 457.278 9.11062 457.278 9.11062ZM455.527 13.2989H454.547L457.253 6.97974H457.302L460.021 13.2989H459.005L458.65 12.4294H455.882L455.527 13.2989Z" fill="white"/>
<path d="M445.031 6.97974H445.068L448.081 10.47L451.069 6.97974H451.118V13.2989H450.2V9.28207L448.081 11.8048H448.044L445.938 9.28207V13.2989H445.031V6.97974Z" fill="white"/>
<path fill-rule="evenodd" clip-rule="evenodd" d="M389.83 1.43547C399.799 -2.61811 411.164 2.207 415.193 12.2124C419.222 22.2177 414.421 33.6069 404.453 37.6483C394.484 41.6896 383.107 36.8645 379.078 26.8714C375.049 16.8783 379.849 5.4768 389.83 1.43547ZM413.724 15.003C413.544 14.3637 413.332 13.7341 413.087 13.1171C411.607 9.42867 408.894 6.36736 405.41 4.45452C401.927 2.54169 397.888 1.89562 393.981 2.62637C390.075 3.35712 386.543 5.41948 383.986 8.4622C381.429 11.5049 380.007 15.3398 379.96 19.3138L382.887 18.1014C383.062 18.0297 383.25 17.9935 383.439 17.9947C383.628 17.996 383.815 18.0348 383.99 18.1088C384.164 18.1828 384.322 18.2906 384.454 18.4259C384.586 18.5613 384.691 18.7215 384.761 18.8974L385.152 19.8894C385.332 20.3305 385.679 20.6825 386.117 20.8684C386.556 21.0543 387.05 21.059 387.492 20.8813L390.21 19.7914C390.242 20.8067 390.495 21.8027 390.954 22.7092C391.412 23.6157 392.063 24.4107 392.862 25.0381C393.661 25.6654 394.588 26.1099 395.577 26.3401C396.566 26.5703 397.594 26.5807 398.588 26.3704C399.582 26.1602 400.517 25.7345 401.328 25.1234C402.14 24.5123 402.807 23.7306 403.283 22.8335C403.76 21.9364 404.034 20.9457 404.085 19.9313C404.137 18.9169 403.966 17.9034 403.583 16.9625C403.287 16.2153 402.86 15.527 402.322 14.9295L406.033 13.3865C406.251 13.2952 406.486 13.2484 406.722 13.249C406.959 13.2496 407.193 13.2975 407.411 13.3899C407.629 13.4824 407.826 13.6174 407.991 13.7872C408.156 13.9569 408.286 14.158 408.372 14.3785L408.813 15.4316C408.957 15.7847 409.235 16.0665 409.586 16.2156C409.937 16.3647 410.332 16.3691 410.686 16.2277L413.724 15.003ZM406.383 20.8784C406.493 20.5999 406.705 20.3737 406.975 20.246C407.26 20.1524 407.569 20.1707 407.84 20.2973C408.111 20.4238 408.324 20.6491 408.435 20.9271C408.546 21.2051 408.547 21.5149 408.437 21.7934C408.327 22.0719 408.116 22.2981 407.845 22.4259C407.561 22.5195 407.251 22.5011 406.98 22.3746C406.709 22.248 406.496 22.0228 406.385 21.7448C406.274 21.4667 406.274 21.1569 406.383 20.8784ZM404.918 14.5148C404.542 14.6648 404.24 14.9578 404.079 15.3297C403.919 15.7015 403.912 16.1219 404.061 16.4987L404.477 17.5519C404.627 17.9283 404.92 18.2298 405.292 18.3905C405.664 18.5511 406.084 18.5579 406.461 18.4092L407.502 17.9928C407.691 17.9198 407.863 17.81 408.009 17.6699C408.156 17.5297 408.272 17.3619 408.353 17.1763C408.434 16.9906 408.477 16.7907 408.481 16.5883C408.484 16.3858 408.446 16.1847 408.371 15.9966L407.955 14.9557C407.805 14.5794 407.512 14.2778 407.14 14.1172C406.768 13.9565 406.348 13.9497 405.971 14.0984L404.918 14.5148ZM410.175 17.7086C410.301 17.5872 410.449 17.4919 410.613 17.4285L411.519 17.0733C411.845 16.9451 412.209 16.9517 412.531 17.0918C412.852 17.2319 413.105 17.494 413.233 17.8203L413.588 18.7266C413.717 19.053 413.71 19.417 413.57 19.7385C413.43 20.06 413.168 20.3128 412.841 20.4411L411.947 20.7962C411.787 20.8618 411.615 20.8947 411.441 20.8931C411.268 20.8916 411.096 20.8556 410.937 20.7872C410.777 20.7189 410.633 20.6195 410.512 20.4949C410.391 20.3703 410.296 20.223 410.233 20.0615L409.865 19.1552C409.8 18.9929 409.768 18.8192 409.77 18.6442C409.772 18.4692 409.809 18.2964 409.878 18.1358C409.948 17.9752 410.049 17.83 410.175 17.7086Z" fill="white"/>
<path d="M382.886 16.9634C383.049 16.9012 383.197 16.8072 383.323 16.687C383.449 16.5667 383.55 16.4225 383.619 16.2629C383.689 16.1033 383.726 15.9314 383.728 15.7573C383.731 15.5832 383.698 15.4104 383.633 15.2489L383.266 14.3427C383.135 14.0185 382.881 13.7593 382.56 13.6216C382.239 13.4839 381.876 13.479 381.551 13.6079L380.645 13.963C380.321 14.0937 380.062 14.3474 379.924 14.6687C379.786 14.99 379.781 15.3527 379.91 15.6775L380.265 16.5838C380.394 16.9102 380.646 17.1722 380.968 17.3123C381.289 17.4524 381.653 17.459 381.98 17.3308L382.886 16.9634Z" fill="white"/>
</svg>
