<svg width="481" height="40" viewBox="0 0 481 40" fill="none" xmlns="http://www.w3.org/2000/svg">
<path d="M385.242 11.63C385.1 11.2928 385.277 11.0089 385.65 11.0089H388.383C388.596 11.0089 388.756 11.1508 388.791 11.2751L393.529 22.3663H393.707L403.361 0.893632C403.396 0.787156 403.538 0.627441 403.769 0.627441H406.502C406.874 0.627441 407.052 0.964616 406.91 1.24855L394.186 28.7549C394.115 28.8969 394.008 29.0211 393.778 29.0211H393.512C393.281 29.0211 393.174 28.9146 393.103 28.7549L385.242 11.63Z" fill="white"/>
<path d="M406.289 11.9137C406.289 11.6475 406.466 11.4346 406.768 11.4346H416.83C417.096 11.4346 417.309 11.6653 417.309 11.9137V13.9545C417.309 14.2207 417.132 14.4337 416.83 14.4337H409.501V18.4975H415.606C415.872 18.4975 416.085 18.7282 416.085 18.9767V21.053C416.085 21.3192 415.854 21.5321 415.606 21.5321H409.501V25.8622H416.83C417.096 25.8622 417.309 26.0929 417.309 26.3413V28.3822C417.309 28.6483 417.132 28.8613 416.83 28.8613H406.768C406.502 28.8613 406.289 28.6306 406.289 28.3822V11.9137Z" fill="white"/>
<path d="M421.515 11.9137C421.515 11.6475 421.693 11.4346 421.994 11.4346H429.058C432.021 11.4346 434.452 13.7948 434.452 16.7584C434.452 19.0477 432.944 20.8933 430.797 21.7451L434.204 28.0272C434.381 28.3644 434.204 28.7371 433.796 28.7371H431.205C430.974 28.7371 430.868 28.6306 430.797 28.5064L427.514 21.958H424.781V28.2757C424.781 28.5419 424.55 28.7548 424.301 28.7548H422.012C421.746 28.7548 421.533 28.5241 421.533 28.2757L421.515 11.9137ZM428.791 19.3139C430.087 19.3139 431.24 18.1604 431.24 16.7939C431.24 15.4984 430.087 14.3982 428.791 14.3982H424.763V19.3139H428.791Z" fill="white"/>
<path d="M438.587 11.9137C438.587 11.6475 438.764 11.4346 439.066 11.4346H446.129C449.093 11.4346 451.524 13.7948 451.524 16.7584C451.524 19.0477 450.015 20.8933 447.868 21.7451L451.275 28.0272C451.453 28.3644 451.275 28.7371 450.867 28.7371H448.276C448.046 28.7371 447.939 28.6306 447.868 28.5064L444.585 21.958H441.852V28.2757C441.852 28.5419 441.621 28.7548 441.373 28.7548H439.084C438.817 28.7548 438.604 28.5241 438.604 28.2757V11.9137H438.587ZM445.88 19.3139C447.176 19.3139 448.329 18.1604 448.329 16.7939C448.329 15.4984 447.176 14.3982 445.88 14.3982H441.852V19.3139H445.88Z" fill="white"/>
<path d="M453.724 28.1159L461.408 11.47C461.479 11.3281 461.586 11.2039 461.817 11.2039H462.083C462.349 11.2039 462.42 11.3103 462.491 11.47L470.104 28.1159C470.246 28.4531 470.069 28.7371 469.696 28.7371H467.549C467.176 28.7371 466.998 28.5951 466.839 28.2579L465.614 25.596H458.214L456.99 28.2579C456.883 28.5241 456.652 28.7371 456.28 28.7371H454.132C453.76 28.7371 453.565 28.4354 453.724 28.1159ZM464.408 22.8276L461.923 17.3973H461.852L459.403 22.8276H464.408Z" fill="white"/>
<path d="M479.971 39.5805H375.552C374.967 39.5805 374.523 39.1013 374.523 38.5512V1.56819C374.523 0.982564 375.002 0.53891 375.552 0.53891H398.924C399.155 0.53891 399.297 0.76961 399.226 0.982564L398.197 3.609C398.161 3.71547 398.055 3.78646 397.895 3.78646H378.108C377.93 3.78646 377.771 3.92843 377.771 4.12363V36.0312C377.771 36.2087 377.913 36.3684 378.108 36.3684H477.415C477.593 36.3684 477.752 36.2264 477.752 36.0312V4.08814C477.752 3.91068 477.611 3.75096 477.415 3.75096H410.086C409.856 3.75096 409.714 3.52026 409.785 3.30731L410.974 0.68088C411.009 0.574403 411.116 0.503418 411.275 0.503418H479.971C480.556 0.503418 481 0.982562 481 1.53269V38.4979C481 39.0836 480.521 39.5805 479.971 39.5805Z" fill="white"/>
<path d="M331.651 3.6261V4.79338H332.244C332.556 4.79338 332.776 4.76636 332.903 4.7123C333.105 4.62433 333.207 4.45067 333.207 4.18846C333.207 3.81413 332.939 3.6261 332.404 3.6261H331.651ZM331.078 6.82894V3.16436H332.494C333.351 3.16436 333.78 3.51052 333.78 4.20399C333.78 4.78073 333.458 5.11539 332.814 5.21142L333.863 6.82894H333.252L332.253 5.25225H331.651V6.82894H331.078ZM329.715 4.93311C329.715 5.70823 329.95 6.35513 330.421 6.87379C330.908 7.40798 331.535 7.67594 332.302 7.67594C333.046 7.67594 333.664 7.41373 334.153 6.88989C334.632 6.37698 334.872 5.74561 334.872 4.99521C334.872 4.24654 334.632 3.61805 334.153 3.10743C333.664 2.58877 333.046 2.32944 332.302 2.32944C331.577 2.32944 330.965 2.58129 330.466 3.08616C329.964 3.5916 329.715 4.20687 329.715 4.93311ZM329.142 5.04351C329.142 4.14361 329.443 3.38862 330.046 2.78082C330.65 2.17073 331.402 1.86712 332.302 1.86712C333.182 1.86712 333.929 2.16843 334.535 2.77105C335.142 3.37482 335.446 4.11601 335.446 4.99521C335.446 5.87671 335.142 6.62079 334.535 7.22743C333.929 7.83522 333.182 8.1394 332.302 8.1394C331.439 8.1394 330.697 7.83752 330.075 7.23548C329.452 6.63459 329.142 5.90316 329.142 5.04351Z" fill="white"/>
<path d="M56.3393 31.3143C57.4617 29.825 58.0223 27.7101 58.0223 24.9655C58.0223 22.2227 57.4617 20.1089 56.3393 18.6283C55.2157 17.1493 53.6074 16.4087 51.5132 16.4087C49.4207 16.4087 47.8083 17.1493 46.6773 18.6283C45.5456 20.1089 44.9804 22.2227 44.9804 24.9655C44.9804 27.7101 45.5456 29.825 46.6773 31.3143C47.8083 32.803 49.4207 33.5465 51.5132 33.5465C53.6074 33.5465 55.2157 32.803 56.3393 31.3143ZM62.0676 35.2721C59.7554 38.1265 56.2473 39.5537 51.539 39.5537C46.8302 39.5537 43.3226 38.1265 41.0105 35.2721C38.6983 32.4189 37.5425 28.9826 37.5425 24.9655C37.5425 21.0157 38.6983 17.5921 41.0105 14.6963C43.3226 11.8005 46.8302 10.3521 51.539 10.3521C56.2473 10.3521 59.7554 11.8005 62.0676 14.6963C64.3797 17.5921 65.5367 21.0157 65.5367 24.9655C65.5367 28.9826 64.3797 32.4189 62.0676 35.2721Z" fill="white"/>
<path d="M75.7409 38.6243H68.5785V1.5835H75.7409V38.6243Z" fill="white"/>
<path d="M97.2206 31.1838C98.2764 29.6756 98.8048 27.7245 98.8048 25.329C98.8048 21.979 97.9572 19.5823 96.2655 18.1413C95.2271 17.2719 94.0207 16.8349 92.6458 16.8349C90.5533 16.8349 89.0157 17.6261 88.0365 19.2097C87.0561 20.7921 86.5656 22.7581 86.5656 25.1019C86.5656 27.6325 87.063 29.6554 88.0606 31.1718C89.0583 32.6869 90.57 33.4448 92.5963 33.4448C94.6256 33.4448 96.1661 32.6921 97.2206 31.1838ZM95.4605 11.6706C96.7514 12.3986 97.798 13.4083 98.603 14.6981V1.63085H105.864V38.6222H98.9037V34.8277C97.8825 36.4521 96.7181 37.6344 95.4111 38.3698C94.1035 39.1081 92.4802 39.4773 90.5366 39.4773C87.3355 39.4773 84.6444 38.1818 82.4571 35.5942C80.2697 33.0055 79.1777 29.6848 79.1777 25.6303C79.1777 20.9549 80.2548 17.2782 82.4076 14.598C84.5599 11.9173 87.4379 10.5775 91.0392 10.5775C92.697 10.5775 94.1713 10.9421 95.4605 11.6706Z" fill="white"/>
<path d="M128.356 27.1916C128.598 28.8839 129.067 30.1483 129.768 30.9861C131.051 32.5099 133.249 33.273 136.363 33.273C138.227 33.273 139.741 33.0711 140.904 32.6703C143.11 31.8987 144.214 30.4663 144.214 28.3727C144.214 27.1496 143.672 26.2031 142.593 25.5321C141.511 24.8794 139.797 24.3016 137.451 23.7978L133.44 22.9192C129.499 22.0481 126.791 21.1022 125.317 20.0798C122.82 18.3703 121.573 15.697 121.573 12.0629C121.573 8.74563 122.794 5.9913 125.237 3.79474C127.677 1.60105 131.265 0.503342 135.996 0.503342C139.948 0.503342 143.319 1.53838 146.107 3.60671C148.899 5.67619 150.361 8.6795 150.496 12.6155H143.059C142.92 10.3885 141.924 8.80428 140.07 7.86643C138.833 7.24771 137.295 6.93605 135.459 6.93605C133.414 6.93605 131.782 7.33857 130.562 8.14359C129.342 8.94746 128.734 10.0699 128.734 11.5103C128.734 12.8334 129.335 13.8219 130.538 14.4757C131.31 14.9121 132.951 15.4233 135.459 16.0087L141.959 17.5417C144.81 18.2121 146.944 19.1074 148.366 20.2299C150.572 21.9727 151.678 24.4942 151.678 27.7936C151.678 31.1776 150.368 33.9889 147.754 36.2263C145.138 38.4619 141.441 39.5803 136.667 39.5803C131.791 39.5803 127.954 38.4803 125.161 36.2751C122.366 34.074 120.969 31.0454 120.969 27.1916H128.356Z" fill="white"/>
<path d="M152.818 16.5868V11.4841H156.638V3.8456H163.725V11.4841H168.173V16.5868H163.725V31.0611C163.725 32.1824 163.866 32.8822 164.152 33.1582C164.436 33.4348 165.307 33.5728 166.766 33.5728C166.983 33.5728 167.213 33.5699 167.456 33.5613C167.699 33.5538 167.938 33.5406 168.173 33.5222V38.8762L164.78 39.001C161.396 39.1183 159.084 38.5317 157.844 37.2426C157.04 36.422 156.638 35.157 156.638 33.4475V16.5868H152.818Z" fill="white"/>
<path d="M187.328 25.3037C186.87 25.5895 186.407 25.8184 185.941 25.9937C185.473 26.1703 184.83 26.3336 184.017 26.4842L182.386 26.7861C180.857 27.0546 179.759 27.3807 179.095 27.7659C177.966 28.4192 177.402 29.4346 177.402 30.8066C177.402 32.0291 177.747 32.9135 178.437 33.458C179.125 34.0031 179.963 34.2751 180.949 34.2751C182.513 34.2751 183.957 33.8214 185.276 32.9187C186.594 32.013 187.278 30.3627 187.328 27.966V25.3037ZM182.95 21.9617C184.282 21.7938 185.237 21.5845 185.808 21.3321C186.839 20.8974 187.354 20.2188 187.354 19.2977C187.354 18.1752 186.959 17.4007 186.169 16.9729C185.381 16.5445 184.221 16.3335 182.693 16.3335C180.976 16.3335 179.761 16.7498 179.049 17.5893C178.54 18.2092 178.2 19.0464 178.031 20.1015H171.12C171.271 17.706 171.945 15.7372 173.139 14.1955C175.041 11.7833 178.305 10.5775 182.932 10.5775C185.944 10.5775 188.619 11.1721 190.957 12.3612C193.297 13.5504 194.466 15.7964 194.466 19.097V31.6605C194.466 32.5334 194.482 33.5885 194.515 34.8277C194.565 35.7667 194.708 36.4033 194.943 36.7373C195.177 37.072 195.529 37.3492 195.999 37.5659V38.6222H188.208C187.989 38.0691 187.839 37.5498 187.756 37.0639C187.673 36.5781 187.605 36.0243 187.555 35.4045C186.56 36.4792 185.414 37.3906 184.117 38.1456C182.568 39.0317 180.814 39.4773 178.86 39.4773C176.368 39.4773 174.305 38.7683 172.681 37.3526C171.053 35.9369 170.24 33.9307 170.24 31.3351C170.24 27.966 171.549 25.5291 174.165 24.022C175.598 23.2003 177.709 22.6155 180.492 22.263L182.95 21.9617Z" fill="white"/>
<path d="M220.796 12.8034C222.589 14.2858 223.488 16.7446 223.488 20.1791V38.6245H216.148V21.964C216.148 20.5224 215.957 19.4178 215.576 18.6461C214.875 17.2385 213.545 16.5352 211.584 16.5352C209.172 16.5352 207.519 17.5663 206.619 19.6265C206.153 20.7162 205.921 22.106 205.921 23.7971V38.6245H198.758V11.2825H205.695V15.2794C206.611 13.8723 207.48 12.858 208.297 12.2376C209.765 11.1324 211.625 10.5798 213.878 10.5798C216.696 10.5798 219.005 11.3216 220.796 12.8034Z" fill="white"/>
<path d="M244.414 31.1838C245.47 29.6756 245.998 27.7245 245.998 25.329C245.998 21.979 245.151 19.5823 243.46 18.1413C242.419 17.2719 241.214 16.8349 239.84 16.8349C237.745 16.8349 236.209 17.6261 235.229 19.2097C234.249 20.7921 233.759 22.7581 233.759 25.1019C233.759 27.6325 234.256 29.6554 235.254 31.1718C236.251 32.6869 237.763 33.4448 239.791 33.4448C241.817 33.4448 243.358 32.6921 244.414 31.1838ZM242.655 11.6706C243.945 12.3986 244.991 13.4083 245.794 14.6981V1.63085H253.059V38.6222H246.097V34.8277C245.076 36.4521 243.911 37.6344 242.604 38.3698C241.297 39.1081 239.672 39.4773 237.729 39.4773C234.529 39.4773 231.838 38.1818 229.652 35.5942C227.464 33.0055 226.372 29.6848 226.372 25.6303C226.372 20.9549 227.447 17.2782 229.6 14.598C231.751 11.9173 234.63 10.5775 238.231 10.5775C239.89 10.5775 241.365 10.9421 242.655 11.6706Z" fill="white"/>
<path d="M272.781 25.3037C272.322 25.5895 271.86 25.8184 271.392 25.9937C270.925 26.1703 270.283 26.3336 269.47 26.4842L267.839 26.7861C266.311 27.0546 265.214 27.3807 264.546 27.7659C263.418 28.4192 262.853 29.4346 262.853 30.8066C262.853 32.0291 263.198 32.9135 263.888 33.458C264.576 34.0031 265.414 34.2751 266.401 34.2751C267.967 34.2751 269.408 33.8214 270.726 32.9187C272.045 32.013 272.73 30.3627 272.781 27.966V25.3037ZM268.401 21.9617C269.733 21.7938 270.686 21.5845 271.261 21.3321C272.292 20.8974 272.807 20.2188 272.807 19.2977C272.807 18.1752 272.411 17.4007 271.622 16.9729C270.831 16.5445 269.672 16.3335 268.144 16.3335C266.43 16.3335 265.214 16.7498 264.5 17.5893C263.993 18.2092 263.652 19.0464 263.484 20.1015H256.573C256.722 17.706 257.396 15.7372 258.591 14.1955C260.492 11.7833 263.756 10.5775 268.384 10.5775C271.395 10.5775 274.07 11.1721 276.408 12.3612C278.748 13.5504 279.917 15.7964 279.917 19.097V31.6605C279.917 32.5334 279.934 33.5885 279.967 34.8277C280.016 35.7667 280.159 36.4033 280.396 36.7373C280.629 37.072 280.982 37.3492 281.45 37.5659V38.6222H273.661C273.442 38.0691 273.292 37.5498 273.207 37.0639C273.123 36.5781 273.057 36.0243 273.006 35.4045C272.013 36.4792 270.865 37.3906 269.57 38.1456C268.02 39.0317 266.267 39.4773 264.311 39.4773C261.817 39.4773 259.757 38.7683 258.132 37.3526C256.505 35.9369 255.691 33.9307 255.691 31.3351C255.691 27.966 257.001 25.5291 259.616 24.022C261.049 23.2003 263.16 22.6155 265.947 22.263L268.401 21.9617Z" fill="white"/>
<path d="M298.707 10.5919C298.8 10.6011 299.001 10.6137 299.323 10.6298V17.9682C298.869 17.917 298.468 17.8842 298.116 17.8687C297.763 17.8515 297.48 17.8434 297.261 17.8434C294.379 17.8434 292.444 18.7807 291.456 20.657C290.902 21.7121 290.627 23.3371 290.627 25.532V38.6245H283.415V11.233H290.251V16.008C291.357 14.1817 292.319 12.9345 293.141 12.2634C294.479 11.1416 296.221 10.5804 298.366 10.5804C298.5 10.5804 298.614 10.5832 298.707 10.5919Z" fill="white"/>
<path d="M317.787 31.1838C318.843 29.6756 319.37 27.7245 319.37 25.329C319.37 21.979 318.524 19.5823 316.833 18.1413C315.794 17.2719 314.589 16.8349 313.214 16.8349C311.119 16.8349 309.582 17.6261 308.603 19.2097C307.623 20.7921 307.134 22.7581 307.134 25.1019C307.134 27.6325 307.632 29.6554 308.628 31.1718C309.625 32.6869 311.137 33.4448 313.165 33.4448C315.191 33.4448 316.733 32.6921 317.787 31.1838ZM316.029 11.6706C317.318 12.3986 318.366 13.4083 319.17 14.6981V1.63085H326.433V38.6222H319.47V34.8277C318.447 36.4521 317.284 37.6344 315.979 38.3698C314.672 39.1081 313.047 39.4773 311.103 39.4773C307.902 39.4773 305.21 38.1818 303.024 35.5942C300.839 33.0055 299.745 29.6848 299.745 25.6303C299.745 20.9549 300.821 17.2782 302.974 14.598C305.127 11.9173 308.003 10.5775 311.606 10.5775C313.265 10.5775 314.739 10.9421 316.029 11.6706Z" fill="white"/>
<path d="M23.1887 31.7509C21.7655 32.5979 20.075 33.0205 18.1194 33.0205C15.4714 33.0205 13.1098 32.0764 11.0323 30.1874C8.95474 28.2979 7.91569 25.0796 7.91569 20.5306C7.91569 16.0167 8.87424 12.6345 10.7931 10.3856C12.7113 8.13669 15.162 7.01138 18.1435 7.01138C19.7018 7.01138 21.1175 7.28796 22.3917 7.8417C24.6694 8.84626 26.1012 10.6139 26.6877 13.1434H34.3026C33.8829 9.57538 32.2464 6.59737 29.3897 4.21048C26.533 1.82301 22.7511 0.628696 18.0429 0.628696C12.6153 0.628696 8.25092 2.43655 4.95033 6.0534C1.65031 9.66911 7.62939e-06 14.4757 7.62939e-06 20.4696C7.62939e-06 26.3958 1.63535 31.0666 4.90087 34.4816C8.03299 37.8811 12.0541 39.5803 16.9624 39.5803C19.3367 39.5803 21.4079 39.1761 23.1887 38.3837V31.7509Z" fill="white"/>
<path d="M18.1131 18.8786V25.6482H27.7555V35.2913H34.5252V18.8786H18.1131Z" fill="white"/>
</svg>
