<svg width="345" height="203" viewBox="0 0 345 203" fill="none" xmlns="http://www.w3.org/2000/svg">
<path d="M198.596 164.805C198.403 164.345 198.645 163.959 199.152 163.959H202.874C203.164 163.959 203.381 164.152 203.43 164.321L209.882 179.425H210.124L223.271 150.184C223.319 150.039 223.512 149.821 223.826 149.821H227.548C228.056 149.821 228.297 150.28 228.104 150.667L210.776 188.125C210.68 188.319 210.535 188.488 210.221 188.488H209.858C209.544 188.488 209.399 188.343 209.302 188.125L198.596 164.805Z" fill="white"/>
<path d="M227.258 165.191C227.258 164.829 227.5 164.539 227.911 164.539H241.613C241.976 164.539 242.266 164.853 242.266 165.191V167.97C242.266 168.333 242.024 168.623 241.613 168.623H231.633V174.157H239.946C240.308 174.157 240.598 174.471 240.598 174.809V177.637C240.598 177.999 240.284 178.289 239.946 178.289H231.633V184.186H241.613C241.976 184.186 242.266 184.5 242.266 184.839V187.618C242.266 187.98 242.024 188.27 241.613 188.27H227.911C227.548 188.27 227.258 187.956 227.258 187.618V165.191Z" fill="white"/>
<path d="M247.994 165.191C247.994 164.829 248.235 164.539 248.646 164.539H258.265C262.3 164.539 265.611 167.753 265.611 171.789C265.611 174.906 263.557 177.419 260.633 178.579L265.273 187.134C265.515 187.594 265.273 188.101 264.717 188.101H261.189C260.875 188.101 260.73 187.956 260.633 187.787L256.162 178.869H252.44V187.473C252.44 187.835 252.126 188.125 251.788 188.125H248.67C248.308 188.125 248.018 187.811 248.018 187.473L247.994 165.191ZM257.902 175.269C259.666 175.269 261.237 173.698 261.237 171.837C261.237 170.073 259.666 168.574 257.902 168.574H252.416V175.269H257.902Z" fill="white"/>
<path d="M271.241 165.191C271.241 164.829 271.483 164.539 271.894 164.539H281.512C285.548 164.539 288.859 167.753 288.859 171.789C288.859 174.906 286.805 177.419 283.881 178.579L288.521 187.134C288.762 187.594 288.521 188.101 287.965 188.101H284.437C284.122 188.101 283.977 187.956 283.881 187.787L279.41 178.869H275.688V187.473C275.688 187.835 275.374 188.125 275.036 188.125H271.918C271.556 188.125 271.266 187.811 271.266 187.473V165.191H271.241ZM281.174 175.269C282.938 175.269 284.509 173.698 284.509 171.837C284.509 170.073 282.938 168.574 281.174 168.574H275.688V175.269H281.174Z" fill="white"/>
<path d="M291.856 187.255L302.32 164.587C302.417 164.394 302.562 164.225 302.876 164.225H303.238C303.601 164.225 303.698 164.37 303.794 164.587L314.162 187.255C314.355 187.715 314.113 188.101 313.606 188.101H310.682C310.174 188.101 309.933 187.908 309.715 187.449L308.048 183.824H297.97L296.303 187.449C296.158 187.811 295.843 188.101 295.336 188.101H292.412C291.904 188.101 291.638 187.69 291.856 187.255ZM306.404 180.054L303.021 172.659H302.924L299.589 180.054H306.404Z" fill="white"/>
<path d="M327.598 202.867H185.402C184.604 202.867 184 202.215 184 201.466V151.102C184 150.305 184.653 149.701 185.402 149.701H217.229C217.543 149.701 217.737 150.015 217.64 150.305L216.238 153.882C216.19 154.027 216.045 154.123 215.828 154.123H188.882C188.64 154.123 188.423 154.317 188.423 154.582V198.034C188.423 198.276 188.616 198.493 188.882 198.493H324.118C324.36 198.493 324.577 198.3 324.577 198.034V154.534C324.577 154.292 324.384 154.075 324.118 154.075H232.43C232.116 154.075 231.923 153.761 232.019 153.471L233.638 149.894C233.687 149.749 233.832 149.652 234.049 149.652H327.598C328.396 149.652 329 150.305 329 151.054V201.393C329 202.191 328.347 202.867 327.598 202.867Z" fill="white"/>
<path d="M126.01 188.672H131.696V190.504H128.176V192.097H131.122V193.833H128.176V194.98H131.871V196.827H126.01V188.672Z" fill="white"/>
<path d="M119.146 196.907C119.098 196.97 119.034 196.97 119.002 196.907L115.18 188.672H117.489L119.146 192.463L120.77 188.672H122.968L119.146 196.907Z" fill="white"/>
<path d="M109.031 193.212C110.019 193.212 110.369 192.654 110.369 191.874C110.369 191.093 110.019 190.52 109.031 190.52H108.235V193.212H109.031ZM112.535 196.811H110.178L109.047 194.948H108.235V196.811H106.069V188.672H109.143C111.325 188.672 112.567 190.058 112.567 191.874C112.567 193.036 112.042 193.976 111.086 194.502L112.535 196.811Z" fill="white"/>
<path d="M95.6847 188.672H101.387V190.504H97.8667V192.097H100.797V193.833H97.8667V194.98H101.546V196.827H95.6847V188.672Z" fill="white"/>
<path d="M75.218 188.672H80.9199V190.504H77.4V192.097H80.3466V193.833H77.4V194.98H81.0951V196.827H75.218V188.672Z" fill="white"/>
<path d="M67.7168 193.212C68.6883 193.212 69.0546 192.654 69.0546 191.874C69.0546 191.093 68.6883 190.52 67.7168 190.52H66.9045V193.212H67.7168ZM71.2207 196.811H68.8635L67.7327 194.948H66.9045V196.811H64.7384V188.672H67.8123C70.0103 188.672 71.2367 190.058 71.2367 191.874C71.2367 193.036 70.727 193.976 69.7714 194.502L71.2207 196.811Z" fill="white"/>
<path d="M84.8701 195.427L86.4469 194.233C86.8451 194.726 87.3229 195.125 88.1511 195.125C88.9793 195.125 89.1704 194.934 89.1704 194.488C89.1704 194.042 88.9156 193.962 88.3741 193.787L87.4185 193.468C86.2239 193.07 85.3957 192.353 85.3957 191C85.3957 189.646 86.7177 188.579 88.167 188.579C89.6164 188.579 90.3968 189.088 90.8746 189.662L89.6323 190.968C89.4693 190.773 89.2643 190.617 89.0326 190.512C88.801 190.407 88.5486 190.356 88.2944 190.362C87.7689 190.362 87.4981 190.617 87.4981 190.936C87.4981 191.254 87.6733 191.398 88.0715 191.525L89.1545 191.891C90.7791 192.433 91.3206 193.213 91.3206 194.36C91.3206 195.857 90.3968 196.94 88.2467 196.94C86.415 196.94 85.3798 196.096 84.8701 195.427Z" fill="white"/>
<path d="M103.377 173.511H102.119V181.567H103.377V173.511Z" fill="white"/>
<path d="M91.4644 174.642H89.0753V173.511H95.1117V174.642H92.7226V181.57H91.4644V174.642Z" fill="white"/>
<path d="M126.282 176.282V181.57H125.103V173.399H125.199L130.343 178.814V173.51H131.538V181.697H131.442L126.282 176.282Z" fill="white"/>
<path d="M76.2219 177.54C76.2219 175.167 78.0376 173.399 80.3152 173.399C81.8124 173.399 82.8317 173.988 83.5325 174.976L82.5609 175.661C82.0353 174.928 81.3505 174.546 80.2833 174.546C78.6906 174.546 77.5279 175.836 77.5279 177.54C77.5279 179.244 78.7225 180.518 80.3311 180.518C81.3823 180.518 82.1468 180.136 82.7521 179.356L83.7236 180.025C82.8954 181.124 81.8442 181.681 80.2833 181.681C77.9898 181.681 76.2219 179.913 76.2219 177.54Z" fill="white"/>
<path d="M117.473 177.539C117.473 175.835 116.294 174.545 114.638 174.545C112.981 174.545 111.803 175.835 111.803 177.539C111.803 179.243 112.965 180.518 114.638 180.518C116.31 180.518 117.473 179.243 117.473 177.539ZM110.481 177.539C110.478 176.716 110.719 175.911 111.174 175.225C111.629 174.54 112.277 174.004 113.036 173.687C113.795 173.37 114.632 173.286 115.439 173.444C116.246 173.603 116.989 173.997 117.572 174.578C118.155 175.159 118.552 175.9 118.714 176.706C118.875 177.513 118.794 178.35 118.48 179.11C118.166 179.871 117.633 180.521 116.949 180.979C116.265 181.436 115.461 181.68 114.638 181.68C114.091 181.689 113.548 181.588 113.041 181.383C112.534 181.178 112.073 180.873 111.685 180.487C111.298 180.101 110.991 179.642 110.784 179.135C110.578 178.629 110.474 178.086 110.481 177.539Z" fill="white"/>
<path d="M67.334 176.123L65.9962 179.308H68.656L67.334 176.123ZM65.0724 181.57H63.7982L67.3181 173.352H67.3818L70.9176 181.57H69.5798L69.1179 180.439H65.5343L65.0724 181.57Z" fill="white"/>
<path d="M20.2137 175.442C20.7042 175.243 21.0966 174.859 21.3054 174.373C21.5142 173.887 21.5225 173.338 21.3286 172.846L20.7871 171.476C20.6922 171.232 20.5499 171.01 20.3685 170.822C20.187 170.633 19.97 170.483 19.7299 170.379C19.4899 170.276 19.2317 170.221 18.9702 170.217C18.7088 170.214 18.4493 170.263 18.2068 170.361L16.853 170.903C16.6088 170.999 16.386 171.143 16.1976 171.326C16.0092 171.509 15.8589 171.727 15.7552 171.969C15.6516 172.21 15.5967 172.469 15.5938 172.732C15.5909 172.995 15.6399 173.255 15.7381 173.499L16.2797 174.853C16.3747 175.096 16.5169 175.319 16.698 175.508C16.8792 175.696 17.0957 175.848 17.3354 175.953C17.575 176.058 17.833 176.114 18.0946 176.12C18.3562 176.125 18.6162 176.079 18.8599 175.983L20.2137 175.442Z" fill="white"/>
<path d="M17.6179 167.941C17.9928 167.792 18.2936 167.501 18.4547 167.131C18.6158 166.761 18.6242 166.342 18.4779 165.966C18.3669 165.689 18.1764 165.451 17.9305 165.282C17.6845 165.113 17.3941 165.021 17.0958 165.016C16.7974 165.012 16.5044 165.096 16.2536 165.258C16.0028 165.419 15.8055 165.651 15.6863 165.925C15.5672 166.199 15.5316 166.501 15.584 166.795C15.6365 167.089 15.7746 167.361 15.981 167.576C16.1875 167.791 16.453 167.941 16.7443 168.006C17.0355 168.071 17.3394 168.048 17.6179 167.941Z" fill="white"/>
<path d="M126.392 158.889H131.505V160.019H127.65V163.269H131.059V164.368H127.65V165.833H131.664V166.948H126.392V158.889Z" fill="white"/>
<path d="M118.237 160.019H115.864V158.889H121.901V160.019H119.512V166.948H118.237V160.019Z" fill="white"/>
<path d="M87.2759 158.889H86.0177V166.949H87.2759V158.889Z" fill="white"/>
<path d="M76.365 158.889H77.6232V165.833H81.1591V166.948H76.365V158.889Z" fill="white"/>
<path d="M64.0378 162.919C64.0378 160.53 65.8376 158.778 68.1311 158.778C69.6123 158.778 70.6476 159.367 71.3484 160.355L70.3768 161.039C69.8353 160.307 69.1504 159.925 68.0993 159.925C66.5065 159.925 65.3439 161.215 65.3439 162.919C65.3439 164.623 66.5225 165.913 68.147 165.913C68.6138 165.929 69.0772 165.829 69.4965 165.624C69.9159 165.418 70.2783 165.113 70.552 164.735L71.5236 165.404C70.7113 166.502 69.6601 167.06 68.0993 167.06C65.8058 167.06 64.0378 165.292 64.0378 162.919Z" fill="white"/>
<path d="M109.557 161.501L108.219 164.703H110.863C110.879 164.703 109.557 161.501 109.557 161.501ZM107.279 166.948H106.005L109.525 158.73H109.589L113.125 166.948H111.803L111.341 165.818H107.741L107.279 166.948Z" fill="white"/>
<path d="M93.6299 158.73H93.6777L97.5957 163.269L101.482 158.73H101.546V166.948H100.351V161.724L97.5957 165.005H97.548L94.8085 161.724V166.948H93.6299V158.73Z" fill="white"/>
<path fill-rule="evenodd" clip-rule="evenodd" d="M21.8381 151.519C34.8028 146.247 49.5831 152.523 54.8232 165.535C60.0632 178.548 53.8197 193.36 40.8551 198.616C27.8904 203.872 13.0941 197.596 7.85409 184.6C2.61407 171.603 8.8575 156.775 21.8381 151.519ZM52.9124 169.165C52.6794 168.333 52.403 167.514 52.0842 166.712C50.1595 161.915 46.6314 157.934 42.1008 155.446C37.5703 152.958 32.3174 152.118 27.2368 153.068C22.1563 154.019 17.5623 156.701 14.2374 160.658C10.9124 164.615 9.062 169.603 9.0014 174.771L12.808 173.194C13.0358 173.101 13.2799 173.054 13.5261 173.055C13.7722 173.057 14.0156 173.108 14.2422 173.204C14.4688 173.3 14.6741 173.44 14.8462 173.616C15.0182 173.792 15.1537 174.001 15.2448 174.229L15.7545 175.52C15.9878 176.093 16.439 176.551 17.0091 176.793C17.5793 177.035 18.222 177.041 18.7966 176.81L22.3324 175.392C22.3732 176.712 22.7031 178.008 23.299 179.187C23.8949 180.366 24.7422 181.4 25.7811 182.216C26.8201 183.032 28.0254 183.61 29.312 183.909C30.5986 184.208 31.9353 184.222 33.2277 183.948C34.5201 183.675 35.7368 183.121 36.792 182.327C37.8472 181.532 38.7152 180.515 39.3347 179.349C39.9542 178.182 40.3102 176.893 40.3777 175.574C40.445 174.255 40.2222 172.937 39.7248 171.713C39.3392 170.741 38.7837 169.846 38.0843 169.069L42.9102 167.062C43.1942 166.943 43.4991 166.883 43.807 166.883C44.1149 166.884 44.4195 166.947 44.7029 167.067C44.9863 167.187 45.2429 167.363 45.4574 167.583C45.672 167.804 45.8402 168.066 45.9523 168.352L46.5257 169.722C46.7131 170.181 47.0744 170.548 47.5308 170.742C47.9873 170.936 48.5019 170.941 48.9625 170.757L52.9124 169.165ZM43.3662 176.806C43.5089 176.444 43.7843 176.15 44.1363 175.983C44.506 175.862 44.9083 175.885 45.261 176.05C45.6138 176.215 45.8904 176.508 46.0347 176.869C46.1789 177.231 46.1798 177.634 46.0371 177.996C45.8945 178.358 45.6191 178.652 45.2671 178.818C44.8974 178.94 44.4951 178.916 44.1424 178.752C43.7896 178.587 43.5129 178.294 43.3687 177.933C43.2245 177.571 43.2236 177.168 43.3662 176.806ZM41.4602 168.53C40.9708 168.725 40.5786 169.106 40.3697 169.59C40.1607 170.073 40.1519 170.62 40.3453 171.11L40.8868 172.48C41.0819 172.969 41.4629 173.361 41.9466 173.57C42.4302 173.779 42.9769 173.788 43.467 173.595L44.8208 173.053C45.0665 172.958 45.2908 172.816 45.4809 172.633C45.6711 172.451 45.8231 172.233 45.9283 171.991C46.0334 171.75 46.0897 171.49 46.0937 171.227C46.0977 170.963 46.0494 170.702 45.9516 170.457L45.4101 169.103C45.2151 168.614 44.834 168.222 44.3504 168.013C43.8667 167.804 43.32 167.795 42.8299 167.988L41.4602 168.53ZM48.2968 172.684C48.4607 172.526 48.6543 172.402 48.8664 172.32L50.045 171.858C50.4695 171.691 50.9429 171.7 51.3611 171.882C51.7792 172.064 52.1079 172.405 52.2748 172.829L52.7367 174.008C52.9035 174.432 52.8948 174.906 52.7126 175.324C52.5304 175.742 52.1896 176.071 51.7651 176.238L50.6024 176.7C50.3934 176.785 50.1696 176.828 49.9439 176.826C49.7182 176.824 49.4952 176.777 49.2878 176.688C49.0803 176.599 48.8926 176.47 48.7355 176.308C48.5784 176.146 48.4551 175.954 48.3726 175.744L47.8948 174.565C47.8098 174.354 47.7675 174.128 47.7703 173.901C47.7732 173.673 47.8213 173.448 47.9116 173.24C48.002 173.031 48.1329 172.842 48.2968 172.684Z" fill="white"/>
<path d="M12.8069 171.715C13.0184 171.634 13.2117 171.512 13.3754 171.355C13.5391 171.199 13.6701 171.011 13.7605 170.804C13.851 170.596 13.8991 170.373 13.9022 170.146C13.9053 169.92 13.8632 169.695 13.7784 169.485L13.3006 168.306C13.1306 167.885 12.8007 167.548 12.3829 167.369C11.9651 167.19 11.4933 167.183 11.0708 167.351L9.89222 167.813C9.47062 167.983 9.13345 168.313 8.95439 168.73C8.77532 169.148 8.76893 169.62 8.93659 170.042L9.39848 171.221C9.56539 171.646 9.89405 171.986 10.3122 172.169C10.7303 172.351 11.2037 172.359 11.6283 172.193L12.8069 171.715Z" fill="white"/>
<path d="M331.651 81.2787V82.446H332.244C332.556 82.446 332.776 82.4189 332.903 82.3649C333.105 82.2769 333.207 82.1033 333.207 81.8411C333.207 81.4667 332.939 81.2787 332.404 81.2787H331.651ZM331.078 84.4815V80.8169H332.494C333.351 80.8169 333.78 81.1631 333.78 81.8566C333.78 82.4333 333.458 82.768 332.814 82.864L333.863 84.4815H333.252L332.253 82.9048H331.651V84.4815H331.078ZM329.715 82.5857C329.715 83.3608 329.95 84.0077 330.421 84.5264C330.908 85.0606 331.535 85.3285 332.302 85.3285C333.046 85.3285 333.664 85.0663 334.153 84.5425C334.632 84.0296 334.872 83.3982 334.872 82.6478C334.872 81.8991 334.632 81.2706 334.153 80.76C333.664 80.2414 333.046 79.982 332.302 79.982C331.577 79.982 330.965 80.2339 330.466 80.7387C329.964 81.2442 329.715 81.8595 329.715 82.5857ZM329.142 82.6961C329.142 81.7962 329.443 81.0412 330.046 80.4334C330.65 79.8233 331.402 79.5197 332.302 79.5197C333.182 79.5197 333.929 79.821 334.535 80.4236C335.142 81.0274 335.446 81.7686 335.446 82.6478C335.446 83.5293 335.142 84.2734 334.535 84.88C333.929 85.4878 333.182 85.792 332.302 85.792C331.439 85.792 330.697 85.4901 330.075 84.8881C329.452 84.2872 329.142 83.5558 329.142 82.6961Z" fill="white"/>
<path d="M56.3393 108.967C57.4618 107.477 58.0224 105.362 58.0224 102.618C58.0224 99.8751 57.4618 97.7613 56.3393 96.2806C55.2157 94.8017 53.6074 94.0611 51.5132 94.0611C49.4207 94.0611 47.8084 94.8017 46.6773 96.2806C45.5457 97.7613 44.9804 99.8751 44.9804 102.618C44.9804 105.362 45.5457 107.477 46.6773 108.967C47.8084 110.455 49.4207 111.199 51.5132 111.199C53.6074 111.199 55.2157 110.455 56.3393 108.967ZM62.0676 112.924C59.7555 115.779 56.2473 117.206 51.5391 117.206C46.8303 117.206 43.3227 115.779 41.0105 112.924C38.6984 110.071 37.5426 106.635 37.5426 102.618C37.5426 98.6681 38.6984 95.2444 41.0105 92.3487C43.3227 89.4529 46.8303 88.0044 51.5391 88.0044C56.2473 88.0044 59.7555 89.4529 62.0676 92.3487C64.3798 95.2444 65.5367 98.6681 65.5367 102.618C65.5367 106.635 64.3798 110.071 62.0676 112.924Z" fill="white"/>
<path d="M75.7409 116.277H68.5785V79.2358H75.7409V116.277Z" fill="white"/>
<path d="M97.2206 108.836C98.2764 107.328 98.8048 105.377 98.8048 102.982C98.8048 99.6315 97.9572 97.2349 96.2655 95.7939C95.227 94.9245 94.0207 94.4875 92.6458 94.4875C90.5533 94.4875 89.0157 95.2787 88.0364 96.8623C87.056 98.4447 86.5656 100.411 86.5656 102.754C86.5656 105.285 87.0629 107.308 88.0606 108.824C89.0583 110.34 90.57 111.097 92.5963 111.097C94.6256 111.097 96.166 110.345 97.2206 108.836ZM95.4605 89.3232C96.7514 90.0512 97.7979 91.0609 98.603 92.3507V79.2834H105.864V116.275H98.9037V112.48C97.8825 114.105 96.7181 115.287 95.411 116.022C94.1035 116.761 92.4802 117.13 90.5366 117.13C87.3355 117.13 84.6444 115.834 82.4571 113.247C80.2697 110.658 79.1777 107.337 79.1777 103.283C79.1777 98.6074 80.2547 94.9308 82.4076 92.2506C84.5599 89.5699 87.4379 88.2301 91.0392 88.2301C92.697 88.2301 94.1713 88.5947 95.4605 89.3232Z" fill="white"/>
<path d="M128.355 104.844C128.598 106.536 129.067 107.801 129.768 108.639C131.051 110.163 133.249 110.926 136.363 110.926C138.227 110.926 139.741 110.724 140.904 110.323C143.11 109.551 144.214 108.119 144.214 106.025C144.214 104.802 143.672 103.856 142.593 103.185C141.511 102.532 139.797 101.954 137.45 101.45L133.44 100.572C129.499 99.7007 126.791 98.7547 125.316 97.7324C122.82 96.0228 121.573 93.3496 121.573 89.7155C121.573 86.3982 122.794 83.6439 125.237 81.4473C127.677 79.2536 131.264 78.1559 135.996 78.1559C139.948 78.1559 143.319 79.191 146.107 81.2593C148.899 83.3288 150.361 86.3321 150.496 90.2681H143.059C142.92 88.041 141.924 86.4569 140.07 85.519C138.833 84.9003 137.295 84.5886 135.459 84.5886C133.414 84.5886 131.782 84.9912 130.562 85.7962C129.342 86.6001 128.734 87.7225 128.734 89.1629C128.734 90.486 129.335 91.4745 130.538 92.1283C131.31 92.5647 132.951 93.0759 135.459 93.6613L141.959 95.1942C144.81 95.8647 146.944 96.76 148.365 97.8825C150.572 99.6253 151.678 102.147 151.678 105.446C151.678 108.83 150.368 111.641 147.754 113.879C145.138 116.115 141.441 117.233 136.667 117.233C131.791 117.233 127.954 116.133 125.161 113.928C122.366 111.727 120.969 108.698 120.969 104.844H128.355Z" fill="white"/>
<path d="M152.818 94.2392V89.1365H156.638V81.4979H163.725V89.1365H168.173V94.2392H163.725V108.713C163.725 109.835 163.866 110.535 164.152 110.811C164.436 111.087 165.307 111.225 166.767 111.225C166.983 111.225 167.213 111.222 167.457 111.214C167.699 111.206 167.938 111.193 168.173 111.175V116.529L164.78 116.653C161.396 116.771 159.084 116.184 157.844 114.895C157.04 114.074 156.638 112.809 156.638 111.1V94.2392H152.818Z" fill="white"/>
<path d="M187.328 102.956C186.87 103.242 186.408 103.471 185.941 103.646C185.473 103.823 184.83 103.986 184.017 104.137L182.386 104.439C180.857 104.707 179.759 105.033 179.095 105.419C177.966 106.072 177.402 107.087 177.402 108.459C177.402 109.682 177.747 110.566 178.437 111.111C179.125 111.656 179.963 111.928 180.949 111.928C182.514 111.928 183.957 111.474 185.276 110.571C186.594 109.666 187.278 108.015 187.328 105.619V102.956ZM182.951 99.6143C184.282 99.4464 185.237 99.2371 185.808 98.9847C186.839 98.5499 187.354 97.8714 187.354 96.9502C187.354 95.8278 186.96 95.0533 186.169 94.6255C185.381 94.1971 184.221 93.986 182.693 93.986C180.976 93.986 179.761 94.4023 179.049 95.2419C178.54 95.8617 178.2 96.699 178.031 97.7541H171.12C171.271 95.3586 171.945 93.3897 173.139 91.8481C175.041 89.4359 178.305 88.2301 182.932 88.2301C185.944 88.2301 188.619 88.8247 190.957 90.0138C193.297 91.203 194.466 93.449 194.466 96.7496V109.313C194.466 110.186 194.482 111.241 194.515 112.48C194.565 113.419 194.708 114.056 194.943 114.39C195.177 114.725 195.529 115.002 195.999 115.219V116.275H188.208C187.989 115.722 187.839 115.202 187.756 114.717C187.673 114.231 187.605 113.677 187.555 113.057C186.56 114.132 185.414 115.043 184.117 115.798C182.568 116.684 180.814 117.13 178.86 117.13C176.368 117.13 174.305 116.421 172.681 115.005C171.053 113.59 170.24 111.583 170.24 108.988C170.24 105.619 171.549 103.182 174.165 101.675C175.598 100.853 177.709 100.268 180.492 99.9156L182.951 99.6143Z" fill="white"/>
<path d="M220.796 90.4557C222.589 91.9381 223.488 94.3969 223.488 97.8315V116.277H216.148V99.6163C216.148 98.1748 215.957 97.0701 215.576 96.2985C214.875 94.8908 213.545 94.1876 211.584 94.1876C209.172 94.1876 207.519 95.2186 206.619 97.2789C206.154 98.3685 205.921 99.7584 205.921 101.449V116.277H198.758V88.9348H205.695V92.9318C206.611 91.5247 207.48 90.5104 208.297 89.8899C209.765 88.7847 211.625 88.2321 213.878 88.2321C216.697 88.2321 219.005 88.9739 220.796 90.4557Z" fill="white"/>
<path d="M244.414 108.836C245.47 107.328 245.998 105.377 245.998 102.982C245.998 99.6315 245.151 97.2349 243.46 95.7939C242.419 94.9245 241.214 94.4875 239.84 94.4875C237.745 94.4875 236.209 95.2787 235.229 96.8623C234.249 98.4447 233.759 100.411 233.759 102.754C233.759 105.285 234.256 107.308 235.254 108.824C236.252 110.34 237.763 111.097 239.791 111.097C241.817 111.097 243.358 110.345 244.414 108.836ZM242.655 89.3232C243.945 90.0512 244.991 91.0609 245.795 92.3507V79.2834H253.059V116.275H246.097V112.48C245.076 114.105 243.911 115.287 242.604 116.022C241.297 116.761 239.672 117.13 237.729 117.13C234.529 117.13 231.838 115.834 229.652 113.247C227.464 110.658 226.372 107.337 226.372 103.283C226.372 98.6074 227.447 94.9308 229.6 92.2506C231.751 89.5699 234.63 88.2301 238.231 88.2301C239.89 88.2301 241.365 88.5947 242.655 89.3232Z" fill="white"/>
<path d="M272.781 102.956C272.322 103.242 271.86 103.471 271.392 103.646C270.925 103.823 270.283 103.986 269.47 104.137L267.839 104.439C266.311 104.707 265.214 105.033 264.547 105.419C263.418 106.072 262.853 107.087 262.853 108.459C262.853 109.682 263.198 110.566 263.888 111.111C264.576 111.656 265.414 111.928 266.401 111.928C267.967 111.928 269.408 111.474 270.726 110.571C272.045 109.666 272.73 108.015 272.781 105.619V102.956ZM268.401 99.6143C269.733 99.4464 270.687 99.2371 271.261 98.9847C272.292 98.5499 272.807 97.8714 272.807 96.9502C272.807 95.8278 272.411 95.0533 271.622 94.6255C270.831 94.1971 269.672 93.986 268.144 93.986C266.43 93.986 265.214 94.4023 264.501 95.2419C263.993 95.8617 263.652 96.699 263.484 97.7541H256.573C256.722 95.3586 257.396 93.3897 258.591 91.8481C260.492 89.4359 263.756 88.2301 268.384 88.2301C271.396 88.2301 274.07 88.8247 276.408 90.0138C278.748 91.203 279.917 93.449 279.917 96.7496V109.313C279.917 110.186 279.934 111.241 279.967 112.48C280.016 113.419 280.159 114.056 280.396 114.39C280.629 114.725 280.982 115.002 281.45 115.219V116.275H273.661C273.442 115.722 273.292 115.202 273.207 114.717C273.123 114.231 273.057 113.677 273.006 113.057C272.013 114.132 270.865 115.043 269.57 115.798C268.02 116.684 266.267 117.13 264.311 117.13C261.817 117.13 259.757 116.421 258.132 115.005C256.505 113.59 255.691 111.583 255.691 108.988C255.691 105.619 257.001 103.182 259.616 101.675C261.049 100.853 263.16 100.268 265.947 99.9156L268.401 99.6143Z" fill="white"/>
<path d="M298.707 88.2442C298.8 88.2534 299.001 88.2661 299.322 88.2822V95.6205C298.869 95.5694 298.467 95.5366 298.116 95.5211C297.763 95.5038 297.48 95.4958 297.26 95.4958C294.379 95.4958 292.444 96.433 291.456 98.3093C290.902 99.3645 290.627 100.989 290.627 103.184V116.277H283.415V88.8854H290.251V93.6603C291.357 91.834 292.319 90.5868 293.141 89.9158C294.479 88.7939 296.221 88.2327 298.366 88.2327C298.5 88.2327 298.614 88.2356 298.707 88.2442Z" fill="white"/>
<path d="M317.787 108.836C318.843 107.328 319.37 105.377 319.37 102.982C319.37 99.6315 318.524 97.2349 316.833 95.7939C315.794 94.9245 314.589 94.4875 313.214 94.4875C311.119 94.4875 309.582 95.2787 308.603 96.8623C307.623 98.4447 307.134 100.411 307.134 102.754C307.134 105.285 307.632 107.308 308.628 108.824C309.625 110.34 311.137 111.097 313.165 111.097C315.191 111.097 316.733 110.345 317.787 108.836ZM316.029 89.3232C317.318 90.0512 318.366 91.0609 319.17 92.3507V79.2834H326.433V116.275H319.47V112.48C318.447 114.105 317.284 115.287 315.979 116.022C314.672 116.761 313.047 117.13 311.103 117.13C307.902 117.13 305.21 115.834 303.024 113.247C300.839 110.658 299.745 107.337 299.745 103.283C299.745 98.6074 300.821 94.9308 302.974 92.2506C305.127 89.5699 308.003 88.2301 311.606 88.2301C313.265 88.2301 314.739 88.5947 316.029 89.3232Z" fill="white"/>
<path d="M23.1887 109.403C21.7655 110.25 20.075 110.673 18.1194 110.673C15.4714 110.673 13.1098 109.729 11.0323 107.84C8.95473 105.951 7.91568 102.732 7.91568 98.1832C7.91568 93.6693 8.87423 90.2871 10.7931 88.0382C12.7113 85.7893 15.162 84.664 18.1435 84.664C19.7018 84.664 21.1175 84.9406 22.3917 85.4943C24.6694 86.4988 26.1012 88.2664 26.6877 90.7959H34.3026C33.8829 87.228 32.2464 84.25 29.3897 81.8631C26.533 79.4756 22.7511 78.2813 18.0429 78.2813C12.6153 78.2813 8.25091 80.0891 4.95032 83.706C1.6503 87.3217 0 92.1283 0 98.1222C0 104.048 1.63535 108.719 4.90087 112.134C8.03298 115.534 12.0541 117.233 16.9624 117.233C19.3367 117.233 21.4079 116.829 23.1887 116.036V109.403Z" fill="white"/>
<path d="M18.113 96.5307V103.3H27.7555V112.943H34.5252V96.5307H18.113Z" fill="white"/>
<path d="M203.592 36.6216H201.745V37.5041H203.592V36.6216Z" fill="white"/>
<path d="M205.22 36.2369C205.082 36.3748 204.999 36.5678 204.971 36.7884H206.599C206.571 36.5402 206.488 36.3472 206.35 36.2369C206.212 36.099 206.019 36.0438 205.799 36.0438C205.551 36.0438 205.358 36.099 205.22 36.2369ZM206.626 35.4096C206.874 35.5199 207.095 35.7129 207.26 35.9335C207.398 36.1542 207.509 36.4024 207.536 36.6781C207.564 36.8436 207.564 37.0918 207.564 37.3951H204.944C204.971 37.7536 205.082 38.0018 205.33 38.1673C205.468 38.25 205.661 38.3052 205.854 38.3052C206.075 38.3052 206.24 38.25 206.378 38.1397C206.461 38.0846 206.516 38.0018 206.571 37.8915H207.536C207.509 38.1121 207.398 38.3328 207.178 38.5534C206.847 38.9119 206.405 39.0774 205.826 39.0774C205.358 39.0774 204.916 38.9395 204.558 38.6361C204.199 38.3328 204.006 37.864 204.006 37.2021C204.006 36.5678 204.172 36.099 204.503 35.7681C204.834 35.4371 205.275 35.2717 205.799 35.2717C206.102 35.2441 206.378 35.2993 206.626 35.4096Z" fill="white"/>
<path d="M195.043 36.2369C194.905 36.3748 194.823 36.5678 194.795 36.7884H196.422C196.395 36.5402 196.312 36.3472 196.174 36.2369C196.036 36.099 195.843 36.0438 195.622 36.0438C195.347 36.0438 195.181 36.099 195.043 36.2369ZM196.45 35.4096C196.698 35.5199 196.919 35.7129 197.084 35.9335C197.222 36.1542 197.332 36.4024 197.36 36.6781C197.387 36.8436 197.387 37.0918 197.387 37.3951H194.768C194.795 37.7536 194.905 38.0018 195.154 38.1673C195.292 38.25 195.485 38.3052 195.678 38.3052C195.898 38.3052 196.064 38.25 196.202 38.1397C196.284 38.0846 196.339 38.0018 196.395 37.8915H197.36C197.332 38.1121 197.222 38.3328 197.001 38.5534C196.67 38.9119 196.229 39.0774 195.65 39.0774C195.181 39.0774 194.74 38.9395 194.382 38.6361C194.023 38.3328 193.83 37.864 193.83 37.2021C193.83 36.5678 193.995 36.099 194.326 35.7681C194.657 35.4371 195.099 35.2717 195.622 35.2717C195.898 35.2441 196.202 35.2993 196.45 35.4096Z" fill="white"/>
<path d="M191.266 36.2369C191.128 36.3748 191.045 36.5678 191.017 36.7884H192.644C192.617 36.5402 192.534 36.3472 192.396 36.2369C192.258 36.099 192.065 36.0438 191.845 36.0438C191.596 36.0438 191.403 36.099 191.266 36.2369ZM192.672 35.4096C192.92 35.5199 193.141 35.7129 193.306 35.9335C193.444 36.1542 193.554 36.4024 193.582 36.6781C193.61 36.8436 193.61 37.0918 193.61 37.3951H190.99C191.017 37.7536 191.128 38.0018 191.376 38.1673C191.514 38.25 191.707 38.3052 191.9 38.3052C192.12 38.3052 192.286 38.25 192.424 38.1397C192.507 38.0846 192.562 38.0018 192.617 37.8915H193.582C193.554 38.1121 193.444 38.3328 193.224 38.5534C192.893 38.9119 192.451 39.0774 191.872 39.0774C191.403 39.0774 190.962 38.9395 190.604 38.6361C190.245 38.3328 190.052 37.864 190.052 37.2021C190.052 36.5678 190.218 36.099 190.549 35.7681C190.879 35.4371 191.321 35.2717 191.845 35.2717C192.148 35.2441 192.424 35.2993 192.672 35.4096Z" fill="white"/>
<path d="M200.78 35.547C201.028 35.74 201.138 36.071 201.138 36.5122V38.939H200.173V36.7328C200.173 36.5398 200.145 36.4019 200.09 36.2916C200.007 36.0986 199.814 36.0158 199.566 36.0158C199.263 36.0158 199.042 36.1537 198.904 36.4295C198.849 36.5674 198.822 36.7604 198.822 36.981V38.939H197.884V35.3264H198.794V35.8504C198.904 35.6573 199.042 35.5194 199.125 35.4643C199.318 35.3264 199.566 35.2437 199.87 35.2437C200.228 35.2712 200.531 35.354 200.78 35.547Z" fill="white"/>
<path d="M189.666 35.2712C189.666 35.2712 189.694 35.2712 189.749 35.2712V36.2364C189.694 36.2364 189.639 36.2364 189.583 36.2089C189.528 36.2089 189.501 36.2089 189.473 36.2089C189.087 36.2089 188.839 36.3192 188.701 36.5674C188.618 36.7053 188.591 36.9259 188.591 37.2016V38.939H187.653V35.3264H188.536V35.9607C188.673 35.7125 188.811 35.547 188.922 35.4643C189.087 35.3264 189.335 35.2437 189.611 35.2437C189.639 35.2712 189.666 35.2712 189.666 35.2712Z" fill="white"/>
<path d="M185.751 35.6029C185.668 35.272 185.475 35.0238 185.171 34.9134C185.006 34.8307 184.813 34.8031 184.62 34.8031C184.234 34.8031 183.903 34.941 183.655 35.2444C183.406 35.5477 183.269 35.989 183.269 36.5681C183.269 37.1748 183.406 37.5884 183.682 37.8366C183.958 38.0848 184.261 38.2227 184.62 38.2227C184.951 38.2227 185.254 38.1124 185.475 37.9194C185.695 37.7263 185.833 37.4781 185.888 37.1472H184.758V36.3199H186.798V38.9397H186.137L186.026 38.333C185.833 38.5537 185.64 38.7191 185.502 38.8294C185.227 38.9949 184.896 39.0776 184.51 39.0776C183.875 39.0776 183.324 38.857 182.91 38.4158C182.469 37.9745 182.276 37.3403 182.276 36.5681C182.276 35.7683 182.496 35.1341 182.938 34.6652C183.379 34.1964 183.958 33.9482 184.675 33.9482C185.309 33.9482 185.806 34.1137 186.164 34.4171C186.55 34.7204 186.743 35.1341 186.826 35.6029H185.751Z" fill="white"/>
<path d="M206.93 15.3897L206.682 13.8454L201.525 14.6727C201.663 15.1691 201.745 15.6931 201.773 16.217L206.93 15.3897ZM200.505 12.6044L204.476 9.12965L203.428 7.94382L199.457 11.4186C199.87 11.7771 200.201 12.1632 200.505 12.6044ZM197.747 10.3155L199.346 5.21365L197.83 4.74484L196.258 9.81909C196.782 9.92939 197.278 10.0949 197.747 10.3155ZM193.638 9.81909L192.121 4.85515L190.604 5.32396L192.121 10.3155C192.59 10.0949 193.114 9.92939 193.638 9.81909ZM190.384 11.4186L186.44 7.88867L185.392 9.07449L189.336 12.6044C189.639 12.1632 189.998 11.7771 190.384 11.4186ZM188.37 14.59L183.296 13.8178L183.048 15.3897L188.067 16.1619C188.122 15.5828 188.233 15.0864 188.37 14.59ZM201.745 28.3511C203.676 26.8068 204.338 24.2972 204.476 21.3189C201.525 21.4843 199.732 22.2565 198.326 23.139C197.664 23.5526 197.002 24.0766 196.368 24.7936L196.34 22.6426C198.409 22.1462 199.898 20.4364 200.477 18.7817H197.692C197.25 19.4988 196.368 20.2985 194.906 20.2985C193.5 20.2985 192.369 19.2506 191.956 17.9544H200.67C200.725 17.5408 200.808 17.1271 200.808 16.7134C200.808 13.5696 198.243 10.7843 195.044 10.7843C191.68 10.7843 189.087 13.5696 189.087 16.8789C189.087 19.7745 191.156 22.1186 193.914 22.6977L193.886 30.1712C186.909 29.6197 181.421 23.8008 181.421 16.6859C181.421 9.21238 187.488 3.14535 194.961 3.14535C202.435 3.14535 208.502 9.21238 208.502 16.6859C208.502 21.9807 205.772 26.3104 201.415 28.7096L201.745 28.3511ZM198.078 15.7206C197.829 14.2866 196.616 13.1284 195.017 13.1284C193.472 13.1284 192.204 14.3418 191.9 15.7206H198.078ZM196.451 29.2336V27.7444C197.085 26.2001 198.216 25.2624 199.319 24.573C200.256 23.9939 201.332 23.6354 202.49 23.3872C202.187 24.766 201.663 26.0622 200.505 27.1377C199.512 28.0202 198.822 28.5717 196.451 29.2336ZM194.934 31.2467C186.854 31.2467 180.318 24.7109 180.318 16.6307C180.318 8.55052 186.854 2.01467 194.934 2.01467C203.014 2.01467 209.55 8.55052 209.55 16.6307C209.55 24.6833 203.014 31.2467 194.934 31.2467ZM194.934 0.80127C186.164 0.80127 179.077 7.91624 179.077 16.6583C179.077 25.4279 186.192 32.5153 194.934 32.5153C203.676 32.5153 210.791 25.4003 210.791 16.6583C210.791 7.91624 203.703 0.80127 194.934 0.80127Z" fill="white"/>
<path d="M207.371 30.7505C207.371 30.1163 207.923 29.5923 208.612 29.5923C209.301 29.5923 209.853 30.1163 209.853 30.7505C209.853 31.3848 209.301 31.9088 208.612 31.9088C207.923 31.9088 207.371 31.3848 207.371 30.7505Z" stroke="white" stroke-width="0.4983"/>
<path d="M208.281 30.7503H208.667C208.75 30.7503 208.805 30.7503 208.86 30.7228C208.915 30.6952 208.943 30.6676 208.97 30.64C208.998 30.6124 208.998 30.5573 208.998 30.5297C208.998 30.4745 208.97 30.4194 208.915 30.3642C208.86 30.309 208.805 30.309 208.695 30.309H208.253V30.7503H208.281ZM208.088 31.5226V30.1436H208.695C208.805 30.1436 208.915 30.1436 208.97 30.1711C209.026 30.1987 209.081 30.2263 209.136 30.309C209.164 30.3642 209.191 30.4469 209.191 30.5297C209.191 30.64 209.164 30.7228 209.108 30.7779C209.053 30.8331 208.943 30.8882 208.805 30.9158C208.86 30.9434 208.888 30.971 208.915 30.971C208.97 31.0261 209.026 31.0813 209.053 31.164L209.301 31.5502H209.081L208.888 31.2744C208.833 31.1916 208.777 31.1365 208.75 31.0813C208.722 31.0261 208.695 30.9986 208.667 30.9986C208.64 30.971 208.612 30.971 208.584 30.971C208.557 30.971 208.529 30.971 208.474 30.971H208.253V31.5778H208.088V31.5226Z" fill="white"/>
<path d="M308.662 19.1383C308.083 19.5795 307.201 19.9104 302.733 20.4895C300.968 20.7377 298.155 21.2617 298.155 23.9643C298.155 26.2807 299.341 27.6872 302.044 27.6872C305.381 27.6872 308.662 25.5362 308.662 22.6681V19.1383ZM295.536 15.1947C295.701 10.093 299.093 8.10742 304.36 8.10742C306.07 8.10742 312.275 8.60381 312.275 14.0641V26.3083C312.275 27.2184 312.716 27.5769 313.461 27.5769C313.792 27.5769 314.233 27.4941 314.647 27.4114V30.0312C314.04 30.1967 313.516 30.4449 312.689 30.4449C309.517 30.4449 309.021 28.8178 308.883 27.1908C307.504 28.7075 305.326 30.6655 301.161 30.6655C297.245 30.6655 294.46 28.1836 294.46 24.5158C294.46 22.7233 294.984 18.5592 300.941 17.8146L306.87 17.07C307.725 16.9873 308.745 16.6563 308.745 14.5329C308.745 12.2991 307.118 11.0582 303.726 11.0582C299.645 11.0582 299.065 13.5401 298.817 15.1672H295.536V15.1947Z" fill="white"/>
<path d="M340.817 17.6782C340.624 14.3689 339.218 11.3078 334.861 11.3078C331.551 11.3078 328.932 14.3689 328.932 17.6782H340.817ZM344.237 23.3316C344.127 24.3519 343.134 27.3578 340.431 29.1779C339.438 29.8398 338.06 30.6395 334.64 30.6395C328.656 30.6395 325.098 26.1169 325.098 19.9395C325.098 13.321 328.27 8.05371 335.329 8.05371C341.479 8.05371 344.513 12.9625 344.513 20.4911H328.932C328.932 24.931 331 27.4957 335.136 27.4957C338.528 27.4957 340.514 24.8759 340.652 23.304H344.237V23.3316Z" fill="white"/>
<path d="M263.049 8.688H266.441V11.694H266.524C267.296 10.5633 269.144 8.05371 272.977 8.05371C276.81 8.05371 278.024 10.3702 278.658 11.5285C280.45 9.5429 281.885 8.05371 285.194 8.05371C287.483 8.05371 291.812 9.23955 291.812 15.2239V30.0055H288.227V16.2167C288.227 13.2659 287.317 11.2803 284.256 11.2803C281.25 11.2803 279.237 14.1484 279.237 16.9888V30.0055H275.652V15.279C275.652 13.4865 274.963 11.3079 272.315 11.3079C270.274 11.3079 266.689 12.604 266.689 18.3953V30.033H263.104V8.688H263.049Z" fill="white"/>
<path d="M320.989 11.6655V25.5369C320.989 27.2191 322.423 27.2191 323.14 27.2191H324.409V30.032C323.113 30.1423 322.092 30.3078 321.706 30.3078C318.149 30.3078 317.377 28.2946 317.377 25.73V11.6655H314.481V8.68717H317.377V2.73047H320.962V8.68717H324.381V11.6655H320.989Z" fill="white"/>
<path d="M259.051 30.0314H255.466V8.68646H259.051V30.0314ZM255.466 0.744141H259.051V4.82561H255.466V0.744141Z" fill="white"/>
<path d="M251.412 0.744141H247.827V30.0314H251.412V0.744141Z" fill="white"/>
<path d="M240.767 9.54176C239.664 4.41237 235.39 3.47475 232.577 3.47475C227.282 3.47475 222.98 7.39072 222.98 15.1124C222.98 22.0067 225.434 27.3016 232.687 27.3016C235.252 27.3016 239.692 26.0882 241.043 19.2766H244.876C243.249 30.3351 234.259 30.8315 232.053 30.8315C225.407 30.8315 218.871 26.5018 218.871 15.2503C218.871 6.23247 224 0 232.549 0C240.105 0 244.021 4.68814 244.573 9.59691H240.767V9.54176Z" fill="white"/>
<path d="M131.426 2.24156C134.916 2.24156 137.781 5.10705 137.781 8.59649V30.4806C137.781 33.97 134.916 36.8355 131.426 36.8355H9.94397C6.45456 36.8355 3.58908 33.97 3.58908 30.4806V8.59649C3.58908 5.10705 6.45456 2.24156 9.94397 2.24156H131.426ZM131.426 0H9.94397C5.20669 0 1.34753 3.85917 1.34753 8.59649V30.4806C1.34753 35.2179 5.20669 39.077 9.94397 39.077H131.403C136.141 39.077 140 35.2179 140 30.4806V8.59649C140.023 3.85917 136.164 0 131.426 0Z" fill="white"/>
<path d="M32.3365 11.1391H31.5739C30.0026 11.1391 29.3093 11.5782 28.7085 13.1958L22.1918 30.7123H17.6394L11.1227 12.8954C10.5912 11.3702 9.89797 11.1391 8.62699 11.1391H7.70264V8.6665H19.465V11.1391H17.4083C16.4146 11.1391 15.9756 11.3702 15.9756 11.9017C15.9756 12.4332 16.1373 12.8261 16.2991 13.2652L20.4124 25.3741H20.4818L24.9649 13.2652C25.1728 12.6874 25.2884 12.3639 25.2884 11.9711C25.2884 11.3702 24.6644 11.1391 23.6939 11.1391H21.6603V8.6665H32.2903V11.1391H32.3365Z" fill="white"/>
<path d="M49.7376 8.34191H52.0946V17.4468H49.6451C49.2061 13.8187 47.3574 10.8608 43.3595 10.8608C38.4836 10.8608 37.2357 15.3208 37.2357 19.6652C37.2357 23.9634 38.576 28.5159 43.3595 28.5159C47.1494 28.5159 48.975 25.8583 49.3447 22.3227H52.2102C51.8173 28.123 48.4897 31.3582 42.6663 31.3582C35.6874 31.3582 32.0363 26.4361 32.0363 19.3417C32.0363 13.0792 36.1496 7.97217 43.0822 7.97217C45.2545 7.97217 47.6809 9.01206 49.1367 10.3986L49.7376 8.34191Z" fill="white"/>
<path d="M70.1888 8.66657H72.1069V17.0551H69.7035C68.8947 13.427 66.8149 10.8388 62.8633 10.8388C59.7667 10.8388 58.4958 11.6476 58.4958 13.8429C58.4958 18.8344 73.3316 15.1139 73.3316 24.3805C73.3316 29.6724 69.2183 31.4056 64.5503 31.4056C62.0545 31.4056 59.5588 30.3426 57.6407 28.7712L56.9012 30.7354H54.6366V21.723H57.1092C57.5714 26.183 60.2982 28.5632 65.0124 28.5632C67.9473 28.5632 69.3338 27.1998 69.3338 25.6053C69.3338 19.9205 54.4979 24.2188 54.4979 14.698C54.4979 10.0069 58.7268 8.01953 62.7478 8.01953C65.2666 8.01953 67.3927 9.17497 69.0565 10.3535L70.1888 8.66657Z" fill="white"/>
<path d="M77.3061 23.3612C77.3061 21.1428 76.8439 20.126 74.7872 19.502C76.8439 18.8781 77.3061 17.8151 77.3061 15.6891V9.70393C77.3061 5.68301 79.1317 4.98975 83.8921 4.98975V5.35949C82.0665 5.93721 81.4657 7.18508 81.4657 9.54217V15.1807C81.4657 17.5147 81.0728 18.8781 78.7619 19.4789V19.5483C81.0497 20.1491 81.4657 21.4432 81.4657 23.8927V29.5081C81.4657 31.8421 82.0665 33.1593 83.8921 33.6908V34.0605C79.1317 34.0605 77.3061 33.3673 77.3061 29.3001V23.3612Z" fill="white"/>
<path d="M87.3811 9.03662V9.66056H86.9189C86.7802 9.66056 86.6878 9.70678 86.6878 9.79921C86.6878 9.91476 86.7571 10.0996 86.8033 10.2383L87.5428 12.5723H87.5659L88.3285 10.2383C88.3747 10.0996 88.4441 9.91476 88.4441 9.79921C88.4441 9.70678 88.3747 9.66056 88.2361 9.66056H87.8201V9.03662H89.8768V9.66056H89.715C89.4146 9.66056 89.2991 9.75299 89.1604 10.0996L87.9357 13.7277H86.6647L85.4399 10.0996C85.3244 9.75299 85.2088 9.66056 84.8391 9.66056H84.7004V9.03662H87.3811Z" fill="white"/>
<path d="M95.1226 11.3932C95.1226 12.9415 94.1058 13.889 92.5575 13.889C91.0092 13.889 89.9924 12.9415 89.9924 11.3932C89.9924 9.84492 91.0092 8.89746 92.5575 8.89746C94.1058 8.89746 95.1226 9.84492 95.1226 11.3932ZM91.5176 11.3932C91.5176 12.6411 91.8411 13.2188 92.5575 13.2188C93.2739 13.2188 93.5974 12.6411 93.5974 11.3932C93.5974 10.1453 93.2739 9.56762 92.5575 9.56762C91.8411 9.54451 91.5176 10.1453 91.5176 11.3932Z" fill="white"/>
<path d="M95.2845 13.7277V13.1038H95.7236C95.9085 13.1038 96.0009 12.9882 96.0009 12.8265V9.93786C96.0009 9.75299 95.9085 9.66056 95.7236 9.66056H95.2845V9.03662H98.0576V9.66056H97.6185C97.4337 9.66056 97.3412 9.7761 97.3412 9.93786V13.1038H98.1038C98.9588 13.1038 99.0975 12.5491 99.0975 11.7866H99.7676V13.7277H95.2845Z" fill="white"/>
<path d="M99.6754 9.03662H102.448V9.66056H102.009C101.824 9.66056 101.732 9.7761 101.732 9.93786V12.4336C101.732 12.8958 101.986 13.2193 102.564 13.2193C103.396 13.2193 103.534 12.8496 103.534 11.9714V9.93786C103.534 9.75299 103.442 9.66056 103.257 9.66056H102.841V9.03662H104.99V9.66056H104.574C104.389 9.66056 104.297 9.7761 104.297 9.93786V12.2025C104.297 13.2424 103.742 13.8663 102.425 13.8663C101.177 13.8663 100.415 13.4735 100.415 12.2718V9.91476C100.415 9.72989 100.322 9.63745 100.138 9.63745H99.6985V9.03662H99.6754Z" fill="white"/>
<path d="M109.404 12.2718L109.427 9.93786C109.427 9.75299 109.335 9.66056 109.15 9.66056H108.711V9.03662H110.883V9.66056H110.467C110.282 9.66056 110.19 9.7761 110.19 9.93786V13.7277H108.757L106.793 10.2383H106.769V12.8265C106.769 13.0113 106.862 13.1038 107.047 13.1038H107.486V13.7277H105.291V13.1038H105.73C105.914 13.1038 106.007 12.9882 106.007 12.8265V9.93786C106.007 9.75299 105.914 9.66056 105.73 9.66056H105.291V9.03662H107.578L109.404 12.2718Z" fill="white"/>
<path d="M111.229 10.8391V9.03662H115.944V10.8391H115.297C115.297 10.1227 115.089 9.66056 114.257 9.66056V12.8265C114.257 13.0113 114.349 13.1038 114.534 13.1038H114.95V13.7277H112.2V13.1038H112.639C112.824 13.1038 112.916 12.9882 112.916 12.8265V9.66056C112.108 9.66056 111.876 10.1227 111.876 10.8391H111.229Z" fill="white"/>
<path d="M119.064 9.03662L120.242 12.5723C120.381 13.0113 120.473 13.1038 120.727 13.1038H120.958V13.7277H118.37V13.1038H118.578C118.786 13.1038 118.971 13.0807 118.971 12.9882C118.971 12.9189 118.971 12.8496 118.948 12.734L118.809 12.2256H117.353L117.261 12.5029C117.192 12.7571 117.146 12.8496 117.146 12.9651C117.146 13.0807 117.4 13.1038 117.585 13.1038H117.793V13.7277H115.713V13.1038H115.944C116.198 13.1038 116.29 13.0113 116.429 12.5723L117.608 9.03662H119.064ZM117.585 11.6017H118.601L118.093 10.0765L117.585 11.6017Z" fill="white"/>
<path d="M122.022 9.93786C122.022 9.75299 121.929 9.66056 121.744 9.66056H121.305V9.03662H124.564C125.557 9.03662 126.135 9.42947 126.135 10.1921C126.135 10.8622 125.673 11.1626 125.072 11.2551V11.2782C125.604 11.4168 125.904 11.6017 125.904 12.1794V12.9189C125.904 13.0575 125.95 13.15 126.135 13.15C126.32 13.15 126.366 12.942 126.366 12.7109V12.4105H126.851V12.6416C126.851 13.3348 126.62 13.8432 125.696 13.8432C125.026 13.8432 124.564 13.5197 124.564 12.6878V12.1101C124.564 11.6941 124.494 11.5786 123.917 11.5786H123.339V12.8034C123.339 12.9882 123.431 13.0807 123.616 13.0807H124.055V13.7046H121.305V13.1038H121.744C121.929 13.1038 122.022 12.9882 122.022 12.8265V9.93786ZM123.339 10.9778H124.009C124.541 10.9778 124.795 10.8622 124.795 10.3076C124.795 9.7761 124.494 9.66056 123.847 9.66056H123.339V10.9778Z" fill="white"/>
<path d="M129.532 9.03662V9.66056H129.231C129.093 9.66056 129.023 9.68367 129.023 9.7761C129.023 9.84543 129.093 9.96097 129.139 10.0072L129.763 10.9778L130.387 10.0072C130.433 9.93786 130.502 9.84543 130.502 9.7761C130.502 9.68367 130.433 9.66056 130.294 9.66056H129.994V9.03662H132.028V9.66056H131.889C131.635 9.66056 131.496 9.70677 131.404 9.84543L130.133 11.8328V12.8265C130.133 13.0113 130.225 13.1038 130.41 13.1038H130.895V13.7277H128.03V13.1038H128.492C128.677 13.1038 128.769 12.9882 128.769 12.8265V11.8328L127.637 10.0534C127.452 9.75299 127.337 9.66056 126.944 9.66056H126.805V9.03662H129.532Z" fill="white"/>
<path d="M88.6983 17.4689H89.3454V19.387H88.6752C88.6752 18.6475 88.2824 18.0466 87.4736 18.0466C86.6879 18.0466 86.2489 18.6244 86.2489 19.8723C86.2489 20.9815 86.5262 21.6979 87.5198 21.6979C88.2593 21.6979 88.6521 21.074 88.6521 20.4269H89.3222C89.2991 21.721 88.5366 22.3681 87.2194 22.3681C85.7405 22.3681 84.7238 21.5362 84.7238 19.8723C84.7238 18.3702 85.7636 17.3765 87.127 17.3765C87.4736 17.3765 88.2362 17.5613 88.5366 17.8618L88.6983 17.4689Z" fill="white"/>
<path d="M92.9042 17.5386L94.0828 21.0742C94.2214 21.5133 94.3139 21.6057 94.5681 21.6057H94.7992V22.2296H92.211V21.6057H92.419C92.6269 21.6057 92.8118 21.5826 92.8118 21.4902C92.8118 21.4208 92.8118 21.3515 92.7656 21.236L92.6269 20.7276H91.1942L91.1018 21.0049C91.0324 21.2591 90.9862 21.3515 90.9862 21.4671C90.9862 21.5826 91.2404 21.6057 91.4253 21.6057H91.6333V22.2296H89.5535V21.6057H89.7846C90.0388 21.6057 90.1312 21.5133 90.2698 21.0742L91.4484 17.5386H92.9042ZM91.4022 20.1267H92.419L91.9106 18.6016H91.8875L91.4022 20.1267Z" fill="white"/>
<path d="M95.8391 18.4398C95.8391 18.2549 95.7466 18.1625 95.5618 18.1625H95.1227V17.5386H98.3811C99.3748 17.5386 99.9757 17.9314 99.9757 18.694C99.9757 19.3642 99.5135 19.6646 98.9126 19.757V19.7801C99.4441 19.9188 99.7446 20.1036 99.7446 20.6814V21.4208C99.7446 21.5595 99.7908 21.6519 99.9757 21.6519C100.161 21.6519 100.207 21.4208 100.207 21.2129V20.9356H100.692V21.1666C100.692 21.8599 100.461 22.3914 99.5366 22.3914C98.8664 22.3914 98.4042 22.0679 98.4042 21.236V20.6583C98.4042 20.2423 98.3349 20.1268 97.7571 20.1268H97.1794V21.3515C97.1794 21.5364 97.2719 21.6288 97.4567 21.6288H97.8958V22.2528H95.1458V21.6288H95.5849C95.7697 21.6288 95.8622 21.5133 95.8622 21.3515V18.4398H95.8391ZM97.1794 19.4797H97.8727C98.4042 19.4797 98.6584 19.3642 98.6584 18.8096C98.6584 18.2781 98.358 18.1625 97.7109 18.1625H97.2025V19.4797H97.1794Z" fill="white"/>
<path d="M101.686 18.4398C101.686 18.2549 101.593 18.1625 101.408 18.1625H100.992V17.5386H104.043C105.059 17.5386 105.545 18.0007 105.545 18.6478C105.545 19.2717 105.106 19.6184 104.528 19.757V19.7801C105.129 19.965 105.776 20.1499 105.776 21.0049C105.776 21.9061 105.244 22.2759 103.858 22.2759H100.992V21.6519H101.385C101.57 21.6519 101.662 21.5364 101.662 21.3746V18.4398H101.686ZM103.003 19.4797H103.396C103.881 19.4797 104.228 19.3411 104.228 18.8096C104.228 18.3012 103.881 18.1394 103.396 18.1394H103.003V19.4797ZM103.003 21.6057H103.488C103.996 21.6057 104.389 21.4671 104.389 20.8431C104.389 20.2423 103.996 20.1036 103.488 20.1036H103.003V21.6057Z" fill="white"/>
<path d="M111.276 19.8971C111.276 21.4454 110.259 22.3929 108.711 22.3929C107.163 22.3929 106.146 21.4454 106.146 19.8971C106.146 18.3488 107.163 17.4014 108.711 17.4014C110.259 17.4014 111.276 18.3488 111.276 19.8971ZM107.671 19.8971C107.671 21.145 107.994 21.7227 108.711 21.7227C109.427 21.7227 109.751 21.145 109.751 19.8971C109.751 18.6492 109.427 18.0715 108.711 18.0715C107.994 18.0715 107.671 18.6492 107.671 19.8971Z" fill="white"/>
<path d="M115.574 20.7738L115.597 18.4398C115.597 18.2549 115.505 18.1625 115.32 18.1625H114.881V17.5386H117.053V18.1625H116.637C116.452 18.1625 116.36 18.2781 116.36 18.4398V22.2296H114.927L112.963 18.7402H112.939V21.3284C112.939 21.5133 113.032 21.6057 113.217 21.6057H113.656V22.2296H111.46V21.6057H111.9C112.084 21.6057 112.177 21.4902 112.177 21.3284V18.4398C112.177 18.2549 112.084 18.1625 111.9 18.1625H111.46V17.5386H113.748L115.574 20.7738Z" fill="white"/>
<path d="M88.8372 27.7291H88.1901C88.0746 26.9896 87.4275 26.5736 86.8036 26.5736C86.3876 26.5736 86.0178 26.7123 86.0178 27.1745C86.0178 28.0757 89.0914 27.3593 89.0914 29.3698C89.0914 30.5021 88.1208 30.895 87.1271 30.895C86.5725 30.895 86.041 30.7794 85.5788 30.4559L85.3939 30.8257H84.793V28.977H85.4632C85.5557 29.7164 86.1796 30.2479 87.0116 30.2479C87.3813 30.2479 87.8204 30.04 87.8204 29.6471C87.8204 28.6303 84.7468 29.4622 84.7468 27.4287C84.7468 26.2501 85.8099 25.9497 86.7805 25.9497C87.2658 25.9497 87.7279 26.1115 88.1208 26.3657L88.2364 26.0421H88.8141V27.7291H88.8372Z" fill="white"/>
<path d="M89.3224 27.8455V26.043H94.0364V27.8455H93.3663C93.3663 27.1291 93.1583 26.6669 92.3264 26.6669V29.8328C92.3264 30.0177 92.4189 30.1101 92.6037 30.1101H93.0197V30.734H90.2698V30.1101H90.7089C90.8937 30.1101 90.9862 29.9946 90.9862 29.8328V26.6669C90.1774 26.6669 89.9694 27.1291 89.9694 27.8455H89.3224Z" fill="white"/>
<path d="M97.1566 26.043L98.3352 29.5786C98.4739 30.0177 98.5663 30.1101 98.8205 30.1101H99.0747V30.734H96.4865V30.1101H96.6945C96.9024 30.1101 97.0873 30.087 97.0873 29.9946C97.0873 29.9252 97.0873 29.8559 97.0411 29.7404L96.9024 29.232H95.4466L95.3541 29.5093C95.2848 29.7635 95.2386 29.8559 95.2386 29.9715C95.2386 30.087 95.4928 30.1101 95.6776 30.1101H95.8856V30.734H93.8058V30.1101H94.0369C94.2911 30.1101 94.3835 30.0177 94.5222 29.5786L95.7008 26.043H97.1566ZM95.6776 28.6312H96.6945L96.1861 27.106H96.1629L95.6776 28.6312Z" fill="white"/>
<path d="M103.534 29.2782L103.558 26.9442C103.558 26.7593 103.465 26.6669 103.28 26.6669H102.841V26.043H105.037V26.6669H104.621C104.436 26.6669 104.343 26.7824 104.343 26.9442V30.734H102.911L100.946 27.2446H100.923V29.8328C100.923 30.0177 101.016 30.1101 101.2 30.1101H101.64V30.734H99.4442V30.1101H99.8833C100.068 30.1101 100.161 29.9946 100.161 29.8328V26.9442C100.161 26.7593 100.068 26.6669 99.8833 26.6669H99.4442V26.043H101.732L103.534 29.2782Z" fill="white"/>
<path d="M106.007 26.9442C106.007 26.7593 105.915 26.6669 105.73 26.6669H105.314V26.043H107.879C109.496 26.043 110.536 26.7362 110.536 28.4232C110.536 30.0408 109.52 30.734 107.833 30.734H105.314V30.1101H105.73C105.915 30.1101 106.007 29.9946 106.007 29.8328V26.9442ZM107.324 30.1101H107.648C108.595 30.1101 109.011 29.7866 109.011 28.377C109.011 26.9673 108.595 26.6438 107.648 26.6438H107.324V30.1101Z" fill="white"/>
<path d="M113.887 26.043L115.066 29.5786C115.204 30.0177 115.297 30.1101 115.551 30.1101H115.782V30.734H113.194V30.1101H113.402C113.61 30.1101 113.795 30.087 113.795 29.9946C113.795 29.9252 113.795 29.8559 113.749 29.7404L113.61 29.232H112.154L112.062 29.5093C111.992 29.7635 111.946 29.8559 111.946 29.9715C111.946 30.087 112.2 30.1101 112.385 30.1101H112.593V30.734H110.513V30.1101H110.744C110.999 30.1101 111.091 30.0177 111.23 29.5786L112.408 26.043H113.887ZM112.385 28.6312H113.425L112.917 27.106H112.894L112.385 28.6312Z" fill="white"/>
<path d="M116.822 26.9442C116.822 26.7593 116.73 26.6669 116.545 26.6669H116.106V26.043H119.364C120.358 26.043 120.935 26.4358 120.935 27.1984C120.935 27.8686 120.473 28.169 119.872 28.2614V28.2845C120.404 28.4232 120.704 28.608 120.704 29.1858V29.9252C120.704 30.0639 120.751 30.1563 120.935 30.1563C121.12 30.1563 121.167 29.9483 121.167 29.7173V29.44H121.652V29.671C121.652 30.3643 121.421 30.8727 120.496 30.8727C119.826 30.8727 119.364 30.5492 119.364 29.7173V29.1395C119.364 28.7236 119.295 28.608 118.717 28.608H118.139V29.8328C118.139 30.0177 118.232 30.1101 118.417 30.1101H118.856V30.734H116.106V30.1101H116.545C116.73 30.1101 116.822 29.9946 116.822 29.8328V26.9442ZM118.162 27.9841H118.833C119.364 27.9841 119.618 27.8686 119.618 27.314C119.618 26.7824 119.318 26.6669 118.671 26.6669H118.162V27.9841Z" fill="white"/>
<path d="M122.669 26.9442C122.669 26.7593 122.576 26.6669 122.391 26.6669H121.975V26.043H124.54C126.158 26.043 127.198 26.7362 127.198 28.4232C127.198 30.0408 126.181 30.734 124.494 30.734H121.975V30.1101H122.391C122.576 30.1101 122.669 29.9946 122.669 29.8328V26.9442ZM124.009 30.1101H124.332C125.28 30.1101 125.696 29.7866 125.696 28.377C125.696 26.9673 125.28 26.6438 124.332 26.6438H124.009V30.1101Z" fill="white"/>
</svg>
