<svg width="548" height="51" viewBox="0 0 548 51" fill="none" xmlns="http://www.w3.org/2000/svg">
<g clip-path="url(#clip0_405_263)">
<g clip-path="url(#clip1_405_263)">
<path fill-rule="evenodd" clip-rule="evenodd" d="M0 49.2847H2.13507V12.3362H0V49.2847ZM0 7.17645H2.13507V0.0595703H0V7.17645Z" fill="white"/>
<path fill-rule="evenodd" clip-rule="evenodd" d="M24.7312 43.8284C22.2403 40.9223 21.0541 36.4743 21.0541 30.1877V24.5535H22.5368C33.0935 24.5535 37.3636 27.8154 37.3636 35.7033C37.3636 41.8119 34.5762 45.489 28.8827 46.9124C27.2817 46.2145 25.8616 45.1596 24.7312 43.8284ZM22.952 47.5054H6.93897V24.5535H19.1563V30.1284C19.1563 38.6686 21.2913 44.3621 25.7987 47.3275C24.8332 47.4308 23.8635 47.4902 22.8926 47.5054H22.952ZM6.93897 22.7743H19.1563V1.83876H6.99826L6.93897 22.7743ZM21.0541 1.83876H21.1727C30.8398 1.83876 35.2879 5.15997 35.2879 12.2175C35.2879 19.3344 31.1364 22.8929 22.4775 22.8929H21.0541V1.83876ZM53.3766 30.247C53.3766 36.5336 52.1905 40.9816 49.6403 43.8877C47.0901 46.9717 42.9978 48.4543 37.1857 48.4543C35.3923 48.4719 33.6024 48.2929 31.8481 47.9206C32.9292 47.4862 33.9466 46.9076 34.8727 46.2007C37.8974 43.8877 39.4394 40.3885 39.4394 35.7033C39.4394 27.3409 34.2203 24.4349 29.5944 23.5452C34.5762 21.9439 37.3043 17.9704 37.3043 12.2175C37.3043 7.7695 35.8217 4.56691 32.7377 2.55046C29.2787 0.651303 25.3466 -0.213351 21.41 0.0595399H5.04113V49.2846H23.2485C25.0411 49.2868 26.8294 49.108 28.5862 48.7509C31.3066 49.7179 34.1807 50.1801 37.0671 50.115C49.581 50.115 55.1558 43.947 55.1558 30.069V-0.059082H53.258L53.3766 30.247Z" fill="white"/>
<path fill-rule="evenodd" clip-rule="evenodd" d="M58.4178 49.2849H60.3156V0.0597812H58.4178V49.2849ZM103.788 1.839V0.000488281H68.5V1.77971H85.1061V47.5057H65.3568V0.000488281H63.4589V49.2849H93.2312V47.5057H87.0039V1.839H103.788Z" fill="white"/>
</g>
<path d="M198.332 3.7533V3.73546H200.702V6.10786H201.633V0.797363H200.702V2.91748H198.332V0.797363H197.401V6.10786H198.332V3.7533Z" fill="white"/>
<path d="M216.911 3.49487C216.93 3.1372 216.876 2.77947 216.752 2.44327C216.629 2.10706 216.439 1.79936 216.193 1.53871C215.948 1.27807 215.652 1.0699 215.324 0.926751C214.995 0.783607 214.642 0.70846 214.284 0.705845C213.922 0.694755 213.562 0.757255 213.225 0.889559C212.888 1.02186 212.581 1.22122 212.323 1.47555C212.066 1.72987 211.862 2.03388 211.725 2.36916C211.589 2.70443 211.521 3.064 211.528 3.42607C211.512 3.78537 211.569 4.14408 211.696 4.48064C211.823 4.81719 212.016 5.12463 212.265 5.38446C212.513 5.64429 212.812 5.85114 213.142 5.99257C213.473 6.13401 213.829 6.2071 214.188 6.20745C214.549 6.2252 214.91 6.16728 215.248 6.03739C215.586 5.90751 215.892 5.70852 216.149 5.45317C216.405 5.19782 216.605 4.89174 216.737 4.55453C216.868 4.21731 216.927 3.85639 216.911 3.49487ZM215.919 3.57769C215.938 3.80079 215.91 4.02543 215.838 4.2373C215.766 4.44917 215.65 4.64364 215.498 4.80831C215.347 4.97299 215.162 5.10427 214.957 5.19379C214.752 5.28332 214.53 5.32913 214.307 5.32832C214.056 5.32071 213.809 5.26172 213.581 5.155C213.354 5.04827 213.151 4.89607 212.985 4.70779C212.819 4.51951 212.693 4.29914 212.615 4.06029C212.537 3.82144 212.509 3.56917 212.532 3.31905C212.514 3.09391 212.543 2.86745 212.617 2.65409C212.691 2.44074 212.809 2.24517 212.963 2.07986C213.117 1.91456 213.303 1.78314 213.511 1.69398C213.718 1.60483 213.942 1.55989 214.168 1.56205C214.416 1.57786 214.658 1.64273 214.88 1.7529C215.103 1.86307 215.301 2.01635 215.464 2.20385C215.627 2.39135 215.751 2.60933 215.829 2.84517C215.907 3.081 215.938 3.32999 215.919 3.57769Z" fill="white"/>
<path d="M227.546 1.63683V6.10768H228.477V1.63683H230.208V0.818848H225.823V1.63683H227.546Z" fill="white"/>
<path d="M240.766 5.27441V3.73529H242.61V2.91731H240.766V1.63683H242.786V0.818848H239.835V6.09239H243.028L243.188 5.27441H240.768H240.766Z" fill="white"/>
<path d="M255.987 5.27459H253.734V0.797363H252.803V6.09257H255.835L255.987 5.27459Z" fill="white"/>
<path d="M149.704 15.748H148.852L135.939 30.8883V15.748H134.499V44.0651H135.939V32.2924L138.713 29.074L152.122 44.0116L152.169 44.0651H154.078L139.719 28.0266L149.704 15.748Z" fill="white"/>
<path d="M162.799 16.3902H166.991V43.423H162.799V44.0651H172.623V43.423H168.431V16.3902H172.623V15.748H162.799V16.3902Z" fill="white"/>
<path d="M201.953 42.3502L185.18 15.8232L185.133 15.748H183.764V44.0651H184.406V17.2196L201.978 44.7901L202.026 44.864H202.594V15.748H201.953V42.3502Z" fill="white"/>
<path d="M260.715 43.423H247.162V15.748H245.721V44.0651H261.357V37.2346H260.715V43.423Z" fill="white"/>
<path d="M288.644 43.423H274.023V29.4091H283.164V28.7682H274.023V16.3902H287.208V22.5798H287.85V15.748H272.583V44.0651H289.286V36.316H288.644V43.423Z" fill="white"/>
<path d="M317.838 15.748L308.714 31.5203L299.793 15.8296L299.746 15.748H298.059L307.713 32.6453L307.673 43.9046V44.0651H309.153V32.0872L318.61 15.748H317.838Z" fill="white"/>
<path d="M232.569 31.4961C230.544 29.7394 228.128 28.4946 225.523 27.8661L224.886 27.6572C223.029 27.1271 221.267 26.3071 219.665 25.2275C219.046 24.7922 218.539 24.2162 218.186 23.5469C217.87 22.8843 217.712 22.1571 217.726 21.423C217.725 20.6581 217.929 19.9069 218.315 19.2468C218.731 18.5386 219.288 17.9233 219.951 17.4388C220.965 16.6404 222.161 16.1061 223.433 15.8837C224.704 15.6614 226.01 15.7579 227.235 16.1647C228.044 16.4188 228.819 16.7683 229.545 17.2057C230.073 17.5205 230.556 17.9064 230.979 18.3524C231.327 18.7422 231.556 19.0085 231.68 19.164L231.768 19.2761L232.965 18.546L232.846 18.4033C232.575 18.0971 232.281 17.8106 231.969 17.5458C231.437 17.0973 230.848 16.7204 230.218 16.4246C229.37 16.0192 228.484 15.7003 227.572 15.4729C225.969 15.0457 224.284 15.0321 222.674 15.4331C221.064 15.8342 219.582 16.6369 218.367 17.7663C217.712 18.3457 217.212 19.0793 216.913 19.9007C216.613 20.722 216.523 21.6052 216.65 22.4703C216.934 23.6837 217.495 24.8151 218.287 25.7764C219.08 26.7377 220.084 27.503 221.221 28.0127C222.461 28.5821 223.737 29.0686 225.042 29.469C227.329 30.0517 229.473 31.0977 231.34 32.5421C231.992 33.1031 232.506 33.8068 232.843 34.5985C233.145 35.3628 233.298 36.1782 233.292 37.0002C233.296 37.9874 233.093 38.9645 232.696 39.8683C232.296 40.7657 231.704 41.5645 230.963 42.2088C230.143 42.9069 229.196 43.4392 228.174 43.776C227.313 44.0723 226.415 44.246 225.507 44.292C225.073 44.3142 224.639 44.3078 224.206 44.2729C222.447 44.1024 220.741 43.5767 219.191 42.7274C218.446 42.3354 217.732 41.8864 217.056 41.3844C216.747 41.1622 216.455 40.9155 216.185 40.6467L216.147 40.606C215.599 40.0275 215.581 40.0084 215.453 40.1052L215.255 40.253C215.021 40.4263 214.787 40.5996 214.55 40.7703L214.388 40.8863L214.537 41.0137C215.142 41.5557 215.788 42.0506 216.469 42.4942C218.915 44.0855 221.767 44.9395 224.685 44.9545C225.989 44.963 227.285 44.7599 228.524 44.3531C229.697 43.9764 230.793 43.3931 231.761 42.6305C232.639 41.9309 233.361 41.0561 233.882 40.0619C234.387 39.0897 234.649 38.0094 234.646 36.9136C234.648 35.9291 234.488 34.951 234.171 34.0188C233.836 33.0668 233.288 32.2039 232.569 31.4961Z" fill="white"/>
<g clip-path="url(#clip2_405_263)">
<path d="M349.32 15.2116V30.4233L377.848 14.5021V0L349.32 15.2116Z" fill="white"/>
<path d="M377.9 29.1252V14.502L390.864 21.5973V36.0821L377.9 29.1252Z" fill="white"/>
<path d="M364.85 50.4119L377.9 43.455V29.126L364.919 35.9271L364.85 50.4119Z" fill="white"/>
<path d="M403.828 15.9038H416.999V19.1746H407.667V23.4317H415.863V26.6679H407.667V34.4554H403.828V15.9038Z" fill="white"/>
<path d="M422.904 19.071H419.271V15.7656H422.904V19.071ZM419.271 20.715H422.904V34.4557H419.271V20.715Z" fill="white"/>
<path d="M430.015 34.4554H426.434V15.8691H430.015V34.4554Z" fill="white"/>
<path d="M442.393 20.9917C443.36 21.4286 444.179 22.138 444.752 23.0338C445.333 23.8813 445.71 24.8528 445.854 25.8719C445.952 26.774 445.986 27.6819 445.957 28.5889H436.006C436.075 29.9733 436.54 30.9424 437.435 31.4962C438.032 31.8555 438.719 32.0356 439.415 32.0154C439.975 32.0538 440.533 31.9226 441.018 31.6388C441.503 31.355 441.892 30.9316 442.135 30.4233H445.785C445.682 31.2539 445.234 32.0673 444.459 32.9153C443.237 34.2478 441.515 34.9227 439.312 34.9227C437.556 34.9441 435.85 34.3437 434.491 33.2268C433.114 32.1019 432.408 30.2675 432.408 27.7236C432.408 25.1797 433.045 23.5183 434.302 22.255C435.558 20.9917 437.177 20.3514 439.191 20.3514C440.292 20.3311 441.384 20.5495 442.393 20.9917ZM437.056 24.0894C436.54 24.6259 436.23 25.3354 436.092 26.218H442.256C442.187 25.2662 441.877 24.5394 441.309 24.0548C440.721 23.5481 439.965 23.2825 439.191 23.3107C438.261 23.3107 437.556 23.5702 437.056 24.0894Z" fill="white"/>
<path d="M450.847 28.7102C450.967 29.5582 451.191 30.1985 451.553 30.6139C452.19 31.3926 453.291 31.7733 454.841 31.7733C455.605 31.7983 456.367 31.693 457.096 31.4618C458.198 31.0811 458.749 30.3543 458.749 29.3159C458.758 29.0251 458.687 28.7374 458.544 28.4841C458.402 28.2309 458.193 28.0218 457.94 27.8796C457.406 27.5508 456.545 27.2739 455.375 27.0143L453.378 26.5817C451.415 26.1317 450.055 25.6645 449.332 25.1453C448.075 24.2973 447.455 22.9475 447.455 21.1304C447.44 20.3488 447.596 19.5734 447.911 18.8588C448.226 18.1442 448.694 17.5078 449.28 16.9943C450.497 15.8868 452.287 15.333 454.652 15.333C456.631 15.333 458.301 15.8522 459.696 16.8905C461.091 17.9288 461.814 19.4344 461.883 21.4073H458.181C458.112 20.2997 457.613 19.5037 456.683 19.0364C455.967 18.7033 455.182 18.5433 454.393 18.5692C453.36 18.5692 452.551 18.7595 451.949 19.1749C451.66 19.3461 451.423 19.5925 451.262 19.8879C451.102 20.1834 451.024 20.517 451.036 20.8535C451.026 21.1621 451.105 21.4671 451.264 21.7314C451.423 21.9956 451.655 22.2077 451.931 22.3418C452.31 22.5668 453.137 22.809 454.393 23.1032L457.63 23.882C459.042 24.2166 460.109 24.6665 460.832 25.2318C461.917 26.0971 462.468 27.3604 462.468 29.0217C462.485 29.828 462.318 30.6276 461.981 31.3593C461.644 32.0911 461.145 32.7359 460.522 33.2443C459.214 34.3692 457.372 34.923 454.996 34.923C452.62 34.923 450.64 34.3865 449.246 33.2789C447.851 32.1714 447.162 30.6485 447.162 28.7102H450.847Z" fill="white"/>
<path d="M473.073 25.6471C473.014 25.1507 472.837 24.6758 472.557 24.2627C472.144 23.7089 471.524 23.432 470.68 23.432C469.475 23.432 468.649 24.0204 468.201 25.2318C467.948 26.049 467.831 26.9028 467.857 27.7584C467.832 28.5856 467.948 29.4109 468.201 30.1985C468.631 31.3407 469.441 31.9118 470.611 31.9118C471.455 31.9118 472.058 31.6868 472.402 31.2195C472.777 30.704 472.998 30.0917 473.039 29.4544H476.689C476.59 30.5808 476.185 31.6583 475.518 32.5694C474.399 34.1269 472.729 34.9229 470.525 34.9229C468.322 34.9229 466.703 34.2653 465.67 32.9501C464.637 31.6349 464.121 29.9389 464.121 27.8623C464.121 25.4914 464.689 23.657 465.842 22.3591C466.996 21.0611 468.563 20.3862 470.577 20.3862C472.299 20.3862 473.693 20.767 474.795 21.5457C475.897 22.3245 476.534 23.6916 476.723 25.6471H473.073Z" fill="white"/>
<path d="M482.852 19.071H479.22V15.7656H482.852V19.071ZM479.22 20.715H482.852V34.4557H479.22V20.715Z" fill="white"/>
<path d="M495.214 20.9917C496.178 21.4328 496.996 22.1413 497.573 23.0338C498.155 23.8789 498.527 24.8522 498.657 25.8719C498.771 26.7727 498.812 27.6815 498.778 28.5889H488.827C488.878 29.9734 489.36 30.9425 490.256 31.4963C490.847 31.8532 491.528 32.0333 492.218 32.0154C492.938 32.0431 493.645 31.8166 494.215 31.3751C494.521 31.1135 494.768 30.7889 494.938 30.4233H498.588C498.502 31.254 498.055 32.0673 497.263 32.9153C496.04 34.2478 494.336 34.9228 492.132 34.9228C490.377 34.9442 488.67 34.3437 487.312 33.2268C485.917 32.1019 485.228 30.2676 485.228 27.7236C485.228 25.1797 485.848 23.5184 487.105 22.2551C488.362 20.9917 489.997 20.3514 491.994 20.3514C493.101 20.3308 494.199 20.5491 495.214 20.9917ZM489.86 24.0894C489.36 24.6259 489.05 25.3355 488.913 26.218H495.076C495.007 25.2662 494.68 24.5394 494.112 24.0548C493.524 23.5482 492.768 23.2825 491.994 23.3107C491.082 23.3107 490.376 23.5703 489.86 24.0894Z" fill="white"/>
<path d="M511.604 21.5111C512.499 22.261 512.947 23.4897 512.947 25.1972V34.4557H509.28V26.0971C509.28 25.3702 509.194 24.8165 509.004 24.4357C508.643 23.7262 507.989 23.3801 507.007 23.3801C506.026 23.3801 504.976 23.8993 504.528 24.9203C504.281 25.5897 504.164 26.3006 504.184 27.0143V34.4557H500.603V20.7496H504.063V22.7398C504.528 22.0476 504.959 21.5284 505.372 21.2169C506.095 20.6631 507.025 20.3862 508.161 20.3862C509.555 20.3862 510.709 20.767 511.604 21.5111Z" fill="white"/>
<path d="M524.448 25.6471C524.389 25.1507 524.212 24.6758 523.931 24.2627C523.518 23.7089 522.898 23.432 522.055 23.432C520.85 23.432 520.023 24.0204 519.576 25.2318C519.322 26.049 519.206 26.9028 519.231 27.7584C519.206 28.5856 519.323 29.4109 519.576 30.1985C520.006 31.3407 520.815 31.9118 521.986 31.9118C522.829 31.9118 523.432 31.6868 523.776 31.2195C524.151 30.704 524.372 30.0917 524.413 29.4544H528.063C527.964 30.5808 527.559 31.6583 526.893 32.5694C525.756 34.1269 524.103 34.9229 521.9 34.9229C519.696 34.9229 518.078 34.2653 517.045 32.9501C516.012 31.6349 515.495 29.9389 515.495 27.8623C515.495 25.4914 516.063 23.657 517.217 22.3591C518.37 21.0611 519.937 20.3862 521.951 20.3862C523.673 20.3862 525.068 20.767 526.169 21.5457C527.271 22.3245 527.908 23.6916 528.098 25.6471H524.448Z" fill="white"/>
<path d="M539.443 20.9917C540.415 21.4275 541.24 22.1368 541.819 23.0338C542.388 23.8862 542.758 24.8561 542.904 25.8719C543.009 26.7734 543.05 27.6815 543.025 28.5889H533.073C533.125 29.9733 533.607 30.9424 534.502 31.4962C535.092 31.8577 535.774 32.0382 536.465 32.0154C537.179 32.0434 537.881 31.8166 538.445 31.3751C538.756 31.1145 539.009 30.79 539.185 30.4233H542.835C542.732 31.2539 542.301 32.0673 541.509 32.9153C540.287 34.2478 538.565 34.9227 536.362 34.9227C534.612 34.94 532.913 34.3399 531.558 33.2268C530.164 32.1019 529.475 30.2675 529.475 27.7236C529.475 25.1797 530.095 23.5183 531.352 22.255C532.608 20.9917 534.244 20.3514 536.241 20.3514C537.342 20.3311 538.434 20.5495 539.443 20.9917ZM534.106 24.0894C533.576 24.6813 533.245 25.4261 533.159 26.218H539.306C539.237 25.2662 538.927 24.5394 538.359 24.0548C537.771 23.5481 537.015 23.2825 536.241 23.3107C535.329 23.3107 534.606 23.5702 534.106 24.0894Z" fill="white"/>
</g>
</g>
<defs>
<clipPath id="clip0_405_263">
<rect width="548" height="50.4113" fill="white"/>
</clipPath>
<clipPath id="clip1_405_263">
<rect width="103.788" height="50.2333" fill="white"/>
</clipPath>
<clipPath id="clip2_405_263">
<rect width="198.68" height="50.4113" fill="white" transform="translate(349.32)"/>
</clipPath>
</defs>
</svg>
