<svg width="171" height="176" viewBox="0 0 171 176" fill="none" xmlns="http://www.w3.org/2000/svg">
<g clip-path="url(#clip0_484_41155)">
<g clip-path="url(#clip1_484_41155)">
<path fill-rule="evenodd" clip-rule="evenodd" d="M81.2229 42.1852H83.0504V10.559H81.2229V42.1852ZM81.2229 6.1425H83.0504V0.0507812H81.2229V6.1425Z" fill="white"/>
<path fill-rule="evenodd" clip-rule="evenodd" d="M102.392 37.5153C100.26 35.0279 99.2443 31.2205 99.2443 25.8395V21.0169H100.513C109.549 21.0169 113.205 23.8089 113.205 30.5606C113.205 35.7893 110.819 38.9367 105.945 40.1551C104.575 39.5578 103.359 38.6548 102.392 37.5153ZM100.869 40.6627H87.1624V21.0169H97.6199V25.7888C97.6199 33.0988 99.4474 37.9722 103.305 40.5104C102.479 40.5989 101.649 40.6497 100.818 40.6627H100.869ZM87.1624 19.494H97.6199V1.57417H87.2132L87.1624 19.494ZM99.2443 1.57417H99.3459C107.62 1.57417 111.428 4.41698 111.428 10.4579C111.428 16.5497 107.874 19.5955 100.463 19.5955H99.2443V1.57417ZM126.911 25.8903C126.911 31.2713 125.896 35.0787 123.713 37.5661C121.53 40.2059 118.027 41.4749 113.052 41.4749C111.517 41.49 109.985 41.3368 108.483 41.0181C109.409 40.6463 110.28 40.151 111.072 39.5459C113.661 37.5661 114.981 34.571 114.981 30.5606C114.981 23.4028 110.514 20.9154 106.554 20.1539C110.819 18.7833 113.154 15.3821 113.154 10.4579C113.154 6.65061 111.885 3.90934 109.245 2.18335C106.284 0.557763 102.918 -0.18234 99.5489 0.0512419H85.538V42.1856H101.123C102.657 42.1875 104.188 42.0344 105.691 41.7288C108.02 42.5564 110.48 42.9522 112.951 42.8964C123.662 42.8964 128.434 37.6168 128.434 25.738V-0.050293H126.809L126.911 25.8903Z" fill="white"/>
<path fill-rule="evenodd" clip-rule="evenodd" d="M131.226 42.1856H132.85V0.0512402H131.226V42.1856ZM170.061 1.57417V0.000488281H139.856V1.52342H154.07V40.6627H137.165V0.000488281H135.541V42.1856H161.025V40.6627H155.694V1.57417H170.061Z" fill="white"/>
</g>
<g clip-path="url(#clip2_484_41155)">
<path d="M66.2035 71.5917V71.5764H68.2323V73.6071H69.0292V69.0615H68.2323V70.8762H66.2035V69.0615H65.4066V73.6071H66.2035V71.5917Z" fill="white"/>
<path d="M82.1065 71.3708C82.1224 71.0646 82.0762 70.7584 81.9705 70.4706C81.8649 70.1829 81.7021 69.9195 81.4919 69.6964C81.2817 69.4733 81.0286 69.2951 80.7477 69.1726C80.4668 69.0501 80.164 68.9857 79.8575 68.9835C79.5478 68.974 79.2394 69.0275 78.951 69.1407C78.6626 69.254 78.4002 69.4246 78.1796 69.6423C77.959 69.86 77.7849 70.1202 77.6679 70.4072C77.5508 70.6942 77.4931 71.002 77.4984 71.3119C77.4852 71.6194 77.5343 71.9265 77.6428 72.2145C77.7512 72.5026 77.9168 72.7658 78.1295 72.9882C78.3423 73.2106 78.5978 73.3876 78.8807 73.5087C79.1636 73.6298 79.4681 73.6923 79.7758 73.6926C80.085 73.7078 80.394 73.6582 80.683 73.5471C80.972 73.4359 81.2346 73.2656 81.4541 73.047C81.6735 72.8284 81.8448 72.5664 81.9572 72.2778C82.0695 71.9891 82.1204 71.6802 82.1065 71.3708ZM81.2573 71.4417C81.2736 71.6326 81.25 71.8249 81.188 72.0063C81.126 72.1876 81.027 72.3541 80.8972 72.495C80.7673 72.636 80.6096 72.7483 80.434 72.825C80.2584 72.9016 80.0687 72.9408 79.8771 72.9401C79.6623 72.9336 79.4511 72.8831 79.2565 72.7918C79.0619 72.7004 78.8881 72.5701 78.7458 72.409C78.6035 72.2478 78.4957 72.0592 78.4291 71.8547C78.3625 71.6503 78.3385 71.4344 78.3586 71.2203C78.343 71.0276 78.3677 70.8337 78.4311 70.6511C78.4945 70.4685 78.5953 70.3011 78.727 70.1596C78.8587 70.0181 79.0184 69.9056 79.196 69.8293C79.3736 69.753 79.5651 69.7145 79.7583 69.7164C79.9704 69.7299 80.1778 69.7854 80.3683 69.8797C80.5588 69.974 80.7287 70.1052 80.8681 70.2657C81.0076 70.4262 81.1137 70.6128 81.1806 70.8147C81.2474 71.0165 81.2734 71.2296 81.2573 71.4417Z" fill="white"/>
<path d="M91.2093 69.7802V73.6071H92.0062V69.7802H93.4877V69.0801H89.7344V69.7802H91.2093Z" fill="white"/>
<path d="M102.525 72.8938V71.5764H104.103V70.8763H102.525V69.7802H104.254V69.0801H101.728V73.594H104.461L104.598 72.8938H102.527H102.525Z" fill="white"/>
<path d="M115.553 72.8938H113.625V69.0615H112.828V73.594H115.424L115.553 72.8938Z" fill="white"/>
<path d="M24.5807 81.8589H23.8514L12.7984 94.8182V81.8589H11.5654V106.097H12.7984V96.0201L15.1727 93.2653L26.6498 106.051L26.6901 106.097H28.3242L16.0339 92.3688L24.5807 81.8589Z" fill="white"/>
<path d="M35.7896 82.4085H39.3772V105.547H35.7896V106.097H44.1979V105.547H40.6102V82.4085H44.1979V81.8589H35.7896V82.4085Z" fill="white"/>
<path d="M69.3029 104.629L54.9467 81.9232L54.9064 81.8589H53.7345V106.097H54.2839V83.1185L69.3247 106.718L69.3661 106.781H69.8523V81.8589H69.3029V104.629Z" fill="white"/>
<path d="M119.601 105.547H108V81.8589H106.767V106.097H120.15V100.25H119.601V105.547Z" fill="white"/>
<path d="M143.507 105.547H130.992V93.5521H138.816V93.0035H130.992V82.4085H142.277V87.7066H142.826V81.8589H129.759V106.097H144.056V99.4641H143.507V105.547Z" fill="white"/>
<path d="M168.495 81.8589L160.685 95.3592L153.05 81.9287L153.01 81.8589H151.565L159.828 96.3222L159.795 105.96V106.097H161.061V95.8445L169.156 81.8589H168.495Z" fill="white"/>
<path d="M95.5089 95.3386C93.7762 93.835 91.708 92.7694 89.4782 92.2315L88.9331 92.0527C87.3432 91.5989 85.8347 90.8971 84.4635 89.9729C83.9338 89.6004 83.5 89.1074 83.1978 88.5345C82.9273 87.9673 82.7926 87.3448 82.8043 86.7165C82.8037 86.0618 82.9775 85.4188 83.3079 84.8538C83.6643 84.2476 84.1411 83.7209 84.7088 83.3062C85.5768 82.6228 86.6007 82.1655 87.6887 81.9751C88.7768 81.7848 89.895 81.8675 90.9433 82.2156C91.6355 82.4332 92.2993 82.7323 92.9208 83.1066C93.3729 83.3762 93.7859 83.7064 94.1484 84.0882C94.446 84.4219 94.6422 84.6498 94.7479 84.7829L94.8232 84.8788L95.8479 84.2539L95.7465 84.1318C95.5138 83.8697 95.2628 83.6244 94.9954 83.3978C94.5397 83.0139 94.0358 82.6913 93.4964 82.4381C92.771 82.0911 92.0124 81.8182 91.2322 81.6235C89.86 81.2578 88.4176 81.2461 87.0396 81.5894C85.6617 81.9327 84.3932 82.6198 83.3526 83.5865C82.7924 84.0825 82.3646 84.7104 82.108 85.4135C81.8514 86.1165 81.7741 86.8725 81.8831 87.6129C82.1264 88.6515 82.606 89.62 83.2847 90.4428C83.9633 91.2656 84.8226 91.9207 85.7957 92.3569C86.857 92.8443 87.9496 93.2608 89.0661 93.6035C91.0239 94.1023 92.8587 94.9976 94.4569 96.234C95.015 96.7142 95.4551 97.3164 95.7432 97.9942C96.0022 98.6483 96.1329 99.3463 96.1281 100.05C96.1315 100.895 95.9577 101.731 95.6179 102.505C95.2754 103.273 94.769 103.957 94.1342 104.508C93.4327 105.106 92.6219 105.561 91.7468 105.85C91.0103 106.103 90.2419 106.252 89.464 106.291C89.093 106.31 88.7212 106.305 88.351 106.275C86.8452 106.129 85.3848 105.679 84.058 104.952C83.4203 104.617 82.8094 104.232 82.2309 103.803C81.9659 103.612 81.7166 103.401 81.4852 103.171L81.4525 103.136C80.9838 102.641 80.9685 102.625 80.8584 102.708L80.6894 102.834C80.4888 102.982 80.2882 103.131 80.0855 103.277L79.947 103.376L80.0746 103.485C80.5927 103.949 81.1456 104.373 81.7283 104.752C83.8221 106.115 86.2633 106.846 88.7608 106.858C89.8767 106.866 90.9863 106.692 92.0465 106.344C93.0507 106.021 93.9891 105.522 94.8177 104.869C95.5687 104.27 96.1869 103.522 96.6328 102.671C97.0654 101.838 97.2898 100.914 97.2869 99.9757C97.2887 99.133 97.1513 98.2958 96.8803 97.4979C96.5935 96.6831 96.1244 95.9445 95.5089 95.3386Z" fill="white"/>
</g>
<g clip-path="url(#clip3_484_41155)">
<path d="M0 145.871V158.891L24.4186 145.263V132.85L0 145.871Z" fill="white"/>
<path d="M24.4629 157.78V145.263L35.5596 151.336V163.735L24.4629 157.78Z" fill="white"/>
<path d="M13.2925 176.001L24.4628 170.046V157.781L13.3514 163.602L13.2925 176.001Z" fill="white"/>
<path d="M46.6561 146.462H57.9297V149.262H49.9424V152.906H56.957V155.676H49.9424V162.342H46.6561V146.462Z" fill="white"/>
<path d="M62.9843 149.174H59.8749V146.345H62.9843V149.174ZM59.8749 150.582H62.9843V162.343H59.8749V150.582Z" fill="white"/>
<path d="M69.0706 162.342H66.0054V146.433H69.0706V162.342Z" fill="white"/>
<path d="M79.6661 150.818C80.4932 151.192 81.1945 151.799 81.685 152.566C82.1823 153.292 82.5052 154.123 82.6282 154.995C82.712 155.768 82.7416 156.545 82.7166 157.321H74.1988C74.2578 158.506 74.6557 159.336 75.422 159.81C75.9332 160.117 76.5212 160.271 77.1167 160.254C77.5959 160.287 78.0738 160.175 78.4889 159.932C78.9039 159.689 79.237 159.326 79.4451 158.891H82.5692C82.4808 159.602 82.0977 160.298 81.4345 161.024C80.3882 162.165 78.9146 162.743 77.0283 162.743C75.5259 162.761 74.0651 162.247 72.902 161.291C71.7231 160.328 71.1189 158.758 71.1189 156.58C71.1189 154.403 71.6642 152.981 72.7399 151.9C73.8157 150.818 75.2009 150.27 76.9251 150.27C77.8674 150.253 78.8022 150.44 79.6661 150.818ZM75.0978 153.47C74.6557 153.929 74.3904 154.536 74.2725 155.292H79.5482C79.4893 154.477 79.224 153.855 78.7377 153.44C78.2346 153.006 77.5875 152.779 76.9251 152.803C76.1293 152.803 75.5251 153.025 75.0978 153.47Z" fill="white"/>
<path d="M86.9019 157.424C87.0051 158.15 87.1967 158.698 87.5061 159.054C88.0514 159.72 88.9945 160.046 90.3208 160.046C90.9747 160.068 91.6274 159.977 92.2513 159.78C93.1945 159.454 93.666 158.832 93.666 157.943C93.6734 157.694 93.6127 157.448 93.4906 157.231C93.3685 157.014 93.1896 156.835 92.9734 156.713C92.5166 156.432 91.7797 156.195 90.7777 155.973L89.0682 155.602C87.3882 155.217 86.224 154.817 85.6051 154.373C84.5293 153.647 83.9988 152.492 83.9988 150.936C83.9859 150.267 84.1191 149.604 84.389 148.992C84.6589 148.38 85.0589 147.836 85.5609 147.396C86.6023 146.448 88.1349 145.974 90.1587 145.974C91.8534 145.974 93.2829 146.419 94.4765 147.307C95.6702 148.196 96.2891 149.485 96.3481 151.173H93.1797C93.1208 150.225 92.6934 149.544 91.8976 149.144C91.2843 148.859 90.6131 148.722 89.9377 148.744C89.0535 148.744 88.3608 148.907 87.8451 149.263C87.5982 149.409 87.3953 149.62 87.2578 149.873C87.1203 150.126 87.0534 150.411 87.064 150.699C87.0551 150.964 87.1228 151.225 87.2588 151.451C87.3949 151.677 87.5935 151.859 87.8303 151.973C88.1545 152.166 88.8619 152.373 89.9377 152.625L92.7081 153.292C93.9165 153.578 94.8302 153.963 95.4492 154.447C96.3776 155.188 96.8491 156.269 96.8491 157.691C96.8637 158.381 96.7212 159.066 96.4326 159.692C96.1441 160.318 95.7169 160.87 95.1839 161.305C94.0639 162.268 92.4871 162.742 90.4534 162.742C88.4198 162.742 86.7251 162.283 85.5314 161.335C84.3378 160.387 83.7483 159.083 83.7483 157.424H86.9019Z" fill="white"/>
<path d="M105.927 154.803C105.876 154.378 105.725 153.972 105.485 153.618C105.131 153.144 104.601 152.907 103.878 152.907C102.847 152.907 102.14 153.411 101.756 154.448C101.54 155.147 101.44 155.878 101.462 156.611C101.44 157.319 101.54 158.025 101.756 158.699C102.125 159.677 102.817 160.166 103.82 160.166C104.542 160.166 105.057 159.973 105.352 159.573C105.673 159.132 105.862 158.608 105.897 158.062H109.022C108.937 159.026 108.59 159.949 108.019 160.729C107.062 162.062 105.632 162.743 103.746 162.743C101.86 162.743 100.474 162.18 99.5901 161.054C98.7059 159.929 98.2638 158.477 98.2638 156.699C98.2638 154.67 98.7501 153.1 99.7375 151.989C100.725 150.878 102.066 150.3 103.79 150.3C105.264 150.3 106.457 150.626 107.401 151.293C108.344 151.959 108.889 153.13 109.051 154.803H105.927Z" fill="white"/>
<path d="M114.297 149.174H111.188V146.345H114.297V149.174ZM111.188 150.582H114.297V162.343H111.188V150.582Z" fill="white"/>
<path d="M124.878 150.818C125.703 151.196 126.403 151.802 126.897 152.566C127.396 153.29 127.714 154.123 127.826 154.995C127.923 155.767 127.958 156.544 127.929 157.321H119.411C119.455 158.506 119.868 159.336 120.634 159.81C121.141 160.115 121.723 160.269 122.314 160.254C122.93 160.278 123.535 160.084 124.023 159.706C124.285 159.482 124.496 159.204 124.642 158.891H127.767C127.693 159.602 127.31 160.298 126.632 161.024C125.586 162.165 124.127 162.743 122.24 162.743C120.738 162.761 119.277 162.247 118.114 161.291C116.92 160.328 116.331 158.758 116.331 156.58C116.331 154.403 116.861 152.981 117.937 151.9C119.013 150.818 120.413 150.27 122.122 150.27C123.069 150.253 124.009 150.439 124.878 150.818ZM120.295 153.47C119.868 153.929 119.602 154.536 119.485 155.292H124.76C124.701 154.477 124.421 153.855 123.935 153.44C123.432 153.006 122.785 152.779 122.122 152.803C121.341 152.803 120.737 153.025 120.295 153.47Z" fill="white"/>
<path d="M138.907 151.263C139.674 151.905 140.057 152.957 140.057 154.418V162.343H136.918V155.189C136.918 154.566 136.844 154.092 136.682 153.766C136.373 153.159 135.813 152.863 134.973 152.863C134.133 152.863 133.234 153.307 132.851 154.181C132.639 154.754 132.539 155.363 132.556 155.974V162.343H129.491V150.611H132.453V152.315C132.851 151.722 133.219 151.278 133.573 151.011C134.192 150.537 134.987 150.3 135.96 150.3C137.154 150.3 138.141 150.626 138.907 151.263Z" fill="white"/>
<path d="M149.901 154.803C149.85 154.378 149.699 153.972 149.459 153.618C149.105 153.144 148.575 152.907 147.853 152.907C146.821 152.907 146.114 153.411 145.73 154.448C145.514 155.147 145.414 155.878 145.436 156.611C145.414 157.319 145.514 158.025 145.73 158.699C146.099 159.677 146.792 160.166 147.794 160.166C148.516 160.166 149.031 159.973 149.326 159.573C149.647 159.132 149.836 158.608 149.871 158.062H152.996C152.911 159.026 152.564 159.949 151.994 160.729C151.021 162.062 149.606 162.743 147.72 162.743C145.834 162.743 144.448 162.18 143.564 161.054C142.68 159.929 142.238 158.477 142.238 156.699C142.238 154.67 142.724 153.1 143.712 151.989C144.699 150.878 146.04 150.3 147.764 150.3C149.238 150.3 150.431 150.626 151.375 151.293C152.318 151.959 152.863 153.13 153.025 154.803H149.901Z" fill="white"/>
<path d="M162.736 150.818C163.568 151.191 164.274 151.798 164.77 152.566C165.257 153.296 165.574 154.126 165.699 154.995C165.789 155.767 165.823 156.544 165.802 157.321H157.284C157.328 158.506 157.741 159.336 158.507 159.81C159.012 160.119 159.596 160.274 160.187 160.254C160.799 160.278 161.399 160.084 161.882 159.706C162.148 159.483 162.364 159.205 162.515 158.891H165.64C165.551 159.602 165.183 160.298 164.505 161.024C163.459 162.165 161.985 162.743 160.099 162.743C158.601 162.757 157.146 162.244 155.987 161.291C154.793 160.328 154.204 158.758 154.204 156.58C154.204 154.403 154.735 152.981 155.81 151.9C156.886 150.818 158.286 150.27 159.995 150.27C160.938 150.253 161.873 150.44 162.736 150.818ZM158.168 153.47C157.714 153.976 157.431 154.614 157.358 155.292H162.619C162.56 154.477 162.294 153.855 161.808 153.44C161.305 153.006 160.658 152.779 159.995 152.803C159.214 152.803 158.595 153.025 158.168 153.47Z" fill="white"/>
</g>
</g>
<defs>
<clipPath id="clip0_484_41155">
<rect width="170.061" height="176" fill="white"/>
</clipPath>
<clipPath id="clip1_484_41155">
<rect width="88.8376" height="42.9974" fill="white" transform="translate(81.2229)"/>
</clipPath>
<clipPath id="clip2_484_41155">
<rect width="159.4" height="39.0886" fill="white" transform="translate(10.6605 68.3794)"/>
</clipPath>
<clipPath id="clip3_484_41155">
<rect width="170.061" height="43.1497" fill="white" transform="translate(0 132.85)"/>
</clipPath>
</defs>
</svg>
