<svg width="336" height="51" viewBox="0 0 336 51" fill="none" xmlns="http://www.w3.org/2000/svg">
<path d="M155.213 50.8613L310.427 50.8613L309.949 50.7393L309.472 50.6172L312.268 50.4544C313.836 50.3609 315.541 50.2429 316.155 50.19L317.246 50.0882L318.201 50.0882L319.156 50.0882L319.156 49.9906L319.156 49.8929L320.178 49.8685L321.201 49.8482L321.201 49.7749L321.201 49.6976L319.906 49.6447L318.61 49.5878L318.883 49.1361L319.224 48.6845L320.247 48.5583L321.27 48.4322L323.998 48.363L326.657 48.2939L326.657 48.184L326.657 48.0701L325.634 47.9887L324.679 47.9033L324.816 47.6551L324.952 47.4109L325.43 47.4272L325.907 47.4475L326.316 47.354C326.521 47.3011 326.793 47.1912 326.93 47.1098L327.202 46.9593L326.18 46.9389C325.634 46.9267 324.68 46.9145 324.066 46.9145L322.906 46.9105L320.997 46.8209L319.156 46.7274L319.224 46.4832C319.292 46.353 319.224 46.0519 319.019 45.82L318.61 45.3968L317.655 45.3643L316.769 45.3277L317.587 45.3277L318.405 45.3277L318.133 45.2666C317.928 45.2341 317.587 45.173 317.314 45.1324C317.11 45.0957 316.973 45.0306 317.041 44.994L317.178 44.9248L315.473 44.8964L313.768 44.8719L312.473 44.9004L311.109 44.9248L310.631 44.8801L310.222 44.8394L309.54 44.8597L308.926 44.8842L308.926 44.7906L308.926 44.6929L307.903 44.6115L306.949 44.5342L306.949 44.4529L306.949 44.3715L308.108 44.2901C309.676 44.1843 313.427 44.0256 314.382 44.0256L315.064 44.0256L315.064 43.9849L315.064 43.9442L316.018 43.9442C316.564 43.9442 317.11 43.932 317.246 43.9117C317.519 43.871 322.361 43.7408 323.588 43.7408L324.611 43.7408L324.611 43.7042L324.611 43.6716L326.248 43.6798L327.817 43.692L328.771 43.6065C330.203 43.4845 333.477 43.2851 333.477 43.3217C333.477 43.338 334.022 43.2973 334.772 43.2322L336 43.1101L335.591 43.045C335.386 43.0084 334.636 42.9352 334.022 42.8823C331.294 42.6585 329.589 42.4876 328.907 42.3737L328.158 42.2475L324.884 41.9912C323.111 41.8488 320.861 41.686 319.974 41.6291C319.087 41.5721 317.382 41.4297 316.291 41.3198C315.2 41.2059 312.609 40.9536 310.563 40.7542C308.517 40.5549 306.88 40.3718 306.88 40.3433C306.88 40.3148 305.857 40.2172 304.562 40.1195L302.243 39.9445L302.243 39.7859L302.175 39.6272L301.629 39.5783L301.084 39.5295L301.152 39.4075L301.22 39.2854L300.265 39.1715L299.311 39.0616L297.469 39.0575C296.447 39.0535 294.946 39.0575 294.06 39.0616L292.559 39.0657L292.559 38.9721L292.559 38.8785L291.877 38.9395L291.195 39.0006L291.195 38.907C291.195 38.8134 289.968 38.6547 288.808 38.6059L288.195 38.5774L281.852 38.6018L275.51 38.6262L275.101 38.5571L274.624 38.4879L277.215 38.3292L279.739 38.1746L279.261 38.1217L278.716 38.0729L279.466 38.1013L280.216 38.1298L281.444 38.0159C282.125 37.9549 283.216 37.8735 283.898 37.8409L285.058 37.7799L284.376 37.6375L283.626 37.4951L283.762 37.2306C283.762 37.0841 283.83 36.8685 283.762 36.7505L283.694 36.5348L284.648 36.4453C285.194 36.3965 285.808 36.2866 286.012 36.2012L286.49 36.0506L287.104 36.0506L287.717 36.0506L288.195 35.9611C288.399 35.9123 289.081 35.8106 289.627 35.7333L290.65 35.5908L291.264 35.6478L291.877 35.7048L291.536 35.4444C291.332 35.302 290.991 35.1677 290.786 35.1514L290.445 35.1148L291.059 35.1148L291.741 35.1148L292.082 35.0334L292.423 34.952L290.65 34.9236C289.627 34.9073 288.467 34.8991 287.99 34.9032L287.172 34.9154L286.694 34.8015C286.422 34.7405 285.535 34.6102 284.648 34.5167L283.08 34.3458L283.08 34.1708C283.08 34.0732 283.012 33.8128 283.012 33.589L282.944 33.1861L284.103 33.1332C284.785 33.1048 285.74 33.0804 286.217 33.0804L287.104 33.0804L287.104 33.003L287.104 32.9257L288.127 32.9013L289.218 32.8769L289.013 32.7426L288.877 32.6043L291.059 32.4497L293.173 32.2951L292.832 32.2584L292.491 32.2259L293.582 32.2259L294.605 32.2259L295.424 32.1242C295.833 32.0672 296.447 32.0224 296.788 32.0224L297.333 32.0224L297.333 31.9289L297.333 31.8312L295.765 31.7214C294.946 31.6603 293.65 31.5667 292.832 31.5179L291.468 31.4243L291.877 31.347C292.15 31.3063 292.218 31.2494 292.082 31.2209L291.741 31.1721L293.719 31.1476C294.742 31.1314 297.265 31.0825 299.174 31.0378L302.789 30.9564L302.789 30.8954C302.789 30.8628 302.379 30.7774 301.834 30.7082C301.288 30.635 300.538 30.5129 300.129 30.4356L299.447 30.2932L299.242 30.0287L299.106 29.7642L300.879 29.5608C301.834 29.4469 303.334 29.2597 304.221 29.1458L305.857 28.9301L306.744 28.9301C307.221 28.9301 308.108 28.9138 308.79 28.8935C309.403 28.8731 310.972 28.8325 312.132 28.808L314.382 28.7592L314.382 28.69C314.382 28.6534 313.632 28.5151 312.745 28.3808L311.04 28.1407L311.586 28.096C311.859 28.0756 312.541 27.9699 313.018 27.8641L313.836 27.6688L313.495 27.5874L313.154 27.506L313.768 27.5304L314.382 27.5508L314.723 27.4979C314.859 27.4694 315.132 27.3595 315.337 27.2537L315.609 27.0625L313.291 27.034L311.04 27.0096L310.222 26.9526L309.472 26.8957L308.176 26.8957L306.949 26.8957L306.471 26.7533C306.267 26.676 305.789 26.5986 305.448 26.5864L304.834 26.5661L304.834 26.4684L304.834 26.3708L303.607 26.3301L302.448 26.2853L303.334 26.2528L304.221 26.2162L303.266 25.9842L302.243 25.7564L304.016 25.6384C304.971 25.5733 306.13 25.4634 306.608 25.3943L307.494 25.2722L305.721 25.1705C304.766 25.1135 303.607 25.0647 303.198 25.0647C302.789 25.0647 301.425 25.0036 300.129 24.9345L297.81 24.8083L297.674 24.613L297.537 24.4137L295.765 24.2997C294.742 24.2346 293.923 24.1695 293.923 24.1451C293.923 24.1248 293.514 24.0597 292.968 24.0027L292.014 23.8928L292.628 23.8399C292.968 23.8074 293.241 23.726 293.241 23.6568L293.241 23.5307L294.605 23.4371C295.355 23.3842 295.969 23.3313 295.969 23.3191C295.901 23.3069 295.696 23.2215 295.355 23.132L294.878 22.9692L295.628 22.4809L296.447 21.9927L295.696 21.9357L294.946 21.8747L296.106 21.9032L297.333 21.9276L297.128 21.8991C296.856 21.8503 299.583 21.6997 301.356 21.6672L303.061 21.6346L304.289 21.5492L305.516 21.4637L305.175 21.3457C304.971 21.2806 304.425 21.1952 303.88 21.1626C302.993 21.0975 302.584 21.0202 301.425 20.6703L300.811 20.4872L298.97 20.2634L297.06 20.0396L296.855 19.8158C296.787 19.6938 296.719 19.5717 296.651 19.5473L296.651 19.4985L295.492 19.5066L294.332 19.5107L294.06 19.4374L293.855 19.3683L294.946 19.3683L296.037 19.3683L295.901 19.1323L295.765 18.8963L296.719 18.7986C297.265 18.7417 297.879 18.6888 298.083 18.6765C298.288 18.6643 298.697 18.5992 298.901 18.526L299.311 18.3958L297.401 18.3104C296.31 18.2656 295.151 18.229 294.81 18.229C294.469 18.229 292.287 18.1232 289.9 17.993L285.671 17.757L286.422 17.6431L287.172 17.5251L286.967 17.4396C286.694 17.3175 285.672 17.2646 282.466 17.2077L279.602 17.1589L278.511 17.0571L277.352 16.9554L277.352 16.8618L277.352 16.7642L276.806 16.7886L276.192 16.8089L276.192 16.7723L276.192 16.7316L273.805 16.7072L271.419 16.6787L271.078 16.5892L270.737 16.4997L271.078 16.1742C271.282 15.9952 271.487 15.7999 271.623 15.7348L271.76 15.6249L272.237 15.6208C272.578 15.6168 272.987 15.6127 273.26 15.6086C274.147 15.6005 277.215 15.4621 276.602 15.4621L276.056 15.4621L276.738 15.4092L277.42 15.3604L276.465 15.1977L275.51 15.0349L275.101 14.6891C274.897 14.4978 274.692 14.2618 274.692 14.1601L274.692 13.9811L273.805 13.9363C273.328 13.916 272.783 13.8468 272.51 13.7898L272.101 13.68L272.851 13.566L273.533 13.448L275.238 13.3748C276.192 13.33 277.351 13.2934 277.761 13.2894C278.238 13.2812 279.057 13.2649 279.602 13.2527C280.148 13.2405 281.512 13.2202 282.671 13.208C283.762 13.1958 285.399 13.1754 286.217 13.1592L287.786 13.1347L287.445 13.1022L287.104 13.0656L287.717 13.0452L288.331 13.0208L287.786 12.8743L287.24 12.7279L287.649 12.4797C288.058 12.2111 288.058 12.1379 287.786 11.7228L287.649 11.4665L288.468 11.434L289.218 11.4055L289.9 11.2264C290.241 11.1288 290.718 11.0149 290.923 10.9701L291.332 10.8928L290.65 10.9213L290.036 10.9457L290.582 10.7707C290.854 10.6771 291.4 10.5469 291.809 10.4859L292.559 10.3679L292.15 10.3272L291.673 10.2825L292.355 10.3069L293.037 10.3313L293.923 10.2214C294.469 10.1604 294.878 10.079 294.81 10.0383L294.81 9.96916L295.969 9.96916C296.583 9.96916 297.333 9.95695 297.606 9.94068C297.878 9.92034 298.356 9.90813 298.56 9.90813C298.833 9.90813 299.788 9.87558 300.743 9.83489C301.629 9.79827 302.107 9.76572 301.766 9.76572L301.152 9.76572L301.902 9.72096L302.652 9.6762L301.697 9.56634L300.811 9.45649L300.333 9.25711C299.993 9.06181 299.584 8.83802 299.174 8.62644C299.106 8.56947 298.833 8.51658 298.629 8.50437C298.424 8.49216 297.879 8.42299 297.469 8.34568L296.651 8.20327L297.196 8.18293C297.537 8.17072 297.947 8.11783 298.151 8.069L298.56 7.97949L297.606 7.95914L296.651 7.9388L296.651 7.75163L296.651 7.56446L295.969 7.58887L295.287 7.61328L295.287 7.52784L295.287 7.44239L295.901 7.4668L296.583 7.48715L296.992 7.40984L297.401 7.32846L296.651 7.24302C296.242 7.19826 295.628 7.16164 295.287 7.16164L294.605 7.16164L294.605 7.23081L294.605 7.29592L294.196 7.2715C293.923 7.2593 293.719 7.14536 293.65 7.0233L293.514 6.80358L294.06 6.82392L294.605 6.8402L294.469 6.71813L294.332 6.592L292.764 6.592L291.195 6.592L291.195 6.51876C291.195 6.48214 290.718 6.36821 290.172 6.27056L289.081 6.0956L292.764 5.82299C297.469 5.4812 302.448 5.16789 303.266 5.16789C303.607 5.16789 304.221 5.18824 304.698 5.21672L305.448 5.26148L306.403 5.21672L307.358 5.16789L307.835 5.20045L308.381 5.22893L309.335 5.15162L310.29 5.07024L310.29 4.8546L310.29 4.63488L311.245 4.50467L312.132 4.37447L314.041 4.26054L315.95 4.15068L317.11 4.15068L318.337 4.15068L318.678 4.06524L319.087 3.97572L318.746 3.86586L318.337 3.756L319.633 3.68276C320.315 3.64207 320.792 3.60139 320.656 3.59325C320.247 3.56476 321.406 3.37759 322.224 3.3369L323.179 3.29215L322.77 3.22705L322.361 3.16194L323.316 3.19449L324.27 3.23112L323.316 3.16194L322.429 3.09278L323.998 2.84051C324.884 2.6981 325.634 2.56382 325.702 2.54348C325.771 2.51906 326.111 2.45803 326.521 2.40107L327.202 2.29935L325.839 2.2261L324.407 2.15286L323.52 2.17321L322.702 2.19356L322.361 2.11218L322.02 2.03486L320.997 2.03486L320.042 2.03486L320.588 1.83142L321.133 1.62798L322.156 1.56695C322.702 1.5344 323.52 1.50591 323.929 1.50591C324.952 1.50591 327.271 1.33909 327.339 1.26585L327.339 1.20888L325.702 1.07868L323.998 0.948481L323.998 0.708418C323.998 0.578211 323.998 0.411387 323.998 0.346285C323.998 0.277113 323.929 0.179461 323.725 0.1225L323.452 0.0207733L161.76 0.00854674L4.59668 0.000623684C2.05805 0.000497492 7.71148e-07 2.05843 7.31034e-07 4.59707L4.01834e-07 25.4308L7.26297e-08 46.2648C3.25175e-08 48.8034 2.05789 50.8613 4.59644 50.8613L155.213 50.8613Z" fill="white"/>
</svg>
