<svg width="336" height="376" viewBox="0 0 336 376" fill="none" xmlns="http://www.w3.org/2000/svg">
<path d="M155.213 375.213L310.427 375.213L309.949 374.313L309.472 373.413L312.268 372.213C313.836 371.523 315.541 370.653 316.155 370.263L317.246 369.513L318.201 369.513L319.156 369.513L319.156 368.793L319.156 368.073L320.178 367.893L321.201 367.743L321.201 367.203L321.201 366.633L319.906 366.243L318.61 365.823L318.883 362.493L319.224 359.163L320.247 358.233L321.27 357.303L323.998 356.793L326.657 356.283L326.657 355.473L326.657 354.633L325.634 354.033L324.679 353.403L324.816 351.573L324.952 349.773L325.43 349.893L325.907 350.043L326.316 349.353C326.521 348.963 326.793 348.153 326.93 347.553L327.202 346.443L326.18 346.293C325.634 346.203 324.68 346.113 324.066 346.113L322.906 346.083L320.997 345.423L319.156 344.733L319.224 342.933C319.292 341.973 319.224 339.753 319.019 338.043L318.61 334.923L317.655 334.683L316.769 334.413L317.587 334.413L318.405 334.413L318.133 333.963C317.928 333.723 317.587 333.273 317.314 332.973C317.11 332.703 316.973 332.223 317.041 331.953L317.178 331.443L315.473 331.233L313.768 331.053L312.473 331.263L311.109 331.443L310.631 331.113L310.222 330.813L309.54 330.963L308.926 331.143L308.926 330.453L308.926 329.733L307.903 329.133L306.949 328.563L306.949 327.963L306.949 327.363L308.108 326.763C309.676 325.983 313.427 324.813 314.382 324.813L315.064 324.813L315.064 324.513L315.064 324.213L316.018 324.213C316.564 324.213 317.11 324.123 317.246 323.973C317.519 323.673 322.361 322.713 323.588 322.713L324.611 322.713L324.611 322.443L324.611 322.203L326.248 322.263L327.817 322.353L328.771 321.723C330.203 320.823 333.477 319.353 333.477 319.623C333.477 319.743 334.022 319.443 334.772 318.963L336 318.063L335.591 317.583C335.386 317.313 334.636 316.773 334.022 316.383C331.294 314.733 329.589 313.473 328.907 312.633L328.158 311.703L324.884 309.813C323.111 308.763 320.861 307.563 319.974 307.143C319.087 306.723 317.382 305.673 316.291 304.863C315.2 304.023 312.609 302.163 310.563 300.693C308.517 299.223 306.88 297.873 306.88 297.663C306.88 297.453 305.857 296.733 304.562 296.013L302.243 294.723L302.243 293.553L302.175 292.383L301.629 292.023L301.084 291.663L301.152 290.763L301.22 289.863L300.265 289.023L299.311 288.213L297.469 288.183C296.447 288.153 294.946 288.183 294.06 288.213L292.559 288.243L292.559 287.553L292.559 286.863L291.877 287.313L291.195 287.763L291.195 287.073C291.195 286.383 289.968 285.213 288.808 284.853L288.195 284.643L281.852 284.823L275.51 285.003L275.101 284.493L274.624 283.983L277.215 282.813L279.739 281.673L279.261 281.283L278.716 280.923L279.466 281.133L280.216 281.343L281.444 280.503C282.125 280.053 283.216 279.453 283.898 279.213L285.058 278.763L284.376 277.713L283.626 276.663L283.762 274.713C283.762 273.633 283.83 272.043 283.762 271.173L283.694 269.583L284.648 268.923C285.194 268.563 285.808 267.753 286.012 267.123L286.49 266.013L287.104 266.013L287.717 266.013L288.195 265.353C288.399 264.993 289.081 264.243 289.627 263.673L290.65 262.623L291.264 263.043L291.877 263.463L291.536 261.543C291.332 260.493 290.991 259.503 290.786 259.383L290.445 259.113L291.059 259.113L291.741 259.113L292.082 258.513L292.423 257.913L290.65 257.703C289.627 257.583 288.467 257.523 287.99 257.553L287.172 257.643L286.694 256.803C286.422 256.353 285.535 255.393 284.648 254.703L283.08 253.443L283.08 252.153C283.08 251.433 283.012 249.513 283.012 247.863L282.944 244.893L284.103 244.503C284.785 244.293 285.74 244.113 286.217 244.113L287.104 244.113L287.104 243.543L287.104 242.973L288.127 242.793L289.218 242.613L289.013 241.623L288.877 240.603L291.059 239.463L293.173 238.323L292.832 238.053L292.491 237.813L293.582 237.813L294.605 237.813L295.424 237.063C295.833 236.643 296.447 236.313 296.788 236.313L297.333 236.313L297.333 235.623L297.333 234.903L295.765 234.093C294.946 233.643 293.65 232.953 292.832 232.593L291.468 231.903L291.877 231.333C292.15 231.033 292.218 230.613 292.082 230.403L291.741 230.043L293.719 229.863C294.742 229.743 297.265 229.383 299.174 229.053L302.789 228.453L302.789 228.003C302.789 227.763 302.379 227.133 301.834 226.623C301.288 226.083 300.538 225.183 300.129 224.613L299.447 223.563L299.242 221.613L299.106 219.663L300.879 218.163C301.834 217.323 303.334 215.943 304.221 215.103L305.857 213.513L306.744 213.513C307.221 213.513 308.108 213.393 308.79 213.243C309.403 213.093 310.972 212.793 312.132 212.613L314.382 212.253L314.382 211.743C314.382 211.473 313.632 210.453 312.745 209.463L311.04 207.693L311.586 207.363C311.859 207.213 312.541 206.433 313.018 205.653L313.836 204.213L313.495 203.613L313.154 203.013L313.768 203.193L314.382 203.343L314.723 202.953C314.859 202.743 315.132 201.933 315.337 201.153L315.609 199.743L313.291 199.533L311.04 199.353L310.222 198.933L309.472 198.513L308.176 198.513L306.949 198.513L306.471 197.463C306.267 196.893 305.789 196.323 305.448 196.233L304.834 196.083L304.834 195.363L304.834 194.643L303.607 194.343L302.448 194.013L303.334 193.773L304.221 193.503L303.266 191.793L302.243 190.113L304.016 189.243C304.971 188.763 306.13 187.953 306.608 187.443L307.494 186.543L305.721 185.793C304.766 185.373 303.607 185.013 303.198 185.013C302.789 185.013 301.425 184.563 300.129 184.053L297.81 183.123L297.674 181.683L297.537 180.213L295.765 179.373C294.742 178.893 293.923 178.413 293.923 178.233C293.923 178.083 293.514 177.603 292.968 177.183L292.014 176.373L292.628 175.983C292.968 175.743 293.241 175.143 293.241 174.633L293.241 173.703L294.605 173.013C295.355 172.623 295.969 172.233 295.969 172.143C295.901 172.053 295.696 171.423 295.355 170.763L294.878 169.563L295.628 165.963L296.447 162.363L295.696 161.943L294.946 161.493L296.106 161.703L297.333 161.883L297.128 161.673C296.856 161.313 299.583 160.203 301.356 159.963L303.061 159.723L304.289 159.093L305.516 158.463L305.175 157.593C304.971 157.113 304.425 156.483 303.88 156.243C302.993 155.763 302.584 155.193 301.425 152.613L300.811 151.263L298.97 149.613L297.06 147.963L296.855 146.313C296.787 145.413 296.719 144.513 296.651 144.333L296.651 143.973L295.492 144.033L294.332 144.063L294.06 143.523L293.855 143.013L294.946 143.013L296.037 143.013L295.901 141.273L295.765 139.533L296.719 138.813C297.265 138.393 297.879 138.003 298.083 137.913C298.288 137.823 298.697 137.343 298.901 136.803L299.311 135.843L297.401 135.213C296.31 134.883 295.151 134.613 294.81 134.613C294.469 134.613 292.287 133.833 289.9 132.873L285.671 131.133L286.422 130.293L287.172 129.423L286.967 128.793C286.694 127.893 285.672 127.503 282.466 127.083L279.602 126.723L278.511 125.973L277.352 125.223L277.352 124.533L277.352 123.813L276.806 123.993L276.192 124.143L276.192 123.873L276.192 123.573L273.805 123.393L271.419 123.183L271.078 122.523L270.737 121.863L271.078 119.463C271.282 118.143 271.487 116.703 271.623 116.223L271.76 115.413L272.237 115.383C272.578 115.353 272.987 115.323 273.26 115.293C274.147 115.233 277.215 114.213 276.602 114.213L276.056 114.213L276.738 113.823L277.42 113.463L276.465 112.263L275.51 111.063L275.101 108.513C274.897 107.103 274.692 105.363 274.692 104.613L274.692 103.293L273.805 102.963C273.328 102.813 272.783 102.303 272.51 101.883L272.101 101.073L272.851 100.233L273.533 99.3629L275.238 98.8229C276.192 98.4929 277.351 98.2229 277.761 98.1929C278.238 98.1329 279.057 98.0129 279.602 97.9229C280.148 97.8329 281.512 97.6829 282.671 97.5929C283.762 97.5029 285.399 97.3529 286.217 97.2329L287.786 97.0529L287.445 96.8129L287.104 96.5429L287.717 96.3929L288.331 96.2129L287.786 95.1329L287.24 94.0529L287.649 92.2229C288.058 90.2429 288.058 89.7029 287.786 86.6429L287.649 84.7529L288.468 84.5129L289.218 84.3029L289.9 82.9829C290.241 82.2629 290.718 81.4229 290.923 81.0929L291.332 80.5229L290.65 80.7329L290.036 80.9129L290.582 79.6229C290.854 78.9329 291.4 77.9729 291.809 77.5229L292.559 76.6529L292.15 76.3529L291.673 76.0229L292.355 76.2029L293.037 76.3829L293.923 75.5729C294.469 75.1229 294.878 74.5229 294.81 74.2229L294.81 73.7129L295.969 73.7129C296.583 73.7129 297.333 73.6229 297.606 73.5029C297.878 73.3529 298.356 73.2629 298.56 73.2629C298.833 73.2629 299.788 73.0229 300.743 72.7229C301.629 72.4529 302.107 72.2129 301.766 72.2129L301.152 72.2129L301.902 71.8829L302.652 71.5529L301.697 70.7429L300.811 69.9329L300.333 68.4629C299.993 67.0229 299.584 65.3729 299.174 63.8129C299.106 63.3929 298.833 63.0029 298.629 62.9129C298.424 62.8229 297.879 62.3129 297.469 61.7429L296.651 60.6929L297.196 60.5429C297.537 60.4529 297.947 60.0629 298.151 59.7029L298.56 59.0429L297.606 58.8929L296.651 58.7429L296.651 57.3629L296.651 55.9829L295.969 56.1629L295.287 56.3429L295.287 55.7129L295.287 55.0829L295.901 55.2629L296.583 55.4129L296.992 54.8429L297.401 54.2429L296.651 53.6129C296.242 53.2829 295.628 53.0129 295.287 53.0129L294.605 53.0129L294.605 53.5229L294.605 54.0029L294.196 53.8229C293.923 53.7329 293.719 52.8929 293.65 51.9929L293.514 50.3729L294.06 50.5229L294.605 50.6429L294.469 49.7429L294.332 48.8129L292.764 48.8129L291.195 48.8129L291.195 48.2729C291.195 48.0029 290.718 47.1629 290.172 46.4429L289.081 45.1529L292.764 43.1429C297.469 40.6229 302.448 38.3129 303.266 38.3129C303.607 38.3129 304.221 38.4629 304.698 38.6729L305.448 39.0029L306.403 38.6729L307.358 38.3129L307.835 38.5529L308.381 38.7629L309.335 38.1929L310.29 37.5929L310.29 36.0029L310.29 34.3829L311.245 33.4229L312.132 32.4629L314.041 31.6229L315.95 30.8129L317.11 30.8129L318.337 30.8129L318.678 30.1829L319.087 29.5229L318.746 28.7129L318.337 27.9029L319.633 27.3629C320.315 27.0629 320.792 26.7629 320.656 26.7029C320.247 26.4929 321.406 25.1129 322.224 24.8129L323.179 24.4829L322.77 24.0029L322.361 23.5229L323.316 23.7629L324.27 24.0329L323.316 23.5229L322.429 23.0129L323.998 21.1529C324.884 20.1029 325.634 19.1129 325.702 18.9629C325.771 18.7829 326.111 18.3329 326.521 17.9129L327.203 17.1629L325.839 16.6229L324.407 16.0829L323.52 16.2329L322.702 16.3829L322.361 15.7829L322.02 15.2129L320.997 15.2129L320.042 15.2129L320.588 13.7129L321.133 12.2129L322.156 11.7629C322.702 11.5229 323.52 11.3129 323.929 11.3129C324.952 11.3129 327.271 10.0829 327.339 9.54288L327.339 9.12289L325.702 8.1629L323.998 7.20294L323.998 5.43292C323.998 4.47292 323.998 3.24291 323.998 2.76291C323.998 2.25291 323.929 1.53291 323.725 1.11291L323.452 0.362883L161.76 0.272867L4.59815 0.214586C2.05894 0.213644 5.89295e-06 2.27182 5.85282e-06 4.81103L2.96274e-06 187.713L7.26297e-08 370.616C3.25174e-08 373.155 2.0579 375.213 4.59644 375.213L155.213 375.213Z" fill="white"/>
</svg>
